<?xml version="1.0" encoding="UTF-8"?>
<!DOCTYPE svg PUBLIC "-//W3C//DTD SVG 1.1//EN" 
"http://www.w3.org/Graphics/SVG/1.1/DTD/svg11.dtd">

<svg version="1.1"
   width="546px"
   height="546px"
xmlns="http://www.w3.org/2000/svg">
    <rect width="100%" height="100%" fill="white"/>

  <line x1="256.7500" y1="422.9469" x2="256.7500" y2="402.9472" stroke="#595959"
     style="stroke-width:2;stroke-miterlimit:4;stroke-dasharray:1,1;stroke-dashoffset:0" />
  <line x1="256.7500" y1="342.9476" x2="256.7500" y2="322.9480" stroke="#595959"
     style="stroke-width:2;stroke-miterlimit:4;stroke-dasharray:1,1;stroke-dashoffset:0" />
  <line x1="256.7499" y1="262.9485" x2="256.7500" y2="242.9490" stroke="#595959"
     style="stroke-width:2;stroke-miterlimit:4;stroke-dasharray:1,1;stroke-dashoffset:0" />
  <line x1="256.7500" y1="162.9499" x2="256.7500" y2="142.9500" stroke="#595959"
     style="stroke-width:2;stroke-miterlimit:4;stroke-dasharray:1,1;stroke-dashoffset:0" />
  <line x1="289.2500" y1="142.9500" x2="289.2500" y2="162.9499" stroke="#595959"
     style="stroke-width:2;stroke-miterlimit:4;stroke-dasharray:1,1;stroke-dashoffset:0" />
  <line x1="289.2500" y1="242.9490" x2="289.2501" y2="262.9485" stroke="#595959"
     style="stroke-width:2;stroke-miterlimit:4;stroke-dasharray:1,1;stroke-dashoffset:0" />
  <line x1="289.2501" y1="302.9480" x2="289.2500" y2="322.9480" stroke="#595959"
     style="stroke-width:2;stroke-miterlimit:4;stroke-dasharray:1,1;stroke-dashoffset:0" />
  <line x1="289.2500" y1="322.9480" x2="289.2500" y2="342.9476" stroke="#595959"
     style="stroke-width:2;stroke-miterlimit:4;stroke-dasharray:1,1;stroke-dashoffset:0" />
  <line x1="289.2500" y1="402.9472" x2="289.2500" y2="422.9469" stroke="#595959"
     style="stroke-width:2;stroke-miterlimit:4;stroke-dasharray:1,1;stroke-dashoffset:0" />
  <line x1="256.7500" y1="461.3468" x2="289.2500" y2="461.3468" stroke="#cd4500" stroke-width="1.0" />
  <circle cx="273.0000" cy="461.3468" r="2.25" stroke="#cd4500" stroke-width="1.0" fill="#cd4500"/>
  <line x1="256.7500" y1="384.5472" x2="289.2500" y2="384.5472" stroke="#efaf00" stroke-width="1.0" />
  <circle cx="273.0000" cy="384.5472" r="2.25" stroke="#efaf00" stroke-width="1.0" fill="#efaf00"/>
  <line x1="256.7500" y1="321.3480" x2="289.2500" y2="321.3480" stroke="#efaf00" stroke-width="1.0" />
  <circle cx="273.0000" cy="321.3480" r="2.25" stroke="#efaf00" stroke-width="1.0" fill="#efaf00"/>
  <line x1="256.7499" y1="302.9480" x2="256.7441" y2="282.9485" stroke="#6a01e2" stroke-width="1.0" />
  <path d="M 250.9970 295.1983 L 250.9970 290.6983 L 255.4970 290.6983 L 255.4970 295.1983 z" style="stroke:#6a01e2;stroke-width:1.0" fill="#6a01e2" 
    transform="rotate(449.9835 256.7470 292.9483)"/>
  <path d="M 258.4970 295.1983 L 258.4970 290.6983 L 262.4970 292.9483 z" style="stroke:#6a01e2;stroke-width:1.0" fill="#6a01e2"
    transform="rotate(449.9835 256.7470 292.9483)"/>
  <line x1="256.7499" y1="302.9480" x2="289.2501" y2="302.9480" stroke="#cd4500" stroke-width="1.0" />
  <circle cx="273.0000" cy="302.9480" r="2.25" stroke="#cd4500" stroke-width="1.0" fill="#cd4500"/>
  <line x1="256.7499" y1="302.9480" x2="289.2500" y2="322.9480" stroke="#efaf00" stroke-width="1.0" />
  <circle cx="272.9999" cy="312.9480" r="2.25" stroke="#efaf00" stroke-width="1.0" fill="#efaf00"/>
  <line x1="257.5825" y1="281.5858" x2="290.0886" y2="301.5853" stroke="#efaf00" stroke-width="1.0" />
  <path d="M 268.0856 293.8355 L 268.0856 289.3355 L 272.5856 289.3355 L 272.5856 293.8355 z" style="stroke:#efaf00;stroke-width:1.0" fill="#efaf00" 
    transform="rotate(31.6022 273.8356 291.5855)"/>
  <path d="M 275.5856 293.8355 L 275.5856 289.3355 L 279.5856 291.5855 z" style="stroke:#efaf00;stroke-width:1.0" fill="#efaf00"
    transform="rotate(31.6022 273.8356 291.5855)"/>
  <line x1="255.9057" y1="284.3112" x2="288.4117" y2="304.3108" stroke="#efaf00" stroke-width="1.0" />
  <circle cx="272.1587" cy="294.3110" r="2.25" stroke="#efaf00" stroke-width="1.0" fill="#efaf00"/>
  <line x1="256.7499" y1="261.3485" x2="289.2501" y2="261.3485" stroke="#efaf00" stroke-width="1.0" />
  <circle cx="273.0000" cy="261.3485" r="2.25" stroke="#efaf00" stroke-width="1.0" fill="#efaf00"/>
  <line x1="256.7499" y1="264.5485" x2="289.2501" y2="264.5485" stroke="#8a06f6" stroke-width="1.0" />
  <circle cx="273.0000" cy="264.5485" r="2.25" stroke="#8a06f6" stroke-width="1.0" fill="#8a06f6"/>
  <line x1="256.7499" y1="262.9485" x2="289.2559" y2="282.9485" stroke="#5800ac" stroke-width="1.0" />
  <circle cx="273.0029" cy="272.9485" r="2.25" stroke="#5800ac" stroke-width="1.0" fill="#5800ac"/>
  <line x1="256.7499" y1="262.9485" x2="289.2501" y2="302.9480" stroke="#cd4500" stroke-width="1.0" />
  <circle cx="273.0000" cy="282.9483" r="2.25" stroke="#cd4500" stroke-width="1.0" fill="#cd4500"/>
  <line x1="256.7500" y1="242.9490" x2="289.2500" y2="242.9490" stroke="#3c0057" stroke-width="1.0" />
  <circle cx="273.0000" cy="242.9490" r="2.25" stroke="#3c0057" stroke-width="1.0" fill="#3c0057"/>
  <line x1="256.7500" y1="204.5495" x2="289.2500" y2="204.5495" stroke="#efaf00" stroke-width="1.0" />
  <circle cx="273.0000" cy="204.5495" r="2.25" stroke="#efaf00" stroke-width="1.0" fill="#efaf00"/>
  <line x1="256.7500" y1="462.9468" x2="256.7500" y2="442.9469" stroke="#000000" stroke-width="1.0" />
  <rect
     style="fill:#ffffff;fill-opacity:1;fill-rule:nonzero;stroke:none"
     width="2"
     height="2"
     x="256.2500"
     y="451.9469"
     transform="rotate(270.0000 256.7500 452.9469)" /> 
  <path
     style="fill:none;stroke:#000000;stroke-width:1px;stroke-linecap:butt;stroke-linejoin:miter;stroke-opacity:1"
     d="m 256.7500,450.9469 2,2 -2,2 m -2.370121,-4 2,2 -2,2"
     transform="rotate(270.0000 256.7500 452.9469)"/>
  <line x1="256.7500" y1="464.5468" x2="289.2500" y2="464.5468" stroke="#a31289" stroke-width="1.0" />
  <line x1="256.7500" y1="442.9469" x2="256.7500" y2="422.9469" stroke="#980bca" stroke-width="1.0" />
  <rect
     style="fill:#ffffff;fill-opacity:1;fill-rule:nonzero;stroke:none"
     width="2"
     height="2"
     x="256.2500"
     y="431.9469"
     transform="rotate(-90.0000 256.7500 432.9469)" /> 
  <path
     style="fill:none;stroke:#980bca;stroke-width:1px;stroke-linecap:butt;stroke-linejoin:miter;stroke-opacity:1"
     d="m 256.7500,430.9469 2,2 -2,2 m -2.370121,-4 2,2 -2,2"
     transform="rotate(-90.0000 256.7500 432.9469)"/>
  <line x1="256.7500" y1="444.1969" x2="289.2500" y2="444.1969" stroke="#3c0057" stroke-width="1.0" />
  <line x1="256.7500" y1="441.6969" x2="289.2500" y2="441.6969" stroke="#3c0057" stroke-width="1.0" />
  <line x1="256.7500" y1="422.9469" x2="289.2500" y2="422.9469" stroke="#000000" stroke-width="1.0" />
  <line x1="256.7500" y1="402.9472" x2="256.7500" y2="382.9472" stroke="#a31289" stroke-width="1.0" />
  <rect
     style="fill:#ffffff;fill-opacity:1;fill-rule:nonzero;stroke:none"
     width="2"
     height="2"
     x="256.2500"
     y="391.9472"
     transform="rotate(270.0000 256.7500 392.9472)" /> 
  <path
     style="fill:none;stroke:#a31289;stroke-width:1px;stroke-linecap:butt;stroke-linejoin:miter;stroke-opacity:1"
     d="m 256.7500,390.9472 2,2 -2,2 m -2.370121,-4 2,2 -2,2"
     transform="rotate(270.0000 256.7500 392.9472)"/>
  <line x1="256.7500" y1="404.1972" x2="289.2500" y2="404.1972" stroke="#000000" stroke-width="1.0" />
  <line x1="256.7500" y1="401.6972" x2="289.2500" y2="401.6972" stroke="#000000" stroke-width="1.0" />
  <line x1="256.7500" y1="402.9472" x2="289.2500" y2="422.9469" stroke="#3c0057" stroke-width="1.0" />
  <rect
     style="fill:#ffffff;stroke:none"
     width="5.5"
     height="2"
     x="270.2500"
     y="411.9470" 
     transform="rotate(31.6072 273.0000 412.9470)"    /> 
  <path
     style="fill:none;stroke:#3c0057;stroke-width:1px;stroke-linecap:butt;stroke-linejoin:miter;stroke-opacity:1"
    d="m 273.7500,410.9470 2,2 -2,2 m -1.5,-4 -2,2 2,2" transform="rotate(31.6072 273.0000 412.9470)"/>
  <line x1="256.7500" y1="382.9472" x2="256.7500" y2="362.9475" stroke="#980bca" stroke-width="1.0" />
  <rect
     style="fill:#ffffff;fill-opacity:1;fill-rule:nonzero;stroke:none"
     width="2"
     height="2"
     x="256.2500"
     y="371.9474"
     transform="rotate(270.0000 256.7500 372.9474)" /> 
  <path
     style="fill:none;stroke:#980bca;stroke-width:1px;stroke-linecap:butt;stroke-linejoin:miter;stroke-opacity:1"
     d="m 256.7500,370.9474 2,2 -2,2 m -2.370121,-4 2,2 -2,2"
     transform="rotate(270.0000 256.7500 372.9474)"/>
  <line x1="256.7500" y1="382.5972" x2="289.2500" y2="382.5972" stroke="#5800ac" stroke-width="1.0" />
  <line x1="256.7500" y1="380.0972" x2="289.2500" y2="380.0972" stroke="#5800ac" stroke-width="1.0" />
  <line x1="256.7500" y1="382.9472" x2="289.2500" y2="402.9472" stroke="#e89000" stroke-width="1.0" />
  <rect
     style="fill:#ffffff;stroke:none"
     width="5.5"
     height="2"
     x="270.2500"
     y="391.9472" 
     transform="rotate(31.6075 273.0000 392.9472)"    /> 
  <path
     style="fill:none;stroke:#e89000;stroke-width:1px;stroke-linecap:butt;stroke-linejoin:miter;stroke-opacity:1"
    d="m 273.7500,390.9472 2,2 -2,2 m -1.5,-4 -2,2 2,2" transform="rotate(31.6075 273.0000 392.9472)"/>
  <line x1="256.7500" y1="362.9475" x2="256.7500" y2="342.9476" stroke="#000000" stroke-width="1.0" />
  <rect
     style="fill:#ffffff;fill-opacity:1;fill-rule:nonzero;stroke:none"
     width="2"
     height="2"
     x="256.2500"
     y="351.9475"
     transform="rotate(-90.0000 256.7500 352.9475)" /> 
  <path
     style="fill:none;stroke:#000000;stroke-width:1px;stroke-linecap:butt;stroke-linejoin:miter;stroke-opacity:1"
     d="m 256.7500,350.9475 2,2 -2,2 m -2.370121,-4 2,2 -2,2"
     transform="rotate(-90.0000 256.7500 352.9475)"/>
  <line x1="256.7500" y1="362.9475" x2="289.2500" y2="362.9475" stroke="#3c0057" stroke-width="1.0" />
  <line x1="256.7500" y1="362.9475" x2="289.2500" y2="382.9472" stroke="#efaf00" stroke-width="1.0" />
  <rect
     style="fill:#ffffff;stroke:none"
     width="5.5"
     height="2"
     x="270.2500"
     y="371.9474" 
     transform="rotate(31.6071 273.0000 372.9474)"    /> 
  <path
     style="fill:none;stroke:#efaf00;stroke-width:1px;stroke-linecap:butt;stroke-linejoin:miter;stroke-opacity:1"
    d="m 273.7500,370.9474 2,2 -2,2 m -1.5,-4 -2,2 2,2" transform="rotate(31.6071 273.0000 372.9474)"/>
  <line x1="256.7500" y1="344.1976" x2="289.2500" y2="344.1976" stroke="#000000" stroke-width="1.0" />
  <line x1="256.7500" y1="341.6976" x2="289.2500" y2="341.6976" stroke="#000000" stroke-width="1.0" />
  <line x1="256.7500" y1="322.9480" x2="256.7499" y2="302.9480" stroke="#5800ac" stroke-width="1.0" />
  <rect
     style="fill:#ffffff;fill-opacity:1;fill-rule:nonzero;stroke:none"
     width="2"
     height="2"
     x="256.2499"
     y="311.9480"
     transform="rotate(269.9996 256.7499 312.9480)" /> 
  <path
     style="fill:none;stroke:#5800ac;stroke-width:1px;stroke-linecap:butt;stroke-linejoin:miter;stroke-opacity:1"
     d="m 256.7499,310.9480 2,2 -2,2 m -2.370121,-4 2,2 -2,2"
     transform="rotate(269.9996 256.7499 312.9480)"/>
  <line x1="256.7500" y1="324.5480" x2="289.2500" y2="324.5480" stroke="#5800ac" stroke-width="1.0" />
  <line x1="256.7500" y1="322.9480" x2="289.2500" y2="342.9476" stroke="#000000" stroke-width="1.0" />
  <rect
     style="fill:#ffffff;stroke:none"
     width="5.5"
     height="2"
     x="270.2500"
     y="331.9478" 
     transform="rotate(31.6070 273.0000 332.9478)"    /> 
  <path
     style="fill:none;stroke:#000000;stroke-width:1px;stroke-linecap:butt;stroke-linejoin:miter;stroke-opacity:1"
    d="m 273.7500,330.9478 2,2 -2,2 m -1.5,-4 -2,2 2,2" transform="rotate(31.6070 273.0000 332.9478)"/>
  <line x1="256.7441" y1="282.9485" x2="256.7499" y2="262.9485" stroke="#efaf00" stroke-width="1.0" />
  <rect
     style="fill:#ffffff;fill-opacity:1;fill-rule:nonzero;stroke:none"
     width="2"
     height="2"
     x="256.2470"
     y="271.9485"
     transform="rotate(-89.9833 256.7470 272.9485)" /> 
  <path
     style="fill:none;stroke:#efaf00;stroke-width:1px;stroke-linecap:butt;stroke-linejoin:miter;stroke-opacity:1"
     d="m 256.7470,270.9485 2,2 -2,2 m -2.370121,-4 2,2 -2,2"
     transform="rotate(-89.9833 256.7470 272.9485)"/>
  <line x1="256.7500" y1="242.9490" x2="256.7500" y2="222.9491" stroke="#000000" stroke-width="1.0" />
  <rect
     style="fill:#ffffff;fill-opacity:1;fill-rule:nonzero;stroke:none"
     width="2"
     height="2"
     x="256.2500"
     y="231.9491"
     transform="rotate(270.0000 256.7500 232.9491)" /> 
  <path
     style="fill:none;stroke:#000000;stroke-width:1px;stroke-linecap:butt;stroke-linejoin:miter;stroke-opacity:1"
     d="m 256.7500,230.9491 2,2 -2,2 m -2.370121,-4 2,2 -2,2"
     transform="rotate(270.0000 256.7500 232.9491)"/>
  <line x1="256.7500" y1="242.9490" x2="289.2501" y2="262.9485" stroke="#af1b2c" stroke-width="1.0" />
  <rect
     style="fill:#ffffff;stroke:none"
     width="5.5"
     height="2"
     x="270.2500"
     y="251.9488" 
     transform="rotate(31.6068 273.0000 252.9488)"    /> 
  <path
     style="fill:none;stroke:#af1b2c;stroke-width:1px;stroke-linecap:butt;stroke-linejoin:miter;stroke-opacity:1"
    d="m 273.7500,250.9488 2,2 -2,2 m -1.5,-4 -2,2 2,2" transform="rotate(31.6068 273.0000 252.9488)"/>
  <line x1="256.7500" y1="222.9491" x2="256.7500" y2="202.9495" stroke="#000000" stroke-width="1.0" />
  <rect
     style="fill:#ffffff;fill-opacity:1;fill-rule:nonzero;stroke:none"
     width="2"
     height="2"
     x="256.2500"
     y="211.9493"
     transform="rotate(270.0000 256.7500 212.9493)" /> 
  <path
     style="fill:none;stroke:#000000;stroke-width:1px;stroke-linecap:butt;stroke-linejoin:miter;stroke-opacity:1"
     d="m 256.7500,210.9493 2,2 -2,2 m -2.370121,-4 2,2 -2,2"
     transform="rotate(270.0000 256.7500 212.9493)"/>
  <line x1="256.7500" y1="224.1991" x2="289.2500" y2="224.1991" stroke="#3c0057" stroke-width="1.0" />
  <line x1="256.7500" y1="221.6991" x2="289.2500" y2="221.6991" stroke="#3c0057" stroke-width="1.0" />
  <line x1="256.7500" y1="202.9495" x2="256.7500" y2="182.9496" stroke="#3c0057" stroke-width="1.0" />
  <rect
     style="fill:#ffffff;fill-opacity:1;fill-rule:nonzero;stroke:none"
     width="2"
     height="2"
     x="256.2500"
     y="191.9495"
     transform="rotate(-90.0000 256.7500 192.9495)" /> 
  <path
     style="fill:none;stroke:#3c0057;stroke-width:1px;stroke-linecap:butt;stroke-linejoin:miter;stroke-opacity:1"
     d="m 256.7500,190.9495 2,2 -2,2 m -2.370121,-4 2,2 -2,2"
     transform="rotate(-90.0000 256.7500 192.9495)"/>
  <line x1="256.7500" y1="201.3495" x2="289.2500" y2="201.3495" stroke="#5800ac" stroke-width="1.0" />
  <line x1="256.7500" y1="182.9496" x2="256.7500" y2="162.9499" stroke="#3c0057" stroke-width="1.0" />
  <rect
     style="fill:#ffffff;fill-opacity:1;fill-rule:nonzero;stroke:none"
     width="2"
     height="2"
     x="256.2500"
     y="171.9497"
     transform="rotate(-89.9999 256.7500 172.9497)" /> 
  <path
     style="fill:none;stroke:#3c0057;stroke-width:1px;stroke-linecap:butt;stroke-linejoin:miter;stroke-opacity:1"
     d="m 256.7500,170.9497 2,2 -2,2 m -2.370121,-4 2,2 -2,2"
     transform="rotate(-89.9999 256.7500 172.9497)"/>
  <line x1="256.7500" y1="184.1996" x2="289.2500" y2="184.1996" stroke="#3c0057" stroke-width="1.0" />
  <line x1="256.7500" y1="181.6996" x2="289.2500" y2="181.6996" stroke="#3c0057" stroke-width="1.0" />
  <line x1="256.7500" y1="164.1999" x2="289.2500" y2="164.1999" stroke="#000000" stroke-width="1.0" />
  <line x1="256.7500" y1="161.6999" x2="289.2500" y2="161.6999" stroke="#000000" stroke-width="1.0" />
  <line x1="256.7500" y1="142.9500" x2="256.7380" y2="122.9503" stroke="#af1b2c" stroke-width="1.0" />
  <rect
     style="fill:#ffffff;fill-opacity:1;fill-rule:nonzero;stroke:none"
     width="2"
     height="2"
     x="256.2440"
     y="131.9502"
     transform="rotate(269.9656 256.7440 132.9502)" /> 
  <path
     style="fill:none;stroke:#af1b2c;stroke-width:1px;stroke-linecap:butt;stroke-linejoin:miter;stroke-opacity:1"
     d="m 256.7440,130.9502 2,2 -2,2 m -2.370121,-4 2,2 -2,2"
     transform="rotate(269.9656 256.7440 132.9502)"/>
  <line x1="256.7500" y1="144.2000" x2="289.2500" y2="144.2000" stroke="#3c0057" stroke-width="1.0" />
  <line x1="256.7500" y1="141.7000" x2="289.2500" y2="141.7000" stroke="#3c0057" stroke-width="1.0" />
  <line x1="256.7500" y1="142.9500" x2="289.2500" y2="162.9499" stroke="#000000" stroke-width="1.0" />
  <rect
     style="fill:#ffffff;stroke:none"
     width="5.5"
     height="2"
     x="270.2500"
     y="151.9500" 
     transform="rotate(31.6074 273.0000 152.9500)"    /> 
  <path
     style="fill:none;stroke:#000000;stroke-width:1px;stroke-linecap:butt;stroke-linejoin:miter;stroke-opacity:1"
    d="m 273.7500,150.9500 2,2 -2,2 m -1.5,-4 -2,2 2,2" transform="rotate(31.6074 273.0000 152.9500)"/>
  <line x1="256.7380" y1="122.9503" x2="256.7238" y2="102.9501" stroke="#c43500" stroke-width="1.0" />
  <rect
     style="fill:#ffffff;fill-opacity:1;fill-rule:nonzero;stroke:none"
     width="2"
     height="2"
     x="256.2309"
     y="111.9502"
     transform="rotate(269.9595 256.7309 112.9502)" /> 
  <path
     style="fill:none;stroke:#c43500;stroke-width:1px;stroke-linecap:butt;stroke-linejoin:miter;stroke-opacity:1"
     d="m 256.7309,110.9502 2,2 -2,2 m -2.370121,-4 2,2 -2,2"
     transform="rotate(269.9595 256.7309 112.9502)"/>
  <line x1="256.7380" y1="122.9503" x2="289.2620" y2="122.9503" stroke="#000000" stroke-width="1.0" />
  <line x1="256.7380" y1="122.9503" x2="289.2500" y2="142.9500" stroke="#efaf00" stroke-width="1.0" />
  <rect
     style="fill:#ffffff;stroke:none"
     width="5.5"
     height="2"
     x="270.2440"
     y="131.9502" 
     transform="rotate(31.5976 272.9940 132.9502)"    /> 
  <path
     style="fill:none;stroke:#efaf00;stroke-width:1px;stroke-linecap:butt;stroke-linejoin:miter;stroke-opacity:1"
    d="m 273.7440,130.9502 2,2 -2,2 m -1.5,-4 -2,2 2,2" transform="rotate(31.5976 272.9940 132.9502)"/>
  <line x1="256.7238" y1="102.9501" x2="263.0188" y2="83.9793" stroke="#af1b2c" stroke-width="1.0" />
  <rect
     style="fill:#ffffff;fill-opacity:1;fill-rule:nonzero;stroke:none"
     width="2"
     height="2"
     x="259.3713"
     y="92.4647"
     transform="rotate(-71.6427 259.8713 93.4647)" /> 
  <path
     style="fill:none;stroke:#af1b2c;stroke-width:1px;stroke-linecap:butt;stroke-linejoin:miter;stroke-opacity:1"
     d="m 259.8713,91.4647 2,2 -2,2 m -2.370121,-4 2,2 -2,2"
     transform="rotate(-71.6427 259.8713 93.4647)"/>
  <line x1="256.7238" y1="104.2001" x2="289.2762" y2="104.2001" stroke="#3c0057" stroke-width="1.0" />
  <line x1="256.7238" y1="101.7001" x2="289.2762" y2="101.7001" stroke="#3c0057" stroke-width="1.0" />
  <line x1="256.7238" y1="102.9501" x2="289.2620" y2="122.9503" stroke="#e89000" stroke-width="1.0" />
  <rect
     style="fill:#ffffff;stroke:none"
     width="5.5"
     height="2"
     x="270.2429"
     y="111.9502" 
     transform="rotate(31.5778 272.9929 112.9502)"    /> 
  <path
     style="fill:none;stroke:#e89000;stroke-width:1px;stroke-linecap:butt;stroke-linejoin:miter;stroke-opacity:1"
    d="m 273.7429,110.9502 2,2 -2,2 m -1.5,-4 -2,2 2,2" transform="rotate(31.5778 272.9929 112.9502)"/>
  <line x1="263.0188" y1="85.2293" x2="282.9812" y2="85.2293" stroke="#3c0057" stroke-width="1.0" />
  <line x1="263.0188" y1="82.7293" x2="282.9812" y2="82.7293" stroke="#3c0057" stroke-width="1.0" />
  <line x1="282.9812" y1="83.9793" x2="289.2762" y2="102.9501" stroke="#7c03fe" stroke-width="1.0" />
  <rect
     style="fill:#ffffff;fill-opacity:1;fill-rule:nonzero;stroke:none"
     width="2"
     height="2"
     x="285.6287"
     y="92.4647"
     transform="rotate(71.6427 286.1287 93.4647)" /> 
  <path
     style="fill:none;stroke:#7c03fe;stroke-width:1px;stroke-linecap:butt;stroke-linejoin:miter;stroke-opacity:1"
     d="m 286.1287,91.4647 2,2 -2,2 m -2.370121,-4 2,2 -2,2"
     transform="rotate(71.6427 286.1287 93.4647)"/>
  <line x1="289.2762" y1="102.9501" x2="289.2620" y2="122.9503" stroke="#7c03fe" stroke-width="1.0" />
  <rect
     style="fill:#ffffff;fill-opacity:1;fill-rule:nonzero;stroke:none"
     width="2"
     height="2"
     x="288.7691"
     y="111.9502"
     transform="rotate(90.0405 289.2691 112.9502)" /> 
  <path
     style="fill:none;stroke:#7c03fe;stroke-width:1px;stroke-linecap:butt;stroke-linejoin:miter;stroke-opacity:1"
     d="m 289.2691,110.9502 2,2 -2,2 m -2.370121,-4 2,2 -2,2"
     transform="rotate(90.0405 289.2691 112.9502)"/>
  <line x1="289.2620" y1="122.9503" x2="289.2500" y2="142.9500" stroke="#8a06f6" stroke-width="1.0" />
  <rect
     style="fill:#ffffff;fill-opacity:1;fill-rule:nonzero;stroke:none"
     width="2"
     height="2"
     x="288.7560"
     y="131.9502"
     transform="rotate(90.0344 289.2560 132.9502)" /> 
  <path
     style="fill:none;stroke:#8a06f6;stroke-width:1px;stroke-linecap:butt;stroke-linejoin:miter;stroke-opacity:1"
     d="m 289.2560,130.9502 2,2 -2,2 m -2.370121,-4 2,2 -2,2"
     transform="rotate(90.0344 289.2560 132.9502)"/>
  <line x1="289.2500" y1="162.9499" x2="289.2500" y2="182.9496" stroke="#cd4500" stroke-width="1.0" />
  <rect
     style="fill:#ffffff;fill-opacity:1;fill-rule:nonzero;stroke:none"
     width="2"
     height="2"
     x="288.7500"
     y="171.9497"
     transform="rotate(89.9999 289.2500 172.9497)" /> 
  <path
     style="fill:none;stroke:#cd4500;stroke-width:1px;stroke-linecap:butt;stroke-linejoin:miter;stroke-opacity:1"
     d="m 289.2500,170.9497 2,2 -2,2 m -2.370121,-4 2,2 -2,2"
     transform="rotate(89.9999 289.2500 172.9497)"/>
  <line x1="289.2500" y1="182.9496" x2="289.2500" y2="202.9495" stroke="#980bca" stroke-width="1.0" />
  <rect
     style="fill:#ffffff;fill-opacity:1;fill-rule:nonzero;stroke:none"
     width="2"
     height="2"
     x="288.7500"
     y="191.9495"
     transform="rotate(90.0000 289.2500 192.9495)" /> 
  <path
     style="fill:none;stroke:#980bca;stroke-width:1px;stroke-linecap:butt;stroke-linejoin:miter;stroke-opacity:1"
     d="m 289.2500,190.9495 2,2 -2,2 m -2.370121,-4 2,2 -2,2"
     transform="rotate(90.0000 289.2500 192.9495)"/>
  <line x1="289.2500" y1="202.9495" x2="289.2500" y2="222.9491" stroke="#af1b2c" stroke-width="1.0" />
  <rect
     style="fill:#ffffff;fill-opacity:1;fill-rule:nonzero;stroke:none"
     width="2"
     height="2"
     x="288.7500"
     y="211.9493"
     transform="rotate(90.0000 289.2500 212.9493)" /> 
  <path
     style="fill:none;stroke:#af1b2c;stroke-width:1px;stroke-linecap:butt;stroke-linejoin:miter;stroke-opacity:1"
     d="m 289.2500,210.9493 2,2 -2,2 m -2.370121,-4 2,2 -2,2"
     transform="rotate(90.0000 289.2500 212.9493)"/>
  <line x1="289.2500" y1="222.9491" x2="289.2500" y2="242.9490" stroke="#000000" stroke-width="1.0" />
  <rect
     style="fill:#ffffff;fill-opacity:1;fill-rule:nonzero;stroke:none"
     width="2"
     height="2"
     x="288.7500"
     y="231.9491"
     transform="rotate(90.0000 289.2500 232.9491)" /> 
  <path
     style="fill:none;stroke:#000000;stroke-width:1px;stroke-linecap:butt;stroke-linejoin:miter;stroke-opacity:1"
     d="m 289.2500,230.9491 2,2 -2,2 m -2.370121,-4 2,2 -2,2"
     transform="rotate(90.0000 289.2500 232.9491)"/>
  <line x1="289.2501" y1="262.9485" x2="289.2559" y2="282.9485" stroke="#3c0057" stroke-width="1.0" />
  <rect
     style="fill:#ffffff;fill-opacity:1;fill-rule:nonzero;stroke:none"
     width="2"
     height="2"
     x="288.7530"
     y="271.9485"
     transform="rotate(89.9833 289.2530 272.9485)" /> 
  <path
     style="fill:none;stroke:#3c0057;stroke-width:1px;stroke-linecap:butt;stroke-linejoin:miter;stroke-opacity:1"
     d="m 289.2530,270.9485 2,2 -2,2 m -2.370121,-4 2,2 -2,2"
     transform="rotate(89.9833 289.2530 272.9485)"/>
  <line x1="289.2559" y1="282.9485" x2="289.2501" y2="302.9480" stroke="#d75b00" stroke-width="1.0" />
  <rect
     style="fill:#ffffff;fill-opacity:1;fill-rule:nonzero;stroke:none"
     width="2"
     height="2"
     x="288.7530"
     y="291.9483"
     transform="rotate(90.0165 289.2530 292.9483)" /> 
  <path
     style="fill:none;stroke:#d75b00;stroke-width:1px;stroke-linecap:butt;stroke-linejoin:miter;stroke-opacity:1"
     d="m 289.2530,290.9483 2,2 -2,2 m -2.370121,-4 2,2 -2,2"
     transform="rotate(90.0165 289.2530 292.9483)"/>
  <line x1="289.2500" y1="342.9476" x2="289.2500" y2="362.9475" stroke="#000000" stroke-width="1.0" />
  <rect
     style="fill:#ffffff;fill-opacity:1;fill-rule:nonzero;stroke:none"
     width="2"
     height="2"
     x="288.7500"
     y="351.9475"
     transform="rotate(90.0000 289.2500 352.9475)" /> 
  <path
     style="fill:none;stroke:#000000;stroke-width:1px;stroke-linecap:butt;stroke-linejoin:miter;stroke-opacity:1"
     d="m 289.2500,350.9475 2,2 -2,2 m -2.370121,-4 2,2 -2,2"
     transform="rotate(90.0000 289.2500 352.9475)"/>
  <line x1="289.2500" y1="362.9475" x2="289.2500" y2="382.9472" stroke="#5800ac" stroke-width="1.0" />
  <rect
     style="fill:#ffffff;fill-opacity:1;fill-rule:nonzero;stroke:none"
     width="2"
     height="2"
     x="288.7500"
     y="371.9474"
     transform="rotate(90.0000 289.2500 372.9474)" /> 
  <path
     style="fill:none;stroke:#5800ac;stroke-width:1px;stroke-linecap:butt;stroke-linejoin:miter;stroke-opacity:1"
     d="m 289.2500,370.9474 2,2 -2,2 m -2.370121,-4 2,2 -2,2"
     transform="rotate(90.0000 289.2500 372.9474)"/>
  <line x1="289.2500" y1="382.9472" x2="289.2500" y2="402.9472" stroke="#a31289" stroke-width="1.0" />
  <rect
     style="fill:#ffffff;fill-opacity:1;fill-rule:nonzero;stroke:none"
     width="2"
     height="2"
     x="288.7500"
     y="391.9472"
     transform="rotate(90.0000 289.2500 392.9472)" /> 
  <path
     style="fill:none;stroke:#a31289;stroke-width:1px;stroke-linecap:butt;stroke-linejoin:miter;stroke-opacity:1"
     d="m 289.2500,390.9472 2,2 -2,2 m -2.370121,-4 2,2 -2,2"
     transform="rotate(90.0000 289.2500 392.9472)"/>
  <line x1="289.2500" y1="422.9469" x2="289.2500" y2="442.9469" stroke="#a31289" stroke-width="1.0" />
  <rect
     style="fill:#ffffff;fill-opacity:1;fill-rule:nonzero;stroke:none"
     width="2"
     height="2"
     x="288.7500"
     y="431.9469"
     transform="rotate(90.0000 289.2500 432.9469)" /> 
  <path
     style="fill:none;stroke:#a31289;stroke-width:1px;stroke-linecap:butt;stroke-linejoin:miter;stroke-opacity:1"
     d="m 289.2500,430.9469 2,2 -2,2 m -2.370121,-4 2,2 -2,2"
     transform="rotate(90.0000 289.2500 432.9469)"/>
  <line x1="289.2500" y1="442.9469" x2="289.2500" y2="462.9468" stroke="#000000" stroke-width="1.0" />
  <rect
     style="fill:#ffffff;fill-opacity:1;fill-rule:nonzero;stroke:none"
     width="2"
     height="2"
     x="288.7500"
     y="451.9469"
     transform="rotate(90.0000 289.2500 452.9469)" /> 
  <path
     style="fill:none;stroke:#000000;stroke-width:1px;stroke-linecap:butt;stroke-linejoin:miter;stroke-opacity:1"
     d="m 289.2500,450.9469 2,2 -2,2 m -2.370121,-4 2,2 -2,2"
     transform="rotate(90.0000 289.2500 452.9469)"/>
<circle cx="256.7500" cy="462.9468" r="5.0" stroke="#595959" stroke-width="1.0" fill="#ffffff"/>
<text x="256.7500" y="465.6468" text-anchor="middle" font-family="Helvetica" font-size="7.5" fill="#000000" >A</text>
<circle cx="256.7500" cy="442.9469" r="5.0" stroke="#595959" stroke-width="1.0" fill="#ffffff"/>
<text x="256.7500" y="445.6469" text-anchor="middle" font-family="Helvetica" font-size="7.5" fill="#000000" >C</text>
<circle cx="256.7500" cy="422.9469" r="5.0" stroke="#595959" stroke-width="1.0" fill="#ffffff"/>
<text x="256.7500" y="425.6469" text-anchor="middle" font-family="Helvetica" font-size="7.5" fill="#000000" >U</text>
<circle cx="256.7500" cy="402.9472" r="5.0" stroke="#595959" stroke-width="1.0" fill="#ffffff"/>
<text x="256.7500" y="405.6472" text-anchor="middle" font-family="Helvetica" font-size="7.5" fill="#000000" >G</text>
<circle cx="256.7500" cy="382.9472" r="5.0" stroke="#595959" stroke-width="1.0" fill="#ffffff"/>
<text x="256.7500" y="385.6472" text-anchor="middle" font-family="Helvetica" font-size="7.5" fill="#000000" >G</text>
<circle cx="256.7500" cy="362.9475" r="5.0" stroke="#595959" stroke-width="1.0" fill="#ffffff"/>
<text x="256.7500" y="365.6475" text-anchor="middle" font-family="Helvetica" font-size="7.5" fill="#000000" >A</text>
<circle cx="256.7500" cy="342.9476" r="5.0" stroke="#595959" stroke-width="1.0" fill="#ffffff"/>
<text x="256.7500" y="345.6476" text-anchor="middle" font-family="Helvetica" font-size="7.5" fill="#000000" >C</text>
<circle cx="256.7500" cy="322.9480" r="5.0" stroke="#595959" stroke-width="1.0" fill="#ffffff"/>
<text x="256.7500" y="325.6480" text-anchor="middle" font-family="Helvetica" font-size="7.5" fill="#000000" >A</text>
<circle cx="256.7499" cy="302.9480" r="5.0" stroke="#595959" stroke-width="1.0" fill="#ffffff"/>
<text x="256.7499" y="305.6480" text-anchor="middle" font-family="Helvetica" font-size="7.5" fill="#000000" >G</text>
<circle cx="256.7441" cy="282.9485" r="5.0" stroke="#595959" stroke-width="1.0" fill="#ffffff"/>
<text x="256.7441" y="285.6485" text-anchor="middle" font-family="Helvetica" font-size="7.5" fill="#000000" >G</text>
<circle cx="256.7499" cy="262.9485" r="5.0" stroke="#595959" stroke-width="1.0" fill="#ffffff"/>
<text x="256.7499" y="265.6485" text-anchor="middle" font-family="Helvetica" font-size="7.5" fill="#000000" >U</text>
<circle cx="256.7500" cy="242.9490" r="5.0" stroke="#595959" stroke-width="1.0" fill="#ffffff"/>
<text x="256.7500" y="245.6490" text-anchor="middle" font-family="Helvetica" font-size="7.5" fill="#000000" >G</text>
<circle cx="256.7500" cy="222.9491" r="5.0" stroke="#595959" stroke-width="1.0" fill="#ffffff"/>
<text x="256.7500" y="225.6491" text-anchor="middle" font-family="Helvetica" font-size="7.5" fill="#000000" >C</text>
<circle cx="256.7500" cy="202.9495" r="5.0" stroke="#595959" stroke-width="1.0" fill="#ffffff"/>
<text x="256.7500" y="205.6495" text-anchor="middle" font-family="Helvetica" font-size="7.5" fill="#000000" >U</text>
<circle cx="256.7500" cy="182.9496" r="5.0" stroke="#595959" stroke-width="1.0" fill="#ffffff"/>
<text x="256.7500" y="185.6496" text-anchor="middle" font-family="Helvetica" font-size="7.5" fill="#000000" >C</text>
<circle cx="256.7500" cy="162.9499" r="5.0" stroke="#595959" stroke-width="1.0" fill="#ffffff"/>
<text x="256.7500" y="165.6499" text-anchor="middle" font-family="Helvetica" font-size="7.5" fill="#000000" >C</text>
<circle cx="256.7500" cy="142.9500" r="5.0" stroke="#595959" stroke-width="1.0" fill="#ffffff"/>
<text x="256.7500" y="145.6500" text-anchor="middle" font-family="Helvetica" font-size="7.5" fill="#000000" >G</text>
<circle cx="256.7380" cy="122.9503" r="5.0" stroke="#595959" stroke-width="1.0" fill="#ffffff"/>
<text x="256.7380" y="125.6503" text-anchor="middle" font-family="Helvetica" font-size="7.5" fill="#000000" >A</text>
<circle cx="256.7238" cy="102.9501" r="5.0" stroke="#595959" stroke-width="1.0" fill="#ffffff"/>
<text x="256.7238" y="105.6501" text-anchor="middle" font-family="Helvetica" font-size="7.5" fill="#000000" >G</text>
<circle cx="263.0188" cy="83.9793" r="5.0" stroke="#595959" stroke-width="1.0" fill="#ffffff"/>
<text x="263.0188" y="86.6793" text-anchor="middle" font-family="Helvetica" font-size="7.5" fill="#000000" >G</text>
<circle cx="282.9812" cy="83.9793" r="5.0" stroke="#595959" stroke-width="1.0" fill="#ffffff"/>
<text x="282.9812" y="86.6793" text-anchor="middle" font-family="Helvetica" font-size="7.5" fill="#000000" >C</text>
<circle cx="289.2762" cy="102.9501" r="5.0" stroke="#595959" stroke-width="1.0" fill="#ffffff"/>
<text x="289.2762" y="105.6501" text-anchor="middle" font-family="Helvetica" font-size="7.5" fill="#000000" >C</text>
<circle cx="289.2620" cy="122.9503" r="5.0" stroke="#595959" stroke-width="1.0" fill="#ffffff"/>
<text x="289.2620" y="125.6503" text-anchor="middle" font-family="Helvetica" font-size="7.5" fill="#000000" >U</text>
<circle cx="289.2500" cy="142.9500" r="5.0" stroke="#595959" stroke-width="1.0" fill="#ffffff"/>
<text x="289.2500" y="145.6500" text-anchor="middle" font-family="Helvetica" font-size="7.5" fill="#000000" >C</text>
<circle cx="289.2500" cy="162.9499" r="5.0" stroke="#595959" stroke-width="1.0" fill="#ffffff"/>
<text x="289.2500" y="165.6499" text-anchor="middle" font-family="Helvetica" font-size="7.5" fill="#000000" >G</text>
<circle cx="289.2500" cy="182.9496" r="5.0" stroke="#595959" stroke-width="1.0" fill="#ffffff"/>
<text x="289.2500" y="185.6496" text-anchor="middle" font-family="Helvetica" font-size="7.5" fill="#000000" >G</text>
<circle cx="289.2500" cy="202.9495" r="5.0" stroke="#595959" stroke-width="1.0" fill="#ffffff"/>
<text x="289.2500" y="205.6495" text-anchor="middle" font-family="Helvetica" font-size="7.5" fill="#000000" >A</text>
<circle cx="289.2500" cy="222.9491" r="5.0" stroke="#595959" stroke-width="1.0" fill="#ffffff"/>
<text x="289.2500" y="225.6491" text-anchor="middle" font-family="Helvetica" font-size="7.5" fill="#000000" >G</text>
<circle cx="289.2500" cy="242.9490" r="5.0" stroke="#595959" stroke-width="1.0" fill="#ffffff"/>
<text x="289.2500" y="245.6490" text-anchor="middle" font-family="Helvetica" font-size="7.5" fill="#000000" >U</text>
<circle cx="289.2501" cy="262.9485" r="5.0" stroke="#595959" stroke-width="1.0" fill="#ffffff"/>
<text x="289.2501" y="265.6485" text-anchor="middle" font-family="Helvetica" font-size="7.5" fill="#000000" >G</text>
<circle cx="289.2559" cy="282.9485" r="5.0" stroke="#595959" stroke-width="1.0" fill="#ffffff"/>
<text x="289.2559" y="285.6485" text-anchor="middle" font-family="Helvetica" font-size="7.5" fill="#000000" >U</text>
<circle cx="289.2501" cy="302.9480" r="5.0" stroke="#595959" stroke-width="1.0" fill="#ffffff"/>
<text x="289.2501" y="305.6480" text-anchor="middle" font-family="Helvetica" font-size="7.5" fill="#000000" >U</text>
<circle cx="289.2500" cy="322.9480" r="5.0" stroke="#595959" stroke-width="1.0" fill="#ffffff"/>
<text x="289.2500" y="325.6480" text-anchor="middle" font-family="Helvetica" font-size="7.5" fill="#000000" >U</text>
<circle cx="289.2500" cy="342.9476" r="5.0" stroke="#595959" stroke-width="1.0" fill="#ffffff"/>
<text x="289.2500" y="345.6476" text-anchor="middle" font-family="Helvetica" font-size="7.5" fill="#000000" >G</text>
<circle cx="289.2500" cy="362.9475" r="5.0" stroke="#595959" stroke-width="1.0" fill="#ffffff"/>
<text x="289.2500" y="365.6475" text-anchor="middle" font-family="Helvetica" font-size="7.5" fill="#000000" >U</text>
<circle cx="289.2500" cy="382.9472" r="5.0" stroke="#595959" stroke-width="1.0" fill="#ffffff"/>
<text x="289.2500" y="385.6472" text-anchor="middle" font-family="Helvetica" font-size="7.5" fill="#000000" >C</text>
<circle cx="289.2500" cy="402.9472" r="5.0" stroke="#595959" stroke-width="1.0" fill="#ffffff"/>
<text x="289.2500" y="405.6472" text-anchor="middle" font-family="Helvetica" font-size="7.5" fill="#000000" >C</text>
<circle cx="289.2500" cy="422.9469" r="5.0" stroke="#595959" stroke-width="1.0" fill="#ffffff"/>
<text x="289.2500" y="425.6469" text-anchor="middle" font-family="Helvetica" font-size="7.5" fill="#000000" >A</text>
<circle cx="289.2500" cy="442.9469" r="5.0" stroke="#595959" stroke-width="1.0" fill="#ffffff"/>
<text x="289.2500" y="445.6469" text-anchor="middle" font-family="Helvetica" font-size="7.5" fill="#000000" >G</text>
<circle cx="289.2500" cy="462.9468" r="5.0" stroke="#595959" stroke-width="1.0" fill="#ffffff"/>
<text x="289.2500" y="465.6468" text-anchor="middle" font-family="Helvetica" font-size="7.5" fill="#000000" >U</text>
</svg>