<?xml version="1.0" encoding="UTF-8"?>
<!DOCTYPE svg PUBLIC "-//W3C//DTD SVG 1.1//EN" 
"http://www.w3.org/Graphics/SVG/1.1/DTD/svg11.dtd">

<svg version="1.1"
   width="546px"
   height="546px"
xmlns="http://www.w3.org/2000/svg">
    <rect width="100%" height="100%" fill="white"/>

  <line x1="256.7500" y1="422.9459" x2="256.7500" y2="402.9462" stroke="#595959"
     style="stroke-width:2;stroke-miterlimit:4;stroke-dasharray:1,1;stroke-dashoffset:0" />
  <line x1="256.7500" y1="342.9470" x2="256.7500" y2="322.9476" stroke="#595959"
     style="stroke-width:2;stroke-miterlimit:4;stroke-dasharray:1,1;stroke-dashoffset:0" />
  <line x1="256.7500" y1="262.9487" x2="256.7500" y2="242.9495" stroke="#595959"
     style="stroke-width:2;stroke-miterlimit:4;stroke-dasharray:1,1;stroke-dashoffset:0" />
  <line x1="256.7500" y1="162.9509" x2="256.7498" y2="142.9510" stroke="#595959"
     style="stroke-width:2;stroke-miterlimit:4;stroke-dasharray:1,1;stroke-dashoffset:0" />
  <line x1="289.2503" y1="142.9510" x2="289.2500" y2="162.9509" stroke="#595959"
     style="stroke-width:2;stroke-miterlimit:4;stroke-dasharray:1,1;stroke-dashoffset:0" />
  <line x1="289.2500" y1="242.9495" x2="289.2500" y2="262.9487" stroke="#595959"
     style="stroke-width:2;stroke-miterlimit:4;stroke-dasharray:1,1;stroke-dashoffset:0" />
  <line x1="289.2500" y1="322.9476" x2="289.2500" y2="342.9470" stroke="#595959"
     style="stroke-width:2;stroke-miterlimit:4;stroke-dasharray:1,1;stroke-dashoffset:0" />
  <line x1="289.2500" y1="402.9462" x2="289.2500" y2="422.9459" stroke="#595959"
     style="stroke-width:2;stroke-miterlimit:4;stroke-dasharray:1,1;stroke-dashoffset:0" />
  <line x1="256.7499" y1="461.3457" x2="289.2499" y2="461.3457" stroke="#ca4000" stroke-width="1.0" />
  <circle cx="272.9999" cy="461.3457" r="2.25" stroke="#ca4000" stroke-width="1.0" fill="#ca4000"/>
  <line x1="256.7500" y1="424.5459" x2="289.2500" y2="424.5459" stroke="#ea9900" stroke-width="1.0" />
  <circle cx="273.0000" cy="424.5459" r="2.25" stroke="#ea9900" stroke-width="1.0" fill="#ea9900"/>
  <line x1="256.7500" y1="384.5463" x2="289.2500" y2="384.5463" stroke="#f2b800" stroke-width="1.0" />
  <circle cx="273.0000" cy="384.5463" r="2.25" stroke="#f2b800" stroke-width="1.0" fill="#f2b800"/>
  <line x1="256.7500" y1="364.5468" x2="289.2500" y2="364.5468" stroke="#eeaa00" stroke-width="1.0" />
  <circle cx="273.0000" cy="364.5468" r="2.25" stroke="#eeaa00" stroke-width="1.0" fill="#eeaa00"/>
  <line x1="256.7500" y1="324.5476" x2="289.2500" y2="324.5476" stroke="#b41f06" stroke-width="1.0" />
  <circle cx="273.0000" cy="324.5476" r="2.25" stroke="#b41f06" stroke-width="1.0" fill="#b41f06"/>
  <line x1="256.7500" y1="302.9478" x2="256.7500" y2="282.9485" stroke="#eeaa00" stroke-width="1.0" />
  <path d="M 251.0000 295.1982 L 251.0000 290.6982 L 255.5000 290.6982 L 255.5000 295.1982 z" style="stroke:#eeaa00;stroke-width:1.0" fill="#eeaa00" 
    transform="rotate(450.0000 256.7500 292.9482)"/>
  <path d="M 258.5000 295.1982 L 258.5000 290.6982 L 262.5000 292.9482 z" style="stroke:#eeaa00;stroke-width:1.0" fill="#eeaa00"
    transform="rotate(450.0000 256.7500 292.9482)"/>
  <line x1="256.7500" y1="301.3478" x2="289.2500" y2="301.3478" stroke="#b92500" stroke-width="1.0" />
  <circle cx="276.5000" cy="301.3478" r="2.25" stroke="#b92500" stroke-width="1.0" fill="#b92500"
    transform="rotate(0.0000 273.0000 301.3478)" />
  <path d="M 271.2500 303.5978 L 271.2500 299.0978 L 267.2500 301.3478 z" style="stroke:#b92500;stroke-width:1.0" fill="#b92500" 
    transform="rotate(0.0000 273.0000 301.3478)"/>
  <line x1="256.7500" y1="304.5478" x2="289.2500" y2="304.5478" stroke="#cf4a00" stroke-width="1.0" />
  <circle cx="273.0000" cy="304.5478" r="2.25" stroke="#cf4a00" stroke-width="1.0" fill="#cf4a00"/>
  <line x1="256.7500" y1="302.9478" x2="289.2500" y2="322.9476" stroke="#db6700" stroke-width="1.0" />
  <circle cx="276.5000" cy="312.9477" r="2.25" stroke="#db6700" stroke-width="1.0" fill="#db6700"
    transform="rotate(31.6073 273.0000 312.9477)" />
  <path d="M 271.2500 315.1977 L 271.2500 310.6977 L 267.2500 312.9477 z" style="stroke:#db6700;stroke-width:1.0" fill="#db6700" 
    transform="rotate(31.6073 273.0000 312.9477)"/>
  <line x1="256.7500" y1="279.7485" x2="289.2500" y2="279.7486" stroke="#a0109e" stroke-width="1.0" />
  <circle cx="276.5000" cy="279.7485" r="2.25" stroke="#a0109e" stroke-width="1.0" fill="#a0109e"
    transform="rotate(180.0000 273.0000 279.7485)" />
  <path d="M 271.2500 281.9985 L 271.2500 277.4985 L 267.2500 279.7485 z" style="stroke:#a0109e;stroke-width:1.0" fill="#a0109e" 
    transform="rotate(180.0000 273.0000 279.7485)"/>
  <line x1="256.7500" y1="282.9485" x2="289.2500" y2="282.9486" stroke="#eeaa00" stroke-width="1.0" />
  <circle cx="273.0000" cy="282.9485" r="2.25" stroke="#eeaa00" stroke-width="1.0" fill="#eeaa00"/>
  <line x1="256.7500" y1="286.1485" x2="289.2500" y2="286.1486" stroke="#e38000" stroke-width="1.0" />
  <circle cx="273.0000" cy="286.1485" r="2.25" stroke="#e38000" stroke-width="1.0" fill="#e38000"/>
  <line x1="256.7500" y1="259.7487" x2="289.2500" y2="259.7487" stroke="#c33200" stroke-width="1.0" />
  <circle cx="276.5000" cy="259.7487" r="2.25" stroke="#c33200" stroke-width="1.0" fill="#c33200"
    transform="rotate(0.0000 273.0000 259.7487)" />
  <path d="M 271.2500 261.9987 L 271.2500 257.4987 L 267.2500 259.7487 z" style="stroke:#c33200;stroke-width:1.0" fill="#c33200" 
    transform="rotate(0.0000 273.0000 259.7487)"/>
  <line x1="256.7500" y1="262.9487" x2="289.2500" y2="262.9487" stroke="#c73900" stroke-width="1.0" />
  <circle cx="273.0000" cy="262.9487" r="2.25" stroke="#c73900" stroke-width="1.0" fill="#c73900"/>
  <line x1="256.7500" y1="266.1487" x2="289.2500" y2="266.1487" stroke="#f2b800" stroke-width="1.0" />
  <circle cx="273.0000" cy="266.1487" r="2.25" stroke="#f2b800" stroke-width="1.0" fill="#f2b800"/>
  <line x1="256.7500" y1="239.7495" x2="289.2500" y2="239.7495" stroke="#e78c00" stroke-width="1.0" />
  <circle cx="276.5000" cy="239.7495" r="2.25" stroke="#e78c00" stroke-width="1.0" fill="#e78c00"
    transform="rotate(180.0000 273.0000 239.7495)" />
  <path d="M 271.2500 241.9995 L 271.2500 237.4995 L 267.2500 239.7495 z" style="stroke:#e78c00;stroke-width:1.0" fill="#e78c00" 
    transform="rotate(180.0000 273.0000 239.7495)"/>
  <line x1="256.7500" y1="242.9495" x2="289.2500" y2="242.9495" stroke="#9b0dba" stroke-width="1.0" />
  <circle cx="273.0000" cy="242.9495" r="2.25" stroke="#9b0dba" stroke-width="1.0" fill="#9b0dba"/>
  <line x1="256.7500" y1="246.1495" x2="289.2500" y2="246.1495" stroke="#e78c00" stroke-width="1.0" />
  <circle cx="273.0000" cy="246.1495" r="2.25" stroke="#e78c00" stroke-width="1.0" fill="#e78c00"/>
  <line x1="256.7500" y1="224.5496" x2="289.2500" y2="224.5496" stroke="#f2b800" stroke-width="1.0" />
  <circle cx="273.0000" cy="224.5496" r="2.25" stroke="#f2b800" stroke-width="1.0" fill="#f2b800"/>
  <line x1="256.7500" y1="204.5503" x2="289.2500" y2="204.5503" stroke="#ea9900" stroke-width="1.0" />
  <circle cx="273.0000" cy="204.5503" r="2.25" stroke="#ea9900" stroke-width="1.0" fill="#ea9900"/>
  <line x1="256.7498" y1="144.5510" x2="289.2503" y2="144.5510" stroke="#eeaa00" stroke-width="1.0" />
  <circle cx="273.0000" cy="144.5510" r="2.25" stroke="#eeaa00" stroke-width="1.0" fill="#eeaa00"/>
  <line x1="263.0187" y1="85.5790" x2="282.9813" y2="85.5790" stroke="#eeaa00" stroke-width="1.0" />
  <circle cx="273.0000" cy="85.5790" r="2.25" stroke="#eeaa00" stroke-width="1.0" fill="#eeaa00"/>
  <line x1="256.7499" y1="462.9457" x2="256.7500" y2="442.9458" stroke="#000000" stroke-width="1.0" />
  <rect
     style="fill:#ffffff;fill-opacity:1;fill-rule:nonzero;stroke:none"
     width="2"
     height="2"
     x="256.2500"
     y="451.9458"
     transform="rotate(-90.0000 256.7500 452.9458)" /> 
  <path
     style="fill:none;stroke:#000000;stroke-width:1px;stroke-linecap:butt;stroke-linejoin:miter;stroke-opacity:1"
     d="m 256.7500,450.9458 2,2 -2,2 m -2.370121,-4 2,2 -2,2"
     transform="rotate(-90.0000 256.7500 452.9458)"/>
  <line x1="256.7499" y1="464.5457" x2="289.2499" y2="464.5457" stroke="#ab1751" stroke-width="1.0" />
  <line x1="256.7500" y1="442.9458" x2="256.7500" y2="422.9459" stroke="#8a06f6" stroke-width="1.0" />
  <rect
     style="fill:#ffffff;fill-opacity:1;fill-rule:nonzero;stroke:none"
     width="2"
     height="2"
     x="256.2500"
     y="431.9458"
     transform="rotate(-90.0000 256.7500 432.9458)" /> 
  <path
     style="fill:none;stroke:#8a06f6;stroke-width:1px;stroke-linecap:butt;stroke-linejoin:miter;stroke-opacity:1"
     d="m 256.7500,430.9458 2,2 -2,2 m -2.370121,-4 2,2 -2,2"
     transform="rotate(-90.0000 256.7500 432.9458)"/>
  <line x1="256.7500" y1="444.1958" x2="289.2500" y2="444.1958" stroke="#37004b" stroke-width="1.0" />
  <line x1="256.7500" y1="441.6958" x2="289.2500" y2="441.6958" stroke="#37004b" stroke-width="1.0" />
  <line x1="256.7500" y1="421.3459" x2="289.2500" y2="421.3459" stroke="#6501d5" stroke-width="1.0" />
  <line x1="256.7500" y1="402.9462" x2="256.7500" y2="382.9463" stroke="#c73900" stroke-width="1.0" />
  <rect
     style="fill:#ffffff;fill-opacity:1;fill-rule:nonzero;stroke:none"
     width="2"
     height="2"
     x="256.2500"
     y="391.9463"
     transform="rotate(-90.0000 256.7500 392.9463)" /> 
  <path
     style="fill:none;stroke:#c73900;stroke-width:1px;stroke-linecap:butt;stroke-linejoin:miter;stroke-opacity:1"
     d="m 256.7500,390.9463 2,2 -2,2 m -2.370121,-4 2,2 -2,2"
     transform="rotate(-90.0000 256.7500 392.9463)"/>
  <line x1="256.7500" y1="404.1962" x2="289.2500" y2="404.1962" stroke="#37004b" stroke-width="1.0" />
  <line x1="256.7500" y1="401.6962" x2="289.2500" y2="401.6962" stroke="#37004b" stroke-width="1.0" />
  <line x1="256.7500" y1="402.9462" x2="289.2500" y2="422.9459" stroke="#000000" stroke-width="1.0" />
  <rect
     style="fill:#ffffff;stroke:none"
     width="5.5"
     height="2"
     x="270.2500"
     y="411.9460" 
     transform="rotate(31.6071 273.0000 412.9460)"    /> 
  <path
     style="fill:none;stroke:#000000;stroke-width:1px;stroke-linecap:butt;stroke-linejoin:miter;stroke-opacity:1"
    d="m 273.7500,410.9460 2,2 -2,2 m -1.5,-4 -2,2 2,2" transform="rotate(31.6071 273.0000 412.9460)"/>
  <line x1="256.7500" y1="382.9463" x2="256.7500" y2="362.9468" stroke="#9b0dba" stroke-width="1.0" />
  <rect
     style="fill:#ffffff;fill-opacity:1;fill-rule:nonzero;stroke:none"
     width="2"
     height="2"
     x="256.2500"
     y="371.9466"
     transform="rotate(-90.0000 256.7500 372.9466)" /> 
  <path
     style="fill:none;stroke:#9b0dba;stroke-width:1px;stroke-linecap:butt;stroke-linejoin:miter;stroke-opacity:1"
     d="m 256.7500,370.9466 2,2 -2,2 m -2.370121,-4 2,2 -2,2"
     transform="rotate(-90.0000 256.7500 372.9466)"/>
  <line x1="256.7500" y1="382.5963" x2="289.2500" y2="382.5963" stroke="#520099" stroke-width="1.0" />
  <line x1="256.7500" y1="380.0963" x2="289.2500" y2="380.0963" stroke="#520099" stroke-width="1.0" />
  <line x1="256.7500" y1="382.9463" x2="289.2500" y2="402.9462" stroke="#f2b800" stroke-width="1.0" />
  <rect
     style="fill:#ffffff;stroke:none"
     width="5.5"
     height="2"
     x="270.2500"
     y="391.9463" 
     transform="rotate(31.6074 273.0000 392.9463)"    /> 
  <path
     style="fill:none;stroke:#f2b800;stroke-width:1px;stroke-linecap:butt;stroke-linejoin:miter;stroke-opacity:1"
    d="m 273.7500,390.9463 2,2 -2,2 m -1.5,-4 -2,2 2,2" transform="rotate(31.6074 273.0000 392.9463)"/>
  <line x1="256.7500" y1="362.9468" x2="256.7500" y2="342.9470" stroke="#000000" stroke-width="1.0" />
  <rect
     style="fill:#ffffff;fill-opacity:1;fill-rule:nonzero;stroke:none"
     width="2"
     height="2"
     x="256.2500"
     y="351.9469"
     transform="rotate(-90.0000 256.7500 352.9469)" /> 
  <path
     style="fill:none;stroke:#000000;stroke-width:1px;stroke-linecap:butt;stroke-linejoin:miter;stroke-opacity:1"
     d="m 256.7500,350.9469 2,2 -2,2 m -2.370121,-4 2,2 -2,2"
     transform="rotate(-90.0000 256.7500 352.9469)"/>
  <line x1="256.7500" y1="361.3468" x2="289.2500" y2="361.3468" stroke="#5b01b5" stroke-width="1.0" />
  <line x1="256.7500" y1="344.1970" x2="289.2500" y2="344.1970" stroke="#000000" stroke-width="1.0" />
  <line x1="256.7500" y1="341.6970" x2="289.2500" y2="341.6970" stroke="#000000" stroke-width="1.0" />
  <line x1="256.7500" y1="322.9476" x2="256.7500" y2="302.9478" stroke="#a0109e" stroke-width="1.0" />
  <rect
     style="fill:#ffffff;fill-opacity:1;fill-rule:nonzero;stroke:none"
     width="2"
     height="2"
     x="256.2500"
     y="311.9477"
     transform="rotate(270.0000 256.7500 312.9477)" /> 
  <path
     style="fill:none;stroke:#a0109e;stroke-width:1px;stroke-linecap:butt;stroke-linejoin:miter;stroke-opacity:1"
     d="m 256.7500,310.9477 2,2 -2,2 m -2.370121,-4 2,2 -2,2"
     transform="rotate(270.0000 256.7500 312.9477)"/>
  <line x1="256.7500" y1="321.3476" x2="289.2500" y2="321.3476" stroke="#ca4000" stroke-width="1.0" />
  <line x1="256.7500" y1="322.9476" x2="289.2500" y2="342.9470" stroke="#37004b" stroke-width="1.0" />
  <rect
     style="fill:#ffffff;stroke:none"
     width="5.5"
     height="2"
     x="270.2500"
     y="331.9473" 
     transform="rotate(31.6067 273.0000 332.9473)"    /> 
  <path
     style="fill:none;stroke:#37004b;stroke-width:1px;stroke-linecap:butt;stroke-linejoin:miter;stroke-opacity:1"
    d="m 273.7500,330.9473 2,2 -2,2 m -1.5,-4 -2,2 2,2" transform="rotate(31.6067 273.0000 332.9473)"/>
  <line x1="256.7500" y1="282.9485" x2="256.7500" y2="262.9487" stroke="#270026" stroke-width="1.0" />
  <rect
     style="fill:#ffffff;fill-opacity:1;fill-rule:nonzero;stroke:none"
     width="2"
     height="2"
     x="256.2500"
     y="271.9486"
     transform="rotate(-90.0000 256.7500 272.9486)" /> 
  <path
     style="fill:none;stroke:#270026;stroke-width:1px;stroke-linecap:butt;stroke-linejoin:miter;stroke-opacity:1"
     d="m 256.7500,270.9486 2,2 -2,2 m -2.370121,-4 2,2 -2,2"
     transform="rotate(-90.0000 256.7500 272.9486)"/>
  <line x1="256.7500" y1="282.9485" x2="289.2500" y2="302.9478" stroke="#c33200" stroke-width="1.0" />
  <rect
     style="fill:#ffffff;stroke:none"
     width="5.5"
     height="2"
     x="270.2500"
     y="291.9482" 
     transform="rotate(31.6066 273.0000 292.9482)"    /> 
  <path
     style="fill:none;stroke:#c33200;stroke-width:1px;stroke-linecap:butt;stroke-linejoin:miter;stroke-opacity:1"
    d="m 273.7500,290.9482 2,2 -2,2 m -1.5,-4 -2,2 2,2" transform="rotate(31.6066 273.0000 292.9482)"/>
  <line x1="256.7500" y1="242.9495" x2="256.7500" y2="222.9496" stroke="#37004b" stroke-width="1.0" />
  <rect
     style="fill:#ffffff;fill-opacity:1;fill-rule:nonzero;stroke:none"
     width="2"
     height="2"
     x="256.2500"
     y="231.9495"
     transform="rotate(-90.0000 256.7500 232.9495)" /> 
  <path
     style="fill:none;stroke:#37004b;stroke-width:1px;stroke-linecap:butt;stroke-linejoin:miter;stroke-opacity:1"
     d="m 256.7500,230.9495 2,2 -2,2 m -2.370121,-4 2,2 -2,2"
     transform="rotate(-90.0000 256.7500 232.9495)"/>
  <line x1="256.7500" y1="242.9495" x2="289.2500" y2="262.9487" stroke="#6501d5" stroke-width="1.0" />
  <rect
     style="fill:#ffffff;stroke:none"
     width="5.5"
     height="2"
     x="270.2500"
     y="251.9491" 
     transform="rotate(31.6066 273.0000 252.9491)"    /> 
  <path
     style="fill:none;stroke:#6501d5;stroke-width:1px;stroke-linecap:butt;stroke-linejoin:miter;stroke-opacity:1"
    d="m 273.7500,250.9491 2,2 -2,2 m -1.5,-4 -2,2 2,2" transform="rotate(31.6066 273.0000 252.9491)"/>
  <line x1="256.7500" y1="222.9496" x2="256.7500" y2="202.9503" stroke="#7c03fe" stroke-width="1.0" />
  <rect
     style="fill:#ffffff;fill-opacity:1;fill-rule:nonzero;stroke:none"
     width="2"
     height="2"
     x="256.2500"
     y="211.9499"
     transform="rotate(-90.0000 256.7500 212.9499)" /> 
  <path
     style="fill:none;stroke:#7c03fe;stroke-width:1px;stroke-linecap:butt;stroke-linejoin:miter;stroke-opacity:1"
     d="m 256.7500,210.9499 2,2 -2,2 m -2.370121,-4 2,2 -2,2"
     transform="rotate(-90.0000 256.7500 212.9499)"/>
  <line x1="256.7500" y1="222.5996" x2="289.2500" y2="222.5996" stroke="#520099" stroke-width="1.0" />
  <line x1="256.7500" y1="220.0996" x2="289.2500" y2="220.0996" stroke="#520099" stroke-width="1.0" />
  <line x1="256.7500" y1="202.9503" x2="256.7500" y2="182.9505" stroke="#6d02e7" stroke-width="1.0" />
  <rect
     style="fill:#ffffff;fill-opacity:1;fill-rule:nonzero;stroke:none"
     width="2"
     height="2"
     x="256.2500"
     y="191.9504"
     transform="rotate(270.0000 256.7500 192.9504)" /> 
  <path
     style="fill:none;stroke:#6d02e7;stroke-width:1px;stroke-linecap:butt;stroke-linejoin:miter;stroke-opacity:1"
     d="m 256.7500,190.9504 2,2 -2,2 m -2.370121,-4 2,2 -2,2"
     transform="rotate(270.0000 256.7500 192.9504)"/>
  <line x1="256.7500" y1="201.3503" x2="289.2500" y2="201.3503" stroke="#6501d5" stroke-width="1.0" />
  <line x1="256.7500" y1="202.9503" x2="289.2500" y2="222.9496" stroke="#eeaa00" stroke-width="1.0" />
  <rect
     style="fill:#ffffff;stroke:none"
     width="5.5"
     height="2"
     x="270.2500"
     y="211.9500" 
     transform="rotate(31.6067 273.0000 212.9500)"    /> 
  <path
     style="fill:none;stroke:#eeaa00;stroke-width:1px;stroke-linecap:butt;stroke-linejoin:miter;stroke-opacity:1"
    d="m 273.7500,210.9500 2,2 -2,2 m -1.5,-4 -2,2 2,2" transform="rotate(31.6067 273.0000 212.9500)"/>
  <line x1="256.7500" y1="182.9505" x2="256.7500" y2="162.9509" stroke="#6d02e7" stroke-width="1.0" />
  <rect
     style="fill:#ffffff;fill-opacity:1;fill-rule:nonzero;stroke:none"
     width="2"
     height="2"
     x="256.2500"
     y="171.9507"
     transform="rotate(-90.0000 256.7500 172.9507)" /> 
  <path
     style="fill:none;stroke:#6d02e7;stroke-width:1px;stroke-linecap:butt;stroke-linejoin:miter;stroke-opacity:1"
     d="m 256.7500,170.9507 2,2 -2,2 m -2.370121,-4 2,2 -2,2"
     transform="rotate(-90.0000 256.7500 172.9507)"/>
  <line x1="256.7500" y1="184.2005" x2="289.2500" y2="184.2005" stroke="#480079" stroke-width="1.0" />
  <line x1="256.7500" y1="181.7005" x2="289.2500" y2="181.7005" stroke="#480079" stroke-width="1.0" />
  <line x1="256.7500" y1="164.2009" x2="289.2500" y2="164.2009" stroke="#270026" stroke-width="1.0" />
  <line x1="256.7500" y1="161.7009" x2="289.2500" y2="161.7009" stroke="#270026" stroke-width="1.0" />
  <line x1="256.7500" y1="162.9509" x2="289.2500" y2="182.9505" stroke="#e78c00" stroke-width="1.0" />
  <rect
     style="fill:#ffffff;stroke:none"
     width="5.5"
     height="2"
     x="270.2500"
     y="171.9507" 
     transform="rotate(31.6070 273.0000 172.9507)"    /> 
  <path
     style="fill:none;stroke:#e78c00;stroke-width:1px;stroke-linecap:butt;stroke-linejoin:miter;stroke-opacity:1"
    d="m 273.7500,170.9507 2,2 -2,2 m -1.5,-4 -2,2 2,2" transform="rotate(31.6070 273.0000 172.9507)"/>
  <line x1="256.7498" y1="142.9510" x2="256.7391" y2="122.9516" stroke="#b92500" stroke-width="1.0" />
  <rect
     style="fill:#ffffff;fill-opacity:1;fill-rule:nonzero;stroke:none"
     width="2"
     height="2"
     x="256.2444"
     y="131.9513"
     transform="rotate(269.9695 256.7444 132.9513)" /> 
  <path
     style="fill:none;stroke:#b92500;stroke-width:1px;stroke-linecap:butt;stroke-linejoin:miter;stroke-opacity:1"
     d="m 256.7444,130.9513 2,2 -2,2 m -2.370121,-4 2,2 -2,2"
     transform="rotate(269.9695 256.7444 132.9513)"/>
  <line x1="256.7498" y1="142.6010" x2="289.2503" y2="142.6010" stroke="#5b01b5" stroke-width="1.0" />
  <line x1="256.7498" y1="140.1010" x2="289.2503" y2="140.1010" stroke="#5b01b5" stroke-width="1.0" />
  <line x1="256.7498" y1="142.9510" x2="289.2500" y2="162.9509" stroke="#000000" stroke-width="1.0" />
  <rect
     style="fill:#ffffff;stroke:none"
     width="5.5"
     height="2"
     x="270.2499"
     y="151.9509" 
     transform="rotate(31.6072 272.9999 152.9509)"    /> 
  <path
     style="fill:none;stroke:#000000;stroke-width:1px;stroke-linecap:butt;stroke-linejoin:miter;stroke-opacity:1"
    d="m 273.7499,150.9509 2,2 -2,2 m -1.5,-4 -2,2 2,2" transform="rotate(31.6072 272.9999 152.9509)"/>
  <line x1="256.7391" y1="122.9516" x2="256.7289" y2="102.9513" stroke="#af1b2c" stroke-width="1.0" />
  <rect
     style="fill:#ffffff;fill-opacity:1;fill-rule:nonzero;stroke:none"
     width="2"
     height="2"
     x="256.2340"
     y="111.9514"
     transform="rotate(269.9708 256.7340 112.9514)" /> 
  <path
     style="fill:none;stroke:#af1b2c;stroke-width:1px;stroke-linecap:butt;stroke-linejoin:miter;stroke-opacity:1"
     d="m 256.7340,110.9514 2,2 -2,2 m -2.370121,-4 2,2 -2,2"
     transform="rotate(269.9708 256.7340 112.9514)"/>
  <line x1="256.7391" y1="122.9516" x2="289.2609" y2="122.9516" stroke="#480079" stroke-width="1.0" />
  <line x1="256.7289" y1="102.9513" x2="263.0187" y2="83.9790" stroke="#bd2b00" stroke-width="1.0" />
  <rect
     style="fill:#ffffff;fill-opacity:1;fill-rule:nonzero;stroke:none"
     width="2"
     height="2"
     x="259.3738"
     y="92.4651"
     transform="rotate(-71.6585 259.8738 93.4651)" /> 
  <path
     style="fill:none;stroke:#bd2b00;stroke-width:1px;stroke-linecap:butt;stroke-linejoin:miter;stroke-opacity:1"
     d="m 259.8738,91.4651 2,2 -2,2 m -2.370121,-4 2,2 -2,2"
     transform="rotate(-71.6585 259.8738 93.4651)"/>
  <line x1="256.7289" y1="104.2013" x2="289.2710" y2="104.2013" stroke="#270026" stroke-width="1.0" />
  <line x1="256.7289" y1="101.7013" x2="289.2710" y2="101.7013" stroke="#270026" stroke-width="1.0" />
  <line x1="256.7289" y1="102.9513" x2="289.2609" y2="122.9516" stroke="#f2b800" stroke-width="1.0" />
  <rect
     style="fill:#ffffff;stroke:none"
     width="5.5"
     height="2"
     x="270.2449"
     y="111.9514" 
     transform="rotate(31.5828 272.9949 112.9514)"    /> 
  <path
     style="fill:none;stroke:#f2b800;stroke-width:1px;stroke-linecap:butt;stroke-linejoin:miter;stroke-opacity:1"
    d="m 273.7449,110.9514 2,2 -2,2 m -1.5,-4 -2,2 2,2" transform="rotate(31.5828 272.9949 112.9514)"/>
  <line x1="263.0187" y1="83.6290" x2="282.9813" y2="83.6290" stroke="#5b01b5" stroke-width="1.0" />
  <line x1="263.0187" y1="81.1290" x2="282.9813" y2="81.1290" stroke="#5b01b5" stroke-width="1.0" />
  <line x1="282.9813" y1="83.9790" x2="289.2710" y2="102.9513" stroke="#9b0dba" stroke-width="1.0" />
  <rect
     style="fill:#ffffff;fill-opacity:1;fill-rule:nonzero;stroke:none"
     width="2"
     height="2"
     x="285.6262"
     y="92.4651"
     transform="rotate(71.6585 286.1262 93.4651)" /> 
  <path
     style="fill:none;stroke:#9b0dba;stroke-width:1px;stroke-linecap:butt;stroke-linejoin:miter;stroke-opacity:1"
     d="m 286.1262,91.4651 2,2 -2,2 m -2.370121,-4 2,2 -2,2"
     transform="rotate(71.6585 286.1262 93.4651)"/>
  <line x1="289.2710" y1="102.9513" x2="289.2609" y2="122.9516" stroke="#8f08ea" stroke-width="1.0" />
  <rect
     style="fill:#ffffff;fill-opacity:1;fill-rule:nonzero;stroke:none"
     width="2"
     height="2"
     x="288.7659"
     y="111.9514"
     transform="rotate(90.0291 289.2659 112.9514)" /> 
  <path
     style="fill:none;stroke:#8f08ea;stroke-width:1px;stroke-linecap:butt;stroke-linejoin:miter;stroke-opacity:1"
     d="m 289.2659,110.9514 2,2 -2,2 m -2.370121,-4 2,2 -2,2"
     transform="rotate(90.0291 289.2659 112.9514)"/>
  <line x1="289.2609" y1="122.9516" x2="289.2503" y2="142.9510" stroke="#8f08ea" stroke-width="1.0" />
  <rect
     style="fill:#ffffff;fill-opacity:1;fill-rule:nonzero;stroke:none"
     width="2"
     height="2"
     x="288.7556"
     y="131.9513"
     transform="rotate(90.0304 289.2556 132.9513)" /> 
  <path
     style="fill:none;stroke:#8f08ea;stroke-width:1px;stroke-linecap:butt;stroke-linejoin:miter;stroke-opacity:1"
     d="m 289.2556,130.9513 2,2 -2,2 m -2.370121,-4 2,2 -2,2"
     transform="rotate(90.0304 289.2556 132.9513)"/>
  <line x1="289.2500" y1="162.9509" x2="289.2500" y2="182.9505" stroke="#d75b00" stroke-width="1.0" />
  <rect
     style="fill:#ffffff;fill-opacity:1;fill-rule:nonzero;stroke:none"
     width="2"
     height="2"
     x="288.7500"
     y="171.9507"
     transform="rotate(89.9999 289.2500 172.9507)" /> 
  <path
     style="fill:none;stroke:#d75b00;stroke-width:1px;stroke-linecap:butt;stroke-linejoin:miter;stroke-opacity:1"
     d="m 289.2500,170.9507 2,2 -2,2 m -2.370121,-4 2,2 -2,2"
     transform="rotate(89.9999 289.2500 172.9507)"/>
  <line x1="289.2500" y1="182.9505" x2="289.2500" y2="202.9503" stroke="#ab1751" stroke-width="1.0" />
  <rect
     style="fill:#ffffff;fill-opacity:1;fill-rule:nonzero;stroke:none"
     width="2"
     height="2"
     x="288.7500"
     y="191.9504"
     transform="rotate(90.0000 289.2500 192.9504)" /> 
  <path
     style="fill:none;stroke:#ab1751;stroke-width:1px;stroke-linecap:butt;stroke-linejoin:miter;stroke-opacity:1"
     d="m 289.2500,190.9504 2,2 -2,2 m -2.370121,-4 2,2 -2,2"
     transform="rotate(90.0000 289.2500 192.9504)"/>
  <line x1="289.2500" y1="202.9503" x2="289.2500" y2="222.9496" stroke="#ab1751" stroke-width="1.0" />
  <rect
     style="fill:#ffffff;fill-opacity:1;fill-rule:nonzero;stroke:none"
     width="2"
     height="2"
     x="288.7500"
     y="211.9500"
     transform="rotate(90.0000 289.2500 212.9500)" /> 
  <path
     style="fill:none;stroke:#ab1751;stroke-width:1px;stroke-linecap:butt;stroke-linejoin:miter;stroke-opacity:1"
     d="m 289.2500,210.9500 2,2 -2,2 m -2.370121,-4 2,2 -2,2"
     transform="rotate(90.0000 289.2500 212.9500)"/>
  <line x1="289.2500" y1="222.9496" x2="289.2500" y2="242.9495" stroke="#5b01b5" stroke-width="1.0" />
  <rect
     style="fill:#ffffff;fill-opacity:1;fill-rule:nonzero;stroke:none"
     width="2"
     height="2"
     x="288.7500"
     y="231.9495"
     transform="rotate(90.0000 289.2500 232.9495)" /> 
  <path
     style="fill:none;stroke:#5b01b5;stroke-width:1px;stroke-linecap:butt;stroke-linejoin:miter;stroke-opacity:1"
     d="m 289.2500,230.9495 2,2 -2,2 m -2.370121,-4 2,2 -2,2"
     transform="rotate(90.0000 289.2500 232.9495)"/>
  <line x1="289.2500" y1="262.9487" x2="289.2500" y2="282.9486" stroke="#520099" stroke-width="1.0" />
  <rect
     style="fill:#ffffff;fill-opacity:1;fill-rule:nonzero;stroke:none"
     width="2"
     height="2"
     x="288.7500"
     y="271.9486"
     transform="rotate(90.0000 289.2500 272.9486)" /> 
  <path
     style="fill:none;stroke:#520099;stroke-width:1px;stroke-linecap:butt;stroke-linejoin:miter;stroke-opacity:1"
     d="m 289.2500,270.9486 2,2 -2,2 m -2.370121,-4 2,2 -2,2"
     transform="rotate(90.0000 289.2500 272.9486)"/>
  <line x1="289.2500" y1="282.9486" x2="289.2500" y2="302.9478" stroke="#e78c00" stroke-width="1.0" />
  <rect
     style="fill:#ffffff;fill-opacity:1;fill-rule:nonzero;stroke:none"
     width="2"
     height="2"
     x="288.7500"
     y="291.9482"
     transform="rotate(90.0000 289.2500 292.9482)" /> 
  <path
     style="fill:none;stroke:#e78c00;stroke-width:1px;stroke-linecap:butt;stroke-linejoin:miter;stroke-opacity:1"
     d="m 289.2500,290.9482 2,2 -2,2 m -2.370121,-4 2,2 -2,2"
     transform="rotate(90.0000 289.2500 292.9482)"/>
  <line x1="289.2500" y1="302.9478" x2="289.2500" y2="322.9476" stroke="#df7200" stroke-width="1.0" />
  <rect
     style="fill:#ffffff;fill-opacity:1;fill-rule:nonzero;stroke:none"
     width="2"
     height="2"
     x="288.7500"
     y="311.9477"
     transform="rotate(90.0000 289.2500 312.9477)" /> 
  <path
     style="fill:none;stroke:#df7200;stroke-width:1px;stroke-linecap:butt;stroke-linejoin:miter;stroke-opacity:1"
     d="m 289.2500,310.9477 2,2 -2,2 m -2.370121,-4 2,2 -2,2"
     transform="rotate(90.0000 289.2500 312.9477)"/>
  <line x1="289.2500" y1="342.9470" x2="289.2500" y2="362.9468" stroke="#000000" stroke-width="1.0" />
  <rect
     style="fill:#ffffff;fill-opacity:1;fill-rule:nonzero;stroke:none"
     width="2"
     height="2"
     x="288.7500"
     y="351.9469"
     transform="rotate(90.0000 289.2500 352.9469)" /> 
  <path
     style="fill:none;stroke:#000000;stroke-width:1px;stroke-linecap:butt;stroke-linejoin:miter;stroke-opacity:1"
     d="m 289.2500,350.9469 2,2 -2,2 m -2.370121,-4 2,2 -2,2"
     transform="rotate(90.0000 289.2500 352.9469)"/>
  <line x1="289.2500" y1="362.9468" x2="289.2500" y2="382.9463" stroke="#8a06f6" stroke-width="1.0" />
  <rect
     style="fill:#ffffff;fill-opacity:1;fill-rule:nonzero;stroke:none"
     width="2"
     height="2"
     x="288.7500"
     y="371.9466"
     transform="rotate(90.0000 289.2500 372.9466)" /> 
  <path
     style="fill:none;stroke:#8a06f6;stroke-width:1px;stroke-linecap:butt;stroke-linejoin:miter;stroke-opacity:1"
     d="m 289.2500,370.9466 2,2 -2,2 m -2.370121,-4 2,2 -2,2"
     transform="rotate(90.0000 289.2500 372.9466)"/>
  <line x1="289.2500" y1="382.9463" x2="289.2500" y2="402.9462" stroke="#8a06f6" stroke-width="1.0" />
  <rect
     style="fill:#ffffff;fill-opacity:1;fill-rule:nonzero;stroke:none"
     width="2"
     height="2"
     x="288.7500"
     y="391.9463"
     transform="rotate(90.0000 289.2500 392.9463)" /> 
  <path
     style="fill:none;stroke:#8a06f6;stroke-width:1px;stroke-linecap:butt;stroke-linejoin:miter;stroke-opacity:1"
     d="m 289.2500,390.9463 2,2 -2,2 m -2.370121,-4 2,2 -2,2"
     transform="rotate(90.0000 289.2500 392.9463)"/>
  <line x1="289.2500" y1="422.9459" x2="289.2500" y2="442.9458" stroke="#8a06f6" stroke-width="1.0" />
  <rect
     style="fill:#ffffff;fill-opacity:1;fill-rule:nonzero;stroke:none"
     width="2"
     height="2"
     x="288.7500"
     y="431.9458"
     transform="rotate(90.0000 289.2500 432.9458)" /> 
  <path
     style="fill:none;stroke:#8a06f6;stroke-width:1px;stroke-linecap:butt;stroke-linejoin:miter;stroke-opacity:1"
     d="m 289.2500,430.9458 2,2 -2,2 m -2.370121,-4 2,2 -2,2"
     transform="rotate(90.0000 289.2500 432.9458)"/>
  <line x1="289.2500" y1="442.9458" x2="289.2499" y2="462.9457" stroke="#37004b" stroke-width="1.0" />
  <rect
     style="fill:#ffffff;fill-opacity:1;fill-rule:nonzero;stroke:none"
     width="2"
     height="2"
     x="288.7500"
     y="451.9458"
     transform="rotate(90.0000 289.2500 452.9458)" /> 
  <path
     style="fill:none;stroke:#37004b;stroke-width:1px;stroke-linecap:butt;stroke-linejoin:miter;stroke-opacity:1"
     d="m 289.2500,450.9458 2,2 -2,2 m -2.370121,-4 2,2 -2,2"
     transform="rotate(90.0000 289.2500 452.9458)"/>
<circle cx="256.7499" cy="462.9457" r="5.0" stroke="#595959" stroke-width="1.0" fill="#ffffff"/>
<text x="256.7499" y="465.6457" text-anchor="middle" font-family="Helvetica" font-size="7.5" fill="#000000" >A</text>
<circle cx="256.7500" cy="442.9458" r="5.0" stroke="#595959" stroke-width="1.0" fill="#ffffff"/>
<text x="256.7500" y="445.6458" text-anchor="middle" font-family="Helvetica" font-size="7.5" fill="#000000" >C</text>
<circle cx="256.7500" cy="422.9459" r="5.0" stroke="#595959" stroke-width="1.0" fill="#ffffff"/>
<text x="256.7500" y="425.6459" text-anchor="middle" font-family="Helvetica" font-size="7.5" fill="#000000" >U</text>
<circle cx="256.7500" cy="402.9462" r="5.0" stroke="#595959" stroke-width="1.0" fill="#ffffff"/>
<text x="256.7500" y="405.6462" text-anchor="middle" font-family="Helvetica" font-size="7.5" fill="#000000" >G</text>
<circle cx="256.7500" cy="382.9463" r="5.0" stroke="#595959" stroke-width="1.0" fill="#ffffff"/>
<text x="256.7500" y="385.6463" text-anchor="middle" font-family="Helvetica" font-size="7.5" fill="#000000" >G</text>
<circle cx="256.7500" cy="362.9468" r="5.0" stroke="#595959" stroke-width="1.0" fill="#ffffff"/>
<text x="256.7500" y="365.6468" text-anchor="middle" font-family="Helvetica" font-size="7.5" fill="#000000" >A</text>
<circle cx="256.7500" cy="342.9470" r="5.0" stroke="#595959" stroke-width="1.0" fill="#ffffff"/>
<text x="256.7500" y="345.6470" text-anchor="middle" font-family="Helvetica" font-size="7.5" fill="#000000" >C</text>
<circle cx="256.7500" cy="322.9476" r="5.0" stroke="#595959" stroke-width="1.0" fill="#ffffff"/>
<text x="256.7500" y="325.6476" text-anchor="middle" font-family="Helvetica" font-size="7.5" fill="#000000" >A</text>
<circle cx="256.7500" cy="302.9478" r="5.0" stroke="#595959" stroke-width="1.0" fill="#ffffff"/>
<text x="256.7500" y="305.6478" text-anchor="middle" font-family="Helvetica" font-size="7.5" fill="#000000" >G</text>
<circle cx="256.7500" cy="282.9485" r="5.0" stroke="#595959" stroke-width="1.0" fill="#ffffff"/>
<text x="256.7500" y="285.6485" text-anchor="middle" font-family="Helvetica" font-size="7.5" fill="#000000" >G</text>
<circle cx="256.7500" cy="262.9487" r="5.0" stroke="#595959" stroke-width="1.0" fill="#ffffff"/>
<text x="256.7500" y="265.6487" text-anchor="middle" font-family="Helvetica" font-size="7.5" fill="#000000" >U</text>
<circle cx="256.7500" cy="242.9495" r="5.0" stroke="#595959" stroke-width="1.0" fill="#ffffff"/>
<text x="256.7500" y="245.6495" text-anchor="middle" font-family="Helvetica" font-size="7.5" fill="#000000" >G</text>
<circle cx="256.7500" cy="222.9496" r="5.0" stroke="#595959" stroke-width="1.0" fill="#ffffff"/>
<text x="256.7500" y="225.6496" text-anchor="middle" font-family="Helvetica" font-size="7.5" fill="#000000" >C</text>
<circle cx="256.7500" cy="202.9503" r="5.0" stroke="#595959" stroke-width="1.0" fill="#ffffff"/>
<text x="256.7500" y="205.6503" text-anchor="middle" font-family="Helvetica" font-size="7.5" fill="#000000" >U</text>
<circle cx="256.7500" cy="182.9505" r="5.0" stroke="#595959" stroke-width="1.0" fill="#ffffff"/>
<text x="256.7500" y="185.6505" text-anchor="middle" font-family="Helvetica" font-size="7.5" fill="#000000" >C</text>
<circle cx="256.7500" cy="162.9509" r="5.0" stroke="#595959" stroke-width="1.0" fill="#ffffff"/>
<text x="256.7500" y="165.6509" text-anchor="middle" font-family="Helvetica" font-size="7.5" fill="#000000" >C</text>
<circle cx="256.7498" cy="142.9510" r="5.0" stroke="#595959" stroke-width="1.0" fill="#ffffff"/>
<text x="256.7498" y="145.6510" text-anchor="middle" font-family="Helvetica" font-size="7.5" fill="#000000" >G</text>
<circle cx="256.7391" cy="122.9516" r="5.0" stroke="#595959" stroke-width="1.0" fill="#ffffff"/>
<text x="256.7391" y="125.6516" text-anchor="middle" font-family="Helvetica" font-size="7.5" fill="#000000" >A</text>
<circle cx="256.7289" cy="102.9513" r="5.0" stroke="#595959" stroke-width="1.0" fill="#ffffff"/>
<text x="256.7289" y="105.6513" text-anchor="middle" font-family="Helvetica" font-size="7.5" fill="#000000" >G</text>
<circle cx="263.0187" cy="83.9790" r="5.0" stroke="#595959" stroke-width="1.0" fill="#ffffff"/>
<text x="263.0187" y="86.6790" text-anchor="middle" font-family="Helvetica" font-size="7.5" fill="#000000" >G</text>
<circle cx="282.9813" cy="83.9790" r="5.0" stroke="#595959" stroke-width="1.0" fill="#ffffff"/>
<text x="282.9813" y="86.6790" text-anchor="middle" font-family="Helvetica" font-size="7.5" fill="#000000" >C</text>
<circle cx="289.2710" cy="102.9513" r="5.0" stroke="#595959" stroke-width="1.0" fill="#ffffff"/>
<text x="289.2710" y="105.6513" text-anchor="middle" font-family="Helvetica" font-size="7.5" fill="#000000" >C</text>
<circle cx="289.2609" cy="122.9516" r="5.0" stroke="#595959" stroke-width="1.0" fill="#ffffff"/>
<text x="289.2609" y="125.6516" text-anchor="middle" font-family="Helvetica" font-size="7.5" fill="#000000" >U</text>
<circle cx="289.2503" cy="142.9510" r="5.0" stroke="#595959" stroke-width="1.0" fill="#ffffff"/>
<text x="289.2503" y="145.6510" text-anchor="middle" font-family="Helvetica" font-size="7.5" fill="#000000" >C</text>
<circle cx="289.2500" cy="162.9509" r="5.0" stroke="#595959" stroke-width="1.0" fill="#ffffff"/>
<text x="289.2500" y="165.6509" text-anchor="middle" font-family="Helvetica" font-size="7.5" fill="#000000" >G</text>
<circle cx="289.2500" cy="182.9505" r="5.0" stroke="#595959" stroke-width="1.0" fill="#ffffff"/>
<text x="289.2500" y="185.6505" text-anchor="middle" font-family="Helvetica" font-size="7.5" fill="#000000" >G</text>
<circle cx="289.2500" cy="202.9503" r="5.0" stroke="#595959" stroke-width="1.0" fill="#ffffff"/>
<text x="289.2500" y="205.6503" text-anchor="middle" font-family="Helvetica" font-size="7.5" fill="#000000" >A</text>
<circle cx="289.2500" cy="222.9496" r="5.0" stroke="#595959" stroke-width="1.0" fill="#ffffff"/>
<text x="289.2500" y="225.6496" text-anchor="middle" font-family="Helvetica" font-size="7.5" fill="#000000" >G</text>
<circle cx="289.2500" cy="242.9495" r="5.0" stroke="#595959" stroke-width="1.0" fill="#ffffff"/>
<text x="289.2500" y="245.6495" text-anchor="middle" font-family="Helvetica" font-size="7.5" fill="#000000" >U</text>
<circle cx="289.2500" cy="262.9487" r="5.0" stroke="#595959" stroke-width="1.0" fill="#ffffff"/>
<text x="289.2500" y="265.6487" text-anchor="middle" font-family="Helvetica" font-size="7.5" fill="#000000" >G</text>
<circle cx="289.2500" cy="282.9486" r="5.0" stroke="#595959" stroke-width="1.0" fill="#ffffff"/>
<text x="289.2500" y="285.6486" text-anchor="middle" font-family="Helvetica" font-size="7.5" fill="#000000" >U</text>
<circle cx="289.2500" cy="302.9478" r="5.0" stroke="#595959" stroke-width="1.0" fill="#ffffff"/>
<text x="289.2500" y="305.6478" text-anchor="middle" font-family="Helvetica" font-size="7.5" fill="#000000" >U</text>
<circle cx="289.2500" cy="322.9476" r="5.0" stroke="#595959" stroke-width="1.0" fill="#ffffff"/>
<text x="289.2500" y="325.6476" text-anchor="middle" font-family="Helvetica" font-size="7.5" fill="#000000" >U</text>
<circle cx="289.2500" cy="342.9470" r="5.0" stroke="#595959" stroke-width="1.0" fill="#ffffff"/>
<text x="289.2500" y="345.6470" text-anchor="middle" font-family="Helvetica" font-size="7.5" fill="#000000" >G</text>
<circle cx="289.2500" cy="362.9468" r="5.0" stroke="#595959" stroke-width="1.0" fill="#ffffff"/>
<text x="289.2500" y="365.6468" text-anchor="middle" font-family="Helvetica" font-size="7.5" fill="#000000" >U</text>
<circle cx="289.2500" cy="382.9463" r="5.0" stroke="#595959" stroke-width="1.0" fill="#ffffff"/>
<text x="289.2500" y="385.6463" text-anchor="middle" font-family="Helvetica" font-size="7.5" fill="#000000" >C</text>
<circle cx="289.2500" cy="402.9462" r="5.0" stroke="#595959" stroke-width="1.0" fill="#ffffff"/>
<text x="289.2500" y="405.6462" text-anchor="middle" font-family="Helvetica" font-size="7.5" fill="#000000" >C</text>
<circle cx="289.2500" cy="422.9459" r="5.0" stroke="#595959" stroke-width="1.0" fill="#ffffff"/>
<text x="289.2500" y="425.6459" text-anchor="middle" font-family="Helvetica" font-size="7.5" fill="#000000" >A</text>
<circle cx="289.2500" cy="442.9458" r="5.0" stroke="#595959" stroke-width="1.0" fill="#ffffff"/>
<text x="289.2500" y="445.6458" text-anchor="middle" font-family="Helvetica" font-size="7.5" fill="#000000" >G</text>
<circle cx="289.2499" cy="462.9457" r="5.0" stroke="#595959" stroke-width="1.0" fill="#ffffff"/>
<text x="289.2499" y="465.6457" text-anchor="middle" font-family="Helvetica" font-size="7.5" fill="#000000" >U</text>
</svg>