<?xml version="1.0" encoding="UTF-8"?>
<!DOCTYPE svg PUBLIC "-//W3C//DTD SVG 1.1//EN" 
"http://www.w3.org/Graphics/SVG/1.1/DTD/svg11.dtd">

<svg version="1.1"
   width="546px"
   height="546px"
xmlns="http://www.w3.org/2000/svg">
    <rect width="100%" height="100%" fill="white"/>

  <line x1="256.4447" y1="422.7223" x2="256.4990" y2="402.7230" stroke="#595959"
     style="stroke-width:2;stroke-miterlimit:4;stroke-dasharray:1,1;stroke-dashoffset:0" />
  <line x1="256.6252" y1="342.7368" x2="256.6599" y2="322.7449" stroke="#595959"
     style="stroke-width:2;stroke-miterlimit:4;stroke-dasharray:1,1;stroke-dashoffset:0" />
  <line x1="256.7383" y1="262.7859" x2="256.7628" y2="242.8159" stroke="#595959"
     style="stroke-width:2;stroke-miterlimit:4;stroke-dasharray:1,1;stroke-dashoffset:0" />
  <line x1="256.9488" y1="163.2118" x2="256.9957" y2="143.3993" stroke="#595959"
     style="stroke-width:2;stroke-miterlimit:4;stroke-dasharray:1,1;stroke-dashoffset:0" />
  <line x1="289.4770" y1="143.2024" x2="289.4414" y2="163.1043" stroke="#595959"
     style="stroke-width:2;stroke-miterlimit:4;stroke-dasharray:1,1;stroke-dashoffset:0" />
  <line x1="289.2626" y1="242.8068" x2="289.2386" y2="262.7744" stroke="#595959"
     style="stroke-width:2;stroke-miterlimit:4;stroke-dasharray:1,1;stroke-dashoffset:0" />
  <line x1="289.1598" y1="322.7219" x2="289.1252" y2="342.7128" stroke="#595959"
     style="stroke-width:2;stroke-miterlimit:4;stroke-dasharray:1,1;stroke-dashoffset:0" />
  <line x1="288.9991" y1="402.7019" x2="288.9604" y2="422.7060" stroke="#595959"
     style="stroke-width:2;stroke-miterlimit:4;stroke-dasharray:1,1;stroke-dashoffset:0" />
  <line x1="256.3570" y1="461.1311" x2="288.8572" y2="461.1194" stroke="#d35200" stroke-width="1.0" />
  <circle cx="272.6071" cy="461.1252" r="2.25" stroke="#d35200" stroke-width="1.0" fill="#d35200"/>
  <line x1="256.4455" y1="424.3223" x2="288.9612" y2="424.3060" stroke="#f2b800" stroke-width="1.0" />
  <circle cx="272.7033" cy="424.3141" r="2.25" stroke="#f2b800" stroke-width="1.0" fill="#f2b800"/>
  <line x1="256.5830" y1="364.3303" x2="289.0920" y2="364.3066" stroke="#e99400" stroke-width="1.0" />
  <circle cx="272.8375" cy="364.3184" r="2.25" stroke="#e99400" stroke-width="1.0" fill="#e99400"/>
  <line x1="256.6890" y1="301.1547" x2="289.1891" y2="301.1345" stroke="#df7200" stroke-width="1.0" />
  <circle cx="272.9391" cy="301.1446" r="2.25" stroke="#df7200" stroke-width="1.0" fill="#df7200"/>
  <line x1="256.6910" y1="304.3547" x2="289.1911" y2="304.3345" stroke="#7e04ff" stroke-width="1.0" />
  <circle cx="272.9411" cy="304.3446" r="2.25" stroke="#7e04ff" stroke-width="1.0" fill="#7e04ff"/>
  <line x1="256.7103" y1="281.1674" x2="289.2208" y2="281.1514" stroke="#8f08ea" stroke-width="1.0" />
  <circle cx="272.9656" cy="281.1594" r="2.25" stroke="#8f08ea" stroke-width="1.0" fill="#8f08ea"/>
  <line x1="256.7119" y1="284.3674" x2="289.2224" y2="284.3514" stroke="#e68800" stroke-width="1.0" />
  <circle cx="272.9671" cy="284.3594" r="2.25" stroke="#e68800" stroke-width="1.0" fill="#e68800"/>
  <line x1="256.7378" y1="261.1859" x2="289.2380" y2="261.1744" stroke="#db6700" stroke-width="1.0" />
  <circle cx="272.9879" cy="261.1801" r="2.25" stroke="#db6700" stroke-width="1.0" fill="#db6700"/>
  <line x1="256.7389" y1="264.3859" x2="289.2392" y2="264.3744" stroke="#a21194" stroke-width="1.0" />
  <circle cx="272.9890" cy="264.3801" r="2.25" stroke="#a21194" stroke-width="1.0" fill="#a21194"/>
  <line x1="256.7628" y1="242.8159" x2="289.2626" y2="242.8068" stroke="#6501d5" stroke-width="1.0" />
  <circle cx="273.0127" cy="242.8113" r="2.25" stroke="#6501d5" stroke-width="1.0" fill="#6501d5"/>
  <line x1="256.7928" y1="204.5442" x2="289.3653" y2="204.5180" stroke="#efaf00" stroke-width="1.0" />
  <circle cx="273.0790" cy="204.5311" r="2.25" stroke="#efaf00" stroke-width="1.0" fill="#efaf00"/>
  <line x1="256.7994" y1="122.0172" x2="289.2748" y2="121.6639" stroke="#efaf00" stroke-width="1.0" />
  <circle cx="273.0371" cy="121.8406" r="2.25" stroke="#efaf00" stroke-width="1.0" fill="#efaf00"/>
  <line x1="256.3576" y1="462.7311" x2="256.4052" y2="442.7266" stroke="#33003e" stroke-width="1.0" />
  <rect
     style="fill:#ffffff;fill-opacity:1;fill-rule:nonzero;stroke:none"
     width="2"
     height="2"
     x="255.8814"
     y="451.7288"
     transform="rotate(-89.8638 256.3814 452.7288)" /> 
  <path
     style="fill:none;stroke:#33003e;stroke-width:1px;stroke-linecap:butt;stroke-linejoin:miter;stroke-opacity:1"
     d="m 256.3814,450.7288 2,2 -2,2 m -2.370121,-4 2,2 -2,2"
     transform="rotate(-89.8638 256.3814 452.7288)"/>
  <line x1="256.3582" y1="464.3311" x2="288.8583" y2="464.3194" stroke="#af1b2c" stroke-width="1.0" />
  <line x1="256.4052" y1="442.7266" x2="256.4447" y2="422.7223" stroke="#7803fb" stroke-width="1.0" />
  <rect
     style="fill:#ffffff;fill-opacity:1;fill-rule:nonzero;stroke:none"
     width="2"
     height="2"
     x="255.9249"
     y="431.7244"
     transform="rotate(-89.8869 256.4249 432.7244)" /> 
  <path
     style="fill:none;stroke:#7803fb;stroke-width:1px;stroke-linecap:butt;stroke-linejoin:miter;stroke-opacity:1"
     d="m 256.4249,430.7244 2,2 -2,2 m -2.370121,-4 2,2 -2,2"
     transform="rotate(-89.8869 256.4249 432.7244)"/>
  <line x1="256.4057" y1="443.9766" x2="288.9058" y2="443.9636" stroke="#400062" stroke-width="1.0" />
  <line x1="256.4047" y1="441.4766" x2="288.9048" y2="441.4636" stroke="#400062" stroke-width="1.0" />
  <line x1="256.4439" y1="421.1223" x2="288.9596" y2="421.1060" stroke="#520099" stroke-width="1.0" />
  <line x1="256.4990" y1="402.7230" x2="256.5439" y2="382.7256" stroke="#ca4000" stroke-width="1.0" />
  <rect
     style="fill:#ffffff;fill-opacity:1;fill-rule:nonzero;stroke:none"
     width="2"
     height="2"
     x="256.0215"
     y="391.7243"
     transform="rotate(-89.8712 256.5215 392.7243)" /> 
  <path
     style="fill:none;stroke:#ca4000;stroke-width:1px;stroke-linecap:butt;stroke-linejoin:miter;stroke-opacity:1"
     d="m 256.5215,390.7243 2,2 -2,2 m -2.370121,-4 2,2 -2,2"
     transform="rotate(-89.8712 256.5215 392.7243)"/>
  <line x1="256.4998" y1="403.9730" x2="288.9999" y2="403.9519" stroke="#270026" stroke-width="1.0" />
  <line x1="256.4982" y1="401.4730" x2="288.9983" y2="401.4519" stroke="#270026" stroke-width="1.0" />
  <line x1="256.4990" y1="402.7230" x2="288.9604" y2="422.7060" stroke="#17000d" stroke-width="1.0" />
  <rect
     style="fill:#ffffff;stroke:none"
     width="5.5"
     height="2"
     x="269.9797"
     y="411.7145" 
     transform="rotate(31.6162 272.7297 412.7145)"    /> 
  <path
     style="fill:none;stroke:#17000d;stroke-width:1px;stroke-linecap:butt;stroke-linejoin:miter;stroke-opacity:1"
    d="m 273.4797,410.7145 2,2 -2,2 m -1.5,-4 -2,2 2,2" transform="rotate(31.6162 272.7297 412.7145)"/>
  <line x1="256.5439" y1="382.7256" x2="256.5818" y2="362.7303" stroke="#ac1845" stroke-width="1.0" />
  <rect
     style="fill:#ffffff;fill-opacity:1;fill-rule:nonzero;stroke:none"
     width="2"
     height="2"
     x="256.0629"
     y="371.7280"
     transform="rotate(-89.8914 256.5629 372.7280)" /> 
  <path
     style="fill:none;stroke:#ac1845;stroke-width:1px;stroke-linecap:butt;stroke-linejoin:miter;stroke-opacity:1"
     d="m 256.5629,370.7280 2,2 -2,2 m -2.370121,-4 2,2 -2,2"
     transform="rotate(-89.8914 256.5629 372.7280)"/>
  <line x1="256.5448" y1="383.9756" x2="289.0448" y2="383.9531" stroke="#37004b" stroke-width="1.0" />
  <line x1="256.5431" y1="381.4756" x2="289.0431" y2="381.4531" stroke="#37004b" stroke-width="1.0" />
  <line x1="256.5439" y1="382.7256" x2="288.9991" y2="402.7019" stroke="#f2b800" stroke-width="1.0" />
  <rect
     style="fill:#ffffff;stroke:none"
     width="5.5"
     height="2"
     x="270.0215"
     y="391.7138" 
     transform="rotate(31.6125 272.7715 392.7138)"    /> 
  <path
     style="fill:none;stroke:#f2b800;stroke-width:1px;stroke-linecap:butt;stroke-linejoin:miter;stroke-opacity:1"
    d="m 273.5215,390.7138 2,2 -2,2 m -1.5,-4 -2,2 2,2" transform="rotate(31.6125 272.7715 392.7138)"/>
  <line x1="256.5818" y1="362.7303" x2="256.6252" y2="342.7368" stroke="#000000" stroke-width="1.0" />
  <rect
     style="fill:#ffffff;fill-opacity:1;fill-rule:nonzero;stroke:none"
     width="2"
     height="2"
     x="256.1035"
     y="351.7335"
     transform="rotate(-89.8758 256.6035 352.7335)" /> 
  <path
     style="fill:none;stroke:#000000;stroke-width:1px;stroke-linecap:butt;stroke-linejoin:miter;stroke-opacity:1"
     d="m 256.6035,350.7335 2,2 -2,2 m -2.370121,-4 2,2 -2,2"
     transform="rotate(-89.8758 256.6035 352.7335)"/>
  <line x1="256.5807" y1="361.1303" x2="289.0897" y2="361.1066" stroke="#6d02e7" stroke-width="1.0" />
  <line x1="256.6261" y1="343.9868" x2="289.1261" y2="343.9628" stroke="#33003e" stroke-width="1.0" />
  <line x1="256.6242" y1="341.4868" x2="289.1243" y2="341.4628" stroke="#33003e" stroke-width="1.0" />
  <line x1="256.6599" y1="322.7449" x2="256.6900" y2="302.7547" stroke="#a21194" stroke-width="1.0" />
  <rect
     style="fill:#ffffff;fill-opacity:1;fill-rule:nonzero;stroke:none"
     width="2"
     height="2"
     x="256.1749"
     y="311.7498"
     transform="rotate(-89.9135 256.6749 312.7498)" /> 
  <path
     style="fill:none;stroke:#a21194;stroke-width:1px;stroke-linecap:butt;stroke-linejoin:miter;stroke-opacity:1"
     d="m 256.6749,310.7498 2,2 -2,2 m -2.370121,-4 2,2 -2,2"
     transform="rotate(-89.9135 256.6749 312.7498)"/>
  <line x1="256.6599" y1="322.7449" x2="289.1598" y2="322.7219" stroke="#4b0084" stroke-width="1.0" />
  <line x1="256.6599" y1="322.7449" x2="289.1252" y2="342.7128" stroke="#3c0057" stroke-width="1.0" />
  <rect
     style="fill:#ffffff;stroke:none"
     width="5.5"
     height="2"
     x="270.1425"
     y="331.7288" 
     transform="rotate(31.5936 272.8925 332.7288)"    /> 
  <path
     style="fill:none;stroke:#3c0057;stroke-width:1px;stroke-linecap:butt;stroke-linejoin:miter;stroke-opacity:1"
    d="m 273.6425,330.7288 2,2 -2,2 m -1.5,-4 -2,2 2,2" transform="rotate(31.5936 272.8925 332.7288)"/>
  <line x1="256.6900" y1="302.7547" x2="256.7111" y2="282.7674" stroke="#c13000" stroke-width="1.0" />
  <rect
     style="fill:#ffffff;fill-opacity:1;fill-rule:nonzero;stroke:none"
     width="2"
     height="2"
     x="256.2006"
     y="291.7611"
     transform="rotate(-89.9395 256.7006 292.7611)" /> 
  <path
     style="fill:none;stroke:#c13000;stroke-width:1px;stroke-linecap:butt;stroke-linejoin:miter;stroke-opacity:1"
     d="m 256.7006,290.7611 2,2 -2,2 m -2.370121,-4 2,2 -2,2"
     transform="rotate(-89.9395 256.7006 292.7611)"/>
  <line x1="256.7111" y1="282.7674" x2="256.7383" y2="262.7859" stroke="#3c0057" stroke-width="1.0" />
  <rect
     style="fill:#ffffff;fill-opacity:1;fill-rule:nonzero;stroke:none"
     width="2"
     height="2"
     x="256.2247"
     y="271.7767"
     transform="rotate(-89.9220 256.7247 272.7767)" /> 
  <path
     style="fill:none;stroke:#3c0057;stroke-width:1px;stroke-linecap:butt;stroke-linejoin:miter;stroke-opacity:1"
     d="m 256.7247,270.7767 2,2 -2,2 m -2.370121,-4 2,2 -2,2"
     transform="rotate(-89.9220 256.7247 272.7767)"/>
  <line x1="256.7628" y1="242.8159" x2="256.8383" y2="222.8656" stroke="#17000d" stroke-width="1.0" />
  <rect
     style="fill:#ffffff;fill-opacity:1;fill-rule:nonzero;stroke:none"
     width="2"
     height="2"
     x="256.3005"
     y="231.8407"
     transform="rotate(-89.7832 256.8005 232.8407)" /> 
  <path
     style="fill:none;stroke:#17000d;stroke-width:1px;stroke-linecap:butt;stroke-linejoin:miter;stroke-opacity:1"
     d="m 256.8005,230.8407 2,2 -2,2 m -2.370121,-4 2,2 -2,2"
     transform="rotate(-89.7832 256.8005 232.8407)"/>
  <line x1="256.7628" y1="242.8159" x2="289.2386" y2="262.7744" stroke="#4b0084" stroke-width="1.0" />
  <rect
     style="fill:#ffffff;stroke:none"
     width="5.5"
     height="2"
     x="270.2507"
     y="251.7951" 
     transform="rotate(31.5734 273.0007 252.7951)"    /> 
  <path
     style="fill:none;stroke:#4b0084;stroke-width:1px;stroke-linecap:butt;stroke-linejoin:miter;stroke-opacity:1"
    d="m 273.7507,250.7951 2,2 -2,2 m -1.5,-4 -2,2 2,2" transform="rotate(31.5734 273.0007 252.7951)"/>
  <line x1="256.8383" y1="222.8656" x2="256.7915" y2="202.9442" stroke="#7602f8" stroke-width="1.0" />
  <rect
     style="fill:#ffffff;fill-opacity:1;fill-rule:nonzero;stroke:none"
     width="2"
     height="2"
     x="256.3149"
     y="211.9049"
     transform="rotate(269.8656 256.8149 212.9049)" /> 
  <path
     style="fill:none;stroke:#7602f8;stroke-width:1px;stroke-linecap:butt;stroke-linejoin:miter;stroke-opacity:1"
     d="m 256.8149,210.9049 2,2 -2,2 m -2.370121,-4 2,2 -2,2"
     transform="rotate(269.8656 256.8149 212.9049)"/>
  <line x1="256.8387" y1="224.1156" x2="289.3391" y2="224.1032" stroke="#520099" stroke-width="1.0" />
  <line x1="256.8378" y1="221.6156" x2="289.3381" y2="221.6032" stroke="#520099" stroke-width="1.0" />
  <line x1="256.7915" y1="202.9442" x2="256.8907" y2="183.0593" stroke="#8204ff" stroke-width="1.0" />
  <rect
     style="fill:#ffffff;fill-opacity:1;fill-rule:nonzero;stroke:none"
     width="2"
     height="2"
     x="256.3411"
     y="192.0017"
     transform="rotate(-89.7141 256.8411 193.0017)" /> 
  <path
     style="fill:none;stroke:#8204ff;stroke-width:1px;stroke-linecap:butt;stroke-linejoin:miter;stroke-opacity:1"
     d="m 256.8411,191.0017 2,2 -2,2 m -2.370121,-4 2,2 -2,2"
     transform="rotate(-89.7141 256.8411 193.0017)"/>
  <line x1="256.7902" y1="201.3442" x2="289.3627" y2="201.3180" stroke="#5800ac" stroke-width="1.0" />
  <line x1="256.8907" y1="183.0593" x2="256.9488" y2="163.2118" stroke="#7602f8" stroke-width="1.0" />
  <rect
     style="fill:#ffffff;fill-opacity:1;fill-rule:nonzero;stroke:none"
     width="2"
     height="2"
     x="256.4198"
     y="172.1355"
     transform="rotate(-89.8322 256.9198 173.1355)" /> 
  <path
     style="fill:none;stroke:#7602f8;stroke-width:1px;stroke-linecap:butt;stroke-linejoin:miter;stroke-opacity:1"
     d="m 256.9198,171.1355 2,2 -2,2 m -2.370121,-4 2,2 -2,2"
     transform="rotate(-89.8322 256.9198 173.1355)"/>
  <line x1="256.8929" y1="184.3093" x2="289.3931" y2="184.2531" stroke="#2d0032" stroke-width="1.0" />
  <line x1="256.8886" y1="181.8093" x2="289.3888" y2="181.7531" stroke="#2d0032" stroke-width="1.0" />
  <line x1="256.9530" y1="164.4618" x2="289.4456" y2="164.3542" stroke="#33003e" stroke-width="1.0" />
  <line x1="256.9447" y1="161.9618" x2="289.4373" y2="161.8543" stroke="#33003e" stroke-width="1.0" />
  <line x1="256.9488" y1="163.2118" x2="289.3909" y2="183.0031" stroke="#eeaa00" stroke-width="1.0" />
  <rect
     style="fill:#ffffff;stroke:none"
     width="5.5"
     height="2"
     x="270.4199"
     y="172.1075" 
     transform="rotate(31.3854 273.1699 173.1075)"    /> 
  <path
     style="fill:none;stroke:#eeaa00;stroke-width:1px;stroke-linecap:butt;stroke-linejoin:miter;stroke-opacity:1"
    d="m 273.9199,171.1075 2,2 -2,2 m -1.5,-4 -2,2 2,2" transform="rotate(31.3854 273.1699 173.1075)"/>
  <line x1="256.9957" y1="143.3993" x2="256.8168" y2="123.6171" stroke="#a21194" stroke-width="1.0" />
  <rect
     style="fill:#ffffff;fill-opacity:1;fill-rule:nonzero;stroke:none"
     width="2"
     height="2"
     x="256.4062"
     y="132.5082"
     transform="rotate(269.4819 256.9062 133.5082)" /> 
  <path
     style="fill:none;stroke:#a21194;stroke-width:1px;stroke-linecap:butt;stroke-linejoin:miter;stroke-opacity:1"
     d="m 256.9062,131.5082 2,2 -2,2 m -2.370121,-4 2,2 -2,2"
     transform="rotate(269.4819 256.9062 133.5082)"/>
  <line x1="257.0033" y1="144.6493" x2="289.4846" y2="144.4524" stroke="#33003e" stroke-width="1.0" />
  <line x1="256.9881" y1="142.1493" x2="289.4694" y2="141.9524" stroke="#33003e" stroke-width="1.0" />
  <line x1="256.9957" y1="143.3993" x2="289.4414" y2="163.1043" stroke="#000000" stroke-width="1.0" />
  <rect
     style="fill:#ffffff;stroke:none"
     width="5.5"
     height="2"
     x="270.4686"
     y="152.2518" 
     transform="rotate(31.2711 273.2186 153.2518)"    /> 
  <path
     style="fill:none;stroke:#000000;stroke-width:1px;stroke-linecap:butt;stroke-linejoin:miter;stroke-opacity:1"
    d="m 273.9686,151.2518 2,2 -2,2 m -1.5,-4 -2,2 2,2" transform="rotate(31.2711 273.2186 153.2518)"/>
  <line x1="256.8168" y1="123.6171" x2="256.4642" y2="103.7871" stroke="#a31289" stroke-width="1.0" />
  <rect
     style="fill:#ffffff;fill-opacity:1;fill-rule:nonzero;stroke:none"
     width="2"
     height="2"
     x="256.1405"
     y="112.7021"
     transform="rotate(268.9813 256.6405 113.7021)" /> 
  <path
     style="fill:none;stroke:#a31289;stroke-width:1px;stroke-linecap:butt;stroke-linejoin:miter;stroke-opacity:1"
     d="m 256.6405,111.7021 2,2 -2,2 m -2.370121,-4 2,2 -2,2"
     transform="rotate(268.9813 256.6405 113.7021)"/>
  <line x1="256.8342" y1="125.2170" x2="289.3096" y2="124.8637" stroke="#5800ac" stroke-width="1.0" />
  <line x1="256.4642" y1="103.7871" x2="264.6130" y2="85.7103" stroke="#bb2700" stroke-width="1.0" />
  <rect
     style="fill:#ffffff;fill-opacity:1;fill-rule:nonzero;stroke:none"
     width="2"
     height="2"
     x="260.0386"
     y="93.7487"
     transform="rotate(-65.7347 260.5386 94.7487)" /> 
  <path
     style="fill:none;stroke:#bb2700;stroke-width:1px;stroke-linecap:butt;stroke-linejoin:miter;stroke-opacity:1"
     d="m 260.5386,92.7487 2,2 -2,2 m -2.370121,-4 2,2 -2,2"
     transform="rotate(-65.7347 260.5386 94.7487)"/>
  <line x1="256.4823" y1="105.0369" x2="288.9590" y2="104.5650" stroke="#2d0032" stroke-width="1.0" />
  <line x1="256.4460" y1="102.5372" x2="288.9227" y2="102.0653" stroke="#2d0032" stroke-width="1.0" />
  <line x1="264.7192" y1="86.9558" x2="284.4276" y2="85.2740" stroke="#520099" stroke-width="1.0" />
  <line x1="264.5067" y1="84.4649" x2="284.2150" y2="82.7831" stroke="#520099" stroke-width="1.0" />
  <line x1="264.6130" y1="85.7103" x2="288.9408" y2="103.3151" stroke="#eca100" stroke-width="1.0" />
  <rect
     style="fill:#ffffff;stroke:none"
     width="5.5"
     height="2"
     x="274.0269"
     y="93.5127" 
     transform="rotate(35.8912 276.7769 94.5127)"    /> 
  <path
     style="fill:none;stroke:#eca100;stroke-width:1px;stroke-linecap:butt;stroke-linejoin:miter;stroke-opacity:1"
    d="m 277.5269,92.5127 2,2 -2,2 m -1.5,-4 -2,2 2,2" transform="rotate(35.8912 276.7769 94.5127)"/>
  <line x1="284.3213" y1="84.0285" x2="288.9408" y2="103.3151" stroke="#990cc2" stroke-width="1.0" />
  <rect
     style="fill:#ffffff;fill-opacity:1;fill-rule:nonzero;stroke:none"
     width="2"
     height="2"
     x="286.1311"
     y="92.6718"
     transform="rotate(76.5303 286.6311 93.6718)" /> 
  <path
     style="fill:none;stroke:#990cc2;stroke-width:1px;stroke-linecap:butt;stroke-linejoin:miter;stroke-opacity:1"
     d="m 286.6311,91.6718 2,2 -2,2 m -2.370121,-4 2,2 -2,2"
     transform="rotate(76.5303 286.6311 93.6718)"/>
  <line x1="288.9408" y1="103.3151" x2="289.2922" y2="123.2638" stroke="#8405fd" stroke-width="1.0" />
  <rect
     style="fill:#ffffff;fill-opacity:1;fill-rule:nonzero;stroke:none"
     width="2"
     height="2"
     x="288.6165"
     y="112.2895"
     transform="rotate(88.9908 289.1165 113.2895)" /> 
  <path
     style="fill:none;stroke:#8405fd;stroke-width:1px;stroke-linecap:butt;stroke-linejoin:miter;stroke-opacity:1"
     d="m 289.1165,111.2895 2,2 -2,2 m -2.370121,-4 2,2 -2,2"
     transform="rotate(88.9908 289.1165 113.2895)"/>
  <line x1="289.2922" y1="123.2638" x2="289.4770" y2="143.2024" stroke="#8405fd" stroke-width="1.0" />
  <rect
     style="fill:#ffffff;fill-opacity:1;fill-rule:nonzero;stroke:none"
     width="2"
     height="2"
     x="288.8846"
     y="132.2331"
     transform="rotate(89.4690 289.3846 133.2331)" /> 
  <path
     style="fill:none;stroke:#8405fd;stroke-width:1px;stroke-linecap:butt;stroke-linejoin:miter;stroke-opacity:1"
     d="m 289.3846,131.2331 2,2 -2,2 m -2.370121,-4 2,2 -2,2"
     transform="rotate(89.4690 289.3846 133.2331)"/>
  <line x1="289.4414" y1="163.1043" x2="289.3909" y2="183.0031" stroke="#da6400" stroke-width="1.0" />
  <rect
     style="fill:#ffffff;fill-opacity:1;fill-rule:nonzero;stroke:none"
     width="2"
     height="2"
     x="288.9162"
     y="172.0537"
     transform="rotate(90.1455 289.4162 173.0537)" /> 
  <path
     style="fill:none;stroke:#da6400;stroke-width:1px;stroke-linecap:butt;stroke-linejoin:miter;stroke-opacity:1"
     d="m 289.4162,171.0537 2,2 -2,2 m -2.370121,-4 2,2 -2,2"
     transform="rotate(90.1455 289.4162 173.0537)"/>
  <line x1="289.3909" y1="183.0031" x2="289.3640" y2="202.9180" stroke="#a5137f" stroke-width="1.0" />
  <rect
     style="fill:#ffffff;fill-opacity:1;fill-rule:nonzero;stroke:none"
     width="2"
     height="2"
     x="288.8774"
     y="191.9605"
     transform="rotate(90.0776 289.3774 192.9605)" /> 
  <path
     style="fill:none;stroke:#a5137f;stroke-width:1px;stroke-linecap:butt;stroke-linejoin:miter;stroke-opacity:1"
     d="m 289.3774,190.9605 2,2 -2,2 m -2.370121,-4 2,2 -2,2"
     transform="rotate(90.0776 289.3774 192.9605)"/>
  <line x1="289.3640" y1="202.9180" x2="289.3386" y2="222.8532" stroke="#af1b2c" stroke-width="1.0" />
  <rect
     style="fill:#ffffff;fill-opacity:1;fill-rule:nonzero;stroke:none"
     width="2"
     height="2"
     x="288.8513"
     y="211.8856"
     transform="rotate(90.0729 289.3513 212.8856)" /> 
  <path
     style="fill:none;stroke:#af1b2c;stroke-width:1px;stroke-linecap:butt;stroke-linejoin:miter;stroke-opacity:1"
     d="m 289.3513,210.8856 2,2 -2,2 m -2.370121,-4 2,2 -2,2"
     transform="rotate(90.0729 289.3513 212.8856)"/>
  <line x1="289.3386" y1="222.8532" x2="289.2626" y2="242.8068" stroke="#270026" stroke-width="1.0" />
  <rect
     style="fill:#ffffff;fill-opacity:1;fill-rule:nonzero;stroke:none"
     width="2"
     height="2"
     x="288.8006"
     y="231.8300"
     transform="rotate(90.2182 289.3006 232.8300)" /> 
  <path
     style="fill:none;stroke:#270026;stroke-width:1px;stroke-linecap:butt;stroke-linejoin:miter;stroke-opacity:1"
     d="m 289.3006,230.8300 2,2 -2,2 m -2.370121,-4 2,2 -2,2"
     transform="rotate(90.2182 289.3006 232.8300)"/>
  <line x1="289.2386" y1="262.7744" x2="289.2216" y2="282.7514" stroke="#4b0084" stroke-width="1.0" />
  <rect
     style="fill:#ffffff;fill-opacity:1;fill-rule:nonzero;stroke:none"
     width="2"
     height="2"
     x="288.7301"
     y="271.7629"
     transform="rotate(90.0488 289.2301 272.7629)" /> 
  <path
     style="fill:none;stroke:#4b0084;stroke-width:1px;stroke-linecap:butt;stroke-linejoin:miter;stroke-opacity:1"
     d="m 289.2301,270.7629 2,2 -2,2 m -2.370121,-4 2,2 -2,2"
     transform="rotate(90.0488 289.2301 272.7629)"/>
  <line x1="289.2216" y1="282.7514" x2="289.1901" y2="302.7345" stroke="#8b07f3" stroke-width="1.0" />
  <rect
     style="fill:#ffffff;fill-opacity:1;fill-rule:nonzero;stroke:none"
     width="2"
     height="2"
     x="288.7059"
     y="291.7429"
     transform="rotate(90.0902 289.2059 292.7429)" /> 
  <path
     style="fill:none;stroke:#8b07f3;stroke-width:1px;stroke-linecap:butt;stroke-linejoin:miter;stroke-opacity:1"
     d="m 289.2059,290.7429 2,2 -2,2 m -2.370121,-4 2,2 -2,2"
     transform="rotate(90.0902 289.2059 292.7429)"/>
  <line x1="289.1901" y1="302.7345" x2="289.1598" y2="322.7219" stroke="#b82400" stroke-width="1.0" />
  <rect
     style="fill:#ffffff;fill-opacity:1;fill-rule:nonzero;stroke:none"
     width="2"
     height="2"
     x="288.6750"
     y="311.7282"
     transform="rotate(90.0869 289.1750 312.7282)" /> 
  <path
     style="fill:none;stroke:#b82400;stroke-width:1px;stroke-linecap:butt;stroke-linejoin:miter;stroke-opacity:1"
     d="m 289.1750,310.7282 2,2 -2,2 m -2.370121,-4 2,2 -2,2"
     transform="rotate(90.0869 289.1750 312.7282)"/>
  <line x1="289.1252" y1="342.7128" x2="289.0908" y2="362.7066" stroke="#000000" stroke-width="1.0" />
  <rect
     style="fill:#ffffff;fill-opacity:1;fill-rule:nonzero;stroke:none"
     width="2"
     height="2"
     x="288.6080"
     y="351.7097"
     transform="rotate(90.0986 289.1080 352.7097)" /> 
  <path
     style="fill:none;stroke:#000000;stroke-width:1px;stroke-linecap:butt;stroke-linejoin:miter;stroke-opacity:1"
     d="m 289.1080,350.7097 2,2 -2,2 m -2.370121,-4 2,2 -2,2"
     transform="rotate(90.0986 289.1080 352.7097)"/>
  <line x1="289.0908" y1="362.7066" x2="289.0440" y2="382.7031" stroke="#7e04ff" stroke-width="1.0" />
  <rect
     style="fill:#ffffff;fill-opacity:1;fill-rule:nonzero;stroke:none"
     width="2"
     height="2"
     x="288.5674"
     y="371.7048"
     transform="rotate(90.1343 289.0674 372.7048)" /> 
  <path
     style="fill:none;stroke:#7e04ff;stroke-width:1px;stroke-linecap:butt;stroke-linejoin:miter;stroke-opacity:1"
     d="m 289.0674,370.7048 2,2 -2,2 m -2.370121,-4 2,2 -2,2"
     transform="rotate(90.1343 289.0674 372.7048)"/>
  <line x1="289.0440" y1="382.7031" x2="288.9991" y2="402.7019" stroke="#7803fb" stroke-width="1.0" />
  <rect
     style="fill:#ffffff;fill-opacity:1;fill-rule:nonzero;stroke:none"
     width="2"
     height="2"
     x="288.5215"
     y="391.7025"
     transform="rotate(90.1286 289.0215 392.7025)" /> 
  <path
     style="fill:none;stroke:#7803fb;stroke-width:1px;stroke-linecap:butt;stroke-linejoin:miter;stroke-opacity:1"
     d="m 289.0215,390.7025 2,2 -2,2 m -2.370121,-4 2,2 -2,2"
     transform="rotate(90.1286 289.0215 392.7025)"/>
  <line x1="288.9604" y1="422.7060" x2="288.9053" y2="442.7136" stroke="#9e0fa8" stroke-width="1.0" />
  <rect
     style="fill:#ffffff;fill-opacity:1;fill-rule:nonzero;stroke:none"
     width="2"
     height="2"
     x="288.4328"
     y="431.7098"
     transform="rotate(90.1577 288.9328 432.7098)" /> 
  <path
     style="fill:none;stroke:#9e0fa8;stroke-width:1px;stroke-linecap:butt;stroke-linejoin:miter;stroke-opacity:1"
     d="m 288.9328,430.7098 2,2 -2,2 m -2.370121,-4 2,2 -2,2"
     transform="rotate(90.1577 288.9328 432.7098)"/>
  <line x1="288.9053" y1="442.7136" x2="288.8578" y2="462.7194" stroke="#480079" stroke-width="1.0" />
  <rect
     style="fill:#ffffff;fill-opacity:1;fill-rule:nonzero;stroke:none"
     width="2"
     height="2"
     x="288.3815"
     y="451.7165"
     transform="rotate(90.1361 288.8815 452.7165)" /> 
  <path
     style="fill:none;stroke:#480079;stroke-width:1px;stroke-linecap:butt;stroke-linejoin:miter;stroke-opacity:1"
     d="m 288.8815,450.7165 2,2 -2,2 m -2.370121,-4 2,2 -2,2"
     transform="rotate(90.1361 288.8815 452.7165)"/>
<circle cx="256.3576" cy="462.7311" r="5.0" stroke="#595959" stroke-width="1.0" fill="#ffffff"/>
<text x="256.3576" y="465.4311" text-anchor="middle" font-family="Helvetica" font-size="7.5" fill="#000000" >A</text>
<circle cx="256.4052" cy="442.7266" r="5.0" stroke="#595959" stroke-width="1.0" fill="#ffffff"/>
<text x="256.4052" y="445.4266" text-anchor="middle" font-family="Helvetica" font-size="7.5" fill="#000000" >C</text>
<circle cx="256.4447" cy="422.7223" r="5.0" stroke="#595959" stroke-width="1.0" fill="#ffffff"/>
<text x="256.4447" y="425.4223" text-anchor="middle" font-family="Helvetica" font-size="7.5" fill="#000000" >U</text>
<circle cx="256.4990" cy="402.7230" r="5.0" stroke="#595959" stroke-width="1.0" fill="#ffffff"/>
<text x="256.4990" y="405.4230" text-anchor="middle" font-family="Helvetica" font-size="7.5" fill="#000000" >G</text>
<circle cx="256.5439" cy="382.7256" r="5.0" stroke="#595959" stroke-width="1.0" fill="#ffffff"/>
<text x="256.5439" y="385.4256" text-anchor="middle" font-family="Helvetica" font-size="7.5" fill="#000000" >G</text>
<circle cx="256.5818" cy="362.7303" r="5.0" stroke="#595959" stroke-width="1.0" fill="#ffffff"/>
<text x="256.5818" y="365.4303" text-anchor="middle" font-family="Helvetica" font-size="7.5" fill="#000000" >A</text>
<circle cx="256.6252" cy="342.7368" r="5.0" stroke="#595959" stroke-width="1.0" fill="#ffffff"/>
<text x="256.6252" y="345.4368" text-anchor="middle" font-family="Helvetica" font-size="7.5" fill="#000000" >C</text>
<circle cx="256.6599" cy="322.7449" r="5.0" stroke="#595959" stroke-width="1.0" fill="#ffffff"/>
<text x="256.6599" y="325.4449" text-anchor="middle" font-family="Helvetica" font-size="7.5" fill="#000000" >A</text>
<circle cx="256.6900" cy="302.7547" r="5.0" stroke="#595959" stroke-width="1.0" fill="#ffffff"/>
<text x="256.6900" y="305.4547" text-anchor="middle" font-family="Helvetica" font-size="7.5" fill="#000000" >G</text>
<circle cx="256.7111" cy="282.7674" r="5.0" stroke="#595959" stroke-width="1.0" fill="#ffffff"/>
<text x="256.7111" y="285.4674" text-anchor="middle" font-family="Helvetica" font-size="7.5" fill="#000000" >G</text>
<circle cx="256.7383" cy="262.7859" r="5.0" stroke="#595959" stroke-width="1.0" fill="#ffffff"/>
<text x="256.7383" y="265.4859" text-anchor="middle" font-family="Helvetica" font-size="7.5" fill="#000000" >U</text>
<circle cx="256.7628" cy="242.8159" r="5.0" stroke="#595959" stroke-width="1.0" fill="#ffffff"/>
<text x="256.7628" y="245.5159" text-anchor="middle" font-family="Helvetica" font-size="7.5" fill="#000000" >G</text>
<circle cx="256.8383" cy="222.8656" r="5.0" stroke="#595959" stroke-width="1.0" fill="#ffffff"/>
<text x="256.8383" y="225.5656" text-anchor="middle" font-family="Helvetica" font-size="7.5" fill="#000000" >C</text>
<circle cx="256.7915" cy="202.9442" r="5.0" stroke="#595959" stroke-width="1.0" fill="#ffffff"/>
<text x="256.7915" y="205.6442" text-anchor="middle" font-family="Helvetica" font-size="7.5" fill="#000000" >U</text>
<circle cx="256.8907" cy="183.0593" r="5.0" stroke="#595959" stroke-width="1.0" fill="#ffffff"/>
<text x="256.8907" y="185.7593" text-anchor="middle" font-family="Helvetica" font-size="7.5" fill="#000000" >C</text>
<circle cx="256.9488" cy="163.2118" r="5.0" stroke="#595959" stroke-width="1.0" fill="#ffffff"/>
<text x="256.9488" y="165.9118" text-anchor="middle" font-family="Helvetica" font-size="7.5" fill="#000000" >C</text>
<circle cx="256.9957" cy="143.3993" r="5.0" stroke="#595959" stroke-width="1.0" fill="#ffffff"/>
<text x="256.9957" y="146.0993" text-anchor="middle" font-family="Helvetica" font-size="7.5" fill="#000000" >G</text>
<circle cx="256.8168" cy="123.6171" r="5.0" stroke="#595959" stroke-width="1.0" fill="#ffffff"/>
<text x="256.8168" y="126.3171" text-anchor="middle" font-family="Helvetica" font-size="7.5" fill="#000000" >A</text>
<circle cx="256.4642" cy="103.7871" r="5.0" stroke="#595959" stroke-width="1.0" fill="#ffffff"/>
<text x="256.4642" y="106.4871" text-anchor="middle" font-family="Helvetica" font-size="7.5" fill="#000000" >G</text>
<circle cx="264.6130" cy="85.7103" r="5.0" stroke="#595959" stroke-width="1.0" fill="#ffffff"/>
<text x="264.6130" y="88.4103" text-anchor="middle" font-family="Helvetica" font-size="7.5" fill="#000000" >G</text>
<circle cx="284.3213" cy="84.0285" r="5.0" stroke="#595959" stroke-width="1.0" fill="#ffffff"/>
<text x="284.3213" y="86.7285" text-anchor="middle" font-family="Helvetica" font-size="7.5" fill="#000000" >C</text>
<circle cx="288.9408" cy="103.3151" r="5.0" stroke="#595959" stroke-width="1.0" fill="#ffffff"/>
<text x="288.9408" y="106.0151" text-anchor="middle" font-family="Helvetica" font-size="7.5" fill="#000000" >C</text>
<circle cx="289.2922" cy="123.2638" r="5.0" stroke="#595959" stroke-width="1.0" fill="#ffffff"/>
<text x="289.2922" y="125.9638" text-anchor="middle" font-family="Helvetica" font-size="7.5" fill="#000000" >U</text>
<circle cx="289.4770" cy="143.2024" r="5.0" stroke="#595959" stroke-width="1.0" fill="#ffffff"/>
<text x="289.4770" y="145.9024" text-anchor="middle" font-family="Helvetica" font-size="7.5" fill="#000000" >C</text>
<circle cx="289.4414" cy="163.1043" r="5.0" stroke="#595959" stroke-width="1.0" fill="#ffffff"/>
<text x="289.4414" y="165.8043" text-anchor="middle" font-family="Helvetica" font-size="7.5" fill="#000000" >G</text>
<circle cx="289.3909" cy="183.0031" r="5.0" stroke="#595959" stroke-width="1.0" fill="#ffffff"/>
<text x="289.3909" y="185.7031" text-anchor="middle" font-family="Helvetica" font-size="7.5" fill="#000000" >G</text>
<circle cx="289.3640" cy="202.9180" r="5.0" stroke="#595959" stroke-width="1.0" fill="#ffffff"/>
<text x="289.3640" y="205.6180" text-anchor="middle" font-family="Helvetica" font-size="7.5" fill="#000000" >A</text>
<circle cx="289.3386" cy="222.8532" r="5.0" stroke="#595959" stroke-width="1.0" fill="#ffffff"/>
<text x="289.3386" y="225.5532" text-anchor="middle" font-family="Helvetica" font-size="7.5" fill="#000000" >G</text>
<circle cx="289.2626" cy="242.8068" r="5.0" stroke="#595959" stroke-width="1.0" fill="#ffffff"/>
<text x="289.2626" y="245.5068" text-anchor="middle" font-family="Helvetica" font-size="7.5" fill="#000000" >U</text>
<circle cx="289.2386" cy="262.7744" r="5.0" stroke="#595959" stroke-width="1.0" fill="#ffffff"/>
<text x="289.2386" y="265.4744" text-anchor="middle" font-family="Helvetica" font-size="7.5" fill="#000000" >G</text>
<circle cx="289.2216" cy="282.7514" r="5.0" stroke="#595959" stroke-width="1.0" fill="#ffffff"/>
<text x="289.2216" y="285.4514" text-anchor="middle" font-family="Helvetica" font-size="7.5" fill="#000000" >U</text>
<circle cx="289.1901" cy="302.7345" r="5.0" stroke="#595959" stroke-width="1.0" fill="#ffffff"/>
<text x="289.1901" y="305.4345" text-anchor="middle" font-family="Helvetica" font-size="7.5" fill="#000000" >U</text>
<circle cx="289.1598" cy="322.7219" r="5.0" stroke="#595959" stroke-width="1.0" fill="#ffffff"/>
<text x="289.1598" y="325.4219" text-anchor="middle" font-family="Helvetica" font-size="7.5" fill="#000000" >U</text>
<circle cx="289.1252" cy="342.7128" r="5.0" stroke="#595959" stroke-width="1.0" fill="#ffffff"/>
<text x="289.1252" y="345.4128" text-anchor="middle" font-family="Helvetica" font-size="7.5" fill="#000000" >G</text>
<circle cx="289.0908" cy="362.7066" r="5.0" stroke="#595959" stroke-width="1.0" fill="#ffffff"/>
<text x="289.0908" y="365.4066" text-anchor="middle" font-family="Helvetica" font-size="7.5" fill="#000000" >U</text>
<circle cx="289.0440" cy="382.7031" r="5.0" stroke="#595959" stroke-width="1.0" fill="#ffffff"/>
<text x="289.0440" y="385.4031" text-anchor="middle" font-family="Helvetica" font-size="7.5" fill="#000000" >C</text>
<circle cx="288.9991" cy="402.7019" r="5.0" stroke="#595959" stroke-width="1.0" fill="#ffffff"/>
<text x="288.9991" y="405.4019" text-anchor="middle" font-family="Helvetica" font-size="7.5" fill="#000000" >C</text>
<circle cx="288.9604" cy="422.7060" r="5.0" stroke="#595959" stroke-width="1.0" fill="#ffffff"/>
<text x="288.9604" y="425.4060" text-anchor="middle" font-family="Helvetica" font-size="7.5" fill="#000000" >A</text>
<circle cx="288.9053" cy="442.7136" r="5.0" stroke="#595959" stroke-width="1.0" fill="#ffffff"/>
<text x="288.9053" y="445.4136" text-anchor="middle" font-family="Helvetica" font-size="7.5" fill="#000000" >G</text>
<circle cx="288.8578" cy="462.7194" r="5.0" stroke="#595959" stroke-width="1.0" fill="#ffffff"/>
<text x="288.8578" y="465.4194" text-anchor="middle" font-family="Helvetica" font-size="7.5" fill="#000000" >U</text>
</svg>