<?xml version="1.0" encoding="UTF-8"?>
<!DOCTYPE svg PUBLIC "-//W3C//DTD SVG 1.1//EN" 
"http://www.w3.org/Graphics/SVG/1.1/DTD/svg11.dtd">

<svg version="1.1"
   width="546px"
   height="546px"
xmlns="http://www.w3.org/2000/svg">
    <rect width="100%" height="100%" fill="white"/>

  <line x1="256.7500" y1="422.9475" x2="256.7500" y2="402.9477" stroke="#595959"
     style="stroke-width:2;stroke-miterlimit:4;stroke-dasharray:1,1;stroke-dashoffset:0" />
  <line x1="256.7500" y1="342.9479" x2="256.7500" y2="322.9483" stroke="#595959"
     style="stroke-width:2;stroke-miterlimit:4;stroke-dasharray:1,1;stroke-dashoffset:0" />
  <line x1="256.7500" y1="262.9487" x2="256.7500" y2="242.9489" stroke="#595959"
     style="stroke-width:2;stroke-miterlimit:4;stroke-dasharray:1,1;stroke-dashoffset:0" />
  <line x1="256.7500" y1="162.9495" x2="256.7500" y2="142.9496" stroke="#595959"
     style="stroke-width:2;stroke-miterlimit:4;stroke-dasharray:1,1;stroke-dashoffset:0" />
  <line x1="289.2500" y1="142.9496" x2="289.2500" y2="162.9495" stroke="#595959"
     style="stroke-width:2;stroke-miterlimit:4;stroke-dasharray:1,1;stroke-dashoffset:0" />
  <line x1="289.2500" y1="242.9489" x2="289.2500" y2="262.9487" stroke="#595959"
     style="stroke-width:2;stroke-miterlimit:4;stroke-dasharray:1,1;stroke-dashoffset:0" />
  <line x1="289.2500" y1="262.9487" x2="289.2500" y2="282.9486" stroke="#595959"
     style="stroke-width:2;stroke-miterlimit:4;stroke-dasharray:1,1;stroke-dashoffset:0" />
  <line x1="289.2500" y1="322.9483" x2="289.2500" y2="342.9479" stroke="#595959"
     style="stroke-width:2;stroke-miterlimit:4;stroke-dasharray:1,1;stroke-dashoffset:0" />
  <line x1="289.2500" y1="402.9477" x2="289.2500" y2="422.9475" stroke="#595959"
     style="stroke-width:2;stroke-miterlimit:4;stroke-dasharray:1,1;stroke-dashoffset:0" />
  <line x1="256.7500" y1="461.3475" x2="289.2500" y2="461.3475" stroke="#cc4200" stroke-width="1.0" />
  <circle cx="273.0000" cy="461.3475" r="2.25" stroke="#cc4200" stroke-width="1.0" fill="#cc4200"/>
  <line x1="256.7500" y1="424.5475" x2="289.2500" y2="424.5475" stroke="#e78c00" stroke-width="1.0" />
  <circle cx="273.0000" cy="424.5475" r="2.25" stroke="#e78c00" stroke-width="1.0" fill="#e78c00"/>
  <line x1="256.7500" y1="384.5477" x2="289.2500" y2="384.5477" stroke="#e78c00" stroke-width="1.0" />
  <circle cx="273.0000" cy="384.5477" r="2.25" stroke="#e78c00" stroke-width="1.0" fill="#e78c00"/>
  <line x1="256.7500" y1="364.5479" x2="289.2500" y2="364.5479" stroke="#e07500" stroke-width="1.0" />
  <circle cx="273.0000" cy="364.5479" r="2.25" stroke="#e07500" stroke-width="1.0" fill="#e07500"/>
  <line x1="256.7500" y1="324.5483" x2="289.2500" y2="324.5483" stroke="#e78c00" stroke-width="1.0" />
  <circle cx="273.0000" cy="324.5483" r="2.25" stroke="#e78c00" stroke-width="1.0" fill="#e78c00"/>
  <line x1="256.7500" y1="302.9483" x2="289.2500" y2="282.9486" stroke="#e07500" stroke-width="1.0" />
  <circle cx="273.0000" cy="292.9484" r="2.25" stroke="#e07500" stroke-width="1.0" fill="#e07500"/>
  <line x1="256.7500" y1="298.1483" x2="289.2500" y2="298.1483" stroke="#cc4200" stroke-width="1.0" />
  <circle cx="273.0000" cy="298.1483" r="2.25" stroke="#cc4200" stroke-width="1.0" fill="#cc4200"/>
  <line x1="256.7500" y1="302.9483" x2="289.2500" y2="302.9483" stroke="#e78c00" stroke-width="1.0" />
  <circle cx="276.7500" cy="302.9483" r="2.25" stroke="#e78c00" stroke-width="1.0" fill="#e78c00"
    transform="rotate(180.0000 273.0000 302.9483)" />
  <path d="M 267.0000 305.1983 L 267.0000 300.6983 L 271.5000 300.6983 L 271.5000 305.1983 z" style="stroke:#e78c00; stroke-width:1.0" fill="#e78c00" 
    transform="rotate(180.0000 273.0000 302.9483)"/>
  <line x1="256.7500" y1="302.9483" x2="289.2500" y2="302.9483" stroke="#eda600" stroke-width="1.0" />
  <circle cx="273.0000" cy="302.9483" r="2.25" stroke="#eda600" stroke-width="1.0" fill="#eda600"/>
  <line x1="256.7500" y1="302.9483" x2="289.2500" y2="302.9483" stroke="#eda600" stroke-width="1.0" />
  <path d="M 267.2500 305.1983 L 267.2500 300.6983 L 271.7500 300.6983 L 271.7500 305.1983 z" style="stroke:#eda600;stroke-width:1.0" fill="#eda600" 
    transform="rotate(180.0000 273.0000 302.9483)"/>
  <path d="M 274.7500 305.1983 L 274.7500 300.6983 L 278.7500 302.9483 z" style="stroke:#eda600;stroke-width:1.0" fill="#eda600"
    transform="rotate(180.0000 273.0000 302.9483)"/>
  <line x1="255.9114" y1="281.5860" x2="288.4114" y2="261.5860" stroke="#cc4200" stroke-width="1.0" />
  <circle cx="272.1614" cy="271.5860" r="2.25" stroke="#cc4200" stroke-width="1.0" fill="#cc4200"/>
  <line x1="256.7500" y1="281.3486" x2="289.2500" y2="281.3486" stroke="#6d02e7" stroke-width="1.0" />
  <circle cx="273.0000" cy="281.3486" r="2.25" stroke="#6d02e7" stroke-width="1.0" fill="#6d02e7"/>
  <line x1="256.7500" y1="284.5486" x2="289.2500" y2="284.5486" stroke="#e78c00" stroke-width="1.0" />
  <circle cx="273.0000" cy="284.5486" r="2.25" stroke="#e78c00" stroke-width="1.0" fill="#e78c00"/>
  <line x1="256.7500" y1="282.9486" x2="289.2500" y2="302.9483" stroke="#eda600" stroke-width="1.0" />
  <circle cx="273.0000" cy="292.9484" r="2.25" stroke="#eda600" stroke-width="1.0" fill="#eda600"/>
  <line x1="256.7500" y1="261.3487" x2="289.2500" y2="261.3487" stroke="#eda600" stroke-width="1.0" />
  <circle cx="273.0000" cy="261.3487" r="2.25" stroke="#eda600" stroke-width="1.0" fill="#eda600"/>
  <line x1="256.7500" y1="264.5487" x2="289.2500" y2="264.5487" stroke="#e78c00" stroke-width="1.0" />
  <circle cx="273.0000" cy="264.5487" r="2.25" stroke="#e78c00" stroke-width="1.0" fill="#e78c00"/>
  <line x1="256.7500" y1="242.9489" x2="289.2500" y2="242.9489" stroke="#4b0084" stroke-width="1.0" />
  <circle cx="273.0000" cy="242.9489" r="2.25" stroke="#4b0084" stroke-width="1.0" fill="#4b0084"/>
  <line x1="256.7500" y1="224.5491" x2="289.2500" y2="224.5491" stroke="#eda600" stroke-width="1.0" />
  <circle cx="273.0000" cy="224.5491" r="2.25" stroke="#eda600" stroke-width="1.0" fill="#eda600"/>
  <line x1="256.7500" y1="201.3493" x2="289.2500" y2="201.3493" stroke="#e78c00" stroke-width="1.0" />
  <circle cx="273.0000" cy="201.3493" r="2.25" stroke="#e78c00" stroke-width="1.0" fill="#e78c00"/>
  <line x1="256.7500" y1="462.9475" x2="256.7500" y2="442.9475" stroke="#4b0084" stroke-width="1.0" />
  <rect
     style="fill:#ffffff;fill-opacity:1;fill-rule:nonzero;stroke:none"
     width="2"
     height="2"
     x="256.2500"
     y="451.9475"
     transform="rotate(270.0000 256.7500 452.9475)" /> 
  <path
     style="fill:none;stroke:#4b0084;stroke-width:1px;stroke-linecap:butt;stroke-linejoin:miter;stroke-opacity:1"
     d="m 256.7500,450.9475 2,2 -2,2 m -2.370121,-4 2,2 -2,2"
     transform="rotate(270.0000 256.7500 452.9475)"/>
  <line x1="256.7500" y1="464.5475" x2="289.2500" y2="464.5475" stroke="#b41f06" stroke-width="1.0" />
  <line x1="256.7500" y1="442.9475" x2="256.7500" y2="422.9475" stroke="#8f08ea" stroke-width="1.0" />
  <rect
     style="fill:#ffffff;fill-opacity:1;fill-rule:nonzero;stroke:none"
     width="2"
     height="2"
     x="256.2500"
     y="431.9475"
     transform="rotate(-90.0000 256.7500 432.9475)" /> 
  <path
     style="fill:none;stroke:#8f08ea;stroke-width:1px;stroke-linecap:butt;stroke-linejoin:miter;stroke-opacity:1"
     d="m 256.7500,430.9475 2,2 -2,2 m -2.370121,-4 2,2 -2,2"
     transform="rotate(-90.0000 256.7500 432.9475)"/>
  <line x1="256.7500" y1="444.1975" x2="289.2500" y2="444.1975" stroke="#000000" stroke-width="1.0" />
  <line x1="256.7500" y1="441.6975" x2="289.2500" y2="441.6975" stroke="#000000" stroke-width="1.0" />
  <line x1="256.7500" y1="421.3475" x2="289.2500" y2="421.3475" stroke="#6d02e7" stroke-width="1.0" />
  <line x1="256.7500" y1="422.9475" x2="289.2500" y2="442.9475" stroke="#eda600" stroke-width="1.0" />
  <rect
     style="fill:#ffffff;stroke:none"
     width="5.5"
     height="2"
     x="270.2500"
     y="431.9475" 
     transform="rotate(31.6075 273.0000 432.9475)"    /> 
  <path
     style="fill:none;stroke:#eda600;stroke-width:1px;stroke-linecap:butt;stroke-linejoin:miter;stroke-opacity:1"
    d="m 273.7500,430.9475 2,2 -2,2 m -1.5,-4 -2,2 2,2" transform="rotate(31.6075 273.0000 432.9475)"/>
  <line x1="256.7500" y1="402.9477" x2="256.7500" y2="382.9477" stroke="#eda600" stroke-width="1.0" />
  <rect
     style="fill:#ffffff;fill-opacity:1;fill-rule:nonzero;stroke:none"
     width="2"
     height="2"
     x="256.2500"
     y="391.9477"
     transform="rotate(270.0000 256.7500 392.9477)" /> 
  <path
     style="fill:none;stroke:#eda600;stroke-width:1px;stroke-linecap:butt;stroke-linejoin:miter;stroke-opacity:1"
     d="m 256.7500,390.9477 2,2 -2,2 m -2.370121,-4 2,2 -2,2"
     transform="rotate(270.0000 256.7500 392.9477)"/>
  <line x1="256.7500" y1="404.1977" x2="289.2500" y2="404.1977" stroke="#000000" stroke-width="1.0" />
  <line x1="256.7500" y1="401.6977" x2="289.2500" y2="401.6977" stroke="#000000" stroke-width="1.0" />
  <line x1="256.7500" y1="402.9477" x2="289.2500" y2="422.9475" stroke="#000000" stroke-width="1.0" />
  <rect
     style="fill:#ffffff;stroke:none"
     width="5.5"
     height="2"
     x="270.2500"
     y="411.9476" 
     transform="rotate(31.6073 273.0000 412.9476)"    /> 
  <path
     style="fill:none;stroke:#000000;stroke-width:1px;stroke-linecap:butt;stroke-linejoin:miter;stroke-opacity:1"
    d="m 273.7500,410.9476 2,2 -2,2 m -1.5,-4 -2,2 2,2" transform="rotate(31.6073 273.0000 412.9476)"/>
  <line x1="256.7500" y1="382.9477" x2="256.7500" y2="362.9479" stroke="#7a03fd" stroke-width="1.0" />
  <rect
     style="fill:#ffffff;fill-opacity:1;fill-rule:nonzero;stroke:none"
     width="2"
     height="2"
     x="256.2500"
     y="371.9478"
     transform="rotate(270.0000 256.7500 372.9478)" /> 
  <path
     style="fill:none;stroke:#7a03fd;stroke-width:1px;stroke-linecap:butt;stroke-linejoin:miter;stroke-opacity:1"
     d="m 256.7500,370.9478 2,2 -2,2 m -2.370121,-4 2,2 -2,2"
     transform="rotate(270.0000 256.7500 372.9478)"/>
  <line x1="256.7500" y1="382.5977" x2="289.2500" y2="382.5977" stroke="#6d02e7" stroke-width="1.0" />
  <line x1="256.7500" y1="380.0977" x2="289.2500" y2="380.0977" stroke="#6d02e7" stroke-width="1.0" />
  <line x1="256.7500" y1="362.9479" x2="256.7500" y2="342.9479" stroke="#000000" stroke-width="1.0" />
  <rect
     style="fill:#ffffff;fill-opacity:1;fill-rule:nonzero;stroke:none"
     width="2"
     height="2"
     x="256.2500"
     y="351.9479"
     transform="rotate(-90.0000 256.7500 352.9479)" /> 
  <path
     style="fill:none;stroke:#000000;stroke-width:1px;stroke-linecap:butt;stroke-linejoin:miter;stroke-opacity:1"
     d="m 256.7500,350.9479 2,2 -2,2 m -2.370121,-4 2,2 -2,2"
     transform="rotate(-90.0000 256.7500 352.9479)"/>
  <line x1="256.7500" y1="361.3479" x2="289.2500" y2="361.3479" stroke="#8405fd" stroke-width="1.0" />
  <line x1="256.7500" y1="344.1979" x2="289.2500" y2="344.1979" stroke="#33003e" stroke-width="1.0" />
  <line x1="256.7500" y1="341.6979" x2="289.2500" y2="341.6979" stroke="#33003e" stroke-width="1.0" />
  <line x1="256.7500" y1="322.9483" x2="256.7500" y2="302.9483" stroke="#8405fd" stroke-width="1.0" />
  <rect
     style="fill:#ffffff;fill-opacity:1;fill-rule:nonzero;stroke:none"
     width="2"
     height="2"
     x="256.2500"
     y="311.9483"
     transform="rotate(270.0000 256.7500 312.9483)" /> 
  <path
     style="fill:none;stroke:#8405fd;stroke-width:1px;stroke-linecap:butt;stroke-linejoin:miter;stroke-opacity:1"
     d="m 256.7500,310.9483 2,2 -2,2 m -2.370121,-4 2,2 -2,2"
     transform="rotate(270.0000 256.7500 312.9483)"/>
  <line x1="256.7500" y1="321.3483" x2="289.2500" y2="321.3483" stroke="#6d02e7" stroke-width="1.0" />
  <line x1="256.7500" y1="322.9483" x2="289.2500" y2="342.9479" stroke="#000000" stroke-width="1.0" />
  <rect
     style="fill:#ffffff;stroke:none"
     width="5.5"
     height="2"
     x="270.2500"
     y="331.9481" 
     transform="rotate(31.6071 273.0000 332.9481)"    /> 
  <path
     style="fill:none;stroke:#000000;stroke-width:1px;stroke-linecap:butt;stroke-linejoin:miter;stroke-opacity:1"
    d="m 273.7500,330.9481 2,2 -2,2 m -1.5,-4 -2,2 2,2" transform="rotate(31.6071 273.0000 332.9481)"/>
  <line x1="256.7500" y1="302.9483" x2="256.7500" y2="282.9486" stroke="#ac1845" stroke-width="1.0" />
  <rect
     style="fill:#ffffff;fill-opacity:1;fill-rule:nonzero;stroke:none"
     width="2"
     height="2"
     x="256.2500"
     y="291.9484"
     transform="rotate(-90.0000 256.7500 292.9484)" /> 
  <path
     style="fill:none;stroke:#ac1845;stroke-width:1px;stroke-linecap:butt;stroke-linejoin:miter;stroke-opacity:1"
     d="m 256.7500,290.9484 2,2 -2,2 m -2.370121,-4 2,2 -2,2"
     transform="rotate(-90.0000 256.7500 292.9484)"/>
  <line x1="256.7500" y1="282.9486" x2="256.7500" y2="262.9487" stroke="#e07500" stroke-width="1.0" />
  <rect
     style="fill:#ffffff;fill-opacity:1;fill-rule:nonzero;stroke:none"
     width="2"
     height="2"
     x="256.2500"
     y="271.9486"
     transform="rotate(270.0000 256.7500 272.9486)" /> 
  <path
     style="fill:none;stroke:#e07500;stroke-width:1px;stroke-linecap:butt;stroke-linejoin:miter;stroke-opacity:1"
     d="m 256.7500,270.9486 2,2 -2,2 m -2.370121,-4 2,2 -2,2"
     transform="rotate(270.0000 256.7500 272.9486)"/>
  <line x1="257.5886" y1="284.3113" x2="290.0886" y2="264.3113" stroke="#e78c00" stroke-width="1.0" />
  <circle cx="273.8386" cy="274.3113" r="2.25" stroke="#e78c00" stroke-width="1.0" fill="#ffffff"/>
  <line x1="256.7500" y1="242.9489" x2="256.7500" y2="222.9491" stroke="#000000" stroke-width="1.0" />
  <rect
     style="fill:#ffffff;fill-opacity:1;fill-rule:nonzero;stroke:none"
     width="2"
     height="2"
     x="256.2500"
     y="231.9490"
     transform="rotate(270.0000 256.7500 232.9490)" /> 
  <path
     style="fill:none;stroke:#000000;stroke-width:1px;stroke-linecap:butt;stroke-linejoin:miter;stroke-opacity:1"
     d="m 256.7500,230.9490 2,2 -2,2 m -2.370121,-4 2,2 -2,2"
     transform="rotate(270.0000 256.7500 232.9490)"/>
  <line x1="256.7500" y1="242.9489" x2="289.2500" y2="262.9487" stroke="#5d01be" stroke-width="1.0" />
  <rect
     style="fill:#ffffff;stroke:none"
     width="5.5"
     height="2"
     x="270.2500"
     y="251.9488" 
     transform="rotate(31.6071 273.0000 252.9488)"    /> 
  <path
     style="fill:none;stroke:#5d01be;stroke-width:1px;stroke-linecap:butt;stroke-linejoin:miter;stroke-opacity:1"
    d="m 273.7500,250.9488 2,2 -2,2 m -1.5,-4 -2,2 2,2" transform="rotate(31.6071 273.0000 252.9488)"/>
  <line x1="256.7500" y1="222.9491" x2="256.7500" y2="202.9493" stroke="#990cc2" stroke-width="1.0" />
  <rect
     style="fill:#ffffff;fill-opacity:1;fill-rule:nonzero;stroke:none"
     width="2"
     height="2"
     x="256.2500"
     y="211.9492"
     transform="rotate(270.0000 256.7500 212.9492)" /> 
  <path
     style="fill:none;stroke:#990cc2;stroke-width:1px;stroke-linecap:butt;stroke-linejoin:miter;stroke-opacity:1"
     d="m 256.7500,210.9492 2,2 -2,2 m -2.370121,-4 2,2 -2,2"
     transform="rotate(270.0000 256.7500 212.9492)"/>
  <line x1="256.7500" y1="222.5991" x2="289.2500" y2="222.5991" stroke="#5d01be" stroke-width="1.0" />
  <line x1="256.7500" y1="220.0991" x2="289.2500" y2="220.0991" stroke="#5d01be" stroke-width="1.0" />
  <line x1="256.7500" y1="202.9493" x2="256.7500" y2="182.9494" stroke="#8405fd" stroke-width="1.0" />
  <rect
     style="fill:#ffffff;fill-opacity:1;fill-rule:nonzero;stroke:none"
     width="2"
     height="2"
     x="256.2500"
     y="191.9493"
     transform="rotate(-90.0000 256.7500 192.9493)" /> 
  <path
     style="fill:none;stroke:#8405fd;stroke-width:1px;stroke-linecap:butt;stroke-linejoin:miter;stroke-opacity:1"
     d="m 256.7500,190.9493 2,2 -2,2 m -2.370121,-4 2,2 -2,2"
     transform="rotate(-90.0000 256.7500 192.9493)"/>
  <line x1="256.7500" y1="204.5493" x2="289.2500" y2="204.5493" stroke="#6d02e7" stroke-width="1.0" />
  <line x1="256.7500" y1="202.9493" x2="289.2500" y2="222.9491" stroke="#e78c00" stroke-width="1.0" />
  <rect
     style="fill:#ffffff;stroke:none"
     width="5.5"
     height="2"
     x="270.2500"
     y="211.9492" 
     transform="rotate(31.6072 273.0000 212.9492)"    /> 
  <path
     style="fill:none;stroke:#e78c00;stroke-width:1px;stroke-linecap:butt;stroke-linejoin:miter;stroke-opacity:1"
    d="m 273.7500,210.9492 2,2 -2,2 m -1.5,-4 -2,2 2,2" transform="rotate(31.6072 273.0000 212.9492)"/>
  <line x1="256.7500" y1="182.9494" x2="256.7500" y2="162.9495" stroke="#33003e" stroke-width="1.0" />
  <rect
     style="fill:#ffffff;fill-opacity:1;fill-rule:nonzero;stroke:none"
     width="2"
     height="2"
     x="256.2500"
     y="171.9495"
     transform="rotate(-89.9999 256.7500 172.9495)" /> 
  <path
     style="fill:none;stroke:#33003e;stroke-width:1px;stroke-linecap:butt;stroke-linejoin:miter;stroke-opacity:1"
     d="m 256.7500,170.9495 2,2 -2,2 m -2.370121,-4 2,2 -2,2"
     transform="rotate(-89.9999 256.7500 172.9495)"/>
  <line x1="256.7500" y1="184.1994" x2="289.2500" y2="184.1994" stroke="#4b0084" stroke-width="1.0" />
  <line x1="256.7500" y1="181.6994" x2="289.2500" y2="181.6994" stroke="#4b0084" stroke-width="1.0" />
  <line x1="256.7500" y1="164.1995" x2="289.2500" y2="164.1995" stroke="#4b0084" stroke-width="1.0" />
  <line x1="256.7500" y1="161.6995" x2="289.2500" y2="161.6995" stroke="#4b0084" stroke-width="1.0" />
  <line x1="256.7500" y1="162.9495" x2="289.2500" y2="182.9494" stroke="#eda600" stroke-width="1.0" />
  <rect
     style="fill:#ffffff;stroke:none"
     width="5.5"
     height="2"
     x="270.2500"
     y="171.9495" 
     transform="rotate(31.6074 273.0000 172.9495)"    /> 
  <path
     style="fill:none;stroke:#eda600;stroke-width:1px;stroke-linecap:butt;stroke-linejoin:miter;stroke-opacity:1"
    d="m 273.7500,170.9495 2,2 -2,2 m -1.5,-4 -2,2 2,2" transform="rotate(31.6074 273.0000 172.9495)"/>
  <line x1="256.7500" y1="142.9496" x2="256.7395" y2="122.9499" stroke="#7a03fd" stroke-width="1.0" />
  <rect
     style="fill:#ffffff;fill-opacity:1;fill-rule:nonzero;stroke:none"
     width="2"
     height="2"
     x="256.2447"
     y="131.9497"
     transform="rotate(269.9700 256.7447 132.9497)" /> 
  <path
     style="fill:none;stroke:#7a03fd;stroke-width:1px;stroke-linecap:butt;stroke-linejoin:miter;stroke-opacity:1"
     d="m 256.7447,130.9497 2,2 -2,2 m -2.370121,-4 2,2 -2,2"
     transform="rotate(269.9700 256.7447 132.9497)"/>
  <line x1="256.7500" y1="144.1996" x2="289.2500" y2="144.1996" stroke="#33003e" stroke-width="1.0" />
  <line x1="256.7500" y1="141.6996" x2="289.2500" y2="141.6996" stroke="#33003e" stroke-width="1.0" />
  <line x1="256.7500" y1="142.9496" x2="289.2500" y2="162.9495" stroke="#000000" stroke-width="1.0" />
  <rect
     style="fill:#ffffff;stroke:none"
     width="5.5"
     height="2"
     x="270.2500"
     y="151.9495" 
     transform="rotate(31.6074 273.0000 152.9495)"    /> 
  <path
     style="fill:none;stroke:#000000;stroke-width:1px;stroke-linecap:butt;stroke-linejoin:miter;stroke-opacity:1"
    d="m 273.7500,150.9495 2,2 -2,2 m -1.5,-4 -2,2 2,2" transform="rotate(31.6074 273.0000 152.9495)"/>
  <line x1="256.7395" y1="122.9499" x2="256.7294" y2="102.9496" stroke="#990cc2" stroke-width="1.0" />
  <rect
     style="fill:#ffffff;fill-opacity:1;fill-rule:nonzero;stroke:none"
     width="2"
     height="2"
     x="256.2345"
     y="111.9498"
     transform="rotate(269.9711 256.7345 112.9498)" /> 
  <path
     style="fill:none;stroke:#990cc2;stroke-width:1px;stroke-linecap:butt;stroke-linejoin:miter;stroke-opacity:1"
     d="m 256.7345,110.9498 2,2 -2,2 m -2.370121,-4 2,2 -2,2"
     transform="rotate(269.9711 256.7345 112.9498)"/>
  <line x1="256.7395" y1="122.9499" x2="289.2605" y2="122.9499" stroke="#33003e" stroke-width="1.0" />
  <line x1="256.7294" y1="102.9496" x2="263.0188" y2="83.9771" stroke="#bc2900" stroke-width="1.0" />
  <rect
     style="fill:#ffffff;fill-opacity:1;fill-rule:nonzero;stroke:none"
     width="2"
     height="2"
     x="259.3741"
     y="92.4634"
     transform="rotate(-71.6598 259.8741 93.4634)" /> 
  <path
     style="fill:none;stroke:#bc2900;stroke-width:1px;stroke-linecap:butt;stroke-linejoin:miter;stroke-opacity:1"
     d="m 259.8741,91.4634 2,2 -2,2 m -2.370121,-4 2,2 -2,2"
     transform="rotate(-71.6598 259.8741 93.4634)"/>
  <line x1="256.7294" y1="104.1996" x2="289.2706" y2="104.1996" stroke="#000000" stroke-width="1.0" />
  <line x1="256.7294" y1="101.6996" x2="289.2706" y2="101.6996" stroke="#000000" stroke-width="1.0" />
  <line x1="256.7294" y1="102.9496" x2="289.2605" y2="122.9499" stroke="#eda600" stroke-width="1.0" />
  <rect
     style="fill:#ffffff;stroke:none"
     width="5.5"
     height="2"
     x="270.2450"
     y="111.9498" 
     transform="rotate(31.5833 272.9950 112.9498)"    /> 
  <path
     style="fill:none;stroke:#eda600;stroke-width:1px;stroke-linecap:butt;stroke-linejoin:miter;stroke-opacity:1"
    d="m 273.7450,110.9498 2,2 -2,2 m -1.5,-4 -2,2 2,2" transform="rotate(31.5833 272.9950 112.9498)"/>
  <line x1="263.0188" y1="85.2271" x2="282.9812" y2="85.2271" stroke="#33003e" stroke-width="1.0" />
  <line x1="263.0188" y1="82.7271" x2="282.9812" y2="82.7271" stroke="#33003e" stroke-width="1.0" />
  <line x1="263.0188" y1="83.9771" x2="289.2706" y2="102.9496" stroke="#e07500" stroke-width="1.0" />
  <rect
     style="fill:#ffffff;stroke:none"
     width="5.5"
     height="2"
     x="273.3947"
     y="92.4634" 
     transform="rotate(35.8562 276.1447 93.4634)"    /> 
  <path
     style="fill:none;stroke:#e07500;stroke-width:1px;stroke-linecap:butt;stroke-linejoin:miter;stroke-opacity:1"
    d="m 276.8947,91.4634 2,2 -2,2 m -1.5,-4 -2,2 2,2" transform="rotate(35.8562 276.1447 93.4634)"/>
  <line x1="282.9812" y1="83.9771" x2="289.2706" y2="102.9496" stroke="#8405fd" stroke-width="1.0" />
  <rect
     style="fill:#ffffff;fill-opacity:1;fill-rule:nonzero;stroke:none"
     width="2"
     height="2"
     x="285.6259"
     y="92.4634"
     transform="rotate(71.6598 286.1259 93.4634)" /> 
  <path
     style="fill:none;stroke:#8405fd;stroke-width:1px;stroke-linecap:butt;stroke-linejoin:miter;stroke-opacity:1"
     d="m 286.1259,91.4634 2,2 -2,2 m -2.370121,-4 2,2 -2,2"
     transform="rotate(71.6598 286.1259 93.4634)"/>
  <line x1="289.2706" y1="102.9496" x2="289.2605" y2="122.9499" stroke="#7a03fd" stroke-width="1.0" />
  <rect
     style="fill:#ffffff;fill-opacity:1;fill-rule:nonzero;stroke:none"
     width="2"
     height="2"
     x="288.7655"
     y="111.9498"
     transform="rotate(90.0289 289.2655 112.9498)" /> 
  <path
     style="fill:none;stroke:#7a03fd;stroke-width:1px;stroke-linecap:butt;stroke-linejoin:miter;stroke-opacity:1"
     d="m 289.2655,110.9498 2,2 -2,2 m -2.370121,-4 2,2 -2,2"
     transform="rotate(90.0289 289.2655 112.9498)"/>
  <line x1="289.2605" y1="122.9499" x2="289.2500" y2="142.9496" stroke="#7a03fd" stroke-width="1.0" />
  <rect
     style="fill:#ffffff;fill-opacity:1;fill-rule:nonzero;stroke:none"
     width="2"
     height="2"
     x="288.7553"
     y="131.9497"
     transform="rotate(90.0300 289.2553 132.9497)" /> 
  <path
     style="fill:none;stroke:#7a03fd;stroke-width:1px;stroke-linecap:butt;stroke-linejoin:miter;stroke-opacity:1"
     d="m 289.2553,130.9497 2,2 -2,2 m -2.370121,-4 2,2 -2,2"
     transform="rotate(90.0300 289.2553 132.9497)"/>
  <line x1="289.2500" y1="162.9495" x2="289.2500" y2="182.9494" stroke="#e07500" stroke-width="1.0" />
  <rect
     style="fill:#ffffff;fill-opacity:1;fill-rule:nonzero;stroke:none"
     width="2"
     height="2"
     x="288.7500"
     y="171.9495"
     transform="rotate(89.9999 289.2500 172.9495)" /> 
  <path
     style="fill:none;stroke:#e07500;stroke-width:1px;stroke-linecap:butt;stroke-linejoin:miter;stroke-opacity:1"
     d="m 289.2500,170.9495 2,2 -2,2 m -2.370121,-4 2,2 -2,2"
     transform="rotate(89.9999 289.2500 172.9495)"/>
  <line x1="289.2500" y1="182.9494" x2="289.2500" y2="202.9493" stroke="#8405fd" stroke-width="1.0" />
  <rect
     style="fill:#ffffff;fill-opacity:1;fill-rule:nonzero;stroke:none"
     width="2"
     height="2"
     x="288.7500"
     y="191.9493"
     transform="rotate(90.0000 289.2500 192.9493)" /> 
  <path
     style="fill:none;stroke:#8405fd;stroke-width:1px;stroke-linecap:butt;stroke-linejoin:miter;stroke-opacity:1"
     d="m 289.2500,190.9493 2,2 -2,2 m -2.370121,-4 2,2 -2,2"
     transform="rotate(90.0000 289.2500 192.9493)"/>
  <line x1="289.2500" y1="202.9493" x2="289.2500" y2="222.9491" stroke="#a31289" stroke-width="1.0" />
  <rect
     style="fill:#ffffff;fill-opacity:1;fill-rule:nonzero;stroke:none"
     width="2"
     height="2"
     x="288.7500"
     y="211.9492"
     transform="rotate(90.0000 289.2500 212.9492)" /> 
  <path
     style="fill:none;stroke:#a31289;stroke-width:1px;stroke-linecap:butt;stroke-linejoin:miter;stroke-opacity:1"
     d="m 289.2500,210.9492 2,2 -2,2 m -2.370121,-4 2,2 -2,2"
     transform="rotate(90.0000 289.2500 212.9492)"/>
  <line x1="289.2500" y1="222.9491" x2="289.2500" y2="242.9489" stroke="#000000" stroke-width="1.0" />
  <rect
     style="fill:#ffffff;fill-opacity:1;fill-rule:nonzero;stroke:none"
     width="2"
     height="2"
     x="288.7500"
     y="231.9490"
     transform="rotate(90.0000 289.2500 232.9490)" /> 
  <path
     style="fill:none;stroke:#000000;stroke-width:1px;stroke-linecap:butt;stroke-linejoin:miter;stroke-opacity:1"
     d="m 289.2500,230.9490 2,2 -2,2 m -2.370121,-4 2,2 -2,2"
     transform="rotate(90.0000 289.2500 232.9490)"/>
  <line x1="289.2500" y1="282.9486" x2="289.2500" y2="302.9483" stroke="#da6400" stroke-width="1.0" />
  <rect
     style="fill:#ffffff;fill-opacity:1;fill-rule:nonzero;stroke:none"
     width="2"
     height="2"
     x="288.7500"
     y="291.9484"
     transform="rotate(90.0000 289.2500 292.9484)" /> 
  <path
     style="fill:none;stroke:#da6400;stroke-width:1px;stroke-linecap:butt;stroke-linejoin:miter;stroke-opacity:1"
     d="m 289.2500,290.9484 2,2 -2,2 m -2.370121,-4 2,2 -2,2"
     transform="rotate(90.0000 289.2500 292.9484)"/>
  <line x1="289.2500" y1="302.9483" x2="289.2500" y2="322.9483" stroke="#7a03fd" stroke-width="1.0" />
  <rect
     style="fill:#ffffff;fill-opacity:1;fill-rule:nonzero;stroke:none"
     width="2"
     height="2"
     x="288.7500"
     y="311.9483"
     transform="rotate(90.0000 289.2500 312.9483)" /> 
  <path
     style="fill:none;stroke:#7a03fd;stroke-width:1px;stroke-linecap:butt;stroke-linejoin:miter;stroke-opacity:1"
     d="m 289.2500,310.9483 2,2 -2,2 m -2.370121,-4 2,2 -2,2"
     transform="rotate(90.0000 289.2500 312.9483)"/>
  <line x1="289.2500" y1="342.9479" x2="289.2500" y2="362.9479" stroke="#000000" stroke-width="1.0" />
  <rect
     style="fill:#ffffff;fill-opacity:1;fill-rule:nonzero;stroke:none"
     width="2"
     height="2"
     x="288.7500"
     y="351.9479"
     transform="rotate(90.0000 289.2500 352.9479)" /> 
  <path
     style="fill:none;stroke:#000000;stroke-width:1px;stroke-linecap:butt;stroke-linejoin:miter;stroke-opacity:1"
     d="m 289.2500,350.9479 2,2 -2,2 m -2.370121,-4 2,2 -2,2"
     transform="rotate(90.0000 289.2500 352.9479)"/>
  <line x1="289.2500" y1="362.9479" x2="289.2500" y2="382.9477" stroke="#8405fd" stroke-width="1.0" />
  <rect
     style="fill:#ffffff;fill-opacity:1;fill-rule:nonzero;stroke:none"
     width="2"
     height="2"
     x="288.7500"
     y="371.9478"
     transform="rotate(90.0000 289.2500 372.9478)" /> 
  <path
     style="fill:none;stroke:#8405fd;stroke-width:1px;stroke-linecap:butt;stroke-linejoin:miter;stroke-opacity:1"
     d="m 289.2500,370.9478 2,2 -2,2 m -2.370121,-4 2,2 -2,2"
     transform="rotate(90.0000 289.2500 372.9478)"/>
  <line x1="289.2500" y1="382.9477" x2="289.2500" y2="402.9477" stroke="#8405fd" stroke-width="1.0" />
  <rect
     style="fill:#ffffff;fill-opacity:1;fill-rule:nonzero;stroke:none"
     width="2"
     height="2"
     x="288.7500"
     y="391.9477"
     transform="rotate(90.0000 289.2500 392.9477)" /> 
  <path
     style="fill:none;stroke:#8405fd;stroke-width:1px;stroke-linecap:butt;stroke-linejoin:miter;stroke-opacity:1"
     d="m 289.2500,390.9477 2,2 -2,2 m -2.370121,-4 2,2 -2,2"
     transform="rotate(90.0000 289.2500 392.9477)"/>
  <line x1="289.2500" y1="422.9475" x2="289.2500" y2="442.9475" stroke="#8405fd" stroke-width="1.0" />
  <rect
     style="fill:#ffffff;fill-opacity:1;fill-rule:nonzero;stroke:none"
     width="2"
     height="2"
     x="288.7500"
     y="431.9475"
     transform="rotate(90.0000 289.2500 432.9475)" /> 
  <path
     style="fill:none;stroke:#8405fd;stroke-width:1px;stroke-linecap:butt;stroke-linejoin:miter;stroke-opacity:1"
     d="m 289.2500,430.9475 2,2 -2,2 m -2.370121,-4 2,2 -2,2"
     transform="rotate(90.0000 289.2500 432.9475)"/>
  <line x1="289.2500" y1="442.9475" x2="289.2500" y2="462.9475" stroke="#4b0084" stroke-width="1.0" />
  <rect
     style="fill:#ffffff;fill-opacity:1;fill-rule:nonzero;stroke:none"
     width="2"
     height="2"
     x="288.7500"
     y="451.9475"
     transform="rotate(90.0000 289.2500 452.9475)" /> 
  <path
     style="fill:none;stroke:#4b0084;stroke-width:1px;stroke-linecap:butt;stroke-linejoin:miter;stroke-opacity:1"
     d="m 289.2500,450.9475 2,2 -2,2 m -2.370121,-4 2,2 -2,2"
     transform="rotate(90.0000 289.2500 452.9475)"/>
<circle cx="256.7500" cy="462.9475" r="5.0" stroke="#595959" stroke-width="1.0" fill="#ffffff"/>
<text x="256.7500" y="465.6475" text-anchor="middle" font-family="Helvetica" font-size="7.5" fill="#000000" >A</text>
<circle cx="256.7500" cy="442.9475" r="5.0" stroke="#595959" stroke-width="1.0" fill="#ffffff"/>
<text x="256.7500" y="445.6475" text-anchor="middle" font-family="Helvetica" font-size="7.5" fill="#000000" >C</text>
<circle cx="256.7500" cy="422.9475" r="5.0" stroke="#595959" stroke-width="1.0" fill="#ffffff"/>
<text x="256.7500" y="425.6475" text-anchor="middle" font-family="Helvetica" font-size="7.5" fill="#000000" >U</text>
<circle cx="256.7500" cy="402.9477" r="5.0" stroke="#595959" stroke-width="1.0" fill="#ffffff"/>
<text x="256.7500" y="405.6477" text-anchor="middle" font-family="Helvetica" font-size="7.5" fill="#000000" >G</text>
<circle cx="256.7500" cy="382.9477" r="5.0" stroke="#595959" stroke-width="1.0" fill="#ffffff"/>
<text x="256.7500" y="385.6477" text-anchor="middle" font-family="Helvetica" font-size="7.5" fill="#000000" >G</text>
<circle cx="256.7500" cy="362.9479" r="5.0" stroke="#595959" stroke-width="1.0" fill="#ffffff"/>
<text x="256.7500" y="365.6479" text-anchor="middle" font-family="Helvetica" font-size="7.5" fill="#000000" >A</text>
<circle cx="256.7500" cy="342.9479" r="5.0" stroke="#595959" stroke-width="1.0" fill="#ffffff"/>
<text x="256.7500" y="345.6479" text-anchor="middle" font-family="Helvetica" font-size="7.5" fill="#000000" >C</text>
<circle cx="256.7500" cy="322.9483" r="5.0" stroke="#595959" stroke-width="1.0" fill="#ffffff"/>
<text x="256.7500" y="325.6483" text-anchor="middle" font-family="Helvetica" font-size="7.5" fill="#000000" >A</text>
<circle cx="256.7500" cy="302.9483" r="5.0" stroke="#595959" stroke-width="1.0" fill="#ffffff"/>
<text x="256.7500" y="305.6483" text-anchor="middle" font-family="Helvetica" font-size="7.5" fill="#000000" >I</text>
<circle cx="256.7500" cy="282.9486" r="5.0" stroke="#595959" stroke-width="1.0" fill="aquamarine"/>
<text x="256.7500" y="285.6486" text-anchor="middle" font-family="Helvetica" font-size="7.5" fill="#000000" >I</text>
<circle cx="256.7500" cy="262.9487" r="5.0" stroke="#595959" stroke-width="1.0" fill="darkred"/>
<text x="256.7500" y="265.6487" text-anchor="middle" font-family="Helvetica" font-size="7.5" fill="#000000" >U</text>
<circle cx="256.7500" cy="242.9489" r="5.0" stroke="#595959" stroke-width="1.0" fill="darkred"/>
<text x="256.7500" y="245.6489" text-anchor="middle" font-family="Helvetica" font-size="7.5" fill="#000000" >I</text>
<circle cx="256.7500" cy="222.9491" r="5.0" stroke="#595959" stroke-width="1.0" fill="#ffffff"/>
<text x="256.7500" y="225.6491" text-anchor="middle" font-family="Helvetica" font-size="7.5" fill="#000000" >C</text>
<circle cx="256.7500" cy="202.9493" r="5.0" stroke="#595959" stroke-width="1.0" fill="#ffffff"/>
<text x="256.7500" y="205.6493" text-anchor="middle" font-family="Helvetica" font-size="7.5" fill="#000000" >U</text>
<circle cx="256.7500" cy="182.9494" r="5.0" stroke="#595959" stroke-width="1.0" fill="#ffffff"/>
<text x="256.7500" y="185.6494" text-anchor="middle" font-family="Helvetica" font-size="7.5" fill="#000000" >C</text>
<circle cx="256.7500" cy="162.9495" r="5.0" stroke="#595959" stroke-width="1.0" fill="#ffffff"/>
<text x="256.7500" y="165.6495" text-anchor="middle" font-family="Helvetica" font-size="7.5" fill="#000000" >C</text>
<circle cx="256.7500" cy="142.9496" r="5.0" stroke="#595959" stroke-width="1.0" fill="#ffffff"/>
<text x="256.7500" y="145.6496" text-anchor="middle" font-family="Helvetica" font-size="7.5" fill="#000000" >G</text>
<circle cx="256.7395" cy="122.9499" r="5.0" stroke="#595959" stroke-width="1.0" fill="#ffffff"/>
<text x="256.7395" y="125.6499" text-anchor="middle" font-family="Helvetica" font-size="7.5" fill="#000000" >A</text>
<circle cx="256.7294" cy="102.9496" r="5.0" stroke="#595959" stroke-width="1.0" fill="#ffffff"/>
<text x="256.7294" y="105.6496" text-anchor="middle" font-family="Helvetica" font-size="7.5" fill="#000000" >G</text>
<circle cx="263.0188" cy="83.9771" r="5.0" stroke="#595959" stroke-width="1.0" fill="#ffffff"/>
<text x="263.0188" y="86.6771" text-anchor="middle" font-family="Helvetica" font-size="7.5" fill="#000000" >G</text>
<circle cx="282.9812" cy="83.9771" r="5.0" stroke="#595959" stroke-width="1.0" fill="#ffffff"/>
<text x="282.9812" y="86.6771" text-anchor="middle" font-family="Helvetica" font-size="7.5" fill="#000000" >C</text>
<circle cx="289.2706" cy="102.9496" r="5.0" stroke="#595959" stroke-width="1.0" fill="#ffffff"/>
<text x="289.2706" y="105.6496" text-anchor="middle" font-family="Helvetica" font-size="7.5" fill="#000000" >C</text>
<circle cx="289.2605" cy="122.9499" r="5.0" stroke="#595959" stroke-width="1.0" fill="#ffffff"/>
<text x="289.2605" y="125.6499" text-anchor="middle" font-family="Helvetica" font-size="7.5" fill="#000000" >U</text>
<circle cx="289.2500" cy="142.9496" r="5.0" stroke="#595959" stroke-width="1.0" fill="#ffffff"/>
<text x="289.2500" y="145.6496" text-anchor="middle" font-family="Helvetica" font-size="7.5" fill="#000000" >C</text>
<circle cx="289.2500" cy="162.9495" r="5.0" stroke="#595959" stroke-width="1.0" fill="#ffffff"/>
<text x="289.2500" y="165.6495" text-anchor="middle" font-family="Helvetica" font-size="7.5" fill="#000000" >G</text>
<circle cx="289.2500" cy="182.9494" r="5.0" stroke="#595959" stroke-width="1.0" fill="#ffffff"/>
<text x="289.2500" y="185.6494" text-anchor="middle" font-family="Helvetica" font-size="7.5" fill="#000000" >G</text>
<circle cx="289.2500" cy="202.9493" r="5.0" stroke="#595959" stroke-width="1.0" fill="#ffffff"/>
<text x="289.2500" y="205.6493" text-anchor="middle" font-family="Helvetica" font-size="7.5" fill="#000000" >A</text>
<circle cx="289.2500" cy="222.9491" r="5.0" stroke="#595959" stroke-width="1.0" fill="#ffffff"/>
<text x="289.2500" y="225.6491" text-anchor="middle" font-family="Helvetica" font-size="7.5" fill="#000000" >G</text>
<circle cx="289.2500" cy="242.9489" r="5.0" stroke="#595959" stroke-width="1.0" fill="greenyellow"/>
<text x="289.2500" y="245.6489" text-anchor="middle" font-family="Helvetica" font-size="7.5" fill="#000000" >U</text>
<circle cx="289.2500" cy="262.9487" r="5.0" stroke="#595959" stroke-width="1.0" fill="darkred"/>
<text x="289.2500" y="265.6487" text-anchor="middle" font-family="Helvetica" font-size="7.5" fill="#000000" >I</text>
<circle cx="289.2500" cy="282.9486" r="5.0" stroke="#595959" stroke-width="1.0" fill="azure"/>
<text x="289.2500" y="285.6486" text-anchor="middle" font-family="Helvetica" font-size="7.5" fill="#000000" >U</text>
<circle cx="289.2500" cy="302.9483" r="5.0" stroke="#595959" stroke-width="1.0" fill="#ffffff"/>
<text x="289.2500" y="305.6483" text-anchor="middle" font-family="Helvetica" font-size="7.5" fill="#000000" >U</text>
<circle cx="289.2500" cy="322.9483" r="5.0" stroke="#595959" stroke-width="1.0" fill="#ffffff"/>
<text x="289.2500" y="325.6483" text-anchor="middle" font-family="Helvetica" font-size="7.5" fill="#000000" >U</text>
<circle cx="289.2500" cy="342.9479" r="5.0" stroke="#595959" stroke-width="1.0" fill="#ffffff"/>
<text x="289.2500" y="345.6479" text-anchor="middle" font-family="Helvetica" font-size="7.5" fill="#000000" >G</text>
<circle cx="289.2500" cy="362.9479" r="5.0" stroke="#595959" stroke-width="1.0" fill="#ffffff"/>
<text x="289.2500" y="365.6479" text-anchor="middle" font-family="Helvetica" font-size="7.5" fill="#000000" >U</text>
<circle cx="289.2500" cy="382.9477" r="5.0" stroke="#595959" stroke-width="1.0" fill="#ffffff"/>
<text x="289.2500" y="385.6477" text-anchor="middle" font-family="Helvetica" font-size="7.5" fill="#000000" >C</text>
<circle cx="289.2500" cy="402.9477" r="5.0" stroke="#595959" stroke-width="1.0" fill="#ffffff"/>
<text x="289.2500" y="405.6477" text-anchor="middle" font-family="Helvetica" font-size="7.5" fill="#000000" >C</text>
<circle cx="289.2500" cy="422.9475" r="5.0" stroke="#595959" stroke-width="1.0" fill="#ffffff"/>
<text x="289.2500" y="425.6475" text-anchor="middle" font-family="Helvetica" font-size="7.5" fill="#000000" >A</text>
<circle cx="289.2500" cy="442.9475" r="5.0" stroke="#595959" stroke-width="1.0" fill="#ffffff"/>
<text x="289.2500" y="445.6475" text-anchor="middle" font-family="Helvetica" font-size="7.5" fill="#000000" >G</text>
<circle cx="289.2500" cy="462.9475" r="5.0" stroke="#595959" stroke-width="1.0" fill="#ffffff"/>
<text x="289.2500" y="465.6475" text-anchor="middle" font-family="Helvetica" font-size="7.5" fill="#000000" >U</text>
</svg>
