<?xml version="1.0" encoding="UTF-8"?>
<!DOCTYPE svg PUBLIC "-//W3C//DTD SVG 1.1//EN" 
"http://www.w3.org/Graphics/SVG/1.1/DTD/svg11.dtd">

<svg version="1.1"
   width="546px"
   height="546px"
xmlns="http://www.w3.org/2000/svg">
    <rect width="100%" height="100%" fill="white"/>

  <line x1="256.1200" y1="422.5388" x2="256.2134" y2="402.5524" stroke="#595959"
     style="stroke-width:2;stroke-miterlimit:4;stroke-dasharray:1,1;stroke-dashoffset:0" />
  <line x1="256.4806" y1="342.6207" x2="256.5571" y2="322.6534" stroke="#595959"
     style="stroke-width:2;stroke-miterlimit:4;stroke-dasharray:1,1;stroke-dashoffset:0" />
  <line x1="256.7427" y1="262.7964" x2="256.8143" y2="242.8678" stroke="#595959"
     style="stroke-width:2;stroke-miterlimit:4;stroke-dasharray:1,1;stroke-dashoffset:0" />
  <line x1="257.1953" y1="163.3912" x2="257.1182" y2="143.6035" stroke="#595959"
     style="stroke-width:2;stroke-miterlimit:4;stroke-dasharray:1,1;stroke-dashoffset:0" />
  <line x1="289.6351" y1="143.2195" x2="289.6935" y2="163.1957" stroke="#595959"
     style="stroke-width:2;stroke-miterlimit:4;stroke-dasharray:1,1;stroke-dashoffset:0" />
  <line x1="289.3145" y1="242.9079" x2="289.2437" y2="262.8417" stroke="#595959"
     style="stroke-width:2;stroke-miterlimit:4;stroke-dasharray:1,1;stroke-dashoffset:0" />
  <line x1="289.0574" y1="322.6915" x2="288.9805" y2="342.6551" stroke="#595959"
     style="stroke-width:2;stroke-miterlimit:4;stroke-dasharray:1,1;stroke-dashoffset:0" />
  <line x1="288.7134" y1="402.5821" x2="288.6200" y2="422.5685" stroke="#595959"
     style="stroke-width:2;stroke-miterlimit:4;stroke-dasharray:1,1;stroke-dashoffset:0" />
  <line x1="255.9329" y1="464.1251" x2="288.4340" y2="464.1553" stroke="#d35200" stroke-width="1.0" />
  <circle cx="272.1835" cy="464.1402" r="2.25" stroke="#d35200" stroke-width="1.0" fill="#d35200"/>
  <line x1="256.3937" y1="364.1932" x2="288.8952" y2="364.2250" stroke="#db6700" stroke-width="1.0" />
  <circle cx="272.6445" cy="364.2091" r="2.25" stroke="#db6700" stroke-width="1.0" fill="#db6700"/>
  <line x1="256.5589" y1="321.0534" x2="289.0593" y2="321.0915" stroke="#d35200" stroke-width="1.0" />
  <circle cx="272.8091" cy="321.0724" r="2.25" stroke="#d35200" stroke-width="1.0" fill="#d35200"/>
  <line x1="256.6022" y1="302.6921" x2="289.2137" y2="282.7843" stroke="#f2b800" stroke-width="1.0" />
  <circle cx="272.9080" cy="292.7382" r="2.25" stroke="#f2b800" stroke-width="1.0" fill="#f2b800"/>
  <line x1="256.6084" y1="297.8921" x2="289.1536" y2="297.9344" stroke="#af1b2c" stroke-width="1.0" />
  <circle cx="276.3810" cy="297.9133" r="2.25" stroke="#af1b2c" stroke-width="1.0" fill="#af1b2c"
    transform="rotate(0.0745 272.8810 297.9133)" />
  <path d="M 271.1310 300.1633 L 271.1310 295.6633 L 267.1310 297.9133 z" style="stroke:#af1b2c;stroke-width:1.0" fill="#af1b2c" 
    transform="rotate(0.0745 272.8810 297.9133)"/>
  <line x1="256.6022" y1="302.6921" x2="289.1473" y2="302.7344" stroke="#ea9900" stroke-width="1.0" />
  <path d="M 267.1247 304.9633 L 267.1247 300.4633 L 271.6247 300.4633 L 271.6247 304.9633 z" style="stroke:#ea9900;stroke-width:1.0" fill="#ea9900" 
    transform="rotate(180.0745 272.8747 302.7133)"/>
  <path d="M 274.6247 304.9633 L 274.6247 300.4633 L 278.6247 302.7133 z" style="stroke:#ea9900;stroke-width:1.0" fill="#ea9900"
    transform="rotate(180.0745 272.8747 302.7133)"/>
  <line x1="256.6022" y1="302.6921" x2="289.1473" y2="302.7344" stroke="#ea9900" stroke-width="1.0" />
  <circle cx="272.8747" cy="302.7133" r="2.25" stroke="#ea9900" stroke-width="1.0" fill="#ea9900"/>
  <line x1="256.6022" y1="302.6921" x2="289.1473" y2="302.7344" stroke="#f2b800" stroke-width="1.0" />
  <circle cx="272.8747" cy="302.7133" r="2.25" stroke="#f2b800" stroke-width="1.0" fill="#f2b800"/>
  <line x1="256.6022" y1="302.6921" x2="289.0574" y2="322.6915" stroke="#f2b800" stroke-width="1.0" />
  <circle cx="276.3298" cy="312.6918" r="2.25" stroke="#f2b800" stroke-width="1.0" fill="#f2b800"
    transform="rotate(31.6419 272.8298 312.6918)" />
  <path d="M 271.0798 314.9418 L 271.0798 310.4418 L 267.0798 312.6918 z" style="stroke:#f2b800;stroke-width:1.0" fill="#f2b800" 
    transform="rotate(31.6419 272.8298 312.6918)"/>
  <line x1="256.6539" y1="282.7389" x2="289.2437" y2="262.8417" stroke="#f2b800" stroke-width="1.0" />
  <circle cx="272.9488" cy="272.7903" r="2.25" stroke="#f2b800" stroke-width="1.0" fill="#f2b800"/>
  <line x1="256.6584" y1="279.5389" x2="289.2182" y2="279.5843" stroke="#b92500" stroke-width="1.0" />
  <circle cx="272.9383" cy="279.5616" r="2.25" stroke="#b92500" stroke-width="1.0" fill="#b92500"/>
  <line x1="256.6539" y1="282.7389" x2="289.2137" y2="282.7843" stroke="#ca4000" stroke-width="1.0" />
  <circle cx="272.9338" cy="282.7616" r="2.25" stroke="#ca4000" stroke-width="1.0" fill="#ca4000"/>
  <line x1="256.6494" y1="285.9389" x2="289.2093" y2="285.9843" stroke="#f2b800" stroke-width="1.0" />
  <circle cx="276.6793" cy="285.9616" r="2.25" stroke="#f2b800" stroke-width="1.0" fill="#f2b800"
    transform="rotate(180.0800 272.9293 285.9616)" />
  <path d="M 266.9293 288.2116 L 266.9293 283.7116 L 271.4293 283.7116 L 271.4293 288.2116 z" style="stroke:#f2b800; stroke-width:1.0" fill="#f2b800" 
    transform="rotate(180.0800 272.9293 285.9616)"/>
  <line x1="256.7449" y1="261.1964" x2="289.2460" y2="261.2417" stroke="#af1b2c" stroke-width="1.0" />
  <circle cx="272.9954" cy="261.2191" r="2.25" stroke="#af1b2c" stroke-width="1.0" fill="#af1b2c"/>
  <line x1="256.7404" y1="264.3964" x2="289.2415" y2="264.4417" stroke="#ca4000" stroke-width="1.0" />
  <circle cx="272.9910" cy="264.4191" r="2.25" stroke="#ca4000" stroke-width="1.0" fill="#ca4000"/>
  <line x1="256.8163" y1="241.2678" x2="289.3165" y2="241.3079" stroke="#ea9900" stroke-width="1.0" />
  <circle cx="273.0664" cy="241.2878" r="2.25" stroke="#ea9900" stroke-width="1.0" fill="#ea9900"/>
  <line x1="256.8124" y1="244.4678" x2="289.3125" y2="244.5079" stroke="#6501d5" stroke-width="1.0" />
  <circle cx="273.0624" cy="244.4878" r="2.25" stroke="#6501d5" stroke-width="1.0" fill="#6501d5"/>
  <line x1="256.8553" y1="224.5528" x2="289.4102" y2="224.5867" stroke="#f2b800" stroke-width="1.0" />
  <circle cx="273.1328" cy="224.5697" r="2.25" stroke="#f2b800" stroke-width="1.0" fill="#f2b800"/>
  <line x1="256.8384" y1="125.4407" x2="289.2344" y2="124.7128" stroke="#e38000" stroke-width="1.0" />
  <circle cx="273.0364" cy="125.0768" r="2.25" stroke="#e38000" stroke-width="1.0" fill="#e38000"/>
  <line x1="266.7073" y1="88.5802" x2="286.1273" y2="84.9450" stroke="#ea9900" stroke-width="1.0" />
  <circle cx="276.4173" cy="86.7626" r="2.25" stroke="#ea9900" stroke-width="1.0" fill="#ea9900"/>
  <line x1="255.9344" y1="462.5251" x2="256.0272" y2="442.5297" stroke="#000000" stroke-width="1.0" />
  <rect
     style="fill:#ffffff;fill-opacity:1;fill-rule:nonzero;stroke:none"
     width="2"
     height="2"
     x="255.4808"
     y="451.5274"
     transform="rotate(-89.7342 255.9808 452.5274)" /> 
  <path
     style="fill:none;stroke:#000000;stroke-width:1px;stroke-linecap:butt;stroke-linejoin:miter;stroke-opacity:1"
     d="m 255.9808,450.5274 2,2 -2,2 m -2.370121,-4 2,2 -2,2"
     transform="rotate(-89.7342 255.9808 452.5274)"/>
  <line x1="255.9359" y1="460.9251" x2="288.4369" y2="460.9553" stroke="#af1b2c" stroke-width="1.0" />
  <line x1="256.0272" y1="442.5297" x2="256.1200" y2="422.5388" stroke="#7302f5" stroke-width="1.0" />
  <rect
     style="fill:#ffffff;fill-opacity:1;fill-rule:nonzero;stroke:none"
     width="2"
     height="2"
     x="255.5736"
     y="431.5343"
     transform="rotate(-89.7340 256.0736 432.5343)" /> 
  <path
     style="fill:none;stroke:#7302f5;stroke-width:1px;stroke-linecap:butt;stroke-linejoin:miter;stroke-opacity:1"
     d="m 256.0736,430.5343 2,2 -2,2 m -2.370121,-4 2,2 -2,2"
     transform="rotate(-89.7340 256.0736 432.5343)"/>
  <line x1="256.0261" y1="443.7797" x2="288.5260" y2="443.8097" stroke="#000000" stroke-width="1.0" />
  <line x1="256.0284" y1="441.2798" x2="288.5283" y2="441.3097" stroke="#000000" stroke-width="1.0" />
  <line x1="256.1200" y1="422.5388" x2="288.6200" y2="422.5685" stroke="#000000" stroke-width="1.0" />
  <line x1="256.2134" y1="402.5524" x2="256.3061" y2="382.5705" stroke="#ca4000" stroke-width="1.0" />
  <rect
     style="fill:#ffffff;fill-opacity:1;fill-rule:nonzero;stroke:none"
     width="2"
     height="2"
     x="255.7597"
     y="391.5614"
     transform="rotate(-89.7341 256.2597 392.5614)" /> 
  <path
     style="fill:none;stroke:#ca4000;stroke-width:1px;stroke-linecap:butt;stroke-linejoin:miter;stroke-opacity:1"
     d="m 256.2597,390.5614 2,2 -2,2 m -2.370121,-4 2,2 -2,2"
     transform="rotate(-89.7341 256.2597 392.5614)"/>
  <line x1="256.2122" y1="403.8024" x2="288.7122" y2="403.8321" stroke="#000000" stroke-width="1.0" />
  <line x1="256.2145" y1="401.3024" x2="288.7145" y2="401.3321" stroke="#000000" stroke-width="1.0" />
  <line x1="256.2134" y1="402.5524" x2="288.6200" y2="422.5685" stroke="#000000" stroke-width="1.0" />
  <rect
     style="fill:#ffffff;stroke:none"
     width="5.5"
     height="2"
     x="269.6667"
     y="411.5604" 
     transform="rotate(31.7018 272.4167 412.5604)"    /> 
  <path
     style="fill:none;stroke:#000000;stroke-width:1px;stroke-linecap:butt;stroke-linejoin:miter;stroke-opacity:1"
    d="m 273.1667,410.5604 2,2 -2,2 m -1.5,-4 -2,2 2,2" transform="rotate(31.7018 272.4167 412.5604)"/>
  <line x1="256.3061" y1="382.5705" x2="256.3952" y2="362.5932" stroke="#7302f5" stroke-width="1.0" />
  <rect
     style="fill:#ffffff;fill-opacity:1;fill-rule:nonzero;stroke:none"
     width="2"
     height="2"
     x="255.8507"
     y="371.5818"
     transform="rotate(-89.7444 256.3507 372.5818)" /> 
  <path
     style="fill:none;stroke:#7302f5;stroke-width:1px;stroke-linecap:butt;stroke-linejoin:miter;stroke-opacity:1"
     d="m 256.3507,370.5818 2,2 -2,2 m -2.370121,-4 2,2 -2,2"
     transform="rotate(-89.7444 256.3507 372.5818)"/>
  <line x1="256.3050" y1="383.8205" x2="288.8049" y2="383.8507" stroke="#000000" stroke-width="1.0" />
  <line x1="256.3073" y1="381.3205" x2="288.8073" y2="381.3507" stroke="#000000" stroke-width="1.0" />
  <line x1="256.3952" y1="362.5932" x2="256.4806" y2="342.6207" stroke="#000000" stroke-width="1.0" />
  <rect
     style="fill:#ffffff;fill-opacity:1;fill-rule:nonzero;stroke:none"
     width="2"
     height="2"
     x="255.9379"
     y="351.6069"
     transform="rotate(-89.7553 256.4379 352.6069)" /> 
  <path
     style="fill:none;stroke:#000000;stroke-width:1px;stroke-linecap:butt;stroke-linejoin:miter;stroke-opacity:1"
     d="m 256.4379,350.6069 2,2 -2,2 m -2.370121,-4 2,2 -2,2"
     transform="rotate(-89.7553 256.4379 352.6069)"/>
  <line x1="256.3968" y1="360.9932" x2="288.8984" y2="361.0250" stroke="#8204ff" stroke-width="1.0" />
  <line x1="256.4792" y1="343.8707" x2="288.9791" y2="343.9051" stroke="#000000" stroke-width="1.0" />
  <line x1="256.4819" y1="341.3707" x2="288.9818" y2="341.4051" stroke="#000000" stroke-width="1.0" />
  <line x1="256.5571" y1="322.6534" x2="256.6022" y2="302.6921" stroke="#7302f5" stroke-width="1.0" />
  <rect
     style="fill:#ffffff;fill-opacity:1;fill-rule:nonzero;stroke:none"
     width="2"
     height="2"
     x="256.0796"
     y="311.6727"
     transform="rotate(-89.8704 256.5796 312.6727)" /> 
  <path
     style="fill:none;stroke:#7302f5;stroke-width:1px;stroke-linecap:butt;stroke-linejoin:miter;stroke-opacity:1"
     d="m 256.5796,310.6727 2,2 -2,2 m -2.370121,-4 2,2 -2,2"
     transform="rotate(-89.8704 256.5796 312.6727)"/>
  <line x1="256.5552" y1="324.2534" x2="289.0556" y2="324.2915" stroke="#af1b2c" stroke-width="1.0" />
  <line x1="256.5571" y1="322.6534" x2="288.9805" y2="342.6551" stroke="#37004b" stroke-width="1.0" />
  <rect
     style="fill:#ffffff;stroke:none"
     width="5.5"
     height="2"
     x="270.0188"
     y="331.6542" 
     transform="rotate(31.6701 272.7688 332.6542)"    /> 
  <path
     style="fill:none;stroke:#37004b;stroke-width:1px;stroke-linecap:butt;stroke-linejoin:miter;stroke-opacity:1"
    d="m 273.5188,330.6542 2,2 -2,2 m -1.5,-4 -2,2 2,2" transform="rotate(31.6701 272.7688 332.6542)"/>
  <line x1="256.6022" y1="302.6921" x2="256.6539" y2="282.7389" stroke="#e38000" stroke-width="1.0" />
  <rect
     style="fill:#ffffff;fill-opacity:1;fill-rule:nonzero;stroke:none"
     width="2"
     height="2"
     x="256.1280"
     y="291.7155"
     transform="rotate(-89.8516 256.6280 292.7155)" /> 
  <path
     style="fill:none;stroke:#e38000;stroke-width:1px;stroke-linecap:butt;stroke-linejoin:miter;stroke-opacity:1"
     d="m 256.6280,290.7155 2,2 -2,2 m -2.370121,-4 2,2 -2,2"
     transform="rotate(-89.8516 256.6280 292.7155)"/>
  <line x1="256.6539" y1="282.7389" x2="256.7427" y2="262.7964" stroke="#37004b" stroke-width="1.0" />
  <rect
     style="fill:#ffffff;fill-opacity:1;fill-rule:nonzero;stroke:none"
     width="2"
     height="2"
     x="256.1983"
     y="271.7677"
     transform="rotate(-89.7449 256.6983 272.7677)" /> 
  <path
     style="fill:none;stroke:#37004b;stroke-width:1px;stroke-linecap:butt;stroke-linejoin:miter;stroke-opacity:1"
     d="m 256.6983,270.7677 2,2 -2,2 m -2.370121,-4 2,2 -2,2"
     transform="rotate(-89.7449 256.6983 272.7677)"/>
  <line x1="256.6539" y1="282.7389" x2="289.1473" y2="302.7344" stroke="#d35200" stroke-width="1.0" />
  <rect
     style="fill:#ffffff;stroke:none"
     width="5.5"
     height="2"
     x="270.1506"
     y="291.7367" 
     transform="rotate(31.6070 272.9006 292.7367)"    /> 
  <path
     style="fill:none;stroke:#d35200;stroke-width:1px;stroke-linecap:butt;stroke-linejoin:miter;stroke-opacity:1"
    d="m 273.6506,290.7367 2,2 -2,2 m -1.5,-4 -2,2 2,2" transform="rotate(31.6070 272.9006 292.7367)"/>
  <line x1="256.8143" y1="242.8678" x2="256.8570" y2="222.9528" stroke="#37004b" stroke-width="1.0" />
  <rect
     style="fill:#ffffff;fill-opacity:1;fill-rule:nonzero;stroke:none"
     width="2"
     height="2"
     x="256.3357"
     y="231.9103"
     transform="rotate(-89.8772 256.8357 232.9103)" /> 
  <path
     style="fill:none;stroke:#37004b;stroke-width:1px;stroke-linecap:butt;stroke-linejoin:miter;stroke-opacity:1"
     d="m 256.8357,230.9103 2,2 -2,2 m -2.370121,-4 2,2 -2,2"
     transform="rotate(-89.8772 256.8357 232.9103)"/>
  <line x1="256.8143" y1="242.8678" x2="289.2437" y2="262.8417" stroke="#6501d5" stroke-width="1.0" />
  <rect
     style="fill:#ffffff;stroke:none"
     width="5.5"
     height="2"
     x="270.2790"
     y="251.8547" 
     transform="rotate(31.6298 273.0290 252.8547)"    /> 
  <path
     style="fill:none;stroke:#6501d5;stroke-width:1px;stroke-linecap:butt;stroke-linejoin:miter;stroke-opacity:1"
    d="m 273.7790,250.8547 2,2 -2,2 m -1.5,-4 -2,2 2,2" transform="rotate(31.6298 273.0290 252.8547)"/>
  <line x1="256.8570" y1="222.9528" x2="257.0444" y2="203.0634" stroke="#37004b" stroke-width="1.0" />
  <rect
     style="fill:#ffffff;fill-opacity:1;fill-rule:nonzero;stroke:none"
     width="2"
     height="2"
     x="256.4507"
     y="212.0081"
     transform="rotate(-89.4603 256.9507 213.0081)" /> 
  <path
     style="fill:none;stroke:#37004b;stroke-width:1px;stroke-linecap:butt;stroke-linejoin:miter;stroke-opacity:1"
     d="m 256.9507,211.0081 2,2 -2,2 m -2.370121,-4 2,2 -2,2"
     transform="rotate(-89.4603 256.9507 213.0081)"/>
  <line x1="256.8574" y1="222.6028" x2="289.4122" y2="222.6367" stroke="#520099" stroke-width="1.0" />
  <line x1="256.8600" y1="220.1028" x2="289.4148" y2="220.1367" stroke="#520099" stroke-width="1.0" />
  <line x1="257.0444" y1="203.0634" x2="257.1204" y2="183.2044" stroke="#37004b" stroke-width="1.0" />
  <rect
     style="fill:#ffffff;fill-opacity:1;fill-rule:nonzero;stroke:none"
     width="2"
     height="2"
     x="256.5824"
     y="192.1339"
     transform="rotate(-89.7806 257.0824 193.1339)" /> 
  <path
     style="fill:none;stroke:#37004b;stroke-width:1px;stroke-linecap:butt;stroke-linejoin:miter;stroke-opacity:1"
     d="m 257.0824,191.1339 2,2 -2,2 m -2.370121,-4 2,2 -2,2"
     transform="rotate(-89.7806 257.0824 193.1339)"/>
  <line x1="257.0444" y1="203.0634" x2="289.5094" y2="203.0691" stroke="#37004b" stroke-width="1.0" />
  <line x1="257.0444" y1="203.0634" x2="289.4118" y2="222.9867" stroke="#f2b800" stroke-width="1.0" />
  <rect
     style="fill:#ffffff;stroke:none"
     width="5.5"
     height="2"
     x="270.4781"
     y="212.0250" 
     transform="rotate(31.6137 273.2281 213.0250)"    /> 
  <path
     style="fill:none;stroke:#f2b800;stroke-width:1px;stroke-linecap:butt;stroke-linejoin:miter;stroke-opacity:1"
    d="m 273.9781,211.0250 2,2 -2,2 m -1.5,-4 -2,2 2,2" transform="rotate(31.6137 273.2281 213.0250)"/>
  <line x1="257.1204" y1="183.2044" x2="257.1953" y2="163.3912" stroke="#7302f5" stroke-width="1.0" />
  <rect
     style="fill:#ffffff;fill-opacity:1;fill-rule:nonzero;stroke:none"
     width="2"
     height="2"
     x="256.6578"
     y="172.2978"
     transform="rotate(-89.7834 257.1578 173.2978)" /> 
  <path
     style="fill:none;stroke:#7302f5;stroke-width:1px;stroke-linecap:butt;stroke-linejoin:miter;stroke-opacity:1"
     d="m 257.1578,171.2978 2,2 -2,2 m -2.370121,-4 2,2 -2,2"
     transform="rotate(-89.7834 257.1578 173.2978)"/>
  <line x1="257.1226" y1="184.4544" x2="289.6272" y2="184.3967" stroke="#37004b" stroke-width="1.0" />
  <line x1="257.1182" y1="181.9544" x2="289.6228" y2="181.8967" stroke="#37004b" stroke-width="1.0" />
  <line x1="257.2028" y1="164.6412" x2="289.7010" y2="164.4456" stroke="#37004b" stroke-width="1.0" />
  <line x1="257.1878" y1="162.1413" x2="289.6860" y2="161.9457" stroke="#37004b" stroke-width="1.0" />
  <line x1="257.1953" y1="163.3912" x2="289.6250" y2="183.1467" stroke="#db6700" stroke-width="1.0" />
  <rect
     style="fill:#ffffff;stroke:none"
     width="5.5"
     height="2"
     x="270.6602"
     y="172.2690" 
     transform="rotate(31.3488 273.4102 173.2690)"    /> 
  <path
     style="fill:none;stroke:#db6700;stroke-width:1px;stroke-linecap:butt;stroke-linejoin:miter;stroke-opacity:1"
    d="m 274.1602,171.2690 2,2 -2,2 m -1.5,-4 -2,2 2,2" transform="rotate(31.3488 273.4102 173.2690)"/>
  <line x1="257.1182" y1="143.6035" x2="256.8025" y2="123.8411" stroke="#9b0dba" stroke-width="1.0" />
  <rect
     style="fill:#ffffff;fill-opacity:1;fill-rule:nonzero;stroke:none"
     width="2"
     height="2"
     x="256.4603"
     y="132.7223"
     transform="rotate(269.0848 256.9603 133.7223)" /> 
  <path
     style="fill:none;stroke:#9b0dba;stroke-width:1px;stroke-linecap:butt;stroke-linejoin:miter;stroke-opacity:1"
     d="m 256.9603,131.7223 2,2 -2,2 m -2.370121,-4 2,2 -2,2"
     transform="rotate(269.0848 256.9603 133.7223)"/>
  <line x1="257.1329" y1="144.8534" x2="289.6498" y2="144.4694" stroke="#000000" stroke-width="1.0" />
  <line x1="257.1034" y1="142.3536" x2="289.6203" y2="141.9696" stroke="#000000" stroke-width="1.0" />
  <line x1="257.1182" y1="143.6035" x2="289.6935" y2="163.1957" stroke="#000000" stroke-width="1.0" />
  <rect
     style="fill:#ffffff;stroke:none"
     width="5.5"
     height="2"
     x="270.6558"
     y="152.3996" 
     transform="rotate(31.0245 273.4058 153.3996)"    /> 
  <path
     style="fill:none;stroke:#000000;stroke-width:1px;stroke-linecap:butt;stroke-linejoin:miter;stroke-opacity:1"
    d="m 274.1558,151.3996 2,2 -2,2 m -1.5,-4 -2,2 2,2" transform="rotate(31.0245 273.4058 153.3996)"/>
  <line x1="256.8025" y1="123.8411" x2="256.1866" y2="104.0186" stroke="#8204ff" stroke-width="1.0" />
  <rect
     style="fill:#ffffff;fill-opacity:1;fill-rule:nonzero;stroke:none"
     width="2"
     height="2"
     x="255.9945"
     y="112.9299"
     transform="rotate(268.2202 256.4945 113.9299)" /> 
  <path
     style="fill:none;stroke:#8204ff;stroke-width:1px;stroke-linecap:butt;stroke-linejoin:miter;stroke-opacity:1"
     d="m 256.4945,111.9299 2,2 -2,2 m -2.370121,-4 2,2 -2,2"
     transform="rotate(268.2202 256.4945 113.9299)"/>
  <line x1="256.7666" y1="122.2415" x2="289.1625" y2="121.5136" stroke="#7302f5" stroke-width="1.0" />
  <line x1="256.1866" y1="104.0186" x2="266.4129" y2="87.0075" stroke="#d35200" stroke-width="1.0" />
  <rect
     style="fill:#ffffff;fill-opacity:1;fill-rule:nonzero;stroke:none"
     width="2"
     height="2"
     x="260.7997"
     y="94.5131"
     transform="rotate(-58.9875 261.2997 95.5131)" /> 
  <path
     style="fill:none;stroke:#d35200;stroke-width:1px;stroke-linecap:butt;stroke-linejoin:miter;stroke-opacity:1"
     d="m 261.2997,93.5131 2,2 -2,2 m -2.370121,-4 2,2 -2,2"
     transform="rotate(-58.9875 261.2997 95.5131)"/>
  <line x1="256.2248" y1="105.2681" x2="288.5916" y2="104.2786" stroke="#000000" stroke-width="1.0" />
  <line x1="256.1484" y1="102.7692" x2="288.5152" y2="101.7797" stroke="#000000" stroke-width="1.0" />
  <line x1="266.3485" y1="86.6635" x2="285.7685" y2="83.0283" stroke="#6501d5" stroke-width="1.0" />
  <line x1="265.8886" y1="84.2062" x2="285.3085" y2="80.5710" stroke="#6501d5" stroke-width="1.0" />
  <line x1="266.4129" y1="87.0075" x2="288.5534" y2="103.0292" stroke="#db6700" stroke-width="1.0" />
  <rect
     style="fill:#ffffff;stroke:none"
     width="5.5"
     height="2"
     x="274.7332"
     y="94.0183" 
     transform="rotate(35.8908 277.4832 95.0183)"    /> 
  <path
     style="fill:none;stroke:#db6700;stroke-width:1px;stroke-linecap:butt;stroke-linejoin:miter;stroke-opacity:1"
    d="m 278.2332,93.0183 2,2 -2,2 m -1.5,-4 -2,2 2,2" transform="rotate(35.8908 277.4832 95.0183)"/>
  <line x1="285.8329" y1="83.3723" x2="288.5534" y2="103.0292" stroke="#7302f5" stroke-width="1.0" />
  <rect
     style="fill:#ffffff;fill-opacity:1;fill-rule:nonzero;stroke:none"
     width="2"
     height="2"
     x="286.6932"
     y="92.2007"
     transform="rotate(82.1203 287.1932 93.2007)" /> 
  <path
     style="fill:none;stroke:#7302f5;stroke-width:1px;stroke-linecap:butt;stroke-linejoin:miter;stroke-opacity:1"
     d="m 287.1932,91.2007 2,2 -2,2 m -2.370121,-4 2,2 -2,2"
     transform="rotate(82.1203 287.1932 93.2007)"/>
  <line x1="288.5534" y1="103.0292" x2="289.1985" y2="123.1132" stroke="#7302f5" stroke-width="1.0" />
  <rect
     style="fill:#ffffff;fill-opacity:1;fill-rule:nonzero;stroke:none"
     width="2"
     height="2"
     x="288.3759"
     y="112.0712"
     transform="rotate(88.1605 288.8759 113.0712)" /> 
  <path
     style="fill:none;stroke:#7302f5;stroke-width:1px;stroke-linecap:butt;stroke-linejoin:miter;stroke-opacity:1"
     d="m 288.8759,111.0712 2,2 -2,2 m -2.370121,-4 2,2 -2,2"
     transform="rotate(88.1605 288.8759 113.0712)"/>
  <line x1="289.1985" y1="123.1132" x2="289.6351" y2="143.2195" stroke="#8204ff" stroke-width="1.0" />
  <rect
     style="fill:#ffffff;fill-opacity:1;fill-rule:nonzero;stroke:none"
     width="2"
     height="2"
     x="288.9168"
     y="132.1663"
     transform="rotate(88.7560 289.4168 133.1663)" /> 
  <path
     style="fill:none;stroke:#8204ff;stroke-width:1px;stroke-linecap:butt;stroke-linejoin:miter;stroke-opacity:1"
     d="m 289.4168,131.1663 2,2 -2,2 m -2.370121,-4 2,2 -2,2"
     transform="rotate(88.7560 289.4168 133.1663)"/>
  <line x1="289.6935" y1="163.1957" x2="289.6250" y2="183.1467" stroke="#f2b800" stroke-width="1.0" />
  <rect
     style="fill:#ffffff;fill-opacity:1;fill-rule:nonzero;stroke:none"
     width="2"
     height="2"
     x="289.1592"
     y="172.1712"
     transform="rotate(90.1966 289.6592 173.1712)" /> 
  <path
     style="fill:none;stroke:#f2b800;stroke-width:1px;stroke-linecap:butt;stroke-linejoin:miter;stroke-opacity:1"
     d="m 289.6592,171.1712 2,2 -2,2 m -2.370121,-4 2,2 -2,2"
     transform="rotate(90.1966 289.6592 173.1712)"/>
  <line x1="289.6250" y1="183.1467" x2="289.5094" y2="203.0691" stroke="#7302f5" stroke-width="1.0" />
  <rect
     style="fill:#ffffff;fill-opacity:1;fill-rule:nonzero;stroke:none"
     width="2"
     height="2"
     x="289.0672"
     y="192.1079"
     transform="rotate(90.3324 289.5672 193.1079)" /> 
  <path
     style="fill:none;stroke:#7302f5;stroke-width:1px;stroke-linecap:butt;stroke-linejoin:miter;stroke-opacity:1"
     d="m 289.5672,191.1079 2,2 -2,2 m -2.370121,-4 2,2 -2,2"
     transform="rotate(90.3324 289.5672 193.1079)"/>
  <line x1="289.5094" y1="203.0691" x2="289.4118" y2="222.9867" stroke="#af1b2c" stroke-width="1.0" />
  <rect
     style="fill:#ffffff;fill-opacity:1;fill-rule:nonzero;stroke:none"
     width="2"
     height="2"
     x="288.9606"
     y="212.0279"
     transform="rotate(90.2808 289.4606 213.0279)" /> 
  <path
     style="fill:none;stroke:#af1b2c;stroke-width:1px;stroke-linecap:butt;stroke-linejoin:miter;stroke-opacity:1"
     d="m 289.4606,211.0279 2,2 -2,2 m -2.370121,-4 2,2 -2,2"
     transform="rotate(90.2808 289.4606 213.0279)"/>
  <line x1="289.4118" y1="222.9867" x2="289.3145" y2="242.9079" stroke="#000000" stroke-width="1.0" />
  <rect
     style="fill:#ffffff;fill-opacity:1;fill-rule:nonzero;stroke:none"
     width="2"
     height="2"
     x="288.8632"
     y="231.9473"
     transform="rotate(90.2800 289.3632 232.9473)" /> 
  <path
     style="fill:none;stroke:#000000;stroke-width:1px;stroke-linecap:butt;stroke-linejoin:miter;stroke-opacity:1"
     d="m 289.3632,230.9473 2,2 -2,2 m -2.370121,-4 2,2 -2,2"
     transform="rotate(90.2800 289.3632 232.9473)"/>
  <line x1="289.2437" y1="262.8417" x2="289.2137" y2="282.7843" stroke="#6501d5" stroke-width="1.0" />
  <rect
     style="fill:#ffffff;fill-opacity:1;fill-rule:nonzero;stroke:none"
     width="2"
     height="2"
     x="288.7287"
     y="271.8130"
     transform="rotate(90.0862 289.2287 272.8130)" /> 
  <path
     style="fill:none;stroke:#6501d5;stroke-width:1px;stroke-linecap:butt;stroke-linejoin:miter;stroke-opacity:1"
     d="m 289.2287,270.8130 2,2 -2,2 m -2.370121,-4 2,2 -2,2"
     transform="rotate(90.0862 289.2287 272.8130)"/>
  <line x1="289.2137" y1="282.7843" x2="289.1473" y2="302.7344" stroke="#f2b800" stroke-width="1.0" />
  <rect
     style="fill:#ffffff;fill-opacity:1;fill-rule:nonzero;stroke:none"
     width="2"
     height="2"
     x="288.6805"
     y="291.7594"
     transform="rotate(90.1908 289.1805 292.7594)" /> 
  <path
     style="fill:none;stroke:#f2b800;stroke-width:1px;stroke-linecap:butt;stroke-linejoin:miter;stroke-opacity:1"
     d="m 289.1805,290.7594 2,2 -2,2 m -2.370121,-4 2,2 -2,2"
     transform="rotate(90.1908 289.1805 292.7594)"/>
  <line x1="289.1473" y1="302.7344" x2="289.0574" y2="322.6915" stroke="#6501d5" stroke-width="1.0" />
  <rect
     style="fill:#ffffff;fill-opacity:1;fill-rule:nonzero;stroke:none"
     width="2"
     height="2"
     x="288.6024"
     y="311.7130"
     transform="rotate(90.2580 289.1024 312.7130)" /> 
  <path
     style="fill:none;stroke:#6501d5;stroke-width:1px;stroke-linecap:butt;stroke-linejoin:miter;stroke-opacity:1"
     d="m 289.1024,310.7130 2,2 -2,2 m -2.370121,-4 2,2 -2,2"
     transform="rotate(90.2580 289.1024 312.7130)"/>
  <line x1="288.9805" y1="342.6551" x2="288.8968" y2="362.6250" stroke="#000000" stroke-width="1.0" />
  <rect
     style="fill:#ffffff;fill-opacity:1;fill-rule:nonzero;stroke:none"
     width="2"
     height="2"
     x="288.4386"
     y="351.6401"
     transform="rotate(90.2401 288.9386 352.6401)" /> 
  <path
     style="fill:none;stroke:#000000;stroke-width:1px;stroke-linecap:butt;stroke-linejoin:miter;stroke-opacity:1"
     d="m 288.9386,350.6401 2,2 -2,2 m -2.370121,-4 2,2 -2,2"
     transform="rotate(90.2401 288.9386 352.6401)"/>
  <line x1="288.8968" y1="362.6250" x2="288.8061" y2="382.6007" stroke="#a5137f" stroke-width="1.0" />
  <rect
     style="fill:#ffffff;fill-opacity:1;fill-rule:nonzero;stroke:none"
     width="2"
     height="2"
     x="288.3515"
     y="371.6129"
     transform="rotate(90.2601 288.8515 372.6129)" /> 
  <path
     style="fill:none;stroke:#a5137f;stroke-width:1px;stroke-linecap:butt;stroke-linejoin:miter;stroke-opacity:1"
     d="m 288.8515,370.6129 2,2 -2,2 m -2.370121,-4 2,2 -2,2"
     transform="rotate(90.2601 288.8515 372.6129)"/>
  <line x1="288.8061" y1="382.6007" x2="288.7134" y2="402.5821" stroke="#9b0dba" stroke-width="1.0" />
  <rect
     style="fill:#ffffff;fill-opacity:1;fill-rule:nonzero;stroke:none"
     width="2"
     height="2"
     x="288.2597"
     y="391.5914"
     transform="rotate(90.2660 288.7597 392.5914)" /> 
  <path
     style="fill:none;stroke:#9b0dba;stroke-width:1px;stroke-linecap:butt;stroke-linejoin:miter;stroke-opacity:1"
     d="m 288.7597,390.5914 2,2 -2,2 m -2.370121,-4 2,2 -2,2"
     transform="rotate(90.2660 288.7597 392.5914)"/>
  <line x1="288.6200" y1="422.5685" x2="288.5272" y2="442.5597" stroke="#a5137f" stroke-width="1.0" />
  <rect
     style="fill:#ffffff;fill-opacity:1;fill-rule:nonzero;stroke:none"
     width="2"
     height="2"
     x="288.0736"
     y="431.5641"
     transform="rotate(90.2660 288.5736 432.5641)" /> 
  <path
     style="fill:none;stroke:#a5137f;stroke-width:1px;stroke-linecap:butt;stroke-linejoin:miter;stroke-opacity:1"
     d="m 288.5736,430.5641 2,2 -2,2 m -2.370121,-4 2,2 -2,2"
     transform="rotate(90.2660 288.5736 432.5641)"/>
  <line x1="288.5272" y1="442.5597" x2="288.4355" y2="462.5553" stroke="#6501d5" stroke-width="1.0" />
  <rect
     style="fill:#ffffff;fill-opacity:1;fill-rule:nonzero;stroke:none"
     width="2"
     height="2"
     x="287.9813"
     y="451.5575"
     transform="rotate(90.2629 288.4813 452.5575)" /> 
  <path
     style="fill:none;stroke:#6501d5;stroke-width:1px;stroke-linecap:butt;stroke-linejoin:miter;stroke-opacity:1"
     d="m 288.4813,450.5575 2,2 -2,2 m -2.370121,-4 2,2 -2,2"
     transform="rotate(90.2629 288.4813 452.5575)"/>
<circle cx="255.9344" cy="462.5251" r="5.0" stroke="#595959" stroke-width="1.0" fill="#ffffff"/>
<text x="255.9344" y="465.2251" text-anchor="middle" font-family="Helvetica" font-size="7.5" fill="#000000" >A</text>
<circle cx="256.0272" cy="442.5297" r="5.0" stroke="#595959" stroke-width="1.0" fill="#ffffff"/>
<text x="256.0272" y="445.2297" text-anchor="middle" font-family="Helvetica" font-size="7.5" fill="#000000" >C</text>
<circle cx="256.1200" cy="422.5388" r="5.0" stroke="#595959" stroke-width="1.0" fill="#ffffff"/>
<text x="256.1200" y="425.2388" text-anchor="middle" font-family="Helvetica" font-size="7.5" fill="#000000" >U</text>
<circle cx="256.2134" cy="402.5524" r="5.0" stroke="#595959" stroke-width="1.0" fill="#ffffff"/>
<text x="256.2134" y="405.2524" text-anchor="middle" font-family="Helvetica" font-size="7.5" fill="#000000" >G</text>
<circle cx="256.3061" cy="382.5705" r="5.0" stroke="#595959" stroke-width="1.0" fill="#ffffff"/>
<text x="256.3061" y="385.2705" text-anchor="middle" font-family="Helvetica" font-size="7.5" fill="#000000" >G</text>
<circle cx="256.3952" cy="362.5932" r="5.0" stroke="#595959" stroke-width="1.0" fill="#ffffff"/>
<text x="256.3952" y="365.2932" text-anchor="middle" font-family="Helvetica" font-size="7.5" fill="#000000" >A</text>
<circle cx="256.4806" cy="342.6207" r="5.0" stroke="#595959" stroke-width="1.0" fill="#ffffff"/>
<text x="256.4806" y="345.3207" text-anchor="middle" font-family="Helvetica" font-size="7.5" fill="#000000" >C</text>
<circle cx="256.5571" cy="322.6534" r="5.0" stroke="#595959" stroke-width="1.0" fill="#ffffff"/>
<text x="256.5571" y="325.3534" text-anchor="middle" font-family="Helvetica" font-size="7.5" fill="#000000" >A</text>
<circle cx="256.6022" cy="302.6921" r="5.0" stroke="#595959" stroke-width="1.0" fill="#ffffff"/>
<text x="256.6022" y="305.3921" text-anchor="middle" font-family="Helvetica" font-size="7.5" fill="#000000" >I</text>
<circle cx="256.6539" cy="282.7389" r="5.0" stroke="#595959" stroke-width="1.0" fill="greenyellow"/>
<text x="256.6539" y="285.4389" text-anchor="middle" font-family="Helvetica" font-size="7.5" fill="#000000" >I</text>
<circle cx="256.7427" cy="262.7964" r="5.0" stroke="#595959" stroke-width="1.0" fill="aliceblue"/>
<text x="256.7427" y="265.4964" text-anchor="middle" font-family="Helvetica" font-size="7.5" fill="#000000" >U</text>
<circle cx="256.8143" cy="242.8678" r="5.0" stroke="#595959" stroke-width="1.0" fill="greenyellow"/>
<text x="256.8143" y="245.5678" text-anchor="middle" font-family="Helvetica" font-size="7.5" fill="#000000" >I</text>
<circle cx="256.8570" cy="222.9528" r="5.0" stroke="#595959" stroke-width="1.0" fill="#ffffff"/>
<text x="256.8570" y="225.6528" text-anchor="middle" font-family="Helvetica" font-size="7.5" fill="#000000" >C</text>
<circle cx="257.0444" cy="203.0634" r="5.0" stroke="#595959" stroke-width="1.0" fill="#ffffff"/>
<text x="257.0444" y="205.7634" text-anchor="middle" font-family="Helvetica" font-size="7.5" fill="#000000" >U</text>
<circle cx="257.1204" cy="183.2044" r="5.0" stroke="#595959" stroke-width="1.0" fill="#ffffff"/>
<text x="257.1204" y="185.9044" text-anchor="middle" font-family="Helvetica" font-size="7.5" fill="#000000" >C</text>
<circle cx="257.1953" cy="163.3912" r="5.0" stroke="#595959" stroke-width="1.0" fill="#ffffff"/>
<text x="257.1953" y="166.0912" text-anchor="middle" font-family="Helvetica" font-size="7.5" fill="#000000" >C</text>
<circle cx="257.1182" cy="143.6035" r="5.0" stroke="#595959" stroke-width="1.0" fill="#ffffff"/>
<text x="257.1182" y="146.3035" text-anchor="middle" font-family="Helvetica" font-size="7.5" fill="#000000" >G</text>
<circle cx="256.8025" cy="123.8411" r="5.0" stroke="#595959" stroke-width="1.0" fill="#ffffff"/>
<text x="256.8025" y="126.5411" text-anchor="middle" font-family="Helvetica" font-size="7.5" fill="#000000" >A</text>
<circle cx="256.1866" cy="104.0186" r="5.0" stroke="#595959" stroke-width="1.0" fill="#ffffff"/>
<text x="256.1866" y="106.7186" text-anchor="middle" font-family="Helvetica" font-size="7.5" fill="#000000" >G</text>
<circle cx="266.4129" cy="87.0075" r="5.0" stroke="#595959" stroke-width="1.0" fill="#ffffff"/>
<text x="266.4129" y="89.7075" text-anchor="middle" font-family="Helvetica" font-size="7.5" fill="#000000" >G</text>
<circle cx="285.8329" cy="83.3723" r="5.0" stroke="#595959" stroke-width="1.0" fill="#ffffff"/>
<text x="285.8329" y="86.0723" text-anchor="middle" font-family="Helvetica" font-size="7.5" fill="#000000" >C</text>
<circle cx="288.5534" cy="103.0292" r="5.0" stroke="#595959" stroke-width="1.0" fill="#ffffff"/>
<text x="288.5534" y="105.7292" text-anchor="middle" font-family="Helvetica" font-size="7.5" fill="#000000" >C</text>
<circle cx="289.1985" cy="123.1132" r="5.0" stroke="#595959" stroke-width="1.0" fill="#ffffff"/>
<text x="289.1985" y="125.8132" text-anchor="middle" font-family="Helvetica" font-size="7.5" fill="#000000" >U</text>
<circle cx="289.6351" cy="143.2195" r="5.0" stroke="#595959" stroke-width="1.0" fill="#ffffff"/>
<text x="289.6351" y="145.9195" text-anchor="middle" font-family="Helvetica" font-size="7.5" fill="#000000" >C</text>
<circle cx="289.6935" cy="163.1957" r="5.0" stroke="#595959" stroke-width="1.0" fill="#ffffff"/>
<text x="289.6935" y="165.8957" text-anchor="middle" font-family="Helvetica" font-size="7.5" fill="#000000" >G</text>
<circle cx="289.6250" cy="183.1467" r="5.0" stroke="#595959" stroke-width="1.0" fill="#ffffff"/>
<text x="289.6250" y="185.8467" text-anchor="middle" font-family="Helvetica" font-size="7.5" fill="#000000" >G</text>
<circle cx="289.5094" cy="203.0691" r="5.0" stroke="#595959" stroke-width="1.0" fill="#ffffff"/>
<text x="289.5094" y="205.7691" text-anchor="middle" font-family="Helvetica" font-size="7.5" fill="#000000" >A</text>
<circle cx="289.4118" cy="222.9867" r="5.0" stroke="#595959" stroke-width="1.0" fill="#ffffff"/>
<text x="289.4118" y="225.6867" text-anchor="middle" font-family="Helvetica" font-size="7.5" fill="#000000" >G</text>
<circle cx="289.3145" cy="242.9079" r="5.0" stroke="#595959" stroke-width="1.0" fill="#ffffff"/>
<text x="289.3145" y="245.6079" text-anchor="middle" font-family="Helvetica" font-size="7.5" fill="#000000" >U</text>
<circle cx="289.2437" cy="262.8417" r="5.0" stroke="#595959" stroke-width="1.0" fill="#ffffff"/>
<text x="289.2437" y="265.5417" text-anchor="middle" font-family="Helvetica" font-size="7.5" fill="#000000" >I</text>
<circle cx="289.2137" cy="282.7843" r="5.0" stroke="#595959" stroke-width="1.0" fill="#ffffff"/>
<text x="289.2137" y="285.4843" text-anchor="middle" font-family="Helvetica" font-size="7.5" fill="#000000" >U</text>
<circle cx="289.1473" cy="302.7344" r="5.0" stroke="#595959" stroke-width="1.0" fill="greenyellow"/>
<text x="289.1473" y="305.4344" text-anchor="middle" font-family="Helvetica" font-size="7.5" fill="#000000" >U</text>
<circle cx="289.0574" cy="322.6915" r="5.0" stroke="#595959" stroke-width="1.0" fill="aliceblue"/>
<text x="289.0574" y="325.3915" text-anchor="middle" font-family="Helvetica" font-size="7.5" fill="#000000" >U</text>
<circle cx="288.9805" cy="342.6551" r="5.0" stroke="#595959" stroke-width="1.0" fill="#ffffff"/>
<text x="288.9805" y="345.3551" text-anchor="middle" font-family="Helvetica" font-size="7.5" fill="#000000" >G</text>
<circle cx="288.8968" cy="362.6250" r="5.0" stroke="#595959" stroke-width="1.0" fill="#ffffff"/>
<text x="288.8968" y="365.3250" text-anchor="middle" font-family="Helvetica" font-size="7.5" fill="#000000" >U</text>
<circle cx="288.8061" cy="382.6007" r="5.0" stroke="#595959" stroke-width="1.0" fill="#ffffff"/>
<text x="288.8061" y="385.3007" text-anchor="middle" font-family="Helvetica" font-size="7.5" fill="#000000" >C</text>
<circle cx="288.7134" cy="402.5821" r="5.0" stroke="#595959" stroke-width="1.0" fill="#ffffff"/>
<text x="288.7134" y="405.2821" text-anchor="middle" font-family="Helvetica" font-size="7.5" fill="#000000" >C</text>
<circle cx="288.6200" cy="422.5685" r="5.0" stroke="#595959" stroke-width="1.0" fill="#ffffff"/>
<text x="288.6200" y="425.2685" text-anchor="middle" font-family="Helvetica" font-size="7.5" fill="#000000" >A</text>
<circle cx="288.5272" cy="442.5597" r="5.0" stroke="#595959" stroke-width="1.0" fill="#ffffff"/>
<text x="288.5272" y="445.2597" text-anchor="middle" font-family="Helvetica" font-size="7.5" fill="#000000" >G</text>
<circle cx="288.4355" cy="462.5553" r="5.0" stroke="#595959" stroke-width="1.0" fill="#ffffff"/>
<text x="288.4355" y="465.2553" text-anchor="middle" font-family="Helvetica" font-size="7.5" fill="#000000" >U</text>
</svg>
