<?xml version="1.0" encoding="UTF-8"?>
<!DOCTYPE svg PUBLIC "-//W3C//DTD SVG 1.1//EN" 
"http://www.w3.org/Graphics/SVG/1.1/DTD/svg11.dtd">

<svg version="1.1"
   width="546px"
   height="546px"
xmlns="http://www.w3.org/2000/svg">
    <rect width="100%" height="100%" fill="white"/>

  <line x1="256.7500" y1="422.9439" x2="256.7500" y2="402.9440" stroke="#595959"
     style="stroke-width:2;stroke-miterlimit:4;stroke-dasharray:1,1;stroke-dashoffset:0" />
  <line x1="256.7500" y1="342.9452" x2="256.7500" y2="322.9452" stroke="#595959"
     style="stroke-width:2;stroke-miterlimit:4;stroke-dasharray:1,1;stroke-dashoffset:0" />
  <line x1="256.7501" y1="162.9487" x2="256.7499" y2="142.9488" stroke="#595959"
     style="stroke-width:2;stroke-miterlimit:4;stroke-dasharray:1,1;stroke-dashoffset:0" />
  <line x1="289.2501" y1="142.9488" x2="289.2499" y2="162.9487" stroke="#595959"
     style="stroke-width:2;stroke-miterlimit:4;stroke-dasharray:1,1;stroke-dashoffset:0" />
  <line x1="289.2499" y1="162.9487" x2="289.2500" y2="182.9482" stroke="#595959"
     style="stroke-width:2;stroke-miterlimit:4;stroke-dasharray:1,1;stroke-dashoffset:0" />
  <line x1="289.2500" y1="242.9471" x2="289.2500" y2="262.9467" stroke="#595959"
     style="stroke-width:2;stroke-miterlimit:4;stroke-dasharray:1,1;stroke-dashoffset:0" />
  <line x1="289.2500" y1="322.9452" x2="289.2500" y2="342.9452" stroke="#595959"
     style="stroke-width:2;stroke-miterlimit:4;stroke-dasharray:1,1;stroke-dashoffset:0" />
  <line x1="289.2500" y1="402.9440" x2="289.2500" y2="422.9439" stroke="#595959"
     style="stroke-width:2;stroke-miterlimit:4;stroke-dasharray:1,1;stroke-dashoffset:0" />
  <line x1="256.7500" y1="464.5437" x2="289.2500" y2="464.5437" stroke="#e58400" stroke-width="1.0" />
  <circle cx="273.0000" cy="464.5437" r="2.25" stroke="#e58400" stroke-width="1.0" fill="#e58400"/>
  <line x1="256.7500" y1="424.5439" x2="289.2500" y2="424.5439" stroke="#eda600" stroke-width="1.0" />
  <circle cx="273.0000" cy="424.5439" r="2.25" stroke="#eda600" stroke-width="1.0" fill="#eda600"/>
  <line x1="256.7500" y1="364.5445" x2="289.2500" y2="364.5445" stroke="#eda600" stroke-width="1.0" />
  <circle cx="273.0000" cy="364.5445" r="2.25" stroke="#eda600" stroke-width="1.0" fill="#eda600"/>
  <line x1="256.7500" y1="344.5452" x2="289.2500" y2="344.5452" stroke="#eda600" stroke-width="1.0" />
  <circle cx="273.0000" cy="344.5452" r="2.25" stroke="#eda600" stroke-width="1.0" fill="#eda600"/>
  <line x1="256.7500" y1="322.9452" x2="289.2500" y2="322.9452" stroke="#d14c00" stroke-width="1.0" />
  <circle cx="273.0000" cy="322.9452" r="2.25" stroke="#d14c00" stroke-width="1.0" fill="#d14c00"/>
  <line x1="256.7500" y1="326.1452" x2="289.2500" y2="326.1452" stroke="#eda600" stroke-width="1.0" />
  <circle cx="276.7500" cy="326.1452" r="2.25" stroke="#eda600" stroke-width="1.0" fill="#eda600"
    transform="rotate(180.0000 273.0000 326.1452)" />
  <path d="M 267.0000 328.3952 L 267.0000 323.8952 L 271.5000 323.8952 L 271.5000 328.3952 z" style="stroke:#eda600; stroke-width:1.0" fill="#eda600" 
    transform="rotate(180.0000 273.0000 326.1452)"/>
  <line x1="256.7500" y1="301.3460" x2="289.2500" y2="301.3460" stroke="#bb2700" stroke-width="1.0" />
  <circle cx="273.0000" cy="301.3460" r="2.25" stroke="#bb2700" stroke-width="1.0" fill="#bb2700"/>
  <line x1="256.7500" y1="304.5460" x2="289.2500" y2="304.5460" stroke="#c53700" stroke-width="1.0" />
  <circle cx="273.0000" cy="304.5460" r="2.25" stroke="#c53700" stroke-width="1.0" fill="#c53700"/>
  <line x1="256.7500" y1="302.9460" x2="289.2500" y2="322.9452" stroke="#eda600" stroke-width="1.0" />
  <circle cx="273.0000" cy="312.9456" r="2.25" stroke="#eda600" stroke-width="1.0" fill="#eda600"/>
  <line x1="256.7500" y1="281.3461" x2="289.2500" y2="281.3461" stroke="#d14c00" stroke-width="1.0" />
  <circle cx="273.0000" cy="281.3461" r="2.25" stroke="#d14c00" stroke-width="1.0" fill="#d14c00"/>
  <line x1="256.7500" y1="284.5461" x2="289.2500" y2="284.5461" stroke="#9309df" stroke-width="1.0" />
  <circle cx="273.0000" cy="284.5461" r="2.25" stroke="#9309df" stroke-width="1.0" fill="#9309df"/>
  <line x1="256.7500" y1="262.9467" x2="256.7500" y2="242.9471" stroke="#eda600" stroke-width="1.0" />
  <circle cx="260.5000" cy="252.9469" r="2.25" stroke="#eda600" stroke-width="1.0" fill="#eda600"
    transform="rotate(90.0000 256.7500 252.9469)" />
  <path d="M 250.7500 255.1969 L 250.7500 250.6969 L 255.2500 250.6969 L 255.2500 255.1969 z" style="stroke:#eda600; stroke-width:1.0" fill="#eda600" 
    transform="rotate(90.0000 256.7500 252.9469)"/>
  <line x1="256.7500" y1="261.3467" x2="289.2500" y2="261.3467" stroke="#d14c00" stroke-width="1.0" />
  <circle cx="273.0000" cy="261.3467" r="2.25" stroke="#d14c00" stroke-width="1.0" fill="#d14c00"/>
  <line x1="256.7500" y1="264.5467" x2="289.2500" y2="264.5467" stroke="#9309df" stroke-width="1.0" />
  <circle cx="273.0000" cy="264.5467" r="2.25" stroke="#9309df" stroke-width="1.0" fill="#9309df"/>
  <line x1="256.7500" y1="241.3471" x2="289.2500" y2="241.3471" stroke="#7102f1" stroke-width="1.0" />
  <circle cx="273.0000" cy="241.3471" r="2.25" stroke="#7102f1" stroke-width="1.0" fill="#7102f1"/>
  <line x1="256.7500" y1="244.5471" x2="289.2500" y2="244.5471" stroke="#e58400" stroke-width="1.0" />
  <circle cx="273.0000" cy="244.5471" r="2.25" stroke="#e58400" stroke-width="1.0" fill="#e58400"/>
  <line x1="256.7500" y1="221.3475" x2="289.2500" y2="221.3475" stroke="#e58400" stroke-width="1.0" />
  <circle cx="273.0000" cy="221.3475" r="2.25" stroke="#e58400" stroke-width="1.0" fill="#e58400"/>
  <line x1="256.6978" y1="124.5492" x2="289.3022" y2="124.5492" stroke="#e58400" stroke-width="1.0" />
  <circle cx="273.0000" cy="124.5492" r="2.25" stroke="#e58400" stroke-width="1.0" fill="#e58400"/>
  <line x1="256.6019" y1="104.5494" x2="289.3981" y2="104.5494" stroke="#eda600" stroke-width="1.0" />
  <circle cx="273.0000" cy="104.5494" r="2.25" stroke="#eda600" stroke-width="1.0" fill="#eda600"/>
  <line x1="256.7500" y1="462.9437" x2="256.7500" y2="442.9437" stroke="#000000" stroke-width="1.0" />
  <rect
     style="fill:#ffffff;fill-opacity:1;fill-rule:nonzero;stroke:none"
     width="2"
     height="2"
     x="256.2500"
     y="451.9437"
     transform="rotate(270.0000 256.7500 452.9437)" /> 
  <path
     style="fill:none;stroke:#000000;stroke-width:1px;stroke-linecap:butt;stroke-linejoin:miter;stroke-opacity:1"
     d="m 256.7500,450.9437 2,2 -2,2 m -2.370121,-4 2,2 -2,2"
     transform="rotate(270.0000 256.7500 452.9437)"/>
  <line x1="256.7500" y1="461.3437" x2="289.2500" y2="461.3437" stroke="#7102f1" stroke-width="1.0" />
  <line x1="256.7500" y1="442.9437" x2="256.7500" y2="422.9439" stroke="#7102f1" stroke-width="1.0" />
  <rect
     style="fill:#ffffff;fill-opacity:1;fill-rule:nonzero;stroke:none"
     width="2"
     height="2"
     x="256.2500"
     y="431.9438"
     transform="rotate(-90.0000 256.7500 432.9438)" /> 
  <path
     style="fill:none;stroke:#7102f1;stroke-width:1px;stroke-linecap:butt;stroke-linejoin:miter;stroke-opacity:1"
     d="m 256.7500,430.9438 2,2 -2,2 m -2.370121,-4 2,2 -2,2"
     transform="rotate(-90.0000 256.7500 432.9438)"/>
  <line x1="256.7500" y1="444.1937" x2="289.2500" y2="444.1937" stroke="#000000" stroke-width="1.0" />
  <line x1="256.7500" y1="441.6937" x2="289.2500" y2="441.6937" stroke="#000000" stroke-width="1.0" />
  <line x1="256.7500" y1="421.3439" x2="289.2500" y2="421.3439" stroke="#5d01be" stroke-width="1.0" />
  <line x1="256.7500" y1="402.9440" x2="256.7500" y2="382.9444" stroke="#d14c00" stroke-width="1.0" />
  <rect
     style="fill:#ffffff;fill-opacity:1;fill-rule:nonzero;stroke:none"
     width="2"
     height="2"
     x="256.2500"
     y="391.9442"
     transform="rotate(270.0000 256.7500 392.9442)" /> 
  <path
     style="fill:none;stroke:#d14c00;stroke-width:1px;stroke-linecap:butt;stroke-linejoin:miter;stroke-opacity:1"
     d="m 256.7500,390.9442 2,2 -2,2 m -2.370121,-4 2,2 -2,2"
     transform="rotate(270.0000 256.7500 392.9442)"/>
  <line x1="256.7500" y1="404.1940" x2="289.2500" y2="404.1940" stroke="#000000" stroke-width="1.0" />
  <line x1="256.7500" y1="401.6940" x2="289.2500" y2="401.6940" stroke="#000000" stroke-width="1.0" />
  <line x1="256.7500" y1="402.9440" x2="289.2500" y2="422.9439" stroke="#000000" stroke-width="1.0" />
  <rect
     style="fill:#ffffff;stroke:none"
     width="5.5"
     height="2"
     x="270.2500"
     y="411.9440" 
     transform="rotate(31.6074 273.0000 412.9440)"    /> 
  <path
     style="fill:none;stroke:#000000;stroke-width:1px;stroke-linecap:butt;stroke-linejoin:miter;stroke-opacity:1"
    d="m 273.7500,410.9440 2,2 -2,2 m -1.5,-4 -2,2 2,2" transform="rotate(31.6074 273.0000 412.9440)"/>
  <line x1="256.7500" y1="382.9444" x2="256.7500" y2="362.9445" stroke="#da6400" stroke-width="1.0" />
  <rect
     style="fill:#ffffff;fill-opacity:1;fill-rule:nonzero;stroke:none"
     width="2"
     height="2"
     x="256.2500"
     y="371.9445"
     transform="rotate(-90.0000 256.7500 372.9445)" /> 
  <path
     style="fill:none;stroke:#da6400;stroke-width:1px;stroke-linecap:butt;stroke-linejoin:miter;stroke-opacity:1"
     d="m 256.7500,370.9445 2,2 -2,2 m -2.370121,-4 2,2 -2,2"
     transform="rotate(-90.0000 256.7500 372.9445)"/>
  <line x1="256.7500" y1="384.1944" x2="289.2500" y2="384.1944" stroke="#400062" stroke-width="1.0" />
  <line x1="256.7500" y1="381.6944" x2="289.2500" y2="381.6944" stroke="#400062" stroke-width="1.0" />
  <line x1="256.7500" y1="362.9445" x2="256.7500" y2="342.9452" stroke="#000000" stroke-width="1.0" />
  <rect
     style="fill:#ffffff;fill-opacity:1;fill-rule:nonzero;stroke:none"
     width="2"
     height="2"
     x="256.2500"
     y="351.9448"
     transform="rotate(270.0000 256.7500 352.9448)" /> 
  <path
     style="fill:none;stroke:#000000;stroke-width:1px;stroke-linecap:butt;stroke-linejoin:miter;stroke-opacity:1"
     d="m 256.7500,350.9448 2,2 -2,2 m -2.370121,-4 2,2 -2,2"
     transform="rotate(270.0000 256.7500 352.9448)"/>
  <line x1="256.7500" y1="361.3445" x2="289.2500" y2="361.3445" stroke="#5d01be" stroke-width="1.0" />
  <line x1="256.7500" y1="362.9445" x2="289.2500" y2="382.9444" stroke="#e58400" stroke-width="1.0" />
  <rect
     style="fill:#ffffff;stroke:none"
     width="5.5"
     height="2"
     x="270.2500"
     y="371.9445" 
     transform="rotate(31.6074 273.0000 372.9445)"    /> 
  <path
     style="fill:none;stroke:#e58400;stroke-width:1px;stroke-linecap:butt;stroke-linejoin:miter;stroke-opacity:1"
    d="m 273.7500,370.9445 2,2 -2,2 m -1.5,-4 -2,2 2,2" transform="rotate(31.6074 273.0000 372.9445)"/>
  <line x1="256.7500" y1="342.5952" x2="289.2500" y2="342.5952" stroke="#5d01be" stroke-width="1.0" />
  <line x1="256.7500" y1="340.0952" x2="289.2500" y2="340.0952" stroke="#5d01be" stroke-width="1.0" />
  <line x1="256.7500" y1="322.9452" x2="256.7500" y2="302.9460" stroke="#9309df" stroke-width="1.0" />
  <rect
     style="fill:#ffffff;fill-opacity:1;fill-rule:nonzero;stroke:none"
     width="2"
     height="2"
     x="256.2500"
     y="311.9456"
     transform="rotate(-90.0000 256.7500 312.9456)" /> 
  <path
     style="fill:none;stroke:#9309df;stroke-width:1px;stroke-linecap:butt;stroke-linejoin:miter;stroke-opacity:1"
     d="m 256.7500,310.9456 2,2 -2,2 m -2.370121,-4 2,2 -2,2"
     transform="rotate(-90.0000 256.7500 312.9456)"/>
  <line x1="256.7500" y1="319.7452" x2="289.2500" y2="319.7452" stroke="#c53700" stroke-width="1.0" />
  <line x1="256.7500" y1="322.9452" x2="289.2500" y2="342.9452" stroke="#da6400" stroke-width="1.0" />
  <rect
     style="fill:#ffffff;stroke:none"
     width="5.5"
     height="2"
     x="270.2500"
     y="331.9452" 
     transform="rotate(31.6074 273.0000 332.9452)"    /> 
  <path
     style="fill:none;stroke:#da6400;stroke-width:1px;stroke-linecap:butt;stroke-linejoin:miter;stroke-opacity:1"
    d="m 273.7500,330.9452 2,2 -2,2 m -1.5,-4 -2,2 2,2" transform="rotate(31.6074 273.0000 332.9452)"/>
  <line x1="256.7500" y1="302.9460" x2="256.7500" y2="282.9461" stroke="#ae1a38" stroke-width="1.0" />
  <rect
     style="fill:#ffffff;fill-opacity:1;fill-rule:nonzero;stroke:none"
     width="2"
     height="2"
     x="256.2500"
     y="291.9461"
     transform="rotate(270.0000 256.7500 292.9461)" /> 
  <path
     style="fill:none;stroke:#ae1a38;stroke-width:1px;stroke-linecap:butt;stroke-linejoin:miter;stroke-opacity:1"
     d="m 256.7500,290.9461 2,2 -2,2 m -2.370121,-4 2,2 -2,2"
     transform="rotate(270.0000 256.7500 292.9461)"/>
  <line x1="256.7500" y1="282.9461" x2="256.7500" y2="262.9467" stroke="#400062" stroke-width="1.0" />
  <rect
     style="fill:#ffffff;fill-opacity:1;fill-rule:nonzero;stroke:none"
     width="2"
     height="2"
     x="256.2500"
     y="271.9464"
     transform="rotate(270.0000 256.7500 272.9464)" /> 
  <path
     style="fill:none;stroke:#400062;stroke-width:1px;stroke-linecap:butt;stroke-linejoin:miter;stroke-opacity:1"
     d="m 256.7500,270.9464 2,2 -2,2 m -2.370121,-4 2,2 -2,2"
     transform="rotate(270.0000 256.7500 272.9464)"/>
  <line x1="256.7500" y1="242.9471" x2="256.7500" y2="222.9475" stroke="#000000" stroke-width="1.0" />
  <rect
     style="fill:#ffffff;fill-opacity:1;fill-rule:nonzero;stroke:none"
     width="2"
     height="2"
     x="256.2500"
     y="231.9473"
     transform="rotate(270.0000 256.7500 232.9473)" /> 
  <path
     style="fill:none;stroke:#000000;stroke-width:1px;stroke-linecap:butt;stroke-linejoin:miter;stroke-opacity:1"
     d="m 256.7500,230.9473 2,2 -2,2 m -2.370121,-4 2,2 -2,2"
     transform="rotate(270.0000 256.7500 232.9473)"/>
  <line x1="256.7500" y1="242.9471" x2="289.2500" y2="262.9467" stroke="#400062" stroke-width="1.0" />
  <rect
     style="fill:#ffffff;stroke:none"
     width="5.5"
     height="2"
     x="270.2500"
     y="251.9469" 
     transform="rotate(31.6070 273.0000 252.9469)"    /> 
  <path
     style="fill:none;stroke:#400062;stroke-width:1px;stroke-linecap:butt;stroke-linejoin:miter;stroke-opacity:1"
    d="m 273.7500,250.9469 2,2 -2,2 m -1.5,-4 -2,2 2,2" transform="rotate(31.6070 273.0000 252.9469)"/>
  <line x1="256.7500" y1="222.9475" x2="256.7500" y2="202.9480" stroke="#8405fd" stroke-width="1.0" />
  <rect
     style="fill:#ffffff;fill-opacity:1;fill-rule:nonzero;stroke:none"
     width="2"
     height="2"
     x="256.2500"
     y="211.9478"
     transform="rotate(270.0000 256.7500 212.9478)" /> 
  <path
     style="fill:none;stroke:#8405fd;stroke-width:1px;stroke-linecap:butt;stroke-linejoin:miter;stroke-opacity:1"
     d="m 256.7500,210.9478 2,2 -2,2 m -2.370121,-4 2,2 -2,2"
     transform="rotate(270.0000 256.7500 212.9478)"/>
  <line x1="256.7500" y1="225.7975" x2="289.2500" y2="225.7975" stroke="#7102f1" stroke-width="1.0" />
  <line x1="256.7500" y1="223.2975" x2="289.2500" y2="223.2975" stroke="#7102f1" stroke-width="1.0" />
  <line x1="256.7500" y1="202.9480" x2="256.7500" y2="182.9482" stroke="#000000" stroke-width="1.0" />
  <rect
     style="fill:#ffffff;fill-opacity:1;fill-rule:nonzero;stroke:none"
     width="2"
     height="2"
     x="256.2500"
     y="191.9481"
     transform="rotate(-90.0000 256.7500 192.9481)" /> 
  <path
     style="fill:none;stroke:#000000;stroke-width:1px;stroke-linecap:butt;stroke-linejoin:miter;stroke-opacity:1"
     d="m 256.7500,190.9481 2,2 -2,2 m -2.370121,-4 2,2 -2,2"
     transform="rotate(-90.0000 256.7500 192.9481)"/>
  <line x1="256.7500" y1="202.9480" x2="289.2500" y2="202.9480" stroke="#400062" stroke-width="1.0" />
  <line x1="256.7500" y1="202.9480" x2="289.2500" y2="222.9475" stroke="#eda600" stroke-width="1.0" />
  <rect
     style="fill:#ffffff;stroke:none"
     width="5.5"
     height="2"
     x="270.2500"
     y="211.9478" 
     transform="rotate(31.6069 273.0000 212.9478)"    /> 
  <path
     style="fill:none;stroke:#eda600;stroke-width:1px;stroke-linecap:butt;stroke-linejoin:miter;stroke-opacity:1"
    d="m 273.7500,210.9478 2,2 -2,2 m -1.5,-4 -2,2 2,2" transform="rotate(31.6069 273.0000 212.9478)"/>
  <line x1="256.7500" y1="182.9482" x2="256.7501" y2="162.9487" stroke="#000000" stroke-width="1.0" />
  <rect
     style="fill:#ffffff;fill-opacity:1;fill-rule:nonzero;stroke:none"
     width="2"
     height="2"
     x="256.2500"
     y="171.9485"
     transform="rotate(-89.9998 256.7500 172.9485)" /> 
  <path
     style="fill:none;stroke:#000000;stroke-width:1px;stroke-linecap:butt;stroke-linejoin:miter;stroke-opacity:1"
     d="m 256.7500,170.9485 2,2 -2,2 m -2.370121,-4 2,2 -2,2"
     transform="rotate(-89.9998 256.7500 172.9485)"/>
  <line x1="256.7500" y1="184.1982" x2="289.2500" y2="184.1982" stroke="#400062" stroke-width="1.0" />
  <line x1="256.7500" y1="181.6982" x2="289.2500" y2="181.6982" stroke="#400062" stroke-width="1.0" />
  <line x1="256.7501" y1="164.1987" x2="289.2499" y2="164.1987" stroke="#400062" stroke-width="1.0" />
  <line x1="256.7501" y1="161.6987" x2="289.2499" y2="161.6987" stroke="#400062" stroke-width="1.0" />
  <line x1="256.7499" y1="142.9488" x2="256.6978" y2="122.9492" stroke="#9309df" stroke-width="1.0" />
  <rect
     style="fill:#ffffff;fill-opacity:1;fill-rule:nonzero;stroke:none"
     width="2"
     height="2"
     x="256.2239"
     y="131.9490"
     transform="rotate(269.8508 256.7239 132.9490)" /> 
  <path
     style="fill:none;stroke:#9309df;stroke-width:1px;stroke-linecap:butt;stroke-linejoin:miter;stroke-opacity:1"
     d="m 256.7239,130.9490 2,2 -2,2 m -2.370121,-4 2,2 -2,2"
     transform="rotate(269.8508 256.7239 132.9490)"/>
  <line x1="256.7499" y1="144.1988" x2="289.2501" y2="144.1988" stroke="#000000" stroke-width="1.0" />
  <line x1="256.7499" y1="141.6988" x2="289.2501" y2="141.6988" stroke="#000000" stroke-width="1.0" />
  <line x1="256.7499" y1="142.9488" x2="289.2499" y2="162.9487" stroke="#000000" stroke-width="1.0" />
  <rect
     style="fill:#ffffff;stroke:none"
     width="5.5"
     height="2"
     x="270.2499"
     y="151.9488" 
     transform="rotate(31.6074 272.9999 152.9488)"    /> 
  <path
     style="fill:none;stroke:#000000;stroke-width:1px;stroke-linecap:butt;stroke-linejoin:miter;stroke-opacity:1"
    d="m 273.7499,150.9488 2,2 -2,2 m -1.5,-4 -2,2 2,2" transform="rotate(31.6074 272.9999 152.9488)"/>
  <line x1="256.6978" y1="122.9492" x2="256.6019" y2="102.9494" stroke="#bb2700" stroke-width="1.0" />
  <rect
     style="fill:#ffffff;fill-opacity:1;fill-rule:nonzero;stroke:none"
     width="2"
     height="2"
     x="256.1499"
     y="111.9493"
     transform="rotate(269.7252 256.6499 112.9493)" /> 
  <path
     style="fill:none;stroke:#bb2700;stroke-width:1px;stroke-linecap:butt;stroke-linejoin:miter;stroke-opacity:1"
     d="m 256.6499,110.9493 2,2 -2,2 m -2.370121,-4 2,2 -2,2"
     transform="rotate(269.7252 256.6499 112.9493)"/>
  <line x1="256.6978" y1="121.3492" x2="289.3022" y2="121.3492" stroke="#7102f1" stroke-width="1.0" />
  <line x1="256.6019" y1="102.9494" x2="263.0185" y2="84.0194" stroke="#bb2700" stroke-width="1.0" />
  <rect
     style="fill:#ffffff;fill-opacity:1;fill-rule:nonzero;stroke:none"
     width="2"
     height="2"
     x="259.3102"
     y="92.4844"
     transform="rotate(-71.2751 259.8102 93.4844)" /> 
  <path
     style="fill:none;stroke:#bb2700;stroke-width:1px;stroke-linecap:butt;stroke-linejoin:miter;stroke-opacity:1"
     d="m 259.8102,91.4844 2,2 -2,2 m -2.370121,-4 2,2 -2,2"
     transform="rotate(-71.2751 259.8102 93.4844)"/>
  <line x1="256.6019" y1="102.5994" x2="289.3981" y2="102.5994" stroke="#5d01be" stroke-width="1.0" />
  <line x1="256.6019" y1="100.0994" x2="289.3981" y2="100.0994" stroke="#5d01be" stroke-width="1.0" />
  <line x1="263.0185" y1="85.2694" x2="282.9815" y2="85.2694" stroke="#000000" stroke-width="1.0" />
  <line x1="263.0185" y1="82.7694" x2="282.9815" y2="82.7694" stroke="#000000" stroke-width="1.0" />
  <line x1="282.9815" y1="84.0194" x2="289.3981" y2="102.9494" stroke="#a21194" stroke-width="1.0" />
  <rect
     style="fill:#ffffff;fill-opacity:1;fill-rule:nonzero;stroke:none"
     width="2"
     height="2"
     x="285.6898"
     y="92.4844"
     transform="rotate(71.2751 286.1898 93.4844)" /> 
  <path
     style="fill:none;stroke:#a21194;stroke-width:1px;stroke-linecap:butt;stroke-linejoin:miter;stroke-opacity:1"
     d="m 286.1898,91.4844 2,2 -2,2 m -2.370121,-4 2,2 -2,2"
     transform="rotate(71.2751 286.1898 93.4844)"/>
  <line x1="289.3981" y1="102.9494" x2="289.3022" y2="122.9492" stroke="#8405fd" stroke-width="1.0" />
  <rect
     style="fill:#ffffff;fill-opacity:1;fill-rule:nonzero;stroke:none"
     width="2"
     height="2"
     x="288.8501"
     y="111.9493"
     transform="rotate(90.2748 289.3501 112.9493)" /> 
  <path
     style="fill:none;stroke:#8405fd;stroke-width:1px;stroke-linecap:butt;stroke-linejoin:miter;stroke-opacity:1"
     d="m 289.3501,110.9493 2,2 -2,2 m -2.370121,-4 2,2 -2,2"
     transform="rotate(90.2748 289.3501 112.9493)"/>
  <line x1="289.3022" y1="122.9492" x2="289.2501" y2="142.9488" stroke="#9309df" stroke-width="1.0" />
  <rect
     style="fill:#ffffff;fill-opacity:1;fill-rule:nonzero;stroke:none"
     width="2"
     height="2"
     x="288.7761"
     y="131.9490"
     transform="rotate(90.1492 289.2761 132.9490)" /> 
  <path
     style="fill:none;stroke:#9309df;stroke-width:1px;stroke-linecap:butt;stroke-linejoin:miter;stroke-opacity:1"
     d="m 289.2761,130.9490 2,2 -2,2 m -2.370121,-4 2,2 -2,2"
     transform="rotate(90.1492 289.2761 132.9490)"/>
  <line x1="289.2500" y1="182.9482" x2="289.2500" y2="202.9480" stroke="#bb2700" stroke-width="1.0" />
  <rect
     style="fill:#ffffff;fill-opacity:1;fill-rule:nonzero;stroke:none"
     width="2"
     height="2"
     x="288.7500"
     y="191.9481"
     transform="rotate(90.0000 289.2500 192.9481)" /> 
  <path
     style="fill:none;stroke:#bb2700;stroke-width:1px;stroke-linecap:butt;stroke-linejoin:miter;stroke-opacity:1"
     d="m 289.2500,190.9481 2,2 -2,2 m -2.370121,-4 2,2 -2,2"
     transform="rotate(90.0000 289.2500 192.9481)"/>
  <line x1="289.2500" y1="202.9480" x2="289.2500" y2="222.9475" stroke="#7102f1" stroke-width="1.0" />
  <rect
     style="fill:#ffffff;fill-opacity:1;fill-rule:nonzero;stroke:none"
     width="2"
     height="2"
     x="288.7500"
     y="211.9478"
     transform="rotate(90.0000 289.2500 212.9478)" /> 
  <path
     style="fill:none;stroke:#7102f1;stroke-width:1px;stroke-linecap:butt;stroke-linejoin:miter;stroke-opacity:1"
     d="m 289.2500,210.9478 2,2 -2,2 m -2.370121,-4 2,2 -2,2"
     transform="rotate(90.0000 289.2500 212.9478)"/>
  <line x1="289.2500" y1="222.9475" x2="289.2500" y2="242.9471" stroke="#000000" stroke-width="1.0" />
  <rect
     style="fill:#ffffff;fill-opacity:1;fill-rule:nonzero;stroke:none"
     width="2"
     height="2"
     x="288.7500"
     y="231.9473"
     transform="rotate(90.0000 289.2500 232.9473)" /> 
  <path
     style="fill:none;stroke:#000000;stroke-width:1px;stroke-linecap:butt;stroke-linejoin:miter;stroke-opacity:1"
     d="m 289.2500,230.9473 2,2 -2,2 m -2.370121,-4 2,2 -2,2"
     transform="rotate(90.0000 289.2500 232.9473)"/>
  <line x1="289.2500" y1="262.9467" x2="289.2500" y2="282.9461" stroke="#5d01be" stroke-width="1.0" />
  <rect
     style="fill:#ffffff;fill-opacity:1;fill-rule:nonzero;stroke:none"
     width="2"
     height="2"
     x="288.7500"
     y="271.9464"
     transform="rotate(90.0000 289.2500 272.9464)" /> 
  <path
     style="fill:none;stroke:#5d01be;stroke-width:1px;stroke-linecap:butt;stroke-linejoin:miter;stroke-opacity:1"
     d="m 289.2500,270.9464 2,2 -2,2 m -2.370121,-4 2,2 -2,2"
     transform="rotate(90.0000 289.2500 272.9464)"/>
  <line x1="289.2500" y1="282.9461" x2="289.2500" y2="302.9460" stroke="#9309df" stroke-width="1.0" />
  <rect
     style="fill:#ffffff;fill-opacity:1;fill-rule:nonzero;stroke:none"
     width="2"
     height="2"
     x="288.7500"
     y="291.9461"
     transform="rotate(90.0000 289.2500 292.9461)" /> 
  <path
     style="fill:none;stroke:#9309df;stroke-width:1px;stroke-linecap:butt;stroke-linejoin:miter;stroke-opacity:1"
     d="m 289.2500,290.9461 2,2 -2,2 m -2.370121,-4 2,2 -2,2"
     transform="rotate(90.0000 289.2500 292.9461)"/>
  <line x1="289.2500" y1="302.9460" x2="289.2500" y2="322.9452" stroke="#eda600" stroke-width="1.0" />
  <rect
     style="fill:#ffffff;fill-opacity:1;fill-rule:nonzero;stroke:none"
     width="2"
     height="2"
     x="288.7500"
     y="311.9456"
     transform="rotate(90.0000 289.2500 312.9456)" /> 
  <path
     style="fill:none;stroke:#eda600;stroke-width:1px;stroke-linecap:butt;stroke-linejoin:miter;stroke-opacity:1"
     d="m 289.2500,310.9456 2,2 -2,2 m -2.370121,-4 2,2 -2,2"
     transform="rotate(90.0000 289.2500 312.9456)"/>
  <line x1="289.2500" y1="342.9452" x2="289.2500" y2="362.9445" stroke="#000000" stroke-width="1.0" />
  <rect
     style="fill:#ffffff;fill-opacity:1;fill-rule:nonzero;stroke:none"
     width="2"
     height="2"
     x="288.7500"
     y="351.9448"
     transform="rotate(90.0000 289.2500 352.9448)" /> 
  <path
     style="fill:none;stroke:#000000;stroke-width:1px;stroke-linecap:butt;stroke-linejoin:miter;stroke-opacity:1"
     d="m 289.2500,350.9448 2,2 -2,2 m -2.370121,-4 2,2 -2,2"
     transform="rotate(90.0000 289.2500 352.9448)"/>
  <line x1="289.2500" y1="362.9445" x2="289.2500" y2="382.9444" stroke="#5d01be" stroke-width="1.0" />
  <rect
     style="fill:#ffffff;fill-opacity:1;fill-rule:nonzero;stroke:none"
     width="2"
     height="2"
     x="288.7500"
     y="371.9445"
     transform="rotate(90.0000 289.2500 372.9445)" /> 
  <path
     style="fill:none;stroke:#5d01be;stroke-width:1px;stroke-linecap:butt;stroke-linejoin:miter;stroke-opacity:1"
     d="m 289.2500,370.9445 2,2 -2,2 m -2.370121,-4 2,2 -2,2"
     transform="rotate(90.0000 289.2500 372.9445)"/>
  <line x1="289.2500" y1="382.9444" x2="289.2500" y2="402.9440" stroke="#7102f1" stroke-width="1.0" />
  <rect
     style="fill:#ffffff;fill-opacity:1;fill-rule:nonzero;stroke:none"
     width="2"
     height="2"
     x="288.7500"
     y="391.9442"
     transform="rotate(90.0000 289.2500 392.9442)" /> 
  <path
     style="fill:none;stroke:#7102f1;stroke-width:1px;stroke-linecap:butt;stroke-linejoin:miter;stroke-opacity:1"
     d="m 289.2500,390.9442 2,2 -2,2 m -2.370121,-4 2,2 -2,2"
     transform="rotate(90.0000 289.2500 392.9442)"/>
  <line x1="289.2500" y1="422.9439" x2="289.2500" y2="442.9437" stroke="#9309df" stroke-width="1.0" />
  <rect
     style="fill:#ffffff;fill-opacity:1;fill-rule:nonzero;stroke:none"
     width="2"
     height="2"
     x="288.7500"
     y="431.9438"
     transform="rotate(90.0000 289.2500 432.9438)" /> 
  <path
     style="fill:none;stroke:#9309df;stroke-width:1px;stroke-linecap:butt;stroke-linejoin:miter;stroke-opacity:1"
     d="m 289.2500,430.9438 2,2 -2,2 m -2.370121,-4 2,2 -2,2"
     transform="rotate(90.0000 289.2500 432.9438)"/>
  <line x1="289.2500" y1="442.9437" x2="289.2500" y2="462.9437" stroke="#5d01be" stroke-width="1.0" />
  <rect
     style="fill:#ffffff;fill-opacity:1;fill-rule:nonzero;stroke:none"
     width="2"
     height="2"
     x="288.7500"
     y="451.9437"
     transform="rotate(90.0000 289.2500 452.9437)" /> 
  <path
     style="fill:none;stroke:#5d01be;stroke-width:1px;stroke-linecap:butt;stroke-linejoin:miter;stroke-opacity:1"
     d="m 289.2500,450.9437 2,2 -2,2 m -2.370121,-4 2,2 -2,2"
     transform="rotate(90.0000 289.2500 452.9437)"/>
<circle cx="256.7500" cy="462.9437" r="5.0" stroke="#595959" stroke-width="1.0" fill="#ffffff"/>
<text x="256.7500" y="465.6437" text-anchor="middle" font-family="Helvetica" font-size="7.5" fill="#000000" >A</text>
<circle cx="256.7500" cy="442.9437" r="5.0" stroke="#595959" stroke-width="1.0" fill="#ffffff"/>
<text x="256.7500" y="445.6437" text-anchor="middle" font-family="Helvetica" font-size="7.5" fill="#000000" >C</text>
<circle cx="256.7500" cy="422.9439" r="5.0" stroke="#595959" stroke-width="1.0" fill="#ffffff"/>
<text x="256.7500" y="425.6439" text-anchor="middle" font-family="Helvetica" font-size="7.5" fill="#000000" >U</text>
<circle cx="256.7500" cy="402.9440" r="5.0" stroke="#595959" stroke-width="1.0" fill="#ffffff"/>
<text x="256.7500" y="405.6440" text-anchor="middle" font-family="Helvetica" font-size="7.5" fill="#000000" >G</text>
<circle cx="256.7500" cy="382.9444" r="5.0" stroke="#595959" stroke-width="1.0" fill="#ffffff"/>
<text x="256.7500" y="385.6444" text-anchor="middle" font-family="Helvetica" font-size="7.5" fill="#000000" >G</text>
<circle cx="256.7500" cy="362.9445" r="5.0" stroke="#595959" stroke-width="1.0" fill="#ffffff"/>
<text x="256.7500" y="365.6445" text-anchor="middle" font-family="Helvetica" font-size="7.5" fill="#000000" >A</text>
<circle cx="256.7500" cy="342.9452" r="5.0" stroke="#595959" stroke-width="1.0" fill="#ffffff"/>
<text x="256.7500" y="345.6452" text-anchor="middle" font-family="Helvetica" font-size="7.5" fill="#000000" >C</text>
<circle cx="256.7500" cy="322.9452" r="5.0" stroke="#595959" stroke-width="1.0" fill="#ffffff"/>
<text x="256.7500" y="325.6452" text-anchor="middle" font-family="Helvetica" font-size="7.5" fill="#000000" >A</text>
<circle cx="256.7500" cy="302.9460" r="5.0" stroke="#595959" stroke-width="1.0" fill="#ffffff"/>
<text x="256.7500" y="305.6460" text-anchor="middle" font-family="Helvetica" font-size="7.5" fill="#000000" >I</text>
<circle cx="256.7500" cy="282.9461" r="5.0" stroke="#595959" stroke-width="1.0" fill="aliceblue"/>
<text x="256.7500" y="285.6461" text-anchor="middle" font-family="Helvetica" font-size="7.5" fill="#000000" >I</text>
<circle cx="256.7500" cy="262.9467" r="5.0" stroke="#595959" stroke-width="1.0" fill="#ffffff"/>
<text x="256.7500" y="265.6467" text-anchor="middle" font-family="Helvetica" font-size="7.5" fill="#000000" >U</text>
<circle cx="256.7500" cy="242.9471" r="5.0" stroke="#595959" stroke-width="1.0" fill="aquamarine"/>
<text x="256.7500" y="245.6471" text-anchor="middle" font-family="Helvetica" font-size="7.5" fill="#000000" >I</text>
<circle cx="256.7500" cy="222.9475" r="5.0" stroke="#595959" stroke-width="1.0" fill="#ffffff"/>
<text x="256.7500" y="225.6475" text-anchor="middle" font-family="Helvetica" font-size="7.5" fill="#000000" >C</text>
<circle cx="256.7500" cy="202.9480" r="5.0" stroke="#595959" stroke-width="1.0" fill="#ffffff"/>
<text x="256.7500" y="205.6480" text-anchor="middle" font-family="Helvetica" font-size="7.5" fill="#000000" >U</text>
<circle cx="256.7500" cy="182.9482" r="5.0" stroke="#595959" stroke-width="1.0" fill="#ffffff"/>
<text x="256.7500" y="185.6482" text-anchor="middle" font-family="Helvetica" font-size="7.5" fill="#000000" >C</text>
<circle cx="256.7501" cy="162.9487" r="5.0" stroke="#595959" stroke-width="1.0" fill="#ffffff"/>
<text x="256.7501" y="165.6487" text-anchor="middle" font-family="Helvetica" font-size="7.5" fill="#000000" >C</text>
<circle cx="256.7499" cy="142.9488" r="5.0" stroke="#595959" stroke-width="1.0" fill="#ffffff"/>
<text x="256.7499" y="145.6488" text-anchor="middle" font-family="Helvetica" font-size="7.5" fill="#000000" >G</text>
<circle cx="256.6978" cy="122.9492" r="5.0" stroke="#595959" stroke-width="1.0" fill="#ffffff"/>
<text x="256.6978" y="125.6492" text-anchor="middle" font-family="Helvetica" font-size="7.5" fill="#000000" >A</text>
<circle cx="256.6019" cy="102.9494" r="5.0" stroke="#595959" stroke-width="1.0" fill="#ffffff"/>
<text x="256.6019" y="105.6494" text-anchor="middle" font-family="Helvetica" font-size="7.5" fill="#000000" >G</text>
<circle cx="263.0185" cy="84.0194" r="5.0" stroke="#595959" stroke-width="1.0" fill="#ffffff"/>
<text x="263.0185" y="86.7194" text-anchor="middle" font-family="Helvetica" font-size="7.5" fill="#000000" >G</text>
<circle cx="282.9815" cy="84.0194" r="5.0" stroke="#595959" stroke-width="1.0" fill="#ffffff"/>
<text x="282.9815" y="86.7194" text-anchor="middle" font-family="Helvetica" font-size="7.5" fill="#000000" >C</text>
<circle cx="289.3981" cy="102.9494" r="5.0" stroke="#595959" stroke-width="1.0" fill="#ffffff"/>
<text x="289.3981" y="105.6494" text-anchor="middle" font-family="Helvetica" font-size="7.5" fill="#000000" >C</text>
<circle cx="289.3022" cy="122.9492" r="5.0" stroke="#595959" stroke-width="1.0" fill="#ffffff"/>
<text x="289.3022" y="125.6492" text-anchor="middle" font-family="Helvetica" font-size="7.5" fill="#000000" >U</text>
<circle cx="289.2501" cy="142.9488" r="5.0" stroke="#595959" stroke-width="1.0" fill="#ffffff"/>
<text x="289.2501" y="145.6488" text-anchor="middle" font-family="Helvetica" font-size="7.5" fill="#000000" >C</text>
<circle cx="289.2499" cy="162.9487" r="5.0" stroke="#595959" stroke-width="1.0" fill="#ffffff"/>
<text x="289.2499" y="165.6487" text-anchor="middle" font-family="Helvetica" font-size="7.5" fill="#000000" >G</text>
<circle cx="289.2500" cy="182.9482" r="5.0" stroke="#595959" stroke-width="1.0" fill="#ffffff"/>
<text x="289.2500" y="185.6482" text-anchor="middle" font-family="Helvetica" font-size="7.5" fill="#000000" >G</text>
<circle cx="289.2500" cy="202.9480" r="5.0" stroke="#595959" stroke-width="1.0" fill="#ffffff"/>
<text x="289.2500" y="205.6480" text-anchor="middle" font-family="Helvetica" font-size="7.5" fill="#000000" >A</text>
<circle cx="289.2500" cy="222.9475" r="5.0" stroke="#595959" stroke-width="1.0" fill="#ffffff"/>
<text x="289.2500" y="225.6475" text-anchor="middle" font-family="Helvetica" font-size="7.5" fill="#000000" >G</text>
<circle cx="289.2500" cy="242.9471" r="5.0" stroke="#595959" stroke-width="1.0" fill="#ffffff"/>
<text x="289.2500" y="245.6471" text-anchor="middle" font-family="Helvetica" font-size="7.5" fill="#000000" >U</text>
<circle cx="289.2500" cy="262.9467" r="5.0" stroke="#595959" stroke-width="1.0" fill="#ffffff"/>
<text x="289.2500" y="265.6467" text-anchor="middle" font-family="Helvetica" font-size="7.5" fill="#000000" >I</text>
<circle cx="289.2500" cy="282.9461" r="5.0" stroke="#595959" stroke-width="1.0" fill="#ffffff"/>
<text x="289.2500" y="285.6461" text-anchor="middle" font-family="Helvetica" font-size="7.5" fill="#000000" >U</text>
<circle cx="289.2500" cy="302.9460" r="5.0" stroke="#595959" stroke-width="1.0" fill="aliceblue"/>
<text x="289.2500" y="305.6460" text-anchor="middle" font-family="Helvetica" font-size="7.5" fill="#000000" >U</text>
<circle cx="289.2500" cy="322.9452" r="5.0" stroke="#595959" stroke-width="1.0" fill="aliceblue"/>
<text x="289.2500" y="325.6452" text-anchor="middle" font-family="Helvetica" font-size="7.5" fill="#000000" >U</text>
<circle cx="289.2500" cy="342.9452" r="5.0" stroke="#595959" stroke-width="1.0" fill="#ffffff"/>
<text x="289.2500" y="345.6452" text-anchor="middle" font-family="Helvetica" font-size="7.5" fill="#000000" >G</text>
<circle cx="289.2500" cy="362.9445" r="5.0" stroke="#595959" stroke-width="1.0" fill="#ffffff"/>
<text x="289.2500" y="365.6445" text-anchor="middle" font-family="Helvetica" font-size="7.5" fill="#000000" >U</text>
<circle cx="289.2500" cy="382.9444" r="5.0" stroke="#595959" stroke-width="1.0" fill="#ffffff"/>
<text x="289.2500" y="385.6444" text-anchor="middle" font-family="Helvetica" font-size="7.5" fill="#000000" >C</text>
<circle cx="289.2500" cy="402.9440" r="5.0" stroke="#595959" stroke-width="1.0" fill="#ffffff"/>
<text x="289.2500" y="405.6440" text-anchor="middle" font-family="Helvetica" font-size="7.5" fill="#000000" >C</text>
<circle cx="289.2500" cy="422.9439" r="5.0" stroke="#595959" stroke-width="1.0" fill="#ffffff"/>
<text x="289.2500" y="425.6439" text-anchor="middle" font-family="Helvetica" font-size="7.5" fill="#000000" >A</text>
<circle cx="289.2500" cy="442.9437" r="5.0" stroke="#595959" stroke-width="1.0" fill="#ffffff"/>
<text x="289.2500" y="445.6437" text-anchor="middle" font-family="Helvetica" font-size="7.5" fill="#000000" >G</text>
<circle cx="289.2500" cy="462.9437" r="5.0" stroke="#595959" stroke-width="1.0" fill="#ffffff"/>
<text x="289.2500" y="465.6437" text-anchor="middle" font-family="Helvetica" font-size="7.5" fill="#000000" >U</text>
</svg>
