<?xml version="1.0" encoding="UTF-8"?>
<!DOCTYPE svg PUBLIC "-//W3C//DTD SVG 1.1//EN" 
"http://www.w3.org/Graphics/SVG/1.1/DTD/svg11.dtd">

<svg version="1.1"
   width="546px"
   height="546px"
xmlns="http://www.w3.org/2000/svg">
    <rect width="100%" height="100%" fill="white"/>

  <line x1="255.9048" y1="419.9079" x2="256.0171" y2="400.1274" stroke="#595959"
     style="stroke-width:2;stroke-miterlimit:4;stroke-dasharray:1,1;stroke-dashoffset:0" />
  <line x1="256.3729" y1="341.1563" x2="256.4948" y2="321.5985" stroke="#595959"
     style="stroke-width:2;stroke-miterlimit:4;stroke-dasharray:1,1;stroke-dashoffset:0" />
  <line x1="256.8240" y1="263.0879" x2="256.9212" y2="243.6007" stroke="#595959"
     style="stroke-width:2;stroke-miterlimit:4;stroke-dasharray:1,1;stroke-dashoffset:0" />
  <line x1="257.2323" y1="165.4807" x2="257.0126" y2="145.8826" stroke="#595959"
     style="stroke-width:2;stroke-miterlimit:4;stroke-dasharray:1,1;stroke-dashoffset:0" />
  <line x1="289.5054" y1="145.3748" x2="289.7685" y2="165.1905" stroke="#595959"
     style="stroke-width:2;stroke-miterlimit:4;stroke-dasharray:1,1;stroke-dashoffset:0" />
  <line x1="289.4046" y1="243.6514" x2="289.3285" y2="263.1657" stroke="#595959"
     style="stroke-width:2;stroke-miterlimit:4;stroke-dasharray:1,1;stroke-dashoffset:0" />
  <line x1="288.9971" y1="321.7277" x2="288.8725" y2="341.2954" stroke="#595959"
     style="stroke-width:2;stroke-miterlimit:4;stroke-dasharray:1,1;stroke-dashoffset:0" />
  <line x1="288.5167" y1="400.2822" x2="288.4076" y2="420.0650" stroke="#595959"
     style="stroke-width:2;stroke-miterlimit:4;stroke-dasharray:1,1;stroke-dashoffset:0" />
  <line x1="255.6811" y1="461.2835" x2="288.1807" y2="461.4424" stroke="#df7200" stroke-width="1.0" />
  <circle cx="271.9309" cy="461.3629" r="2.25" stroke="#df7200" stroke-width="1.0" fill="#df7200"/>
  <line x1="255.8971" y1="421.5079" x2="288.3998" y2="421.6649" stroke="#f2b800" stroke-width="1.0" />
  <circle cx="272.1485" cy="421.5864" r="2.25" stroke="#f2b800" stroke-width="1.0" fill="#f2b800"/>
  <line x1="256.2418" y1="362.3582" x2="288.7438" y2="362.5046" stroke="#eeaa00" stroke-width="1.0" />
  <circle cx="272.4928" cy="362.4314" r="2.25" stroke="#eeaa00" stroke-width="1.0" fill="#eeaa00"/>
  <line x1="256.4885" y1="323.1985" x2="288.9908" y2="323.3277" stroke="#eb9d00" stroke-width="1.0" />
  <circle cx="272.7396" cy="323.2631" r="2.25" stroke="#eb9d00" stroke-width="1.0" fill="#eb9d00"/>
  <line x1="256.6226" y1="300.4751" x2="289.1189" y2="300.5912" stroke="#da6400" stroke-width="1.0" />
  <circle cx="272.8707" cy="300.5332" r="2.25" stroke="#da6400" stroke-width="1.0" fill="#da6400"/>
  <line x1="256.6111" y1="303.6751" x2="289.1074" y2="303.7912" stroke="#eb9d00" stroke-width="1.0" />
  <circle cx="272.8593" cy="303.7331" r="2.25" stroke="#eb9d00" stroke-width="1.0" fill="#eb9d00"/>
  <line x1="256.6168" y1="302.0751" x2="288.9971" y2="321.7277" stroke="#eda600" stroke-width="1.0" />
  <circle cx="276.3070" cy="311.9014" r="2.25" stroke="#eda600" stroke-width="1.0" fill="#eda600"
    transform="rotate(31.2549 272.8070 311.9014)" />
  <path d="M 271.0570 314.1514 L 271.0570 309.6514 L 267.0570 311.9014 z" style="stroke:#eda600;stroke-width:1.0" fill="#eda600" 
    transform="rotate(31.2549 272.8070 311.9014)"/>
  <line x1="256.7086" y1="280.9753" x2="289.2499" y2="281.0748" stroke="#f2b800" stroke-width="1.0" />
  <circle cx="272.9793" cy="281.0250" r="2.25" stroke="#f2b800" stroke-width="1.0" fill="#f2b800"/>
  <line x1="256.6988" y1="284.1752" x2="289.2402" y2="284.2748" stroke="#eb9d00" stroke-width="1.0" />
  <circle cx="276.4695" cy="284.2250" r="2.25" stroke="#eb9d00" stroke-width="1.0" fill="#eb9d00"
    transform="rotate(180.1752 272.9695 284.2250)" />
  <path d="M 271.2195 286.4750 L 271.2195 281.9750 L 267.2195 284.2250 z" style="stroke:#eb9d00;stroke-width:1.0" fill="#eb9d00" 
    transform="rotate(180.1752 272.9695 284.2250)"/>
  <line x1="256.7037" y1="282.5753" x2="289.1132" y2="302.1912" stroke="#efaf00" stroke-width="1.0" />
  <circle cx="276.4084" cy="292.3832" r="2.25" stroke="#efaf00" stroke-width="1.0" fill="#efaf00"
    transform="rotate(31.1846 272.9084 292.3832)" />
  <path d="M 271.1584 294.6332 L 271.1584 290.1332 L 267.1584 292.3832 z" style="stroke:#efaf00;stroke-width:1.0" fill="#efaf00" 
    transform="rotate(31.1846 272.9084 292.3832)"/>
  <line x1="256.8278" y1="261.4879" x2="289.3323" y2="261.5657" stroke="#e58400" stroke-width="1.0" />
  <circle cx="276.5801" cy="261.5268" r="2.25" stroke="#e58400" stroke-width="1.0" fill="#e58400"
    transform="rotate(0.1372 273.0801 261.5268)" />
  <path d="M 271.3301 263.7768 L 271.3301 259.2768 L 267.3301 261.5268 z" style="stroke:#e58400;stroke-width:1.0" fill="#e58400" 
    transform="rotate(0.1372 273.0801 261.5268)"/>
  <line x1="256.8202" y1="264.6879" x2="289.3246" y2="264.7657" stroke="#eca100" stroke-width="1.0" />
  <circle cx="273.0724" cy="264.7268" r="2.25" stroke="#eca100" stroke-width="1.0" fill="#eca100"/>
  <line x1="256.8240" y1="263.0879" x2="289.2451" y2="282.6748" stroke="#e99400" stroke-width="1.0" />
  <circle cx="273.0345" cy="272.8813" r="2.25" stroke="#e99400" stroke-width="1.0" fill="#e99400"/>
  <line x1="256.9237" y1="242.0007" x2="289.4071" y2="242.0514" stroke="#e78c00" stroke-width="1.0" />
  <circle cx="276.6654" cy="242.0260" r="2.25" stroke="#e78c00" stroke-width="1.0" fill="#e78c00"
    transform="rotate(180.0895 273.1654 242.0260)" />
  <path d="M 271.4154 244.2760 L 271.4154 239.7760 L 267.4154 242.0260 z" style="stroke:#e78c00;stroke-width:1.0" fill="#e78c00" 
    transform="rotate(180.0895 273.1654 242.0260)"/>
  <line x1="256.9187" y1="245.2007" x2="289.4021" y2="245.2514" stroke="#b41f06" stroke-width="1.0" />
  <circle cx="273.1604" cy="245.2260" r="2.25" stroke="#b41f06" stroke-width="1.0" fill="#b41f06"/>
  <line x1="257.1032" y1="222.5024" x2="289.5734" y2="222.5180" stroke="#e07500" stroke-width="1.0" />
  <circle cx="273.3383" cy="222.5102" r="2.25" stroke="#e07500" stroke-width="1.0" fill="#e07500"/>
  <line x1="257.2470" y1="206.1846" x2="289.7158" y2="206.1458" stroke="#efaf00" stroke-width="1.0" />
  <circle cx="273.4814" cy="206.1652" r="2.25" stroke="#efaf00" stroke-width="1.0" fill="#efaf00"/>
  <line x1="256.5458" y1="127.8191" x2="289.0446" y2="127.0819" stroke="#f1b400" stroke-width="1.0" />
  <circle cx="272.7952" cy="127.4505" r="2.25" stroke="#f1b400" stroke-width="1.0" fill="#f1b400"/>
  <line x1="255.6889" y1="459.6835" x2="255.7975" y2="439.7589" stroke="#5d01be" stroke-width="1.0" />
  <rect
     style="fill:#ffffff;fill-opacity:1;fill-rule:nonzero;stroke:none"
     width="2"
     height="2"
     x="255.2432"
     y="448.7212"
     transform="rotate(-89.6876 255.7432 449.7212)" /> 
  <path
     style="fill:none;stroke:#5d01be;stroke-width:1px;stroke-linecap:butt;stroke-linejoin:miter;stroke-opacity:1"
     d="m 255.7432,447.7212 2,2 -2,2 m -2.370121,-4 2,2 -2,2"
     transform="rotate(-89.6876 255.7432 449.7212)"/>
  <line x1="255.6967" y1="458.0835" x2="288.1964" y2="458.2424" stroke="#bf2d00" stroke-width="1.0" />
  <line x1="255.7975" y1="439.7589" x2="255.9048" y2="419.9079" stroke="#7c03fe" stroke-width="1.0" />
  <rect
     style="fill:#ffffff;fill-opacity:1;fill-rule:nonzero;stroke:none"
     width="2"
     height="2"
     x="255.3512"
     y="428.8334"
     transform="rotate(-89.6904 255.8512 429.8334)" /> 
  <path
     style="fill:none;stroke:#7c03fe;stroke-width:1px;stroke-linecap:butt;stroke-linejoin:miter;stroke-opacity:1"
     d="m 255.8512,427.8334 2,2 -2,2 m -2.370121,-4 2,2 -2,2"
     transform="rotate(-89.6904 255.8512 429.8334)"/>
  <line x1="255.7915" y1="441.0089" x2="288.2911" y2="441.1672" stroke="#44006e" stroke-width="1.0" />
  <line x1="255.8036" y1="438.5089" x2="288.3033" y2="438.6673" stroke="#44006e" stroke-width="1.0" />
  <line x1="255.9126" y1="418.3079" x2="288.4153" y2="418.4650" stroke="#520099" stroke-width="1.0" />
  <line x1="256.0171" y1="400.1274" x2="256.1314" y2="380.4128" stroke="#c02e00" stroke-width="1.0" />
  <rect
     style="fill:#ffffff;fill-opacity:1;fill-rule:nonzero;stroke:none"
     width="2"
     height="2"
     x="255.5742"
     y="389.2701"
     transform="rotate(-89.6679 256.0742 390.2701)" /> 
  <path
     style="fill:none;stroke:#c02e00;stroke-width:1px;stroke-linecap:butt;stroke-linejoin:miter;stroke-opacity:1"
     d="m 256.0742,388.2701 2,2 -2,2 m -2.370121,-4 2,2 -2,2"
     transform="rotate(-89.6679 256.0742 390.2701)"/>
  <line x1="256.0111" y1="401.3774" x2="288.5108" y2="401.5322" stroke="#400062" stroke-width="1.0" />
  <line x1="256.0230" y1="398.8774" x2="288.5227" y2="399.0323" stroke="#400062" stroke-width="1.0" />
  <line x1="256.0171" y1="400.1274" x2="288.4076" y2="420.0650" stroke="#000000" stroke-width="1.0" />
  <rect
     style="fill:#ffffff;stroke:none"
     width="5.5"
     height="2"
     x="269.4623"
     y="409.0962" 
     transform="rotate(31.6139 272.2123 410.0962)"    /> 
  <path
     style="fill:none;stroke:#000000;stroke-width:1px;stroke-linecap:butt;stroke-linejoin:miter;stroke-opacity:1"
    d="m 272.9623,408.0962 2,2 -2,2 m -1.5,-4 -2,2 2,2" transform="rotate(31.6139 272.2123 410.0962)"/>
  <line x1="256.1314" y1="380.4128" x2="256.2490" y2="360.7582" stroke="#a0109e" stroke-width="1.0" />
  <rect
     style="fill:#ffffff;fill-opacity:1;fill-rule:nonzero;stroke:none"
     width="2"
     height="2"
     x="255.6902"
     y="369.5855"
     transform="rotate(-89.6572 256.1902 370.5855)" /> 
  <path
     style="fill:none;stroke:#a0109e;stroke-width:1px;stroke-linecap:butt;stroke-linejoin:miter;stroke-opacity:1"
     d="m 256.1902,368.5855 2,2 -2,2 m -2.370121,-4 2,2 -2,2"
     transform="rotate(-89.6572 256.1902 370.5855)"/>
  <line x1="256.1255" y1="381.6628" x2="288.6252" y2="381.8142" stroke="#4b0084" stroke-width="1.0" />
  <line x1="256.1372" y1="379.1628" x2="288.6368" y2="379.3143" stroke="#4b0084" stroke-width="1.0" />
  <line x1="256.1314" y1="380.4128" x2="288.5167" y2="400.2822" stroke="#f2b800" stroke-width="1.0" />
  <rect
     style="fill:#ffffff;stroke:none"
     width="5.5"
     height="2"
     x="269.5740"
     y="389.3475" 
     transform="rotate(31.5304 272.3240 390.3475)"    /> 
  <path
     style="fill:none;stroke:#f2b800;stroke-width:1px;stroke-linecap:butt;stroke-linejoin:miter;stroke-opacity:1"
    d="m 273.0740,388.3475 2,2 -2,2 m -1.5,-4 -2,2 2,2" transform="rotate(31.5304 272.3240 390.3475)"/>
  <line x1="256.2490" y1="360.7582" x2="256.3729" y2="341.1563" stroke="#000000" stroke-width="1.0" />
  <rect
     style="fill:#ffffff;fill-opacity:1;fill-rule:nonzero;stroke:none"
     width="2"
     height="2"
     x="255.8109"
     y="349.9573"
     transform="rotate(-89.6378 256.3109 350.9573)" /> 
  <path
     style="fill:none;stroke:#000000;stroke-width:1px;stroke-linecap:butt;stroke-linejoin:miter;stroke-opacity:1"
     d="m 256.3109,348.9573 2,2 -2,2 m -2.370121,-4 2,2 -2,2"
     transform="rotate(-89.6378 256.3109 350.9573)"/>
  <line x1="256.2562" y1="359.1582" x2="288.7582" y2="359.3046" stroke="#6001c6" stroke-width="1.0" />
  <line x1="256.3675" y1="342.4063" x2="288.8672" y2="342.5454" stroke="#480079" stroke-width="1.0" />
  <line x1="256.3782" y1="339.9063" x2="288.8779" y2="340.0454" stroke="#480079" stroke-width="1.0" />
  <line x1="256.4948" y1="321.5985" x2="256.6168" y2="302.0751" stroke="#8f08ea" stroke-width="1.0" />
  <rect
     style="fill:#ffffff;fill-opacity:1;fill-rule:nonzero;stroke:none"
     width="2"
     height="2"
     x="256.0558"
     y="310.8368"
     transform="rotate(-89.6419 256.5558 311.8368)" /> 
  <path
     style="fill:none;stroke:#8f08ea;stroke-width:1px;stroke-linecap:butt;stroke-linejoin:miter;stroke-opacity:1"
     d="m 256.5558,309.8368 2,2 -2,2 m -2.370121,-4 2,2 -2,2"
     transform="rotate(-89.6419 256.5558 311.8368)"/>
  <line x1="256.5012" y1="319.9985" x2="289.0035" y2="320.1277" stroke="#ab1751" stroke-width="1.0" />
  <line x1="256.4948" y1="321.5985" x2="288.8725" y2="341.2954" stroke="#9109e5" stroke-width="1.0" />
  <rect
     style="fill:#ffffff;stroke:none"
     width="5.5"
     height="2"
     x="269.9337"
     y="330.4470" 
     transform="rotate(31.3141 272.6837 331.4470)"    /> 
  <path
     style="fill:none;stroke:#9109e5;stroke-width:1px;stroke-linecap:butt;stroke-linejoin:miter;stroke-opacity:1"
    d="m 273.4337,329.4470 2,2 -2,2 m -1.5,-4 -2,2 2,2" transform="rotate(31.3141 272.6837 331.4470)"/>
  <line x1="256.6168" y1="302.0751" x2="256.7037" y2="282.5753" stroke="#c43500" stroke-width="1.0" />
  <rect
     style="fill:#ffffff;fill-opacity:1;fill-rule:nonzero;stroke:none"
     width="2"
     height="2"
     x="256.1603"
     y="291.3252"
     transform="rotate(-89.7447 256.6603 292.3252)" /> 
  <path
     style="fill:none;stroke:#c43500;stroke-width:1px;stroke-linecap:butt;stroke-linejoin:miter;stroke-opacity:1"
     d="m 256.6603,290.3252 2,2 -2,2 m -2.370121,-4 2,2 -2,2"
     transform="rotate(-89.7447 256.6603 292.3252)"/>
  <line x1="256.7037" y1="282.5753" x2="256.8240" y2="263.0879" stroke="#a9165c" stroke-width="1.0" />
  <rect
     style="fill:#ffffff;fill-opacity:1;fill-rule:nonzero;stroke:none"
     width="2"
     height="2"
     x="256.2639"
     y="271.8316"
     transform="rotate(-89.6463 256.7639 272.8316)" /> 
  <path
     style="fill:none;stroke:#a9165c;stroke-width:1px;stroke-linecap:butt;stroke-linejoin:miter;stroke-opacity:1"
     d="m 256.7639,270.8316 2,2 -2,2 m -2.370121,-4 2,2 -2,2"
     transform="rotate(-89.6463 256.7639 272.8316)"/>
  <line x1="256.9212" y1="243.6007" x2="257.1024" y2="224.1024" stroke="#6f02ec" stroke-width="1.0" />
  <rect
     style="fill:#ffffff;fill-opacity:1;fill-rule:nonzero;stroke:none"
     width="2"
     height="2"
     x="256.5118"
     y="232.8516"
     transform="rotate(-89.4674 257.0118 233.8516)" /> 
  <path
     style="fill:none;stroke:#6f02ec;stroke-width:1px;stroke-linecap:butt;stroke-linejoin:miter;stroke-opacity:1"
     d="m 257.0118,231.8516 2,2 -2,2 m -2.370121,-4 2,2 -2,2"
     transform="rotate(-89.4674 257.0118 233.8516)"/>
  <line x1="256.9212" y1="243.6007" x2="289.3285" y2="263.1657" stroke="#b62200" stroke-width="1.0" />
  <rect
     style="fill:#ffffff;stroke:none"
     width="5.5"
     height="2"
     x="270.3748"
     y="252.3832" 
     transform="rotate(31.1204 273.1248 253.3832)"    /> 
  <path
     style="fill:none;stroke:#b62200;stroke-width:1px;stroke-linecap:butt;stroke-linejoin:miter;stroke-opacity:1"
    d="m 273.8748,251.3832 2,2 -2,2 m -1.5,-4 -2,2 2,2" transform="rotate(31.1204 273.1248 253.3832)"/>
  <line x1="257.1024" y1="224.1024" x2="257.2451" y2="204.5846" stroke="#a31289" stroke-width="1.0" />
  <rect
     style="fill:#ffffff;fill-opacity:1;fill-rule:nonzero;stroke:none"
     width="2"
     height="2"
     x="256.6738"
     y="213.3435"
     transform="rotate(-89.5812 257.1738 214.3435)" /> 
  <path
     style="fill:none;stroke:#a31289;stroke-width:1px;stroke-linecap:butt;stroke-linejoin:miter;stroke-opacity:1"
     d="m 257.1738,212.3435 2,2 -2,2 m -2.370121,-4 2,2 -2,2"
     transform="rotate(-89.5812 257.1738 214.3435)"/>
  <line x1="257.1011" y1="226.9524" x2="289.5713" y2="226.9680" stroke="#8204ff" stroke-width="1.0" />
  <line x1="257.1023" y1="224.4524" x2="289.5725" y2="224.4680" stroke="#8204ff" stroke-width="1.0" />
  <line x1="257.2451" y1="204.5846" x2="257.3119" y2="185.0444" stroke="#940ad9" stroke-width="1.0" />
  <rect
     style="fill:#ffffff;fill-opacity:1;fill-rule:nonzero;stroke:none"
     width="2"
     height="2"
     x="256.7785"
     y="193.8145"
     transform="rotate(-89.8043 257.2785 194.8145)" /> 
  <path
     style="fill:none;stroke:#940ad9;stroke-width:1px;stroke-linecap:butt;stroke-linejoin:miter;stroke-opacity:1"
     d="m 257.2785,192.8145 2,2 -2,2 m -2.370121,-4 2,2 -2,2"
     transform="rotate(-89.8043 257.2785 194.8145)"/>
  <line x1="257.2432" y1="202.9846" x2="289.7120" y2="202.9458" stroke="#5800ac" stroke-width="1.0" />
  <line x1="257.2451" y1="204.5846" x2="289.5726" y2="224.1180" stroke="#f1b400" stroke-width="1.0" />
  <rect
     style="fill:#ffffff;stroke:none"
     width="5.5"
     height="2"
     x="270.6589"
     y="213.3513" 
     transform="rotate(31.1418 273.4089 214.3513)"    /> 
  <path
     style="fill:none;stroke:#f1b400;stroke-width:1px;stroke-linecap:butt;stroke-linejoin:miter;stroke-opacity:1"
    d="m 274.1589,212.3513 2,2 -2,2 m -1.5,-4 -2,2 2,2" transform="rotate(31.1418 273.4089 214.3513)"/>
  <line x1="257.3119" y1="185.0444" x2="257.2323" y2="165.4807" stroke="#7c03fe" stroke-width="1.0" />
  <rect
     style="fill:#ffffff;fill-opacity:1;fill-rule:nonzero;stroke:none"
     width="2"
     height="2"
     x="256.7721"
     y="174.2626"
     transform="rotate(269.7671 257.2721 175.2626)" /> 
  <path
     style="fill:none;stroke:#7c03fe;stroke-width:1px;stroke-linecap:butt;stroke-linejoin:miter;stroke-opacity:1"
     d="m 257.2721,173.2626 2,2 -2,2 m -2.370121,-4 2,2 -2,2"
     transform="rotate(269.7671 257.2721 175.2626)"/>
  <line x1="257.3170" y1="186.2944" x2="289.8081" y2="186.1611" stroke="#33003e" stroke-width="1.0" />
  <line x1="257.3067" y1="183.7944" x2="289.7979" y2="183.6611" stroke="#33003e" stroke-width="1.0" />
  <line x1="257.2435" y1="166.7307" x2="289.7796" y2="166.4404" stroke="#44006e" stroke-width="1.0" />
  <line x1="257.2212" y1="164.2307" x2="289.7573" y2="163.9405" stroke="#44006e" stroke-width="1.0" />
  <line x1="257.2323" y1="165.4807" x2="289.8030" y2="184.9111" stroke="#e89000" stroke-width="1.0" />
  <rect
     style="fill:#ffffff;stroke:none"
     width="5.5"
     height="2"
     x="270.7677"
     y="174.1959" 
     transform="rotate(30.8187 273.5177 175.1959)"    /> 
  <path
     style="fill:none;stroke:#e89000;stroke-width:1px;stroke-linecap:butt;stroke-linejoin:miter;stroke-opacity:1"
    d="m 274.2677,173.1959 2,2 -2,2 m -1.5,-4 -2,2 2,2" transform="rotate(30.8187 273.5177 175.1959)"/>
  <line x1="257.0126" y1="145.8826" x2="256.5095" y2="126.2195" stroke="#980bca" stroke-width="1.0" />
  <rect
     style="fill:#ffffff;fill-opacity:1;fill-rule:nonzero;stroke:none"
     width="2"
     height="2"
     x="256.2611"
     y="135.0511"
     transform="rotate(268.5344 256.7611 136.0511)" /> 
  <path
     style="fill:none;stroke:#980bca;stroke-width:1px;stroke-linecap:butt;stroke-linejoin:miter;stroke-opacity:1"
     d="m 256.7611,134.0511 2,2 -2,2 m -2.370121,-4 2,2 -2,2"
     transform="rotate(268.5344 256.7611 136.0511)"/>
  <line x1="257.0321" y1="147.1325" x2="289.5250" y2="146.6246" stroke="#3c0057" stroke-width="1.0" />
  <line x1="256.9931" y1="144.6328" x2="289.4859" y2="144.1249" stroke="#3c0057" stroke-width="1.0" />
  <line x1="257.0126" y1="145.8826" x2="289.7685" y2="165.1905" stroke="#17000d" stroke-width="1.0" />
  <rect
     style="fill:#ffffff;stroke:none"
     width="5.5"
     height="2"
     x="270.6405"
     y="154.5365" 
     transform="rotate(30.5171 273.3905 155.5365)"    /> 
  <path
     style="fill:none;stroke:#17000d;stroke-width:1px;stroke-linecap:butt;stroke-linejoin:miter;stroke-opacity:1"
    d="m 274.1405,153.5365 2,2 -2,2 m -1.5,-4 -2,2 2,2" transform="rotate(30.5171 273.3905 155.5365)"/>
  <line x1="256.5095" y1="126.2195" x2="255.9219" y2="106.4270" stroke="#ac1845" stroke-width="1.0" />
  <rect
     style="fill:#ffffff;fill-opacity:1;fill-rule:nonzero;stroke:none"
     width="2"
     height="2"
     x="255.7157"
     y="115.3232"
     transform="rotate(268.2994 256.2157 116.3232)" /> 
  <path
     style="fill:none;stroke:#ac1845;stroke-width:1px;stroke-linecap:butt;stroke-linejoin:miter;stroke-opacity:1"
     d="m 256.2157,114.3232 2,2 -2,2 m -2.370121,-4 2,2 -2,2"
     transform="rotate(268.2994 256.2157 116.3232)"/>
  <line x1="256.4732" y1="124.6199" x2="288.9720" y2="123.8827" stroke="#5800ac" stroke-width="1.0" />
  <line x1="255.9219" y1="106.4270" x2="267.5591" y2="90.3267" stroke="#bf2d00" stroke-width="1.0" />
  <rect
     style="fill:#ffffff;fill-opacity:1;fill-rule:nonzero;stroke:none"
     width="2"
     height="2"
     x="261.2405"
     y="97.3768"
     transform="rotate(-54.1407 261.7405 98.3768)" /> 
  <path
     style="fill:none;stroke:#bf2d00;stroke-width:1px;stroke-linecap:butt;stroke-linejoin:miter;stroke-opacity:1"
     d="m 261.7405,96.3768 2,2 -2,2 m -2.370121,-4 2,2 -2,2"
     transform="rotate(-54.1407 261.7405 98.3768)"/>
  <line x1="255.9554" y1="107.6765" x2="288.4240" y2="106.8067" stroke="#37004b" stroke-width="1.0" />
  <line x1="255.8884" y1="105.1774" x2="288.3570" y2="104.3076" stroke="#37004b" stroke-width="1.0" />
  <line x1="267.8487" y1="91.5427" x2="287.1575" y2="86.9441" stroke="#4b0084" stroke-width="1.0" />
  <line x1="267.2695" y1="89.1107" x2="286.5783" y2="84.5121" stroke="#4b0084" stroke-width="1.0" />
  <line x1="267.5591" y1="90.3267" x2="288.3905" y2="105.5572" stroke="#e99400" stroke-width="1.0" />
  <rect
     style="fill:#ffffff;stroke:none"
     width="5.5"
     height="2"
     x="275.2248"
     y="96.9419" 
     transform="rotate(36.1718 277.9748 97.9419)"    /> 
  <path
     style="fill:none;stroke:#e99400;stroke-width:1px;stroke-linecap:butt;stroke-linejoin:miter;stroke-opacity:1"
    d="m 278.7248,95.9419 2,2 -2,2 m -1.5,-4 -2,2 2,2" transform="rotate(36.1718 277.9748 97.9419)"/>
  <line x1="286.8679" y1="85.7281" x2="288.3905" y2="105.5572" stroke="#980bca" stroke-width="1.0" />
  <rect
     style="fill:#ffffff;fill-opacity:1;fill-rule:nonzero;stroke:none"
     width="2"
     height="2"
     x="287.1292"
     y="94.6427"
     transform="rotate(85.6090 287.6292 95.6427)" /> 
  <path
     style="fill:none;stroke:#980bca;stroke-width:1px;stroke-linecap:butt;stroke-linejoin:miter;stroke-opacity:1"
     d="m 287.6292,93.6427 2,2 -2,2 m -2.370121,-4 2,2 -2,2"
     transform="rotate(85.6090 287.6292 95.6427)"/>
  <line x1="288.3905" y1="105.5572" x2="289.0083" y2="125.4823" stroke="#6801dc" stroke-width="1.0" />
  <rect
     style="fill:#ffffff;fill-opacity:1;fill-rule:nonzero;stroke:none"
     width="2"
     height="2"
     x="288.1994"
     y="114.5197"
     transform="rotate(88.2241 288.6994 115.5197)" /> 
  <path
     style="fill:none;stroke:#6801dc;stroke-width:1px;stroke-linecap:butt;stroke-linejoin:miter;stroke-opacity:1"
     d="m 288.6994,113.5197 2,2 -2,2 m -2.370121,-4 2,2 -2,2"
     transform="rotate(88.2241 288.6994 115.5197)"/>
  <line x1="289.0083" y1="125.4823" x2="289.5054" y2="145.3748" stroke="#7c03fe" stroke-width="1.0" />
  <rect
     style="fill:#ffffff;fill-opacity:1;fill-rule:nonzero;stroke:none"
     width="2"
     height="2"
     x="288.7569"
     y="134.4285"
     transform="rotate(88.5683 289.2569 135.4285)" /> 
  <path
     style="fill:none;stroke:#7c03fe;stroke-width:1px;stroke-linecap:butt;stroke-linejoin:miter;stroke-opacity:1"
     d="m 289.2569,133.4285 2,2 -2,2 m -2.370121,-4 2,2 -2,2"
     transform="rotate(88.5683 289.2569 135.4285)"/>
  <line x1="289.7685" y1="165.1905" x2="289.8030" y2="184.9111" stroke="#d75b00" stroke-width="1.0" />
  <rect
     style="fill:#ffffff;fill-opacity:1;fill-rule:nonzero;stroke:none"
     width="2"
     height="2"
     x="289.2857"
     y="174.0508"
     transform="rotate(89.8997 289.7857 175.0508)" /> 
  <path
     style="fill:none;stroke:#d75b00;stroke-width:1px;stroke-linecap:butt;stroke-linejoin:miter;stroke-opacity:1"
     d="m 289.7857,173.0508 2,2 -2,2 m -2.370121,-4 2,2 -2,2"
     transform="rotate(89.8997 289.7857 175.0508)"/>
  <line x1="289.8030" y1="184.9111" x2="289.7139" y2="204.5458" stroke="#af1b2c" stroke-width="1.0" />
  <rect
     style="fill:#ffffff;fill-opacity:1;fill-rule:nonzero;stroke:none"
     width="2"
     height="2"
     x="289.2584"
     y="193.7285"
     transform="rotate(90.2600 289.7584 194.7285)" /> 
  <path
     style="fill:none;stroke:#af1b2c;stroke-width:1px;stroke-linecap:butt;stroke-linejoin:miter;stroke-opacity:1"
     d="m 289.7584,192.7285 2,2 -2,2 m -2.370121,-4 2,2 -2,2"
     transform="rotate(90.2600 289.7584 194.7285)"/>
  <line x1="289.7139" y1="204.5458" x2="289.5726" y2="224.1180" stroke="#af1b2c" stroke-width="1.0" />
  <rect
     style="fill:#ffffff;fill-opacity:1;fill-rule:nonzero;stroke:none"
     width="2"
     height="2"
     x="289.1433"
     y="213.3319"
     transform="rotate(90.4135 289.6433 214.3319)" /> 
  <path
     style="fill:none;stroke:#af1b2c;stroke-width:1px;stroke-linecap:butt;stroke-linejoin:miter;stroke-opacity:1"
     d="m 289.6433,212.3319 2,2 -2,2 m -2.370121,-4 2,2 -2,2"
     transform="rotate(90.4135 289.6433 214.3319)"/>
  <line x1="289.5726" y1="224.1180" x2="289.4046" y2="243.6514" stroke="#3c0057" stroke-width="1.0" />
  <rect
     style="fill:#ffffff;fill-opacity:1;fill-rule:nonzero;stroke:none"
     width="2"
     height="2"
     x="288.9886"
     y="232.8847"
     transform="rotate(90.4928 289.4886 233.8847)" /> 
  <path
     style="fill:none;stroke:#3c0057;stroke-width:1px;stroke-linecap:butt;stroke-linejoin:miter;stroke-opacity:1"
     d="m 289.4886,231.8847 2,2 -2,2 m -2.370121,-4 2,2 -2,2"
     transform="rotate(90.4928 289.4886 233.8847)"/>
  <line x1="289.3285" y1="263.1657" x2="289.2451" y2="282.6748" stroke="#9309df" stroke-width="1.0" />
  <rect
     style="fill:#ffffff;fill-opacity:1;fill-rule:nonzero;stroke:none"
     width="2"
     height="2"
     x="288.7868"
     y="271.9203"
     transform="rotate(90.2449 289.2868 272.9203)" /> 
  <path
     style="fill:none;stroke:#9309df;stroke-width:1px;stroke-linecap:butt;stroke-linejoin:miter;stroke-opacity:1"
     d="m 289.2868,270.9203 2,2 -2,2 m -2.370121,-4 2,2 -2,2"
     transform="rotate(90.2449 289.2868 272.9203)"/>
  <line x1="289.2451" y1="282.6748" x2="289.1132" y2="302.1912" stroke="#d45500" stroke-width="1.0" />
  <rect
     style="fill:#ffffff;fill-opacity:1;fill-rule:nonzero;stroke:none"
     width="2"
     height="2"
     x="288.6791"
     y="291.4330"
     transform="rotate(90.3872 289.1791 292.4330)" /> 
  <path
     style="fill:none;stroke:#d45500;stroke-width:1px;stroke-linecap:butt;stroke-linejoin:miter;stroke-opacity:1"
     d="m 289.1791,290.4330 2,2 -2,2 m -2.370121,-4 2,2 -2,2"
     transform="rotate(90.3872 289.1791 292.4330)"/>
  <line x1="289.1132" y1="302.1912" x2="288.9971" y2="321.7277" stroke="#cd4500" stroke-width="1.0" />
  <rect
     style="fill:#ffffff;fill-opacity:1;fill-rule:nonzero;stroke:none"
     width="2"
     height="2"
     x="288.5551"
     y="310.9594"
     transform="rotate(90.3403 289.0551 311.9594)" /> 
  <path
     style="fill:none;stroke:#cd4500;stroke-width:1px;stroke-linecap:butt;stroke-linejoin:miter;stroke-opacity:1"
     d="m 289.0551,309.9594 2,2 -2,2 m -2.370121,-4 2,2 -2,2"
     transform="rotate(90.3403 289.0551 311.9594)"/>
  <line x1="288.8725" y1="341.2954" x2="288.7510" y2="360.9046" stroke="#200019" stroke-width="1.0" />
  <rect
     style="fill:#ffffff;fill-opacity:1;fill-rule:nonzero;stroke:none"
     width="2"
     height="2"
     x="288.3117"
     y="350.1000"
     transform="rotate(90.3551 288.8117 351.1000)" /> 
  <path
     style="fill:none;stroke:#200019;stroke-width:1px;stroke-linecap:butt;stroke-linejoin:miter;stroke-opacity:1"
     d="m 288.8117,349.1000 2,2 -2,2 m -2.370121,-4 2,2 -2,2"
     transform="rotate(90.3551 288.8117 351.1000)"/>
  <line x1="288.7510" y1="360.9046" x2="288.6310" y2="380.5642" stroke="#8b07f3" stroke-width="1.0" />
  <rect
     style="fill:#ffffff;fill-opacity:1;fill-rule:nonzero;stroke:none"
     width="2"
     height="2"
     x="288.1910"
     y="369.7344"
     transform="rotate(90.3497 288.6910 370.7344)" /> 
  <path
     style="fill:none;stroke:#8b07f3;stroke-width:1px;stroke-linecap:butt;stroke-linejoin:miter;stroke-opacity:1"
     d="m 288.6910,368.7344 2,2 -2,2 m -2.370121,-4 2,2 -2,2"
     transform="rotate(90.3497 288.6910 370.7344)"/>
  <line x1="288.6310" y1="380.5642" x2="288.5167" y2="400.2822" stroke="#7a03fd" stroke-width="1.0" />
  <rect
     style="fill:#ffffff;fill-opacity:1;fill-rule:nonzero;stroke:none"
     width="2"
     height="2"
     x="288.0738"
     y="389.4232"
     transform="rotate(90.3320 288.5738 390.4232)" /> 
  <path
     style="fill:none;stroke:#7a03fd;stroke-width:1px;stroke-linecap:butt;stroke-linejoin:miter;stroke-opacity:1"
     d="m 288.5738,388.4232 2,2 -2,2 m -2.370121,-4 2,2 -2,2"
     transform="rotate(90.3320 288.5738 390.4232)"/>
  <line x1="288.4076" y1="420.0650" x2="288.2972" y2="439.9172" stroke="#9309df" stroke-width="1.0" />
  <rect
     style="fill:#ffffff;fill-opacity:1;fill-rule:nonzero;stroke:none"
     width="2"
     height="2"
     x="287.8524"
     y="428.9911"
     transform="rotate(90.3187 288.3524 429.9911)" /> 
  <path
     style="fill:none;stroke:#9309df;stroke-width:1px;stroke-linecap:butt;stroke-linejoin:miter;stroke-opacity:1"
     d="m 288.3524,427.9911 2,2 -2,2 m -2.370121,-4 2,2 -2,2"
     transform="rotate(90.3187 288.3524 429.9911)"/>
  <line x1="288.2972" y1="439.9172" x2="288.1886" y2="459.8424" stroke="#5800ac" stroke-width="1.0" />
  <rect
     style="fill:#ffffff;fill-opacity:1;fill-rule:nonzero;stroke:none"
     width="2"
     height="2"
     x="287.7429"
     y="448.8798"
     transform="rotate(90.3123 288.2429 449.8798)" /> 
  <path
     style="fill:none;stroke:#5800ac;stroke-width:1px;stroke-linecap:butt;stroke-linejoin:miter;stroke-opacity:1"
     d="m 288.2429,447.8798 2,2 -2,2 m -2.370121,-4 2,2 -2,2"
     transform="rotate(90.3123 288.2429 449.8798)"/>
<circle cx="255.6889" cy="459.6835" r="5.0" stroke="#595959" stroke-width="1.0" fill="#ffffff"/>
<text x="255.6889" y="462.3835" text-anchor="middle" font-family="Helvetica" font-size="7.5" fill="#000000" >A</text>
<circle cx="255.7975" cy="439.7589" r="5.0" stroke="#595959" stroke-width="1.0" fill="#ffffff"/>
<text x="255.7975" y="442.4589" text-anchor="middle" font-family="Helvetica" font-size="7.5" fill="#000000" >C</text>
<circle cx="255.9048" cy="419.9079" r="5.0" stroke="#595959" stroke-width="1.0" fill="#ffffff"/>
<text x="255.9048" y="422.6079" text-anchor="middle" font-family="Helvetica" font-size="7.5" fill="#000000" >U</text>
<circle cx="256.0171" cy="400.1274" r="5.0" stroke="#595959" stroke-width="1.0" fill="#ffffff"/>
<text x="256.0171" y="402.8274" text-anchor="middle" font-family="Helvetica" font-size="7.5" fill="#000000" >G</text>
<circle cx="256.1314" cy="380.4128" r="5.0" stroke="#595959" stroke-width="1.0" fill="#ffffff"/>
<text x="256.1314" y="383.1128" text-anchor="middle" font-family="Helvetica" font-size="7.5" fill="#000000" >G</text>
<circle cx="256.2490" cy="360.7582" r="5.0" stroke="#595959" stroke-width="1.0" fill="#ffffff"/>
<text x="256.2490" y="363.4582" text-anchor="middle" font-family="Helvetica" font-size="7.5" fill="#000000" >A</text>
<circle cx="256.3729" cy="341.1563" r="5.0" stroke="#595959" stroke-width="1.0" fill="#ffffff"/>
<text x="256.3729" y="343.8563" text-anchor="middle" font-family="Helvetica" font-size="7.5" fill="#000000" >C</text>
<circle cx="256.4948" cy="321.5985" r="5.0" stroke="#595959" stroke-width="1.0" fill="#ffffff"/>
<text x="256.4948" y="324.2985" text-anchor="middle" font-family="Helvetica" font-size="7.5" fill="#000000" >A</text>
<circle cx="256.6168" cy="302.0751" r="5.0" stroke="#595959" stroke-width="1.0" fill="azure"/>
<text x="256.6168" y="304.7751" text-anchor="middle" font-family="Helvetica" font-size="7.5" fill="#000000" >I</text>
<circle cx="256.7037" cy="282.5753" r="5.0" stroke="#595959" stroke-width="1.0" fill="aquamarine"/>
<text x="256.7037" y="285.2753" text-anchor="middle" font-family="Helvetica" font-size="7.5" fill="#000000" >I</text>
<circle cx="256.8240" cy="263.0879" r="5.0" stroke="#595959" stroke-width="1.0" fill="greenyellow"/>
<text x="256.8240" y="265.7879" text-anchor="middle" font-family="Helvetica" font-size="7.5" fill="#000000" >U</text>
<circle cx="256.9212" cy="243.6007" r="5.0" stroke="#595959" stroke-width="1.0" fill="aliceblue"/>
<text x="256.9212" y="246.3007" text-anchor="middle" font-family="Helvetica" font-size="7.5" fill="#000000" >I</text>
<circle cx="257.1024" cy="224.1024" r="5.0" stroke="#595959" stroke-width="1.0" fill="azure"/>
<text x="257.1024" y="226.8024" text-anchor="middle" font-family="Helvetica" font-size="7.5" fill="#000000" >C</text>
<circle cx="257.2451" cy="204.5846" r="5.0" stroke="#595959" stroke-width="1.0" fill="#ffffff"/>
<text x="257.2451" y="207.2846" text-anchor="middle" font-family="Helvetica" font-size="7.5" fill="#000000" >U</text>
<circle cx="257.3119" cy="185.0444" r="5.0" stroke="#595959" stroke-width="1.0" fill="#ffffff"/>
<text x="257.3119" y="187.7444" text-anchor="middle" font-family="Helvetica" font-size="7.5" fill="#000000" >C</text>
<circle cx="257.2323" cy="165.4807" r="5.0" stroke="#595959" stroke-width="1.0" fill="#ffffff"/>
<text x="257.2323" y="168.1807" text-anchor="middle" font-family="Helvetica" font-size="7.5" fill="#000000" >C</text>
<circle cx="257.0126" cy="145.8826" r="5.0" stroke="#595959" stroke-width="1.0" fill="#ffffff"/>
<text x="257.0126" y="148.5826" text-anchor="middle" font-family="Helvetica" font-size="7.5" fill="#000000" >G</text>
<circle cx="256.5095" cy="126.2195" r="5.0" stroke="#595959" stroke-width="1.0" fill="#ffffff"/>
<text x="256.5095" y="128.9195" text-anchor="middle" font-family="Helvetica" font-size="7.5" fill="#000000" >A</text>
<circle cx="255.9219" cy="106.4270" r="5.0" stroke="#595959" stroke-width="1.0" fill="#ffffff"/>
<text x="255.9219" y="109.1270" text-anchor="middle" font-family="Helvetica" font-size="7.5" fill="#000000" >G</text>
<circle cx="267.5591" cy="90.3267" r="5.0" stroke="#595959" stroke-width="1.0" fill="#ffffff"/>
<text x="267.5591" y="93.0267" text-anchor="middle" font-family="Helvetica" font-size="7.5" fill="#000000" >G</text>
<circle cx="286.8679" cy="85.7281" r="5.0" stroke="#595959" stroke-width="1.0" fill="#ffffff"/>
<text x="286.8679" y="88.4281" text-anchor="middle" font-family="Helvetica" font-size="7.5" fill="#000000" >C</text>
<circle cx="288.3905" cy="105.5572" r="5.0" stroke="#595959" stroke-width="1.0" fill="#ffffff"/>
<text x="288.3905" y="108.2572" text-anchor="middle" font-family="Helvetica" font-size="7.5" fill="#000000" >C</text>
<circle cx="289.0083" cy="125.4823" r="5.0" stroke="#595959" stroke-width="1.0" fill="#ffffff"/>
<text x="289.0083" y="128.1823" text-anchor="middle" font-family="Helvetica" font-size="7.5" fill="#000000" >U</text>
<circle cx="289.5054" cy="145.3748" r="5.0" stroke="#595959" stroke-width="1.0" fill="#ffffff"/>
<text x="289.5054" y="148.0748" text-anchor="middle" font-family="Helvetica" font-size="7.5" fill="#000000" >C</text>
<circle cx="289.7685" cy="165.1905" r="5.0" stroke="#595959" stroke-width="1.0" fill="#ffffff"/>
<text x="289.7685" y="167.8905" text-anchor="middle" font-family="Helvetica" font-size="7.5" fill="#000000" >G</text>
<circle cx="289.8030" cy="184.9111" r="5.0" stroke="#595959" stroke-width="1.0" fill="#ffffff"/>
<text x="289.8030" y="187.6111" text-anchor="middle" font-family="Helvetica" font-size="7.5" fill="#000000" >G</text>
<circle cx="289.7139" cy="204.5458" r="5.0" stroke="#595959" stroke-width="1.0" fill="#ffffff"/>
<text x="289.7139" y="207.2458" text-anchor="middle" font-family="Helvetica" font-size="7.5" fill="#000000" >A</text>
<circle cx="289.5726" cy="224.1180" r="5.0" stroke="#595959" stroke-width="1.0" fill="azure"/>
<text x="289.5726" y="226.8180" text-anchor="middle" font-family="Helvetica" font-size="7.5" fill="#000000" >G</text>
<circle cx="289.4046" cy="243.6514" r="5.0" stroke="#595959" stroke-width="1.0" fill="aqua"/>
<text x="289.4046" y="246.3514" text-anchor="middle" font-family="Helvetica" font-size="7.5" fill="#000000" >U</text>
<circle cx="289.3285" cy="263.1657" r="5.0" stroke="#595959" stroke-width="1.0" fill="greenyellow"/>
<text x="289.3285" y="265.8657" text-anchor="middle" font-family="Helvetica" font-size="7.5" fill="#000000" >I</text>
<circle cx="289.2451" cy="282.6748" r="5.0" stroke="#595959" stroke-width="1.0" fill="yellow"/>
<text x="289.2451" y="285.3748" text-anchor="middle" font-family="Helvetica" font-size="7.5" fill="#000000" >U</text>
<circle cx="289.1132" cy="302.1912" r="5.0" stroke="#595959" stroke-width="1.0" fill="aquamarine"/>
<text x="289.1132" y="304.8912" text-anchor="middle" font-family="Helvetica" font-size="7.5" fill="#000000" >U</text>
<circle cx="288.9971" cy="321.7277" r="5.0" stroke="#595959" stroke-width="1.0" fill="aqua"/>
<text x="288.9971" y="324.4277" text-anchor="middle" font-family="Helvetica" font-size="7.5" fill="#000000" >U</text>
<circle cx="288.8725" cy="341.2954" r="5.0" stroke="#595959" stroke-width="1.0" fill="aqua"/>
<text x="288.8725" y="343.9954" text-anchor="middle" font-family="Helvetica" font-size="7.5" fill="#000000" >G</text>
<circle cx="288.7510" cy="360.9046" r="5.0" stroke="#595959" stroke-width="1.0" fill="azure"/>
<text x="288.7510" y="363.6046" text-anchor="middle" font-family="Helvetica" font-size="7.5" fill="#000000" >U</text>
<circle cx="288.6310" cy="380.5642" r="5.0" stroke="#595959" stroke-width="1.0" fill="#ffffff"/>
<text x="288.6310" y="383.2642" text-anchor="middle" font-family="Helvetica" font-size="7.5" fill="#000000" >C</text>
<circle cx="288.5167" cy="400.2822" r="5.0" stroke="#595959" stroke-width="1.0" fill="#ffffff"/>
<text x="288.5167" y="402.9822" text-anchor="middle" font-family="Helvetica" font-size="7.5" fill="#000000" >C</text>
<circle cx="288.4076" cy="420.0650" r="5.0" stroke="#595959" stroke-width="1.0" fill="#ffffff"/>
<text x="288.4076" y="422.7650" text-anchor="middle" font-family="Helvetica" font-size="7.5" fill="#000000" >A</text>
<circle cx="288.2972" cy="439.9172" r="5.0" stroke="#595959" stroke-width="1.0" fill="#ffffff"/>
<text x="288.2972" y="442.6172" text-anchor="middle" font-family="Helvetica" font-size="7.5" fill="#000000" >G</text>
<circle cx="288.1886" cy="459.8424" r="5.0" stroke="#595959" stroke-width="1.0" fill="#ffffff"/>
<text x="288.1886" y="462.5424" text-anchor="middle" font-family="Helvetica" font-size="7.5" fill="#000000" >U</text>
</svg>
