<?xml version="1.0" encoding="UTF-8"?>
<!DOCTYPE svg PUBLIC "-//W3C//DTD SVG 1.1//EN" 
"http://www.w3.org/Graphics/SVG/1.1/DTD/svg11.dtd">

<svg version="1.1"
   width="546px"
   height="546px"
xmlns="http://www.w3.org/2000/svg">
    <rect width="100%" height="100%" fill="white"/>

  <line x1="255.6331" y1="421.1090" x2="255.7878" y2="401.2257" stroke="#595959"
     style="stroke-width:2;stroke-miterlimit:4;stroke-dasharray:1,1;stroke-dashoffset:0" />
  <line x1="256.2600" y1="341.7718" x2="256.4097" y2="322.0075" stroke="#595959"
     style="stroke-width:2;stroke-miterlimit:4;stroke-dasharray:1,1;stroke-dashoffset:0" />
  <line x1="256.8046" y1="262.8294" x2="256.9433" y2="243.1342" stroke="#595959"
     style="stroke-width:2;stroke-miterlimit:4;stroke-dasharray:1,1;stroke-dashoffset:0" />
  <line x1="257.5260" y1="164.4420" x2="257.5604" y2="144.7950" stroke="#595959"
     style="stroke-width:2;stroke-miterlimit:4;stroke-dasharray:1,1;stroke-dashoffset:0" />
  <line x1="290.0464" y1="144.5361" x2="290.0290" y2="164.3902" stroke="#595959"
     style="stroke-width:2;stroke-miterlimit:4;stroke-dasharray:1,1;stroke-dashoffset:0" />
  <line x1="289.4423" y1="243.3067" x2="289.3300" y2="263.0144" stroke="#595959"
     style="stroke-width:2;stroke-miterlimit:4;stroke-dasharray:1,1;stroke-dashoffset:0" />
  <line x1="289.0786" y1="302.4549" x2="288.9152" y2="322.1973" stroke="#595959"
     style="stroke-width:2;stroke-miterlimit:4;stroke-dasharray:1,1;stroke-dashoffset:0" />
  <line x1="288.9152" y1="322.1973" x2="288.7593" y2="341.9606" stroke="#595959"
     style="stroke-width:2;stroke-miterlimit:4;stroke-dasharray:1,1;stroke-dashoffset:0" />
  <line x1="288.2872" y1="401.4145" x2="288.1326" y2="421.2986" stroke="#595959"
     style="stroke-width:2;stroke-miterlimit:4;stroke-dasharray:1,1;stroke-dashoffset:0" />
  <line x1="255.3368" y1="459.3893" x2="287.8364" y2="459.5798" stroke="#d14c00" stroke-width="1.0" />
  <circle cx="271.5866" cy="459.4846" r="2.25" stroke="#d14c00" stroke-width="1.0" fill="#d14c00"/>
  <line x1="255.4648" y1="442.6296" x2="287.9760" y2="442.8199" stroke="#eda600" stroke-width="1.0" />
  <circle cx="271.7204" cy="442.7247" r="2.25" stroke="#eda600" stroke-width="1.0" fill="#eda600"/>
  <line x1="255.4742" y1="441.0296" x2="287.8270" y2="461.1798" stroke="#eda600" stroke-width="1.0" />
  <circle cx="271.6506" cy="451.1047" r="2.25" stroke="#eda600" stroke-width="1.0" fill="#eda600"/>
  <line x1="256.0874" y1="363.1603" x2="288.5986" y2="363.3487" stroke="#eda600" stroke-width="1.0" />
  <circle cx="272.3430" cy="363.2545" r="2.25" stroke="#eda600" stroke-width="1.0" fill="#eda600"/>
  <line x1="256.4003" y1="323.6075" x2="288.9058" y2="323.7973" stroke="#da6400" stroke-width="1.0" />
  <circle cx="272.6531" cy="323.7024" r="2.25" stroke="#da6400" stroke-width="1.0" fill="#da6400"/>
  <line x1="256.5349" y1="302.2640" x2="256.5989" y2="282.5383" stroke="#9309df" stroke-width="1.0" />
  <path d="M 250.8169 294.6511 L 250.8169 290.1511 L 255.3169 290.1511 L 255.3169 294.6511 z" style="stroke:#9309df;stroke-width:1.0" fill="#9309df" 
    transform="rotate(90.1861 256.5669 292.4011)"/>
  <path d="M 258.3169 294.6511 L 258.3169 290.1511 L 262.3169 292.4011 z" style="stroke:#9309df;stroke-width:1.0" fill="#9309df"
    transform="rotate(90.1861 256.5669 292.4011)"/>
  <line x1="256.5349" y1="302.2640" x2="289.0786" y2="302.4549" stroke="#eda600" stroke-width="1.0" />
  <circle cx="272.8068" cy="302.3594" r="2.25" stroke="#eda600" stroke-width="1.0" fill="#eda600"/>
  <line x1="256.5349" y1="302.2640" x2="288.9152" y2="322.1973" stroke="#e58400" stroke-width="1.0" />
  <circle cx="272.7250" cy="312.2307" r="2.25" stroke="#e58400" stroke-width="1.0" fill="#e58400"/>
  <line x1="256.8137" y1="261.2294" x2="289.3391" y2="261.4144" stroke="#bb2700" stroke-width="1.0" />
  <circle cx="273.0764" cy="261.3219" r="2.25" stroke="#bb2700" stroke-width="1.0" fill="#bb2700"/>
  <line x1="256.7955" y1="264.4294" x2="289.3209" y2="264.6143" stroke="#eda600" stroke-width="1.0" />
  <circle cx="273.0582" cy="264.5218" r="2.25" stroke="#eda600" stroke-width="1.0" fill="#eda600"/>
  <line x1="256.8046" y1="262.8294" x2="289.2834" y2="282.7292" stroke="#7102f1" stroke-width="1.0" />
  <circle cx="273.0440" cy="272.7793" r="2.25" stroke="#7102f1" stroke-width="1.0" fill="#7102f1"/>
  <line x1="256.8046" y1="262.8294" x2="289.0786" y2="302.4549" stroke="#e58400" stroke-width="1.0" />
  <circle cx="272.9416" cy="282.6421" r="2.25" stroke="#e58400" stroke-width="1.0" fill="#e58400"/>
  <line x1="256.9433" y1="243.1342" x2="289.4423" y2="243.3067" stroke="#000000" stroke-width="1.0" />
  <circle cx="273.1928" cy="243.2204" r="2.25" stroke="#000000" stroke-width="1.0" fill="#000000"/>
  <line x1="257.3074" y1="126.7125" x2="289.7708" y2="126.2197" stroke="#e58400" stroke-width="1.0" />
  <circle cx="273.5391" cy="126.4661" r="2.25" stroke="#e58400" stroke-width="1.0" fill="#e58400"/>
  <line x1="255.3275" y1="460.9893" x2="255.4742" y2="441.0296" stroke="#000000" stroke-width="1.0" />
  <rect
     style="fill:#ffffff;fill-opacity:1;fill-rule:nonzero;stroke:none"
     width="2"
     height="2"
     x="254.9008"
     y="450.0095"
     transform="rotate(-89.5789 255.4008 451.0095)" /> 
  <path
     style="fill:none;stroke:#000000;stroke-width:1px;stroke-linecap:butt;stroke-linejoin:miter;stroke-opacity:1"
     d="m 255.4008,449.0095 2,2 -2,2 m -2.370121,-4 2,2 -2,2"
     transform="rotate(-89.5789 255.4008 451.0095)"/>
  <line x1="255.3181" y1="462.5893" x2="287.8176" y2="462.7798" stroke="#a21194" stroke-width="1.0" />
  <line x1="255.4742" y1="441.0296" x2="255.6331" y2="421.1090" stroke="#d14c00" stroke-width="1.0" />
  <rect
     style="fill:#ffffff;fill-opacity:1;fill-rule:nonzero;stroke:none"
     width="2"
     height="2"
     x="255.0536"
     y="430.0693"
     transform="rotate(-89.5429 255.5536 431.0693)" /> 
  <path
     style="fill:none;stroke:#d14c00;stroke-width:1px;stroke-linecap:butt;stroke-linejoin:miter;stroke-opacity:1"
     d="m 255.5536,429.0693 2,2 -2,2 m -2.370121,-4 2,2 -2,2"
     transform="rotate(-89.5429 255.5536 431.0693)"/>
  <line x1="255.4762" y1="440.6796" x2="287.9874" y2="440.8699" stroke="#5d01be" stroke-width="1.0" />
  <line x1="255.4908" y1="438.1797" x2="288.0021" y2="438.3699" stroke="#5d01be" stroke-width="1.0" />
  <line x1="255.6331" y1="421.1090" x2="288.1326" y2="421.2986" stroke="#400062" stroke-width="1.0" />
  <line x1="255.6331" y1="421.1090" x2="287.9854" y2="441.2199" stroke="#eda600" stroke-width="1.0" />
  <rect
     style="fill:#ffffff;stroke:none"
     width="5.5"
     height="2"
     x="269.0592"
     y="430.1645" 
     transform="rotate(31.8660 271.8092 431.1645)"    /> 
  <path
     style="fill:none;stroke:#eda600;stroke-width:1px;stroke-linecap:butt;stroke-linejoin:miter;stroke-opacity:1"
    d="m 272.5592,429.1645 2,2 -2,2 m -1.5,-4 -2,2 2,2" transform="rotate(31.8660 271.8092 431.1645)"/>
  <line x1="255.7878" y1="401.2257" x2="255.9445" y2="381.3771" stroke="#c53700" stroke-width="1.0" />
  <rect
     style="fill:#ffffff;fill-opacity:1;fill-rule:nonzero;stroke:none"
     width="2"
     height="2"
     x="255.3661"
     y="390.3014"
     transform="rotate(-89.5477 255.8661 391.3014)" /> 
  <path
     style="fill:none;stroke:#c53700;stroke-width:1px;stroke-linecap:butt;stroke-linejoin:miter;stroke-opacity:1"
     d="m 255.8661,389.3014 2,2 -2,2 m -2.370121,-4 2,2 -2,2"
     transform="rotate(-89.5477 255.8661 391.3014)"/>
  <line x1="255.7805" y1="402.4756" x2="288.2799" y2="402.6645" stroke="#000000" stroke-width="1.0" />
  <line x1="255.7951" y1="399.9757" x2="288.2945" y2="400.1646" stroke="#000000" stroke-width="1.0" />
  <line x1="255.7878" y1="401.2257" x2="288.1326" y2="421.2986" stroke="#400062" stroke-width="1.0" />
  <rect
     style="fill:#ffffff;stroke:none"
     width="5.5"
     height="2"
     x="269.2102"
     y="410.2621" 
     transform="rotate(31.8234 271.9602 411.2621)"    /> 
  <path
     style="fill:none;stroke:#400062;stroke-width:1px;stroke-linecap:butt;stroke-linejoin:miter;stroke-opacity:1"
    d="m 272.7102,409.2621 2,2 -2,2 m -1.5,-4 -2,2 2,2" transform="rotate(31.8234 271.9602 411.2621)"/>
  <line x1="255.9445" y1="381.3771" x2="256.0967" y2="361.5603" stroke="#a21194" stroke-width="1.0" />
  <rect
     style="fill:#ffffff;fill-opacity:1;fill-rule:nonzero;stroke:none"
     width="2"
     height="2"
     x="255.5206"
     y="370.4687"
     transform="rotate(-89.5599 256.0206 371.4687)" /> 
  <path
     style="fill:none;stroke:#a21194;stroke-width:1px;stroke-linecap:butt;stroke-linejoin:miter;stroke-opacity:1"
     d="m 256.0206,369.4687 2,2 -2,2 m -2.370121,-4 2,2 -2,2"
     transform="rotate(-89.5599 256.0206 371.4687)"/>
  <line x1="255.9372" y1="382.6271" x2="288.4366" y2="382.8155" stroke="#000000" stroke-width="1.0" />
  <line x1="255.9517" y1="380.1272" x2="288.4511" y2="380.3156" stroke="#000000" stroke-width="1.0" />
  <line x1="256.0967" y1="361.5603" x2="256.2600" y2="341.7718" stroke="#000000" stroke-width="1.0" />
  <rect
     style="fill:#ffffff;fill-opacity:1;fill-rule:nonzero;stroke:none"
     width="2"
     height="2"
     x="255.6784"
     y="350.6660"
     transform="rotate(-89.5271 256.1784 351.6660)" /> 
  <path
     style="fill:none;stroke:#000000;stroke-width:1px;stroke-linecap:butt;stroke-linejoin:miter;stroke-opacity:1"
     d="m 256.1784,349.6660 2,2 -2,2 m -2.370121,-4 2,2 -2,2"
     transform="rotate(-89.5271 256.1784 351.6660)"/>
  <line x1="256.1060" y1="359.9604" x2="288.6171" y2="360.1488" stroke="#5d01be" stroke-width="1.0" />
  <line x1="256.2528" y1="343.0217" x2="288.7520" y2="343.2105" stroke="#400062" stroke-width="1.0" />
  <line x1="256.2673" y1="340.5218" x2="288.7665" y2="340.7106" stroke="#400062" stroke-width="1.0" />
  <line x1="256.4097" y1="322.0075" x2="256.5349" y2="302.2640" stroke="#400062" stroke-width="1.0" />
  <rect
     style="fill:#ffffff;fill-opacity:1;fill-rule:nonzero;stroke:none"
     width="2"
     height="2"
     x="255.9723"
     y="311.1358"
     transform="rotate(-89.6367 256.4723 312.1358)" /> 
  <path
     style="fill:none;stroke:#400062;stroke-width:1px;stroke-linecap:butt;stroke-linejoin:miter;stroke-opacity:1"
     d="m 256.4723,310.1358 2,2 -2,2 m -2.370121,-4 2,2 -2,2"
     transform="rotate(-89.6367 256.4723 312.1358)"/>
  <line x1="256.4190" y1="320.4075" x2="288.9245" y2="320.5973" stroke="#8405fd" stroke-width="1.0" />
  <line x1="256.4097" y1="322.0075" x2="288.7593" y2="341.9606" stroke="#400062" stroke-width="1.0" />
  <rect
     style="fill:#ffffff;stroke:none"
     width="5.5"
     height="2"
     x="269.8345"
     y="330.9840" 
     transform="rotate(31.6661 272.5845 331.9840)"    /> 
  <path
     style="fill:none;stroke:#400062;stroke-width:1px;stroke-linecap:butt;stroke-linejoin:miter;stroke-opacity:1"
    d="m 273.3345,329.9840 2,2 -2,2 m -1.5,-4 -2,2 2,2" transform="rotate(31.6661 272.5845 331.9840)"/>
  <line x1="256.5989" y1="282.5383" x2="256.8046" y2="262.8294" stroke="#e58400" stroke-width="1.0" />
  <rect
     style="fill:#ffffff;fill-opacity:1;fill-rule:nonzero;stroke:none"
     width="2"
     height="2"
     x="256.2018"
     y="271.6838"
     transform="rotate(-89.4020 256.7018 272.6838)" /> 
  <path
     style="fill:none;stroke:#e58400;stroke-width:1px;stroke-linecap:butt;stroke-linejoin:miter;stroke-opacity:1"
     d="m 256.7018,270.6838 2,2 -2,2 m -2.370121,-4 2,2 -2,2"
     transform="rotate(-89.4020 256.7018 272.6838)"/>
  <line x1="256.5989" y1="282.5383" x2="289.0786" y2="302.4549" stroke="#da6400" stroke-width="1.0" />
  <rect
     style="fill:#ffffff;fill-opacity:1;fill-rule:nonzero;stroke:none"
     width="2"
     height="2"
     x="271.8388"
     y="291.4966" 
     transform="rotate(31.5167 272.8388 292.4966)" /> 
  <path
     style="fill:none;stroke:#da6400;stroke-width:1px;stroke-linecap:butt;stroke-linejoin:miter;stroke-opacity:1"
     d="m 275.8388,290.4966 -2,2 2,2 m -6,-4 2,2 -2,2"
     transform="rotate(31.5167 272.8388 292.4966)"/>
  <line x1="256.9433" y1="243.1342" x2="257.0645" y2="223.4500" stroke="#000000" stroke-width="1.0" />
  <rect
     style="fill:#ffffff;fill-opacity:1;fill-rule:nonzero;stroke:none"
     width="2"
     height="2"
     x="256.5039"
     y="232.2921"
     transform="rotate(-89.6472 257.0039 233.2921)" /> 
  <path
     style="fill:none;stroke:#000000;stroke-width:1px;stroke-linecap:butt;stroke-linejoin:miter;stroke-opacity:1"
     d="m 257.0039,231.2921 2,2 -2,2 m -2.370121,-4 2,2 -2,2"
     transform="rotate(-89.6472 257.0039 233.2921)"/>
  <line x1="256.9433" y1="243.1342" x2="289.3300" y2="263.0144" stroke="#7102f1" stroke-width="1.0" />
  <rect
     style="fill:#ffffff;stroke:none"
     width="5.5"
     height="2"
     x="270.3867"
     y="252.0743" 
     transform="rotate(31.5431 273.1367 253.0743)"    /> 
  <path
     style="fill:none;stroke:#7102f1;stroke-width:1px;stroke-linecap:butt;stroke-linejoin:miter;stroke-opacity:1"
    d="m 273.8867,251.0743 2,2 -2,2 m -1.5,-4 -2,2 2,2" transform="rotate(31.5431 273.1367 253.0743)"/>
  <line x1="257.0645" y1="223.4500" x2="257.2465" y2="203.7711" stroke="#7102f1" stroke-width="1.0" />
  <rect
     style="fill:#ffffff;fill-opacity:1;fill-rule:nonzero;stroke:none"
     width="2"
     height="2"
     x="256.6555"
     y="212.6105"
     transform="rotate(-89.4700 257.1555 213.6105)" /> 
  <path
     style="fill:none;stroke:#7102f1;stroke-width:1px;stroke-linecap:butt;stroke-linejoin:miter;stroke-opacity:1"
     d="m 257.1555,211.6105 2,2 -2,2 m -2.370121,-4 2,2 -2,2"
     transform="rotate(-89.4700 257.1555 213.6105)"/>
  <line x1="257.0587" y1="224.7000" x2="289.5585" y2="224.8514" stroke="#000000" stroke-width="1.0" />
  <line x1="257.0703" y1="222.2000" x2="289.5701" y2="222.3514" stroke="#000000" stroke-width="1.0" />
  <line x1="257.2465" y1="203.7711" x2="257.3760" y2="184.0967" stroke="#8405fd" stroke-width="1.0" />
  <rect
     style="fill:#ffffff;fill-opacity:1;fill-rule:nonzero;stroke:none"
     width="2"
     height="2"
     x="256.8113"
     y="192.9339"
     transform="rotate(-89.6229 257.3113 193.9339)" /> 
  <path
     style="fill:none;stroke:#8405fd;stroke-width:1px;stroke-linecap:butt;stroke-linejoin:miter;stroke-opacity:1"
     d="m 257.3113,191.9339 2,2 -2,2 m -2.370121,-4 2,2 -2,2"
     transform="rotate(-89.6229 257.3113 193.9339)"/>
  <line x1="257.2465" y1="203.7711" x2="289.7113" y2="203.8944" stroke="#000000" stroke-width="1.0" />
  <line x1="257.2465" y1="203.7711" x2="289.5643" y2="223.6014" stroke="#eda600" stroke-width="1.0" />
  <rect
     style="fill:#ffffff;stroke:none"
     width="5.5"
     height="2"
     x="270.6554"
     y="212.6862" 
     transform="rotate(31.5335 273.4054 213.6862)"    /> 
  <path
     style="fill:none;stroke:#eda600;stroke-width:1px;stroke-linecap:butt;stroke-linejoin:miter;stroke-opacity:1"
    d="m 274.1554,211.6862 2,2 -2,2 m -1.5,-4 -2,2 2,2" transform="rotate(31.5335 273.4054 213.6862)"/>
  <line x1="257.3760" y1="184.0967" x2="257.5260" y2="164.4420" stroke="#7102f1" stroke-width="1.0" />
  <rect
     style="fill:#ffffff;fill-opacity:1;fill-rule:nonzero;stroke:none"
     width="2"
     height="2"
     x="256.9510"
     y="173.2693"
     transform="rotate(-89.5628 257.4510 174.2693)" /> 
  <path
     style="fill:none;stroke:#7102f1;stroke-width:1px;stroke-linecap:butt;stroke-linejoin:miter;stroke-opacity:1"
     d="m 257.4510,172.2693 2,2 -2,2 m -2.370121,-4 2,2 -2,2"
     transform="rotate(-89.5628 257.4510 174.2693)"/>
  <line x1="257.3732" y1="185.3467" x2="289.8923" y2="185.4200" stroke="#000000" stroke-width="1.0" />
  <line x1="257.3789" y1="182.8467" x2="289.8979" y2="182.9200" stroke="#000000" stroke-width="1.0" />
  <line x1="257.5280" y1="165.6920" x2="290.0310" y2="165.6402" stroke="#000000" stroke-width="1.0" />
  <line x1="257.5240" y1="163.1920" x2="290.0270" y2="163.1402" stroke="#000000" stroke-width="1.0" />
  <line x1="257.5260" y1="164.4420" x2="289.8951" y2="184.1700" stroke="#da6400" stroke-width="1.0" />
  <rect
     style="fill:#ffffff;stroke:none"
     width="5.5"
     height="2"
     x="270.9605"
     y="173.3060" 
     transform="rotate(31.3611 273.7105 174.3060)"    /> 
  <path
     style="fill:none;stroke:#da6400;stroke-width:1px;stroke-linecap:butt;stroke-linejoin:miter;stroke-opacity:1"
    d="m 274.4605,172.3060 2,2 -2,2 m -1.5,-4 -2,2 2,2" transform="rotate(31.3611 273.7105 174.3060)"/>
  <line x1="257.5604" y1="144.7950" x2="257.2831" y2="125.1127" stroke="#bb2700" stroke-width="1.0" />
  <rect
     style="fill:#ffffff;fill-opacity:1;fill-rule:nonzero;stroke:none"
     width="2"
     height="2"
     x="256.9218"
     y="133.9539"
     transform="rotate(269.1927 257.4218 134.9539)" /> 
  <path
     style="fill:none;stroke:#bb2700;stroke-width:1px;stroke-linecap:butt;stroke-linejoin:miter;stroke-opacity:1"
     d="m 257.4218,132.9539 2,2 -2,2 m -2.370121,-4 2,2 -2,2"
     transform="rotate(269.1927 257.4218 134.9539)"/>
  <line x1="257.5704" y1="146.0450" x2="290.0563" y2="145.7861" stroke="#000000" stroke-width="1.0" />
  <line x1="257.5505" y1="143.5451" x2="290.0364" y2="143.2862" stroke="#000000" stroke-width="1.0" />
  <line x1="257.5604" y1="144.7950" x2="290.0290" y2="164.3902" stroke="#000000" stroke-width="1.0" />
  <rect
     style="fill:#ffffff;stroke:none"
     width="5.5"
     height="2"
     x="271.0447"
     y="153.5926" 
     transform="rotate(31.1114 273.7947 154.5926)"    /> 
  <path
     style="fill:none;stroke:#000000;stroke-width:1px;stroke-linecap:butt;stroke-linejoin:miter;stroke-opacity:1"
    d="m 274.5447,152.5926 2,2 -2,2 m -1.5,-4 -2,2 2,2" transform="rotate(31.1114 273.7947 154.5926)"/>
  <line x1="257.2831" y1="125.1127" x2="256.8722" y2="105.3308" stroke="#5d01be" stroke-width="1.0" />
  <rect
     style="fill:#ffffff;fill-opacity:1;fill-rule:nonzero;stroke:none"
     width="2"
     height="2"
     x="256.5777"
     y="114.2217"
     transform="rotate(268.8101 257.0777 115.2217)" /> 
  <path
     style="fill:none;stroke:#5d01be;stroke-width:1px;stroke-linecap:butt;stroke-linejoin:miter;stroke-opacity:1"
     d="m 257.0777,113.2217 2,2 -2,2 m -2.370121,-4 2,2 -2,2"
     transform="rotate(268.8101 257.0777 115.2217)"/>
  <line x1="257.2588" y1="123.5129" x2="289.7222" y2="123.0201" stroke="#7102f1" stroke-width="1.0" />
  <line x1="256.8722" y1="105.3308" x2="266.6846" y2="88.1101" stroke="#da6400" stroke-width="1.0" />
  <rect
     style="fill:#ffffff;fill-opacity:1;fill-rule:nonzero;stroke:none"
     width="2"
     height="2"
     x="261.2784"
     y="95.7204"
     transform="rotate(-60.3254 261.7784 96.7204)" /> 
  <path
     style="fill:none;stroke:#da6400;stroke-width:1px;stroke-linecap:butt;stroke-linejoin:miter;stroke-opacity:1"
     d="m 261.7784,94.7204 2,2 -2,2 m -2.370121,-4 2,2 -2,2"
     transform="rotate(-60.3254 261.7784 96.7204)"/>
  <line x1="256.8977" y1="106.5805" x2="289.2879" y2="105.9209" stroke="#400062" stroke-width="1.0" />
  <line x1="256.8468" y1="104.0810" x2="289.2370" y2="103.4215" stroke="#400062" stroke-width="1.0" />
  <line x1="266.8760" y1="89.3454" x2="286.4151" y2="86.3174" stroke="#000000" stroke-width="1.0" />
  <line x1="266.4931" y1="86.8749" x2="286.0322" y2="83.8469" stroke="#000000" stroke-width="1.0" />
  <line x1="266.6846" y1="88.1101" x2="289.2625" y2="104.6712" stroke="#e58400" stroke-width="1.0" />
  <rect
     style="fill:#ffffff;stroke:none"
     width="5.5"
     height="2"
     x="275.2235"
     y="95.3907" 
     transform="rotate(36.2603 277.9735 96.3907)"    /> 
  <path
     style="fill:none;stroke:#e58400;stroke-width:1px;stroke-linecap:butt;stroke-linejoin:miter;stroke-opacity:1"
    d="m 278.7235,94.3907 2,2 -2,2 m -1.5,-4 -2,2 2,2" transform="rotate(36.2603 277.9735 96.3907)"/>
  <line x1="286.2236" y1="85.0821" x2="289.2625" y2="104.6712" stroke="#ae1a38" stroke-width="1.0" />
  <rect
     style="fill:#ffffff;fill-opacity:1;fill-rule:nonzero;stroke:none"
     width="2"
     height="2"
     x="287.2431"
     y="93.8767"
     transform="rotate(81.1820 287.7431 94.8767)" /> 
  <path
     style="fill:none;stroke:#ae1a38;stroke-width:1px;stroke-linecap:butt;stroke-linejoin:miter;stroke-opacity:1"
     d="m 287.7431,92.8767 2,2 -2,2 m -2.370121,-4 2,2 -2,2"
     transform="rotate(81.1820 287.7431 94.8767)"/>
  <line x1="289.2625" y1="104.6712" x2="289.7465" y2="124.6199" stroke="#9309df" stroke-width="1.0" />
  <rect
     style="fill:#ffffff;fill-opacity:1;fill-rule:nonzero;stroke:none"
     width="2"
     height="2"
     x="289.0045"
     y="113.6456"
     transform="rotate(88.6100 289.5045 114.6456)" /> 
  <path
     style="fill:none;stroke:#9309df;stroke-width:1px;stroke-linecap:butt;stroke-linejoin:miter;stroke-opacity:1"
     d="m 289.5045,112.6456 2,2 -2,2 m -2.370121,-4 2,2 -2,2"
     transform="rotate(88.6100 289.5045 114.6456)"/>
  <line x1="289.7465" y1="124.6199" x2="290.0464" y2="144.5361" stroke="#8405fd" stroke-width="1.0" />
  <rect
     style="fill:#ffffff;fill-opacity:1;fill-rule:nonzero;stroke:none"
     width="2"
     height="2"
     x="289.3964"
     y="133.5780"
     transform="rotate(89.1374 289.8964 134.5780)" /> 
  <path
     style="fill:none;stroke:#8405fd;stroke-width:1px;stroke-linecap:butt;stroke-linejoin:miter;stroke-opacity:1"
     d="m 289.8964,132.5780 2,2 -2,2 m -2.370121,-4 2,2 -2,2"
     transform="rotate(89.1374 289.8964 134.5780)"/>
  <line x1="290.0290" y1="164.3902" x2="289.8951" y2="184.1700" stroke="#e58400" stroke-width="1.0" />
  <rect
     style="fill:#ffffff;fill-opacity:1;fill-rule:nonzero;stroke:none"
     width="2"
     height="2"
     x="289.4621"
     y="173.2801"
     transform="rotate(90.3880 289.9621 174.2801)" /> 
  <path
     style="fill:none;stroke:#e58400;stroke-width:1px;stroke-linecap:butt;stroke-linejoin:miter;stroke-opacity:1"
     d="m 289.9621,172.2801 2,2 -2,2 m -2.370121,-4 2,2 -2,2"
     transform="rotate(90.3880 289.9621 174.2801)"/>
  <line x1="289.8951" y1="184.1700" x2="289.7113" y2="203.8944" stroke="#c53700" stroke-width="1.0" />
  <rect
     style="fill:#ffffff;fill-opacity:1;fill-rule:nonzero;stroke:none"
     width="2"
     height="2"
     x="289.3032"
     y="193.0322"
     transform="rotate(90.5340 289.8032 194.0322)" /> 
  <path
     style="fill:none;stroke:#c53700;stroke-width:1px;stroke-linecap:butt;stroke-linejoin:miter;stroke-opacity:1"
     d="m 289.8032,192.0322 2,2 -2,2 m -2.370121,-4 2,2 -2,2"
     transform="rotate(90.5340 289.8032 194.0322)"/>
  <line x1="289.7113" y1="203.8944" x2="289.5643" y2="223.6014" stroke="#d14c00" stroke-width="1.0" />
  <rect
     style="fill:#ffffff;fill-opacity:1;fill-rule:nonzero;stroke:none"
     width="2"
     height="2"
     x="289.1378"
     y="212.7479"
     transform="rotate(90.4272 289.6378 213.7479)" /> 
  <path
     style="fill:none;stroke:#d14c00;stroke-width:1px;stroke-linecap:butt;stroke-linejoin:miter;stroke-opacity:1"
     d="m 289.6378,211.7479 2,2 -2,2 m -2.370121,-4 2,2 -2,2"
     transform="rotate(90.4272 289.6378 213.7479)"/>
  <line x1="289.5643" y1="223.6014" x2="289.4423" y2="243.3067" stroke="#000000" stroke-width="1.0" />
  <rect
     style="fill:#ffffff;fill-opacity:1;fill-rule:nonzero;stroke:none"
     width="2"
     height="2"
     x="289.0033"
     y="232.4540"
     transform="rotate(90.3548 289.5033 233.4540)" /> 
  <path
     style="fill:none;stroke:#000000;stroke-width:1px;stroke-linecap:butt;stroke-linejoin:miter;stroke-opacity:1"
     d="m 289.5033,231.4540 2,2 -2,2 m -2.370121,-4 2,2 -2,2"
     transform="rotate(90.3548 289.5033 233.4540)"/>
  <line x1="289.3300" y1="263.0144" x2="289.2834" y2="282.7292" stroke="#9309df" stroke-width="1.0" />
  <rect
     style="fill:#ffffff;fill-opacity:1;fill-rule:nonzero;stroke:none"
     width="2"
     height="2"
     x="288.8067"
     y="271.8718"
     transform="rotate(90.1354 289.3067 272.8718)" /> 
  <path
     style="fill:none;stroke:#9309df;stroke-width:1px;stroke-linecap:butt;stroke-linejoin:miter;stroke-opacity:1"
     d="m 289.3067,270.8718 2,2 -2,2 m -2.370121,-4 2,2 -2,2"
     transform="rotate(90.1354 289.3067 272.8718)"/>
  <line x1="289.2834" y1="282.7292" x2="289.0786" y2="302.4549" stroke="#da6400" stroke-width="1.0" />
  <rect
     style="fill:#ffffff;fill-opacity:1;fill-rule:nonzero;stroke:none"
     width="2"
     height="2"
     x="288.6810"
     y="291.5920"
     transform="rotate(90.5949 289.1810 292.5920)" /> 
  <path
     style="fill:none;stroke:#da6400;stroke-width:1px;stroke-linecap:butt;stroke-linejoin:miter;stroke-opacity:1"
     d="m 289.1810,290.5920 2,2 -2,2 m -2.370121,-4 2,2 -2,2"
     transform="rotate(90.5949 289.1810 292.5920)"/>
  <line x1="288.7593" y1="341.9606" x2="288.6078" y2="361.7487" stroke="#000000" stroke-width="1.0" />
  <rect
     style="fill:#ffffff;fill-opacity:1;fill-rule:nonzero;stroke:none"
     width="2"
     height="2"
     x="288.1836"
     y="350.8546"
     transform="rotate(90.4385 288.6836 351.8546)" /> 
  <path
     style="fill:none;stroke:#000000;stroke-width:1px;stroke-linecap:butt;stroke-linejoin:miter;stroke-opacity:1"
     d="m 288.6836,349.8546 2,2 -2,2 m -2.370121,-4 2,2 -2,2"
     transform="rotate(90.4385 288.6836 351.8546)"/>
  <line x1="288.6078" y1="361.7487" x2="288.4439" y2="381.5655" stroke="#400062" stroke-width="1.0" />
  <rect
     style="fill:#ffffff;fill-opacity:1;fill-rule:nonzero;stroke:none"
     width="2"
     height="2"
     x="288.0259"
     y="370.6571"
     transform="rotate(90.4740 288.5259 371.6571)" /> 
  <path
     style="fill:none;stroke:#400062;stroke-width:1px;stroke-linecap:butt;stroke-linejoin:miter;stroke-opacity:1"
     d="m 288.5259,369.6571 2,2 -2,2 m -2.370121,-4 2,2 -2,2"
     transform="rotate(90.4740 288.5259 371.6571)"/>
  <line x1="288.4439" y1="381.5655" x2="288.2872" y2="401.4145" stroke="#7102f1" stroke-width="1.0" />
  <rect
     style="fill:#ffffff;fill-opacity:1;fill-rule:nonzero;stroke:none"
     width="2"
     height="2"
     x="287.8655"
     y="390.4900"
     transform="rotate(90.4523 288.3655 391.4900)" /> 
  <path
     style="fill:none;stroke:#7102f1;stroke-width:1px;stroke-linecap:butt;stroke-linejoin:miter;stroke-opacity:1"
     d="m 288.3655,389.4900 2,2 -2,2 m -2.370121,-4 2,2 -2,2"
     transform="rotate(90.4523 288.3655 391.4900)"/>
  <line x1="288.1326" y1="421.2986" x2="287.9854" y2="441.2199" stroke="#bb2700" stroke-width="1.0" />
  <rect
     style="fill:#ffffff;fill-opacity:1;fill-rule:nonzero;stroke:none"
     width="2"
     height="2"
     x="287.5590"
     y="430.2592"
     transform="rotate(90.4234 288.0590 431.2592)" /> 
  <path
     style="fill:none;stroke:#bb2700;stroke-width:1px;stroke-linecap:butt;stroke-linejoin:miter;stroke-opacity:1"
     d="m 288.0590,429.2592 2,2 -2,2 m -2.370121,-4 2,2 -2,2"
     transform="rotate(90.4234 288.0590 431.2592)"/>
  <line x1="287.9854" y1="441.2199" x2="287.8270" y2="461.1798" stroke="#000000" stroke-width="1.0" />
  <rect
     style="fill:#ffffff;fill-opacity:1;fill-rule:nonzero;stroke:none"
     width="2"
     height="2"
     x="287.4062"
     y="450.1998"
     transform="rotate(90.4545 287.9062 451.1998)" /> 
  <path
     style="fill:none;stroke:#000000;stroke-width:1px;stroke-linecap:butt;stroke-linejoin:miter;stroke-opacity:1"
     d="m 287.9062,449.1998 2,2 -2,2 m -2.370121,-4 2,2 -2,2"
     transform="rotate(90.4545 287.9062 451.1998)"/>
<circle cx="255.3275" cy="460.9893" r="5.0" stroke="#595959" stroke-width="1.0" fill="#ffffff"/>
<text x="255.3275" y="463.6893" text-anchor="middle" font-family="Helvetica" font-size="7.5" fill="#000000" >A</text>
<circle cx="255.4742" cy="441.0296" r="5.0" stroke="#595959" stroke-width="1.0" fill="#ffffff"/>
<text x="255.4742" y="443.7296" text-anchor="middle" font-family="Helvetica" font-size="7.5" fill="#000000" >C</text>
<circle cx="255.6331" cy="421.1090" r="5.0" stroke="#595959" stroke-width="1.0" fill="#ffffff"/>
<text x="255.6331" y="423.8090" text-anchor="middle" font-family="Helvetica" font-size="7.5" fill="#000000" >U</text>
<circle cx="255.7878" cy="401.2257" r="5.0" stroke="#595959" stroke-width="1.0" fill="#ffffff"/>
<text x="255.7878" y="403.9257" text-anchor="middle" font-family="Helvetica" font-size="7.5" fill="#000000" >G</text>
<circle cx="255.9445" cy="381.3771" r="5.0" stroke="#595959" stroke-width="1.0" fill="#ffffff"/>
<text x="255.9445" y="384.0771" text-anchor="middle" font-family="Helvetica" font-size="7.5" fill="#000000" >G</text>
<circle cx="256.0967" cy="361.5603" r="5.0" stroke="#595959" stroke-width="1.0" fill="#ffffff"/>
<text x="256.0967" y="364.2603" text-anchor="middle" font-family="Helvetica" font-size="7.5" fill="#000000" >A</text>
<circle cx="256.2600" cy="341.7718" r="5.0" stroke="#595959" stroke-width="1.0" fill="#ffffff"/>
<text x="256.2600" y="344.4718" text-anchor="middle" font-family="Helvetica" font-size="7.5" fill="#000000" >C</text>
<circle cx="256.4097" cy="322.0075" r="5.0" stroke="#595959" stroke-width="1.0" fill="#ffffff"/>
<text x="256.4097" y="324.7075" text-anchor="middle" font-family="Helvetica" font-size="7.5" fill="#000000" >A</text>
<circle cx="256.5349" cy="302.2640" r="5.0" stroke="#595959" stroke-width="1.0" fill="#ffffff"/>
<text x="256.5349" y="304.9640" text-anchor="middle" font-family="Helvetica" font-size="7.5" fill="#000000" >G</text>
<circle cx="256.5989" cy="282.5383" r="5.0" stroke="#595959" stroke-width="1.0" fill="#ffffff"/>
<text x="256.5989" y="285.2383" text-anchor="middle" font-family="Helvetica" font-size="7.5" fill="#000000" >G</text>
<circle cx="256.8046" cy="262.8294" r="5.0" stroke="#595959" stroke-width="1.0" fill="#ffffff"/>
<text x="256.8046" y="265.5294" text-anchor="middle" font-family="Helvetica" font-size="7.5" fill="#000000" >U</text>
<circle cx="256.9433" cy="243.1342" r="5.0" stroke="#595959" stroke-width="1.0" fill="#ffffff"/>
<text x="256.9433" y="245.8342" text-anchor="middle" font-family="Helvetica" font-size="7.5" fill="#000000" >G</text>
<circle cx="257.0645" cy="223.4500" r="5.0" stroke="#595959" stroke-width="1.0" fill="#ffffff"/>
<text x="257.0645" y="226.1500" text-anchor="middle" font-family="Helvetica" font-size="7.5" fill="#000000" >C</text>
<circle cx="257.2465" cy="203.7711" r="5.0" stroke="#595959" stroke-width="1.0" fill="#ffffff"/>
<text x="257.2465" y="206.4711" text-anchor="middle" font-family="Helvetica" font-size="7.5" fill="#000000" >U</text>
<circle cx="257.3760" cy="184.0967" r="5.0" stroke="#595959" stroke-width="1.0" fill="#ffffff"/>
<text x="257.3760" y="186.7967" text-anchor="middle" font-family="Helvetica" font-size="7.5" fill="#000000" >C</text>
<circle cx="257.5260" cy="164.4420" r="5.0" stroke="#595959" stroke-width="1.0" fill="#ffffff"/>
<text x="257.5260" y="167.1420" text-anchor="middle" font-family="Helvetica" font-size="7.5" fill="#000000" >C</text>
<circle cx="257.5604" cy="144.7950" r="5.0" stroke="#595959" stroke-width="1.0" fill="#ffffff"/>
<text x="257.5604" y="147.4950" text-anchor="middle" font-family="Helvetica" font-size="7.5" fill="#000000" >G</text>
<circle cx="257.2831" cy="125.1127" r="5.0" stroke="#595959" stroke-width="1.0" fill="#ffffff"/>
<text x="257.2831" y="127.8127" text-anchor="middle" font-family="Helvetica" font-size="7.5" fill="#000000" >A</text>
<circle cx="256.8722" cy="105.3308" r="5.0" stroke="#595959" stroke-width="1.0" fill="#ffffff"/>
<text x="256.8722" y="108.0308" text-anchor="middle" font-family="Helvetica" font-size="7.5" fill="#000000" >G</text>
<circle cx="266.6846" cy="88.1101" r="5.0" stroke="#595959" stroke-width="1.0" fill="#ffffff"/>
<text x="266.6846" y="90.8101" text-anchor="middle" font-family="Helvetica" font-size="7.5" fill="#000000" >G</text>
<circle cx="286.2236" cy="85.0821" r="5.0" stroke="#595959" stroke-width="1.0" fill="#ffffff"/>
<text x="286.2236" y="87.7821" text-anchor="middle" font-family="Helvetica" font-size="7.5" fill="#000000" >C</text>
<circle cx="289.2625" cy="104.6712" r="5.0" stroke="#595959" stroke-width="1.0" fill="#ffffff"/>
<text x="289.2625" y="107.3712" text-anchor="middle" font-family="Helvetica" font-size="7.5" fill="#000000" >C</text>
<circle cx="289.7465" cy="124.6199" r="5.0" stroke="#595959" stroke-width="1.0" fill="#ffffff"/>
<text x="289.7465" y="127.3199" text-anchor="middle" font-family="Helvetica" font-size="7.5" fill="#000000" >U</text>
<circle cx="290.0464" cy="144.5361" r="5.0" stroke="#595959" stroke-width="1.0" fill="#ffffff"/>
<text x="290.0464" y="147.2361" text-anchor="middle" font-family="Helvetica" font-size="7.5" fill="#000000" >C</text>
<circle cx="290.0290" cy="164.3902" r="5.0" stroke="#595959" stroke-width="1.0" fill="#ffffff"/>
<text x="290.0290" y="167.0902" text-anchor="middle" font-family="Helvetica" font-size="7.5" fill="#000000" >G</text>
<circle cx="289.8951" cy="184.1700" r="5.0" stroke="#595959" stroke-width="1.0" fill="#ffffff"/>
<text x="289.8951" y="186.8700" text-anchor="middle" font-family="Helvetica" font-size="7.5" fill="#000000" >G</text>
<circle cx="289.7113" cy="203.8944" r="5.0" stroke="#595959" stroke-width="1.0" fill="#ffffff"/>
<text x="289.7113" y="206.5944" text-anchor="middle" font-family="Helvetica" font-size="7.5" fill="#000000" >A</text>
<circle cx="289.5643" cy="223.6014" r="5.0" stroke="#595959" stroke-width="1.0" fill="#ffffff"/>
<text x="289.5643" y="226.3014" text-anchor="middle" font-family="Helvetica" font-size="7.5" fill="#000000" >G</text>
<circle cx="289.4423" cy="243.3067" r="5.0" stroke="#595959" stroke-width="1.0" fill="#ffffff"/>
<text x="289.4423" y="246.0067" text-anchor="middle" font-family="Helvetica" font-size="7.5" fill="#000000" >U</text>
<circle cx="289.3300" cy="263.0144" r="5.0" stroke="#595959" stroke-width="1.0" fill="#ffffff"/>
<text x="289.3300" y="265.7144" text-anchor="middle" font-family="Helvetica" font-size="7.5" fill="#000000" >G</text>
<circle cx="289.2834" cy="282.7292" r="5.0" stroke="#595959" stroke-width="1.0" fill="#ffffff"/>
<text x="289.2834" y="285.4292" text-anchor="middle" font-family="Helvetica" font-size="7.5" fill="#000000" >U</text>
<circle cx="289.0786" cy="302.4549" r="5.0" stroke="#595959" stroke-width="1.0" fill="#ffffff"/>
<text x="289.0786" y="305.1549" text-anchor="middle" font-family="Helvetica" font-size="7.5" fill="#000000" >U</text>
<circle cx="288.9152" cy="322.1973" r="5.0" stroke="#595959" stroke-width="1.0" fill="#ffffff"/>
<text x="288.9152" y="324.8973" text-anchor="middle" font-family="Helvetica" font-size="7.5" fill="#000000" >U</text>
<circle cx="288.7593" cy="341.9606" r="5.0" stroke="#595959" stroke-width="1.0" fill="#ffffff"/>
<text x="288.7593" y="344.6606" text-anchor="middle" font-family="Helvetica" font-size="7.5" fill="#000000" >G</text>
<circle cx="288.6078" cy="361.7487" r="5.0" stroke="#595959" stroke-width="1.0" fill="#ffffff"/>
<text x="288.6078" y="364.4487" text-anchor="middle" font-family="Helvetica" font-size="7.5" fill="#000000" >U</text>
<circle cx="288.4439" cy="381.5655" r="5.0" stroke="#595959" stroke-width="1.0" fill="#ffffff"/>
<text x="288.4439" y="384.2655" text-anchor="middle" font-family="Helvetica" font-size="7.5" fill="#000000" >C</text>
<circle cx="288.2872" cy="401.4145" r="5.0" stroke="#595959" stroke-width="1.0" fill="#ffffff"/>
<text x="288.2872" y="404.1145" text-anchor="middle" font-family="Helvetica" font-size="7.5" fill="#000000" >C</text>
<circle cx="288.1326" cy="421.2986" r="5.0" stroke="#595959" stroke-width="1.0" fill="#ffffff"/>
<text x="288.1326" y="423.9986" text-anchor="middle" font-family="Helvetica" font-size="7.5" fill="#000000" >A</text>
<circle cx="287.9854" cy="441.2199" r="5.0" stroke="#595959" stroke-width="1.0" fill="#ffffff"/>
<text x="287.9854" y="443.9199" text-anchor="middle" font-family="Helvetica" font-size="7.5" fill="#000000" >G</text>
<circle cx="287.8270" cy="461.1798" r="5.0" stroke="#595959" stroke-width="1.0" fill="#ffffff"/>
<text x="287.8270" y="463.8798" text-anchor="middle" font-family="Helvetica" font-size="7.5" fill="#000000" >U</text>
</svg>