<?xml version="1.0" encoding="UTF-8"?>
<!DOCTYPE svg PUBLIC "-//W3C//DTD SVG 1.1//EN" 
"http://www.w3.org/Graphics/SVG/1.1/DTD/svg11.dtd">

<svg version="1.1"
   width="546px"
   height="546px"
xmlns="http://www.w3.org/2000/svg">
    <rect width="100%" height="100%" fill="white"/>

  <line x1="244.0925" y1="418.5944" x2="243.4434" y2="398.5154" stroke="#595959"
     style="stroke-width:2;stroke-miterlimit:4;stroke-dasharray:1,1;stroke-dashoffset:0" />
  <line x1="249.3357" y1="298.6958" x2="252.7238" y2="283.2150" stroke="#595959"
     style="stroke-width:2;stroke-miterlimit:4;stroke-dasharray:1,1;stroke-dashoffset:0" />
  <line x1="252.7238" y1="283.2150" x2="255.5143" y2="267.3712" stroke="#595959"
     style="stroke-width:2;stroke-miterlimit:4;stroke-dasharray:1,1;stroke-dashoffset:0" />
  <line x1="255.5143" y1="267.3712" x2="262.4165" y2="248.8623" stroke="#595959"
     style="stroke-width:2;stroke-miterlimit:4;stroke-dasharray:1,1;stroke-dashoffset:0" />
  <line x1="262.4165" y1="248.8623" x2="267.7854" y2="225.6878" stroke="#595959"
     style="stroke-width:2;stroke-miterlimit:4;stroke-dasharray:1,1;stroke-dashoffset:0" />
  <line x1="269.0304" y1="167.1267" x2="268.4739" y2="147.7448" stroke="#595959"
     style="stroke-width:2;stroke-miterlimit:4;stroke-dasharray:1,1;stroke-dashoffset:0" />
  <line x1="302.4680" y1="147.0842" x2="302.5294" y2="166.8892" stroke="#595959"
     style="stroke-width:2;stroke-miterlimit:4;stroke-dasharray:1,1;stroke-dashoffset:0" />
  <line x1="288.6536" y1="277.6901" x2="281.8688" y2="301.8028" stroke="#595959"
     style="stroke-width:2;stroke-miterlimit:4;stroke-dasharray:1,1;stroke-dashoffset:0" />
  <line x1="281.8688" y1="301.8028" x2="279.6688" y2="322.0914" stroke="#595959"
     style="stroke-width:2;stroke-miterlimit:4;stroke-dasharray:1,1;stroke-dashoffset:0" />
  <line x1="276.0300" y1="397.8966" x2="276.6409" y2="417.2463" stroke="#595959"
     style="stroke-width:2;stroke-miterlimit:4;stroke-dasharray:1,1;stroke-dashoffset:0" />
  <line x1="246.2175" y1="455.3167" x2="278.7263" y2="453.4275" stroke="#b41f06" stroke-width="1.0" />
  <circle cx="262.4719" cy="454.3721" r="2.25" stroke="#b41f06" stroke-width="1.0" fill="#b41f06"/>
  <line x1="246.5888" y1="461.7060" x2="279.0976" y2="459.8167" stroke="#e17900" stroke-width="1.0" />
  <path d="M 257.0932 463.0113 L 257.0932 458.5113 L 261.5932 458.5113 L 261.5932 463.0113 z" style="stroke:#e17900;stroke-width:1.0" fill="#e17900" 
    transform="rotate(-3.3260 262.8432 460.7613)"/>
  <path d="M 264.5932 463.0113 L 264.5932 458.5113 L 268.5932 460.7613 z" style="stroke:#e17900;stroke-width:1.0" fill="#e17900"
    transform="rotate(-3.3260 262.8432 460.7613)"/>
  <line x1="244.1587" y1="420.1931" x2="276.7071" y2="418.8450" stroke="#f1b400" stroke-width="1.0" />
  <circle cx="260.4329" cy="419.5190" r="2.25" stroke="#f1b400" stroke-width="1.0" fill="#f1b400"/>
  <line x1="243.2675" y1="380.0224" x2="275.8771" y2="380.3592" stroke="#f1b400" stroke-width="1.0" />
  <circle cx="259.5723" cy="380.1908" r="2.25" stroke="#f1b400" stroke-width="1.0" fill="#f1b400"/>
  <line x1="243.7438" y1="359.9224" x2="276.3605" y2="361.4560" stroke="#e17900" stroke-width="1.0" />
  <circle cx="260.0521" cy="360.6892" r="2.25" stroke="#e17900" stroke-width="1.0" fill="#e17900"/>
  <line x1="243.8189" y1="358.3242" x2="275.8936" y2="378.7593" stroke="#f1b400" stroke-width="1.0" />
  <circle cx="259.8563" cy="368.5417" r="2.25" stroke="#f1b400" stroke-width="1.0" fill="#f1b400"/>
  <line x1="245.3074" y1="336.7951" x2="277.8718" y2="339.5202" stroke="#e99400" stroke-width="1.0" />
  <circle cx="261.5896" cy="338.1577" r="2.25" stroke="#e99400" stroke-width="1.0" fill="#e99400"/>
  <line x1="247.2941" y1="317.0595" x2="279.8370" y2="320.5003" stroke="#e17900" stroke-width="1.0" />
  <circle cx="263.5655" cy="318.7799" r="2.25" stroke="#e17900" stroke-width="1.0" fill="#e17900"/>
  <line x1="246.1793" y1="319.9405" x2="276.7918" y2="342.4046" stroke="#c83b00" stroke-width="1.0" />
  <circle cx="261.4855" cy="331.1726" r="2.25" stroke="#c83b00" stroke-width="1.0" fill="#c83b00"/>
  <line x1="249.3357" y1="298.6958" x2="279.6688" y2="322.0914" stroke="#f1b400" stroke-width="1.0" />
  <circle cx="264.5022" cy="310.3936" r="2.25" stroke="#f1b400" stroke-width="1.0" fill="#f1b400"/>
  <line x1="262.4165" y1="248.8623" x2="295.8010" y2="258.7340" stroke="#8605fc" stroke-width="1.0" />
  <circle cx="282.6087" cy="253.7982" r="2.25" stroke="#8605fc" stroke-width="1.0" fill="#8605fc"
    transform="rotate(16.4728 279.1087 253.7982)" />
  <path d="M 277.3587 256.0482 L 277.3587 251.5482 L 273.3587 253.7982 z" style="stroke:#8605fc;stroke-width:1.0" fill="#8605fc" 
    transform="rotate(16.4728 279.1087 253.7982)"/>
  <line x1="268.6143" y1="203.7816" x2="301.6826" y2="205.0275" stroke="#f1b400" stroke-width="1.0" />
  <circle cx="285.1485" cy="204.4045" r="2.25" stroke="#f1b400" stroke-width="1.0" fill="#f1b400"/>
  <line x1="268.5050" y1="149.3445" x2="302.4991" y2="148.6839" stroke="#f1b400" stroke-width="1.0" />
  <circle cx="285.5020" cy="149.0142" r="2.25" stroke="#f1b400" stroke-width="1.0" fill="#f1b400"/>
  <line x1="267.7683" y1="126.7413" x2="301.8666" y2="125.6488" stroke="#e17900" stroke-width="1.0" />
  <circle cx="284.8174" cy="126.1950" r="2.25" stroke="#e17900" stroke-width="1.0" fill="#e17900"/>
  <line x1="274.4753" y1="93.7482" x2="292.7412" y2="93.1466" stroke="#f1b400" stroke-width="1.0" />
  <circle cx="283.6083" cy="93.4474" r="2.25" stroke="#f1b400" stroke-width="1.0" fill="#f1b400"/>
  <line x1="298.3510" y1="242.6615" x2="295.8010" y2="258.7340" stroke="#b41f06" stroke-width="1.0" />
  <circle cx="300.8260" cy="250.6978" r="2.25" stroke="#b41f06" stroke-width="1.0" fill="#b41f06"
    transform="rotate(279.0151 297.0760 250.6978)" />
  <path d="M 291.0760 252.9478 L 291.0760 248.4478 L 295.5760 248.4478 L 295.5760 252.9478 z" style="stroke:#b41f06; stroke-width:1.0" fill="#b41f06" 
    transform="rotate(279.0151 297.0760 250.6978)"/>
  <line x1="246.4032" y1="458.5113" x2="245.1421" y2="438.5907" stroke="#000000" stroke-width="1.0" />
  <rect
     style="fill:#ffffff;fill-opacity:1;fill-rule:nonzero;stroke:none"
     width="2"
     height="2"
     x="245.2727"
     y="447.5510"
     transform="rotate(266.3777 245.7727 448.5510)" /> 
  <path
     style="fill:none;stroke:#000000;stroke-width:1px;stroke-linecap:butt;stroke-linejoin:miter;stroke-opacity:1"
     d="m 245.7727,446.5510 2,2 -2,2 m -2.370121,-4 2,2 -2,2"
     transform="rotate(266.3777 245.7727 448.5510)"/>
  <line x1="246.4032" y1="458.5113" x2="278.9120" y2="456.6221" stroke="#e99400" stroke-width="1.0" />
  <line x1="245.1421" y1="438.5907" x2="244.0925" y2="418.5944" stroke="#5500a3" stroke-width="1.0" />
  <rect
     style="fill:#ffffff;fill-opacity:1;fill-rule:nonzero;stroke:none"
     width="2"
     height="2"
     x="244.1173"
     y="427.5926"
     transform="rotate(266.9952 244.6173 428.5926)" /> 
  <path
     style="fill:none;stroke:#5500a3;stroke-width:1px;stroke-linecap:butt;stroke-linejoin:miter;stroke-opacity:1"
     d="m 244.6173,426.5926 2,2 -2,2 m -2.370121,-4 2,2 -2,2"
     transform="rotate(266.9952 244.6173 428.5926)"/>
  <line x1="245.2102" y1="439.8388" x2="277.7055" y2="438.0650" stroke="#3c0057" stroke-width="1.0" />
  <line x1="245.0740" y1="437.3426" x2="277.5692" y2="435.5687" stroke="#3c0057" stroke-width="1.0" />
  <line x1="244.0263" y1="416.9958" x2="276.5747" y2="415.6477" stroke="#5500a3" stroke-width="1.0" />
  <line x1="243.4434" y1="398.5154" x2="243.2841" y2="378.4225" stroke="#d14c00" stroke-width="1.0" />
  <rect
     style="fill:#ffffff;fill-opacity:1;fill-rule:nonzero;stroke:none"
     width="2"
     height="2"
     x="242.8637"
     y="387.4689"
     transform="rotate(269.5457 243.3637 388.4689)" /> 
  <path
     style="fill:none;stroke:#d14c00;stroke-width:1px;stroke-linecap:butt;stroke-linejoin:miter;stroke-opacity:1"
     d="m 243.3637,386.4689 2,2 -2,2 m -2.370121,-4 2,2 -2,2"
     transform="rotate(269.5457 243.3637 388.4689)"/>
  <line x1="243.4671" y1="399.7651" x2="276.0538" y2="399.1464" stroke="#3c0057" stroke-width="1.0" />
  <line x1="243.4197" y1="397.2656" x2="276.0063" y2="396.6468" stroke="#3c0057" stroke-width="1.0" />
  <line x1="243.4434" y1="398.5154" x2="276.6409" y2="417.2463" stroke="#000000" stroke-width="1.0" />
  <rect
     style="fill:#ffffff;stroke:none"
     width="5.5"
     height="2"
     x="257.2922"
     y="406.8809" 
     transform="rotate(29.4329 260.0422 407.8809)"    /> 
  <path
     style="fill:none;stroke:#000000;stroke-width:1px;stroke-linecap:butt;stroke-linejoin:miter;stroke-opacity:1"
    d="m 260.7922,405.8809 2,2 -2,2 m -1.5,-4 -2,2 2,2" transform="rotate(29.4329 260.0422 407.8809)"/>
  <line x1="243.2841" y1="378.4225" x2="243.8189" y2="358.3242" stroke="#5500a3" stroke-width="1.0" />
  <rect
     style="fill:#ffffff;fill-opacity:1;fill-rule:nonzero;stroke:none"
     width="2"
     height="2"
     x="243.0515"
     y="367.3733"
     transform="rotate(-88.4756 243.5515 368.3733)" /> 
  <path
     style="fill:none;stroke:#5500a3;stroke-width:1px;stroke-linecap:butt;stroke-linejoin:miter;stroke-opacity:1"
     d="m 243.5515,366.3733 2,2 -2,2 m -2.370121,-4 2,2 -2,2"
     transform="rotate(-88.4756 243.5515 368.3733)"/>
  <line x1="243.2877" y1="378.0725" x2="275.8972" y2="378.4093" stroke="#5500a3" stroke-width="1.0" />
  <line x1="243.3135" y1="375.5726" x2="275.9230" y2="375.9095" stroke="#5500a3" stroke-width="1.0" />
  <line x1="243.2841" y1="378.4225" x2="276.0300" y2="397.8966" stroke="#f1b400" stroke-width="1.0" />
  <rect
     style="fill:#ffffff;stroke:none"
     width="5.5"
     height="2"
     x="256.9070"
     y="387.1595" 
     transform="rotate(30.7401 259.6570 388.1595)"    /> 
  <path
     style="fill:none;stroke:#f1b400;stroke-width:1px;stroke-linecap:butt;stroke-linejoin:miter;stroke-opacity:1"
    d="m 260.4070,386.1595 2,2 -2,2 m -1.5,-4 -2,2 2,2" transform="rotate(30.7401 259.6570 388.1595)"/>
  <line x1="243.8189" y1="358.3242" x2="245.1740" y2="338.3896" stroke="#000000" stroke-width="1.0" />
  <rect
     style="fill:#ffffff;fill-opacity:1;fill-rule:nonzero;stroke:none"
     width="2"
     height="2"
     x="243.9965"
     y="347.3569"
     transform="rotate(-86.1112 244.4965 348.3569)" /> 
  <path
     style="fill:none;stroke:#000000;stroke-width:1px;stroke-linecap:butt;stroke-linejoin:miter;stroke-opacity:1"
     d="m 244.4965,346.3569 2,2 -2,2 m -2.370121,-4 2,2 -2,2"
     transform="rotate(-86.1112 244.4965 348.3569)"/>
  <line x1="243.8941" y1="356.7260" x2="276.5108" y2="358.2595" stroke="#7803fb" stroke-width="1.0" />
  <line x1="245.1740" y1="338.3896" x2="247.1258" y2="318.6506" stroke="#b41f06" stroke-width="1.0" />
  <rect
     style="fill:#ffffff;fill-opacity:1;fill-rule:nonzero;stroke:none"
     width="2"
     height="2"
     x="245.6499"
     y="327.5201"
     transform="rotate(-84.3528 246.1499 328.5201)" /> 
  <path
     style="fill:none;stroke:#b41f06;stroke-width:1px;stroke-linecap:butt;stroke-linejoin:miter;stroke-opacity:1"
     d="m 246.1499,326.5201 2,2 -2,2 m -2.370121,-4 2,2 -2,2"
     transform="rotate(-84.3528 246.1499 328.5201)"/>
  <line x1="244.9363" y1="341.2296" x2="277.5007" y2="343.9547" stroke="#7803fb" stroke-width="1.0" />
  <line x1="245.1448" y1="338.7384" x2="277.7092" y2="341.4634" stroke="#7803fb" stroke-width="1.0" />
  <line x1="247.1258" y1="318.6506" x2="249.3357" y2="298.6958" stroke="#5500a3" stroke-width="1.0" />
  <rect
     style="fill:#ffffff;fill-opacity:1;fill-rule:nonzero;stroke:none"
     width="2"
     height="2"
     x="247.7308"
     y="307.6732"
     transform="rotate(-83.6807 248.2308 308.6732)" /> 
  <path
     style="fill:none;stroke:#5500a3;stroke-width:1px;stroke-linecap:butt;stroke-linejoin:miter;stroke-opacity:1"
     d="m 248.2308,306.6732 2,2 -2,2 m -2.370121,-4 2,2 -2,2"
     transform="rotate(-83.6807 248.2308 308.6732)"/>
  <line x1="246.9576" y1="320.2417" x2="279.5005" y2="323.6826" stroke="#e99400" stroke-width="1.0" />
  <line x1="248.0724" y1="317.3606" x2="278.6850" y2="339.8247" stroke="#e99400" stroke-width="1.0" />
  <rect
     style="fill:#ffffff;stroke:none"
     width="5.5"
     height="2"
     x="260.6287"
     y="327.5927" 
     transform="rotate(36.2719 263.3787 328.5927)"    /> 
  <path
     style="fill:none;stroke:#e99400;stroke-width:1px;stroke-linecap:butt;stroke-linejoin:miter;stroke-opacity:1"
    d="m 264.1287,326.5927 2,2 -2,2 m -1.5,-4 -2,2 2,2" transform="rotate(36.2719 263.3787 328.5927)"/>
  <line x1="249.3357" y1="298.6958" x2="281.8688" y2="301.8028" stroke="#e17900" stroke-width="1.0" />
  <rect
     style="fill:#ffffff;fill-opacity:1;fill-rule:nonzero;stroke:none"
     width="2"
     height="2"
     x="264.6022"
     y="299.2493" 
     transform="rotate(5.4553 265.6022 300.2493)" /> 
  <path
     style="fill:none;stroke:#e17900;stroke-width:1px;stroke-linecap:butt;stroke-linejoin:miter;stroke-opacity:1"
     d="m 268.6022,298.2493 -2,2 2,2 m -6,-4 2,2 -2,2"
     transform="rotate(5.4553 265.6022 300.2493)"/>
  <line x1="255.5143" y1="267.3712" x2="288.6536" y2="277.6901" stroke="#c83b00" stroke-width="1.0" />
  <rect
     style="fill:#ffffff;fill-opacity:1;fill-rule:nonzero;stroke:none"
     width="2"
     height="2"
     x="271.0839"
     y="271.5307" 
     transform="rotate(17.2955 272.0839 272.5307)" /> 
  <path
     style="fill:none;stroke:#c83b00;stroke-width:1px;stroke-linecap:butt;stroke-linejoin:miter;stroke-opacity:1"
     d="m 275.0839,270.5307 -2,2 2,2 m -6,-4 2,2 -2,2"
     transform="rotate(17.2955 272.0839 272.5307)"/>
  <line x1="255.5143" y1="267.3712" x2="281.8688" y2="301.8028" stroke="#000000" stroke-width="1.0" />
  <rect
     style="fill:#ffffff;stroke:none"
     width="5.5"
     height="2"
     x="265.9415"
     y="283.5870" 
     transform="rotate(52.5689 268.6915 284.5870)"    /> 
  <path
     style="fill:none;stroke:#000000;stroke-width:1px;stroke-linecap:butt;stroke-linejoin:miter;stroke-opacity:1"
    d="m 269.4415,282.5870 2,2 -2,2 m -1.5,-4 -2,2 2,2" transform="rotate(52.5689 268.6915 284.5870)"/>
  <line x1="267.7854" y1="225.6878" x2="268.5541" y2="205.3804" stroke="#9309df" stroke-width="1.0" />
  <rect
     style="fill:#ffffff;fill-opacity:1;fill-rule:nonzero;stroke:none"
     width="2"
     height="2"
     x="267.6697"
     y="214.5341"
     transform="rotate(-87.8321 268.1697 215.5341)" /> 
  <path
     style="fill:none;stroke:#9309df;stroke-width:1px;stroke-linecap:butt;stroke-linejoin:miter;stroke-opacity:1"
     d="m 268.1697,213.5341 2,2 -2,2 m -2.370121,-4 2,2 -2,2"
     transform="rotate(-87.8321 268.1697 215.5341)"/>
  <line x1="267.7457" y1="226.9372" x2="300.7049" y2="227.9834" stroke="#3c0057" stroke-width="1.0" />
  <line x1="267.8250" y1="224.4384" x2="300.7842" y2="225.4847" stroke="#3c0057" stroke-width="1.0" />
  <line x1="267.7854" y1="225.6878" x2="295.8010" y2="258.7340" stroke="#bf2d00" stroke-width="1.0" />
  <rect
     style="fill:#ffffff;stroke:none"
     width="5.5"
     height="2"
     x="279.0432"
     y="241.2109" 
     transform="rotate(49.7097 281.7932 242.2109)"    /> 
  <path
     style="fill:none;stroke:#bf2d00;stroke-width:1px;stroke-linecap:butt;stroke-linejoin:miter;stroke-opacity:1"
    d="m 282.5432,240.2109 2,2 -2,2 m -1.5,-4 -2,2 2,2" transform="rotate(49.7097 281.7932 242.2109)"/>
  <line x1="268.5541" y1="205.3804" x2="268.9993" y2="186.1888" stroke="#7803fb" stroke-width="1.0" />
  <rect
     style="fill:#ffffff;fill-opacity:1;fill-rule:nonzero;stroke:none"
     width="2"
     height="2"
     x="268.2767"
     y="194.7846"
     transform="rotate(-88.6711 268.7767 195.7846)" /> 
  <path
     style="fill:none;stroke:#7803fb;stroke-width:1px;stroke-linecap:butt;stroke-linejoin:miter;stroke-opacity:1"
     d="m 268.7767,193.7846 2,2 -2,2 m -2.370121,-4 2,2 -2,2"
     transform="rotate(-88.6711 268.7767 195.7846)"/>
  <line x1="268.4939" y1="206.9793" x2="301.5621" y2="208.2252" stroke="#5500a3" stroke-width="1.0" />
  <line x1="268.5541" y1="205.3804" x2="300.7446" y2="226.7340" stroke="#e99400" stroke-width="1.0" />
  <rect
     style="fill:#ffffff;stroke:none"
     width="5.5"
     height="2"
     x="281.8993"
     y="215.0572" 
     transform="rotate(33.5584 284.6493 216.0572)"    /> 
  <path
     style="fill:none;stroke:#e99400;stroke-width:1px;stroke-linecap:butt;stroke-linejoin:miter;stroke-opacity:1"
    d="m 285.3993,214.0572 2,2 -2,2 m -1.5,-4 -2,2 2,2" transform="rotate(33.5584 284.6493 216.0572)"/>
  <line x1="268.9993" y1="186.1888" x2="269.0304" y2="167.1267" stroke="#5500a3" stroke-width="1.0" />
  <rect
     style="fill:#ffffff;fill-opacity:1;fill-rule:nonzero;stroke:none"
     width="2"
     height="2"
     x="268.5149"
     y="175.6578"
     transform="rotate(-89.9066 269.0149 176.6578)" /> 
  <path
     style="fill:none;stroke:#5500a3;stroke-width:1px;stroke-linecap:butt;stroke-linejoin:miter;stroke-opacity:1"
     d="m 269.0149,174.6578 2,2 -2,2 m -2.370121,-4 2,2 -2,2"
     transform="rotate(-89.9066 269.0149 176.6578)"/>
  <line x1="268.9770" y1="187.4386" x2="302.2864" y2="188.0341" stroke="#000000" stroke-width="1.0" />
  <line x1="269.0217" y1="184.9390" x2="302.3311" y2="185.5345" stroke="#000000" stroke-width="1.0" />
  <line x1="269.0393" y1="168.3767" x2="302.5383" y2="168.1392" stroke="#3c0057" stroke-width="1.0" />
  <line x1="269.0215" y1="165.8768" x2="302.5205" y2="165.6393" stroke="#3c0057" stroke-width="1.0" />
  <line x1="269.0304" y1="167.1267" x2="302.3087" y2="186.7843" stroke="#f1b400" stroke-width="1.0" />
  <rect
     style="fill:#ffffff;stroke:none"
     width="5.5"
     height="2"
     x="282.9196"
     y="175.9555" 
     transform="rotate(30.5704 285.6696 176.9555)"    /> 
  <path
     style="fill:none;stroke:#f1b400;stroke-width:1px;stroke-linecap:butt;stroke-linejoin:miter;stroke-opacity:1"
    d="m 286.4196,174.9555 2,2 -2,2 m -1.5,-4 -2,2 2,2" transform="rotate(30.5704 285.6696 176.9555)"/>
  <line x1="268.4739" y1="147.7448" x2="267.8195" y2="128.3405" stroke="#b41f06" stroke-width="1.0" />
  <rect
     style="fill:#ffffff;fill-opacity:1;fill-rule:nonzero;stroke:none"
     width="2"
     height="2"
     x="267.6467"
     y="137.0426"
     transform="rotate(268.0684 268.1467 138.0426)" /> 
  <path
     style="fill:none;stroke:#b41f06;stroke-width:1px;stroke-linecap:butt;stroke-linejoin:miter;stroke-opacity:1"
     d="m 268.1467,136.0426 2,2 -2,2 m -2.370121,-4 2,2 -2,2"
     transform="rotate(268.0684 268.1467 138.0426)"/>
  <line x1="268.4671" y1="147.3948" x2="302.4612" y2="146.7342" stroke="#5500a3" stroke-width="1.0" />
  <line x1="268.4186" y1="144.8953" x2="302.4126" y2="144.2347" stroke="#5500a3" stroke-width="1.0" />
  <line x1="268.4739" y1="147.7448" x2="302.5294" y2="166.8892" stroke="#000000" stroke-width="1.0" />
  <rect
     style="fill:#ffffff;stroke:none"
     width="5.5"
     height="2"
     x="282.7517"
     y="156.3170" 
     transform="rotate(29.3428 285.5017 157.3170)"    /> 
  <path
     style="fill:none;stroke:#000000;stroke-width:1px;stroke-linecap:butt;stroke-linejoin:miter;stroke-opacity:1"
    d="m 286.2517,155.3170 2,2 -2,2 m -1.5,-4 -2,2 2,2" transform="rotate(29.3428 285.5017 157.3170)"/>
  <line x1="267.8195" y1="128.3405" x2="267.0693" y2="109.1097" stroke="#bf2d00" stroke-width="1.0" />
  <rect
     style="fill:#ffffff;fill-opacity:1;fill-rule:nonzero;stroke:none"
     width="2"
     height="2"
     x="266.9444"
     y="117.7251"
     transform="rotate(267.7659 267.4444 118.7251)" /> 
  <path
     style="fill:none;stroke:#bf2d00;stroke-width:1px;stroke-linecap:butt;stroke-linejoin:miter;stroke-opacity:1"
     d="m 267.4444,116.7251 2,2 -2,2 m -2.370121,-4 2,2 -2,2"
     transform="rotate(267.7659 267.4444 118.7251)"/>
  <line x1="267.8707" y1="129.9397" x2="301.9691" y2="128.8471" stroke="#7803fb" stroke-width="1.0" />
  <line x1="267.0693" y1="109.1097" x2="274.4226" y2="92.1490" stroke="#e17900" stroke-width="1.0" />
  <rect
     style="fill:#ffffff;fill-opacity:1;fill-rule:nonzero;stroke:none"
     width="2"
     height="2"
     x="270.2459"
     y="99.6293"
     transform="rotate(-66.5607 270.7459 100.6293)" /> 
  <path
     style="fill:none;stroke:#e17900;stroke-width:1px;stroke-linecap:butt;stroke-linejoin:miter;stroke-opacity:1"
     d="m 270.7459,98.6293 2,2 -2,2 m -2.370121,-4 2,2 -2,2"
     transform="rotate(-66.5607 270.7459 100.6293)"/>
  <line x1="267.1124" y1="110.3589" x2="301.5038" y2="109.1716" stroke="#3c0057" stroke-width="1.0" />
  <line x1="267.0261" y1="107.8604" x2="301.4175" y2="106.6731" stroke="#3c0057" stroke-width="1.0" />
  <line x1="274.4111" y1="91.7992" x2="292.6771" y2="91.1977" stroke="#5500a3" stroke-width="1.0" />
  <line x1="274.3288" y1="89.3006" x2="292.5948" y2="88.6990" stroke="#5500a3" stroke-width="1.0" />
  <line x1="292.6886" y1="91.5475" x2="301.4607" y2="107.9223" stroke="#9309df" stroke-width="1.0" />
  <rect
     style="fill:#ffffff;fill-opacity:1;fill-rule:nonzero;stroke:none"
     width="2"
     height="2"
     x="296.5746"
     y="98.7349"
     transform="rotate(61.8218 297.0746 99.7349)" /> 
  <path
     style="fill:none;stroke:#9309df;stroke-width:1px;stroke-linecap:butt;stroke-linejoin:miter;stroke-opacity:1"
     d="m 297.0746,97.7349 2,2 -2,2 m -2.370121,-4 2,2 -2,2"
     transform="rotate(61.8218 297.0746 99.7349)"/>
  <line x1="301.4607" y1="107.9223" x2="301.9179" y2="127.2479" stroke="#7803fb" stroke-width="1.0" />
  <rect
     style="fill:#ffffff;fill-opacity:1;fill-rule:nonzero;stroke:none"
     width="2"
     height="2"
     x="301.1893"
     y="116.5851"
     transform="rotate(88.6448 301.6893 117.5851)" /> 
  <path
     style="fill:none;stroke:#7803fb;stroke-width:1px;stroke-linecap:butt;stroke-linejoin:miter;stroke-opacity:1"
     d="m 301.6893,115.5851 2,2 -2,2 m -2.370121,-4 2,2 -2,2"
     transform="rotate(88.6448 301.6893 117.5851)"/>
  <line x1="301.9179" y1="127.2479" x2="302.4680" y2="147.0842" stroke="#9309df" stroke-width="1.0" />
  <rect
     style="fill:#ffffff;fill-opacity:1;fill-rule:nonzero;stroke:none"
     width="2"
     height="2"
     x="301.6929"
     y="136.1660"
     transform="rotate(88.4114 302.1929 137.1660)" /> 
  <path
     style="fill:none;stroke:#9309df;stroke-width:1px;stroke-linecap:butt;stroke-linejoin:miter;stroke-opacity:1"
     d="m 302.1929,135.1660 2,2 -2,2 m -2.370121,-4 2,2 -2,2"
     transform="rotate(88.4114 302.1929 137.1660)"/>
  <line x1="302.5294" y1="166.8892" x2="302.3087" y2="186.7843" stroke="#e17900" stroke-width="1.0" />
  <rect
     style="fill:#ffffff;fill-opacity:1;fill-rule:nonzero;stroke:none"
     width="2"
     height="2"
     x="301.9191"
     y="175.8367"
     transform="rotate(90.6355 302.4191 176.8367)" /> 
  <path
     style="fill:none;stroke:#e17900;stroke-width:1px;stroke-linecap:butt;stroke-linejoin:miter;stroke-opacity:1"
     d="m 302.4191,174.8367 2,2 -2,2 m -2.370121,-4 2,2 -2,2"
     transform="rotate(90.6355 302.4191 176.8367)"/>
  <line x1="302.3087" y1="186.7843" x2="301.6223" y2="206.6263" stroke="#9309df" stroke-width="1.0" />
  <rect
     style="fill:#ffffff;fill-opacity:1;fill-rule:nonzero;stroke:none"
     width="2"
     height="2"
     x="301.4655"
     y="195.7053"
     transform="rotate(91.9813 301.9655 196.7053)" /> 
  <path
     style="fill:none;stroke:#9309df;stroke-width:1px;stroke-linecap:butt;stroke-linejoin:miter;stroke-opacity:1"
     d="m 301.9655,194.7053 2,2 -2,2 m -2.370121,-4 2,2 -2,2"
     transform="rotate(91.9813 301.9655 196.7053)"/>
  <line x1="301.6223" y1="206.6263" x2="300.7446" y2="226.7340" stroke="#9e0fa8" stroke-width="1.0" />
  <rect
     style="fill:#ffffff;fill-opacity:1;fill-rule:nonzero;stroke:none"
     width="2"
     height="2"
     x="300.6834"
     y="215.6802"
     transform="rotate(92.4995 301.1834 216.6802)" /> 
  <path
     style="fill:none;stroke:#9e0fa8;stroke-width:1px;stroke-linecap:butt;stroke-linejoin:miter;stroke-opacity:1"
     d="m 301.1834,214.6802 2,2 -2,2 m -2.370121,-4 2,2 -2,2"
     transform="rotate(92.4995 301.1834 216.6802)"/>
  <line x1="300.7446" y1="226.7340" x2="298.3510" y2="242.6615" stroke="#000000" stroke-width="1.0" />
  <rect
     style="fill:#ffffff;fill-opacity:1;fill-rule:nonzero;stroke:none"
     width="2"
     height="2"
     x="299.0478"
     y="233.6978"
     transform="rotate(98.5465 299.5478 234.6978)" /> 
  <path
     style="fill:none;stroke:#000000;stroke-width:1px;stroke-linecap:butt;stroke-linejoin:miter;stroke-opacity:1"
     d="m 299.5478,232.6978 2,2 -2,2 m -2.370121,-4 2,2 -2,2"
     transform="rotate(98.5465 299.5478 234.6978)"/>
  <line x1="295.8010" y1="258.7340" x2="288.6536" y2="277.6901" stroke="#5500a3" stroke-width="1.0" />
  <rect
     style="fill:#ffffff;fill-opacity:1;fill-rule:nonzero;stroke:none"
     width="2"
     height="2"
     x="291.7273"
     y="267.2121"
     transform="rotate(110.6591 292.2273 268.2121)" /> 
  <path
     style="fill:none;stroke:#5500a3;stroke-width:1px;stroke-linecap:butt;stroke-linejoin:miter;stroke-opacity:1"
     d="m 292.2273,266.2121 2,2 -2,2 m -2.370121,-4 2,2 -2,2"
     transform="rotate(110.6591 292.2273 268.2121)"/>
  <line x1="279.6688" y1="322.0914" x2="277.7384" y2="341.1146" stroke="#e17900" stroke-width="1.0" />
  <rect
     style="fill:#ffffff;fill-opacity:1;fill-rule:nonzero;stroke:none"
     width="2"
     height="2"
     x="278.2036"
     y="330.6030"
     transform="rotate(95.7942 278.7036 331.6030)" /> 
  <path
     style="fill:none;stroke:#e17900;stroke-width:1px;stroke-linecap:butt;stroke-linejoin:miter;stroke-opacity:1"
     d="m 278.7036,329.6030 2,2 -2,2 m -2.370121,-4 2,2 -2,2"
     transform="rotate(95.7942 278.7036 331.6030)"/>
  <line x1="277.7384" y1="341.1146" x2="276.4357" y2="359.8578" stroke="#000000" stroke-width="1.0" />
  <rect
     style="fill:#ffffff;fill-opacity:1;fill-rule:nonzero;stroke:none"
     width="2"
     height="2"
     x="276.5870"
     y="349.4862"
     transform="rotate(93.9760 277.0870 350.4862)" /> 
  <path
     style="fill:none;stroke:#000000;stroke-width:1px;stroke-linecap:butt;stroke-linejoin:miter;stroke-opacity:1"
     d="m 277.0870,348.4862 2,2 -2,2 m -2.370121,-4 2,2 -2,2"
     transform="rotate(93.9760 277.0870 350.4862)"/>
  <line x1="276.4357" y1="359.8578" x2="275.8936" y2="378.7593" stroke="#6801dc" stroke-width="1.0" />
  <rect
     style="fill:#ffffff;fill-opacity:1;fill-rule:nonzero;stroke:none"
     width="2"
     height="2"
     x="275.6646"
     y="368.3085"
     transform="rotate(91.6427 276.1646 369.3085)" /> 
  <path
     style="fill:none;stroke:#6801dc;stroke-width:1px;stroke-linecap:butt;stroke-linejoin:miter;stroke-opacity:1"
     d="m 276.1646,367.3085 2,2 -2,2 m -2.370121,-4 2,2 -2,2"
     transform="rotate(91.6427 276.1646 369.3085)"/>
  <line x1="275.8936" y1="378.7593" x2="276.0300" y2="397.8966" stroke="#000000" stroke-width="1.0" />
  <rect
     style="fill:#ffffff;fill-opacity:1;fill-rule:nonzero;stroke:none"
     width="2"
     height="2"
     x="275.4618"
     y="387.3279"
     transform="rotate(89.5916 275.9618 388.3279)" /> 
  <path
     style="fill:none;stroke:#000000;stroke-width:1px;stroke-linecap:butt;stroke-linejoin:miter;stroke-opacity:1"
     d="m 275.9618,386.3279 2,2 -2,2 m -2.370121,-4 2,2 -2,2"
     transform="rotate(89.5916 275.9618 388.3279)"/>
  <line x1="276.6409" y1="417.2463" x2="277.6373" y2="436.8168" stroke="#6801dc" stroke-width="1.0" />
  <rect
     style="fill:#ffffff;fill-opacity:1;fill-rule:nonzero;stroke:none"
     width="2"
     height="2"
     x="276.6391"
     y="426.0316"
     transform="rotate(87.0853 277.1391 427.0316)" /> 
  <path
     style="fill:none;stroke:#6801dc;stroke-width:1px;stroke-linecap:butt;stroke-linejoin:miter;stroke-opacity:1"
     d="m 277.1391,425.0316 2,2 -2,2 m -2.370121,-4 2,2 -2,2"
     transform="rotate(87.0853 277.1391 427.0316)"/>
  <line x1="277.6373" y1="436.8168" x2="278.9120" y2="456.6221" stroke="#000000" stroke-width="1.0" />
  <rect
     style="fill:#ffffff;fill-opacity:1;fill-rule:nonzero;stroke:none"
     width="2"
     height="2"
     x="277.7747"
     y="445.7195"
     transform="rotate(86.3177 278.2747 446.7195)" /> 
  <path
     style="fill:none;stroke:#000000;stroke-width:1px;stroke-linecap:butt;stroke-linejoin:miter;stroke-opacity:1"
     d="m 278.2747,444.7195 2,2 -2,2 m -2.370121,-4 2,2 -2,2"
     transform="rotate(86.3177 278.2747 446.7195)"/>
<circle cx="246.4032" cy="458.5113" r="5.0" stroke="#595959" stroke-width="1.0" fill="#ffffff"/>
<text x="246.4032" y="461.2113" text-anchor="middle" font-family="Helvetica" font-size="7.5" fill="#000000" >A</text>
<circle cx="245.1421" cy="438.5907" r="5.0" stroke="#595959" stroke-width="1.0" fill="#ffffff"/>
<text x="245.1421" y="441.2907" text-anchor="middle" font-family="Helvetica" font-size="7.5" fill="#000000" >C</text>
<circle cx="244.0925" cy="418.5944" r="5.0" stroke="#595959" stroke-width="1.0" fill="#ffffff"/>
<text x="244.0925" y="421.2944" text-anchor="middle" font-family="Helvetica" font-size="7.5" fill="#000000" >U</text>
<circle cx="243.4434" cy="398.5154" r="5.0" stroke="#595959" stroke-width="1.0" fill="#ffffff"/>
<text x="243.4434" y="401.2154" text-anchor="middle" font-family="Helvetica" font-size="7.5" fill="#000000" >G</text>
<circle cx="243.2841" cy="378.4225" r="5.0" stroke="#595959" stroke-width="1.0" fill="#ffffff"/>
<text x="243.2841" y="381.1225" text-anchor="middle" font-family="Helvetica" font-size="7.5" fill="#000000" >G</text>
<circle cx="243.8189" cy="358.3242" r="5.0" stroke="#595959" stroke-width="1.0" fill="#ffffff"/>
<text x="243.8189" y="361.0242" text-anchor="middle" font-family="Helvetica" font-size="7.5" fill="#000000" >A</text>
<circle cx="245.1740" cy="338.3896" r="5.0" stroke="#595959" stroke-width="1.0" fill="#ffffff"/>
<text x="245.1740" y="341.0896" text-anchor="middle" font-family="Helvetica" font-size="7.5" fill="#000000" >C</text>
<circle cx="247.1258" cy="318.6506" r="5.0" stroke="#595959" stroke-width="1.0" fill="#ffffff"/>
<text x="247.1258" y="321.3506" text-anchor="middle" font-family="Helvetica" font-size="7.5" fill="#000000" >A</text>
<circle cx="249.3357" cy="298.6958" r="5.0" stroke="#595959" stroke-width="1.0" fill="#ffffff"/>
<text x="249.3357" y="301.3958" text-anchor="middle" font-family="Helvetica" font-size="7.5" fill="#000000" >G</text>
<circle cx="252.7238" cy="283.2150" r="5.0" stroke="#595959" stroke-width="1.0" fill="#ffffff"/>
<text x="252.7238" y="285.9150" text-anchor="middle" font-family="Helvetica" font-size="7.5" fill="#000000" >G</text>
<circle cx="255.5143" cy="267.3712" r="5.0" stroke="#595959" stroke-width="1.0" fill="#ffffff"/>
<text x="255.5143" y="270.0712" text-anchor="middle" font-family="Helvetica" font-size="7.5" fill="#000000" >U</text>
<circle cx="262.4165" cy="248.8623" r="5.0" stroke="#595959" stroke-width="1.0" fill="#ffffff"/>
<text x="262.4165" y="251.5623" text-anchor="middle" font-family="Helvetica" font-size="7.5" fill="#000000" >G</text>
<circle cx="267.7854" cy="225.6878" r="5.0" stroke="#595959" stroke-width="1.0" fill="#ffffff"/>
<text x="267.7854" y="228.3878" text-anchor="middle" font-family="Helvetica" font-size="7.5" fill="#000000" >C</text>
<circle cx="268.5541" cy="205.3804" r="5.0" stroke="#595959" stroke-width="1.0" fill="#ffffff"/>
<text x="268.5541" y="208.0804" text-anchor="middle" font-family="Helvetica" font-size="7.5" fill="#000000" >U</text>
<circle cx="268.9993" cy="186.1888" r="5.0" stroke="#595959" stroke-width="1.0" fill="#ffffff"/>
<text x="268.9993" y="188.8888" text-anchor="middle" font-family="Helvetica" font-size="7.5" fill="#000000" >C</text>
<circle cx="269.0304" cy="167.1267" r="5.0" stroke="#595959" stroke-width="1.0" fill="#ffffff"/>
<text x="269.0304" y="169.8267" text-anchor="middle" font-family="Helvetica" font-size="7.5" fill="#000000" >C</text>
<circle cx="268.4739" cy="147.7448" r="5.0" stroke="#595959" stroke-width="1.0" fill="#ffffff"/>
<text x="268.4739" y="150.4448" text-anchor="middle" font-family="Helvetica" font-size="7.5" fill="#000000" >G</text>
<circle cx="267.8195" cy="128.3405" r="5.0" stroke="#595959" stroke-width="1.0" fill="#ffffff"/>
<text x="267.8195" y="131.0405" text-anchor="middle" font-family="Helvetica" font-size="7.5" fill="#000000" >A</text>
<circle cx="267.0693" cy="109.1097" r="5.0" stroke="#595959" stroke-width="1.0" fill="#ffffff"/>
<text x="267.0693" y="111.8097" text-anchor="middle" font-family="Helvetica" font-size="7.5" fill="#000000" >G</text>
<circle cx="274.4226" cy="92.1490" r="5.0" stroke="#595959" stroke-width="1.0" fill="#ffffff"/>
<text x="274.4226" y="94.8490" text-anchor="middle" font-family="Helvetica" font-size="7.5" fill="#000000" >G</text>
<circle cx="292.6886" cy="91.5475" r="5.0" stroke="#595959" stroke-width="1.0" fill="#ffffff"/>
<text x="292.6886" y="94.2475" text-anchor="middle" font-family="Helvetica" font-size="7.5" fill="#000000" >C</text>
<circle cx="301.4607" cy="107.9223" r="5.0" stroke="#595959" stroke-width="1.0" fill="#ffffff"/>
<text x="301.4607" y="110.6223" text-anchor="middle" font-family="Helvetica" font-size="7.5" fill="#000000" >C</text>
<circle cx="301.9179" cy="127.2479" r="5.0" stroke="#595959" stroke-width="1.0" fill="#ffffff"/>
<text x="301.9179" y="129.9479" text-anchor="middle" font-family="Helvetica" font-size="7.5" fill="#000000" >U</text>
<circle cx="302.4680" cy="147.0842" r="5.0" stroke="#595959" stroke-width="1.0" fill="#ffffff"/>
<text x="302.4680" y="149.7842" text-anchor="middle" font-family="Helvetica" font-size="7.5" fill="#000000" >C</text>
<circle cx="302.5294" cy="166.8892" r="5.0" stroke="#595959" stroke-width="1.0" fill="#ffffff"/>
<text x="302.5294" y="169.5892" text-anchor="middle" font-family="Helvetica" font-size="7.5" fill="#000000" >G</text>
<circle cx="302.3087" cy="186.7843" r="5.0" stroke="#595959" stroke-width="1.0" fill="#ffffff"/>
<text x="302.3087" y="189.4843" text-anchor="middle" font-family="Helvetica" font-size="7.5" fill="#000000" >G</text>
<circle cx="301.6223" cy="206.6263" r="5.0" stroke="#595959" stroke-width="1.0" fill="#ffffff"/>
<text x="301.6223" y="209.3263" text-anchor="middle" font-family="Helvetica" font-size="7.5" fill="#000000" >A</text>
<circle cx="300.7446" cy="226.7340" r="5.0" stroke="#595959" stroke-width="1.0" fill="#ffffff"/>
<text x="300.7446" y="229.4340" text-anchor="middle" font-family="Helvetica" font-size="7.5" fill="#000000" >G</text>
<circle cx="298.3510" cy="242.6615" r="5.0" stroke="#595959" stroke-width="1.0" fill="#ffffff"/>
<text x="298.3510" y="245.3615" text-anchor="middle" font-family="Helvetica" font-size="7.5" fill="#000000" >U</text>
<circle cx="295.8010" cy="258.7340" r="5.0" stroke="#595959" stroke-width="1.0" fill="#ffffff"/>
<text x="295.8010" y="261.4340" text-anchor="middle" font-family="Helvetica" font-size="7.5" fill="#000000" >G</text>
<circle cx="288.6536" cy="277.6901" r="5.0" stroke="#595959" stroke-width="1.0" fill="#ffffff"/>
<text x="288.6536" y="280.3901" text-anchor="middle" font-family="Helvetica" font-size="7.5" fill="#000000" >U</text>
<circle cx="281.8688" cy="301.8028" r="5.0" stroke="#595959" stroke-width="1.0" fill="#ffffff"/>
<text x="281.8688" y="304.5028" text-anchor="middle" font-family="Helvetica" font-size="7.5" fill="#000000" >U</text>
<circle cx="279.6688" cy="322.0914" r="5.0" stroke="#595959" stroke-width="1.0" fill="#ffffff"/>
<text x="279.6688" y="324.7914" text-anchor="middle" font-family="Helvetica" font-size="7.5" fill="#000000" >U</text>
<circle cx="277.7384" cy="341.1146" r="5.0" stroke="#595959" stroke-width="1.0" fill="#ffffff"/>
<text x="277.7384" y="343.8146" text-anchor="middle" font-family="Helvetica" font-size="7.5" fill="#000000" >G</text>
<circle cx="276.4357" cy="359.8578" r="5.0" stroke="#595959" stroke-width="1.0" fill="#ffffff"/>
<text x="276.4357" y="362.5578" text-anchor="middle" font-family="Helvetica" font-size="7.5" fill="#000000" >U</text>
<circle cx="275.8936" cy="378.7593" r="5.0" stroke="#595959" stroke-width="1.0" fill="#ffffff"/>
<text x="275.8936" y="381.4593" text-anchor="middle" font-family="Helvetica" font-size="7.5" fill="#000000" >C</text>
<circle cx="276.0300" cy="397.8966" r="5.0" stroke="#595959" stroke-width="1.0" fill="#ffffff"/>
<text x="276.0300" y="400.5966" text-anchor="middle" font-family="Helvetica" font-size="7.5" fill="#000000" >C</text>
<circle cx="276.6409" cy="417.2463" r="5.0" stroke="#595959" stroke-width="1.0" fill="#ffffff"/>
<text x="276.6409" y="419.9463" text-anchor="middle" font-family="Helvetica" font-size="7.5" fill="#000000" >A</text>
<circle cx="277.6373" cy="436.8168" r="5.0" stroke="#595959" stroke-width="1.0" fill="#ffffff"/>
<text x="277.6373" y="439.5168" text-anchor="middle" font-family="Helvetica" font-size="7.5" fill="#000000" >G</text>
<circle cx="278.9120" cy="456.6221" r="5.0" stroke="#595959" stroke-width="1.0" fill="#ffffff"/>
<text x="278.9120" y="459.3221" text-anchor="middle" font-family="Helvetica" font-size="7.5" fill="#000000" >U</text>
</svg>