<?xml version="1.0" encoding="UTF-8"?>
<!DOCTYPE svg PUBLIC "-//W3C//DTD SVG 1.1//EN" 
"http://www.w3.org/Graphics/SVG/1.1/DTD/svg11.dtd">

<svg version="1.1"
   width="546px"
   height="546px"
xmlns="http://www.w3.org/2000/svg">
    <rect width="100%" height="100%" fill="white"/>

  <line x1="256.7500" y1="422.9458" x2="256.7500" y2="402.9458" stroke="#595959"
     style="stroke-width:2;stroke-miterlimit:4;stroke-dasharray:1,1;stroke-dashoffset:0" />
  <line x1="256.7500" y1="342.9472" x2="256.7500" y2="322.9472" stroke="#595959"
     style="stroke-width:2;stroke-miterlimit:4;stroke-dasharray:1,1;stroke-dashoffset:0" />
  <line x1="256.7500" y1="262.9491" x2="256.7500" y2="242.9491" stroke="#595959"
     style="stroke-width:2;stroke-miterlimit:4;stroke-dasharray:1,1;stroke-dashoffset:0" />
  <line x1="256.7501" y1="162.9508" x2="256.7495" y2="142.9513" stroke="#595959"
     style="stroke-width:2;stroke-miterlimit:4;stroke-dasharray:1,1;stroke-dashoffset:0" />
  <line x1="289.2505" y1="142.9513" x2="289.2499" y2="162.9508" stroke="#595959"
     style="stroke-width:2;stroke-miterlimit:4;stroke-dasharray:1,1;stroke-dashoffset:0" />
  <line x1="289.2500" y1="242.9491" x2="289.2500" y2="262.9491" stroke="#595959"
     style="stroke-width:2;stroke-miterlimit:4;stroke-dasharray:1,1;stroke-dashoffset:0" />
  <line x1="289.2500" y1="322.9472" x2="289.2500" y2="342.9472" stroke="#595959"
     style="stroke-width:2;stroke-miterlimit:4;stroke-dasharray:1,1;stroke-dashoffset:0" />
  <line x1="289.2500" y1="402.9458" x2="289.2500" y2="422.9458" stroke="#595959"
     style="stroke-width:2;stroke-miterlimit:4;stroke-dasharray:1,1;stroke-dashoffset:0" />
  <line x1="256.7500" y1="464.5455" x2="289.2500" y2="464.5455" stroke="#d96100" stroke-width="1.0" />
  <circle cx="273.0000" cy="464.5455" r="2.25" stroke="#d96100" stroke-width="1.0" fill="#d96100"/>
  <line x1="256.7500" y1="424.5458" x2="289.2500" y2="424.5458" stroke="#f2b800" stroke-width="1.0" />
  <circle cx="273.0000" cy="424.5458" r="2.25" stroke="#f2b800" stroke-width="1.0" fill="#f2b800"/>
  <line x1="256.7500" y1="361.3464" x2="289.2500" y2="361.3464" stroke="#e38000" stroke-width="1.0" />
  <circle cx="273.0000" cy="361.3464" r="2.25" stroke="#e38000" stroke-width="1.0" fill="#e38000"/>
  <line x1="256.7500" y1="301.3481" x2="289.2500" y2="301.3481" stroke="#bc2900" stroke-width="1.0" />
  <circle cx="273.0000" cy="301.3481" r="2.25" stroke="#bc2900" stroke-width="1.0" fill="#bc2900"/>
  <line x1="256.7500" y1="304.5481" x2="289.2500" y2="304.5481" stroke="#b21e13" stroke-width="1.0" />
  <circle cx="273.0000" cy="304.5481" r="2.25" stroke="#b21e13" stroke-width="1.0" fill="#b21e13"/>
  <line x1="256.7500" y1="279.7481" x2="289.2500" y2="279.7481" stroke="#d96100" stroke-width="1.0" />
  <circle cx="273.0000" cy="279.7481" r="2.25" stroke="#d96100" stroke-width="1.0" fill="#d96100"/>
  <line x1="256.7500" y1="282.9481" x2="289.2500" y2="282.9481" stroke="#a21194" stroke-width="1.0" />
  <circle cx="273.0000" cy="282.9481" r="2.25" stroke="#a21194" stroke-width="1.0" fill="#a21194"/>
  <line x1="256.7500" y1="286.1481" x2="289.2500" y2="286.1481" stroke="#f2b800" stroke-width="1.0" />
  <circle cx="276.5000" cy="286.1481" r="2.25" stroke="#f2b800" stroke-width="1.0" fill="#f2b800"
    transform="rotate(180.0000 273.0000 286.1481)" />
  <path d="M 271.2500 288.3981 L 271.2500 283.8981 L 267.2500 286.1481 z" style="stroke:#f2b800;stroke-width:1.0" fill="#f2b800" 
    transform="rotate(180.0000 273.0000 286.1481)"/>
  <line x1="256.7500" y1="261.3491" x2="289.2500" y2="261.3491" stroke="#ea9900" stroke-width="1.0" />
  <circle cx="273.0000" cy="261.3491" r="2.25" stroke="#ea9900" stroke-width="1.0" fill="#ea9900"/>
  <line x1="256.7500" y1="264.5491" x2="289.2500" y2="264.5491" stroke="#8204ff" stroke-width="1.0" />
  <circle cx="273.0000" cy="264.5491" r="2.25" stroke="#8204ff" stroke-width="1.0" fill="#8204ff"/>
  <line x1="256.7500" y1="241.3491" x2="289.2500" y2="241.3491" stroke="#6501d5" stroke-width="1.0" />
  <circle cx="273.0000" cy="241.3491" r="2.25" stroke="#6501d5" stroke-width="1.0" fill="#6501d5"/>
  <line x1="256.7500" y1="244.5491" x2="289.2500" y2="244.5491" stroke="#efaf00" stroke-width="1.0" />
  <circle cx="276.5000" cy="244.5491" r="2.25" stroke="#efaf00" stroke-width="1.0" fill="#efaf00"
    transform="rotate(180.0000 273.0000 244.5491)" />
  <path d="M 271.2500 246.7991 L 271.2500 242.2991 L 267.2500 244.5491 z" style="stroke:#efaf00;stroke-width:1.0" fill="#efaf00" 
    transform="rotate(180.0000 273.0000 244.5491)"/>
  <line x1="256.7500" y1="224.5500" x2="289.2500" y2="224.5500" stroke="#f2b800" stroke-width="1.0" />
  <circle cx="273.0000" cy="224.5500" r="2.25" stroke="#f2b800" stroke-width="1.0" fill="#f2b800"/>
  <line x1="256.7500" y1="201.3500" x2="289.2500" y2="201.3500" stroke="#eda600" stroke-width="1.0" />
  <circle cx="273.0000" cy="201.3500" r="2.25" stroke="#eda600" stroke-width="1.0" fill="#eda600"/>
  <line x1="256.6734" y1="124.5515" x2="289.3266" y2="124.5515" stroke="#efaf00" stroke-width="1.0" />
  <circle cx="273.0000" cy="124.5515" r="2.25" stroke="#efaf00" stroke-width="1.0" fill="#efaf00"/>
  <line x1="263.0189" y1="85.5797" x2="282.9811" y2="85.5797" stroke="#f2b800" stroke-width="1.0" />
  <circle cx="273.0000" cy="85.5797" r="2.25" stroke="#f2b800" stroke-width="1.0" fill="#f2b800"/>
  <line x1="256.7500" y1="462.9455" x2="256.7500" y2="442.9455" stroke="#2d0032" stroke-width="1.0" />
  <rect
     style="fill:#ffffff;fill-opacity:1;fill-rule:nonzero;stroke:none"
     width="2"
     height="2"
     x="256.2500"
     y="451.9455"
     transform="rotate(270.0000 256.7500 452.9455)" /> 
  <path
     style="fill:none;stroke:#2d0032;stroke-width:1px;stroke-linecap:butt;stroke-linejoin:miter;stroke-opacity:1"
     d="m 256.7500,450.9455 2,2 -2,2 m -2.370121,-4 2,2 -2,2"
     transform="rotate(270.0000 256.7500 452.9455)"/>
  <line x1="256.7500" y1="461.3455" x2="289.2500" y2="461.3455" stroke="#a21194" stroke-width="1.0" />
  <line x1="256.7500" y1="442.9455" x2="256.7500" y2="422.9458" stroke="#8204ff" stroke-width="1.0" />
  <rect
     style="fill:#ffffff;fill-opacity:1;fill-rule:nonzero;stroke:none"
     width="2"
     height="2"
     x="256.2500"
     y="431.9457"
     transform="rotate(-90.0000 256.7500 432.9457)" /> 
  <path
     style="fill:none;stroke:#8204ff;stroke-width:1px;stroke-linecap:butt;stroke-linejoin:miter;stroke-opacity:1"
     d="m 256.7500,430.9457 2,2 -2,2 m -2.370121,-4 2,2 -2,2"
     transform="rotate(-90.0000 256.7500 432.9457)"/>
  <line x1="256.7500" y1="444.1955" x2="289.2500" y2="444.1955" stroke="#4b0084" stroke-width="1.0" />
  <line x1="256.7500" y1="441.6955" x2="289.2500" y2="441.6955" stroke="#4b0084" stroke-width="1.0" />
  <line x1="256.7500" y1="421.3458" x2="289.2500" y2="421.3458" stroke="#520099" stroke-width="1.0" />
  <line x1="256.7500" y1="422.9458" x2="289.2500" y2="442.9455" stroke="#eda600" stroke-width="1.0" />
  <rect
     style="fill:#ffffff;stroke:none"
     width="5.5"
     height="2"
     x="270.2500"
     y="431.9457" 
     transform="rotate(31.6071 273.0000 432.9457)"    /> 
  <path
     style="fill:none;stroke:#eda600;stroke-width:1px;stroke-linecap:butt;stroke-linejoin:miter;stroke-opacity:1"
    d="m 273.7500,430.9457 2,2 -2,2 m -1.5,-4 -2,2 2,2" transform="rotate(31.6071 273.0000 432.9457)"/>
  <line x1="256.7500" y1="402.9458" x2="256.7500" y2="382.9464" stroke="#bf2d00" stroke-width="1.0" />
  <rect
     style="fill:#ffffff;fill-opacity:1;fill-rule:nonzero;stroke:none"
     width="2"
     height="2"
     x="256.2500"
     y="391.9461"
     transform="rotate(270.0000 256.7500 392.9461)" /> 
  <path
     style="fill:none;stroke:#bf2d00;stroke-width:1px;stroke-linecap:butt;stroke-linejoin:miter;stroke-opacity:1"
     d="m 256.7500,390.9461 2,2 -2,2 m -2.370121,-4 2,2 -2,2"
     transform="rotate(270.0000 256.7500 392.9461)"/>
  <line x1="256.7500" y1="404.1958" x2="289.2500" y2="404.1958" stroke="#200019" stroke-width="1.0" />
  <line x1="256.7500" y1="401.6958" x2="289.2500" y2="401.6958" stroke="#200019" stroke-width="1.0" />
  <line x1="256.7500" y1="402.9458" x2="289.2500" y2="422.9458" stroke="#000000" stroke-width="1.0" />
  <rect
     style="fill:#ffffff;stroke:none"
     width="5.5"
     height="2"
     x="270.2500"
     y="411.9458" 
     transform="rotate(31.6075 273.0000 412.9458)"    /> 
  <path
     style="fill:none;stroke:#000000;stroke-width:1px;stroke-linecap:butt;stroke-linejoin:miter;stroke-opacity:1"
    d="m 273.7500,410.9458 2,2 -2,2 m -1.5,-4 -2,2 2,2" transform="rotate(31.6075 273.0000 412.9458)"/>
  <line x1="256.7500" y1="382.9464" x2="256.7500" y2="362.9464" stroke="#a9165c" stroke-width="1.0" />
  <rect
     style="fill:#ffffff;fill-opacity:1;fill-rule:nonzero;stroke:none"
     width="2"
     height="2"
     x="256.2500"
     y="371.9464"
     transform="rotate(-90.0000 256.7500 372.9464)" /> 
  <path
     style="fill:none;stroke:#a9165c;stroke-width:1px;stroke-linecap:butt;stroke-linejoin:miter;stroke-opacity:1"
     d="m 256.7500,370.9464 2,2 -2,2 m -2.370121,-4 2,2 -2,2"
     transform="rotate(-90.0000 256.7500 372.9464)"/>
  <line x1="256.7500" y1="384.1964" x2="289.2500" y2="384.1964" stroke="#37004b" stroke-width="1.0" />
  <line x1="256.7500" y1="381.6964" x2="289.2500" y2="381.6964" stroke="#37004b" stroke-width="1.0" />
  <line x1="256.7500" y1="382.9464" x2="289.2500" y2="402.9458" stroke="#efaf00" stroke-width="1.0" />
  <rect
     style="fill:#ffffff;stroke:none"
     width="5.5"
     height="2"
     x="270.2500"
     y="391.9461" 
     transform="rotate(31.6068 273.0000 392.9461)"    /> 
  <path
     style="fill:none;stroke:#efaf00;stroke-width:1px;stroke-linecap:butt;stroke-linejoin:miter;stroke-opacity:1"
    d="m 273.7500,390.9461 2,2 -2,2 m -1.5,-4 -2,2 2,2" transform="rotate(31.6068 273.0000 392.9461)"/>
  <line x1="256.7500" y1="362.9464" x2="256.7500" y2="342.9472" stroke="#000000" stroke-width="1.0" />
  <rect
     style="fill:#ffffff;fill-opacity:1;fill-rule:nonzero;stroke:none"
     width="2"
     height="2"
     x="256.2500"
     y="351.9468"
     transform="rotate(270.0000 256.7500 352.9468)" /> 
  <path
     style="fill:none;stroke:#000000;stroke-width:1px;stroke-linecap:butt;stroke-linejoin:miter;stroke-opacity:1"
     d="m 256.7500,350.9468 2,2 -2,2 m -2.370121,-4 2,2 -2,2"
     transform="rotate(270.0000 256.7500 352.9468)"/>
  <line x1="256.7500" y1="364.5464" x2="289.2500" y2="364.5464" stroke="#7302f5" stroke-width="1.0" />
  <line x1="256.7500" y1="362.9464" x2="289.2500" y2="382.9464" stroke="#f2b800" stroke-width="1.0" />
  <rect
     style="fill:#ffffff;stroke:none"
     width="5.5"
     height="2"
     x="270.2500"
     y="371.9464" 
     transform="rotate(31.6075 273.0000 372.9464)"    /> 
  <path
     style="fill:none;stroke:#f2b800;stroke-width:1px;stroke-linecap:butt;stroke-linejoin:miter;stroke-opacity:1"
    d="m 273.7500,370.9464 2,2 -2,2 m -1.5,-4 -2,2 2,2" transform="rotate(31.6075 273.0000 372.9464)"/>
  <line x1="256.7500" y1="344.1972" x2="289.2500" y2="344.1972" stroke="#2d0032" stroke-width="1.0" />
  <line x1="256.7500" y1="341.6972" x2="289.2500" y2="341.6972" stroke="#2d0032" stroke-width="1.0" />
  <line x1="256.7500" y1="322.9472" x2="256.7500" y2="302.9481" stroke="#bc2900" stroke-width="1.0" />
  <rect
     style="fill:#ffffff;fill-opacity:1;fill-rule:nonzero;stroke:none"
     width="2"
     height="2"
     x="256.2500"
     y="311.9476"
     transform="rotate(270.0000 256.7500 312.9476)" /> 
  <path
     style="fill:none;stroke:#bc2900;stroke-width:1px;stroke-linecap:butt;stroke-linejoin:miter;stroke-opacity:1"
     d="m 256.7500,310.9476 2,2 -2,2 m -2.370121,-4 2,2 -2,2"
     transform="rotate(270.0000 256.7500 312.9476)"/>
  <line x1="256.7500" y1="322.9472" x2="289.2500" y2="322.9472" stroke="#400062" stroke-width="1.0" />
  <line x1="256.7500" y1="322.9472" x2="289.2500" y2="342.9472" stroke="#200019" stroke-width="1.0" />
  <rect
     style="fill:#ffffff;stroke:none"
     width="5.5"
     height="2"
     x="270.2500"
     y="331.9472" 
     transform="rotate(31.6075 273.0000 332.9472)"    /> 
  <path
     style="fill:none;stroke:#200019;stroke-width:1px;stroke-linecap:butt;stroke-linejoin:miter;stroke-opacity:1"
    d="m 273.7500,330.9472 2,2 -2,2 m -1.5,-4 -2,2 2,2" transform="rotate(31.6075 273.0000 332.9472)"/>
  <line x1="256.7500" y1="302.9481" x2="256.7500" y2="282.9481" stroke="#a9165c" stroke-width="1.0" />
  <rect
     style="fill:#ffffff;fill-opacity:1;fill-rule:nonzero;stroke:none"
     width="2"
     height="2"
     x="256.2500"
     y="291.9481"
     transform="rotate(-90.0000 256.7500 292.9481)" /> 
  <path
     style="fill:none;stroke:#a9165c;stroke-width:1px;stroke-linecap:butt;stroke-linejoin:miter;stroke-opacity:1"
     d="m 256.7500,290.9481 2,2 -2,2 m -2.370121,-4 2,2 -2,2"
     transform="rotate(-90.0000 256.7500 292.9481)"/>
  <line x1="256.7500" y1="282.9481" x2="256.7500" y2="262.9491" stroke="#000000" stroke-width="1.0" />
  <rect
     style="fill:#ffffff;fill-opacity:1;fill-rule:nonzero;stroke:none"
     width="2"
     height="2"
     x="256.2500"
     y="271.9486"
     transform="rotate(270.0000 256.7500 272.9486)" /> 
  <path
     style="fill:none;stroke:#000000;stroke-width:1px;stroke-linecap:butt;stroke-linejoin:miter;stroke-opacity:1"
     d="m 256.7500,270.9486 2,2 -2,2 m -2.370121,-4 2,2 -2,2"
     transform="rotate(270.0000 256.7500 272.9486)"/>
  <line x1="256.7500" y1="242.9491" x2="256.7500" y2="222.9500" stroke="#000000" stroke-width="1.0" />
  <rect
     style="fill:#ffffff;fill-opacity:1;fill-rule:nonzero;stroke:none"
     width="2"
     height="2"
     x="256.2500"
     y="231.9495"
     transform="rotate(270.0000 256.7500 232.9495)" /> 
  <path
     style="fill:none;stroke:#000000;stroke-width:1px;stroke-linecap:butt;stroke-linejoin:miter;stroke-opacity:1"
     d="m 256.7500,230.9495 2,2 -2,2 m -2.370121,-4 2,2 -2,2"
     transform="rotate(270.0000 256.7500 232.9495)"/>
  <line x1="256.7500" y1="242.9491" x2="289.2500" y2="262.9491" stroke="#520099" stroke-width="1.0" />
  <rect
     style="fill:#ffffff;stroke:none"
     width="5.5"
     height="2"
     x="270.2500"
     y="251.9491" 
     transform="rotate(31.6075 273.0000 252.9491)"    /> 
  <path
     style="fill:none;stroke:#520099;stroke-width:1px;stroke-linecap:butt;stroke-linejoin:miter;stroke-opacity:1"
    d="m 273.7500,250.9491 2,2 -2,2 m -1.5,-4 -2,2 2,2" transform="rotate(31.6075 273.0000 252.9491)"/>
  <line x1="256.7500" y1="222.9500" x2="256.7500" y2="202.9500" stroke="#8204ff" stroke-width="1.0" />
  <rect
     style="fill:#ffffff;fill-opacity:1;fill-rule:nonzero;stroke:none"
     width="2"
     height="2"
     x="256.2500"
     y="211.9500"
     transform="rotate(270.0000 256.7500 212.9500)" /> 
  <path
     style="fill:none;stroke:#8204ff;stroke-width:1px;stroke-linecap:butt;stroke-linejoin:miter;stroke-opacity:1"
     d="m 256.7500,210.9500 2,2 -2,2 m -2.370121,-4 2,2 -2,2"
     transform="rotate(270.0000 256.7500 212.9500)"/>
  <line x1="256.7500" y1="222.6000" x2="289.2500" y2="222.6000" stroke="#520099" stroke-width="1.0" />
  <line x1="256.7500" y1="220.1000" x2="289.2500" y2="220.1000" stroke="#520099" stroke-width="1.0" />
  <line x1="256.7500" y1="202.9500" x2="256.7500" y2="182.9508" stroke="#8605fc" stroke-width="1.0" />
  <rect
     style="fill:#ffffff;fill-opacity:1;fill-rule:nonzero;stroke:none"
     width="2"
     height="2"
     x="256.2500"
     y="191.9504"
     transform="rotate(-90.0000 256.7500 192.9504)" /> 
  <path
     style="fill:none;stroke:#8605fc;stroke-width:1px;stroke-linecap:butt;stroke-linejoin:miter;stroke-opacity:1"
     d="m 256.7500,190.9504 2,2 -2,2 m -2.370121,-4 2,2 -2,2"
     transform="rotate(-90.0000 256.7500 192.9504)"/>
  <line x1="256.7500" y1="204.5500" x2="289.2500" y2="204.5500" stroke="#5d01be" stroke-width="1.0" />
  <line x1="256.7500" y1="182.9508" x2="256.7501" y2="162.9508" stroke="#400062" stroke-width="1.0" />
  <rect
     style="fill:#ffffff;fill-opacity:1;fill-rule:nonzero;stroke:none"
     width="2"
     height="2"
     x="256.2501"
     y="171.9508"
     transform="rotate(-89.9997 256.7501 172.9508)" /> 
  <path
     style="fill:none;stroke:#400062;stroke-width:1px;stroke-linecap:butt;stroke-linejoin:miter;stroke-opacity:1"
     d="m 256.7501,170.9508 2,2 -2,2 m -2.370121,-4 2,2 -2,2"
     transform="rotate(-89.9997 256.7501 172.9508)"/>
  <line x1="256.7500" y1="184.2008" x2="289.2500" y2="184.2008" stroke="#400062" stroke-width="1.0" />
  <line x1="256.7500" y1="181.7008" x2="289.2500" y2="181.7008" stroke="#400062" stroke-width="1.0" />
  <line x1="256.7501" y1="164.2008" x2="289.2499" y2="164.2008" stroke="#200019" stroke-width="1.0" />
  <line x1="256.7501" y1="161.7008" x2="289.2499" y2="161.7008" stroke="#200019" stroke-width="1.0" />
  <line x1="256.7501" y1="162.9508" x2="289.2500" y2="182.9508" stroke="#e89000" stroke-width="1.0" />
  <rect
     style="fill:#ffffff;stroke:none"
     width="5.5"
     height="2"
     x="270.2501"
     y="171.9508" 
     transform="rotate(31.6076 273.0001 172.9508)"    /> 
  <path
     style="fill:none;stroke:#e89000;stroke-width:1px;stroke-linecap:butt;stroke-linejoin:miter;stroke-opacity:1"
    d="m 273.7501,170.9508 2,2 -2,2 m -1.5,-4 -2,2 2,2" transform="rotate(31.6076 273.0001 172.9508)"/>
  <line x1="256.7495" y1="142.9513" x2="256.6734" y2="122.9515" stroke="#a21194" stroke-width="1.0" />
  <rect
     style="fill:#ffffff;fill-opacity:1;fill-rule:nonzero;stroke:none"
     width="2"
     height="2"
     x="256.2115"
     y="131.9514"
     transform="rotate(269.7818 256.7115 132.9514)" /> 
  <path
     style="fill:none;stroke:#a21194;stroke-width:1px;stroke-linecap:butt;stroke-linejoin:miter;stroke-opacity:1"
     d="m 256.7115,130.9514 2,2 -2,2 m -2.370121,-4 2,2 -2,2"
     transform="rotate(269.7818 256.7115 132.9514)"/>
  <line x1="256.7495" y1="144.2013" x2="289.2505" y2="144.2013" stroke="#2d0032" stroke-width="1.0" />
  <line x1="256.7495" y1="141.7013" x2="289.2505" y2="141.7013" stroke="#2d0032" stroke-width="1.0" />
  <line x1="256.7495" y1="142.9513" x2="289.2499" y2="162.9508" stroke="#2d0032" stroke-width="1.0" />
  <rect
     style="fill:#ffffff;stroke:none"
     width="5.5"
     height="2"
     x="270.2497"
     y="151.9510" 
     transform="rotate(31.6065 272.9997 152.9510)"    /> 
  <path
     style="fill:none;stroke:#2d0032;stroke-width:1px;stroke-linecap:butt;stroke-linejoin:miter;stroke-opacity:1"
    d="m 273.7497,150.9510 2,2 -2,2 m -1.5,-4 -2,2 2,2" transform="rotate(31.6065 272.9997 152.9510)"/>
  <line x1="256.6734" y1="122.9515" x2="256.7277" y2="102.9519" stroke="#a9165c" stroke-width="1.0" />
  <rect
     style="fill:#ffffff;fill-opacity:1;fill-rule:nonzero;stroke:none"
     width="2"
     height="2"
     x="256.2006"
     y="111.9517"
     transform="rotate(-89.8442 256.7006 112.9517)" /> 
  <path
     style="fill:none;stroke:#a9165c;stroke-width:1px;stroke-linecap:butt;stroke-linejoin:miter;stroke-opacity:1"
     d="m 256.7006,110.9517 2,2 -2,2 m -2.370121,-4 2,2 -2,2"
     transform="rotate(-89.8442 256.7006 112.9517)"/>
  <line x1="256.6734" y1="121.3515" x2="289.3266" y2="121.3515" stroke="#5800ac" stroke-width="1.0" />
  <line x1="256.7277" y1="102.9519" x2="263.0189" y2="83.9797" stroke="#b92500" stroke-width="1.0" />
  <rect
     style="fill:#ffffff;fill-opacity:1;fill-rule:nonzero;stroke:none"
     width="2"
     height="2"
     x="259.3733"
     y="92.4658"
     transform="rotate(-71.6544 259.8733 93.4658)" /> 
  <path
     style="fill:none;stroke:#b92500;stroke-width:1px;stroke-linecap:butt;stroke-linejoin:miter;stroke-opacity:1"
     d="m 259.8733,91.4658 2,2 -2,2 m -2.370121,-4 2,2 -2,2"
     transform="rotate(-71.6544 259.8733 93.4658)"/>
  <line x1="256.7277" y1="104.2019" x2="289.2723" y2="104.2019" stroke="#37004b" stroke-width="1.0" />
  <line x1="256.7277" y1="101.7019" x2="289.2723" y2="101.7019" stroke="#37004b" stroke-width="1.0" />
  <line x1="263.0189" y1="83.6297" x2="282.9811" y2="83.6297" stroke="#520099" stroke-width="1.0" />
  <line x1="263.0189" y1="81.1297" x2="282.9811" y2="81.1297" stroke="#520099" stroke-width="1.0" />
  <line x1="282.9811" y1="83.9797" x2="289.2723" y2="102.9519" stroke="#a9165c" stroke-width="1.0" />
  <rect
     style="fill:#ffffff;fill-opacity:1;fill-rule:nonzero;stroke:none"
     width="2"
     height="2"
     x="285.6267"
     y="92.4658"
     transform="rotate(71.6544 286.1267 93.4658)" /> 
  <path
     style="fill:none;stroke:#a9165c;stroke-width:1px;stroke-linecap:butt;stroke-linejoin:miter;stroke-opacity:1"
     d="m 286.1267,91.4658 2,2 -2,2 m -2.370121,-4 2,2 -2,2"
     transform="rotate(71.6544 286.1267 93.4658)"/>
  <line x1="289.2723" y1="102.9519" x2="289.3266" y2="122.9515" stroke="#6a01e2" stroke-width="1.0" />
  <rect
     style="fill:#ffffff;fill-opacity:1;fill-rule:nonzero;stroke:none"
     width="2"
     height="2"
     x="288.7994"
     y="111.9517"
     transform="rotate(89.8442 289.2994 112.9517)" /> 
  <path
     style="fill:none;stroke:#6a01e2;stroke-width:1px;stroke-linecap:butt;stroke-linejoin:miter;stroke-opacity:1"
     d="m 289.2994,110.9517 2,2 -2,2 m -2.370121,-4 2,2 -2,2"
     transform="rotate(89.8442 289.2994 112.9517)"/>
  <line x1="289.3266" y1="122.9515" x2="289.2505" y2="142.9513" stroke="#5800ac" stroke-width="1.0" />
  <rect
     style="fill:#ffffff;fill-opacity:1;fill-rule:nonzero;stroke:none"
     width="2"
     height="2"
     x="288.7885"
     y="131.9514"
     transform="rotate(90.2182 289.2885 132.9514)" /> 
  <path
     style="fill:none;stroke:#5800ac;stroke-width:1px;stroke-linecap:butt;stroke-linejoin:miter;stroke-opacity:1"
     d="m 289.2885,130.9514 2,2 -2,2 m -2.370121,-4 2,2 -2,2"
     transform="rotate(90.2182 289.2885 132.9514)"/>
  <line x1="289.2499" y1="162.9508" x2="289.2500" y2="182.9508" stroke="#d55800" stroke-width="1.0" />
  <rect
     style="fill:#ffffff;fill-opacity:1;fill-rule:nonzero;stroke:none"
     width="2"
     height="2"
     x="288.7499"
     y="171.9508"
     transform="rotate(89.9997 289.2499 172.9508)" /> 
  <path
     style="fill:none;stroke:#d55800;stroke-width:1px;stroke-linecap:butt;stroke-linejoin:miter;stroke-opacity:1"
     d="m 289.2499,170.9508 2,2 -2,2 m -2.370121,-4 2,2 -2,2"
     transform="rotate(89.9997 289.2499 172.9508)"/>
  <line x1="289.2500" y1="182.9508" x2="289.2500" y2="202.9500" stroke="#7302f5" stroke-width="1.0" />
  <rect
     style="fill:#ffffff;fill-opacity:1;fill-rule:nonzero;stroke:none"
     width="2"
     height="2"
     x="288.7500"
     y="191.9504"
     transform="rotate(90.0000 289.2500 192.9504)" /> 
  <path
     style="fill:none;stroke:#7302f5;stroke-width:1px;stroke-linecap:butt;stroke-linejoin:miter;stroke-opacity:1"
     d="m 289.2500,190.9504 2,2 -2,2 m -2.370121,-4 2,2 -2,2"
     transform="rotate(90.0000 289.2500 192.9504)"/>
  <line x1="289.2500" y1="202.9500" x2="289.2500" y2="222.9500" stroke="#9b0dba" stroke-width="1.0" />
  <rect
     style="fill:#ffffff;fill-opacity:1;fill-rule:nonzero;stroke:none"
     width="2"
     height="2"
     x="288.7500"
     y="211.9500"
     transform="rotate(90.0000 289.2500 212.9500)" /> 
  <path
     style="fill:none;stroke:#9b0dba;stroke-width:1px;stroke-linecap:butt;stroke-linejoin:miter;stroke-opacity:1"
     d="m 289.2500,210.9500 2,2 -2,2 m -2.370121,-4 2,2 -2,2"
     transform="rotate(90.0000 289.2500 212.9500)"/>
  <line x1="289.2500" y1="222.9500" x2="289.2500" y2="242.9491" stroke="#200019" stroke-width="1.0" />
  <rect
     style="fill:#ffffff;fill-opacity:1;fill-rule:nonzero;stroke:none"
     width="2"
     height="2"
     x="288.7500"
     y="231.9495"
     transform="rotate(90.0000 289.2500 232.9495)" /> 
  <path
     style="fill:none;stroke:#200019;stroke-width:1px;stroke-linecap:butt;stroke-linejoin:miter;stroke-opacity:1"
     d="m 289.2500,230.9495 2,2 -2,2 m -2.370121,-4 2,2 -2,2"
     transform="rotate(90.0000 289.2500 232.9495)"/>
  <line x1="289.2500" y1="262.9491" x2="289.2500" y2="282.9481" stroke="#37004b" stroke-width="1.0" />
  <rect
     style="fill:#ffffff;fill-opacity:1;fill-rule:nonzero;stroke:none"
     width="2"
     height="2"
     x="288.7500"
     y="271.9486"
     transform="rotate(90.0000 289.2500 272.9486)" /> 
  <path
     style="fill:none;stroke:#37004b;stroke-width:1px;stroke-linecap:butt;stroke-linejoin:miter;stroke-opacity:1"
     d="m 289.2500,270.9486 2,2 -2,2 m -2.370121,-4 2,2 -2,2"
     transform="rotate(90.0000 289.2500 272.9486)"/>
  <line x1="289.2500" y1="282.9481" x2="289.2500" y2="302.9481" stroke="#8b07f3" stroke-width="1.0" />
  <rect
     style="fill:#ffffff;fill-opacity:1;fill-rule:nonzero;stroke:none"
     width="2"
     height="2"
     x="288.7500"
     y="291.9481"
     transform="rotate(90.0000 289.2500 292.9481)" /> 
  <path
     style="fill:none;stroke:#8b07f3;stroke-width:1px;stroke-linecap:butt;stroke-linejoin:miter;stroke-opacity:1"
     d="m 289.2500,290.9481 2,2 -2,2 m -2.370121,-4 2,2 -2,2"
     transform="rotate(90.0000 289.2500 292.9481)"/>
  <line x1="289.2500" y1="302.9481" x2="289.2500" y2="322.9472" stroke="#a5137f" stroke-width="1.0" />
  <rect
     style="fill:#ffffff;fill-opacity:1;fill-rule:nonzero;stroke:none"
     width="2"
     height="2"
     x="288.7500"
     y="311.9476"
     transform="rotate(90.0000 289.2500 312.9476)" /> 
  <path
     style="fill:none;stroke:#a5137f;stroke-width:1px;stroke-linecap:butt;stroke-linejoin:miter;stroke-opacity:1"
     d="m 289.2500,310.9476 2,2 -2,2 m -2.370121,-4 2,2 -2,2"
     transform="rotate(90.0000 289.2500 312.9476)"/>
  <line x1="289.2500" y1="342.9472" x2="289.2500" y2="362.9464" stroke="#000000" stroke-width="1.0" />
  <rect
     style="fill:#ffffff;fill-opacity:1;fill-rule:nonzero;stroke:none"
     width="2"
     height="2"
     x="288.7500"
     y="351.9468"
     transform="rotate(90.0000 289.2500 352.9468)" /> 
  <path
     style="fill:none;stroke:#000000;stroke-width:1px;stroke-linecap:butt;stroke-linejoin:miter;stroke-opacity:1"
     d="m 289.2500,350.9468 2,2 -2,2 m -2.370121,-4 2,2 -2,2"
     transform="rotate(90.0000 289.2500 352.9468)"/>
  <line x1="289.2500" y1="362.9464" x2="289.2500" y2="382.9464" stroke="#8204ff" stroke-width="1.0" />
  <rect
     style="fill:#ffffff;fill-opacity:1;fill-rule:nonzero;stroke:none"
     width="2"
     height="2"
     x="288.7500"
     y="371.9464"
     transform="rotate(90.0000 289.2500 372.9464)" /> 
  <path
     style="fill:none;stroke:#8204ff;stroke-width:1px;stroke-linecap:butt;stroke-linejoin:miter;stroke-opacity:1"
     d="m 289.2500,370.9464 2,2 -2,2 m -2.370121,-4 2,2 -2,2"
     transform="rotate(90.0000 289.2500 372.9464)"/>
  <line x1="289.2500" y1="382.9464" x2="289.2500" y2="402.9458" stroke="#5d01be" stroke-width="1.0" />
  <rect
     style="fill:#ffffff;fill-opacity:1;fill-rule:nonzero;stroke:none"
     width="2"
     height="2"
     x="288.7500"
     y="391.9461"
     transform="rotate(90.0000 289.2500 392.9461)" /> 
  <path
     style="fill:none;stroke:#5d01be;stroke-width:1px;stroke-linecap:butt;stroke-linejoin:miter;stroke-opacity:1"
     d="m 289.2500,390.9461 2,2 -2,2 m -2.370121,-4 2,2 -2,2"
     transform="rotate(90.0000 289.2500 392.9461)"/>
  <line x1="289.2500" y1="422.9458" x2="289.2500" y2="442.9455" stroke="#9309df" stroke-width="1.0" />
  <rect
     style="fill:#ffffff;fill-opacity:1;fill-rule:nonzero;stroke:none"
     width="2"
     height="2"
     x="288.7500"
     y="431.9457"
     transform="rotate(90.0000 289.2500 432.9457)" /> 
  <path
     style="fill:none;stroke:#9309df;stroke-width:1px;stroke-linecap:butt;stroke-linejoin:miter;stroke-opacity:1"
     d="m 289.2500,430.9457 2,2 -2,2 m -2.370121,-4 2,2 -2,2"
     transform="rotate(90.0000 289.2500 432.9457)"/>
  <line x1="289.2500" y1="442.9455" x2="289.2500" y2="462.9455" stroke="#37004b" stroke-width="1.0" />
  <rect
     style="fill:#ffffff;fill-opacity:1;fill-rule:nonzero;stroke:none"
     width="2"
     height="2"
     x="288.7500"
     y="451.9455"
     transform="rotate(90.0000 289.2500 452.9455)" /> 
  <path
     style="fill:none;stroke:#37004b;stroke-width:1px;stroke-linecap:butt;stroke-linejoin:miter;stroke-opacity:1"
     d="m 289.2500,450.9455 2,2 -2,2 m -2.370121,-4 2,2 -2,2"
     transform="rotate(90.0000 289.2500 452.9455)"/>
<circle cx="256.7500" cy="462.9455" r="5.0" stroke="#595959" stroke-width="1.0" fill="#ffffff"/>
<text x="256.7500" y="465.6455" text-anchor="middle" font-family="Helvetica" font-size="7.5" fill="#000000" >A</text>
<circle cx="256.7500" cy="442.9455" r="5.0" stroke="#595959" stroke-width="1.0" fill="#ffffff"/>
<text x="256.7500" y="445.6455" text-anchor="middle" font-family="Helvetica" font-size="7.5" fill="#000000" >C</text>
<circle cx="256.7500" cy="422.9458" r="5.0" stroke="#595959" stroke-width="1.0" fill="#ffffff"/>
<text x="256.7500" y="425.6458" text-anchor="middle" font-family="Helvetica" font-size="7.5" fill="#000000" >U</text>
<circle cx="256.7500" cy="402.9458" r="5.0" stroke="#595959" stroke-width="1.0" fill="#ffffff"/>
<text x="256.7500" y="405.6458" text-anchor="middle" font-family="Helvetica" font-size="7.5" fill="#000000" >G</text>
<circle cx="256.7500" cy="382.9464" r="5.0" stroke="#595959" stroke-width="1.0" fill="#ffffff"/>
<text x="256.7500" y="385.6464" text-anchor="middle" font-family="Helvetica" font-size="7.5" fill="#000000" >G</text>
<circle cx="256.7500" cy="362.9464" r="5.0" stroke="#595959" stroke-width="1.0" fill="#ffffff"/>
<text x="256.7500" y="365.6464" text-anchor="middle" font-family="Helvetica" font-size="7.5" fill="#000000" >A</text>
<circle cx="256.7500" cy="342.9472" r="5.0" stroke="#595959" stroke-width="1.0" fill="#ffffff"/>
<text x="256.7500" y="345.6472" text-anchor="middle" font-family="Helvetica" font-size="7.5" fill="#000000" >C</text>
<circle cx="256.7500" cy="322.9472" r="5.0" stroke="#595959" stroke-width="1.0" fill="#ffffff"/>
<text x="256.7500" y="325.6472" text-anchor="middle" font-family="Helvetica" font-size="7.5" fill="#000000" >A</text>
<circle cx="256.7500" cy="302.9481" r="5.0" stroke="#595959" stroke-width="1.0" fill="#ffffff"/>
<text x="256.7500" y="305.6481" text-anchor="middle" font-family="Helvetica" font-size="7.5" fill="#000000" >I</text>
<circle cx="256.7500" cy="282.9481" r="5.0" stroke="#595959" stroke-width="1.0" fill="#ffffff"/>
<text x="256.7500" y="285.6481" text-anchor="middle" font-family="Helvetica" font-size="7.5" fill="#000000" >I</text>
<circle cx="256.7500" cy="262.9491" r="5.0" stroke="#595959" stroke-width="1.0" fill="#ffffff"/>
<text x="256.7500" y="265.6491" text-anchor="middle" font-family="Helvetica" font-size="7.5" fill="#000000" >U</text>
<circle cx="256.7500" cy="242.9491" r="5.0" stroke="#595959" stroke-width="1.0" fill="#ffffff"/>
<text x="256.7500" y="245.6491" text-anchor="middle" font-family="Helvetica" font-size="7.5" fill="#000000" >I</text>
<circle cx="256.7500" cy="222.9500" r="5.0" stroke="#595959" stroke-width="1.0" fill="#ffffff"/>
<text x="256.7500" y="225.6500" text-anchor="middle" font-family="Helvetica" font-size="7.5" fill="#000000" >C</text>
<circle cx="256.7500" cy="202.9500" r="5.0" stroke="#595959" stroke-width="1.0" fill="#ffffff"/>
<text x="256.7500" y="205.6500" text-anchor="middle" font-family="Helvetica" font-size="7.5" fill="#000000" >U</text>
<circle cx="256.7500" cy="182.9508" r="5.0" stroke="#595959" stroke-width="1.0" fill="#ffffff"/>
<text x="256.7500" y="185.6508" text-anchor="middle" font-family="Helvetica" font-size="7.5" fill="#000000" >C</text>
<circle cx="256.7501" cy="162.9508" r="5.0" stroke="#595959" stroke-width="1.0" fill="#ffffff"/>
<text x="256.7501" y="165.6508" text-anchor="middle" font-family="Helvetica" font-size="7.5" fill="#000000" >C</text>
<circle cx="256.7495" cy="142.9513" r="5.0" stroke="#595959" stroke-width="1.0" fill="#ffffff"/>
<text x="256.7495" y="145.6513" text-anchor="middle" font-family="Helvetica" font-size="7.5" fill="#000000" >G</text>
<circle cx="256.6734" cy="122.9515" r="5.0" stroke="#595959" stroke-width="1.0" fill="#ffffff"/>
<text x="256.6734" y="125.6515" text-anchor="middle" font-family="Helvetica" font-size="7.5" fill="#000000" >A</text>
<circle cx="256.7277" cy="102.9519" r="5.0" stroke="#595959" stroke-width="1.0" fill="#ffffff"/>
<text x="256.7277" y="105.6519" text-anchor="middle" font-family="Helvetica" font-size="7.5" fill="#000000" >G</text>
<circle cx="263.0189" cy="83.9797" r="5.0" stroke="#595959" stroke-width="1.0" fill="#ffffff"/>
<text x="263.0189" y="86.6797" text-anchor="middle" font-family="Helvetica" font-size="7.5" fill="#000000" >G</text>
<circle cx="282.9811" cy="83.9797" r="5.0" stroke="#595959" stroke-width="1.0" fill="#ffffff"/>
<text x="282.9811" y="86.6797" text-anchor="middle" font-family="Helvetica" font-size="7.5" fill="#000000" >C</text>
<circle cx="289.2723" cy="102.9519" r="5.0" stroke="#595959" stroke-width="1.0" fill="#ffffff"/>
<text x="289.2723" y="105.6519" text-anchor="middle" font-family="Helvetica" font-size="7.5" fill="#000000" >C</text>
<circle cx="289.3266" cy="122.9515" r="5.0" stroke="#595959" stroke-width="1.0" fill="#ffffff"/>
<text x="289.3266" y="125.6515" text-anchor="middle" font-family="Helvetica" font-size="7.5" fill="#000000" >U</text>
<circle cx="289.2505" cy="142.9513" r="5.0" stroke="#595959" stroke-width="1.0" fill="#ffffff"/>
<text x="289.2505" y="145.6513" text-anchor="middle" font-family="Helvetica" font-size="7.5" fill="#000000" >C</text>
<circle cx="289.2499" cy="162.9508" r="5.0" stroke="#595959" stroke-width="1.0" fill="#ffffff"/>
<text x="289.2499" y="165.6508" text-anchor="middle" font-family="Helvetica" font-size="7.5" fill="#000000" >G</text>
<circle cx="289.2500" cy="182.9508" r="5.0" stroke="#595959" stroke-width="1.0" fill="#ffffff"/>
<text x="289.2500" y="185.6508" text-anchor="middle" font-family="Helvetica" font-size="7.5" fill="#000000" >G</text>
<circle cx="289.2500" cy="202.9500" r="5.0" stroke="#595959" stroke-width="1.0" fill="#ffffff"/>
<text x="289.2500" y="205.6500" text-anchor="middle" font-family="Helvetica" font-size="7.5" fill="#000000" >A</text>
<circle cx="289.2500" cy="222.9500" r="5.0" stroke="#595959" stroke-width="1.0" fill="#ffffff"/>
<text x="289.2500" y="225.6500" text-anchor="middle" font-family="Helvetica" font-size="7.5" fill="#000000" >G</text>
<circle cx="289.2500" cy="242.9491" r="5.0" stroke="#595959" stroke-width="1.0" fill="#ffffff"/>
<text x="289.2500" y="245.6491" text-anchor="middle" font-family="Helvetica" font-size="7.5" fill="#000000" >U</text>
<circle cx="289.2500" cy="262.9491" r="5.0" stroke="#595959" stroke-width="1.0" fill="orange"/>
<text x="289.2500" y="265.6491" text-anchor="middle" font-family="Helvetica" font-size="7.5" fill="#000000" >I</text>
<circle cx="289.2500" cy="282.9481" r="5.0" stroke="#595959" stroke-width="1.0" fill="#ffffff"/>
<text x="289.2500" y="285.6481" text-anchor="middle" font-family="Helvetica" font-size="7.5" fill="#000000" >U</text>
<circle cx="289.2500" cy="302.9481" r="5.0" stroke="#595959" stroke-width="1.0" fill="orange"/>
<text x="289.2500" y="305.6481" text-anchor="middle" font-family="Helvetica" font-size="7.5" fill="#000000" >U</text>
<circle cx="289.2500" cy="322.9472" r="5.0" stroke="#595959" stroke-width="1.0" fill="#ffffff"/>
<text x="289.2500" y="325.6472" text-anchor="middle" font-family="Helvetica" font-size="7.5" fill="#000000" >U</text>
<circle cx="289.2500" cy="342.9472" r="5.0" stroke="#595959" stroke-width="1.0" fill="#ffffff"/>
<text x="289.2500" y="345.6472" text-anchor="middle" font-family="Helvetica" font-size="7.5" fill="#000000" >G</text>
<circle cx="289.2500" cy="362.9464" r="5.0" stroke="#595959" stroke-width="1.0" fill="#ffffff"/>
<text x="289.2500" y="365.6464" text-anchor="middle" font-family="Helvetica" font-size="7.5" fill="#000000" >U</text>
<circle cx="289.2500" cy="382.9464" r="5.0" stroke="#595959" stroke-width="1.0" fill="#ffffff"/>
<text x="289.2500" y="385.6464" text-anchor="middle" font-family="Helvetica" font-size="7.5" fill="#000000" >C</text>
<circle cx="289.2500" cy="402.9458" r="5.0" stroke="#595959" stroke-width="1.0" fill="#ffffff"/>
<text x="289.2500" y="405.6458" text-anchor="middle" font-family="Helvetica" font-size="7.5" fill="#000000" >C</text>
<circle cx="289.2500" cy="422.9458" r="5.0" stroke="#595959" stroke-width="1.0" fill="#ffffff"/>
<text x="289.2500" y="425.6458" text-anchor="middle" font-family="Helvetica" font-size="7.5" fill="#000000" >A</text>
<circle cx="289.2500" cy="442.9455" r="5.0" stroke="#595959" stroke-width="1.0" fill="#ffffff"/>
<text x="289.2500" y="445.6455" text-anchor="middle" font-family="Helvetica" font-size="7.5" fill="#000000" >G</text>
<circle cx="289.2500" cy="462.9455" r="5.0" stroke="#595959" stroke-width="1.0" fill="#ffffff"/>
<text x="289.2500" y="465.6455" text-anchor="middle" font-family="Helvetica" font-size="7.5" fill="#000000" >U</text>
</svg>
