<?xml version="1.0" encoding="UTF-8"?>
<!DOCTYPE svg PUBLIC "-//W3C//DTD SVG 1.1//EN" 
"http://www.w3.org/Graphics/SVG/1.1/DTD/svg11.dtd">

<svg version="1.1"
   width="546px"
   height="546px"
xmlns="http://www.w3.org/2000/svg">
    <rect width="100%" height="100%" fill="white"/>

  <line x1="256.7500" y1="422.9474" x2="256.7500" y2="402.9475" stroke="#595959"
     style="stroke-width:2;stroke-miterlimit:4;stroke-dasharray:1,1;stroke-dashoffset:0" />
  <line x1="256.7500" y1="342.9480" x2="256.7500" y2="322.9481" stroke="#595959"
     style="stroke-width:2;stroke-miterlimit:4;stroke-dasharray:1,1;stroke-dashoffset:0" />
  <line x1="256.7500" y1="262.9488" x2="256.7500" y2="242.9489" stroke="#595959"
     style="stroke-width:2;stroke-miterlimit:4;stroke-dasharray:1,1;stroke-dashoffset:0" />
  <line x1="256.7500" y1="162.9496" x2="256.7500" y2="142.9497" stroke="#595959"
     style="stroke-width:2;stroke-miterlimit:4;stroke-dasharray:1,1;stroke-dashoffset:0" />
  <line x1="289.2500" y1="142.9497" x2="289.2500" y2="162.9496" stroke="#595959"
     style="stroke-width:2;stroke-miterlimit:4;stroke-dasharray:1,1;stroke-dashoffset:0" />
  <line x1="289.2500" y1="242.9489" x2="289.2500" y2="262.9488" stroke="#595959"
     style="stroke-width:2;stroke-miterlimit:4;stroke-dasharray:1,1;stroke-dashoffset:0" />
  <line x1="289.2500" y1="322.9481" x2="289.2500" y2="342.9480" stroke="#595959"
     style="stroke-width:2;stroke-miterlimit:4;stroke-dasharray:1,1;stroke-dashoffset:0" />
  <line x1="289.2500" y1="402.9475" x2="289.2500" y2="422.9474" stroke="#595959"
     style="stroke-width:2;stroke-miterlimit:4;stroke-dasharray:1,1;stroke-dashoffset:0" />
  <line x1="256.7500" y1="464.5473" x2="289.2500" y2="464.5473" stroke="#db6700" stroke-width="1.0" />
  <circle cx="273.0000" cy="464.5473" r="2.25" stroke="#db6700" stroke-width="1.0" fill="#db6700"/>
  <line x1="256.7500" y1="364.5478" x2="289.2500" y2="364.5478" stroke="#eca100" stroke-width="1.0" />
  <circle cx="273.0000" cy="364.5478" r="2.25" stroke="#eca100" stroke-width="1.0" fill="#eca100"/>
  <line x1="256.7500" y1="301.3484" x2="289.2500" y2="301.3484" stroke="#db6700" stroke-width="1.0" />
  <circle cx="273.0000" cy="301.3484" r="2.25" stroke="#db6700" stroke-width="1.0" fill="#db6700"/>
  <line x1="256.7500" y1="304.5484" x2="289.2500" y2="304.5484" stroke="#9109e5" stroke-width="1.0" />
  <circle cx="273.0000" cy="304.5484" r="2.25" stroke="#9109e5" stroke-width="1.0" fill="#9109e5"/>
  <line x1="256.7500" y1="279.7485" x2="289.2500" y2="279.7485" stroke="#d24f00" stroke-width="1.0" />
  <circle cx="273.0000" cy="279.7485" r="2.25" stroke="#d24f00" stroke-width="1.0" fill="#d24f00"/>
  <line x1="256.7500" y1="282.9485" x2="289.2500" y2="282.9485" stroke="#c43500" stroke-width="1.0" />
  <circle cx="273.0000" cy="282.9485" r="2.25" stroke="#c43500" stroke-width="1.0" fill="#c43500"/>
  <line x1="256.7500" y1="286.1485" x2="289.2500" y2="286.1485" stroke="#efaf00" stroke-width="1.0" />
  <circle cx="276.5000" cy="286.1485" r="2.25" stroke="#efaf00" stroke-width="1.0" fill="#efaf00"
    transform="rotate(180.0000 273.0000 286.1485)" />
  <path d="M 271.2500 288.3985 L 271.2500 283.8985 L 267.2500 286.1485 z" style="stroke:#efaf00;stroke-width:1.0" fill="#efaf00" 
    transform="rotate(180.0000 273.0000 286.1485)"/>
  <line x1="256.7500" y1="259.7488" x2="289.2500" y2="259.7488" stroke="#b92500" stroke-width="1.0" />
  <circle cx="276.5000" cy="259.7488" r="2.25" stroke="#b92500" stroke-width="1.0" fill="#b92500"
    transform="rotate(0.0000 273.0000 259.7488)" />
  <path d="M 271.2500 261.9988 L 271.2500 257.4988 L 267.2500 259.7488 z" style="stroke:#b92500;stroke-width:1.0" fill="#b92500" 
    transform="rotate(0.0000 273.0000 259.7488)"/>
  <line x1="256.7500" y1="262.9488" x2="289.2500" y2="262.9488" stroke="#df7200" stroke-width="1.0" />
  <circle cx="273.0000" cy="262.9488" r="2.25" stroke="#df7200" stroke-width="1.0" fill="#df7200"/>
  <line x1="256.7500" y1="266.1488" x2="289.2500" y2="266.1488" stroke="#db6700" stroke-width="1.0" />
  <circle cx="273.0000" cy="266.1488" r="2.25" stroke="#db6700" stroke-width="1.0" fill="#db6700"/>
  <line x1="256.7500" y1="241.3489" x2="289.2500" y2="241.3489" stroke="#cd4500" stroke-width="1.0" />
  <circle cx="276.5000" cy="241.3489" r="2.25" stroke="#cd4500" stroke-width="1.0" fill="#cd4500"
    transform="rotate(180.0000 273.0000 241.3489)" />
  <path d="M 271.2500 243.5989 L 271.2500 239.0989 L 267.2500 241.3489 z" style="stroke:#cd4500;stroke-width:1.0" fill="#cd4500" 
    transform="rotate(180.0000 273.0000 241.3489)"/>
  <line x1="256.7500" y1="244.5489" x2="289.2500" y2="244.5489" stroke="#a9165c" stroke-width="1.0" />
  <circle cx="273.0000" cy="244.5489" r="2.25" stroke="#a9165c" stroke-width="1.0" fill="#a9165c"/>
  <line x1="256.7500" y1="224.5492" x2="289.2500" y2="224.5492" stroke="#db6700" stroke-width="1.0" />
  <circle cx="273.0000" cy="224.5492" r="2.25" stroke="#db6700" stroke-width="1.0" fill="#db6700"/>
  <line x1="256.7500" y1="462.9473" x2="256.7500" y2="442.9473" stroke="#270026" stroke-width="1.0" />
  <rect
     style="fill:#ffffff;fill-opacity:1;fill-rule:nonzero;stroke:none"
     width="2"
     height="2"
     x="256.2500"
     y="451.9473"
     transform="rotate(270.0000 256.7500 452.9473)" /> 
  <path
     style="fill:none;stroke:#270026;stroke-width:1px;stroke-linecap:butt;stroke-linejoin:miter;stroke-opacity:1"
     d="m 256.7500,450.9473 2,2 -2,2 m -2.370121,-4 2,2 -2,2"
     transform="rotate(270.0000 256.7500 452.9473)"/>
  <line x1="256.7500" y1="461.3473" x2="289.2500" y2="461.3473" stroke="#a31289" stroke-width="1.0" />
  <line x1="256.7500" y1="442.9473" x2="256.7500" y2="422.9474" stroke="#7c03fe" stroke-width="1.0" />
  <rect
     style="fill:#ffffff;fill-opacity:1;fill-rule:nonzero;stroke:none"
     width="2"
     height="2"
     x="256.2500"
     y="431.9474"
     transform="rotate(-90.0000 256.7500 432.9474)" /> 
  <path
     style="fill:none;stroke:#7c03fe;stroke-width:1px;stroke-linecap:butt;stroke-linejoin:miter;stroke-opacity:1"
     d="m 256.7500,430.9474 2,2 -2,2 m -2.370121,-4 2,2 -2,2"
     transform="rotate(-90.0000 256.7500 432.9474)"/>
  <line x1="256.7500" y1="444.1973" x2="289.2500" y2="444.1973" stroke="#3c0057" stroke-width="1.0" />
  <line x1="256.7500" y1="441.6973" x2="289.2500" y2="441.6973" stroke="#3c0057" stroke-width="1.0" />
  <line x1="256.7500" y1="422.9474" x2="289.2500" y2="422.9474" stroke="#000000" stroke-width="1.0" />
  <line x1="256.7500" y1="422.9474" x2="289.2500" y2="442.9473" stroke="#efaf00" stroke-width="1.0" />
  <rect
     style="fill:#ffffff;stroke:none"
     width="5.5"
     height="2"
     x="270.2500"
     y="431.9474" 
     transform="rotate(31.6074 273.0000 432.9474)"    /> 
  <path
     style="fill:none;stroke:#efaf00;stroke-width:1px;stroke-linecap:butt;stroke-linejoin:miter;stroke-opacity:1"
    d="m 273.7500,430.9474 2,2 -2,2 m -1.5,-4 -2,2 2,2" transform="rotate(31.6074 273.0000 432.9474)"/>
  <line x1="256.7500" y1="402.9475" x2="256.7500" y2="382.9476" stroke="#cd4500" stroke-width="1.0" />
  <rect
     style="fill:#ffffff;fill-opacity:1;fill-rule:nonzero;stroke:none"
     width="2"
     height="2"
     x="256.2500"
     y="391.9476"
     transform="rotate(270.0000 256.7500 392.9476)" /> 
  <path
     style="fill:none;stroke:#cd4500;stroke-width:1px;stroke-linecap:butt;stroke-linejoin:miter;stroke-opacity:1"
     d="m 256.7500,390.9476 2,2 -2,2 m -2.370121,-4 2,2 -2,2"
     transform="rotate(270.0000 256.7500 392.9476)"/>
  <line x1="256.7500" y1="404.1975" x2="289.2500" y2="404.1975" stroke="#000000" stroke-width="1.0" />
  <line x1="256.7500" y1="401.6975" x2="289.2500" y2="401.6975" stroke="#000000" stroke-width="1.0" />
  <line x1="256.7500" y1="402.9475" x2="289.2500" y2="422.9474" stroke="#000000" stroke-width="1.0" />
  <rect
     style="fill:#ffffff;stroke:none"
     width="5.5"
     height="2"
     x="270.2500"
     y="411.9475" 
     transform="rotate(31.6074 273.0000 412.9475)"    /> 
  <path
     style="fill:none;stroke:#000000;stroke-width:1px;stroke-linecap:butt;stroke-linejoin:miter;stroke-opacity:1"
    d="m 273.7500,410.9475 2,2 -2,2 m -1.5,-4 -2,2 2,2" transform="rotate(31.6074 273.0000 412.9475)"/>
  <line x1="256.7500" y1="382.9476" x2="256.7500" y2="362.9478" stroke="#9d0eb1" stroke-width="1.0" />
  <rect
     style="fill:#ffffff;fill-opacity:1;fill-rule:nonzero;stroke:none"
     width="2"
     height="2"
     x="256.2500"
     y="371.9477"
     transform="rotate(-90.0000 256.7500 372.9477)" /> 
  <path
     style="fill:none;stroke:#9d0eb1;stroke-width:1px;stroke-linecap:butt;stroke-linejoin:miter;stroke-opacity:1"
     d="m 256.7500,370.9477 2,2 -2,2 m -2.370121,-4 2,2 -2,2"
     transform="rotate(-90.0000 256.7500 372.9477)"/>
  <line x1="256.7500" y1="384.1976" x2="289.2500" y2="384.1976" stroke="#3c0057" stroke-width="1.0" />
  <line x1="256.7500" y1="381.6976" x2="289.2500" y2="381.6976" stroke="#3c0057" stroke-width="1.0" />
  <line x1="256.7500" y1="362.9478" x2="256.7500" y2="342.9480" stroke="#000000" stroke-width="1.0" />
  <rect
     style="fill:#ffffff;fill-opacity:1;fill-rule:nonzero;stroke:none"
     width="2"
     height="2"
     x="256.2500"
     y="351.9479"
     transform="rotate(270.0000 256.7500 352.9479)" /> 
  <path
     style="fill:none;stroke:#000000;stroke-width:1px;stroke-linecap:butt;stroke-linejoin:miter;stroke-opacity:1"
     d="m 256.7500,350.9479 2,2 -2,2 m -2.370121,-4 2,2 -2,2"
     transform="rotate(270.0000 256.7500 352.9479)"/>
  <line x1="256.7500" y1="361.3478" x2="289.2500" y2="361.3478" stroke="#6001c6" stroke-width="1.0" />
  <line x1="256.7500" y1="344.1980" x2="289.2500" y2="344.1980" stroke="#3c0057" stroke-width="1.0" />
  <line x1="256.7500" y1="341.6980" x2="289.2500" y2="341.6980" stroke="#3c0057" stroke-width="1.0" />
  <line x1="256.7500" y1="322.9481" x2="256.7500" y2="302.9484" stroke="#9d0eb1" stroke-width="1.0" />
  <rect
     style="fill:#ffffff;fill-opacity:1;fill-rule:nonzero;stroke:none"
     width="2"
     height="2"
     x="256.2500"
     y="311.9482"
     transform="rotate(270.0000 256.7500 312.9482)" /> 
  <path
     style="fill:none;stroke:#9d0eb1;stroke-width:1px;stroke-linecap:butt;stroke-linejoin:miter;stroke-opacity:1"
     d="m 256.7500,310.9482 2,2 -2,2 m -2.370121,-4 2,2 -2,2"
     transform="rotate(270.0000 256.7500 312.9482)"/>
  <line x1="256.7500" y1="322.9481" x2="289.2500" y2="322.9481" stroke="#270026" stroke-width="1.0" />
  <line x1="256.7500" y1="322.9481" x2="289.2500" y2="342.9480" stroke="#270026" stroke-width="1.0" />
  <rect
     style="fill:#ffffff;stroke:none"
     width="5.5"
     height="2"
     x="270.2500"
     y="331.9480" 
     transform="rotate(31.6073 273.0000 332.9480)"    /> 
  <path
     style="fill:none;stroke:#270026;stroke-width:1px;stroke-linecap:butt;stroke-linejoin:miter;stroke-opacity:1"
    d="m 273.7500,330.9480 2,2 -2,2 m -1.5,-4 -2,2 2,2" transform="rotate(31.6073 273.0000 332.9480)"/>
  <line x1="256.7500" y1="302.9484" x2="256.7500" y2="282.9485" stroke="#a9165c" stroke-width="1.0" />
  <rect
     style="fill:#ffffff;fill-opacity:1;fill-rule:nonzero;stroke:none"
     width="2"
     height="2"
     x="256.2500"
     y="291.9484"
     transform="rotate(-90.0000 256.7500 292.9484)" /> 
  <path
     style="fill:none;stroke:#a9165c;stroke-width:1px;stroke-linecap:butt;stroke-linejoin:miter;stroke-opacity:1"
     d="m 256.7500,290.9484 2,2 -2,2 m -2.370121,-4 2,2 -2,2"
     transform="rotate(-90.0000 256.7500 292.9484)"/>
  <line x1="256.7500" y1="282.9485" x2="256.7500" y2="262.9488" stroke="#7302f5" stroke-width="1.0" />
  <rect
     style="fill:#ffffff;fill-opacity:1;fill-rule:nonzero;stroke:none"
     width="2"
     height="2"
     x="256.2500"
     y="271.9486"
     transform="rotate(270.0000 256.7500 272.9486)" /> 
  <path
     style="fill:none;stroke:#7302f5;stroke-width:1px;stroke-linecap:butt;stroke-linejoin:miter;stroke-opacity:1"
     d="m 256.7500,270.9486 2,2 -2,2 m -2.370121,-4 2,2 -2,2"
     transform="rotate(270.0000 256.7500 272.9486)"/>
  <line x1="256.7500" y1="242.9489" x2="256.7500" y2="222.9492" stroke="#000000" stroke-width="1.0" />
  <rect
     style="fill:#ffffff;fill-opacity:1;fill-rule:nonzero;stroke:none"
     width="2"
     height="2"
     x="256.2500"
     y="231.9491"
     transform="rotate(-90.0000 256.7500 232.9491)" /> 
  <path
     style="fill:none;stroke:#000000;stroke-width:1px;stroke-linecap:butt;stroke-linejoin:miter;stroke-opacity:1"
     d="m 256.7500,230.9491 2,2 -2,2 m -2.370121,-4 2,2 -2,2"
     transform="rotate(-90.0000 256.7500 232.9491)"/>
  <line x1="256.7500" y1="242.9489" x2="289.2500" y2="262.9488" stroke="#270026" stroke-width="1.0" />
  <rect
     style="fill:#ffffff;stroke:none"
     width="5.5"
     height="2"
     x="270.2500"
     y="251.9489" 
     transform="rotate(31.6073 273.0000 252.9489)"    /> 
  <path
     style="fill:none;stroke:#270026;stroke-width:1px;stroke-linecap:butt;stroke-linejoin:miter;stroke-opacity:1"
    d="m 273.7500,250.9489 2,2 -2,2 m -1.5,-4 -2,2 2,2" transform="rotate(31.6073 273.0000 252.9489)"/>
  <line x1="256.7500" y1="222.9492" x2="256.7500" y2="202.9493" stroke="#bf2d00" stroke-width="1.0" />
  <rect
     style="fill:#ffffff;fill-opacity:1;fill-rule:nonzero;stroke:none"
     width="2"
     height="2"
     x="256.2500"
     y="211.9493"
     transform="rotate(270.0000 256.7500 212.9493)" /> 
  <path
     style="fill:none;stroke:#bf2d00;stroke-width:1px;stroke-linecap:butt;stroke-linejoin:miter;stroke-opacity:1"
     d="m 256.7500,210.9493 2,2 -2,2 m -2.370121,-4 2,2 -2,2"
     transform="rotate(270.0000 256.7500 212.9493)"/>
  <line x1="256.7500" y1="222.5992" x2="289.2500" y2="222.5992" stroke="#8a06f6" stroke-width="1.0" />
  <line x1="256.7500" y1="220.0992" x2="289.2500" y2="220.0992" stroke="#8a06f6" stroke-width="1.0" />
  <line x1="256.7500" y1="202.9493" x2="256.7500" y2="182.9495" stroke="#8204ff" stroke-width="1.0" />
  <rect
     style="fill:#ffffff;fill-opacity:1;fill-rule:nonzero;stroke:none"
     width="2"
     height="2"
     x="256.2500"
     y="191.9494"
     transform="rotate(-90.0000 256.7500 192.9494)" /> 
  <path
     style="fill:none;stroke:#8204ff;stroke-width:1px;stroke-linecap:butt;stroke-linejoin:miter;stroke-opacity:1"
     d="m 256.7500,190.9494 2,2 -2,2 m -2.370121,-4 2,2 -2,2"
     transform="rotate(-90.0000 256.7500 192.9494)"/>
  <line x1="256.7500" y1="202.9493" x2="289.2500" y2="202.9493" stroke="#4b0084" stroke-width="1.0" />
  <line x1="256.7500" y1="202.9493" x2="289.2500" y2="222.9492" stroke="#e89000" stroke-width="1.0" />
  <rect
     style="fill:#ffffff;stroke:none"
     width="5.5"
     height="2"
     x="270.2500"
     y="211.9493" 
     transform="rotate(31.6073 273.0000 212.9493)"    /> 
  <path
     style="fill:none;stroke:#e89000;stroke-width:1px;stroke-linecap:butt;stroke-linejoin:miter;stroke-opacity:1"
    d="m 273.7500,210.9493 2,2 -2,2 m -1.5,-4 -2,2 2,2" transform="rotate(31.6073 273.0000 212.9493)"/>
  <line x1="256.7500" y1="182.9495" x2="256.7500" y2="162.9496" stroke="#8204ff" stroke-width="1.0" />
  <rect
     style="fill:#ffffff;fill-opacity:1;fill-rule:nonzero;stroke:none"
     width="2"
     height="2"
     x="256.2500"
     y="171.9496"
     transform="rotate(-90.0000 256.7500 172.9496)" /> 
  <path
     style="fill:none;stroke:#8204ff;stroke-width:1px;stroke-linecap:butt;stroke-linejoin:miter;stroke-opacity:1"
     d="m 256.7500,170.9496 2,2 -2,2 m -2.370121,-4 2,2 -2,2"
     transform="rotate(-90.0000 256.7500 172.9496)"/>
  <line x1="256.7500" y1="184.1995" x2="289.2500" y2="184.1995" stroke="#3c0057" stroke-width="1.0" />
  <line x1="256.7500" y1="181.6995" x2="289.2500" y2="181.6995" stroke="#3c0057" stroke-width="1.0" />
  <line x1="256.7500" y1="164.1996" x2="289.2500" y2="164.1996" stroke="#3c0057" stroke-width="1.0" />
  <line x1="256.7500" y1="161.6996" x2="289.2500" y2="161.6996" stroke="#3c0057" stroke-width="1.0" />
  <line x1="256.7500" y1="162.9496" x2="289.2500" y2="182.9495" stroke="#eca100" stroke-width="1.0" />
  <rect
     style="fill:#ffffff;stroke:none"
     width="5.5"
     height="2"
     x="270.2500"
     y="171.9496" 
     transform="rotate(31.6074 273.0000 172.9496)"    /> 
  <path
     style="fill:none;stroke:#eca100;stroke-width:1px;stroke-linecap:butt;stroke-linejoin:miter;stroke-opacity:1"
    d="m 273.7500,170.9496 2,2 -2,2 m -1.5,-4 -2,2 2,2" transform="rotate(31.6074 273.0000 172.9496)"/>
  <line x1="256.7500" y1="142.9497" x2="256.7397" y2="122.9499" stroke="#b41f06" stroke-width="1.0" />
  <rect
     style="fill:#ffffff;fill-opacity:1;fill-rule:nonzero;stroke:none"
     width="2"
     height="2"
     x="256.2448"
     y="131.9498"
     transform="rotate(269.9705 256.7448 132.9498)" /> 
  <path
     style="fill:none;stroke:#b41f06;stroke-width:1px;stroke-linecap:butt;stroke-linejoin:miter;stroke-opacity:1"
     d="m 256.7448,130.9498 2,2 -2,2 m -2.370121,-4 2,2 -2,2"
     transform="rotate(269.9705 256.7448 132.9498)"/>
  <line x1="256.7500" y1="144.1997" x2="289.2500" y2="144.1997" stroke="#000000" stroke-width="1.0" />
  <line x1="256.7500" y1="141.6997" x2="289.2500" y2="141.6997" stroke="#000000" stroke-width="1.0" />
  <line x1="256.7500" y1="142.9497" x2="289.2500" y2="162.9496" stroke="#270026" stroke-width="1.0" />
  <rect
     style="fill:#ffffff;stroke:none"
     width="5.5"
     height="2"
     x="270.2500"
     y="151.9497" 
     transform="rotate(31.6074 273.0000 152.9497)"    /> 
  <path
     style="fill:none;stroke:#270026;stroke-width:1px;stroke-linecap:butt;stroke-linejoin:miter;stroke-opacity:1"
    d="m 273.7500,150.9497 2,2 -2,2 m -1.5,-4 -2,2 2,2" transform="rotate(31.6074 273.0000 152.9497)"/>
  <line x1="256.7397" y1="122.9499" x2="256.7294" y2="102.9499" stroke="#b41f06" stroke-width="1.0" />
  <rect
     style="fill:#ffffff;fill-opacity:1;fill-rule:nonzero;stroke:none"
     width="2"
     height="2"
     x="256.2346"
     y="111.9499"
     transform="rotate(269.9706 256.7346 112.9499)" /> 
  <path
     style="fill:none;stroke:#b41f06;stroke-width:1px;stroke-linecap:butt;stroke-linejoin:miter;stroke-opacity:1"
     d="m 256.7346,110.9499 2,2 -2,2 m -2.370121,-4 2,2 -2,2"
     transform="rotate(269.9706 256.7346 112.9499)"/>
  <line x1="256.7397" y1="122.9499" x2="289.2603" y2="122.9499" stroke="#270026" stroke-width="1.0" />
  <line x1="256.7294" y1="102.9499" x2="263.0188" y2="83.9772" stroke="#c43500" stroke-width="1.0" />
  <rect
     style="fill:#ffffff;fill-opacity:1;fill-rule:nonzero;stroke:none"
     width="2"
     height="2"
     x="259.3741"
     y="92.4635"
     transform="rotate(-71.6599 259.8741 93.4635)" /> 
  <path
     style="fill:none;stroke:#c43500;stroke-width:1px;stroke-linecap:butt;stroke-linejoin:miter;stroke-opacity:1"
     d="m 259.8741,91.4635 2,2 -2,2 m -2.370121,-4 2,2 -2,2"
     transform="rotate(-71.6599 259.8741 93.4635)"/>
  <line x1="256.7294" y1="104.1999" x2="289.2706" y2="104.1999" stroke="#000000" stroke-width="1.0" />
  <line x1="256.7294" y1="101.6999" x2="289.2706" y2="101.6999" stroke="#000000" stroke-width="1.0" />
  <line x1="263.0188" y1="85.2272" x2="282.9812" y2="85.2272" stroke="#3c0057" stroke-width="1.0" />
  <line x1="263.0188" y1="82.7272" x2="282.9812" y2="82.7272" stroke="#3c0057" stroke-width="1.0" />
  <line x1="282.9812" y1="83.9772" x2="289.2706" y2="102.9499" stroke="#9109e5" stroke-width="1.0" />
  <rect
     style="fill:#ffffff;fill-opacity:1;fill-rule:nonzero;stroke:none"
     width="2"
     height="2"
     x="285.6259"
     y="92.4635"
     transform="rotate(71.6599 286.1259 93.4635)" /> 
  <path
     style="fill:none;stroke:#9109e5;stroke-width:1px;stroke-linecap:butt;stroke-linejoin:miter;stroke-opacity:1"
     d="m 286.1259,91.4635 2,2 -2,2 m -2.370121,-4 2,2 -2,2"
     transform="rotate(71.6599 286.1259 93.4635)"/>
  <line x1="289.2706" y1="102.9499" x2="289.2603" y2="122.9499" stroke="#5800ac" stroke-width="1.0" />
  <rect
     style="fill:#ffffff;fill-opacity:1;fill-rule:nonzero;stroke:none"
     width="2"
     height="2"
     x="288.7654"
     y="111.9499"
     transform="rotate(90.0294 289.2654 112.9499)" /> 
  <path
     style="fill:none;stroke:#5800ac;stroke-width:1px;stroke-linecap:butt;stroke-linejoin:miter;stroke-opacity:1"
     d="m 289.2654,110.9499 2,2 -2,2 m -2.370121,-4 2,2 -2,2"
     transform="rotate(90.0294 289.2654 112.9499)"/>
  <line x1="289.2603" y1="122.9499" x2="289.2500" y2="142.9497" stroke="#8204ff" stroke-width="1.0" />
  <rect
     style="fill:#ffffff;fill-opacity:1;fill-rule:nonzero;stroke:none"
     width="2"
     height="2"
     x="288.7552"
     y="131.9498"
     transform="rotate(90.0295 289.2552 132.9498)" /> 
  <path
     style="fill:none;stroke:#8204ff;stroke-width:1px;stroke-linecap:butt;stroke-linejoin:miter;stroke-opacity:1"
     d="m 289.2552,130.9498 2,2 -2,2 m -2.370121,-4 2,2 -2,2"
     transform="rotate(90.0295 289.2552 132.9498)"/>
  <line x1="289.2500" y1="162.9496" x2="289.2500" y2="182.9495" stroke="#d24f00" stroke-width="1.0" />
  <rect
     style="fill:#ffffff;fill-opacity:1;fill-rule:nonzero;stroke:none"
     width="2"
     height="2"
     x="288.7500"
     y="171.9496"
     transform="rotate(90.0000 289.2500 172.9496)" /> 
  <path
     style="fill:none;stroke:#d24f00;stroke-width:1px;stroke-linecap:butt;stroke-linejoin:miter;stroke-opacity:1"
     d="m 289.2500,170.9496 2,2 -2,2 m -2.370121,-4 2,2 -2,2"
     transform="rotate(90.0000 289.2500 172.9496)"/>
  <line x1="289.2500" y1="182.9495" x2="289.2500" y2="202.9493" stroke="#980bca" stroke-width="1.0" />
  <rect
     style="fill:#ffffff;fill-opacity:1;fill-rule:nonzero;stroke:none"
     width="2"
     height="2"
     x="288.7500"
     y="191.9494"
     transform="rotate(90.0000 289.2500 192.9494)" /> 
  <path
     style="fill:none;stroke:#980bca;stroke-width:1px;stroke-linecap:butt;stroke-linejoin:miter;stroke-opacity:1"
     d="m 289.2500,190.9494 2,2 -2,2 m -2.370121,-4 2,2 -2,2"
     transform="rotate(90.0000 289.2500 192.9494)"/>
  <line x1="289.2500" y1="202.9493" x2="289.2500" y2="222.9492" stroke="#c93d00" stroke-width="1.0" />
  <rect
     style="fill:#ffffff;fill-opacity:1;fill-rule:nonzero;stroke:none"
     width="2"
     height="2"
     x="288.7500"
     y="211.9493"
     transform="rotate(90.0000 289.2500 212.9493)" /> 
  <path
     style="fill:none;stroke:#c93d00;stroke-width:1px;stroke-linecap:butt;stroke-linejoin:miter;stroke-opacity:1"
     d="m 289.2500,210.9493 2,2 -2,2 m -2.370121,-4 2,2 -2,2"
     transform="rotate(90.0000 289.2500 212.9493)"/>
  <line x1="289.2500" y1="222.9492" x2="289.2500" y2="242.9489" stroke="#4b0084" stroke-width="1.0" />
  <rect
     style="fill:#ffffff;fill-opacity:1;fill-rule:nonzero;stroke:none"
     width="2"
     height="2"
     x="288.7500"
     y="231.9491"
     transform="rotate(90.0000 289.2500 232.9491)" /> 
  <path
     style="fill:none;stroke:#4b0084;stroke-width:1px;stroke-linecap:butt;stroke-linejoin:miter;stroke-opacity:1"
     d="m 289.2500,230.9491 2,2 -2,2 m -2.370121,-4 2,2 -2,2"
     transform="rotate(90.0000 289.2500 232.9491)"/>
  <line x1="289.2500" y1="262.9488" x2="289.2500" y2="282.9485" stroke="#270026" stroke-width="1.0" />
  <rect
     style="fill:#ffffff;fill-opacity:1;fill-rule:nonzero;stroke:none"
     width="2"
     height="2"
     x="288.7500"
     y="271.9486"
     transform="rotate(90.0000 289.2500 272.9486)" /> 
  <path
     style="fill:none;stroke:#270026;stroke-width:1px;stroke-linecap:butt;stroke-linejoin:miter;stroke-opacity:1"
     d="m 289.2500,270.9486 2,2 -2,2 m -2.370121,-4 2,2 -2,2"
     transform="rotate(90.0000 289.2500 272.9486)"/>
  <line x1="289.2500" y1="282.9485" x2="289.2500" y2="302.9484" stroke="#d24f00" stroke-width="1.0" />
  <rect
     style="fill:#ffffff;fill-opacity:1;fill-rule:nonzero;stroke:none"
     width="2"
     height="2"
     x="288.7500"
     y="291.9484"
     transform="rotate(90.0000 289.2500 292.9484)" /> 
  <path
     style="fill:none;stroke:#d24f00;stroke-width:1px;stroke-linecap:butt;stroke-linejoin:miter;stroke-opacity:1"
     d="m 289.2500,290.9484 2,2 -2,2 m -2.370121,-4 2,2 -2,2"
     transform="rotate(90.0000 289.2500 292.9484)"/>
  <line x1="289.2500" y1="302.9484" x2="289.2500" y2="322.9481" stroke="#df7200" stroke-width="1.0" />
  <rect
     style="fill:#ffffff;fill-opacity:1;fill-rule:nonzero;stroke:none"
     width="2"
     height="2"
     x="288.7500"
     y="311.9482"
     transform="rotate(90.0000 289.2500 312.9482)" /> 
  <path
     style="fill:none;stroke:#df7200;stroke-width:1px;stroke-linecap:butt;stroke-linejoin:miter;stroke-opacity:1"
     d="m 289.2500,310.9482 2,2 -2,2 m -2.370121,-4 2,2 -2,2"
     transform="rotate(90.0000 289.2500 312.9482)"/>
  <line x1="289.2500" y1="342.9480" x2="289.2500" y2="362.9478" stroke="#000000" stroke-width="1.0" />
  <rect
     style="fill:#ffffff;fill-opacity:1;fill-rule:nonzero;stroke:none"
     width="2"
     height="2"
     x="288.7500"
     y="351.9479"
     transform="rotate(90.0000 289.2500 352.9479)" /> 
  <path
     style="fill:none;stroke:#000000;stroke-width:1px;stroke-linecap:butt;stroke-linejoin:miter;stroke-opacity:1"
     d="m 289.2500,350.9479 2,2 -2,2 m -2.370121,-4 2,2 -2,2"
     transform="rotate(90.0000 289.2500 352.9479)"/>
  <line x1="289.2500" y1="362.9478" x2="289.2500" y2="382.9476" stroke="#7c03fe" stroke-width="1.0" />
  <rect
     style="fill:#ffffff;fill-opacity:1;fill-rule:nonzero;stroke:none"
     width="2"
     height="2"
     x="288.7500"
     y="371.9477"
     transform="rotate(90.0000 289.2500 372.9477)" /> 
  <path
     style="fill:none;stroke:#7c03fe;stroke-width:1px;stroke-linecap:butt;stroke-linejoin:miter;stroke-opacity:1"
     d="m 289.2500,370.9477 2,2 -2,2 m -2.370121,-4 2,2 -2,2"
     transform="rotate(90.0000 289.2500 372.9477)"/>
  <line x1="289.2500" y1="382.9476" x2="289.2500" y2="402.9475" stroke="#7c03fe" stroke-width="1.0" />
  <rect
     style="fill:#ffffff;fill-opacity:1;fill-rule:nonzero;stroke:none"
     width="2"
     height="2"
     x="288.7500"
     y="391.9476"
     transform="rotate(90.0000 289.2500 392.9476)" /> 
  <path
     style="fill:none;stroke:#7c03fe;stroke-width:1px;stroke-linecap:butt;stroke-linejoin:miter;stroke-opacity:1"
     d="m 289.2500,390.9476 2,2 -2,2 m -2.370121,-4 2,2 -2,2"
     transform="rotate(90.0000 289.2500 392.9476)"/>
  <line x1="289.2500" y1="422.9474" x2="289.2500" y2="442.9473" stroke="#a31289" stroke-width="1.0" />
  <rect
     style="fill:#ffffff;fill-opacity:1;fill-rule:nonzero;stroke:none"
     width="2"
     height="2"
     x="288.7500"
     y="431.9474"
     transform="rotate(90.0000 289.2500 432.9474)" /> 
  <path
     style="fill:none;stroke:#a31289;stroke-width:1px;stroke-linecap:butt;stroke-linejoin:miter;stroke-opacity:1"
     d="m 289.2500,430.9474 2,2 -2,2 m -2.370121,-4 2,2 -2,2"
     transform="rotate(90.0000 289.2500 432.9474)"/>
  <line x1="289.2500" y1="442.9473" x2="289.2500" y2="462.9473" stroke="#3c0057" stroke-width="1.0" />
  <rect
     style="fill:#ffffff;fill-opacity:1;fill-rule:nonzero;stroke:none"
     width="2"
     height="2"
     x="288.7500"
     y="451.9473"
     transform="rotate(90.0000 289.2500 452.9473)" /> 
  <path
     style="fill:none;stroke:#3c0057;stroke-width:1px;stroke-linecap:butt;stroke-linejoin:miter;stroke-opacity:1"
     d="m 289.2500,450.9473 2,2 -2,2 m -2.370121,-4 2,2 -2,2"
     transform="rotate(90.0000 289.2500 452.9473)"/>
<circle cx="256.7500" cy="462.9473" r="5.0" stroke="#595959" stroke-width="1.0" fill="#ffffff"/>
<text x="256.7500" y="465.6473" text-anchor="middle" font-family="Helvetica" font-size="7.5" fill="#000000" >A</text>
<circle cx="256.7500" cy="442.9473" r="5.0" stroke="#595959" stroke-width="1.0" fill="#ffffff"/>
<text x="256.7500" y="445.6473" text-anchor="middle" font-family="Helvetica" font-size="7.5" fill="#000000" >C</text>
<circle cx="256.7500" cy="422.9474" r="5.0" stroke="#595959" stroke-width="1.0" fill="#ffffff"/>
<text x="256.7500" y="425.6474" text-anchor="middle" font-family="Helvetica" font-size="7.5" fill="#000000" >U</text>
<circle cx="256.7500" cy="402.9475" r="5.0" stroke="#595959" stroke-width="1.0" fill="#ffffff"/>
<text x="256.7500" y="405.6475" text-anchor="middle" font-family="Helvetica" font-size="7.5" fill="#000000" >G</text>
<circle cx="256.7500" cy="382.9476" r="5.0" stroke="#595959" stroke-width="1.0" fill="#ffffff"/>
<text x="256.7500" y="385.6476" text-anchor="middle" font-family="Helvetica" font-size="7.5" fill="#000000" >G</text>
<circle cx="256.7500" cy="362.9478" r="5.0" stroke="#595959" stroke-width="1.0" fill="#ffffff"/>
<text x="256.7500" y="365.6478" text-anchor="middle" font-family="Helvetica" font-size="7.5" fill="#000000" >A</text>
<circle cx="256.7500" cy="342.9480" r="5.0" stroke="#595959" stroke-width="1.0" fill="#ffffff"/>
<text x="256.7500" y="345.6480" text-anchor="middle" font-family="Helvetica" font-size="7.5" fill="#000000" >C</text>
<circle cx="256.7500" cy="322.9481" r="5.0" stroke="#595959" stroke-width="1.0" fill="#ffffff"/>
<text x="256.7500" y="325.6481" text-anchor="middle" font-family="Helvetica" font-size="7.5" fill="#000000" >A</text>
<circle cx="256.7500" cy="302.9484" r="5.0" stroke="#595959" stroke-width="1.0" fill="#ffffff"/>
<text x="256.7500" y="305.6484" text-anchor="middle" font-family="Helvetica" font-size="7.5" fill="#000000" >I</text>
<circle cx="256.7500" cy="282.9485" r="5.0" stroke="#595959" stroke-width="1.0" fill="#ffffff"/>
<text x="256.7500" y="285.6485" text-anchor="middle" font-family="Helvetica" font-size="7.5" fill="#000000" >I</text>
<circle cx="256.7500" cy="262.9488" r="5.0" stroke="#595959" stroke-width="1.0" fill="#ffffff"/>
<text x="256.7500" y="265.6488" text-anchor="middle" font-family="Helvetica" font-size="7.5" fill="#000000" >U</text>
<circle cx="256.7500" cy="242.9489" r="5.0" stroke="#595959" stroke-width="1.0" fill="#ffffff"/>
<text x="256.7500" y="245.6489" text-anchor="middle" font-family="Helvetica" font-size="7.5" fill="#000000" >I</text>
<circle cx="256.7500" cy="222.9492" r="5.0" stroke="#595959" stroke-width="1.0" fill="#ffffff"/>
<text x="256.7500" y="225.6492" text-anchor="middle" font-family="Helvetica" font-size="7.5" fill="#000000" >C</text>
<circle cx="256.7500" cy="202.9493" r="5.0" stroke="#595959" stroke-width="1.0" fill="#ffffff"/>
<text x="256.7500" y="205.6493" text-anchor="middle" font-family="Helvetica" font-size="7.5" fill="#000000" >U</text>
<circle cx="256.7500" cy="182.9495" r="5.0" stroke="#595959" stroke-width="1.0" fill="#ffffff"/>
<text x="256.7500" y="185.6495" text-anchor="middle" font-family="Helvetica" font-size="7.5" fill="#000000" >C</text>
<circle cx="256.7500" cy="162.9496" r="5.0" stroke="#595959" stroke-width="1.0" fill="#ffffff"/>
<text x="256.7500" y="165.6496" text-anchor="middle" font-family="Helvetica" font-size="7.5" fill="#000000" >C</text>
<circle cx="256.7500" cy="142.9497" r="5.0" stroke="#595959" stroke-width="1.0" fill="#ffffff"/>
<text x="256.7500" y="145.6497" text-anchor="middle" font-family="Helvetica" font-size="7.5" fill="#000000" >G</text>
<circle cx="256.7397" cy="122.9499" r="5.0" stroke="#595959" stroke-width="1.0" fill="#ffffff"/>
<text x="256.7397" y="125.6499" text-anchor="middle" font-family="Helvetica" font-size="7.5" fill="#000000" >A</text>
<circle cx="256.7294" cy="102.9499" r="5.0" stroke="#595959" stroke-width="1.0" fill="#ffffff"/>
<text x="256.7294" y="105.6499" text-anchor="middle" font-family="Helvetica" font-size="7.5" fill="#000000" >G</text>
<circle cx="263.0188" cy="83.9772" r="5.0" stroke="#595959" stroke-width="1.0" fill="#ffffff"/>
<text x="263.0188" y="86.6772" text-anchor="middle" font-family="Helvetica" font-size="7.5" fill="#000000" >G</text>
<circle cx="282.9812" cy="83.9772" r="5.0" stroke="#595959" stroke-width="1.0" fill="#ffffff"/>
<text x="282.9812" y="86.6772" text-anchor="middle" font-family="Helvetica" font-size="7.5" fill="#000000" >C</text>
<circle cx="289.2706" cy="102.9499" r="5.0" stroke="#595959" stroke-width="1.0" fill="#ffffff"/>
<text x="289.2706" y="105.6499" text-anchor="middle" font-family="Helvetica" font-size="7.5" fill="#000000" >C</text>
<circle cx="289.2603" cy="122.9499" r="5.0" stroke="#595959" stroke-width="1.0" fill="#ffffff"/>
<text x="289.2603" y="125.6499" text-anchor="middle" font-family="Helvetica" font-size="7.5" fill="#000000" >U</text>
<circle cx="289.2500" cy="142.9497" r="5.0" stroke="#595959" stroke-width="1.0" fill="#ffffff"/>
<text x="289.2500" y="145.6497" text-anchor="middle" font-family="Helvetica" font-size="7.5" fill="#000000" >C</text>
<circle cx="289.2500" cy="162.9496" r="5.0" stroke="#595959" stroke-width="1.0" fill="#ffffff"/>
<text x="289.2500" y="165.6496" text-anchor="middle" font-family="Helvetica" font-size="7.5" fill="#000000" >G</text>
<circle cx="289.2500" cy="182.9495" r="5.0" stroke="#595959" stroke-width="1.0" fill="#ffffff"/>
<text x="289.2500" y="185.6495" text-anchor="middle" font-family="Helvetica" font-size="7.5" fill="#000000" >G</text>
<circle cx="289.2500" cy="202.9493" r="5.0" stroke="#595959" stroke-width="1.0" fill="#ffffff"/>
<text x="289.2500" y="205.6493" text-anchor="middle" font-family="Helvetica" font-size="7.5" fill="#000000" >A</text>
<circle cx="289.2500" cy="222.9492" r="5.0" stroke="#595959" stroke-width="1.0" fill="#ffffff"/>
<text x="289.2500" y="225.6492" text-anchor="middle" font-family="Helvetica" font-size="7.5" fill="#000000" >G</text>
<circle cx="289.2500" cy="242.9489" r="5.0" stroke="#595959" stroke-width="1.0" fill="#ffffff"/>
<text x="289.2500" y="245.6489" text-anchor="middle" font-family="Helvetica" font-size="7.5" fill="#000000" >U</text>
<circle cx="289.2500" cy="262.9488" r="5.0" stroke="#595959" stroke-width="1.0" fill="#ffffff"/>
<text x="289.2500" y="265.6488" text-anchor="middle" font-family="Helvetica" font-size="7.5" fill="#000000" >I</text>
<circle cx="289.2500" cy="282.9485" r="5.0" stroke="#595959" stroke-width="1.0" fill="#ffffff"/>
<text x="289.2500" y="285.6485" text-anchor="middle" font-family="Helvetica" font-size="7.5" fill="#000000" >U</text>
<circle cx="289.2500" cy="302.9484" r="5.0" stroke="#595959" stroke-width="1.0" fill="orange"/>
<text x="289.2500" y="305.6484" text-anchor="middle" font-family="Helvetica" font-size="7.5" fill="#000000" >U</text>
<circle cx="289.2500" cy="322.9481" r="5.0" stroke="#595959" stroke-width="1.0" fill="#ffffff"/>
<text x="289.2500" y="325.6481" text-anchor="middle" font-family="Helvetica" font-size="7.5" fill="#000000" >U</text>
<circle cx="289.2500" cy="342.9480" r="5.0" stroke="#595959" stroke-width="1.0" fill="#ffffff"/>
<text x="289.2500" y="345.6480" text-anchor="middle" font-family="Helvetica" font-size="7.5" fill="#000000" >G</text>
<circle cx="289.2500" cy="362.9478" r="5.0" stroke="#595959" stroke-width="1.0" fill="#ffffff"/>
<text x="289.2500" y="365.6478" text-anchor="middle" font-family="Helvetica" font-size="7.5" fill="#000000" >U</text>
<circle cx="289.2500" cy="382.9476" r="5.0" stroke="#595959" stroke-width="1.0" fill="#ffffff"/>
<text x="289.2500" y="385.6476" text-anchor="middle" font-family="Helvetica" font-size="7.5" fill="#000000" >C</text>
<circle cx="289.2500" cy="402.9475" r="5.0" stroke="#595959" stroke-width="1.0" fill="#ffffff"/>
<text x="289.2500" y="405.6475" text-anchor="middle" font-family="Helvetica" font-size="7.5" fill="#000000" >C</text>
<circle cx="289.2500" cy="422.9474" r="5.0" stroke="#595959" stroke-width="1.0" fill="#ffffff"/>
<text x="289.2500" y="425.6474" text-anchor="middle" font-family="Helvetica" font-size="7.5" fill="#000000" >A</text>
<circle cx="289.2500" cy="442.9473" r="5.0" stroke="#595959" stroke-width="1.0" fill="#ffffff"/>
<text x="289.2500" y="445.6473" text-anchor="middle" font-family="Helvetica" font-size="7.5" fill="#000000" >G</text>
<circle cx="289.2500" cy="462.9473" r="5.0" stroke="#595959" stroke-width="1.0" fill="#ffffff"/>
<text x="289.2500" y="465.6473" text-anchor="middle" font-family="Helvetica" font-size="7.5" fill="#000000" >U</text>
</svg>
