<?xml version="1.0" encoding="UTF-8"?>
<!DOCTYPE svg PUBLIC "-//W3C//DTD SVG 1.1//EN" 
"http://www.w3.org/Graphics/SVG/1.1/DTD/svg11.dtd">

<svg version="1.1"
   width="546px"
   height="546px"
xmlns="http://www.w3.org/2000/svg">
    <rect width="100%" height="100%" fill="white"/>

  <line x1="256.7500" y1="422.9472" x2="256.7500" y2="402.9475" stroke="#595959"
     style="stroke-width:2;stroke-miterlimit:4;stroke-dasharray:1,1;stroke-dashoffset:0" />
  <line x1="256.7500" y1="342.9477" x2="256.7500" y2="322.9483" stroke="#595959"
     style="stroke-width:2;stroke-miterlimit:4;stroke-dasharray:1,1;stroke-dashoffset:0" />
  <line x1="256.7500" y1="262.9485" x2="256.7500" y2="242.9491" stroke="#595959"
     style="stroke-width:2;stroke-miterlimit:4;stroke-dasharray:1,1;stroke-dashoffset:0" />
  <line x1="256.7500" y1="162.9498" x2="256.7500" y2="142.9497" stroke="#595959"
     style="stroke-width:2;stroke-miterlimit:4;stroke-dasharray:1,1;stroke-dashoffset:0" />
  <line x1="289.2500" y1="142.9497" x2="289.2500" y2="162.9498" stroke="#595959"
     style="stroke-width:2;stroke-miterlimit:4;stroke-dasharray:1,1;stroke-dashoffset:0" />
  <line x1="289.2500" y1="242.9491" x2="289.2500" y2="262.9485" stroke="#595959"
     style="stroke-width:2;stroke-miterlimit:4;stroke-dasharray:1,1;stroke-dashoffset:0" />
  <line x1="289.2500" y1="322.9483" x2="289.2500" y2="342.9477" stroke="#595959"
     style="stroke-width:2;stroke-miterlimit:4;stroke-dasharray:1,1;stroke-dashoffset:0" />
  <line x1="289.2500" y1="402.9475" x2="289.2500" y2="422.9472" stroke="#595959"
     style="stroke-width:2;stroke-miterlimit:4;stroke-dasharray:1,1;stroke-dashoffset:0" />
  <line x1="256.7500" y1="462.9472" x2="289.2500" y2="462.9472" stroke="#f1b400" stroke-width="1.0" />
  <path d="M 267.2500 465.1972 L 267.2500 460.6972 L 271.7500 460.6972 L 271.7500 465.1972 z" style="stroke:#f1b400;stroke-width:1.0" fill="#f1b400" 
    transform="rotate(0.0000 273.0000 462.9472)"/>
  <path d="M 274.7500 465.1972 L 274.7500 460.6972 L 278.7500 462.9472 z" style="stroke:#f1b400;stroke-width:1.0" fill="#f1b400"
    transform="rotate(0.0000 273.0000 462.9472)"/>
  <line x1="256.7500" y1="466.1472" x2="289.2500" y2="466.1472" stroke="#e17900" stroke-width="1.0" />
  <circle cx="273.0000" cy="466.1472" r="2.25" stroke="#e17900" stroke-width="1.0" fill="#e17900"/>
  <line x1="256.7500" y1="424.5472" x2="289.2500" y2="424.5472" stroke="#e99400" stroke-width="1.0" />
  <circle cx="273.0000" cy="424.5472" r="2.25" stroke="#e99400" stroke-width="1.0" fill="#e99400"/>
  <line x1="256.7500" y1="324.5483" x2="289.2500" y2="324.5483" stroke="#e17900" stroke-width="1.0" />
  <circle cx="273.0000" cy="324.5483" r="2.25" stroke="#e17900" stroke-width="1.0" fill="#e17900"/>
  <line x1="258.3500" y1="302.9480" x2="258.3500" y2="282.9487" stroke="#d96100" stroke-width="1.0" />
  <path d="M 252.6000 295.1984 L 252.6000 290.6984 L 257.1000 290.6984 L 257.1000 295.1984 z" style="stroke:#d96100;stroke-width:1.0" fill="#d96100" 
    transform="rotate(90.0000 258.3500 292.9484)"/>
  <path d="M 260.1000 295.1984 L 260.1000 290.6984 L 264.1000 292.9484 z" style="stroke:#d96100;stroke-width:1.0" fill="#d96100"
    transform="rotate(90.0000 258.3500 292.9484)"/>
  <line x1="256.7500" y1="301.3480" x2="289.2500" y2="301.3480" stroke="#d96100" stroke-width="1.0" />
  <circle cx="273.0000" cy="301.3480" r="2.25" stroke="#d96100" stroke-width="1.0" fill="#d96100"/>
  <line x1="256.7500" y1="304.5480" x2="289.2500" y2="304.5480" stroke="#bf2d00" stroke-width="1.0" />
  <circle cx="273.0000" cy="304.5480" r="2.25" stroke="#bf2d00" stroke-width="1.0" fill="#bf2d00"/>
  <line x1="258.3500" y1="282.9487" x2="258.3500" y2="262.9485" stroke="#e99400" stroke-width="1.0" />
  <path d="M 252.6000 275.1986 L 252.6000 270.6986 L 257.1000 270.6986 L 257.1000 275.1986 z" style="stroke:#e99400;stroke-width:1.0" fill="#e99400" 
    transform="rotate(450.0000 258.3500 272.9486)"/>
  <path d="M 260.1000 275.1986 L 260.1000 270.6986 L 264.1000 272.9486 z" style="stroke:#e99400;stroke-width:1.0" fill="#e99400"
    transform="rotate(450.0000 258.3500 272.9486)"/>
  <line x1="256.7500" y1="281.3487" x2="289.2500" y2="281.3487" stroke="#f1b400" stroke-width="1.0" />
  <circle cx="273.0000" cy="281.3487" r="2.25" stroke="#f1b400" stroke-width="1.0" fill="#f1b400"/>
  <line x1="256.7500" y1="284.5487" x2="289.2500" y2="284.5487" stroke="#d96100" stroke-width="1.0" />
  <circle cx="273.0000" cy="284.5487" r="2.25" stroke="#d96100" stroke-width="1.0" fill="#d96100"/>
  <line x1="257.5885" y1="281.5860" x2="290.0885" y2="301.5854" stroke="#e99400" stroke-width="1.0" />
  <circle cx="273.8385" cy="291.5857" r="2.25" stroke="#e99400" stroke-width="1.0" fill="#e99400"/>
  <line x1="255.9115" y1="284.3114" x2="288.4115" y2="304.3107" stroke="#f1b400" stroke-width="1.0" />
  <circle cx="275.6615" cy="294.3110" r="2.25" stroke="#f1b400" stroke-width="1.0" fill="#f1b400"
    transform="rotate(31.6066 272.1615 294.3110)" />
  <path d="M 270.4115 296.5610 L 270.4115 292.0610 L 266.4115 294.3110 z" style="stroke:#f1b400;stroke-width:1.0" fill="#f1b400" 
    transform="rotate(31.6066 272.1615 294.3110)"/>
  <line x1="256.7500" y1="261.3485" x2="289.2500" y2="261.3485" stroke="#c83b00" stroke-width="1.0" />
  <circle cx="273.0000" cy="261.3485" r="2.25" stroke="#c83b00" stroke-width="1.0" fill="#c83b00"/>
  <line x1="256.7500" y1="264.5485" x2="289.2500" y2="264.5485" stroke="#b41f06" stroke-width="1.0" />
  <circle cx="273.0000" cy="264.5485" r="2.25" stroke="#b41f06" stroke-width="1.0" fill="#b41f06"/>
  <line x1="256.7500" y1="262.9485" x2="289.2500" y2="282.9487" stroke="#c83b00" stroke-width="1.0" />
  <circle cx="273.0000" cy="272.9486" r="2.25" stroke="#c83b00" stroke-width="1.0" fill="#c83b00"/>
  <line x1="256.7500" y1="242.9491" x2="289.2500" y2="242.9491" stroke="#3c0057" stroke-width="1.0" />
  <circle cx="273.0000" cy="242.9491" r="2.25" stroke="#3c0057" stroke-width="1.0" fill="#3c0057"/>
  <line x1="256.7500" y1="204.5495" x2="289.2500" y2="204.5495" stroke="#e99400" stroke-width="1.0" />
  <circle cx="273.0000" cy="204.5495" r="2.25" stroke="#e99400" stroke-width="1.0" fill="#e99400"/>
  <line x1="256.7269" y1="101.3497" x2="289.2731" y2="101.3497" stroke="#f1b400" stroke-width="1.0" />
  <circle cx="273.0000" cy="101.3497" r="2.25" stroke="#f1b400" stroke-width="1.0" fill="#f1b400"/>
  <line x1="263.0187" y1="85.5781" x2="282.9813" y2="85.5781" stroke="#e99400" stroke-width="1.0" />
  <circle cx="273.0000" cy="85.5781" r="2.25" stroke="#e99400" stroke-width="1.0" fill="#e99400"/>
  <line x1="256.7500" y1="462.9472" x2="256.7500" y2="442.9473" stroke="#6801dc" stroke-width="1.0" />
  <rect
     style="fill:#ffffff;fill-opacity:1;fill-rule:nonzero;stroke:none"
     width="2"
     height="2"
     x="256.2500"
     y="451.9472"
     transform="rotate(-90.0000 256.7500 452.9472)" /> 
  <path
     style="fill:none;stroke:#6801dc;stroke-width:1px;stroke-linecap:butt;stroke-linejoin:miter;stroke-opacity:1"
     d="m 256.7500,450.9472 2,2 -2,2 m -2.370121,-4 2,2 -2,2"
     transform="rotate(-90.0000 256.7500 452.9472)"/>
  <line x1="256.7500" y1="459.7472" x2="289.2500" y2="459.7472" stroke="#bf2d00" stroke-width="1.0" />
  <line x1="256.7500" y1="442.9473" x2="256.7500" y2="422.9472" stroke="#9e0fa8" stroke-width="1.0" />
  <rect
     style="fill:#ffffff;fill-opacity:1;fill-rule:nonzero;stroke:none"
     width="2"
     height="2"
     x="256.2500"
     y="431.9473"
     transform="rotate(-90.0000 256.7500 432.9473)" /> 
  <path
     style="fill:none;stroke:#9e0fa8;stroke-width:1px;stroke-linecap:butt;stroke-linejoin:miter;stroke-opacity:1"
     d="m 256.7500,430.9473 2,2 -2,2 m -2.370121,-4 2,2 -2,2"
     transform="rotate(-90.0000 256.7500 432.9473)"/>
  <line x1="256.7500" y1="444.1973" x2="289.2500" y2="444.1973" stroke="#3c0057" stroke-width="1.0" />
  <line x1="256.7500" y1="441.6973" x2="289.2500" y2="441.6973" stroke="#3c0057" stroke-width="1.0" />
  <line x1="256.7500" y1="421.3472" x2="289.2500" y2="421.3472" stroke="#6801dc" stroke-width="1.0" />
  <line x1="256.7500" y1="402.9475" x2="256.7500" y2="382.9474" stroke="#9e0fa8" stroke-width="1.0" />
  <rect
     style="fill:#ffffff;fill-opacity:1;fill-rule:nonzero;stroke:none"
     width="2"
     height="2"
     x="256.2500"
     y="391.9475"
     transform="rotate(-90.0000 256.7500 392.9475)" /> 
  <path
     style="fill:none;stroke:#9e0fa8;stroke-width:1px;stroke-linecap:butt;stroke-linejoin:miter;stroke-opacity:1"
     d="m 256.7500,390.9475 2,2 -2,2 m -2.370121,-4 2,2 -2,2"
     transform="rotate(-90.0000 256.7500 392.9475)"/>
  <line x1="256.7500" y1="404.1975" x2="289.2500" y2="404.1975" stroke="#000000" stroke-width="1.0" />
  <line x1="256.7500" y1="401.6975" x2="289.2500" y2="401.6975" stroke="#000000" stroke-width="1.0" />
  <line x1="256.7500" y1="402.9475" x2="289.2500" y2="422.9472" stroke="#000000" stroke-width="1.0" />
  <rect
     style="fill:#ffffff;stroke:none"
     width="5.5"
     height="2"
     x="270.2500"
     y="411.9474" 
     transform="rotate(31.6071 273.0000 412.9474)"    /> 
  <path
     style="fill:none;stroke:#000000;stroke-width:1px;stroke-linecap:butt;stroke-linejoin:miter;stroke-opacity:1"
    d="m 273.7500,410.9474 2,2 -2,2 m -1.5,-4 -2,2 2,2" transform="rotate(31.6071 273.0000 412.9474)"/>
  <line x1="256.7500" y1="382.9474" x2="256.7500" y2="362.9479" stroke="#a9165c" stroke-width="1.0" />
  <rect
     style="fill:#ffffff;fill-opacity:1;fill-rule:nonzero;stroke:none"
     width="2"
     height="2"
     x="256.2500"
     y="371.9476"
     transform="rotate(270.0000 256.7500 372.9476)" /> 
  <path
     style="fill:none;stroke:#a9165c;stroke-width:1px;stroke-linecap:butt;stroke-linejoin:miter;stroke-opacity:1"
     d="m 256.7500,370.9476 2,2 -2,2 m -2.370121,-4 2,2 -2,2"
     transform="rotate(270.0000 256.7500 372.9476)"/>
  <line x1="256.7500" y1="384.1974" x2="289.2500" y2="384.1974" stroke="#000000" stroke-width="1.0" />
  <line x1="256.7500" y1="381.6974" x2="289.2500" y2="381.6974" stroke="#000000" stroke-width="1.0" />
  <line x1="256.7500" y1="382.9474" x2="289.2500" y2="402.9475" stroke="#f1b400" stroke-width="1.0" />
  <rect
     style="fill:#ffffff;stroke:none"
     width="5.5"
     height="2"
     x="270.2500"
     y="391.9475" 
     transform="rotate(31.6077 273.0000 392.9475)"    /> 
  <path
     style="fill:none;stroke:#f1b400;stroke-width:1px;stroke-linecap:butt;stroke-linejoin:miter;stroke-opacity:1"
    d="m 273.7500,390.9475 2,2 -2,2 m -1.5,-4 -2,2 2,2" transform="rotate(31.6077 273.0000 392.9475)"/>
  <line x1="256.7500" y1="362.9479" x2="256.7500" y2="342.9477" stroke="#000000" stroke-width="1.0" />
  <rect
     style="fill:#ffffff;fill-opacity:1;fill-rule:nonzero;stroke:none"
     width="2"
     height="2"
     x="256.2500"
     y="351.9478"
     transform="rotate(-90.0000 256.7500 352.9478)" /> 
  <path
     style="fill:none;stroke:#000000;stroke-width:1px;stroke-linecap:butt;stroke-linejoin:miter;stroke-opacity:1"
     d="m 256.7500,350.9478 2,2 -2,2 m -2.370121,-4 2,2 -2,2"
     transform="rotate(-90.0000 256.7500 352.9478)"/>
  <line x1="256.7500" y1="362.9479" x2="289.2500" y2="362.9479" stroke="#3c0057" stroke-width="1.0" />
  <line x1="256.7500" y1="362.9479" x2="289.2500" y2="382.9474" stroke="#f1b400" stroke-width="1.0" />
  <rect
     style="fill:#ffffff;stroke:none"
     width="5.5"
     height="2"
     x="270.2500"
     y="371.9476" 
     transform="rotate(31.6069 273.0000 372.9476)"    /> 
  <path
     style="fill:none;stroke:#f1b400;stroke-width:1px;stroke-linecap:butt;stroke-linejoin:miter;stroke-opacity:1"
    d="m 273.7500,370.9476 2,2 -2,2 m -1.5,-4 -2,2 2,2" transform="rotate(31.6069 273.0000 372.9476)"/>
  <line x1="256.7500" y1="344.1977" x2="289.2500" y2="344.1977" stroke="#3c0057" stroke-width="1.0" />
  <line x1="256.7500" y1="341.6977" x2="289.2500" y2="341.6977" stroke="#3c0057" stroke-width="1.0" />
  <line x1="256.7500" y1="322.9483" x2="256.7500" y2="302.9480" stroke="#a9165c" stroke-width="1.0" />
  <rect
     style="fill:#ffffff;fill-opacity:1;fill-rule:nonzero;stroke:none"
     width="2"
     height="2"
     x="256.2500"
     y="311.9482"
     transform="rotate(270.0000 256.7500 312.9482)" /> 
  <path
     style="fill:none;stroke:#a9165c;stroke-width:1px;stroke-linecap:butt;stroke-linejoin:miter;stroke-opacity:1"
     d="m 256.7500,310.9482 2,2 -2,2 m -2.370121,-4 2,2 -2,2"
     transform="rotate(270.0000 256.7500 312.9482)"/>
  <line x1="256.7500" y1="321.3483" x2="289.2500" y2="321.3483" stroke="#7803fb" stroke-width="1.0" />
  <line x1="256.7500" y1="322.9483" x2="289.2500" y2="342.9477" stroke="#3c0057" stroke-width="1.0" />
  <rect
     style="fill:#ffffff;stroke:none"
     width="5.5"
     height="2"
     x="270.2500"
     y="331.9480" 
     transform="rotate(31.6067 273.0000 332.9480)"    /> 
  <path
     style="fill:none;stroke:#3c0057;stroke-width:1px;stroke-linecap:butt;stroke-linejoin:miter;stroke-opacity:1"
    d="m 273.7500,330.9480 2,2 -2,2 m -1.5,-4 -2,2 2,2" transform="rotate(31.6067 273.0000 332.9480)"/>
  <line x1="255.1500" y1="302.9480" x2="255.1500" y2="282.9487" stroke="#bf2d00" stroke-width="1.0" />
  <rect
     style="fill:#ffffff;fill-opacity:1;fill-rule:nonzero;stroke:none"
     width="2"
     height="2"
     x="254.6500"
     y="291.9484"
     transform="rotate(-90.0000 255.1500 292.9484)" /> 
  <path
     style="fill:none;stroke:#bf2d00;stroke-width:1px;stroke-linecap:butt;stroke-linejoin:miter;stroke-opacity:1"
     d="m 255.1500,290.9484 2,2 -2,2 m -2.370121,-4 2,2 -2,2"
     transform="rotate(-90.0000 255.1500 292.9484)"/>
  <line x1="255.1500" y1="282.9487" x2="255.1500" y2="262.9485" stroke="#b41f06" stroke-width="1.0" />
  <rect
     style="fill:#ffffff;fill-opacity:1;fill-rule:nonzero;stroke:none"
     width="2"
     height="2"
     x="254.6500"
     y="271.9486"
     transform="rotate(270.0000 255.1500 272.9486)" /> 
  <path
     style="fill:none;stroke:#b41f06;stroke-width:1px;stroke-linecap:butt;stroke-linejoin:miter;stroke-opacity:1"
     d="m 255.1500,270.9486 2,2 -2,2 m -2.370121,-4 2,2 -2,2"
     transform="rotate(270.0000 255.1500 272.9486)"/>
  <line x1="256.7500" y1="242.9491" x2="256.7500" y2="222.9489" stroke="#000000" stroke-width="1.0" />
  <rect
     style="fill:#ffffff;fill-opacity:1;fill-rule:nonzero;stroke:none"
     width="2"
     height="2"
     x="256.2500"
     y="231.9490"
     transform="rotate(270.0000 256.7500 232.9490)" /> 
  <path
     style="fill:none;stroke:#000000;stroke-width:1px;stroke-linecap:butt;stroke-linejoin:miter;stroke-opacity:1"
     d="m 256.7500,230.9490 2,2 -2,2 m -2.370121,-4 2,2 -2,2"
     transform="rotate(270.0000 256.7500 232.9490)"/>
  <line x1="256.7500" y1="242.9491" x2="289.2500" y2="262.9485" stroke="#7803fb" stroke-width="1.0" />
  <rect
     style="fill:#ffffff;stroke:none"
     width="5.5"
     height="2"
     x="270.2500"
     y="251.9488" 
     transform="rotate(31.6066 273.0000 252.9488)"    /> 
  <path
     style="fill:none;stroke:#7803fb;stroke-width:1px;stroke-linecap:butt;stroke-linejoin:miter;stroke-opacity:1"
    d="m 273.7500,250.9488 2,2 -2,2 m -1.5,-4 -2,2 2,2" transform="rotate(31.6066 273.0000 252.9488)"/>
  <line x1="256.7500" y1="222.9489" x2="256.7500" y2="202.9495" stroke="#8605fc" stroke-width="1.0" />
  <rect
     style="fill:#ffffff;fill-opacity:1;fill-rule:nonzero;stroke:none"
     width="2"
     height="2"
     x="256.2500"
     y="211.9492"
     transform="rotate(270.0000 256.7500 212.9492)" /> 
  <path
     style="fill:none;stroke:#8605fc;stroke-width:1px;stroke-linecap:butt;stroke-linejoin:miter;stroke-opacity:1"
     d="m 256.7500,210.9492 2,2 -2,2 m -2.370121,-4 2,2 -2,2"
     transform="rotate(270.0000 256.7500 212.9492)"/>
  <line x1="256.7500" y1="224.1989" x2="289.2500" y2="224.1989" stroke="#000000" stroke-width="1.0" />
  <line x1="256.7500" y1="221.6989" x2="289.2500" y2="221.6989" stroke="#000000" stroke-width="1.0" />
  <line x1="256.7500" y1="202.9495" x2="256.7500" y2="182.9494" stroke="#9e0fa8" stroke-width="1.0" />
  <rect
     style="fill:#ffffff;fill-opacity:1;fill-rule:nonzero;stroke:none"
     width="2"
     height="2"
     x="256.2500"
     y="191.9494"
     transform="rotate(-90.0000 256.7500 192.9494)" /> 
  <path
     style="fill:none;stroke:#9e0fa8;stroke-width:1px;stroke-linecap:butt;stroke-linejoin:miter;stroke-opacity:1"
     d="m 256.7500,190.9494 2,2 -2,2 m -2.370121,-4 2,2 -2,2"
     transform="rotate(-90.0000 256.7500 192.9494)"/>
  <line x1="256.7500" y1="201.3495" x2="289.2500" y2="201.3495" stroke="#6801dc" stroke-width="1.0" />
  <line x1="256.7500" y1="182.9494" x2="256.7500" y2="162.9498" stroke="#6801dc" stroke-width="1.0" />
  <rect
     style="fill:#ffffff;fill-opacity:1;fill-rule:nonzero;stroke:none"
     width="2"
     height="2"
     x="256.2500"
     y="171.9496"
     transform="rotate(-90.0000 256.7500 172.9496)" /> 
  <path
     style="fill:none;stroke:#6801dc;stroke-width:1px;stroke-linecap:butt;stroke-linejoin:miter;stroke-opacity:1"
     d="m 256.7500,170.9496 2,2 -2,2 m -2.370121,-4 2,2 -2,2"
     transform="rotate(-90.0000 256.7500 172.9496)"/>
  <line x1="256.7500" y1="184.1994" x2="289.2500" y2="184.1994" stroke="#000000" stroke-width="1.0" />
  <line x1="256.7500" y1="181.6994" x2="289.2500" y2="181.6994" stroke="#000000" stroke-width="1.0" />
  <line x1="256.7500" y1="182.9494" x2="289.2500" y2="202.9495" stroke="#e99400" stroke-width="1.0" />
  <rect
     style="fill:#ffffff;stroke:none"
     width="5.5"
     height="2"
     x="270.2500"
     y="191.9494" 
     transform="rotate(31.6077 273.0000 192.9494)"    /> 
  <path
     style="fill:none;stroke:#e99400;stroke-width:1px;stroke-linecap:butt;stroke-linejoin:miter;stroke-opacity:1"
    d="m 273.7500,190.9494 2,2 -2,2 m -1.5,-4 -2,2 2,2" transform="rotate(31.6077 273.0000 192.9494)"/>
  <line x1="256.7500" y1="164.1998" x2="289.2500" y2="164.1998" stroke="#3c0057" stroke-width="1.0" />
  <line x1="256.7500" y1="161.6998" x2="289.2500" y2="161.6998" stroke="#3c0057" stroke-width="1.0" />
  <line x1="256.7500" y1="162.9498" x2="289.2500" y2="182.9494" stroke="#e99400" stroke-width="1.0" />
  <rect
     style="fill:#ffffff;stroke:none"
     width="5.5"
     height="2"
     x="270.2500"
     y="171.9496" 
     transform="rotate(31.6070 273.0000 172.9496)"    /> 
  <path
     style="fill:none;stroke:#e99400;stroke-width:1px;stroke-linecap:butt;stroke-linejoin:miter;stroke-opacity:1"
    d="m 273.7500,170.9496 2,2 -2,2 m -1.5,-4 -2,2 2,2" transform="rotate(31.6070 273.0000 172.9496)"/>
  <line x1="256.7500" y1="142.9497" x2="256.7394" y2="122.9502" stroke="#9e0fa8" stroke-width="1.0" />
  <rect
     style="fill:#ffffff;fill-opacity:1;fill-rule:nonzero;stroke:none"
     width="2"
     height="2"
     x="256.2447"
     y="131.9499"
     transform="rotate(269.9697 256.7447 132.9499)" /> 
  <path
     style="fill:none;stroke:#9e0fa8;stroke-width:1px;stroke-linecap:butt;stroke-linejoin:miter;stroke-opacity:1"
     d="m 256.7447,130.9499 2,2 -2,2 m -2.370121,-4 2,2 -2,2"
     transform="rotate(269.9697 256.7447 132.9499)"/>
  <line x1="256.7500" y1="144.1997" x2="289.2500" y2="144.1997" stroke="#3c0057" stroke-width="1.0" />
  <line x1="256.7500" y1="141.6997" x2="289.2500" y2="141.6997" stroke="#3c0057" stroke-width="1.0" />
  <line x1="256.7500" y1="142.9497" x2="289.2500" y2="162.9498" stroke="#000000" stroke-width="1.0" />
  <rect
     style="fill:#ffffff;stroke:none"
     width="5.5"
     height="2"
     x="270.2500"
     y="151.9497" 
     transform="rotate(31.6076 273.0000 152.9497)"    /> 
  <path
     style="fill:none;stroke:#000000;stroke-width:1px;stroke-linecap:butt;stroke-linejoin:miter;stroke-opacity:1"
    d="m 273.7500,150.9497 2,2 -2,2 m -1.5,-4 -2,2 2,2" transform="rotate(31.6076 273.0000 152.9497)"/>
  <line x1="256.7394" y1="122.9502" x2="256.7269" y2="102.9497" stroke="#c83b00" stroke-width="1.0" />
  <rect
     style="fill:#ffffff;fill-opacity:1;fill-rule:nonzero;stroke:none"
     width="2"
     height="2"
     x="256.2332"
     y="111.9500"
     transform="rotate(269.9644 256.7332 112.9500)" /> 
  <path
     style="fill:none;stroke:#c83b00;stroke-width:1px;stroke-linecap:butt;stroke-linejoin:miter;stroke-opacity:1"
     d="m 256.7332,110.9500 2,2 -2,2 m -2.370121,-4 2,2 -2,2"
     transform="rotate(269.9644 256.7332 112.9500)"/>
  <line x1="256.7394" y1="122.9502" x2="289.2606" y2="122.9502" stroke="#3c0057" stroke-width="1.0" />
  <line x1="256.7394" y1="122.9502" x2="289.2500" y2="142.9497" stroke="#f1b400" stroke-width="1.0" />
  <rect
     style="fill:#ffffff;stroke:none"
     width="5.5"
     height="2"
     x="270.2447"
     y="131.9499" 
     transform="rotate(31.5985 272.9947 132.9499)"    /> 
  <path
     style="fill:none;stroke:#f1b400;stroke-width:1px;stroke-linecap:butt;stroke-linejoin:miter;stroke-opacity:1"
    d="m 273.7447,130.9499 2,2 -2,2 m -1.5,-4 -2,2 2,2" transform="rotate(31.5985 272.9947 132.9499)"/>
  <line x1="256.7269" y1="102.9497" x2="263.0187" y2="83.9781" stroke="#bf2d00" stroke-width="1.0" />
  <rect
     style="fill:#ffffff;fill-opacity:1;fill-rule:nonzero;stroke:none"
     width="2"
     height="2"
     x="259.3728"
     y="92.4639"
     transform="rotate(-71.6523 259.8728 93.4639)" /> 
  <path
     style="fill:none;stroke:#bf2d00;stroke-width:1px;stroke-linecap:butt;stroke-linejoin:miter;stroke-opacity:1"
     d="m 259.8728,91.4639 2,2 -2,2 m -2.370121,-4 2,2 -2,2"
     transform="rotate(-71.6523 259.8728 93.4639)"/>
  <line x1="256.7269" y1="105.7997" x2="289.2731" y2="105.7997" stroke="#5500a3" stroke-width="1.0" />
  <line x1="256.7269" y1="103.2997" x2="289.2731" y2="103.2997" stroke="#5500a3" stroke-width="1.0" />
  <line x1="263.0187" y1="83.6281" x2="282.9813" y2="83.6281" stroke="#7803fb" stroke-width="1.0" />
  <line x1="263.0187" y1="81.1281" x2="282.9813" y2="81.1281" stroke="#7803fb" stroke-width="1.0" />
  <line x1="282.9813" y1="83.9781" x2="289.2731" y2="102.9497" stroke="#b41f06" stroke-width="1.0" />
  <rect
     style="fill:#ffffff;fill-opacity:1;fill-rule:nonzero;stroke:none"
     width="2"
     height="2"
     x="285.6272"
     y="92.4639"
     transform="rotate(71.6523 286.1272 93.4639)" /> 
  <path
     style="fill:none;stroke:#b41f06;stroke-width:1px;stroke-linecap:butt;stroke-linejoin:miter;stroke-opacity:1"
     d="m 286.1272,91.4639 2,2 -2,2 m -2.370121,-4 2,2 -2,2"
     transform="rotate(71.6523 286.1272 93.4639)"/>
  <line x1="289.2731" y1="102.9497" x2="289.2606" y2="122.9502" stroke="#9309df" stroke-width="1.0" />
  <rect
     style="fill:#ffffff;fill-opacity:1;fill-rule:nonzero;stroke:none"
     width="2"
     height="2"
     x="288.7668"
     y="111.9500"
     transform="rotate(90.0356 289.2668 112.9500)" /> 
  <path
     style="fill:none;stroke:#9309df;stroke-width:1px;stroke-linecap:butt;stroke-linejoin:miter;stroke-opacity:1"
     d="m 289.2668,110.9500 2,2 -2,2 m -2.370121,-4 2,2 -2,2"
     transform="rotate(90.0356 289.2668 112.9500)"/>
  <line x1="289.2606" y1="122.9502" x2="289.2500" y2="142.9497" stroke="#7803fb" stroke-width="1.0" />
  <rect
     style="fill:#ffffff;fill-opacity:1;fill-rule:nonzero;stroke:none"
     width="2"
     height="2"
     x="288.7553"
     y="131.9499"
     transform="rotate(90.0303 289.2553 132.9499)" /> 
  <path
     style="fill:none;stroke:#7803fb;stroke-width:1px;stroke-linecap:butt;stroke-linejoin:miter;stroke-opacity:1"
     d="m 289.2553,130.9499 2,2 -2,2 m -2.370121,-4 2,2 -2,2"
     transform="rotate(90.0303 289.2553 132.9499)"/>
  <line x1="289.2500" y1="162.9498" x2="289.2500" y2="182.9494" stroke="#d96100" stroke-width="1.0" />
  <rect
     style="fill:#ffffff;fill-opacity:1;fill-rule:nonzero;stroke:none"
     width="2"
     height="2"
     x="288.7500"
     y="171.9496"
     transform="rotate(90.0000 289.2500 172.9496)" /> 
  <path
     style="fill:none;stroke:#d96100;stroke-width:1px;stroke-linecap:butt;stroke-linejoin:miter;stroke-opacity:1"
     d="m 289.2500,170.9496 2,2 -2,2 m -2.370121,-4 2,2 -2,2"
     transform="rotate(90.0000 289.2500 172.9496)"/>
  <line x1="289.2500" y1="182.9494" x2="289.2500" y2="202.9495" stroke="#a9165c" stroke-width="1.0" />
  <rect
     style="fill:#ffffff;fill-opacity:1;fill-rule:nonzero;stroke:none"
     width="2"
     height="2"
     x="288.7500"
     y="191.9494"
     transform="rotate(90.0000 289.2500 192.9494)" /> 
  <path
     style="fill:none;stroke:#a9165c;stroke-width:1px;stroke-linecap:butt;stroke-linejoin:miter;stroke-opacity:1"
     d="m 289.2500,190.9494 2,2 -2,2 m -2.370121,-4 2,2 -2,2"
     transform="rotate(90.0000 289.2500 192.9494)"/>
  <line x1="289.2500" y1="202.9495" x2="289.2500" y2="222.9489" stroke="#bf2d00" stroke-width="1.0" />
  <rect
     style="fill:#ffffff;fill-opacity:1;fill-rule:nonzero;stroke:none"
     width="2"
     height="2"
     x="288.7500"
     y="211.9492"
     transform="rotate(90.0000 289.2500 212.9492)" /> 
  <path
     style="fill:none;stroke:#bf2d00;stroke-width:1px;stroke-linecap:butt;stroke-linejoin:miter;stroke-opacity:1"
     d="m 289.2500,210.9492 2,2 -2,2 m -2.370121,-4 2,2 -2,2"
     transform="rotate(90.0000 289.2500 212.9492)"/>
  <line x1="289.2500" y1="222.9489" x2="289.2500" y2="242.9491" stroke="#000000" stroke-width="1.0" />
  <rect
     style="fill:#ffffff;fill-opacity:1;fill-rule:nonzero;stroke:none"
     width="2"
     height="2"
     x="288.7500"
     y="231.9490"
     transform="rotate(90.0000 289.2500 232.9490)" /> 
  <path
     style="fill:none;stroke:#000000;stroke-width:1px;stroke-linecap:butt;stroke-linejoin:miter;stroke-opacity:1"
     d="m 289.2500,230.9490 2,2 -2,2 m -2.370121,-4 2,2 -2,2"
     transform="rotate(90.0000 289.2500 232.9490)"/>
  <line x1="289.2500" y1="262.9485" x2="289.2500" y2="282.9487" stroke="#3c0057" stroke-width="1.0" />
  <rect
     style="fill:#ffffff;fill-opacity:1;fill-rule:nonzero;stroke:none"
     width="2"
     height="2"
     x="288.7500"
     y="271.9486"
     transform="rotate(90.0000 289.2500 272.9486)" /> 
  <path
     style="fill:none;stroke:#3c0057;stroke-width:1px;stroke-linecap:butt;stroke-linejoin:miter;stroke-opacity:1"
     d="m 289.2500,270.9486 2,2 -2,2 m -2.370121,-4 2,2 -2,2"
     transform="rotate(90.0000 289.2500 272.9486)"/>
  <line x1="289.2500" y1="282.9487" x2="289.2500" y2="302.9480" stroke="#b41f06" stroke-width="1.0" />
  <rect
     style="fill:#ffffff;fill-opacity:1;fill-rule:nonzero;stroke:none"
     width="2"
     height="2"
     x="288.7500"
     y="291.9484"
     transform="rotate(90.0000 289.2500 292.9484)" /> 
  <path
     style="fill:none;stroke:#b41f06;stroke-width:1px;stroke-linecap:butt;stroke-linejoin:miter;stroke-opacity:1"
     d="m 289.2500,290.9484 2,2 -2,2 m -2.370121,-4 2,2 -2,2"
     transform="rotate(90.0000 289.2500 292.9484)"/>
  <line x1="289.2500" y1="302.9480" x2="289.2500" y2="322.9483" stroke="#e99400" stroke-width="1.0" />
  <rect
     style="fill:#ffffff;fill-opacity:1;fill-rule:nonzero;stroke:none"
     width="2"
     height="2"
     x="288.7500"
     y="311.9482"
     transform="rotate(90.0000 289.2500 312.9482)" /> 
  <path
     style="fill:none;stroke:#e99400;stroke-width:1px;stroke-linecap:butt;stroke-linejoin:miter;stroke-opacity:1"
     d="m 289.2500,310.9482 2,2 -2,2 m -2.370121,-4 2,2 -2,2"
     transform="rotate(90.0000 289.2500 312.9482)"/>
  <line x1="289.2500" y1="342.9477" x2="289.2500" y2="362.9479" stroke="#000000" stroke-width="1.0" />
  <rect
     style="fill:#ffffff;fill-opacity:1;fill-rule:nonzero;stroke:none"
     width="2"
     height="2"
     x="288.7500"
     y="351.9478"
     transform="rotate(90.0000 289.2500 352.9478)" /> 
  <path
     style="fill:none;stroke:#000000;stroke-width:1px;stroke-linecap:butt;stroke-linejoin:miter;stroke-opacity:1"
     d="m 289.2500,350.9478 2,2 -2,2 m -2.370121,-4 2,2 -2,2"
     transform="rotate(90.0000 289.2500 352.9478)"/>
  <line x1="289.2500" y1="362.9479" x2="289.2500" y2="382.9474" stroke="#8605fc" stroke-width="1.0" />
  <rect
     style="fill:#ffffff;fill-opacity:1;fill-rule:nonzero;stroke:none"
     width="2"
     height="2"
     x="288.7500"
     y="371.9476"
     transform="rotate(90.0000 289.2500 372.9476)" /> 
  <path
     style="fill:none;stroke:#8605fc;stroke-width:1px;stroke-linecap:butt;stroke-linejoin:miter;stroke-opacity:1"
     d="m 289.2500,370.9476 2,2 -2,2 m -2.370121,-4 2,2 -2,2"
     transform="rotate(90.0000 289.2500 372.9476)"/>
  <line x1="289.2500" y1="382.9474" x2="289.2500" y2="402.9475" stroke="#7803fb" stroke-width="1.0" />
  <rect
     style="fill:#ffffff;fill-opacity:1;fill-rule:nonzero;stroke:none"
     width="2"
     height="2"
     x="288.7500"
     y="391.9475"
     transform="rotate(90.0000 289.2500 392.9475)" /> 
  <path
     style="fill:none;stroke:#7803fb;stroke-width:1px;stroke-linecap:butt;stroke-linejoin:miter;stroke-opacity:1"
     d="m 289.2500,390.9475 2,2 -2,2 m -2.370121,-4 2,2 -2,2"
     transform="rotate(90.0000 289.2500 392.9475)"/>
  <line x1="289.2500" y1="422.9472" x2="289.2500" y2="442.9473" stroke="#7803fb" stroke-width="1.0" />
  <rect
     style="fill:#ffffff;fill-opacity:1;fill-rule:nonzero;stroke:none"
     width="2"
     height="2"
     x="288.7500"
     y="431.9473"
     transform="rotate(90.0000 289.2500 432.9473)" /> 
  <path
     style="fill:none;stroke:#7803fb;stroke-width:1px;stroke-linecap:butt;stroke-linejoin:miter;stroke-opacity:1"
     d="m 289.2500,430.9473 2,2 -2,2 m -2.370121,-4 2,2 -2,2"
     transform="rotate(90.0000 289.2500 432.9473)"/>
  <line x1="289.2500" y1="442.9473" x2="289.2500" y2="462.9472" stroke="#3c0057" stroke-width="1.0" />
  <rect
     style="fill:#ffffff;fill-opacity:1;fill-rule:nonzero;stroke:none"
     width="2"
     height="2"
     x="288.7500"
     y="451.9472"
     transform="rotate(90.0000 289.2500 452.9472)" /> 
  <path
     style="fill:none;stroke:#3c0057;stroke-width:1px;stroke-linecap:butt;stroke-linejoin:miter;stroke-opacity:1"
     d="m 289.2500,450.9472 2,2 -2,2 m -2.370121,-4 2,2 -2,2"
     transform="rotate(90.0000 289.2500 452.9472)"/>
<circle cx="256.7500" cy="462.9472" r="5.0" stroke="#595959" stroke-width="1.0" fill="#ffffff"/>
<text x="256.7500" y="465.6472" text-anchor="middle" font-family="Helvetica" font-size="7.5" fill="#000000" >A</text>
<circle cx="256.7500" cy="442.9473" r="5.0" stroke="#595959" stroke-width="1.0" fill="#ffffff"/>
<text x="256.7500" y="445.6473" text-anchor="middle" font-family="Helvetica" font-size="7.5" fill="#000000" >C</text>
<circle cx="256.7500" cy="422.9472" r="5.0" stroke="#595959" stroke-width="1.0" fill="#ffffff"/>
<text x="256.7500" y="425.6472" text-anchor="middle" font-family="Helvetica" font-size="7.5" fill="#000000" >U</text>
<circle cx="256.7500" cy="402.9475" r="5.0" stroke="#595959" stroke-width="1.0" fill="#ffffff"/>
<text x="256.7500" y="405.6475" text-anchor="middle" font-family="Helvetica" font-size="7.5" fill="#000000" >G</text>
<circle cx="256.7500" cy="382.9474" r="5.0" stroke="#595959" stroke-width="1.0" fill="#ffffff"/>
<text x="256.7500" y="385.6474" text-anchor="middle" font-family="Helvetica" font-size="7.5" fill="#000000" >G</text>
<circle cx="256.7500" cy="362.9479" r="5.0" stroke="#595959" stroke-width="1.0" fill="#ffffff"/>
<text x="256.7500" y="365.6479" text-anchor="middle" font-family="Helvetica" font-size="7.5" fill="#000000" >A</text>
<circle cx="256.7500" cy="342.9477" r="5.0" stroke="#595959" stroke-width="1.0" fill="#ffffff"/>
<text x="256.7500" y="345.6477" text-anchor="middle" font-family="Helvetica" font-size="7.5" fill="#000000" >C</text>
<circle cx="256.7500" cy="322.9483" r="5.0" stroke="#595959" stroke-width="1.0" fill="#ffffff"/>
<text x="256.7500" y="325.6483" text-anchor="middle" font-family="Helvetica" font-size="7.5" fill="#000000" >A</text>
<circle cx="256.7500" cy="302.9480" r="5.0" stroke="#595959" stroke-width="1.0" fill="#ffffff"/>
<text x="256.7500" y="305.6480" text-anchor="middle" font-family="Helvetica" font-size="7.5" fill="#000000" >G</text>
<circle cx="256.7500" cy="282.9487" r="5.0" stroke="#595959" stroke-width="1.0" fill="#ffffff"/>
<text x="256.7500" y="285.6487" text-anchor="middle" font-family="Helvetica" font-size="7.5" fill="#000000" >G</text>
<circle cx="256.7500" cy="262.9485" r="5.0" stroke="#595959" stroke-width="1.0" fill="#ffffff"/>
<text x="256.7500" y="265.6485" text-anchor="middle" font-family="Helvetica" font-size="7.5" fill="#000000" >U</text>
<circle cx="256.7500" cy="242.9491" r="5.0" stroke="#595959" stroke-width="1.0" fill="#ffffff"/>
<text x="256.7500" y="245.6491" text-anchor="middle" font-family="Helvetica" font-size="7.5" fill="#000000" >G</text>
<circle cx="256.7500" cy="222.9489" r="5.0" stroke="#595959" stroke-width="1.0" fill="#ffffff"/>
<text x="256.7500" y="225.6489" text-anchor="middle" font-family="Helvetica" font-size="7.5" fill="#000000" >C</text>
<circle cx="256.7500" cy="202.9495" r="5.0" stroke="#595959" stroke-width="1.0" fill="#ffffff"/>
<text x="256.7500" y="205.6495" text-anchor="middle" font-family="Helvetica" font-size="7.5" fill="#000000" >U</text>
<circle cx="256.7500" cy="182.9494" r="5.0" stroke="#595959" stroke-width="1.0" fill="#ffffff"/>
<text x="256.7500" y="185.6494" text-anchor="middle" font-family="Helvetica" font-size="7.5" fill="#000000" >C</text>
<circle cx="256.7500" cy="162.9498" r="5.0" stroke="#595959" stroke-width="1.0" fill="#ffffff"/>
<text x="256.7500" y="165.6498" text-anchor="middle" font-family="Helvetica" font-size="7.5" fill="#000000" >C</text>
<circle cx="256.7500" cy="142.9497" r="5.0" stroke="#595959" stroke-width="1.0" fill="#ffffff"/>
<text x="256.7500" y="145.6497" text-anchor="middle" font-family="Helvetica" font-size="7.5" fill="#000000" >G</text>
<circle cx="256.7394" cy="122.9502" r="5.0" stroke="#595959" stroke-width="1.0" fill="#ffffff"/>
<text x="256.7394" y="125.6502" text-anchor="middle" font-family="Helvetica" font-size="7.5" fill="#000000" >A</text>
<circle cx="256.7269" cy="102.9497" r="5.0" stroke="#595959" stroke-width="1.0" fill="#ffffff"/>
<text x="256.7269" y="105.6497" text-anchor="middle" font-family="Helvetica" font-size="7.5" fill="#000000" >G</text>
<circle cx="263.0187" cy="83.9781" r="5.0" stroke="#595959" stroke-width="1.0" fill="#ffffff"/>
<text x="263.0187" y="86.6781" text-anchor="middle" font-family="Helvetica" font-size="7.5" fill="#000000" >G</text>
<circle cx="282.9813" cy="83.9781" r="5.0" stroke="#595959" stroke-width="1.0" fill="#ffffff"/>
<text x="282.9813" y="86.6781" text-anchor="middle" font-family="Helvetica" font-size="7.5" fill="#000000" >C</text>
<circle cx="289.2731" cy="102.9497" r="5.0" stroke="#595959" stroke-width="1.0" fill="#ffffff"/>
<text x="289.2731" y="105.6497" text-anchor="middle" font-family="Helvetica" font-size="7.5" fill="#000000" >C</text>
<circle cx="289.2606" cy="122.9502" r="5.0" stroke="#595959" stroke-width="1.0" fill="#ffffff"/>
<text x="289.2606" y="125.6502" text-anchor="middle" font-family="Helvetica" font-size="7.5" fill="#000000" >U</text>
<circle cx="289.2500" cy="142.9497" r="5.0" stroke="#595959" stroke-width="1.0" fill="#ffffff"/>
<text x="289.2500" y="145.6497" text-anchor="middle" font-family="Helvetica" font-size="7.5" fill="#000000" >C</text>
<circle cx="289.2500" cy="162.9498" r="5.0" stroke="#595959" stroke-width="1.0" fill="#ffffff"/>
<text x="289.2500" y="165.6498" text-anchor="middle" font-family="Helvetica" font-size="7.5" fill="#000000" >G</text>
<circle cx="289.2500" cy="182.9494" r="5.0" stroke="#595959" stroke-width="1.0" fill="#ffffff"/>
<text x="289.2500" y="185.6494" text-anchor="middle" font-family="Helvetica" font-size="7.5" fill="#000000" >G</text>
<circle cx="289.2500" cy="202.9495" r="5.0" stroke="#595959" stroke-width="1.0" fill="#ffffff"/>
<text x="289.2500" y="205.6495" text-anchor="middle" font-family="Helvetica" font-size="7.5" fill="#000000" >A</text>
<circle cx="289.2500" cy="222.9489" r="5.0" stroke="#595959" stroke-width="1.0" fill="#ffffff"/>
<text x="289.2500" y="225.6489" text-anchor="middle" font-family="Helvetica" font-size="7.5" fill="#000000" >G</text>
<circle cx="289.2500" cy="242.9491" r="5.0" stroke="#595959" stroke-width="1.0" fill="#ffffff"/>
<text x="289.2500" y="245.6491" text-anchor="middle" font-family="Helvetica" font-size="7.5" fill="#000000" >U</text>
<circle cx="289.2500" cy="262.9485" r="5.0" stroke="#595959" stroke-width="1.0" fill="#ffffff"/>
<text x="289.2500" y="265.6485" text-anchor="middle" font-family="Helvetica" font-size="7.5" fill="#000000" >G</text>
<circle cx="289.2500" cy="282.9487" r="5.0" stroke="#595959" stroke-width="1.0" fill="#ffffff"/>
<text x="289.2500" y="285.6487" text-anchor="middle" font-family="Helvetica" font-size="7.5" fill="#000000" >U</text>
<circle cx="289.2500" cy="302.9480" r="5.0" stroke="#595959" stroke-width="1.0" fill="#ffffff"/>
<text x="289.2500" y="305.6480" text-anchor="middle" font-family="Helvetica" font-size="7.5" fill="#000000" >U</text>
<circle cx="289.2500" cy="322.9483" r="5.0" stroke="#595959" stroke-width="1.0" fill="#ffffff"/>
<text x="289.2500" y="325.6483" text-anchor="middle" font-family="Helvetica" font-size="7.5" fill="#000000" >U</text>
<circle cx="289.2500" cy="342.9477" r="5.0" stroke="#595959" stroke-width="1.0" fill="#ffffff"/>
<text x="289.2500" y="345.6477" text-anchor="middle" font-family="Helvetica" font-size="7.5" fill="#000000" >G</text>
<circle cx="289.2500" cy="362.9479" r="5.0" stroke="#595959" stroke-width="1.0" fill="#ffffff"/>
<text x="289.2500" y="365.6479" text-anchor="middle" font-family="Helvetica" font-size="7.5" fill="#000000" >U</text>
<circle cx="289.2500" cy="382.9474" r="5.0" stroke="#595959" stroke-width="1.0" fill="#ffffff"/>
<text x="289.2500" y="385.6474" text-anchor="middle" font-family="Helvetica" font-size="7.5" fill="#000000" >C</text>
<circle cx="289.2500" cy="402.9475" r="5.0" stroke="#595959" stroke-width="1.0" fill="#ffffff"/>
<text x="289.2500" y="405.6475" text-anchor="middle" font-family="Helvetica" font-size="7.5" fill="#000000" >C</text>
<circle cx="289.2500" cy="422.9472" r="5.0" stroke="#595959" stroke-width="1.0" fill="#ffffff"/>
<text x="289.2500" y="425.6472" text-anchor="middle" font-family="Helvetica" font-size="7.5" fill="#000000" >A</text>
<circle cx="289.2500" cy="442.9473" r="5.0" stroke="#595959" stroke-width="1.0" fill="#ffffff"/>
<text x="289.2500" y="445.6473" text-anchor="middle" font-family="Helvetica" font-size="7.5" fill="#000000" >G</text>
<circle cx="289.2500" cy="462.9472" r="5.0" stroke="#595959" stroke-width="1.0" fill="#ffffff"/>
<text x="289.2500" y="465.6472" text-anchor="middle" font-family="Helvetica" font-size="7.5" fill="#000000" >U</text>
</svg>