<?xml version="1.0" encoding="UTF-8"?>
<!DOCTYPE svg PUBLIC "-//W3C//DTD SVG 1.1//EN" 
"http://www.w3.org/Graphics/SVG/1.1/DTD/svg11.dtd">

<svg version="1.1"
   width="546px"
   height="546px"
xmlns="http://www.w3.org/2000/svg">
    <rect width="100%" height="100%" fill="white"/>

  <line x1="256.2642" y1="422.2948" x2="256.3358" y2="402.3266" stroke="#595959"
     style="stroke-width:2;stroke-miterlimit:4;stroke-dasharray:1,1;stroke-dashoffset:0" />
  <line x1="256.5424" y1="342.4800" x2="256.5960" y2="322.5488" stroke="#595959"
     style="stroke-width:2;stroke-miterlimit:4;stroke-dasharray:1,1;stroke-dashoffset:0" />
  <line x1="256.7585" y1="262.8123" x2="256.8117" y2="242.9254" stroke="#595959"
     style="stroke-width:2;stroke-miterlimit:4;stroke-dasharray:1,1;stroke-dashoffset:0" />
  <line x1="257.1119" y1="163.5730" x2="257.0279" y2="143.8001" stroke="#595959"
     style="stroke-width:2;stroke-miterlimit:4;stroke-dasharray:1,1;stroke-dashoffset:0" />
  <line x1="289.5505" y1="143.5069" x2="289.6023" y2="163.4416" stroke="#595959"
     style="stroke-width:2;stroke-miterlimit:4;stroke-dasharray:1,1;stroke-dashoffset:0" />
  <line x1="289.3116" y1="242.9667" x2="289.2590" y2="262.8577" stroke="#595959"
     style="stroke-width:2;stroke-miterlimit:4;stroke-dasharray:1,1;stroke-dashoffset:0" />
  <line x1="289.1105" y1="322.5851" x2="289.0425" y2="342.5125" stroke="#595959"
     style="stroke-width:2;stroke-miterlimit:4;stroke-dasharray:1,1;stroke-dashoffset:0" />
  <line x1="288.8358" y1="402.3538" x2="288.7641" y2="422.3217" stroke="#595959"
     style="stroke-width:2;stroke-miterlimit:4;stroke-dasharray:1,1;stroke-dashoffset:0" />
  <line x1="256.1187" y1="463.8624" x2="288.6203" y2="463.8894" stroke="#d85e00" stroke-width="1.0" />
  <circle cx="272.3695" cy="463.8759" r="2.25" stroke="#d85e00" stroke-width="1.0" fill="#d85e00"/>
  <line x1="256.5942" y1="324.1488" x2="289.1088" y2="324.1851" stroke="#f2b800" stroke-width="1.0" />
  <circle cx="272.8515" cy="324.1670" r="2.25" stroke="#f2b800" stroke-width="1.0" fill="#f2b800"/>
  <line x1="256.6596" y1="301.0263" x2="289.1596" y2="301.0670" stroke="#dd6b00" stroke-width="1.0" />
  <circle cx="272.9096" cy="301.0467" r="2.25" stroke="#dd6b00" stroke-width="1.0" fill="#dd6b00"/>
  <line x1="256.6556" y1="304.2263" x2="289.1556" y2="304.2670" stroke="#8806f9" stroke-width="1.0" />
  <circle cx="272.9056" cy="304.2467" r="2.25" stroke="#8806f9" stroke-width="1.0" fill="#8806f9"/>
  <line x1="256.7098" y1="281.1135" x2="289.2098" y2="281.1579" stroke="#d85e00" stroke-width="1.0" />
  <circle cx="272.9598" cy="281.1357" r="2.25" stroke="#d85e00" stroke-width="1.0" fill="#d85e00"/>
  <line x1="256.7055" y1="284.3135" x2="289.2054" y2="284.3579" stroke="#a81568" stroke-width="1.0" />
  <circle cx="272.9554" cy="284.3357" r="2.25" stroke="#a81568" stroke-width="1.0" fill="#a81568"/>
  <line x1="256.7607" y1="261.2123" x2="289.2612" y2="261.2577" stroke="#8d07ef" stroke-width="1.0" />
  <circle cx="273.0110" cy="261.2350" r="2.25" stroke="#8d07ef" stroke-width="1.0" fill="#8d07ef"/>
  <line x1="256.7563" y1="264.4123" x2="289.2567" y2="264.4577" stroke="#de6e00" stroke-width="1.0" />
  <circle cx="273.0065" cy="264.4350" r="2.25" stroke="#de6e00" stroke-width="1.0" fill="#de6e00"/>
  <line x1="256.8117" y1="242.9254" x2="289.3116" y2="242.9667" stroke="#480079" stroke-width="1.0" />
  <circle cx="273.0617" cy="242.9460" r="2.25" stroke="#480079" stroke-width="1.0" fill="#480079"/>
  <line x1="256.8214" y1="224.6556" x2="289.3988" y2="224.6847" stroke="#f2b800" stroke-width="1.0" />
  <circle cx="273.1101" cy="224.6702" r="2.25" stroke="#f2b800" stroke-width="1.0" fill="#f2b800"/>
  <line x1="256.8985" y1="204.8054" x2="289.5014" y2="204.8096" stroke="#efaf00" stroke-width="1.0" />
  <circle cx="273.2000" cy="204.8075" r="2.25" stroke="#efaf00" stroke-width="1.0" fill="#efaf00"/>
  <line x1="256.8181" y1="125.6268" x2="289.2457" y2="125.1184" stroke="#e89000" stroke-width="1.0" />
  <circle cx="273.0319" cy="125.3726" r="2.25" stroke="#e89000" stroke-width="1.0" fill="#e89000"/>
  <line x1="256.1200" y1="462.2624" x2="256.1925" y2="442.2733" stroke="#4e008f" stroke-width="1.0" />
  <rect
     style="fill:#ffffff;fill-opacity:1;fill-rule:nonzero;stroke:none"
     width="2"
     height="2"
     x="255.6562"
     y="451.2679"
     transform="rotate(-89.7923 256.1562 452.2679)" /> 
  <path
     style="fill:none;stroke:#4e008f;stroke-width:1px;stroke-linecap:butt;stroke-linejoin:miter;stroke-opacity:1"
     d="m 256.1562,450.2679 2,2 -2,2 m -2.370121,-4 2,2 -2,2"
     transform="rotate(-89.7923 256.1562 452.2679)"/>
  <line x1="256.1213" y1="460.6624" x2="288.6230" y2="460.6894" stroke="#af1b2c" stroke-width="1.0" />
  <line x1="256.1925" y1="442.2733" x2="256.2642" y2="422.2948" stroke="#8405fd" stroke-width="1.0" />
  <rect
     style="fill:#ffffff;fill-opacity:1;fill-rule:nonzero;stroke:none"
     width="2"
     height="2"
     x="255.7283"
     y="431.2840"
     transform="rotate(-89.7944 256.2283 432.2840)" /> 
  <path
     style="fill:none;stroke:#8405fd;stroke-width:1px;stroke-linecap:butt;stroke-linejoin:miter;stroke-opacity:1"
     d="m 256.2283,430.2840 2,2 -2,2 m -2.370121,-4 2,2 -2,2"
     transform="rotate(-89.7944 256.2283 432.2840)"/>
  <line x1="256.1914" y1="443.5233" x2="288.6914" y2="443.5502" stroke="#270026" stroke-width="1.0" />
  <line x1="256.1935" y1="441.0233" x2="288.6935" y2="441.0502" stroke="#270026" stroke-width="1.0" />
  <line x1="256.2642" y1="422.2948" x2="288.7641" y2="422.3217" stroke="#400062" stroke-width="1.0" />
  <line x1="256.3358" y1="402.3266" x2="256.4069" y2="382.3685" stroke="#cf4a00" stroke-width="1.0" />
  <rect
     style="fill:#ffffff;fill-opacity:1;fill-rule:nonzero;stroke:none"
     width="2"
     height="2"
     x="255.8714"
     y="391.3476"
     transform="rotate(-89.7958 256.3714 392.3476)" /> 
  <path
     style="fill:none;stroke:#cf4a00;stroke-width:1px;stroke-linecap:butt;stroke-linejoin:miter;stroke-opacity:1"
     d="m 256.3714,390.3476 2,2 -2,2 m -2.370121,-4 2,2 -2,2"
     transform="rotate(-89.7958 256.3714 392.3476)"/>
  <line x1="256.3348" y1="403.5766" x2="288.8347" y2="403.6038" stroke="#000000" stroke-width="1.0" />
  <line x1="256.3368" y1="401.0766" x2="288.8368" y2="401.1038" stroke="#000000" stroke-width="1.0" />
  <line x1="256.3358" y1="402.3266" x2="288.7641" y2="422.3217" stroke="#000000" stroke-width="1.0" />
  <rect
     style="fill:#ffffff;stroke:none"
     width="5.5"
     height="2"
     x="269.8000"
     y="411.3242" 
     transform="rotate(31.6577 272.5500 412.3242)"    /> 
  <path
     style="fill:none;stroke:#000000;stroke-width:1px;stroke-linecap:butt;stroke-linejoin:miter;stroke-opacity:1"
    d="m 273.3000,410.3242 2,2 -2,2 m -1.5,-4 -2,2 2,2" transform="rotate(31.6577 272.5500 412.3242)"/>
  <line x1="256.4069" y1="382.3685" x2="256.4764" y2="362.4198" stroke="#ab1751" stroke-width="1.0" />
  <rect
     style="fill:#ffffff;fill-opacity:1;fill-rule:nonzero;stroke:none"
     width="2"
     height="2"
     x="255.9417"
     y="371.3941"
     transform="rotate(-89.8005 256.4417 372.3941)" /> 
  <path
     style="fill:none;stroke:#ab1751;stroke-width:1px;stroke-linecap:butt;stroke-linejoin:miter;stroke-opacity:1"
     d="m 256.4417,370.3941 2,2 -2,2 m -2.370121,-4 2,2 -2,2"
     transform="rotate(-89.8005 256.4417 372.3941)"/>
  <line x1="256.4058" y1="383.6185" x2="288.9058" y2="383.6465" stroke="#37004b" stroke-width="1.0" />
  <line x1="256.4080" y1="381.1185" x2="288.9080" y2="381.1465" stroke="#37004b" stroke-width="1.0" />
  <line x1="256.4764" y1="362.4198" x2="256.5424" y2="342.4800" stroke="#000000" stroke-width="1.0" />
  <rect
     style="fill:#ffffff;fill-opacity:1;fill-rule:nonzero;stroke:none"
     width="2"
     height="2"
     x="256.0094"
     y="351.4499"
     transform="rotate(-89.8102 256.5094 352.4499)" /> 
  <path
     style="fill:none;stroke:#000000;stroke-width:1px;stroke-linecap:butt;stroke-linejoin:miter;stroke-opacity:1"
     d="m 256.5094,350.4499 2,2 -2,2 m -2.370121,-4 2,2 -2,2"
     transform="rotate(-89.8102 256.5094 352.4499)"/>
  <line x1="256.4764" y1="362.4198" x2="288.9764" y2="362.4495" stroke="#400062" stroke-width="1.0" />
  <line x1="256.5412" y1="343.7300" x2="289.0412" y2="343.7625" stroke="#33003e" stroke-width="1.0" />
  <line x1="256.5437" y1="341.2300" x2="289.0437" y2="341.2625" stroke="#33003e" stroke-width="1.0" />
  <line x1="256.5960" y1="322.5488" x2="256.6576" y2="302.6263" stroke="#b62200" stroke-width="1.0" />
  <rect
     style="fill:#ffffff;fill-opacity:1;fill-rule:nonzero;stroke:none"
     width="2"
     height="2"
     x="256.1268"
     y="311.5876"
     transform="rotate(-89.8229 256.6268 312.5876)" /> 
  <path
     style="fill:none;stroke:#b62200;stroke-width:1px;stroke-linecap:butt;stroke-linejoin:miter;stroke-opacity:1"
     d="m 256.6268,310.5876 2,2 -2,2 m -2.370121,-4 2,2 -2,2"
     transform="rotate(-89.8229 256.6268 312.5876)"/>
  <line x1="256.5978" y1="320.9488" x2="289.1123" y2="320.9851" stroke="#520099" stroke-width="1.0" />
  <line x1="256.5960" y1="322.5488" x2="289.0425" y2="342.5125" stroke="#37004b" stroke-width="1.0" />
  <rect
     style="fill:#ffffff;stroke:none"
     width="5.5"
     height="2"
     x="270.0692"
     y="331.5307" 
     transform="rotate(31.6032 272.8192 332.5307)"    /> 
  <path
     style="fill:none;stroke:#37004b;stroke-width:1px;stroke-linecap:butt;stroke-linejoin:miter;stroke-opacity:1"
    d="m 273.5692,330.5307 2,2 -2,2 m -1.5,-4 -2,2 2,2" transform="rotate(31.6032 272.8192 332.5307)"/>
  <line x1="256.6576" y1="302.6263" x2="256.7076" y2="282.7135" stroke="#c73900" stroke-width="1.0" />
  <rect
     style="fill:#ffffff;fill-opacity:1;fill-rule:nonzero;stroke:none"
     width="2"
     height="2"
     x="256.1826"
     y="291.6699"
     transform="rotate(-89.8559 256.6826 292.6699)" /> 
  <path
     style="fill:none;stroke:#c73900;stroke-width:1px;stroke-linecap:butt;stroke-linejoin:miter;stroke-opacity:1"
     d="m 256.6826,290.6699 2,2 -2,2 m -2.370121,-4 2,2 -2,2"
     transform="rotate(-89.8559 256.6826 292.6699)"/>
  <line x1="256.7076" y1="282.7135" x2="256.7585" y2="262.8123" stroke="#270026" stroke-width="1.0" />
  <rect
     style="fill:#ffffff;fill-opacity:1;fill-rule:nonzero;stroke:none"
     width="2"
     height="2"
     x="256.2331"
     y="271.7629"
     transform="rotate(-89.8536 256.7331 272.7629)" /> 
  <path
     style="fill:none;stroke:#270026;stroke-width:1px;stroke-linecap:butt;stroke-linejoin:miter;stroke-opacity:1"
     d="m 256.7331,270.7629 2,2 -2,2 m -2.370121,-4 2,2 -2,2"
     transform="rotate(-89.8536 256.7331 272.7629)"/>
  <line x1="256.8117" y1="242.9254" x2="256.8228" y2="223.0556" stroke="#000000" stroke-width="1.0" />
  <rect
     style="fill:#ffffff;fill-opacity:1;fill-rule:nonzero;stroke:none"
     width="2"
     height="2"
     x="256.3173"
     y="231.9905"
     transform="rotate(-89.9680 256.8173 232.9905)" /> 
  <path
     style="fill:none;stroke:#000000;stroke-width:1px;stroke-linecap:butt;stroke-linejoin:miter;stroke-opacity:1"
     d="m 256.8173,230.9905 2,2 -2,2 m -2.370121,-4 2,2 -2,2"
     transform="rotate(-89.9680 256.8173 232.9905)"/>
  <line x1="256.8117" y1="242.9254" x2="289.2590" y2="262.8577" stroke="#5800ac" stroke-width="1.0" />
  <rect
     style="fill:#ffffff;stroke:none"
     width="5.5"
     height="2"
     x="270.2854"
     y="251.8916" 
     transform="rotate(31.5624 273.0354 252.8916)"    /> 
  <path
     style="fill:none;stroke:#5800ac;stroke-width:1px;stroke-linecap:butt;stroke-linejoin:miter;stroke-opacity:1"
    d="m 273.7854,250.8916 2,2 -2,2 m -1.5,-4 -2,2 2,2" transform="rotate(31.5624 273.0354 252.8916)"/>
  <line x1="256.8228" y1="223.0556" x2="256.8987" y2="203.2054" stroke="#4e008f" stroke-width="1.0" />
  <rect
     style="fill:#ffffff;fill-opacity:1;fill-rule:nonzero;stroke:none"
     width="2"
     height="2"
     x="256.3608"
     y="212.1305"
     transform="rotate(-89.7809 256.8608 213.1305)" /> 
  <path
     style="fill:none;stroke:#4e008f;stroke-width:1px;stroke-linecap:butt;stroke-linejoin:miter;stroke-opacity:1"
     d="m 256.8608,211.1305 2,2 -2,2 m -2.370121,-4 2,2 -2,2"
     transform="rotate(-89.7809 256.8608 213.1305)"/>
  <line x1="256.8232" y1="222.7056" x2="289.4006" y2="222.7347" stroke="#520099" stroke-width="1.0" />
  <line x1="256.8254" y1="220.2056" x2="289.4028" y2="220.2347" stroke="#520099" stroke-width="1.0" />
  <line x1="256.8987" y1="203.2054" x2="257.0239" y2="183.3772" stroke="#6301ce" stroke-width="1.0" />
  <rect
     style="fill:#ffffff;fill-opacity:1;fill-rule:nonzero;stroke:none"
     width="2"
     height="2"
     x="256.4613"
     y="192.2913"
     transform="rotate(-89.6383 256.9613 193.2913)" /> 
  <path
     style="fill:none;stroke:#6301ce;stroke-width:1px;stroke-linecap:butt;stroke-linejoin:miter;stroke-opacity:1"
     d="m 256.9613,191.2913 2,2 -2,2 m -2.370121,-4 2,2 -2,2"
     transform="rotate(-89.6383 256.9613 193.2913)"/>
  <line x1="256.8989" y1="201.6054" x2="289.5018" y2="201.6096" stroke="#5800ac" stroke-width="1.0" />
  <line x1="257.0239" y1="183.3772" x2="257.1119" y2="163.5730" stroke="#8405fd" stroke-width="1.0" />
  <rect
     style="fill:#ffffff;fill-opacity:1;fill-rule:nonzero;stroke:none"
     width="2"
     height="2"
     x="256.5679"
     y="172.4751"
     transform="rotate(-89.7455 257.0679 173.4751)" /> 
  <path
     style="fill:none;stroke:#8405fd;stroke-width:1px;stroke-linecap:butt;stroke-linejoin:miter;stroke-opacity:1"
     d="m 257.0679,171.4751 2,2 -2,2 m -2.370121,-4 2,2 -2,2"
     transform="rotate(-89.7455 257.0679 173.4751)"/>
  <line x1="257.0256" y1="184.6272" x2="289.5191" y2="184.5836" stroke="#480079" stroke-width="1.0" />
  <line x1="257.0222" y1="182.1272" x2="289.5157" y2="182.0836" stroke="#480079" stroke-width="1.0" />
  <line x1="257.1170" y1="164.8230" x2="289.6074" y2="164.6916" stroke="#270026" stroke-width="1.0" />
  <line x1="257.1068" y1="162.3230" x2="289.5973" y2="162.1916" stroke="#270026" stroke-width="1.0" />
  <line x1="257.1119" y1="163.5730" x2="289.5174" y2="183.3336" stroke="#eda600" stroke-width="1.0" />
  <rect
     style="fill:#ffffff;stroke:none"
     width="5.5"
     height="2"
     x="270.5647"
     y="172.4533" 
     transform="rotate(31.3745 273.3147 173.4533)"    /> 
  <path
     style="fill:none;stroke:#eda600;stroke-width:1px;stroke-linecap:butt;stroke-linejoin:miter;stroke-opacity:1"
    d="m 274.0647,171.4533 2,2 -2,2 m -1.5,-4 -2,2 2,2" transform="rotate(31.3745 273.3147 173.4533)"/>
  <line x1="257.0279" y1="143.8001" x2="256.7931" y2="124.0270" stroke="#8d07ef" stroke-width="1.0" />
  <rect
     style="fill:#ffffff;fill-opacity:1;fill-rule:nonzero;stroke:none"
     width="2"
     height="2"
     x="256.4105"
     y="132.9135"
     transform="rotate(269.3195 256.9105 133.9135)" /> 
  <path
     style="fill:none;stroke:#8d07ef;stroke-width:1px;stroke-linecap:butt;stroke-linejoin:miter;stroke-opacity:1"
     d="m 256.9105,131.9135 2,2 -2,2 m -2.370121,-4 2,2 -2,2"
     transform="rotate(269.3195 256.9105 133.9135)"/>
  <line x1="257.0392" y1="145.0501" x2="289.5617" y2="144.7569" stroke="#17000d" stroke-width="1.0" />
  <line x1="257.0166" y1="142.5502" x2="289.5392" y2="142.2570" stroke="#17000d" stroke-width="1.0" />
  <line x1="257.0279" y1="143.8001" x2="289.6023" y2="163.4416" stroke="#000000" stroke-width="1.0" />
  <rect
     style="fill:#ffffff;stroke:none"
     width="5.5"
     height="2"
     x="270.5651"
     y="152.6209" 
     transform="rotate(31.0889 273.3151 153.6209)"    /> 
  <path
     style="fill:none;stroke:#000000;stroke-width:1px;stroke-linecap:butt;stroke-linejoin:miter;stroke-opacity:1"
    d="m 274.0651,151.6209 2,2 -2,2 m -1.5,-4 -2,2 2,2" transform="rotate(31.0889 273.3151 153.6209)"/>
  <line x1="256.7931" y1="124.0270" x2="256.3197" y2="104.2119" stroke="#a81568" stroke-width="1.0" />
  <rect
     style="fill:#ffffff;fill-opacity:1;fill-rule:nonzero;stroke:none"
     width="2"
     height="2"
     x="256.0564"
     y="113.1194"
     transform="rotate(268.6316 256.5564 114.1194)" /> 
  <path
     style="fill:none;stroke:#a81568;stroke-width:1px;stroke-linecap:butt;stroke-linejoin:miter;stroke-opacity:1"
     d="m 256.5564,112.1194 2,2 -2,2 m -2.370121,-4 2,2 -2,2"
     transform="rotate(268.6316 256.5564 114.1194)"/>
  <line x1="256.7680" y1="122.4272" x2="289.1955" y2="121.9188" stroke="#7102f1" stroke-width="1.0" />
  <line x1="256.3197" y1="104.2119" x2="265.5768" y2="86.6608" stroke="#cc4200" stroke-width="1.0" />
  <rect
     style="fill:#ffffff;fill-opacity:1;fill-rule:nonzero;stroke:none"
     width="2"
     height="2"
     x="260.4483"
     y="94.4364"
     transform="rotate(-62.1911 260.9483 95.4364)" /> 
  <path
     style="fill:none;stroke:#cc4200;stroke-width:1px;stroke-linecap:butt;stroke-linejoin:miter;stroke-opacity:1"
     d="m 260.9483,93.4364 2,2 -2,2 m -2.370121,-4 2,2 -2,2"
     transform="rotate(-62.1911 260.9483 95.4364)"/>
  <line x1="256.3470" y1="105.4616" x2="288.7358" y2="104.7558" stroke="#33003e" stroke-width="1.0" />
  <line x1="256.2925" y1="102.9622" x2="288.6813" y2="102.2564" stroke="#33003e" stroke-width="1.0" />
  <line x1="265.7464" y1="87.8993" x2="285.3375" y2="85.2165" stroke="#480079" stroke-width="1.0" />
  <line x1="265.4072" y1="85.4224" x2="284.9983" y2="82.7396" stroke="#480079" stroke-width="1.0" />
  <line x1="265.5768" y1="86.6608" x2="288.7086" y2="103.5061" stroke="#e68800" stroke-width="1.0" />
  <rect
     style="fill:#ffffff;stroke:none"
     width="5.5"
     height="2"
     x="274.3927"
     y="94.0835" 
     transform="rotate(36.0633 277.1427 95.0835)"    /> 
  <path
     style="fill:none;stroke:#e68800;stroke-width:1px;stroke-linecap:butt;stroke-linejoin:miter;stroke-opacity:1"
    d="m 277.8927,93.0835 2,2 -2,2 m -1.5,-4 -2,2 2,2" transform="rotate(36.0633 277.1427 95.0835)"/>
  <line x1="285.1679" y1="83.9780" x2="288.7086" y2="103.5061" stroke="#940ad9" stroke-width="1.0" />
  <rect
     style="fill:#ffffff;fill-opacity:1;fill-rule:nonzero;stroke:none"
     width="2"
     height="2"
     x="286.4382"
     y="92.7421"
     transform="rotate(79.7233 286.9382 93.7421)" /> 
  <path
     style="fill:none;stroke:#940ad9;stroke-width:1px;stroke-linecap:butt;stroke-linejoin:miter;stroke-opacity:1"
     d="m 286.9382,91.7421 2,2 -2,2 m -2.370121,-4 2,2 -2,2"
     transform="rotate(79.7233 286.9382 93.7421)"/>
  <line x1="288.7086" y1="103.5061" x2="289.2206" y2="123.5186" stroke="#6a01e2" stroke-width="1.0" />
  <rect
     style="fill:#ffffff;fill-opacity:1;fill-rule:nonzero;stroke:none"
     width="2"
     height="2"
     x="288.4646"
     y="112.5124"
     transform="rotate(88.5344 288.9646 113.5124)" /> 
  <path
     style="fill:none;stroke:#6a01e2;stroke-width:1px;stroke-linecap:butt;stroke-linejoin:miter;stroke-opacity:1"
     d="m 288.9646,111.5124 2,2 -2,2 m -2.370121,-4 2,2 -2,2"
     transform="rotate(88.5344 288.9646 113.5124)"/>
  <line x1="289.2206" y1="123.5186" x2="289.5505" y2="143.5069" stroke="#8806f9" stroke-width="1.0" />
  <rect
     style="fill:#ffffff;fill-opacity:1;fill-rule:nonzero;stroke:none"
     width="2"
     height="2"
     x="288.8855"
     y="132.5128"
     transform="rotate(89.0546 289.3855 133.5128)" /> 
  <path
     style="fill:none;stroke:#8806f9;stroke-width:1px;stroke-linecap:butt;stroke-linejoin:miter;stroke-opacity:1"
     d="m 289.3855,131.5128 2,2 -2,2 m -2.370121,-4 2,2 -2,2"
     transform="rotate(89.0546 289.3855 133.5128)"/>
  <line x1="289.6023" y1="163.4416" x2="289.5174" y2="183.3336" stroke="#cf4a00" stroke-width="1.0" />
  <rect
     style="fill:#ffffff;fill-opacity:1;fill-rule:nonzero;stroke:none"
     width="2"
     height="2"
     x="289.0599"
     y="172.3876"
     transform="rotate(90.2446 289.5599 173.3876)" /> 
  <path
     style="fill:none;stroke:#cf4a00;stroke-width:1px;stroke-linecap:butt;stroke-linejoin:miter;stroke-opacity:1"
     d="m 289.5599,171.3876 2,2 -2,2 m -2.370121,-4 2,2 -2,2"
     transform="rotate(90.2446 289.5599 173.3876)"/>
  <line x1="289.5174" y1="183.3336" x2="289.5016" y2="203.2096" stroke="#a21194" stroke-width="1.0" />
  <rect
     style="fill:#ffffff;fill-opacity:1;fill-rule:nonzero;stroke:none"
     width="2"
     height="2"
     x="289.0095"
     y="192.2716"
     transform="rotate(90.0455 289.5095 193.2716)" /> 
  <path
     style="fill:none;stroke:#a21194;stroke-width:1px;stroke-linecap:butt;stroke-linejoin:miter;stroke-opacity:1"
     d="m 289.5095,191.2716 2,2 -2,2 m -2.370121,-4 2,2 -2,2"
     transform="rotate(90.0455 289.5095 193.2716)"/>
  <line x1="289.5016" y1="203.2096" x2="289.4003" y2="223.0847" stroke="#9109e5" stroke-width="1.0" />
  <rect
     style="fill:#ffffff;fill-opacity:1;fill-rule:nonzero;stroke:none"
     width="2"
     height="2"
     x="288.9510"
     y="212.1471"
     transform="rotate(90.2922 289.4510 213.1471)" /> 
  <path
     style="fill:none;stroke:#9109e5;stroke-width:1px;stroke-linecap:butt;stroke-linejoin:miter;stroke-opacity:1"
     d="m 289.4510,211.1471 2,2 -2,2 m -2.370121,-4 2,2 -2,2"
     transform="rotate(90.2922 289.4510 213.1471)"/>
  <line x1="289.4003" y1="223.0847" x2="289.3116" y2="242.9667" stroke="#270026" stroke-width="1.0" />
  <rect
     style="fill:#ffffff;fill-opacity:1;fill-rule:nonzero;stroke:none"
     width="2"
     height="2"
     x="288.8559"
     y="232.0257"
     transform="rotate(90.2554 289.3559 233.0257)" /> 
  <path
     style="fill:none;stroke:#270026;stroke-width:1px;stroke-linecap:butt;stroke-linejoin:miter;stroke-opacity:1"
     d="m 289.3559,231.0257 2,2 -2,2 m -2.370121,-4 2,2 -2,2"
     transform="rotate(90.2554 289.3559 233.0257)"/>
  <line x1="289.2590" y1="262.8577" x2="289.2076" y2="282.7579" stroke="#4e008f" stroke-width="1.0" />
  <rect
     style="fill:#ffffff;fill-opacity:1;fill-rule:nonzero;stroke:none"
     width="2"
     height="2"
     x="288.7333"
     y="271.8078"
     transform="rotate(90.1478 289.2333 272.8078)" /> 
  <path
     style="fill:none;stroke:#4e008f;stroke-width:1px;stroke-linecap:butt;stroke-linejoin:miter;stroke-opacity:1"
     d="m 289.2333,270.8078 2,2 -2,2 m -2.370121,-4 2,2 -2,2"
     transform="rotate(90.1478 289.2333 272.8078)"/>
  <line x1="289.2076" y1="282.7579" x2="289.1576" y2="302.6670" stroke="#8405fd" stroke-width="1.0" />
  <rect
     style="fill:#ffffff;fill-opacity:1;fill-rule:nonzero;stroke:none"
     width="2"
     height="2"
     x="288.6826"
     y="291.7124"
     transform="rotate(90.1438 289.1826 292.7124)" /> 
  <path
     style="fill:none;stroke:#8405fd;stroke-width:1px;stroke-linecap:butt;stroke-linejoin:miter;stroke-opacity:1"
     d="m 289.1826,290.7124 2,2 -2,2 m -2.370121,-4 2,2 -2,2"
     transform="rotate(90.1438 289.1826 292.7124)"/>
  <line x1="289.1576" y1="302.6670" x2="289.1105" y2="322.5851" stroke="#bd2b00" stroke-width="1.0" />
  <rect
     style="fill:#ffffff;fill-opacity:1;fill-rule:nonzero;stroke:none"
     width="2"
     height="2"
     x="288.6341"
     y="311.6261"
     transform="rotate(90.1355 289.1341 312.6261)" /> 
  <path
     style="fill:none;stroke:#bd2b00;stroke-width:1px;stroke-linecap:butt;stroke-linejoin:miter;stroke-opacity:1"
     d="m 289.1341,310.6261 2,2 -2,2 m -2.370121,-4 2,2 -2,2"
     transform="rotate(90.1355 289.1341 312.6261)"/>
  <line x1="289.0425" y1="342.5125" x2="288.9764" y2="362.4495" stroke="#000000" stroke-width="1.0" />
  <rect
     style="fill:#ffffff;fill-opacity:1;fill-rule:nonzero;stroke:none"
     width="2"
     height="2"
     x="288.5094"
     y="351.4810"
     transform="rotate(90.1901 289.0094 352.4810)" /> 
  <path
     style="fill:none;stroke:#000000;stroke-width:1px;stroke-linecap:butt;stroke-linejoin:miter;stroke-opacity:1"
     d="m 289.0094,350.4810 2,2 -2,2 m -2.370121,-4 2,2 -2,2"
     transform="rotate(90.1901 289.0094 352.4810)"/>
  <line x1="288.9764" y1="362.4495" x2="288.9069" y2="382.3965" stroke="#7e04ff" stroke-width="1.0" />
  <rect
     style="fill:#ffffff;fill-opacity:1;fill-rule:nonzero;stroke:none"
     width="2"
     height="2"
     x="288.4416"
     y="371.4230"
     transform="rotate(90.1995 288.9416 372.4230)" /> 
  <path
     style="fill:none;stroke:#7e04ff;stroke-width:1px;stroke-linecap:butt;stroke-linejoin:miter;stroke-opacity:1"
     d="m 288.9416,370.4230 2,2 -2,2 m -2.370121,-4 2,2 -2,2"
     transform="rotate(90.1995 288.9416 372.4230)"/>
  <line x1="288.9069" y1="382.3965" x2="288.8358" y2="402.3538" stroke="#7a03fd" stroke-width="1.0" />
  <rect
     style="fill:#ffffff;fill-opacity:1;fill-rule:nonzero;stroke:none"
     width="2"
     height="2"
     x="288.3713"
     y="391.3752"
     transform="rotate(90.2042 288.8713 392.3752)" /> 
  <path
     style="fill:none;stroke:#7a03fd;stroke-width:1px;stroke-linecap:butt;stroke-linejoin:miter;stroke-opacity:1"
     d="m 288.8713,390.3752 2,2 -2,2 m -2.370121,-4 2,2 -2,2"
     transform="rotate(90.2042 288.8713 392.3752)"/>
  <line x1="288.7641" y1="422.3217" x2="288.6925" y2="442.3002" stroke="#8b07f3" stroke-width="1.0" />
  <rect
     style="fill:#ffffff;fill-opacity:1;fill-rule:nonzero;stroke:none"
     width="2"
     height="2"
     x="288.2283"
     y="431.3110"
     transform="rotate(90.2056 288.7283 432.3110)" /> 
  <path
     style="fill:none;stroke:#8b07f3;stroke-width:1px;stroke-linecap:butt;stroke-linejoin:miter;stroke-opacity:1"
     d="m 288.7283,430.3110 2,2 -2,2 m -2.370121,-4 2,2 -2,2"
     transform="rotate(90.2056 288.7283 432.3110)"/>
  <line x1="288.6925" y1="442.3002" x2="288.6217" y2="462.2894" stroke="#37004b" stroke-width="1.0" />
  <rect
     style="fill:#ffffff;fill-opacity:1;fill-rule:nonzero;stroke:none"
     width="2"
     height="2"
     x="288.1571"
     y="451.2948"
     transform="rotate(90.2029 288.6571 452.2948)" /> 
  <path
     style="fill:none;stroke:#37004b;stroke-width:1px;stroke-linecap:butt;stroke-linejoin:miter;stroke-opacity:1"
     d="m 288.6571,450.2948 2,2 -2,2 m -2.370121,-4 2,2 -2,2"
     transform="rotate(90.2029 288.6571 452.2948)"/>
<circle cx="256.1200" cy="462.2624" r="5.0" stroke="#595959" stroke-width="1.0" fill="#ffffff"/>
<text x="256.1200" y="464.9624" text-anchor="middle" font-family="Helvetica" font-size="7.5" fill="#000000" >A</text>
<circle cx="256.1925" cy="442.2733" r="5.0" stroke="#595959" stroke-width="1.0" fill="#ffffff"/>
<text x="256.1925" y="444.9733" text-anchor="middle" font-family="Helvetica" font-size="7.5" fill="#000000" >C</text>
<circle cx="256.2642" cy="422.2948" r="5.0" stroke="#595959" stroke-width="1.0" fill="#ffffff"/>
<text x="256.2642" y="424.9948" text-anchor="middle" font-family="Helvetica" font-size="7.5" fill="#000000" >U</text>
<circle cx="256.3358" cy="402.3266" r="5.0" stroke="#595959" stroke-width="1.0" fill="#ffffff"/>
<text x="256.3358" y="405.0266" text-anchor="middle" font-family="Helvetica" font-size="7.5" fill="#000000" >G</text>
<circle cx="256.4069" cy="382.3685" r="5.0" stroke="#595959" stroke-width="1.0" fill="#ffffff"/>
<text x="256.4069" y="385.0685" text-anchor="middle" font-family="Helvetica" font-size="7.5" fill="#000000" >G</text>
<circle cx="256.4764" cy="362.4198" r="5.0" stroke="#595959" stroke-width="1.0" fill="#ffffff"/>
<text x="256.4764" y="365.1198" text-anchor="middle" font-family="Helvetica" font-size="7.5" fill="#000000" >A</text>
<circle cx="256.5424" cy="342.4800" r="5.0" stroke="#595959" stroke-width="1.0" fill="#ffffff"/>
<text x="256.5424" y="345.1800" text-anchor="middle" font-family="Helvetica" font-size="7.5" fill="#000000" >C</text>
<circle cx="256.5960" cy="322.5488" r="5.0" stroke="#595959" stroke-width="1.0" fill="#ffffff"/>
<text x="256.5960" y="325.2488" text-anchor="middle" font-family="Helvetica" font-size="7.5" fill="#000000" >A</text>
<circle cx="256.6576" cy="302.6263" r="5.0" stroke="#595959" stroke-width="1.0" fill="#ffffff"/>
<text x="256.6576" y="305.3263" text-anchor="middle" font-family="Helvetica" font-size="7.5" fill="#000000" >I</text>
<circle cx="256.7076" cy="282.7135" r="5.0" stroke="#595959" stroke-width="1.0" fill="#ffffff"/>
<text x="256.7076" y="285.4135" text-anchor="middle" font-family="Helvetica" font-size="7.5" fill="#000000" >I</text>
<circle cx="256.7585" cy="262.8123" r="5.0" stroke="#595959" stroke-width="1.0" fill="#ffffff"/>
<text x="256.7585" y="265.5123" text-anchor="middle" font-family="Helvetica" font-size="7.5" fill="#000000" >U</text>
<circle cx="256.8117" cy="242.9254" r="5.0" stroke="#595959" stroke-width="1.0" fill="orange"/>
<text x="256.8117" y="245.6254" text-anchor="middle" font-family="Helvetica" font-size="7.5" fill="#000000" >I</text>
<circle cx="256.8228" cy="223.0556" r="5.0" stroke="#595959" stroke-width="1.0" fill="#ffffff"/>
<text x="256.8228" y="225.7556" text-anchor="middle" font-family="Helvetica" font-size="7.5" fill="#000000" >C</text>
<circle cx="256.8987" cy="203.2054" r="5.0" stroke="#595959" stroke-width="1.0" fill="#ffffff"/>
<text x="256.8987" y="205.9054" text-anchor="middle" font-family="Helvetica" font-size="7.5" fill="#000000" >U</text>
<circle cx="257.0239" cy="183.3772" r="5.0" stroke="#595959" stroke-width="1.0" fill="#ffffff"/>
<text x="257.0239" y="186.0772" text-anchor="middle" font-family="Helvetica" font-size="7.5" fill="#000000" >C</text>
<circle cx="257.1119" cy="163.5730" r="5.0" stroke="#595959" stroke-width="1.0" fill="#ffffff"/>
<text x="257.1119" y="166.2730" text-anchor="middle" font-family="Helvetica" font-size="7.5" fill="#000000" >C</text>
<circle cx="257.0279" cy="143.8001" r="5.0" stroke="#595959" stroke-width="1.0" fill="#ffffff"/>
<text x="257.0279" y="146.5001" text-anchor="middle" font-family="Helvetica" font-size="7.5" fill="#000000" >G</text>
<circle cx="256.7931" cy="124.0270" r="5.0" stroke="#595959" stroke-width="1.0" fill="#ffffff"/>
<text x="256.7931" y="126.7270" text-anchor="middle" font-family="Helvetica" font-size="7.5" fill="#000000" >A</text>
<circle cx="256.3197" cy="104.2119" r="5.0" stroke="#595959" stroke-width="1.0" fill="#ffffff"/>
<text x="256.3197" y="106.9119" text-anchor="middle" font-family="Helvetica" font-size="7.5" fill="#000000" >G</text>
<circle cx="265.5768" cy="86.6608" r="5.0" stroke="#595959" stroke-width="1.0" fill="#ffffff"/>
<text x="265.5768" y="89.3608" text-anchor="middle" font-family="Helvetica" font-size="7.5" fill="#000000" >G</text>
<circle cx="285.1679" cy="83.9780" r="5.0" stroke="#595959" stroke-width="1.0" fill="#ffffff"/>
<text x="285.1679" y="86.6780" text-anchor="middle" font-family="Helvetica" font-size="7.5" fill="#000000" >C</text>
<circle cx="288.7086" cy="103.5061" r="5.0" stroke="#595959" stroke-width="1.0" fill="#ffffff"/>
<text x="288.7086" y="106.2061" text-anchor="middle" font-family="Helvetica" font-size="7.5" fill="#000000" >C</text>
<circle cx="289.2206" cy="123.5186" r="5.0" stroke="#595959" stroke-width="1.0" fill="#ffffff"/>
<text x="289.2206" y="126.2186" text-anchor="middle" font-family="Helvetica" font-size="7.5" fill="#000000" >U</text>
<circle cx="289.5505" cy="143.5069" r="5.0" stroke="#595959" stroke-width="1.0" fill="#ffffff"/>
<text x="289.5505" y="146.2069" text-anchor="middle" font-family="Helvetica" font-size="7.5" fill="#000000" >C</text>
<circle cx="289.6023" cy="163.4416" r="5.0" stroke="#595959" stroke-width="1.0" fill="#ffffff"/>
<text x="289.6023" y="166.1416" text-anchor="middle" font-family="Helvetica" font-size="7.5" fill="#000000" >G</text>
<circle cx="289.5174" cy="183.3336" r="5.0" stroke="#595959" stroke-width="1.0" fill="#ffffff"/>
<text x="289.5174" y="186.0336" text-anchor="middle" font-family="Helvetica" font-size="7.5" fill="#000000" >G</text>
<circle cx="289.5016" cy="203.2096" r="5.0" stroke="#595959" stroke-width="1.0" fill="#ffffff"/>
<text x="289.5016" y="205.9096" text-anchor="middle" font-family="Helvetica" font-size="7.5" fill="#000000" >A</text>
<circle cx="289.4003" cy="223.0847" r="5.0" stroke="#595959" stroke-width="1.0" fill="#ffffff"/>
<text x="289.4003" y="225.7847" text-anchor="middle" font-family="Helvetica" font-size="7.5" fill="#000000" >G</text>
<circle cx="289.3116" cy="242.9667" r="5.0" stroke="#595959" stroke-width="1.0" fill="#ffffff"/>
<text x="289.3116" y="245.6667" text-anchor="middle" font-family="Helvetica" font-size="7.5" fill="#000000" >U</text>
<circle cx="289.2590" cy="262.8577" r="5.0" stroke="#595959" stroke-width="1.0" fill="#ffffff"/>
<text x="289.2590" y="265.5577" text-anchor="middle" font-family="Helvetica" font-size="7.5" fill="#000000" >I</text>
<circle cx="289.2076" cy="282.7579" r="5.0" stroke="#595959" stroke-width="1.0" fill="#ffffff"/>
<text x="289.2076" y="285.4579" text-anchor="middle" font-family="Helvetica" font-size="7.5" fill="#000000" >U</text>
<circle cx="289.1576" cy="302.6670" r="5.0" stroke="#595959" stroke-width="1.0" fill="#ffffff"/>
<text x="289.1576" y="305.3670" text-anchor="middle" font-family="Helvetica" font-size="7.5" fill="#000000" >U</text>
<circle cx="289.1105" cy="322.5851" r="5.0" stroke="#595959" stroke-width="1.0" fill="#ffffff"/>
<text x="289.1105" y="325.2851" text-anchor="middle" font-family="Helvetica" font-size="7.5" fill="#000000" >U</text>
<circle cx="289.0425" cy="342.5125" r="5.0" stroke="#595959" stroke-width="1.0" fill="#ffffff"/>
<text x="289.0425" y="345.2125" text-anchor="middle" font-family="Helvetica" font-size="7.5" fill="#000000" >G</text>
<circle cx="288.9764" cy="362.4495" r="5.0" stroke="#595959" stroke-width="1.0" fill="#ffffff"/>
<text x="288.9764" y="365.1495" text-anchor="middle" font-family="Helvetica" font-size="7.5" fill="#000000" >U</text>
<circle cx="288.9069" cy="382.3965" r="5.0" stroke="#595959" stroke-width="1.0" fill="#ffffff"/>
<text x="288.9069" y="385.0965" text-anchor="middle" font-family="Helvetica" font-size="7.5" fill="#000000" >C</text>
<circle cx="288.8358" cy="402.3538" r="5.0" stroke="#595959" stroke-width="1.0" fill="#ffffff"/>
<text x="288.8358" y="405.0538" text-anchor="middle" font-family="Helvetica" font-size="7.5" fill="#000000" >C</text>
<circle cx="288.7641" cy="422.3217" r="5.0" stroke="#595959" stroke-width="1.0" fill="#ffffff"/>
<text x="288.7641" y="425.0217" text-anchor="middle" font-family="Helvetica" font-size="7.5" fill="#000000" >A</text>
<circle cx="288.6925" cy="442.3002" r="5.0" stroke="#595959" stroke-width="1.0" fill="#ffffff"/>
<text x="288.6925" y="445.0002" text-anchor="middle" font-family="Helvetica" font-size="7.5" fill="#000000" >G</text>
<circle cx="288.6217" cy="462.2894" r="5.0" stroke="#595959" stroke-width="1.0" fill="#ffffff"/>
<text x="288.6217" y="464.9894" text-anchor="middle" font-family="Helvetica" font-size="7.5" fill="#000000" >U</text>
</svg>
