<?xml version="1.0" encoding="UTF-8"?>
<!DOCTYPE svg PUBLIC "-//W3C//DTD SVG 1.1//EN" 
"http://www.w3.org/Graphics/SVG/1.1/DTD/svg11.dtd">

<svg version="1.1"
   width="546px"
   height="546px"
xmlns="http://www.w3.org/2000/svg">
    <rect width="100%" height="100%" fill="white"/>

  <line x1="256.4650" y1="422.5643" x2="256.5081" y2="402.5770" stroke="#595959"
     style="stroke-width:2;stroke-miterlimit:4;stroke-dasharray:1,1;stroke-dashoffset:0" />
  <line x1="256.6287" y1="342.6438" x2="256.6574" y2="322.6758" stroke="#595959"
     style="stroke-width:2;stroke-miterlimit:4;stroke-dasharray:1,1;stroke-dashoffset:0" />
  <line x1="256.7479" y1="262.8078" x2="256.7795" y2="242.8719" stroke="#595959"
     style="stroke-width:2;stroke-miterlimit:4;stroke-dasharray:1,1;stroke-dashoffset:0" />
  <line x1="256.9294" y1="163.3577" x2="256.9473" y2="143.5427" stroke="#595959"
     style="stroke-width:2;stroke-miterlimit:4;stroke-dasharray:1,1;stroke-dashoffset:0" />
  <line x1="289.4472" y1="143.3061" x2="289.4296" y2="163.2211" stroke="#595959"
     style="stroke-width:2;stroke-miterlimit:4;stroke-dasharray:1,1;stroke-dashoffset:0" />
  <line x1="289.2798" y1="242.8878" x2="289.2545" y2="262.8270" stroke="#595959"
     style="stroke-width:2;stroke-miterlimit:4;stroke-dasharray:1,1;stroke-dashoffset:0" />
  <line x1="289.1671" y1="322.6862" x2="289.1288" y2="342.6511" stroke="#595959"
     style="stroke-width:2;stroke-miterlimit:4;stroke-dasharray:1,1;stroke-dashoffset:0" />
  <line x1="289.0081" y1="402.5802" x2="288.9650" y2="422.5673" stroke="#595959"
     style="stroke-width:2;stroke-miterlimit:4;stroke-dasharray:1,1;stroke-dashoffset:0" />
  <line x1="256.3769" y1="464.1520" x2="288.8788" y2="464.1551" stroke="#d35200" stroke-width="1.0" />
  <circle cx="272.6279" cy="464.1535" r="2.25" stroke="#d35200" stroke-width="1.0" fill="#d35200"/>
  <line x1="256.5913" y1="361.0167" x2="289.0913" y2="361.0218" stroke="#eeaa00" stroke-width="1.0" />
  <circle cx="272.8413" cy="361.0192" r="2.25" stroke="#eeaa00" stroke-width="1.0" fill="#eeaa00"/>
  <line x1="256.6569" y1="324.2758" x2="289.1666" y2="324.2862" stroke="#e07500" stroke-width="1.0" />
  <circle cx="272.9117" cy="324.2810" r="2.25" stroke="#e07500" stroke-width="1.0" fill="#e07500"/>
  <line x1="258.2768" y1="302.7150" x2="258.3024" y2="282.7582" stroke="#de6e00" stroke-width="1.0" />
  <path d="M 252.5396 294.9866 L 252.5396 290.4866 L 257.0396 290.4866 L 257.0396 294.9866 z" style="stroke:#de6e00;stroke-width:1.0" fill="#de6e00" 
    transform="rotate(90.0736 258.2896 292.7366)"/>
  <path d="M 260.0396 294.9866 L 260.0396 290.4866 L 264.0396 292.7366 z" style="stroke:#de6e00;stroke-width:1.0" fill="#de6e00"
    transform="rotate(90.0736 258.2896 292.7366)"/>
  <line x1="256.6775" y1="301.1129" x2="289.2075" y2="301.1271" stroke="#cd4500" stroke-width="1.0" />
  <circle cx="272.9425" cy="301.1200" r="2.25" stroke="#cd4500" stroke-width="1.0" fill="#cd4500"/>
  <line x1="256.6761" y1="304.3129" x2="289.2062" y2="304.3271" stroke="#eca100" stroke-width="1.0" />
  <circle cx="272.9411" cy="304.3200" r="2.25" stroke="#eca100" stroke-width="1.0" fill="#eca100"/>
  <line x1="256.7033" y1="281.1561" x2="289.2391" y2="281.1738" stroke="#da6400" stroke-width="1.0" />
  <circle cx="272.9712" cy="281.1650" r="2.25" stroke="#da6400" stroke-width="1.0" fill="#da6400"/>
  <line x1="256.7015" y1="284.3561" x2="289.2374" y2="284.3738" stroke="#f2b800" stroke-width="1.0" />
  <circle cx="272.9695" cy="284.3650" r="2.25" stroke="#f2b800" stroke-width="1.0" fill="#f2b800"/>
  <line x1="256.7489" y1="261.2078" x2="289.2554" y2="261.2270" stroke="#df7200" stroke-width="1.0" />
  <circle cx="273.0021" cy="261.2174" r="2.25" stroke="#df7200" stroke-width="1.0" fill="#df7200"/>
  <line x1="256.7470" y1="264.4078" x2="289.2535" y2="264.4270" stroke="#e27c00" stroke-width="1.0" />
  <circle cx="273.0003" cy="264.4174" r="2.25" stroke="#e27c00" stroke-width="1.0" fill="#e27c00"/>
  <line x1="256.7479" y1="262.8078" x2="289.2383" y2="282.7738" stroke="#da6400" stroke-width="1.0" />
  <circle cx="272.9931" cy="272.7908" r="2.25" stroke="#da6400" stroke-width="1.0" fill="#da6400"/>
  <line x1="256.7795" y1="242.8719" x2="289.2798" y2="242.8878" stroke="#7c03fe" stroke-width="1.0" />
  <circle cx="273.0297" cy="242.8798" r="2.25" stroke="#7c03fe" stroke-width="1.0" fill="#7c03fe"/>
  <line x1="256.7355" y1="224.5538" x2="289.3734" y2="224.5581" stroke="#f2b800" stroke-width="1.0" />
  <circle cx="273.0544" cy="224.5560" r="2.25" stroke="#f2b800" stroke-width="1.0" fill="#f2b800"/>
  <line x1="256.7965" y1="204.6593" x2="289.4518" y2="204.6390" stroke="#f2b800" stroke-width="1.0" />
  <circle cx="273.1242" cy="204.6492" r="2.25" stroke="#f2b800" stroke-width="1.0" fill="#f2b800"/>
  <line x1="256.8118" y1="125.3279" x2="289.3394" y2="124.9731" stroke="#f1b400" stroke-width="1.0" />
  <circle cx="273.0756" cy="125.1505" r="2.25" stroke="#f1b400" stroke-width="1.0" fill="#f1b400"/>
  <line x1="264.6655" y1="87.3432" x2="284.4024" y2="85.7209" stroke="#efaf00" stroke-width="1.0" />
  <circle cx="274.5340" cy="86.5320" r="2.25" stroke="#efaf00" stroke-width="1.0" fill="#efaf00"/>
  <line x1="256.3771" y1="462.5520" x2="256.4215" y2="442.5560" stroke="#44006e" stroke-width="1.0" />
  <rect
     style="fill:#ffffff;fill-opacity:1;fill-rule:nonzero;stroke:none"
     width="2"
     height="2"
     x="255.8993"
     y="451.5540"
     transform="rotate(-89.8725 256.3993 452.5540)" /> 
  <path
     style="fill:none;stroke:#44006e;stroke-width:1px;stroke-linecap:butt;stroke-linejoin:miter;stroke-opacity:1"
     d="m 256.3993,450.5540 2,2 -2,2 m -2.370121,-4 2,2 -2,2"
     transform="rotate(-89.8725 256.3993 452.5540)"/>
  <line x1="256.3772" y1="460.9520" x2="288.8791" y2="460.9551" stroke="#ca4000" stroke-width="1.0" />
  <line x1="256.4215" y1="442.5560" x2="256.4650" y2="422.5643" stroke="#8004ff" stroke-width="1.0" />
  <rect
     style="fill:#ffffff;fill-opacity:1;fill-rule:nonzero;stroke:none"
     width="2"
     height="2"
     x="255.9433"
     y="431.5601"
     transform="rotate(-89.8755 256.4433 432.5601)" /> 
  <path
     style="fill:none;stroke:#8004ff;stroke-width:1px;stroke-linecap:butt;stroke-linejoin:miter;stroke-opacity:1"
     d="m 256.4433,430.5601 2,2 -2,2 m -2.370121,-4 2,2 -2,2"
     transform="rotate(-89.8755 256.4433 432.5601)"/>
  <line x1="256.4214" y1="443.8060" x2="288.9214" y2="443.8091" stroke="#520099" stroke-width="1.0" />
  <line x1="256.4216" y1="441.3060" x2="288.9217" y2="441.3091" stroke="#520099" stroke-width="1.0" />
  <line x1="256.4650" y1="422.5643" x2="288.9650" y2="422.5673" stroke="#5d01be" stroke-width="1.0" />
  <line x1="256.5081" y1="402.5770" x2="256.5504" y2="382.5944" stroke="#ce4700" stroke-width="1.0" />
  <rect
     style="fill:#ffffff;fill-opacity:1;fill-rule:nonzero;stroke:none"
     width="2"
     height="2"
     x="256.0293"
     y="391.5857"
     transform="rotate(-89.8786 256.5293 392.5857)" /> 
  <path
     style="fill:none;stroke:#ce4700;stroke-width:1px;stroke-linecap:butt;stroke-linejoin:miter;stroke-opacity:1"
     d="m 256.5293,390.5857 2,2 -2,2 m -2.370121,-4 2,2 -2,2"
     transform="rotate(-89.8786 256.5293 392.5857)"/>
  <line x1="256.5080" y1="403.8270" x2="289.0080" y2="403.8302" stroke="#3c0057" stroke-width="1.0" />
  <line x1="256.5082" y1="401.3270" x2="289.0082" y2="401.3302" stroke="#3c0057" stroke-width="1.0" />
  <line x1="256.5081" y1="402.5770" x2="288.9650" y2="422.5673" stroke="#3c0057" stroke-width="1.0" />
  <rect
     style="fill:#ffffff;stroke:none"
     width="5.5"
     height="2"
     x="269.9866"
     y="411.5721" 
     transform="rotate(31.6291 272.7366 412.5721)"    /> 
  <path
     style="fill:none;stroke:#3c0057;stroke-width:1px;stroke-linecap:butt;stroke-linejoin:miter;stroke-opacity:1"
    d="m 273.4866,410.5721 2,2 -2,2 m -1.5,-4 -2,2 2,2" transform="rotate(31.6291 272.7366 412.5721)"/>
  <line x1="256.5504" y1="382.5944" x2="256.5911" y2="362.6167" stroke="#990cc2" stroke-width="1.0" />
  <rect
     style="fill:#ffffff;fill-opacity:1;fill-rule:nonzero;stroke:none"
     width="2"
     height="2"
     x="256.0708"
     y="371.6055"
     transform="rotate(-89.8834 256.5708 372.6055)" /> 
  <path
     style="fill:none;stroke:#990cc2;stroke-width:1px;stroke-linecap:butt;stroke-linejoin:miter;stroke-opacity:1"
     d="m 256.5708,370.6055 2,2 -2,2 m -2.370121,-4 2,2 -2,2"
     transform="rotate(-89.8834 256.5708 372.6055)"/>
  <line x1="256.5503" y1="383.8444" x2="289.0503" y2="383.8482" stroke="#4b0084" stroke-width="1.0" />
  <line x1="256.5506" y1="381.3444" x2="289.0506" y2="381.3482" stroke="#4b0084" stroke-width="1.0" />
  <line x1="256.5911" y1="362.6167" x2="256.6287" y2="342.6438" stroke="#000000" stroke-width="1.0" />
  <rect
     style="fill:#ffffff;fill-opacity:1;fill-rule:nonzero;stroke:none"
     width="2"
     height="2"
     x="256.1099"
     y="351.6302"
     transform="rotate(-89.8920 256.6099 352.6302)" /> 
  <path
     style="fill:none;stroke:#000000;stroke-width:1px;stroke-linecap:butt;stroke-linejoin:miter;stroke-opacity:1"
     d="m 256.6099,350.6302 2,2 -2,2 m -2.370121,-4 2,2 -2,2"
     transform="rotate(-89.8920 256.6099 352.6302)"/>
  <line x1="256.5908" y1="364.2167" x2="289.0908" y2="364.2218" stroke="#6d02e7" stroke-width="1.0" />
  <line x1="256.6285" y1="343.8938" x2="289.1285" y2="343.9011" stroke="#5800ac" stroke-width="1.0" />
  <line x1="256.6290" y1="341.3938" x2="289.1290" y2="341.4011" stroke="#5800ac" stroke-width="1.0" />
  <line x1="256.6574" y1="322.6758" x2="256.6768" y2="302.7129" stroke="#a0109e" stroke-width="1.0" />
  <rect
     style="fill:#ffffff;fill-opacity:1;fill-rule:nonzero;stroke:none"
     width="2"
     height="2"
     x="256.1671"
     y="311.6944"
     transform="rotate(-89.9445 256.6671 312.6944)" /> 
  <path
     style="fill:none;stroke:#a0109e;stroke-width:1px;stroke-linecap:butt;stroke-linejoin:miter;stroke-opacity:1"
     d="m 256.6671,310.6944 2,2 -2,2 m -2.370121,-4 2,2 -2,2"
     transform="rotate(-89.9445 256.6671 312.6944)"/>
  <line x1="256.6580" y1="321.0758" x2="289.1676" y2="321.0862" stroke="#980bca" stroke-width="1.0" />
  <line x1="256.6574" y1="322.6758" x2="289.1288" y2="342.6511" stroke="#6301ce" stroke-width="1.0" />
  <rect
     style="fill:#ffffff;stroke:none"
     width="5.5"
     height="2"
     x="270.1431"
     y="331.6635" 
     transform="rotate(31.5985 272.8931 332.6635)"    /> 
  <path
     style="fill:none;stroke:#6301ce;stroke-width:1px;stroke-linecap:butt;stroke-linejoin:miter;stroke-opacity:1"
    d="m 273.6431,330.6635 2,2 -2,2 m -1.5,-4 -2,2 2,2" transform="rotate(31.5985 272.8931 332.6635)"/>
  <line x1="255.0768" y1="302.7109" x2="255.1024" y2="282.7541" stroke="#d85e00" stroke-width="1.0" />
  <rect
     style="fill:#ffffff;fill-opacity:1;fill-rule:nonzero;stroke:none"
     width="2"
     height="2"
     x="254.5896"
     y="291.7325"
     transform="rotate(-89.9264 255.0896 292.7325)" /> 
  <path
     style="fill:none;stroke:#d85e00;stroke-width:1px;stroke-linecap:butt;stroke-linejoin:miter;stroke-opacity:1"
     d="m 255.0896,290.7325 2,2 -2,2 m -2.370121,-4 2,2 -2,2"
     transform="rotate(-89.9264 255.0896 292.7325)"/>
  <line x1="256.7024" y1="282.7561" x2="256.7479" y2="262.8078" stroke="#b92500" stroke-width="1.0" />
  <rect
     style="fill:#ffffff;fill-opacity:1;fill-rule:nonzero;stroke:none"
     width="2"
     height="2"
     x="256.2252"
     y="271.7820"
     transform="rotate(-89.8692 256.7252 272.7820)" /> 
  <path
     style="fill:none;stroke:#b92500;stroke-width:1px;stroke-linecap:butt;stroke-linejoin:miter;stroke-opacity:1"
     d="m 256.7252,270.7820 2,2 -2,2 m -2.370121,-4 2,2 -2,2"
     transform="rotate(-89.8692 256.7252 272.7820)"/>
  <line x1="256.7024" y1="282.7561" x2="289.2069" y2="302.7271" stroke="#d45500" stroke-width="1.0" />
  <rect
     style="fill:#ffffff;fill-opacity:1;fill-rule:nonzero;stroke:none"
     width="2"
     height="2"
     x="271.9546"
     y="291.7416" 
     transform="rotate(31.5669 272.9546 292.7416)" /> 
  <path
     style="fill:none;stroke:#d45500;stroke-width:1px;stroke-linecap:butt;stroke-linejoin:miter;stroke-opacity:1"
     d="m 275.9546,290.7416 -2,2 2,2 m -6,-4 2,2 -2,2"
     transform="rotate(31.5669 272.9546 292.7416)"/>
  <line x1="256.7024" y1="282.7561" x2="289.1671" y2="322.6862" stroke="#f2b800" stroke-width="1.0" />
  <rect
     style="fill:#ffffff;stroke:none"
     width="5.5"
     height="2"
     x="270.1847"
     y="301.7212" 
     transform="rotate(50.8876 272.9347 302.7212)"    /> 
  <path
     style="fill:none;stroke:#f2b800;stroke-width:1px;stroke-linecap:butt;stroke-linejoin:miter;stroke-opacity:1"
    d="m 273.6847,300.7212 2,2 -2,2 m -1.5,-4 -2,2 2,2" transform="rotate(50.8876 272.9347 302.7212)"/>
  <line x1="256.7795" y1="242.8719" x2="256.7357" y2="222.9538" stroke="#4b0084" stroke-width="1.0" />
  <rect
     style="fill:#ffffff;fill-opacity:1;fill-rule:nonzero;stroke:none"
     width="2"
     height="2"
     x="256.2576"
     y="231.9129"
     transform="rotate(269.8741 256.7576 232.9129)" /> 
  <path
     style="fill:none;stroke:#4b0084;stroke-width:1px;stroke-linecap:butt;stroke-linejoin:miter;stroke-opacity:1"
     d="m 256.7576,230.9129 2,2 -2,2 m -2.370121,-4 2,2 -2,2"
     transform="rotate(269.8741 256.7576 232.9129)"/>
  <line x1="256.7795" y1="242.8719" x2="289.2545" y2="262.8270" stroke="#960bd2" stroke-width="1.0" />
  <rect
     style="fill:#ffffff;stroke:none"
     width="5.5"
     height="2"
     x="270.2670"
     y="251.8494" 
     transform="rotate(31.5697 273.0170 252.8494)"    /> 
  <path
     style="fill:none;stroke:#960bd2;stroke-width:1px;stroke-linecap:butt;stroke-linejoin:miter;stroke-opacity:1"
    d="m 273.7670,250.8494 2,2 -2,2 m -1.5,-4 -2,2 2,2" transform="rotate(31.5697 273.0170 252.8494)"/>
  <line x1="256.7357" y1="222.9538" x2="256.7955" y2="203.0593" stroke="#8f08ea" stroke-width="1.0" />
  <rect
     style="fill:#ffffff;fill-opacity:1;fill-rule:nonzero;stroke:none"
     width="2"
     height="2"
     x="256.2656"
     y="212.0066"
     transform="rotate(-89.8278 256.7656 213.0066)" /> 
  <path
     style="fill:none;stroke:#8f08ea;stroke-width:1px;stroke-linecap:butt;stroke-linejoin:miter;stroke-opacity:1"
     d="m 256.7656,211.0066 2,2 -2,2 m -2.370121,-4 2,2 -2,2"
     transform="rotate(-89.8278 256.7656 213.0066)"/>
  <line x1="256.7357" y1="222.6038" x2="289.3736" y2="222.6081" stroke="#6301ce" stroke-width="1.0" />
  <line x1="256.7361" y1="220.1038" x2="289.3740" y2="220.1081" stroke="#6301ce" stroke-width="1.0" />
  <line x1="256.7955" y1="203.0593" x2="256.8708" y2="183.1934" stroke="#8605fc" stroke-width="1.0" />
  <rect
     style="fill:#ffffff;fill-opacity:1;fill-rule:nonzero;stroke:none"
     width="2"
     height="2"
     x="256.3332"
     y="192.1264"
     transform="rotate(-89.7826 256.8332 193.1264)" /> 
  <path
     style="fill:none;stroke:#8605fc;stroke-width:1px;stroke-linecap:butt;stroke-linejoin:miter;stroke-opacity:1"
     d="m 256.8332,191.1264 2,2 -2,2 m -2.370121,-4 2,2 -2,2"
     transform="rotate(-89.7826 256.8332 193.1264)"/>
  <line x1="256.7945" y1="201.4593" x2="289.4498" y2="201.4390" stroke="#6301ce" stroke-width="1.0" />
  <line x1="256.7955" y1="203.0593" x2="289.3736" y2="222.9581" stroke="#f2b800" stroke-width="1.0" />
  <rect
     style="fill:#ffffff;stroke:none"
     width="5.5"
     height="2"
     x="270.3345"
     y="212.0087" 
     transform="rotate(31.4166 273.0845 213.0087)"    /> 
  <path
     style="fill:none;stroke:#f2b800;stroke-width:1px;stroke-linecap:butt;stroke-linejoin:miter;stroke-opacity:1"
    d="m 273.8345,211.0087 2,2 -2,2 m -1.5,-4 -2,2 2,2" transform="rotate(31.4166 273.0845 213.0087)"/>
  <line x1="256.8708" y1="183.1934" x2="256.9294" y2="163.3577" stroke="#6f02ec" stroke-width="1.0" />
  <rect
     style="fill:#ffffff;fill-opacity:1;fill-rule:nonzero;stroke:none"
     width="2"
     height="2"
     x="256.4001"
     y="172.2755"
     transform="rotate(-89.8307 256.9001 173.2755)" /> 
  <path
     style="fill:none;stroke:#6f02ec;stroke-width:1px;stroke-linecap:butt;stroke-linejoin:miter;stroke-opacity:1"
     d="m 256.9001,171.2755 2,2 -2,2 m -2.370121,-4 2,2 -2,2"
     transform="rotate(-89.8307 256.9001 173.2755)"/>
  <line x1="256.8733" y1="184.4434" x2="289.3741" y2="184.3790" stroke="#480079" stroke-width="1.0" />
  <line x1="256.8684" y1="181.9434" x2="289.3691" y2="181.8790" stroke="#480079" stroke-width="1.0" />
  <line x1="256.9347" y1="164.6077" x2="289.4349" y2="164.4711" stroke="#4e008f" stroke-width="1.0" />
  <line x1="256.9242" y1="162.1077" x2="289.4243" y2="161.9711" stroke="#4e008f" stroke-width="1.0" />
  <line x1="256.9294" y1="163.3577" x2="289.3716" y2="183.1290" stroke="#eda600" stroke-width="1.0" />
  <rect
     style="fill:#ffffff;stroke:none"
     width="5.5"
     height="2"
     x="270.4005"
     y="172.2433" 
     transform="rotate(31.3595 273.1505 173.2433)"    /> 
  <path
     style="fill:none;stroke:#eda600;stroke-width:1px;stroke-linecap:butt;stroke-linejoin:miter;stroke-opacity:1"
    d="m 273.9005,171.2433 2,2 -2,2 m -1.5,-4 -2,2 2,2" transform="rotate(31.3595 273.1505 173.2433)"/>
  <line x1="256.9473" y1="143.5427" x2="256.7943" y2="123.7280" stroke="#a5137f" stroke-width="1.0" />
  <rect
     style="fill:#ffffff;fill-opacity:1;fill-rule:nonzero;stroke:none"
     width="2"
     height="2"
     x="256.3708"
     y="132.6353"
     transform="rotate(269.5578 256.8708 133.6353)" /> 
  <path
     style="fill:none;stroke:#a5137f;stroke-width:1px;stroke-linecap:butt;stroke-linejoin:miter;stroke-opacity:1"
     d="m 256.8708,131.6353 2,2 -2,2 m -2.370121,-4 2,2 -2,2"
     transform="rotate(269.5578 256.8708 133.6353)"/>
  <line x1="256.9564" y1="144.7927" x2="289.4563" y2="144.5561" stroke="#4e008f" stroke-width="1.0" />
  <line x1="256.9382" y1="142.2927" x2="289.4381" y2="142.0562" stroke="#4e008f" stroke-width="1.0" />
  <line x1="256.9473" y1="143.5427" x2="289.4296" y2="163.2211" stroke="#37004b" stroke-width="1.0" />
  <rect
     style="fill:#ffffff;stroke:none"
     width="5.5"
     height="2"
     x="270.4384"
     y="152.3819" 
     transform="rotate(31.2082 273.1884 153.3819)"    /> 
  <path
     style="fill:none;stroke:#37004b;stroke-width:1px;stroke-linecap:butt;stroke-linejoin:miter;stroke-opacity:1"
    d="m 273.9384,151.3819 2,2 -2,2 m -1.5,-4 -2,2 2,2" transform="rotate(31.2082 273.1884 153.3819)"/>
  <line x1="256.7943" y1="123.7280" x2="256.4846" y2="103.8927" stroke="#9e0fa8" stroke-width="1.0" />
  <rect
     style="fill:#ffffff;fill-opacity:1;fill-rule:nonzero;stroke:none"
     width="2"
     height="2"
     x="256.1395"
     y="112.8103"
     transform="rotate(269.1053 256.6395 113.8103)" /> 
  <path
     style="fill:none;stroke:#9e0fa8;stroke-width:1px;stroke-linecap:butt;stroke-linejoin:miter;stroke-opacity:1"
     d="m 256.6395,111.8103 2,2 -2,2 m -2.370121,-4 2,2 -2,2"
     transform="rotate(269.1053 256.6395 113.8103)"/>
  <line x1="256.7769" y1="122.1281" x2="289.3045" y2="121.7733" stroke="#6501d5" stroke-width="1.0" />
  <line x1="256.4846" y1="103.8927" x2="264.5345" y2="85.7485" stroke="#bd2b00" stroke-width="1.0" />
  <rect
     style="fill:#ffffff;fill-opacity:1;fill-rule:nonzero;stroke:none"
     width="2"
     height="2"
     x="260.0095"
     y="93.8206"
     transform="rotate(-66.0749 260.5095 94.8206)" /> 
  <path
     style="fill:none;stroke:#bd2b00;stroke-width:1px;stroke-linecap:butt;stroke-linejoin:miter;stroke-opacity:1"
     d="m 260.5095,92.8206 2,2 -2,2 m -2.370121,-4 2,2 -2,2"
     transform="rotate(-66.0749 260.5095 94.8206)"/>
  <line x1="256.5032" y1="105.1426" x2="288.9641" y2="104.6578" stroke="#4b0084" stroke-width="1.0" />
  <line x1="256.4659" y1="102.6428" x2="288.9268" y2="102.1580" stroke="#4b0084" stroke-width="1.0" />
  <line x1="264.5058" y1="85.3997" x2="284.2426" y2="83.7774" stroke="#6801dc" stroke-width="1.0" />
  <line x1="264.3010" y1="82.9081" x2="284.0378" y2="81.2858" stroke="#6801dc" stroke-width="1.0" />
  <line x1="264.5345" y1="85.7485" x2="288.9454" y2="103.4079" stroke="#efaf00" stroke-width="1.0" />
  <rect
     style="fill:#ffffff;stroke:none"
     width="5.5"
     height="2"
     x="273.9899"
     y="93.5782" 
     transform="rotate(35.8828 276.7399 94.5782)"    /> 
  <path
     style="fill:none;stroke:#efaf00;stroke-width:1px;stroke-linecap:butt;stroke-linejoin:miter;stroke-opacity:1"
    d="m 277.4899,92.5782 2,2 -2,2 m -1.5,-4 -2,2 2,2" transform="rotate(35.8828 276.7399 94.5782)"/>
  <line x1="284.2713" y1="84.1262" x2="288.9454" y2="103.4079" stroke="#9e0fa8" stroke-width="1.0" />
  <rect
     style="fill:#ffffff;fill-opacity:1;fill-rule:nonzero;stroke:none"
     width="2"
     height="2"
     x="286.1083"
     y="92.7671"
     transform="rotate(76.3736 286.6083 93.7671)" /> 
  <path
     style="fill:none;stroke:#9e0fa8;stroke-width:1px;stroke-linecap:butt;stroke-linejoin:miter;stroke-opacity:1"
     d="m 286.6083,91.7671 2,2 -2,2 m -2.370121,-4 2,2 -2,2"
     transform="rotate(76.3736 286.6083 93.7671)"/>
  <line x1="288.9454" y1="103.4079" x2="289.3220" y2="123.3732" stroke="#8004ff" stroke-width="1.0" />
  <rect
     style="fill:#ffffff;fill-opacity:1;fill-rule:nonzero;stroke:none"
     width="2"
     height="2"
     x="288.6337"
     y="112.3906"
     transform="rotate(88.9194 289.1337 113.3906)" /> 
  <path
     style="fill:none;stroke:#8004ff;stroke-width:1px;stroke-linecap:butt;stroke-linejoin:miter;stroke-opacity:1"
     d="m 289.1337,111.3906 2,2 -2,2 m -2.370121,-4 2,2 -2,2"
     transform="rotate(88.9194 289.1337 113.3906)"/>
  <line x1="289.3220" y1="123.3732" x2="289.4472" y2="143.3061" stroke="#8605fc" stroke-width="1.0" />
  <rect
     style="fill:#ffffff;fill-opacity:1;fill-rule:nonzero;stroke:none"
     width="2"
     height="2"
     x="288.8846"
     y="132.3397"
     transform="rotate(89.6401 289.3846 133.3397)" /> 
  <path
     style="fill:none;stroke:#8605fc;stroke-width:1px;stroke-linecap:butt;stroke-linejoin:miter;stroke-opacity:1"
     d="m 289.3846,131.3397 2,2 -2,2 m -2.370121,-4 2,2 -2,2"
     transform="rotate(89.6401 289.3846 133.3397)"/>
  <line x1="289.4296" y1="163.2211" x2="289.3716" y2="183.1290" stroke="#ce4700" stroke-width="1.0" />
  <rect
     style="fill:#ffffff;fill-opacity:1;fill-rule:nonzero;stroke:none"
     width="2"
     height="2"
     x="288.9006"
     y="172.1750"
     transform="rotate(90.1670 289.4006 173.1750)" /> 
  <path
     style="fill:none;stroke:#ce4700;stroke-width:1px;stroke-linecap:butt;stroke-linejoin:miter;stroke-opacity:1"
     d="m 289.4006,171.1750 2,2 -2,2 m -2.370121,-4 2,2 -2,2"
     transform="rotate(90.1670 289.4006 173.1750)"/>
  <line x1="289.3716" y1="183.1290" x2="289.4508" y2="203.0390" stroke="#ab1751" stroke-width="1.0" />
  <rect
     style="fill:#ffffff;fill-opacity:1;fill-rule:nonzero;stroke:none"
     width="2"
     height="2"
     x="288.9112"
     y="192.0840"
     transform="rotate(89.7719 289.4112 193.0840)" /> 
  <path
     style="fill:none;stroke:#ab1751;stroke-width:1px;stroke-linecap:butt;stroke-linejoin:miter;stroke-opacity:1"
     d="m 289.4112,191.0840 2,2 -2,2 m -2.370121,-4 2,2 -2,2"
     transform="rotate(89.7719 289.4112 193.0840)"/>
  <line x1="289.4508" y1="203.0390" x2="289.3736" y2="222.9581" stroke="#bf2d00" stroke-width="1.0" />
  <rect
     style="fill:#ffffff;fill-opacity:1;fill-rule:nonzero;stroke:none"
     width="2"
     height="2"
     x="288.9122"
     y="211.9985"
     transform="rotate(90.2222 289.4122 212.9985)" /> 
  <path
     style="fill:none;stroke:#bf2d00;stroke-width:1px;stroke-linecap:butt;stroke-linejoin:miter;stroke-opacity:1"
     d="m 289.4122,210.9985 2,2 -2,2 m -2.370121,-4 2,2 -2,2"
     transform="rotate(90.2222 289.4122 212.9985)"/>
  <line x1="289.3736" y1="222.9581" x2="289.2798" y2="242.8878" stroke="#2d0032" stroke-width="1.0" />
  <rect
     style="fill:#ffffff;fill-opacity:1;fill-rule:nonzero;stroke:none"
     width="2"
     height="2"
     x="288.8267"
     y="231.9229"
     transform="rotate(90.2695 289.3267 232.9229)" /> 
  <path
     style="fill:none;stroke:#2d0032;stroke-width:1px;stroke-linecap:butt;stroke-linejoin:miter;stroke-opacity:1"
     d="m 289.3267,230.9229 2,2 -2,2 m -2.370121,-4 2,2 -2,2"
     transform="rotate(90.2695 289.3267 232.9229)"/>
  <line x1="289.2545" y1="262.8270" x2="289.2383" y2="282.7738" stroke="#8f08ea" stroke-width="1.0" />
  <rect
     style="fill:#ffffff;fill-opacity:1;fill-rule:nonzero;stroke:none"
     width="2"
     height="2"
     x="288.7464"
     y="271.8004"
     transform="rotate(90.0465 289.2464 272.8004)" /> 
  <path
     style="fill:none;stroke:#8f08ea;stroke-width:1px;stroke-linecap:butt;stroke-linejoin:miter;stroke-opacity:1"
     d="m 289.2464,270.8004 2,2 -2,2 m -2.370121,-4 2,2 -2,2"
     transform="rotate(90.0465 289.2464 272.8004)"/>
  <line x1="289.2383" y1="282.7738" x2="289.2069" y2="302.7271" stroke="#b41f06" stroke-width="1.0" />
  <rect
     style="fill:#ffffff;fill-opacity:1;fill-rule:nonzero;stroke:none"
     width="2"
     height="2"
     x="288.7226"
     y="291.7505"
     transform="rotate(90.0902 289.2226 292.7505)" /> 
  <path
     style="fill:none;stroke:#b41f06;stroke-width:1px;stroke-linecap:butt;stroke-linejoin:miter;stroke-opacity:1"
     d="m 289.2226,290.7505 2,2 -2,2 m -2.370121,-4 2,2 -2,2"
     transform="rotate(90.0902 289.2226 292.7505)"/>
  <line x1="289.2069" y1="302.7271" x2="289.1671" y2="322.6862" stroke="#cf4a00" stroke-width="1.0" />
  <rect
     style="fill:#ffffff;fill-opacity:1;fill-rule:nonzero;stroke:none"
     width="2"
     height="2"
     x="288.6870"
     y="311.7067"
     transform="rotate(90.1142 289.1870 312.7067)" /> 
  <path
     style="fill:none;stroke:#cf4a00;stroke-width:1px;stroke-linecap:butt;stroke-linejoin:miter;stroke-opacity:1"
     d="m 289.1870,310.7067 2,2 -2,2 m -2.370121,-4 2,2 -2,2"
     transform="rotate(90.1142 289.1870 312.7067)"/>
  <line x1="289.1288" y1="342.6511" x2="289.0911" y2="362.6218" stroke="#200019" stroke-width="1.0" />
  <rect
     style="fill:#ffffff;fill-opacity:1;fill-rule:nonzero;stroke:none"
     width="2"
     height="2"
     x="288.6099"
     y="351.6365"
     transform="rotate(90.1081 289.1099 352.6365)" /> 
  <path
     style="fill:none;stroke:#200019;stroke-width:1px;stroke-linecap:butt;stroke-linejoin:miter;stroke-opacity:1"
     d="m 289.1099,350.6365 2,2 -2,2 m -2.370121,-4 2,2 -2,2"
     transform="rotate(90.1081 289.1099 352.6365)"/>
  <line x1="289.0911" y1="362.6218" x2="289.0504" y2="382.5982" stroke="#8405fd" stroke-width="1.0" />
  <rect
     style="fill:#ffffff;fill-opacity:1;fill-rule:nonzero;stroke:none"
     width="2"
     height="2"
     x="288.5708"
     y="371.6100"
     transform="rotate(90.1165 289.0708 372.6100)" /> 
  <path
     style="fill:none;stroke:#8405fd;stroke-width:1px;stroke-linecap:butt;stroke-linejoin:miter;stroke-opacity:1"
     d="m 289.0708,370.6100 2,2 -2,2 m -2.370121,-4 2,2 -2,2"
     transform="rotate(90.1165 289.0708 372.6100)"/>
  <line x1="289.0504" y1="382.5982" x2="289.0081" y2="402.5802" stroke="#7e04ff" stroke-width="1.0" />
  <rect
     style="fill:#ffffff;fill-opacity:1;fill-rule:nonzero;stroke:none"
     width="2"
     height="2"
     x="288.5293"
     y="391.5892"
     transform="rotate(90.1214 289.0293 392.5892)" /> 
  <path
     style="fill:none;stroke:#7e04ff;stroke-width:1px;stroke-linecap:butt;stroke-linejoin:miter;stroke-opacity:1"
     d="m 289.0293,390.5892 2,2 -2,2 m -2.370121,-4 2,2 -2,2"
     transform="rotate(90.1214 289.0293 392.5892)"/>
  <line x1="288.9650" y1="422.5673" x2="288.9215" y2="442.5591" stroke="#9b0dba" stroke-width="1.0" />
  <rect
     style="fill:#ffffff;fill-opacity:1;fill-rule:nonzero;stroke:none"
     width="2"
     height="2"
     x="288.4433"
     y="431.5632"
     transform="rotate(90.1245 288.9433 432.5632)" /> 
  <path
     style="fill:none;stroke:#9b0dba;stroke-width:1px;stroke-linecap:butt;stroke-linejoin:miter;stroke-opacity:1"
     d="m 288.9433,430.5632 2,2 -2,2 m -2.370121,-4 2,2 -2,2"
     transform="rotate(90.1245 288.9433 432.5632)"/>
  <line x1="288.9215" y1="442.5591" x2="288.8790" y2="462.5551" stroke="#6301ce" stroke-width="1.0" />
  <rect
     style="fill:#ffffff;fill-opacity:1;fill-rule:nonzero;stroke:none"
     width="2"
     height="2"
     x="288.4003"
     y="451.5571"
     transform="rotate(90.1220 288.9003 452.5571)" /> 
  <path
     style="fill:none;stroke:#6301ce;stroke-width:1px;stroke-linecap:butt;stroke-linejoin:miter;stroke-opacity:1"
     d="m 288.9003,450.5571 2,2 -2,2 m -2.370121,-4 2,2 -2,2"
     transform="rotate(90.1220 288.9003 452.5571)"/>
<circle cx="256.3771" cy="462.5520" r="5.0" stroke="#595959" stroke-width="1.0" fill="#ffffff"/>
<text x="256.3771" y="465.2520" text-anchor="middle" font-family="Helvetica" font-size="7.5" fill="#000000" >A</text>
<circle cx="256.4215" cy="442.5560" r="5.0" stroke="#595959" stroke-width="1.0" fill="#ffffff"/>
<text x="256.4215" y="445.2560" text-anchor="middle" font-family="Helvetica" font-size="7.5" fill="#000000" >C</text>
<circle cx="256.4650" cy="422.5643" r="5.0" stroke="#595959" stroke-width="1.0" fill="#ffffff"/>
<text x="256.4650" y="425.2643" text-anchor="middle" font-family="Helvetica" font-size="7.5" fill="#000000" >U</text>
<circle cx="256.5081" cy="402.5770" r="5.0" stroke="#595959" stroke-width="1.0" fill="#ffffff"/>
<text x="256.5081" y="405.2770" text-anchor="middle" font-family="Helvetica" font-size="7.5" fill="#000000" >G</text>
<circle cx="256.5504" cy="382.5944" r="5.0" stroke="#595959" stroke-width="1.0" fill="#ffffff"/>
<text x="256.5504" y="385.2944" text-anchor="middle" font-family="Helvetica" font-size="7.5" fill="#000000" >G</text>
<circle cx="256.5911" cy="362.6167" r="5.0" stroke="#595959" stroke-width="1.0" fill="#ffffff"/>
<text x="256.5911" y="365.3167" text-anchor="middle" font-family="Helvetica" font-size="7.5" fill="#000000" >A</text>
<circle cx="256.6287" cy="342.6438" r="5.0" stroke="#595959" stroke-width="1.0" fill="#ffffff"/>
<text x="256.6287" y="345.3438" text-anchor="middle" font-family="Helvetica" font-size="7.5" fill="#000000" >C</text>
<circle cx="256.6574" cy="322.6758" r="5.0" stroke="#595959" stroke-width="1.0" fill="#ffffff"/>
<text x="256.6574" y="325.3758" text-anchor="middle" font-family="Helvetica" font-size="7.5" fill="#000000" >A</text>
<circle cx="256.6768" cy="302.7129" r="5.0" stroke="#595959" stroke-width="1.0" fill="#ffffff"/>
<text x="256.6768" y="305.4129" text-anchor="middle" font-family="Helvetica" font-size="7.5" fill="#000000" >I</text>
<circle cx="256.7024" cy="282.7561" r="5.0" stroke="#595959" stroke-width="1.0" fill="orange"/>
<text x="256.7024" y="285.4561" text-anchor="middle" font-family="Helvetica" font-size="7.5" fill="#000000" >I</text>
<circle cx="256.7479" cy="262.8078" r="5.0" stroke="#595959" stroke-width="1.0" fill="orange"/>
<text x="256.7479" y="265.5078" text-anchor="middle" font-family="Helvetica" font-size="7.5" fill="#000000" >U</text>
<circle cx="256.7795" cy="242.8719" r="5.0" stroke="#595959" stroke-width="1.0" fill="#ffffff"/>
<text x="256.7795" y="245.5719" text-anchor="middle" font-family="Helvetica" font-size="7.5" fill="#000000" >I</text>
<circle cx="256.7357" cy="222.9538" r="5.0" stroke="#595959" stroke-width="1.0" fill="#ffffff"/>
<text x="256.7357" y="225.6538" text-anchor="middle" font-family="Helvetica" font-size="7.5" fill="#000000" >C</text>
<circle cx="256.7955" cy="203.0593" r="5.0" stroke="#595959" stroke-width="1.0" fill="#ffffff"/>
<text x="256.7955" y="205.7593" text-anchor="middle" font-family="Helvetica" font-size="7.5" fill="#000000" >U</text>
<circle cx="256.8708" cy="183.1934" r="5.0" stroke="#595959" stroke-width="1.0" fill="#ffffff"/>
<text x="256.8708" y="185.8934" text-anchor="middle" font-family="Helvetica" font-size="7.5" fill="#000000" >C</text>
<circle cx="256.9294" cy="163.3577" r="5.0" stroke="#595959" stroke-width="1.0" fill="#ffffff"/>
<text x="256.9294" y="166.0577" text-anchor="middle" font-family="Helvetica" font-size="7.5" fill="#000000" >C</text>
<circle cx="256.9473" cy="143.5427" r="5.0" stroke="#595959" stroke-width="1.0" fill="#ffffff"/>
<text x="256.9473" y="146.2427" text-anchor="middle" font-family="Helvetica" font-size="7.5" fill="#000000" >G</text>
<circle cx="256.7943" cy="123.7280" r="5.0" stroke="#595959" stroke-width="1.0" fill="#ffffff"/>
<text x="256.7943" y="126.4280" text-anchor="middle" font-family="Helvetica" font-size="7.5" fill="#000000" >A</text>
<circle cx="256.4846" cy="103.8927" r="5.0" stroke="#595959" stroke-width="1.0" fill="#ffffff"/>
<text x="256.4846" y="106.5927" text-anchor="middle" font-family="Helvetica" font-size="7.5" fill="#000000" >G</text>
<circle cx="264.5345" cy="85.7485" r="5.0" stroke="#595959" stroke-width="1.0" fill="#ffffff"/>
<text x="264.5345" y="88.4485" text-anchor="middle" font-family="Helvetica" font-size="7.5" fill="#000000" >G</text>
<circle cx="284.2713" cy="84.1262" r="5.0" stroke="#595959" stroke-width="1.0" fill="#ffffff"/>
<text x="284.2713" y="86.8262" text-anchor="middle" font-family="Helvetica" font-size="7.5" fill="#000000" >C</text>
<circle cx="288.9454" cy="103.4079" r="5.0" stroke="#595959" stroke-width="1.0" fill="#ffffff"/>
<text x="288.9454" y="106.1079" text-anchor="middle" font-family="Helvetica" font-size="7.5" fill="#000000" >C</text>
<circle cx="289.3220" cy="123.3732" r="5.0" stroke="#595959" stroke-width="1.0" fill="#ffffff"/>
<text x="289.3220" y="126.0732" text-anchor="middle" font-family="Helvetica" font-size="7.5" fill="#000000" >U</text>
<circle cx="289.4472" cy="143.3061" r="5.0" stroke="#595959" stroke-width="1.0" fill="#ffffff"/>
<text x="289.4472" y="146.0061" text-anchor="middle" font-family="Helvetica" font-size="7.5" fill="#000000" >C</text>
<circle cx="289.4296" cy="163.2211" r="5.0" stroke="#595959" stroke-width="1.0" fill="#ffffff"/>
<text x="289.4296" y="165.9211" text-anchor="middle" font-family="Helvetica" font-size="7.5" fill="#000000" >G</text>
<circle cx="289.3716" cy="183.1290" r="5.0" stroke="#595959" stroke-width="1.0" fill="#ffffff"/>
<text x="289.3716" y="185.8290" text-anchor="middle" font-family="Helvetica" font-size="7.5" fill="#000000" >G</text>
<circle cx="289.4508" cy="203.0390" r="5.0" stroke="#595959" stroke-width="1.0" fill="#ffffff"/>
<text x="289.4508" y="205.7390" text-anchor="middle" font-family="Helvetica" font-size="7.5" fill="#000000" >A</text>
<circle cx="289.3736" cy="222.9581" r="5.0" stroke="#595959" stroke-width="1.0" fill="#ffffff"/>
<text x="289.3736" y="225.6581" text-anchor="middle" font-family="Helvetica" font-size="7.5" fill="#000000" >G</text>
<circle cx="289.2798" cy="242.8878" r="5.0" stroke="#595959" stroke-width="1.0" fill="#ffffff"/>
<text x="289.2798" y="245.5878" text-anchor="middle" font-family="Helvetica" font-size="7.5" fill="#000000" >U</text>
<circle cx="289.2545" cy="262.8270" r="5.0" stroke="#595959" stroke-width="1.0" fill="#ffffff"/>
<text x="289.2545" y="265.5270" text-anchor="middle" font-family="Helvetica" font-size="7.5" fill="#000000" >I</text>
<circle cx="289.2383" cy="282.7738" r="5.0" stroke="#595959" stroke-width="1.0" fill="#ffffff"/>
<text x="289.2383" y="285.4738" text-anchor="middle" font-family="Helvetica" font-size="7.5" fill="#000000" >U</text>
<circle cx="289.2069" cy="302.7271" r="5.0" stroke="#595959" stroke-width="1.0" fill="orange"/>
<text x="289.2069" y="305.4271" text-anchor="middle" font-family="Helvetica" font-size="7.5" fill="#000000" >U</text>
<circle cx="289.1671" cy="322.6862" r="5.0" stroke="#595959" stroke-width="1.0" fill="#ffffff"/>
<text x="289.1671" y="325.3862" text-anchor="middle" font-family="Helvetica" font-size="7.5" fill="#000000" >U</text>
<circle cx="289.1288" cy="342.6511" r="5.0" stroke="#595959" stroke-width="1.0" fill="#ffffff"/>
<text x="289.1288" y="345.3511" text-anchor="middle" font-family="Helvetica" font-size="7.5" fill="#000000" >G</text>
<circle cx="289.0911" cy="362.6218" r="5.0" stroke="#595959" stroke-width="1.0" fill="#ffffff"/>
<text x="289.0911" y="365.3218" text-anchor="middle" font-family="Helvetica" font-size="7.5" fill="#000000" >U</text>
<circle cx="289.0504" cy="382.5982" r="5.0" stroke="#595959" stroke-width="1.0" fill="#ffffff"/>
<text x="289.0504" y="385.2982" text-anchor="middle" font-family="Helvetica" font-size="7.5" fill="#000000" >C</text>
<circle cx="289.0081" cy="402.5802" r="5.0" stroke="#595959" stroke-width="1.0" fill="#ffffff"/>
<text x="289.0081" y="405.2802" text-anchor="middle" font-family="Helvetica" font-size="7.5" fill="#000000" >C</text>
<circle cx="288.9650" cy="422.5673" r="5.0" stroke="#595959" stroke-width="1.0" fill="#ffffff"/>
<text x="288.9650" y="425.2673" text-anchor="middle" font-family="Helvetica" font-size="7.5" fill="#000000" >A</text>
<circle cx="288.9215" cy="442.5591" r="5.0" stroke="#595959" stroke-width="1.0" fill="#ffffff"/>
<text x="288.9215" y="445.2591" text-anchor="middle" font-family="Helvetica" font-size="7.5" fill="#000000" >G</text>
<circle cx="288.8790" cy="462.5551" r="5.0" stroke="#595959" stroke-width="1.0" fill="#ffffff"/>
<text x="288.8790" y="465.2551" text-anchor="middle" font-family="Helvetica" font-size="7.5" fill="#000000" >U</text>
</svg>
