<?xml version="1.0" encoding="UTF-8"?>
<!DOCTYPE svg PUBLIC "-//W3C//DTD SVG 1.1//EN" 
"http://www.w3.org/Graphics/SVG/1.1/DTD/svg11.dtd">

<svg version="1.1"
   width="546px"
   height="546px"
xmlns="http://www.w3.org/2000/svg">
    <rect width="100%" height="100%" fill="white"/>

  <line x1="256.7500" y1="422.9470" x2="256.7500" y2="402.9470" stroke="#595959"
     style="stroke-width:2;stroke-miterlimit:4;stroke-dasharray:1,1;stroke-dashoffset:0" />
  <line x1="256.7500" y1="342.9478" x2="256.7500" y2="322.9478" stroke="#595959"
     style="stroke-width:2;stroke-miterlimit:4;stroke-dasharray:1,1;stroke-dashoffset:0" />
  <line x1="256.7500" y1="262.9489" x2="256.7500" y2="242.9489" stroke="#595959"
     style="stroke-width:2;stroke-miterlimit:4;stroke-dasharray:1,1;stroke-dashoffset:0" />
  <line x1="256.7501" y1="162.9499" x2="256.7496" y2="142.9502" stroke="#595959"
     style="stroke-width:2;stroke-miterlimit:4;stroke-dasharray:1,1;stroke-dashoffset:0" />
  <line x1="289.2504" y1="142.9502" x2="289.2499" y2="162.9499" stroke="#595959"
     style="stroke-width:2;stroke-miterlimit:4;stroke-dasharray:1,1;stroke-dashoffset:0" />
  <line x1="289.2500" y1="242.9489" x2="289.2500" y2="262.9489" stroke="#595959"
     style="stroke-width:2;stroke-miterlimit:4;stroke-dasharray:1,1;stroke-dashoffset:0" />
  <line x1="289.2500" y1="322.9478" x2="289.2500" y2="342.9478" stroke="#595959"
     style="stroke-width:2;stroke-miterlimit:4;stroke-dasharray:1,1;stroke-dashoffset:0" />
  <line x1="289.2500" y1="402.9470" x2="289.2500" y2="422.9470" stroke="#595959"
     style="stroke-width:2;stroke-miterlimit:4;stroke-dasharray:1,1;stroke-dashoffset:0" />
  <line x1="256.7500" y1="464.5468" x2="289.2500" y2="464.5468" stroke="#ca4000" stroke-width="1.0" />
  <circle cx="273.0000" cy="464.5468" r="2.25" stroke="#ca4000" stroke-width="1.0" fill="#ca4000"/>
  <line x1="256.7500" y1="344.5478" x2="289.2500" y2="344.5478" stroke="#f1b400" stroke-width="1.0" />
  <circle cx="273.0000" cy="344.5478" r="2.25" stroke="#f1b400" stroke-width="1.0" fill="#f1b400"/>
  <line x1="256.7500" y1="324.5478" x2="289.2500" y2="324.5478" stroke="#e78c00" stroke-width="1.0" />
  <circle cx="273.0000" cy="324.5478" r="2.25" stroke="#e78c00" stroke-width="1.0" fill="#e78c00"/>
  <line x1="256.7500" y1="301.3483" x2="289.2500" y2="301.3483" stroke="#8204ff" stroke-width="1.0" />
  <circle cx="273.0000" cy="301.3483" r="2.25" stroke="#8204ff" stroke-width="1.0" fill="#8204ff"/>
  <line x1="256.7500" y1="304.5483" x2="289.2500" y2="304.5483" stroke="#eca100" stroke-width="1.0" />
  <circle cx="273.0000" cy="304.5483" r="2.25" stroke="#eca100" stroke-width="1.0" fill="#eca100"/>
  <line x1="256.7500" y1="281.3483" x2="289.2500" y2="281.3483" stroke="#8204ff" stroke-width="1.0" />
  <circle cx="273.0000" cy="281.3483" r="2.25" stroke="#8204ff" stroke-width="1.0" fill="#8204ff"/>
  <line x1="256.7500" y1="284.5483" x2="289.2500" y2="284.5483" stroke="#eca100" stroke-width="1.0" />
  <circle cx="273.0000" cy="284.5483" r="2.25" stroke="#eca100" stroke-width="1.0" fill="#eca100"/>
  <line x1="256.7500" y1="261.3489" x2="289.2500" y2="261.3489" stroke="#6001c6" stroke-width="1.0" />
  <circle cx="273.0000" cy="261.3489" r="2.25" stroke="#6001c6" stroke-width="1.0" fill="#6001c6"/>
  <line x1="256.7500" y1="264.5489" x2="289.2500" y2="264.5489" stroke="#eca100" stroke-width="1.0" />
  <circle cx="273.0000" cy="264.5489" r="2.25" stroke="#eca100" stroke-width="1.0" fill="#eca100"/>
  <line x1="256.7500" y1="242.9489" x2="289.2500" y2="242.9489" stroke="#2d0032" stroke-width="1.0" />
  <circle cx="273.0000" cy="242.9489" r="2.25" stroke="#2d0032" stroke-width="1.0" fill="#2d0032"/>
  <line x1="256.7500" y1="224.5494" x2="289.2500" y2="224.5494" stroke="#f1b400" stroke-width="1.0" />
  <circle cx="273.0000" cy="224.5494" r="2.25" stroke="#f1b400" stroke-width="1.0" fill="#f1b400"/>
  <line x1="256.6857" y1="124.5503" x2="289.3143" y2="124.5503" stroke="#eca100" stroke-width="1.0" />
  <circle cx="273.0000" cy="124.5503" r="2.25" stroke="#eca100" stroke-width="1.0" fill="#eca100"/>
  <line x1="263.0189" y1="85.5782" x2="282.9811" y2="85.5782" stroke="#eca100" stroke-width="1.0" />
  <circle cx="273.0000" cy="85.5782" r="2.25" stroke="#eca100" stroke-width="1.0" fill="#eca100"/>
  <line x1="256.7500" y1="462.9468" x2="256.7500" y2="442.9468" stroke="#44006e" stroke-width="1.0" />
  <rect
     style="fill:#ffffff;fill-opacity:1;fill-rule:nonzero;stroke:none"
     width="2"
     height="2"
     x="256.2500"
     y="451.9468"
     transform="rotate(-90.0000 256.7500 452.9468)" /> 
  <path
     style="fill:none;stroke:#44006e;stroke-width:1px;stroke-linecap:butt;stroke-linejoin:miter;stroke-opacity:1"
     d="m 256.7500,450.9468 2,2 -2,2 m -2.370121,-4 2,2 -2,2"
     transform="rotate(-90.0000 256.7500 452.9468)"/>
  <line x1="256.7500" y1="461.3468" x2="289.2500" y2="461.3468" stroke="#c43500" stroke-width="1.0" />
  <line x1="256.7500" y1="442.9468" x2="256.7500" y2="422.9470" stroke="#6d02e7" stroke-width="1.0" />
  <rect
     style="fill:#ffffff;fill-opacity:1;fill-rule:nonzero;stroke:none"
     width="2"
     height="2"
     x="256.2500"
     y="431.9469"
     transform="rotate(-90.0000 256.7500 432.9469)" /> 
  <path
     style="fill:none;stroke:#6d02e7;stroke-width:1px;stroke-linecap:butt;stroke-linejoin:miter;stroke-opacity:1"
     d="m 256.7500,430.9469 2,2 -2,2 m -2.370121,-4 2,2 -2,2"
     transform="rotate(-90.0000 256.7500 432.9469)"/>
  <line x1="256.7500" y1="444.1968" x2="289.2500" y2="444.1968" stroke="#44006e" stroke-width="1.0" />
  <line x1="256.7500" y1="441.6968" x2="289.2500" y2="441.6968" stroke="#44006e" stroke-width="1.0" />
  <line x1="256.7500" y1="422.9470" x2="289.2500" y2="422.9470" stroke="#2d0032" stroke-width="1.0" />
  <line x1="256.7500" y1="402.9470" x2="256.7500" y2="382.9473" stroke="#ca4000" stroke-width="1.0" />
  <rect
     style="fill:#ffffff;fill-opacity:1;fill-rule:nonzero;stroke:none"
     width="2"
     height="2"
     x="256.2500"
     y="391.9472"
     transform="rotate(-90.0000 256.7500 392.9472)" /> 
  <path
     style="fill:none;stroke:#ca4000;stroke-width:1px;stroke-linecap:butt;stroke-linejoin:miter;stroke-opacity:1"
     d="m 256.7500,390.9472 2,2 -2,2 m -2.370121,-4 2,2 -2,2"
     transform="rotate(-90.0000 256.7500 392.9472)"/>
  <line x1="256.7500" y1="404.1970" x2="289.2500" y2="404.1970" stroke="#000000" stroke-width="1.0" />
  <line x1="256.7500" y1="401.6970" x2="289.2500" y2="401.6970" stroke="#000000" stroke-width="1.0" />
  <line x1="256.7500" y1="402.9470" x2="289.2500" y2="422.9470" stroke="#2d0032" stroke-width="1.0" />
  <rect
     style="fill:#ffffff;stroke:none"
     width="5.5"
     height="2"
     x="270.2500"
     y="411.9470" 
     transform="rotate(31.6075 273.0000 412.9470)"    /> 
  <path
     style="fill:none;stroke:#2d0032;stroke-width:1px;stroke-linecap:butt;stroke-linejoin:miter;stroke-opacity:1"
    d="m 273.7500,410.9470 2,2 -2,2 m -1.5,-4 -2,2 2,2" transform="rotate(31.6075 273.0000 412.9470)"/>
  <line x1="256.7500" y1="382.9473" x2="256.7500" y2="362.9473" stroke="#a9165c" stroke-width="1.0" />
  <rect
     style="fill:#ffffff;fill-opacity:1;fill-rule:nonzero;stroke:none"
     width="2"
     height="2"
     x="256.2500"
     y="371.9473"
     transform="rotate(270.0000 256.7500 372.9473)" /> 
  <path
     style="fill:none;stroke:#a9165c;stroke-width:1px;stroke-linecap:butt;stroke-linejoin:miter;stroke-opacity:1"
     d="m 256.7500,370.9473 2,2 -2,2 m -2.370121,-4 2,2 -2,2"
     transform="rotate(270.0000 256.7500 372.9473)"/>
  <line x1="256.7500" y1="384.1973" x2="289.2500" y2="384.1973" stroke="#44006e" stroke-width="1.0" />
  <line x1="256.7500" y1="381.6973" x2="289.2500" y2="381.6973" stroke="#44006e" stroke-width="1.0" />
  <line x1="256.7500" y1="382.9473" x2="289.2500" y2="402.9470" stroke="#e78c00" stroke-width="1.0" />
  <rect
     style="fill:#ffffff;stroke:none"
     width="5.5"
     height="2"
     x="270.2500"
     y="391.9472" 
     transform="rotate(31.6071 273.0000 392.9472)"    /> 
  <path
     style="fill:none;stroke:#e78c00;stroke-width:1px;stroke-linecap:butt;stroke-linejoin:miter;stroke-opacity:1"
    d="m 273.7500,390.9472 2,2 -2,2 m -1.5,-4 -2,2 2,2" transform="rotate(31.6071 273.0000 392.9472)"/>
  <line x1="256.7500" y1="362.9473" x2="256.7500" y2="342.9478" stroke="#000000" stroke-width="1.0" />
  <rect
     style="fill:#ffffff;fill-opacity:1;fill-rule:nonzero;stroke:none"
     width="2"
     height="2"
     x="256.2500"
     y="351.9476"
     transform="rotate(-90.0000 256.7500 352.9476)" /> 
  <path
     style="fill:none;stroke:#000000;stroke-width:1px;stroke-linecap:butt;stroke-linejoin:miter;stroke-opacity:1"
     d="m 256.7500,350.9476 2,2 -2,2 m -2.370121,-4 2,2 -2,2"
     transform="rotate(-90.0000 256.7500 352.9476)"/>
  <line x1="256.7500" y1="362.9473" x2="289.2500" y2="362.9473" stroke="#44006e" stroke-width="1.0" />
  <line x1="256.7500" y1="342.5978" x2="289.2500" y2="342.5978" stroke="#5500a3" stroke-width="1.0" />
  <line x1="256.7500" y1="340.0978" x2="289.2500" y2="340.0978" stroke="#5500a3" stroke-width="1.0" />
  <line x1="256.7500" y1="322.9478" x2="256.7500" y2="302.9483" stroke="#b82400" stroke-width="1.0" />
  <rect
     style="fill:#ffffff;fill-opacity:1;fill-rule:nonzero;stroke:none"
     width="2"
     height="2"
     x="256.2500"
     y="311.9480"
     transform="rotate(-90.0000 256.7500 312.9480)" /> 
  <path
     style="fill:none;stroke:#b82400;stroke-width:1px;stroke-linecap:butt;stroke-linejoin:miter;stroke-opacity:1"
     d="m 256.7500,310.9480 2,2 -2,2 m -2.370121,-4 2,2 -2,2"
     transform="rotate(-90.0000 256.7500 312.9480)"/>
  <line x1="256.7500" y1="321.3478" x2="289.2500" y2="321.3478" stroke="#6d02e7" stroke-width="1.0" />
  <line x1="256.7500" y1="322.9478" x2="289.2500" y2="342.9478" stroke="#2d0032" stroke-width="1.0" />
  <rect
     style="fill:#ffffff;stroke:none"
     width="5.5"
     height="2"
     x="270.2500"
     y="331.9478" 
     transform="rotate(31.6075 273.0000 332.9478)"    /> 
  <path
     style="fill:none;stroke:#2d0032;stroke-width:1px;stroke-linecap:butt;stroke-linejoin:miter;stroke-opacity:1"
    d="m 273.7500,330.9478 2,2 -2,2 m -1.5,-4 -2,2 2,2" transform="rotate(31.6075 273.0000 332.9478)"/>
  <line x1="256.7500" y1="302.9483" x2="256.7500" y2="282.9483" stroke="#ca4000" stroke-width="1.0" />
  <rect
     style="fill:#ffffff;fill-opacity:1;fill-rule:nonzero;stroke:none"
     width="2"
     height="2"
     x="256.2500"
     y="291.9483"
     transform="rotate(270.0000 256.7500 292.9483)" /> 
  <path
     style="fill:none;stroke:#ca4000;stroke-width:1px;stroke-linecap:butt;stroke-linejoin:miter;stroke-opacity:1"
     d="m 256.7500,290.9483 2,2 -2,2 m -2.370121,-4 2,2 -2,2"
     transform="rotate(270.0000 256.7500 292.9483)"/>
  <line x1="256.7500" y1="282.9483" x2="256.7500" y2="262.9489" stroke="#2d0032" stroke-width="1.0" />
  <rect
     style="fill:#ffffff;fill-opacity:1;fill-rule:nonzero;stroke:none"
     width="2"
     height="2"
     x="256.2500"
     y="271.9486"
     transform="rotate(-90.0000 256.7500 272.9486)" /> 
  <path
     style="fill:none;stroke:#2d0032;stroke-width:1px;stroke-linecap:butt;stroke-linejoin:miter;stroke-opacity:1"
     d="m 256.7500,270.9486 2,2 -2,2 m -2.370121,-4 2,2 -2,2"
     transform="rotate(-90.0000 256.7500 272.9486)"/>
  <line x1="256.7500" y1="242.9489" x2="256.7500" y2="222.9494" stroke="#000000" stroke-width="1.0" />
  <rect
     style="fill:#ffffff;fill-opacity:1;fill-rule:nonzero;stroke:none"
     width="2"
     height="2"
     x="256.2500"
     y="231.9491"
     transform="rotate(270.0000 256.7500 232.9491)" /> 
  <path
     style="fill:none;stroke:#000000;stroke-width:1px;stroke-linecap:butt;stroke-linejoin:miter;stroke-opacity:1"
     d="m 256.7500,230.9491 2,2 -2,2 m -2.370121,-4 2,2 -2,2"
     transform="rotate(270.0000 256.7500 232.9491)"/>
  <line x1="256.7500" y1="242.9489" x2="289.2500" y2="262.9489" stroke="#6001c6" stroke-width="1.0" />
  <rect
     style="fill:#ffffff;stroke:none"
     width="5.5"
     height="2"
     x="270.2500"
     y="251.9489" 
     transform="rotate(31.6075 273.0000 252.9489)"    /> 
  <path
     style="fill:none;stroke:#6001c6;stroke-width:1px;stroke-linecap:butt;stroke-linejoin:miter;stroke-opacity:1"
    d="m 273.7500,250.9489 2,2 -2,2 m -1.5,-4 -2,2 2,2" transform="rotate(31.6075 273.0000 252.9489)"/>
  <line x1="256.7500" y1="222.9494" x2="256.7500" y2="202.9494" stroke="#44006e" stroke-width="1.0" />
  <rect
     style="fill:#ffffff;fill-opacity:1;fill-rule:nonzero;stroke:none"
     width="2"
     height="2"
     x="256.2500"
     y="211.9494"
     transform="rotate(270.0000 256.7500 212.9494)" /> 
  <path
     style="fill:none;stroke:#44006e;stroke-width:1px;stroke-linecap:butt;stroke-linejoin:miter;stroke-opacity:1"
     d="m 256.7500,210.9494 2,2 -2,2 m -2.370121,-4 2,2 -2,2"
     transform="rotate(270.0000 256.7500 212.9494)"/>
  <line x1="256.7500" y1="222.5994" x2="289.2500" y2="222.5994" stroke="#5500a3" stroke-width="1.0" />
  <line x1="256.7500" y1="220.0994" x2="289.2500" y2="220.0994" stroke="#5500a3" stroke-width="1.0" />
  <line x1="256.7500" y1="202.9494" x2="256.7500" y2="182.9498" stroke="#7803fb" stroke-width="1.0" />
  <rect
     style="fill:#ffffff;fill-opacity:1;fill-rule:nonzero;stroke:none"
     width="2"
     height="2"
     x="256.2500"
     y="191.9496"
     transform="rotate(-90.0000 256.7500 192.9496)" /> 
  <path
     style="fill:none;stroke:#7803fb;stroke-width:1px;stroke-linecap:butt;stroke-linejoin:miter;stroke-opacity:1"
     d="m 256.7500,190.9496 2,2 -2,2 m -2.370121,-4 2,2 -2,2"
     transform="rotate(-90.0000 256.7500 192.9496)"/>
  <line x1="256.7500" y1="202.9494" x2="289.2500" y2="202.9494" stroke="#44006e" stroke-width="1.0" />
  <line x1="256.7500" y1="202.9494" x2="289.2500" y2="222.9494" stroke="#db6700" stroke-width="1.0" />
  <rect
     style="fill:#ffffff;stroke:none"
     width="5.5"
     height="2"
     x="270.2500"
     y="211.9494" 
     transform="rotate(31.6075 273.0000 212.9494)"    /> 
  <path
     style="fill:none;stroke:#db6700;stroke-width:1px;stroke-linecap:butt;stroke-linejoin:miter;stroke-opacity:1"
    d="m 273.7500,210.9494 2,2 -2,2 m -1.5,-4 -2,2 2,2" transform="rotate(31.6075 273.0000 212.9494)"/>
  <line x1="256.7500" y1="182.9498" x2="256.7501" y2="162.9499" stroke="#9309df" stroke-width="1.0" />
  <rect
     style="fill:#ffffff;fill-opacity:1;fill-rule:nonzero;stroke:none"
     width="2"
     height="2"
     x="256.2501"
     y="171.9499"
     transform="rotate(-89.9997 256.7501 172.9499)" /> 
  <path
     style="fill:none;stroke:#9309df;stroke-width:1px;stroke-linecap:butt;stroke-linejoin:miter;stroke-opacity:1"
     d="m 256.7501,170.9499 2,2 -2,2 m -2.370121,-4 2,2 -2,2"
     transform="rotate(-89.9997 256.7501 172.9499)"/>
  <line x1="256.7500" y1="184.1998" x2="289.2500" y2="184.1998" stroke="#44006e" stroke-width="1.0" />
  <line x1="256.7500" y1="181.6998" x2="289.2500" y2="181.6998" stroke="#44006e" stroke-width="1.0" />
  <line x1="256.7500" y1="182.9498" x2="289.2500" y2="202.9494" stroke="#f1b400" stroke-width="1.0" />
  <rect
     style="fill:#ffffff;stroke:none"
     width="5.5"
     height="2"
     x="270.2500"
     y="191.9496" 
     transform="rotate(31.6070 273.0000 192.9496)"    /> 
  <path
     style="fill:none;stroke:#f1b400;stroke-width:1px;stroke-linecap:butt;stroke-linejoin:miter;stroke-opacity:1"
    d="m 273.7500,190.9496 2,2 -2,2 m -1.5,-4 -2,2 2,2" transform="rotate(31.6070 273.0000 192.9496)"/>
  <line x1="256.7501" y1="164.1999" x2="289.2499" y2="164.1999" stroke="#44006e" stroke-width="1.0" />
  <line x1="256.7501" y1="161.6999" x2="289.2499" y2="161.6999" stroke="#44006e" stroke-width="1.0" />
  <line x1="256.7501" y1="162.9499" x2="289.2500" y2="182.9498" stroke="#f1b400" stroke-width="1.0" />
  <rect
     style="fill:#ffffff;stroke:none"
     width="5.5"
     height="2"
     x="270.2501"
     y="171.9499" 
     transform="rotate(31.6076 273.0001 172.9499)"    /> 
  <path
     style="fill:none;stroke:#f1b400;stroke-width:1px;stroke-linecap:butt;stroke-linejoin:miter;stroke-opacity:1"
    d="m 273.7501,170.9499 2,2 -2,2 m -1.5,-4 -2,2 2,2" transform="rotate(31.6076 273.0001 172.9499)"/>
  <line x1="256.7496" y1="142.9502" x2="256.6857" y2="122.9503" stroke="#b11c1f" stroke-width="1.0" />
  <rect
     style="fill:#ffffff;fill-opacity:1;fill-rule:nonzero;stroke:none"
     width="2"
     height="2"
     x="256.2177"
     y="131.9502"
     transform="rotate(269.8169 256.7177 132.9502)" /> 
  <path
     style="fill:none;stroke:#b11c1f;stroke-width:1px;stroke-linecap:butt;stroke-linejoin:miter;stroke-opacity:1"
     d="m 256.7177,130.9502 2,2 -2,2 m -2.370121,-4 2,2 -2,2"
     transform="rotate(269.8169 256.7177 132.9502)"/>
  <line x1="256.7496" y1="144.2002" x2="289.2504" y2="144.2002" stroke="#000000" stroke-width="1.0" />
  <line x1="256.7496" y1="141.7002" x2="289.2504" y2="141.7002" stroke="#000000" stroke-width="1.0" />
  <line x1="256.7496" y1="142.9502" x2="289.2499" y2="162.9499" stroke="#000000" stroke-width="1.0" />
  <rect
     style="fill:#ffffff;stroke:none"
     width="5.5"
     height="2"
     x="270.2498"
     y="151.9500" 
     transform="rotate(31.6069 272.9998 152.9500)"    /> 
  <path
     style="fill:none;stroke:#000000;stroke-width:1px;stroke-linecap:butt;stroke-linejoin:miter;stroke-opacity:1"
    d="m 273.7498,150.9500 2,2 -2,2 m -1.5,-4 -2,2 2,2" transform="rotate(31.6069 272.9998 152.9500)"/>
  <line x1="256.6857" y1="122.9503" x2="256.7282" y2="102.9505" stroke="#8204ff" stroke-width="1.0" />
  <rect
     style="fill:#ffffff;fill-opacity:1;fill-rule:nonzero;stroke:none"
     width="2"
     height="2"
     x="256.2070"
     y="111.9504"
     transform="rotate(-89.8783 256.7070 112.9504)" /> 
  <path
     style="fill:none;stroke:#8204ff;stroke-width:1px;stroke-linecap:butt;stroke-linejoin:miter;stroke-opacity:1"
     d="m 256.7070,110.9504 2,2 -2,2 m -2.370121,-4 2,2 -2,2"
     transform="rotate(-89.8783 256.7070 112.9504)"/>
  <line x1="256.6857" y1="121.3503" x2="289.3143" y2="121.3503" stroke="#6001c6" stroke-width="1.0" />
  <line x1="256.7282" y1="102.9505" x2="263.0189" y2="83.9782" stroke="#b11c1f" stroke-width="1.0" />
  <rect
     style="fill:#ffffff;fill-opacity:1;fill-rule:nonzero;stroke:none"
     width="2"
     height="2"
     x="259.3736"
     y="92.4644"
     transform="rotate(-71.6559 259.8736 93.4644)" /> 
  <path
     style="fill:none;stroke:#b11c1f;stroke-width:1px;stroke-linecap:butt;stroke-linejoin:miter;stroke-opacity:1"
     d="m 259.8736,91.4644 2,2 -2,2 m -2.370121,-4 2,2 -2,2"
     transform="rotate(-71.6559 259.8736 93.4644)"/>
  <line x1="256.7282" y1="104.2005" x2="289.2718" y2="104.2005" stroke="#2d0032" stroke-width="1.0" />
  <line x1="256.7282" y1="101.7005" x2="289.2718" y2="101.7005" stroke="#2d0032" stroke-width="1.0" />
  <line x1="263.0189" y1="83.6282" x2="282.9811" y2="83.6282" stroke="#6001c6" stroke-width="1.0" />
  <line x1="263.0189" y1="81.1282" x2="282.9811" y2="81.1282" stroke="#6001c6" stroke-width="1.0" />
  <line x1="282.9811" y1="83.9782" x2="289.2718" y2="102.9505" stroke="#9b0dba" stroke-width="1.0" />
  <rect
     style="fill:#ffffff;fill-opacity:1;fill-rule:nonzero;stroke:none"
     width="2"
     height="2"
     x="285.6264"
     y="92.4644"
     transform="rotate(71.6559 286.1264 93.4644)" /> 
  <path
     style="fill:none;stroke:#9b0dba;stroke-width:1px;stroke-linecap:butt;stroke-linejoin:miter;stroke-opacity:1"
     d="m 286.1264,91.4644 2,2 -2,2 m -2.370121,-4 2,2 -2,2"
     transform="rotate(71.6559 286.1264 93.4644)"/>
  <line x1="289.2718" y1="102.9505" x2="289.3143" y2="122.9503" stroke="#5500a3" stroke-width="1.0" />
  <rect
     style="fill:#ffffff;fill-opacity:1;fill-rule:nonzero;stroke:none"
     width="2"
     height="2"
     x="288.7930"
     y="111.9504"
     transform="rotate(89.8783 289.2930 112.9504)" /> 
  <path
     style="fill:none;stroke:#5500a3;stroke-width:1px;stroke-linecap:butt;stroke-linejoin:miter;stroke-opacity:1"
     d="m 289.2930,110.9504 2,2 -2,2 m -2.370121,-4 2,2 -2,2"
     transform="rotate(89.8783 289.2930 112.9504)"/>
  <line x1="289.3143" y1="122.9503" x2="289.2504" y2="142.9502" stroke="#44006e" stroke-width="1.0" />
  <rect
     style="fill:#ffffff;fill-opacity:1;fill-rule:nonzero;stroke:none"
     width="2"
     height="2"
     x="288.7823"
     y="131.9502"
     transform="rotate(90.1831 289.2823 132.9502)" /> 
  <path
     style="fill:none;stroke:#44006e;stroke-width:1px;stroke-linecap:butt;stroke-linejoin:miter;stroke-opacity:1"
     d="m 289.2823,130.9502 2,2 -2,2 m -2.370121,-4 2,2 -2,2"
     transform="rotate(90.1831 289.2823 132.9502)"/>
  <line x1="289.2499" y1="162.9499" x2="289.2500" y2="182.9498" stroke="#d14c00" stroke-width="1.0" />
  <rect
     style="fill:#ffffff;fill-opacity:1;fill-rule:nonzero;stroke:none"
     width="2"
     height="2"
     x="288.7499"
     y="171.9499"
     transform="rotate(89.9997 289.2499 172.9499)" /> 
  <path
     style="fill:none;stroke:#d14c00;stroke-width:1px;stroke-linecap:butt;stroke-linejoin:miter;stroke-opacity:1"
     d="m 289.2499,170.9499 2,2 -2,2 m -2.370121,-4 2,2 -2,2"
     transform="rotate(89.9997 289.2499 172.9499)"/>
  <line x1="289.2500" y1="182.9498" x2="289.2500" y2="202.9494" stroke="#b11c1f" stroke-width="1.0" />
  <rect
     style="fill:#ffffff;fill-opacity:1;fill-rule:nonzero;stroke:none"
     width="2"
     height="2"
     x="288.7500"
     y="191.9496"
     transform="rotate(90.0000 289.2500 192.9496)" /> 
  <path
     style="fill:none;stroke:#b11c1f;stroke-width:1px;stroke-linecap:butt;stroke-linejoin:miter;stroke-opacity:1"
     d="m 289.2500,190.9496 2,2 -2,2 m -2.370121,-4 2,2 -2,2"
     transform="rotate(90.0000 289.2500 192.9496)"/>
  <line x1="289.2500" y1="202.9494" x2="289.2500" y2="222.9494" stroke="#b82400" stroke-width="1.0" />
  <rect
     style="fill:#ffffff;fill-opacity:1;fill-rule:nonzero;stroke:none"
     width="2"
     height="2"
     x="288.7500"
     y="211.9494"
     transform="rotate(90.0000 289.2500 212.9494)" /> 
  <path
     style="fill:none;stroke:#b82400;stroke-width:1px;stroke-linecap:butt;stroke-linejoin:miter;stroke-opacity:1"
     d="m 289.2500,210.9494 2,2 -2,2 m -2.370121,-4 2,2 -2,2"
     transform="rotate(90.0000 289.2500 212.9494)"/>
  <line x1="289.2500" y1="222.9494" x2="289.2500" y2="242.9489" stroke="#000000" stroke-width="1.0" />
  <rect
     style="fill:#ffffff;fill-opacity:1;fill-rule:nonzero;stroke:none"
     width="2"
     height="2"
     x="288.7500"
     y="231.9491"
     transform="rotate(90.0000 289.2500 232.9491)" /> 
  <path
     style="fill:none;stroke:#000000;stroke-width:1px;stroke-linecap:butt;stroke-linejoin:miter;stroke-opacity:1"
     d="m 289.2500,230.9491 2,2 -2,2 m -2.370121,-4 2,2 -2,2"
     transform="rotate(90.0000 289.2500 232.9491)"/>
  <line x1="289.2500" y1="262.9489" x2="289.2500" y2="282.9483" stroke="#6d02e7" stroke-width="1.0" />
  <rect
     style="fill:#ffffff;fill-opacity:1;fill-rule:nonzero;stroke:none"
     width="2"
     height="2"
     x="288.7500"
     y="271.9486"
     transform="rotate(90.0000 289.2500 272.9486)" /> 
  <path
     style="fill:none;stroke:#6d02e7;stroke-width:1px;stroke-linecap:butt;stroke-linejoin:miter;stroke-opacity:1"
     d="m 289.2500,270.9486 2,2 -2,2 m -2.370121,-4 2,2 -2,2"
     transform="rotate(90.0000 289.2500 272.9486)"/>
  <line x1="289.2500" y1="282.9483" x2="289.2500" y2="302.9483" stroke="#9309df" stroke-width="1.0" />
  <rect
     style="fill:#ffffff;fill-opacity:1;fill-rule:nonzero;stroke:none"
     width="2"
     height="2"
     x="288.7500"
     y="291.9483"
     transform="rotate(90.0000 289.2500 292.9483)" /> 
  <path
     style="fill:none;stroke:#9309df;stroke-width:1px;stroke-linecap:butt;stroke-linejoin:miter;stroke-opacity:1"
     d="m 289.2500,290.9483 2,2 -2,2 m -2.370121,-4 2,2 -2,2"
     transform="rotate(90.0000 289.2500 292.9483)"/>
  <line x1="289.2500" y1="302.9483" x2="289.2500" y2="322.9478" stroke="#a9165c" stroke-width="1.0" />
  <rect
     style="fill:#ffffff;fill-opacity:1;fill-rule:nonzero;stroke:none"
     width="2"
     height="2"
     x="288.7500"
     y="311.9480"
     transform="rotate(90.0000 289.2500 312.9480)" /> 
  <path
     style="fill:none;stroke:#a9165c;stroke-width:1px;stroke-linecap:butt;stroke-linejoin:miter;stroke-opacity:1"
     d="m 289.2500,310.9480 2,2 -2,2 m -2.370121,-4 2,2 -2,2"
     transform="rotate(90.0000 289.2500 312.9480)"/>
  <line x1="289.2500" y1="342.9478" x2="289.2500" y2="362.9473" stroke="#000000" stroke-width="1.0" />
  <rect
     style="fill:#ffffff;fill-opacity:1;fill-rule:nonzero;stroke:none"
     width="2"
     height="2"
     x="288.7500"
     y="351.9476"
     transform="rotate(90.0000 289.2500 352.9476)" /> 
  <path
     style="fill:none;stroke:#000000;stroke-width:1px;stroke-linecap:butt;stroke-linejoin:miter;stroke-opacity:1"
     d="m 289.2500,350.9476 2,2 -2,2 m -2.370121,-4 2,2 -2,2"
     transform="rotate(90.0000 289.2500 352.9476)"/>
  <line x1="289.2500" y1="362.9473" x2="289.2500" y2="382.9473" stroke="#7803fb" stroke-width="1.0" />
  <rect
     style="fill:#ffffff;fill-opacity:1;fill-rule:nonzero;stroke:none"
     width="2"
     height="2"
     x="288.7500"
     y="371.9473"
     transform="rotate(90.0000 289.2500 372.9473)" /> 
  <path
     style="fill:none;stroke:#7803fb;stroke-width:1px;stroke-linecap:butt;stroke-linejoin:miter;stroke-opacity:1"
     d="m 289.2500,370.9473 2,2 -2,2 m -2.370121,-4 2,2 -2,2"
     transform="rotate(90.0000 289.2500 372.9473)"/>
  <line x1="289.2500" y1="382.9473" x2="289.2500" y2="402.9470" stroke="#8a06f6" stroke-width="1.0" />
  <rect
     style="fill:#ffffff;fill-opacity:1;fill-rule:nonzero;stroke:none"
     width="2"
     height="2"
     x="288.7500"
     y="391.9472"
     transform="rotate(90.0000 289.2500 392.9472)" /> 
  <path
     style="fill:none;stroke:#8a06f6;stroke-width:1px;stroke-linecap:butt;stroke-linejoin:miter;stroke-opacity:1"
     d="m 289.2500,390.9472 2,2 -2,2 m -2.370121,-4 2,2 -2,2"
     transform="rotate(90.0000 289.2500 392.9472)"/>
  <line x1="289.2500" y1="422.9470" x2="289.2500" y2="442.9468" stroke="#8a06f6" stroke-width="1.0" />
  <rect
     style="fill:#ffffff;fill-opacity:1;fill-rule:nonzero;stroke:none"
     width="2"
     height="2"
     x="288.7500"
     y="431.9469"
     transform="rotate(90.0000 289.2500 432.9469)" /> 
  <path
     style="fill:none;stroke:#8a06f6;stroke-width:1px;stroke-linecap:butt;stroke-linejoin:miter;stroke-opacity:1"
     d="m 289.2500,430.9469 2,2 -2,2 m -2.370121,-4 2,2 -2,2"
     transform="rotate(90.0000 289.2500 432.9469)"/>
  <line x1="289.2500" y1="442.9468" x2="289.2500" y2="462.9468" stroke="#6001c6" stroke-width="1.0" />
  <rect
     style="fill:#ffffff;fill-opacity:1;fill-rule:nonzero;stroke:none"
     width="2"
     height="2"
     x="288.7500"
     y="451.9468"
     transform="rotate(90.0000 289.2500 452.9468)" /> 
  <path
     style="fill:none;stroke:#6001c6;stroke-width:1px;stroke-linecap:butt;stroke-linejoin:miter;stroke-opacity:1"
     d="m 289.2500,450.9468 2,2 -2,2 m -2.370121,-4 2,2 -2,2"
     transform="rotate(90.0000 289.2500 452.9468)"/>
<circle cx="256.7500" cy="462.9468" r="5.0" stroke="#595959" stroke-width="1.0" fill="#ffffff"/>
<text x="256.7500" y="465.6468" text-anchor="middle" font-family="Helvetica" font-size="7.5" fill="#000000" >A</text>
<circle cx="256.7500" cy="442.9468" r="5.0" stroke="#595959" stroke-width="1.0" fill="#ffffff"/>
<text x="256.7500" y="445.6468" text-anchor="middle" font-family="Helvetica" font-size="7.5" fill="#000000" >C</text>
<circle cx="256.7500" cy="422.9470" r="5.0" stroke="#595959" stroke-width="1.0" fill="#ffffff"/>
<text x="256.7500" y="425.6470" text-anchor="middle" font-family="Helvetica" font-size="7.5" fill="#000000" >U</text>
<circle cx="256.7500" cy="402.9470" r="5.0" stroke="#595959" stroke-width="1.0" fill="#ffffff"/>
<text x="256.7500" y="405.6470" text-anchor="middle" font-family="Helvetica" font-size="7.5" fill="#000000" >G</text>
<circle cx="256.7500" cy="382.9473" r="5.0" stroke="#595959" stroke-width="1.0" fill="#ffffff"/>
<text x="256.7500" y="385.6473" text-anchor="middle" font-family="Helvetica" font-size="7.5" fill="#000000" >G</text>
<circle cx="256.7500" cy="362.9473" r="5.0" stroke="#595959" stroke-width="1.0" fill="#ffffff"/>
<text x="256.7500" y="365.6473" text-anchor="middle" font-family="Helvetica" font-size="7.5" fill="#000000" >A</text>
<circle cx="256.7500" cy="342.9478" r="5.0" stroke="#595959" stroke-width="1.0" fill="#ffffff"/>
<text x="256.7500" y="345.6478" text-anchor="middle" font-family="Helvetica" font-size="7.5" fill="#000000" >C</text>
<circle cx="256.7500" cy="322.9478" r="5.0" stroke="#595959" stroke-width="1.0" fill="#ffffff"/>
<text x="256.7500" y="325.6478" text-anchor="middle" font-family="Helvetica" font-size="7.5" fill="#000000" >A</text>
<circle cx="256.7500" cy="302.9483" r="5.0" stroke="#595959" stroke-width="1.0" fill="#ffffff"/>
<text x="256.7500" y="305.6483" text-anchor="middle" font-family="Helvetica" font-size="7.5" fill="#000000" >I</text>
<circle cx="256.7500" cy="282.9483" r="5.0" stroke="#595959" stroke-width="1.0" fill="#ffffff"/>
<text x="256.7500" y="285.6483" text-anchor="middle" font-family="Helvetica" font-size="7.5" fill="#000000" >I</text>
<circle cx="256.7500" cy="262.9489" r="5.0" stroke="#595959" stroke-width="1.0" fill="#ffffff"/>
<text x="256.7500" y="265.6489" text-anchor="middle" font-family="Helvetica" font-size="7.5" fill="#000000" >U</text>
<circle cx="256.7500" cy="242.9489" r="5.0" stroke="#595959" stroke-width="1.0" fill="#ffffff"/>
<text x="256.7500" y="245.6489" text-anchor="middle" font-family="Helvetica" font-size="7.5" fill="#000000" >I</text>
<circle cx="256.7500" cy="222.9494" r="5.0" stroke="#595959" stroke-width="1.0" fill="#ffffff"/>
<text x="256.7500" y="225.6494" text-anchor="middle" font-family="Helvetica" font-size="7.5" fill="#000000" >C</text>
<circle cx="256.7500" cy="202.9494" r="5.0" stroke="#595959" stroke-width="1.0" fill="#ffffff"/>
<text x="256.7500" y="205.6494" text-anchor="middle" font-family="Helvetica" font-size="7.5" fill="#000000" >U</text>
<circle cx="256.7500" cy="182.9498" r="5.0" stroke="#595959" stroke-width="1.0" fill="#ffffff"/>
<text x="256.7500" y="185.6498" text-anchor="middle" font-family="Helvetica" font-size="7.5" fill="#000000" >C</text>
<circle cx="256.7501" cy="162.9499" r="5.0" stroke="#595959" stroke-width="1.0" fill="#ffffff"/>
<text x="256.7501" y="165.6499" text-anchor="middle" font-family="Helvetica" font-size="7.5" fill="#000000" >C</text>
<circle cx="256.7496" cy="142.9502" r="5.0" stroke="#595959" stroke-width="1.0" fill="#ffffff"/>
<text x="256.7496" y="145.6502" text-anchor="middle" font-family="Helvetica" font-size="7.5" fill="#000000" >G</text>
<circle cx="256.6857" cy="122.9503" r="5.0" stroke="#595959" stroke-width="1.0" fill="#ffffff"/>
<text x="256.6857" y="125.6503" text-anchor="middle" font-family="Helvetica" font-size="7.5" fill="#000000" >A</text>
<circle cx="256.7282" cy="102.9505" r="5.0" stroke="#595959" stroke-width="1.0" fill="#ffffff"/>
<text x="256.7282" y="105.6505" text-anchor="middle" font-family="Helvetica" font-size="7.5" fill="#000000" >G</text>
<circle cx="263.0189" cy="83.9782" r="5.0" stroke="#595959" stroke-width="1.0" fill="#ffffff"/>
<text x="263.0189" y="86.6782" text-anchor="middle" font-family="Helvetica" font-size="7.5" fill="#000000" >G</text>
<circle cx="282.9811" cy="83.9782" r="5.0" stroke="#595959" stroke-width="1.0" fill="#ffffff"/>
<text x="282.9811" y="86.6782" text-anchor="middle" font-family="Helvetica" font-size="7.5" fill="#000000" >C</text>
<circle cx="289.2718" cy="102.9505" r="5.0" stroke="#595959" stroke-width="1.0" fill="#ffffff"/>
<text x="289.2718" y="105.6505" text-anchor="middle" font-family="Helvetica" font-size="7.5" fill="#000000" >C</text>
<circle cx="289.3143" cy="122.9503" r="5.0" stroke="#595959" stroke-width="1.0" fill="#ffffff"/>
<text x="289.3143" y="125.6503" text-anchor="middle" font-family="Helvetica" font-size="7.5" fill="#000000" >U</text>
<circle cx="289.2504" cy="142.9502" r="5.0" stroke="#595959" stroke-width="1.0" fill="#ffffff"/>
<text x="289.2504" y="145.6502" text-anchor="middle" font-family="Helvetica" font-size="7.5" fill="#000000" >C</text>
<circle cx="289.2499" cy="162.9499" r="5.0" stroke="#595959" stroke-width="1.0" fill="#ffffff"/>
<text x="289.2499" y="165.6499" text-anchor="middle" font-family="Helvetica" font-size="7.5" fill="#000000" >G</text>
<circle cx="289.2500" cy="182.9498" r="5.0" stroke="#595959" stroke-width="1.0" fill="#ffffff"/>
<text x="289.2500" y="185.6498" text-anchor="middle" font-family="Helvetica" font-size="7.5" fill="#000000" >G</text>
<circle cx="289.2500" cy="202.9494" r="5.0" stroke="#595959" stroke-width="1.0" fill="#ffffff"/>
<text x="289.2500" y="205.6494" text-anchor="middle" font-family="Helvetica" font-size="7.5" fill="#000000" >A</text>
<circle cx="289.2500" cy="222.9494" r="5.0" stroke="#595959" stroke-width="1.0" fill="#ffffff"/>
<text x="289.2500" y="225.6494" text-anchor="middle" font-family="Helvetica" font-size="7.5" fill="#000000" >G</text>
<circle cx="289.2500" cy="242.9489" r="5.0" stroke="#595959" stroke-width="1.0" fill="#ffffff"/>
<text x="289.2500" y="245.6489" text-anchor="middle" font-family="Helvetica" font-size="7.5" fill="#000000" >U</text>
<circle cx="289.2500" cy="262.9489" r="5.0" stroke="#595959" stroke-width="1.0" fill="orange"/>
<text x="289.2500" y="265.6489" text-anchor="middle" font-family="Helvetica" font-size="7.5" fill="#000000" >I</text>
<circle cx="289.2500" cy="282.9483" r="5.0" stroke="#595959" stroke-width="1.0" fill="#ffffff"/>
<text x="289.2500" y="285.6483" text-anchor="middle" font-family="Helvetica" font-size="7.5" fill="#000000" >U</text>
<circle cx="289.2500" cy="302.9483" r="5.0" stroke="#595959" stroke-width="1.0" fill="#ffffff"/>
<text x="289.2500" y="305.6483" text-anchor="middle" font-family="Helvetica" font-size="7.5" fill="#000000" >U</text>
<circle cx="289.2500" cy="322.9478" r="5.0" stroke="#595959" stroke-width="1.0" fill="#ffffff"/>
<text x="289.2500" y="325.6478" text-anchor="middle" font-family="Helvetica" font-size="7.5" fill="#000000" >U</text>
<circle cx="289.2500" cy="342.9478" r="5.0" stroke="#595959" stroke-width="1.0" fill="#ffffff"/>
<text x="289.2500" y="345.6478" text-anchor="middle" font-family="Helvetica" font-size="7.5" fill="#000000" >G</text>
<circle cx="289.2500" cy="362.9473" r="5.0" stroke="#595959" stroke-width="1.0" fill="#ffffff"/>
<text x="289.2500" y="365.6473" text-anchor="middle" font-family="Helvetica" font-size="7.5" fill="#000000" >U</text>
<circle cx="289.2500" cy="382.9473" r="5.0" stroke="#595959" stroke-width="1.0" fill="#ffffff"/>
<text x="289.2500" y="385.6473" text-anchor="middle" font-family="Helvetica" font-size="7.5" fill="#000000" >C</text>
<circle cx="289.2500" cy="402.9470" r="5.0" stroke="#595959" stroke-width="1.0" fill="#ffffff"/>
<text x="289.2500" y="405.6470" text-anchor="middle" font-family="Helvetica" font-size="7.5" fill="#000000" >C</text>
<circle cx="289.2500" cy="422.9470" r="5.0" stroke="#595959" stroke-width="1.0" fill="#ffffff"/>
<text x="289.2500" y="425.6470" text-anchor="middle" font-family="Helvetica" font-size="7.5" fill="#000000" >A</text>
<circle cx="289.2500" cy="442.9468" r="5.0" stroke="#595959" stroke-width="1.0" fill="#ffffff"/>
<text x="289.2500" y="445.6468" text-anchor="middle" font-family="Helvetica" font-size="7.5" fill="#000000" >G</text>
<circle cx="289.2500" cy="462.9468" r="5.0" stroke="#595959" stroke-width="1.0" fill="#ffffff"/>
<text x="289.2500" y="465.6468" text-anchor="middle" font-family="Helvetica" font-size="7.5" fill="#000000" >U</text>
</svg>
