<?xml version="1.0" encoding="UTF-8"?>
<!DOCTYPE svg PUBLIC "-//W3C//DTD SVG 1.1//EN" 
"http://www.w3.org/Graphics/SVG/1.1/DTD/svg11.dtd">

<svg version="1.1"
   width="546px"
   height="546px"
xmlns="http://www.w3.org/2000/svg">
    <rect width="100%" height="100%" fill="white"/>

  <line x1="256.7500" y1="422.9466" x2="256.7500" y2="402.9469" stroke="#595959"
     style="stroke-width:2;stroke-miterlimit:4;stroke-dasharray:1,1;stroke-dashoffset:0" />
  <line x1="256.7499" y1="342.9474" x2="256.7499" y2="322.9479" stroke="#595959"
     style="stroke-width:2;stroke-miterlimit:4;stroke-dasharray:1,1;stroke-dashoffset:0" />
  <line x1="256.7500" y1="262.9487" x2="256.7500" y2="242.9492" stroke="#595959"
     style="stroke-width:2;stroke-miterlimit:4;stroke-dasharray:1,1;stroke-dashoffset:0" />
  <line x1="256.7500" y1="162.9502" x2="256.7500" y2="142.9503" stroke="#595959"
     style="stroke-width:2;stroke-miterlimit:4;stroke-dasharray:1,1;stroke-dashoffset:0" />
  <line x1="289.2501" y1="142.9504" x2="289.2500" y2="162.9503" stroke="#595959"
     style="stroke-width:2;stroke-miterlimit:4;stroke-dasharray:1,1;stroke-dashoffset:0" />
  <line x1="289.2500" y1="242.9493" x2="289.2500" y2="262.9488" stroke="#595959"
     style="stroke-width:2;stroke-miterlimit:4;stroke-dasharray:1,1;stroke-dashoffset:0" />
  <line x1="289.2499" y1="322.9480" x2="289.2499" y2="342.9475" stroke="#595959"
     style="stroke-width:2;stroke-miterlimit:4;stroke-dasharray:1,1;stroke-dashoffset:0" />
  <line x1="289.2500" y1="402.9470" x2="289.2500" y2="422.9467" stroke="#595959"
     style="stroke-width:2;stroke-miterlimit:4;stroke-dasharray:1,1;stroke-dashoffset:0" />
  <line x1="256.7501" y1="464.5465" x2="289.2501" y2="464.5466" stroke="#d35200" stroke-width="1.0" />
  <circle cx="273.0001" cy="464.5465" r="2.25" stroke="#d35200" stroke-width="1.0" fill="#d35200"/>
  <line x1="256.7499" y1="364.5473" x2="289.2499" y2="364.5474" stroke="#ea9900" stroke-width="1.0" />
  <circle cx="272.9999" cy="364.5474" r="2.25" stroke="#ea9900" stroke-width="1.0" fill="#ea9900"/>
  <line x1="256.7499" y1="324.5479" x2="289.2499" y2="324.5480" stroke="#efaf00" stroke-width="1.0" />
  <circle cx="272.9999" cy="324.5479" r="2.25" stroke="#efaf00" stroke-width="1.0" fill="#efaf00"/>
  <line x1="256.7500" y1="301.3480" x2="289.2500" y2="301.3481" stroke="#e58400" stroke-width="1.0" />
  <circle cx="273.0000" cy="301.3481" r="2.25" stroke="#e58400" stroke-width="1.0" fill="#e58400"/>
  <line x1="256.7499" y1="304.5480" x2="289.2499" y2="304.5481" stroke="#990cc2" stroke-width="1.0" />
  <circle cx="272.9999" cy="304.5481" r="2.25" stroke="#990cc2" stroke-width="1.0" fill="#990cc2"/>
  <line x1="256.7500" y1="282.9485" x2="289.2500" y2="262.9488" stroke="#ea9900" stroke-width="1.0" />
  <circle cx="273.0000" cy="272.9486" r="2.25" stroke="#ea9900" stroke-width="1.0" fill="#ea9900"/>
  <line x1="256.7500" y1="281.3485" x2="289.2500" y2="281.3486" stroke="#a9165c" stroke-width="1.0" />
  <circle cx="273.0000" cy="281.3486" r="2.25" stroke="#a9165c" stroke-width="1.0" fill="#a9165c"/>
  <line x1="256.7500" y1="284.5485" x2="289.2500" y2="284.5486" stroke="#bf2d00" stroke-width="1.0" />
  <circle cx="273.0000" cy="284.5486" r="2.25" stroke="#bf2d00" stroke-width="1.0" fill="#bf2d00"/>
  <line x1="256.7500" y1="282.9485" x2="289.2499" y2="302.9481" stroke="#df7200" stroke-width="1.0" />
  <circle cx="273.0000" cy="292.9483" r="2.25" stroke="#df7200" stroke-width="1.0" fill="#df7200"/>
  <line x1="256.7500" y1="261.3487" x2="289.2500" y2="261.3488" stroke="#e58400" stroke-width="1.0" />
  <circle cx="273.0000" cy="261.3487" r="2.25" stroke="#e58400" stroke-width="1.0" fill="#e58400"/>
  <line x1="256.7500" y1="264.5487" x2="289.2500" y2="264.5488" stroke="#e58400" stroke-width="1.0" />
  <circle cx="273.0000" cy="264.5487" r="2.25" stroke="#e58400" stroke-width="1.0" fill="#e58400"/>
  <line x1="256.7500" y1="262.9487" x2="289.2500" y2="282.9486" stroke="#c53700" stroke-width="1.0" />
  <circle cx="273.0000" cy="272.9486" r="2.25" stroke="#c53700" stroke-width="1.0" fill="#c53700"/>
  <line x1="256.7500" y1="242.9492" x2="289.2500" y2="242.9493" stroke="#000000" stroke-width="1.0" />
  <circle cx="273.0000" cy="242.9492" r="2.25" stroke="#000000" stroke-width="1.0" fill="#000000"/>
  <line x1="256.7500" y1="204.5498" x2="289.2500" y2="204.5499" stroke="#ea9900" stroke-width="1.0" />
  <circle cx="273.0000" cy="204.5498" r="2.25" stroke="#ea9900" stroke-width="1.0" fill="#ea9900"/>
  <line x1="256.7381" y1="121.3507" x2="289.2619" y2="121.3507" stroke="#ea9900" stroke-width="1.0" />
  <circle cx="273.0000" cy="121.3507" r="2.25" stroke="#ea9900" stroke-width="1.0" fill="#ea9900"/>
  <line x1="256.7501" y1="462.9465" x2="256.7501" y2="442.9466" stroke="#5800ac" stroke-width="1.0" />
  <rect
     style="fill:#ffffff;fill-opacity:1;fill-rule:nonzero;stroke:none"
     width="2"
     height="2"
     x="256.2501"
     y="451.9465"
     transform="rotate(269.9999 256.7501 452.9465)" /> 
  <path
     style="fill:none;stroke:#5800ac;stroke-width:1px;stroke-linecap:butt;stroke-linejoin:miter;stroke-opacity:1"
     d="m 256.7501,450.9465 2,2 -2,2 m -2.370121,-4 2,2 -2,2"
     transform="rotate(269.9999 256.7501 452.9465)"/>
  <line x1="256.7501" y1="461.3465" x2="289.2501" y2="461.3466" stroke="#bf2d00" stroke-width="1.0" />
  <line x1="256.7501" y1="442.9466" x2="256.7500" y2="422.9466" stroke="#8f08ea" stroke-width="1.0" />
  <rect
     style="fill:#ffffff;fill-opacity:1;fill-rule:nonzero;stroke:none"
     width="2"
     height="2"
     x="256.2501"
     y="431.9466"
     transform="rotate(269.9999 256.7501 432.9466)" /> 
  <path
     style="fill:none;stroke:#8f08ea;stroke-width:1px;stroke-linecap:butt;stroke-linejoin:miter;stroke-opacity:1"
     d="m 256.7501,430.9466 2,2 -2,2 m -2.370121,-4 2,2 -2,2"
     transform="rotate(269.9999 256.7501 432.9466)"/>
  <line x1="256.7501" y1="444.1966" x2="289.2501" y2="444.1967" stroke="#480079" stroke-width="1.0" />
  <line x1="256.7501" y1="441.6966" x2="289.2501" y2="441.6967" stroke="#480079" stroke-width="1.0" />
  <line x1="256.7500" y1="422.9466" x2="289.2500" y2="422.9467" stroke="#33003e" stroke-width="1.0" />
  <line x1="256.7500" y1="402.9469" x2="256.7500" y2="382.9469" stroke="#bf2d00" stroke-width="1.0" />
  <rect
     style="fill:#ffffff;fill-opacity:1;fill-rule:nonzero;stroke:none"
     width="2"
     height="2"
     x="256.2500"
     y="391.9469"
     transform="rotate(269.9999 256.7500 392.9469)" /> 
  <path
     style="fill:none;stroke:#bf2d00;stroke-width:1px;stroke-linecap:butt;stroke-linejoin:miter;stroke-opacity:1"
     d="m 256.7500,390.9469 2,2 -2,2 m -2.370121,-4 2,2 -2,2"
     transform="rotate(269.9999 256.7500 392.9469)"/>
  <line x1="256.7500" y1="404.1969" x2="289.2500" y2="404.1970" stroke="#000000" stroke-width="1.0" />
  <line x1="256.7500" y1="401.6969" x2="289.2500" y2="401.6970" stroke="#000000" stroke-width="1.0" />
  <line x1="256.7500" y1="402.9469" x2="289.2500" y2="422.9467" stroke="#33003e" stroke-width="1.0" />
  <rect
     style="fill:#ffffff;stroke:none"
     width="5.5"
     height="2"
     x="270.2500"
     y="411.9468" 
     transform="rotate(31.6073 273.0000 412.9468)"    /> 
  <path
     style="fill:none;stroke:#33003e;stroke-width:1px;stroke-linecap:butt;stroke-linejoin:miter;stroke-opacity:1"
    d="m 273.7500,410.9468 2,2 -2,2 m -1.5,-4 -2,2 2,2" transform="rotate(31.6073 273.0000 412.9468)"/>
  <line x1="256.7500" y1="382.9469" x2="256.7499" y2="362.9473" stroke="#990cc2" stroke-width="1.0" />
  <rect
     style="fill:#ffffff;fill-opacity:1;fill-rule:nonzero;stroke:none"
     width="2"
     height="2"
     x="256.2500"
     y="371.9471"
     transform="rotate(269.9999 256.7500 372.9471)" /> 
  <path
     style="fill:none;stroke:#990cc2;stroke-width:1px;stroke-linecap:butt;stroke-linejoin:miter;stroke-opacity:1"
     d="m 256.7500,370.9471 2,2 -2,2 m -2.370121,-4 2,2 -2,2"
     transform="rotate(269.9999 256.7500 372.9471)"/>
  <line x1="256.7500" y1="384.1969" x2="289.2500" y2="384.1970" stroke="#000000" stroke-width="1.0" />
  <line x1="256.7500" y1="381.6969" x2="289.2500" y2="381.6970" stroke="#000000" stroke-width="1.0" />
  <line x1="256.7499" y1="362.9473" x2="256.7499" y2="342.9474" stroke="#33003e" stroke-width="1.0" />
  <rect
     style="fill:#ffffff;fill-opacity:1;fill-rule:nonzero;stroke:none"
     width="2"
     height="2"
     x="256.2499"
     y="351.9474"
     transform="rotate(270.0000 256.7499 352.9474)" /> 
  <path
     style="fill:none;stroke:#33003e;stroke-width:1px;stroke-linecap:butt;stroke-linejoin:miter;stroke-opacity:1"
     d="m 256.7499,350.9474 2,2 -2,2 m -2.370121,-4 2,2 -2,2"
     transform="rotate(270.0000 256.7499 352.9474)"/>
  <line x1="256.7500" y1="361.3473" x2="289.2500" y2="361.3474" stroke="#6501d5" stroke-width="1.0" />
  <line x1="256.7499" y1="362.9473" x2="289.2500" y2="382.9470" stroke="#efaf00" stroke-width="1.0" />
  <rect
     style="fill:#ffffff;stroke:none"
     width="5.5"
     height="2"
     x="270.2500"
     y="371.9472" 
     transform="rotate(31.6071 273.0000 372.9472)"    /> 
  <path
     style="fill:none;stroke:#efaf00;stroke-width:1px;stroke-linecap:butt;stroke-linejoin:miter;stroke-opacity:1"
    d="m 273.7500,370.9472 2,2 -2,2 m -1.5,-4 -2,2 2,2" transform="rotate(31.6071 273.0000 372.9472)"/>
  <line x1="256.7499" y1="344.1974" x2="289.2499" y2="344.1975" stroke="#33003e" stroke-width="1.0" />
  <line x1="256.7499" y1="341.6974" x2="289.2499" y2="341.6975" stroke="#33003e" stroke-width="1.0" />
  <line x1="256.7499" y1="322.9479" x2="256.7499" y2="302.9480" stroke="#6501d5" stroke-width="1.0" />
  <rect
     style="fill:#ffffff;fill-opacity:1;fill-rule:nonzero;stroke:none"
     width="2"
     height="2"
     x="256.2499"
     y="311.9479"
     transform="rotate(-90.0000 256.7499 312.9479)" /> 
  <path
     style="fill:none;stroke:#6501d5;stroke-width:1px;stroke-linecap:butt;stroke-linejoin:miter;stroke-opacity:1"
     d="m 256.7499,310.9479 2,2 -2,2 m -2.370121,-4 2,2 -2,2"
     transform="rotate(-90.0000 256.7499 312.9479)"/>
  <line x1="256.7499" y1="321.3479" x2="289.2499" y2="321.3480" stroke="#7102f1" stroke-width="1.0" />
  <line x1="256.7499" y1="322.9479" x2="289.2499" y2="342.9475" stroke="#480079" stroke-width="1.0" />
  <rect
     style="fill:#ffffff;stroke:none"
     width="5.5"
     height="2"
     x="270.2499"
     y="331.9477" 
     transform="rotate(31.6070 272.9999 332.9477)"    /> 
  <path
     style="fill:none;stroke:#480079;stroke-width:1px;stroke-linecap:butt;stroke-linejoin:miter;stroke-opacity:1"
    d="m 273.7499,330.9477 2,2 -2,2 m -1.5,-4 -2,2 2,2" transform="rotate(31.6070 272.9999 332.9477)"/>
  <line x1="256.7499" y1="302.9480" x2="256.7500" y2="282.9485" stroke="#8605fc" stroke-width="1.0" />
  <rect
     style="fill:#ffffff;fill-opacity:1;fill-rule:nonzero;stroke:none"
     width="2"
     height="2"
     x="256.2500"
     y="291.9483"
     transform="rotate(-90.0000 256.7500 292.9483)" /> 
  <path
     style="fill:none;stroke:#8605fc;stroke-width:1px;stroke-linecap:butt;stroke-linejoin:miter;stroke-opacity:1"
     d="m 256.7500,290.9483 2,2 -2,2 m -2.370121,-4 2,2 -2,2"
     transform="rotate(-90.0000 256.7500 292.9483)"/>
  <line x1="256.7500" y1="282.9485" x2="256.7500" y2="262.9487" stroke="#7c03fe" stroke-width="1.0" />
  <rect
     style="fill:#ffffff;fill-opacity:1;fill-rule:nonzero;stroke:none"
     width="2"
     height="2"
     x="256.2500"
     y="271.9486"
     transform="rotate(-90.0000 256.7500 272.9486)" /> 
  <path
     style="fill:none;stroke:#7c03fe;stroke-width:1px;stroke-linecap:butt;stroke-linejoin:miter;stroke-opacity:1"
     d="m 256.7500,270.9486 2,2 -2,2 m -2.370121,-4 2,2 -2,2"
     transform="rotate(-90.0000 256.7500 272.9486)"/>
  <line x1="256.7500" y1="242.9492" x2="256.7500" y2="222.9493" stroke="#000000" stroke-width="1.0" />
  <rect
     style="fill:#ffffff;fill-opacity:1;fill-rule:nonzero;stroke:none"
     width="2"
     height="2"
     x="256.2500"
     y="231.9492"
     transform="rotate(-90.0000 256.7500 232.9492)" /> 
  <path
     style="fill:none;stroke:#000000;stroke-width:1px;stroke-linecap:butt;stroke-linejoin:miter;stroke-opacity:1"
     d="m 256.7500,230.9492 2,2 -2,2 m -2.370121,-4 2,2 -2,2"
     transform="rotate(-90.0000 256.7500 232.9492)"/>
  <line x1="256.7500" y1="242.9492" x2="289.2500" y2="262.9488" stroke="#8605fc" stroke-width="1.0" />
  <rect
     style="fill:#ffffff;stroke:none"
     width="5.5"
     height="2"
     x="270.2500"
     y="251.9490" 
     transform="rotate(31.6070 273.0000 252.9490)"    /> 
  <path
     style="fill:none;stroke:#8605fc;stroke-width:1px;stroke-linecap:butt;stroke-linejoin:miter;stroke-opacity:1"
    d="m 273.7500,250.9490 2,2 -2,2 m -1.5,-4 -2,2 2,2" transform="rotate(31.6070 273.0000 252.9490)"/>
  <line x1="256.7500" y1="222.9493" x2="256.7500" y2="202.9498" stroke="#8605fc" stroke-width="1.0" />
  <rect
     style="fill:#ffffff;fill-opacity:1;fill-rule:nonzero;stroke:none"
     width="2"
     height="2"
     x="256.2500"
     y="211.9495"
     transform="rotate(-90.0000 256.7500 212.9495)" /> 
  <path
     style="fill:none;stroke:#8605fc;stroke-width:1px;stroke-linecap:butt;stroke-linejoin:miter;stroke-opacity:1"
     d="m 256.7500,210.9495 2,2 -2,2 m -2.370121,-4 2,2 -2,2"
     transform="rotate(-90.0000 256.7500 212.9495)"/>
  <line x1="256.7500" y1="224.1993" x2="289.2500" y2="224.1994" stroke="#33003e" stroke-width="1.0" />
  <line x1="256.7500" y1="221.6993" x2="289.2500" y2="221.6994" stroke="#33003e" stroke-width="1.0" />
  <line x1="256.7500" y1="202.9498" x2="256.7500" y2="182.9499" stroke="#8f08ea" stroke-width="1.0" />
  <rect
     style="fill:#ffffff;fill-opacity:1;fill-rule:nonzero;stroke:none"
     width="2"
     height="2"
     x="256.2500"
     y="191.9498"
     transform="rotate(-90.0000 256.7500 192.9498)" /> 
  <path
     style="fill:none;stroke:#8f08ea;stroke-width:1px;stroke-linecap:butt;stroke-linejoin:miter;stroke-opacity:1"
     d="m 256.7500,190.9498 2,2 -2,2 m -2.370121,-4 2,2 -2,2"
     transform="rotate(-90.0000 256.7500 192.9498)"/>
  <line x1="256.7500" y1="201.3498" x2="289.2500" y2="201.3499" stroke="#6501d5" stroke-width="1.0" />
  <line x1="256.7500" y1="202.9498" x2="289.2500" y2="222.9494" stroke="#efaf00" stroke-width="1.0" />
  <rect
     style="fill:#ffffff;stroke:none"
     width="5.5"
     height="2"
     x="270.2500"
     y="211.9496" 
     transform="rotate(31.6070 273.0000 212.9496)"    /> 
  <path
     style="fill:none;stroke:#efaf00;stroke-width:1px;stroke-linecap:butt;stroke-linejoin:miter;stroke-opacity:1"
    d="m 273.7500,210.9496 2,2 -2,2 m -1.5,-4 -2,2 2,2" transform="rotate(31.6070 273.0000 212.9496)"/>
  <line x1="256.7500" y1="182.9499" x2="256.7500" y2="162.9502" stroke="#7102f1" stroke-width="1.0" />
  <rect
     style="fill:#ffffff;fill-opacity:1;fill-rule:nonzero;stroke:none"
     width="2"
     height="2"
     x="256.2500"
     y="171.9501"
     transform="rotate(-89.9999 256.7500 172.9501)" /> 
  <path
     style="fill:none;stroke:#7102f1;stroke-width:1px;stroke-linecap:butt;stroke-linejoin:miter;stroke-opacity:1"
     d="m 256.7500,170.9501 2,2 -2,2 m -2.370121,-4 2,2 -2,2"
     transform="rotate(-89.9999 256.7500 172.9501)"/>
  <line x1="256.7500" y1="184.1999" x2="289.2500" y2="184.2000" stroke="#480079" stroke-width="1.0" />
  <line x1="256.7500" y1="181.6999" x2="289.2500" y2="181.7000" stroke="#480079" stroke-width="1.0" />
  <line x1="256.7500" y1="164.2002" x2="289.2500" y2="164.2003" stroke="#480079" stroke-width="1.0" />
  <line x1="256.7500" y1="161.7002" x2="289.2500" y2="161.7003" stroke="#480079" stroke-width="1.0" />
  <line x1="256.7500" y1="162.9502" x2="289.2500" y2="182.9500" stroke="#efaf00" stroke-width="1.0" />
  <rect
     style="fill:#ffffff;stroke:none"
     width="5.5"
     height="2"
     x="270.2500"
     y="171.9501" 
     transform="rotate(31.6072 273.0000 172.9501)"    /> 
  <path
     style="fill:none;stroke:#efaf00;stroke-width:1px;stroke-linecap:butt;stroke-linejoin:miter;stroke-opacity:1"
    d="m 273.7500,170.9501 2,2 -2,2 m -1.5,-4 -2,2 2,2" transform="rotate(31.6072 273.0000 172.9501)"/>
  <line x1="256.7500" y1="142.9503" x2="256.7381" y2="122.9507" stroke="#a9165c" stroke-width="1.0" />
  <rect
     style="fill:#ffffff;fill-opacity:1;fill-rule:nonzero;stroke:none"
     width="2"
     height="2"
     x="256.2440"
     y="131.9505"
     transform="rotate(269.9660 256.7440 132.9505)" /> 
  <path
     style="fill:none;stroke:#a9165c;stroke-width:1px;stroke-linecap:butt;stroke-linejoin:miter;stroke-opacity:1"
     d="m 256.7440,130.9505 2,2 -2,2 m -2.370121,-4 2,2 -2,2"
     transform="rotate(269.9660 256.7440 132.9505)"/>
  <line x1="256.7500" y1="144.2003" x2="289.2500" y2="144.2004" stroke="#33003e" stroke-width="1.0" />
  <line x1="256.7500" y1="141.7003" x2="289.2501" y2="141.7004" stroke="#33003e" stroke-width="1.0" />
  <line x1="256.7500" y1="142.9503" x2="289.2500" y2="162.9503" stroke="#000000" stroke-width="1.0" />
  <rect
     style="fill:#ffffff;stroke:none"
     width="5.5"
     height="2"
     x="270.2500"
     y="151.9503" 
     transform="rotate(31.6076 273.0000 152.9503)"    /> 
  <path
     style="fill:none;stroke:#000000;stroke-width:1px;stroke-linecap:butt;stroke-linejoin:miter;stroke-opacity:1"
    d="m 273.7500,150.9503 2,2 -2,2 m -1.5,-4 -2,2 2,2" transform="rotate(31.6076 273.0000 152.9503)"/>
  <line x1="256.7381" y1="122.9507" x2="256.7295" y2="102.9505" stroke="#b82400" stroke-width="1.0" />
  <rect
     style="fill:#ffffff;fill-opacity:1;fill-rule:nonzero;stroke:none"
     width="2"
     height="2"
     x="256.2338"
     y="111.9506"
     transform="rotate(269.9754 256.7338 112.9506)" /> 
  <path
     style="fill:none;stroke:#b82400;stroke-width:1px;stroke-linecap:butt;stroke-linejoin:miter;stroke-opacity:1"
     d="m 256.7338,110.9506 2,2 -2,2 m -2.370121,-4 2,2 -2,2"
     transform="rotate(269.9754 256.7338 112.9506)"/>
  <line x1="256.7381" y1="124.5507" x2="289.2619" y2="124.5507" stroke="#6501d5" stroke-width="1.0" />
  <line x1="256.7295" y1="102.9505" x2="263.0188" y2="83.9779" stroke="#990cc2" stroke-width="1.0" />
  <rect
     style="fill:#ffffff;fill-opacity:1;fill-rule:nonzero;stroke:none"
     width="2"
     height="2"
     x="259.3742"
     y="92.4642"
     transform="rotate(-71.6600 259.8742 93.4642)" /> 
  <path
     style="fill:none;stroke:#990cc2;stroke-width:1px;stroke-linecap:butt;stroke-linejoin:miter;stroke-opacity:1"
     d="m 259.8742,91.4642 2,2 -2,2 m -2.370121,-4 2,2 -2,2"
     transform="rotate(-71.6600 259.8742 93.4642)"/>
  <line x1="256.7295" y1="104.2005" x2="289.2706" y2="104.2006" stroke="#000000" stroke-width="1.0" />
  <line x1="256.7295" y1="101.7005" x2="289.2706" y2="101.7006" stroke="#000000" stroke-width="1.0" />
  <line x1="256.7295" y1="102.9505" x2="289.2619" y2="122.9507" stroke="#efaf00" stroke-width="1.0" />
  <rect
     style="fill:#ffffff;stroke:none"
     width="5.5"
     height="2"
     x="270.2457"
     y="111.9506" 
     transform="rotate(31.5823 272.9957 112.9506)"    /> 
  <path
     style="fill:none;stroke:#efaf00;stroke-width:1px;stroke-linecap:butt;stroke-linejoin:miter;stroke-opacity:1"
    d="m 273.7457,110.9506 2,2 -2,2 m -1.5,-4 -2,2 2,2" transform="rotate(31.5823 272.9957 112.9506)"/>
  <line x1="263.0188" y1="85.2279" x2="282.9814" y2="85.2280" stroke="#33003e" stroke-width="1.0" />
  <line x1="263.0188" y1="82.7279" x2="282.9814" y2="82.7280" stroke="#33003e" stroke-width="1.0" />
  <line x1="263.0188" y1="83.9779" x2="289.2706" y2="102.9506" stroke="#ea9900" stroke-width="1.0" />
  <rect
     style="fill:#ffffff;stroke:none"
     width="5.5"
     height="2"
     x="273.3947"
     y="92.4643" 
     transform="rotate(35.8564 276.1447 93.4643)"    /> 
  <path
     style="fill:none;stroke:#ea9900;stroke-width:1px;stroke-linecap:butt;stroke-linejoin:miter;stroke-opacity:1"
    d="m 276.8947,91.4643 2,2 -2,2 m -1.5,-4 -2,2 2,2" transform="rotate(35.8564 276.1447 93.4643)"/>
  <line x1="282.9814" y1="83.9780" x2="289.2706" y2="102.9506" stroke="#8f08ea" stroke-width="1.0" />
  <rect
     style="fill:#ffffff;fill-opacity:1;fill-rule:nonzero;stroke:none"
     width="2"
     height="2"
     x="285.6260"
     y="92.4643"
     transform="rotate(71.6602 286.1260 93.4643)" /> 
  <path
     style="fill:none;stroke:#8f08ea;stroke-width:1px;stroke-linecap:butt;stroke-linejoin:miter;stroke-opacity:1"
     d="m 286.1260,91.4643 2,2 -2,2 m -2.370121,-4 2,2 -2,2"
     transform="rotate(71.6602 286.1260 93.4643)"/>
  <line x1="289.2706" y1="102.9506" x2="289.2619" y2="122.9507" stroke="#6501d5" stroke-width="1.0" />
  <rect
     style="fill:#ffffff;fill-opacity:1;fill-rule:nonzero;stroke:none"
     width="2"
     height="2"
     x="288.7663"
     y="111.9507"
     transform="rotate(90.0248 289.2663 112.9507)" /> 
  <path
     style="fill:none;stroke:#6501d5;stroke-width:1px;stroke-linecap:butt;stroke-linejoin:miter;stroke-opacity:1"
     d="m 289.2663,110.9507 2,2 -2,2 m -2.370121,-4 2,2 -2,2"
     transform="rotate(90.0248 289.2663 112.9507)"/>
  <line x1="289.2619" y1="122.9507" x2="289.2501" y2="142.9504" stroke="#8f08ea" stroke-width="1.0" />
  <rect
     style="fill:#ffffff;fill-opacity:1;fill-rule:nonzero;stroke:none"
     width="2"
     height="2"
     x="288.7560"
     y="131.9506"
     transform="rotate(90.0340 289.2560 132.9506)" /> 
  <path
     style="fill:none;stroke:#8f08ea;stroke-width:1px;stroke-linecap:butt;stroke-linejoin:miter;stroke-opacity:1"
     d="m 289.2560,130.9506 2,2 -2,2 m -2.370121,-4 2,2 -2,2"
     transform="rotate(90.0340 289.2560 132.9506)"/>
  <line x1="289.2500" y1="162.9503" x2="289.2500" y2="182.9500" stroke="#c53700" stroke-width="1.0" />
  <rect
     style="fill:#ffffff;fill-opacity:1;fill-rule:nonzero;stroke:none"
     width="2"
     height="2"
     x="288.7500"
     y="171.9502"
     transform="rotate(90.0000 289.2500 172.9502)" /> 
  <path
     style="fill:none;stroke:#c53700;stroke-width:1px;stroke-linecap:butt;stroke-linejoin:miter;stroke-opacity:1"
     d="m 289.2500,170.9502 2,2 -2,2 m -2.370121,-4 2,2 -2,2"
     transform="rotate(90.0000 289.2500 172.9502)"/>
  <line x1="289.2500" y1="182.9500" x2="289.2500" y2="202.9499" stroke="#8f08ea" stroke-width="1.0" />
  <rect
     style="fill:#ffffff;fill-opacity:1;fill-rule:nonzero;stroke:none"
     width="2"
     height="2"
     x="288.7500"
     y="191.9499"
     transform="rotate(90.0000 289.2500 192.9499)" /> 
  <path
     style="fill:none;stroke:#8f08ea;stroke-width:1px;stroke-linecap:butt;stroke-linejoin:miter;stroke-opacity:1"
     d="m 289.2500,190.9499 2,2 -2,2 m -2.370121,-4 2,2 -2,2"
     transform="rotate(90.0000 289.2500 192.9499)"/>
  <line x1="289.2500" y1="202.9499" x2="289.2500" y2="222.9494" stroke="#b82400" stroke-width="1.0" />
  <rect
     style="fill:#ffffff;fill-opacity:1;fill-rule:nonzero;stroke:none"
     width="2"
     height="2"
     x="288.7500"
     y="211.9496"
     transform="rotate(90.0000 289.2500 212.9496)" /> 
  <path
     style="fill:none;stroke:#b82400;stroke-width:1px;stroke-linecap:butt;stroke-linejoin:miter;stroke-opacity:1"
     d="m 289.2500,210.9496 2,2 -2,2 m -2.370121,-4 2,2 -2,2"
     transform="rotate(90.0000 289.2500 212.9496)"/>
  <line x1="289.2500" y1="222.9494" x2="289.2500" y2="242.9493" stroke="#000000" stroke-width="1.0" />
  <rect
     style="fill:#ffffff;fill-opacity:1;fill-rule:nonzero;stroke:none"
     width="2"
     height="2"
     x="288.7500"
     y="231.9493"
     transform="rotate(90.0000 289.2500 232.9493)" /> 
  <path
     style="fill:none;stroke:#000000;stroke-width:1px;stroke-linecap:butt;stroke-linejoin:miter;stroke-opacity:1"
     d="m 289.2500,230.9493 2,2 -2,2 m -2.370121,-4 2,2 -2,2"
     transform="rotate(90.0000 289.2500 232.9493)"/>
  <line x1="289.2500" y1="262.9488" x2="289.2500" y2="282.9486" stroke="#ea9900" stroke-width="1.0" />
  <rect
     style="fill:#ffffff;fill-opacity:1;fill-rule:nonzero;stroke:none"
     width="2"
     height="2"
     x="288.7500"
     y="271.9487"
     transform="rotate(90.0000 289.2500 272.9487)" /> 
  <path
     style="fill:none;stroke:#ea9900;stroke-width:1px;stroke-linecap:butt;stroke-linejoin:miter;stroke-opacity:1"
     d="m 289.2500,270.9487 2,2 -2,2 m -2.370121,-4 2,2 -2,2"
     transform="rotate(90.0000 289.2500 272.9487)"/>
  <line x1="289.2500" y1="282.9486" x2="289.2499" y2="302.9481" stroke="#a21194" stroke-width="1.0" />
  <rect
     style="fill:#ffffff;fill-opacity:1;fill-rule:nonzero;stroke:none"
     width="2"
     height="2"
     x="288.7500"
     y="291.9484"
     transform="rotate(90.0000 289.2500 292.9484)" /> 
  <path
     style="fill:none;stroke:#a21194;stroke-width:1px;stroke-linecap:butt;stroke-linejoin:miter;stroke-opacity:1"
     d="m 289.2500,290.9484 2,2 -2,2 m -2.370121,-4 2,2 -2,2"
     transform="rotate(90.0000 289.2500 292.9484)"/>
  <line x1="289.2499" y1="302.9481" x2="289.2499" y2="322.9480" stroke="#b11c1f" stroke-width="1.0" />
  <rect
     style="fill:#ffffff;fill-opacity:1;fill-rule:nonzero;stroke:none"
     width="2"
     height="2"
     x="288.7499"
     y="311.9480"
     transform="rotate(90.0000 289.2499 312.9480)" /> 
  <path
     style="fill:none;stroke:#b11c1f;stroke-width:1px;stroke-linecap:butt;stroke-linejoin:miter;stroke-opacity:1"
     d="m 289.2499,310.9480 2,2 -2,2 m -2.370121,-4 2,2 -2,2"
     transform="rotate(90.0000 289.2499 312.9480)"/>
  <line x1="289.2499" y1="342.9475" x2="289.2499" y2="362.9474" stroke="#000000" stroke-width="1.0" />
  <rect
     style="fill:#ffffff;fill-opacity:1;fill-rule:nonzero;stroke:none"
     width="2"
     height="2"
     x="288.7499"
     y="351.9475"
     transform="rotate(90.0000 289.2499 352.9475)" /> 
  <path
     style="fill:none;stroke:#000000;stroke-width:1px;stroke-linecap:butt;stroke-linejoin:miter;stroke-opacity:1"
     d="m 289.2499,350.9475 2,2 -2,2 m -2.370121,-4 2,2 -2,2"
     transform="rotate(90.0000 289.2499 352.9475)"/>
  <line x1="289.2499" y1="362.9474" x2="289.2500" y2="382.9470" stroke="#7c03fe" stroke-width="1.0" />
  <rect
     style="fill:#ffffff;fill-opacity:1;fill-rule:nonzero;stroke:none"
     width="2"
     height="2"
     x="288.7500"
     y="371.9472"
     transform="rotate(89.9999 289.2500 372.9472)" /> 
  <path
     style="fill:none;stroke:#7c03fe;stroke-width:1px;stroke-linecap:butt;stroke-linejoin:miter;stroke-opacity:1"
     d="m 289.2500,370.9472 2,2 -2,2 m -2.370121,-4 2,2 -2,2"
     transform="rotate(89.9999 289.2500 372.9472)"/>
  <line x1="289.2500" y1="382.9470" x2="289.2500" y2="402.9470" stroke="#7102f1" stroke-width="1.0" />
  <rect
     style="fill:#ffffff;fill-opacity:1;fill-rule:nonzero;stroke:none"
     width="2"
     height="2"
     x="288.7500"
     y="391.9470"
     transform="rotate(89.9999 289.2500 392.9470)" /> 
  <path
     style="fill:none;stroke:#7102f1;stroke-width:1px;stroke-linecap:butt;stroke-linejoin:miter;stroke-opacity:1"
     d="m 289.2500,390.9470 2,2 -2,2 m -2.370121,-4 2,2 -2,2"
     transform="rotate(89.9999 289.2500 392.9470)"/>
  <line x1="289.2500" y1="422.9467" x2="289.2501" y2="442.9467" stroke="#990cc2" stroke-width="1.0" />
  <rect
     style="fill:#ffffff;fill-opacity:1;fill-rule:nonzero;stroke:none"
     width="2"
     height="2"
     x="288.7501"
     y="431.9467"
     transform="rotate(89.9999 289.2501 432.9467)" /> 
  <path
     style="fill:none;stroke:#990cc2;stroke-width:1px;stroke-linecap:butt;stroke-linejoin:miter;stroke-opacity:1"
     d="m 289.2501,430.9467 2,2 -2,2 m -2.370121,-4 2,2 -2,2"
     transform="rotate(89.9999 289.2501 432.9467)"/>
  <line x1="290.8501" y1="442.9467" x2="290.8501" y2="462.9466" stroke="#7102f1" stroke-width="1.0" />
  <rect
     style="fill:#ffffff;fill-opacity:1;fill-rule:nonzero;stroke:none"
     width="2"
     height="2"
     x="290.3501"
     y="451.9466"
     transform="rotate(89.9999 290.8501 452.9466)" /> 
  <path
     style="fill:none;stroke:#7102f1;stroke-width:1px;stroke-linecap:butt;stroke-linejoin:miter;stroke-opacity:1"
     d="m 290.8501,450.9466 2,2 -2,2 m -2.370121,-4 2,2 -2,2"
     transform="rotate(89.9999 290.8501 452.9466)"/>
  <line x1="287.6501" y1="442.9467" x2="287.6501" y2="462.9466" stroke="#efaf00" stroke-width="1.0" />
  <rect
     style="fill:#ffffff;fill-opacity:1;fill-rule:nonzero;stroke:none"
     width="2"
     height="2"
     x="286.6501"
     y="451.9466" 
     transform="rotate(89.9999 287.6501 452.9466)" /> 
  <path
     style="fill:none;stroke:#efaf00;stroke-width:1px;stroke-linecap:butt;stroke-linejoin:miter;stroke-opacity:1"
     d="m 290.6501,450.9466 -2,2 2,2 m -6,-4 2,2 -2,2"
     transform="rotate(89.9999 287.6501 452.9466)"/>
<circle cx="256.7501" cy="462.9465" r="5.0" stroke="#595959" stroke-width="1.0" fill="#ffffff"/>
<text x="256.7501" y="465.6465" text-anchor="middle" font-family="Helvetica" font-size="7.5" fill="#000000" >A</text>
<circle cx="256.7501" cy="442.9466" r="5.0" stroke="#595959" stroke-width="1.0" fill="#ffffff"/>
<text x="256.7501" y="445.6466" text-anchor="middle" font-family="Helvetica" font-size="7.5" fill="#000000" >C</text>
<circle cx="256.7500" cy="422.9466" r="5.0" stroke="#595959" stroke-width="1.0" fill="#ffffff"/>
<text x="256.7500" y="425.6466" text-anchor="middle" font-family="Helvetica" font-size="7.5" fill="#000000" >U</text>
<circle cx="256.7500" cy="402.9469" r="5.0" stroke="#595959" stroke-width="1.0" fill="#ffffff"/>
<text x="256.7500" y="405.6469" text-anchor="middle" font-family="Helvetica" font-size="7.5" fill="#000000" >G</text>
<circle cx="256.7500" cy="382.9469" r="5.0" stroke="#595959" stroke-width="1.0" fill="#ffffff"/>
<text x="256.7500" y="385.6469" text-anchor="middle" font-family="Helvetica" font-size="7.5" fill="#000000" >G</text>
<circle cx="256.7499" cy="362.9473" r="5.0" stroke="#595959" stroke-width="1.0" fill="#ffffff"/>
<text x="256.7499" y="365.6473" text-anchor="middle" font-family="Helvetica" font-size="7.5" fill="#000000" >A</text>
<circle cx="256.7499" cy="342.9474" r="5.0" stroke="#595959" stroke-width="1.0" fill="#ffffff"/>
<text x="256.7499" y="345.6474" text-anchor="middle" font-family="Helvetica" font-size="7.5" fill="#000000" >C</text>
<circle cx="256.7499" cy="322.9479" r="5.0" stroke="#595959" stroke-width="1.0" fill="#ffffff"/>
<text x="256.7499" y="325.6479" text-anchor="middle" font-family="Helvetica" font-size="7.5" fill="#000000" >A</text>
<circle cx="256.7499" cy="302.9480" r="5.0" stroke="#595959" stroke-width="1.0" fill="#ffffff"/>
<text x="256.7499" y="305.6480" text-anchor="middle" font-family="Helvetica" font-size="7.5" fill="#000000" >I</text>
<circle cx="256.7500" cy="282.9485" r="5.0" stroke="#595959" stroke-width="1.0" fill="orange"/>
<text x="256.7500" y="285.6485" text-anchor="middle" font-family="Helvetica" font-size="7.5" fill="#000000" >I</text>
<circle cx="256.7500" cy="262.9487" r="5.0" stroke="#595959" stroke-width="1.0" fill="orange"/>
<text x="256.7500" y="265.6487" text-anchor="middle" font-family="Helvetica" font-size="7.5" fill="#000000" >U</text>
<circle cx="256.7500" cy="242.9492" r="5.0" stroke="#595959" stroke-width="1.0" fill="#ffffff"/>
<text x="256.7500" y="245.6492" text-anchor="middle" font-family="Helvetica" font-size="7.5" fill="#000000" >I</text>
<circle cx="256.7500" cy="222.9493" r="5.0" stroke="#595959" stroke-width="1.0" fill="#ffffff"/>
<text x="256.7500" y="225.6493" text-anchor="middle" font-family="Helvetica" font-size="7.5" fill="#000000" >C</text>
<circle cx="256.7500" cy="202.9498" r="5.0" stroke="#595959" stroke-width="1.0" fill="#ffffff"/>
<text x="256.7500" y="205.6498" text-anchor="middle" font-family="Helvetica" font-size="7.5" fill="#000000" >U</text>
<circle cx="256.7500" cy="182.9499" r="5.0" stroke="#595959" stroke-width="1.0" fill="#ffffff"/>
<text x="256.7500" y="185.6499" text-anchor="middle" font-family="Helvetica" font-size="7.5" fill="#000000" >C</text>
<circle cx="256.7500" cy="162.9502" r="5.0" stroke="#595959" stroke-width="1.0" fill="#ffffff"/>
<text x="256.7500" y="165.6502" text-anchor="middle" font-family="Helvetica" font-size="7.5" fill="#000000" >C</text>
<circle cx="256.7500" cy="142.9503" r="5.0" stroke="#595959" stroke-width="1.0" fill="#ffffff"/>
<text x="256.7500" y="145.6503" text-anchor="middle" font-family="Helvetica" font-size="7.5" fill="#000000" >G</text>
<circle cx="256.7381" cy="122.9507" r="5.0" stroke="#595959" stroke-width="1.0" fill="#ffffff"/>
<text x="256.7381" y="125.6507" text-anchor="middle" font-family="Helvetica" font-size="7.5" fill="#000000" >A</text>
<circle cx="256.7295" cy="102.9505" r="5.0" stroke="#595959" stroke-width="1.0" fill="#ffffff"/>
<text x="256.7295" y="105.6505" text-anchor="middle" font-family="Helvetica" font-size="7.5" fill="#000000" >G</text>
<circle cx="263.0188" cy="83.9779" r="5.0" stroke="#595959" stroke-width="1.0" fill="#ffffff"/>
<text x="263.0188" y="86.6779" text-anchor="middle" font-family="Helvetica" font-size="7.5" fill="#000000" >G</text>
<circle cx="282.9814" cy="83.9780" r="5.0" stroke="#595959" stroke-width="1.0" fill="#ffffff"/>
<text x="282.9814" y="86.6780" text-anchor="middle" font-family="Helvetica" font-size="7.5" fill="#000000" >C</text>
<circle cx="289.2706" cy="102.9506" r="5.0" stroke="#595959" stroke-width="1.0" fill="#ffffff"/>
<text x="289.2706" y="105.6506" text-anchor="middle" font-family="Helvetica" font-size="7.5" fill="#000000" >C</text>
<circle cx="289.2619" cy="122.9507" r="5.0" stroke="#595959" stroke-width="1.0" fill="#ffffff"/>
<text x="289.2619" y="125.6507" text-anchor="middle" font-family="Helvetica" font-size="7.5" fill="#000000" >U</text>
<circle cx="289.2501" cy="142.9504" r="5.0" stroke="#595959" stroke-width="1.0" fill="#ffffff"/>
<text x="289.2501" y="145.6504" text-anchor="middle" font-family="Helvetica" font-size="7.5" fill="#000000" >C</text>
<circle cx="289.2500" cy="162.9503" r="5.0" stroke="#595959" stroke-width="1.0" fill="#ffffff"/>
<text x="289.2500" y="165.6503" text-anchor="middle" font-family="Helvetica" font-size="7.5" fill="#000000" >G</text>
<circle cx="289.2500" cy="182.9500" r="5.0" stroke="#595959" stroke-width="1.0" fill="#ffffff"/>
<text x="289.2500" y="185.6500" text-anchor="middle" font-family="Helvetica" font-size="7.5" fill="#000000" >G</text>
<circle cx="289.2500" cy="202.9499" r="5.0" stroke="#595959" stroke-width="1.0" fill="#ffffff"/>
<text x="289.2500" y="205.6499" text-anchor="middle" font-family="Helvetica" font-size="7.5" fill="#000000" >A</text>
<circle cx="289.2500" cy="222.9494" r="5.0" stroke="#595959" stroke-width="1.0" fill="#ffffff"/>
<text x="289.2500" y="225.6494" text-anchor="middle" font-family="Helvetica" font-size="7.5" fill="#000000" >G</text>
<circle cx="289.2500" cy="242.9493" r="5.0" stroke="#595959" stroke-width="1.0" fill="orange"/>
<text x="289.2500" y="245.6493" text-anchor="middle" font-family="Helvetica" font-size="7.5" fill="#000000" >U</text>
<circle cx="289.2500" cy="262.9488" r="5.0" stroke="#595959" stroke-width="1.0" fill="orange"/>
<text x="289.2500" y="265.6488" text-anchor="middle" font-family="Helvetica" font-size="7.5" fill="#000000" >I</text>
<circle cx="289.2500" cy="282.9486" r="5.0" stroke="#595959" stroke-width="1.0" fill="#ffffff"/>
<text x="289.2500" y="285.6486" text-anchor="middle" font-family="Helvetica" font-size="7.5" fill="#000000" >U</text>
<circle cx="289.2499" cy="302.9481" r="5.0" stroke="#595959" stroke-width="1.0" fill="#ffffff"/>
<text x="289.2499" y="305.6481" text-anchor="middle" font-family="Helvetica" font-size="7.5" fill="#000000" >U</text>
<circle cx="289.2499" cy="322.9480" r="5.0" stroke="#595959" stroke-width="1.0" fill="#ffffff"/>
<text x="289.2499" y="325.6480" text-anchor="middle" font-family="Helvetica" font-size="7.5" fill="#000000" >U</text>
<circle cx="289.2499" cy="342.9475" r="5.0" stroke="#595959" stroke-width="1.0" fill="#ffffff"/>
<text x="289.2499" y="345.6475" text-anchor="middle" font-family="Helvetica" font-size="7.5" fill="#000000" >G</text>
<circle cx="289.2499" cy="362.9474" r="5.0" stroke="#595959" stroke-width="1.0" fill="#ffffff"/>
<text x="289.2499" y="365.6474" text-anchor="middle" font-family="Helvetica" font-size="7.5" fill="#000000" >U</text>
<circle cx="289.2500" cy="382.9470" r="5.0" stroke="#595959" stroke-width="1.0" fill="#ffffff"/>
<text x="289.2500" y="385.6470" text-anchor="middle" font-family="Helvetica" font-size="7.5" fill="#000000" >C</text>
<circle cx="289.2500" cy="402.9470" r="5.0" stroke="#595959" stroke-width="1.0" fill="#ffffff"/>
<text x="289.2500" y="405.6470" text-anchor="middle" font-family="Helvetica" font-size="7.5" fill="#000000" >C</text>
<circle cx="289.2500" cy="422.9467" r="5.0" stroke="#595959" stroke-width="1.0" fill="#ffffff"/>
<text x="289.2500" y="425.6467" text-anchor="middle" font-family="Helvetica" font-size="7.5" fill="#000000" >A</text>
<circle cx="289.2501" cy="442.9467" r="5.0" stroke="#595959" stroke-width="1.0" fill="#ffffff"/>
<text x="289.2501" y="445.6467" text-anchor="middle" font-family="Helvetica" font-size="7.5" fill="#000000" >G</text>
<circle cx="289.2501" cy="462.9466" r="5.0" stroke="#595959" stroke-width="1.0" fill="#ffffff"/>
<text x="289.2501" y="465.6466" text-anchor="middle" font-family="Helvetica" font-size="7.5" fill="#000000" >U</text>
</svg>
