<?xml version="1.0" encoding="UTF-8"?>
<!DOCTYPE svg PUBLIC "-//W3C//DTD SVG 1.1//EN" 
"http://www.w3.org/Graphics/SVG/1.1/DTD/svg11.dtd">

<svg version="1.1"
   width="546px"
   height="546px"
xmlns="http://www.w3.org/2000/svg">
    <rect width="100%" height="100%" fill="white"/>

  <line x1="256.3777" y1="421.5144" x2="256.4318" y2="401.6081" stroke="#595959"
     style="stroke-width:2;stroke-miterlimit:4;stroke-dasharray:1,1;stroke-dashoffset:0" />
  <line x1="256.5938" y1="342.0470" x2="256.6326" y2="322.2359" stroke="#595959"
     style="stroke-width:2;stroke-miterlimit:4;stroke-dasharray:1,1;stroke-dashoffset:0" />
  <line x1="256.7539" y1="262.8896" x2="256.7864" y2="243.1323" stroke="#595959"
     style="stroke-width:2;stroke-miterlimit:4;stroke-dasharray:1,1;stroke-dashoffset:0" />
  <line x1="257.0124" y1="164.2004" x2="256.9837" y2="144.4748" stroke="#595959"
     style="stroke-width:2;stroke-miterlimit:4;stroke-dasharray:1,1;stroke-dashoffset:0" />
  <line x1="289.4834" y1="144.2943" x2="289.5118" y2="164.1024" stroke="#595959"
     style="stroke-width:2;stroke-miterlimit:4;stroke-dasharray:1,1;stroke-dashoffset:0" />
  <line x1="289.2863" y1="243.1397" x2="289.2602" y2="262.9049" stroke="#595959"
     style="stroke-width:2;stroke-miterlimit:4;stroke-dasharray:1,1;stroke-dashoffset:0" />
  <line x1="289.1540" y1="322.2585" x2="289.0937" y2="342.0711" stroke="#595959"
     style="stroke-width:2;stroke-miterlimit:4;stroke-dasharray:1,1;stroke-dashoffset:0" />
  <line x1="288.9318" y1="401.6381" x2="288.8777" y2="421.5461" stroke="#595959"
     style="stroke-width:2;stroke-miterlimit:4;stroke-dasharray:1,1;stroke-dashoffset:0" />
  <line x1="256.2726" y1="459.8187" x2="288.7727" y2="459.8523" stroke="#cd4500" stroke-width="1.0" />
  <circle cx="272.5226" cy="459.8355" r="2.25" stroke="#cd4500" stroke-width="1.0" fill="#cd4500"/>
  <line x1="256.5365" y1="363.4772" x2="289.0427" y2="363.5032" stroke="#e78c00" stroke-width="1.0" />
  <circle cx="272.7896" cy="363.4902" r="2.25" stroke="#e78c00" stroke-width="1.0" fill="#e78c00"/>
  <line x1="256.6315" y1="323.8359" x2="289.1528" y2="323.8585" stroke="#efaf00" stroke-width="1.0" />
  <circle cx="272.8922" cy="323.8472" r="2.25" stroke="#efaf00" stroke-width="1.0" fill="#efaf00"/>
  <line x1="256.6863" y1="300.8408" x2="289.1917" y2="300.8618" stroke="#960bd2" stroke-width="1.0" />
  <circle cx="272.9390" cy="300.8513" r="2.25" stroke="#960bd2" stroke-width="1.0" fill="#960bd2"/>
  <line x1="256.6842" y1="304.0408" x2="289.1896" y2="304.0618" stroke="#da6400" stroke-width="1.0" />
  <circle cx="272.9369" cy="304.0513" r="2.25" stroke="#da6400" stroke-width="1.0" fill="#da6400"/>
  <line x1="256.7220" y1="281.0591" x2="289.2323" y2="281.0782" stroke="#9d0eb1" stroke-width="1.0" />
  <circle cx="272.9771" cy="281.0686" r="2.25" stroke="#9d0eb1" stroke-width="1.0" fill="#9d0eb1"/>
  <line x1="256.7201" y1="284.2591" x2="289.2305" y2="284.2782" stroke="#e27c00" stroke-width="1.0" />
  <circle cx="272.9753" cy="284.2686" r="2.25" stroke="#e27c00" stroke-width="1.0" fill="#e27c00"/>
  <line x1="256.7546" y1="261.2896" x2="289.2610" y2="261.3049" stroke="#bf2d00" stroke-width="1.0" />
  <circle cx="273.0078" cy="261.2972" r="2.25" stroke="#bf2d00" stroke-width="1.0" fill="#bf2d00"/>
  <line x1="256.7531" y1="264.4896" x2="289.2595" y2="264.5049" stroke="#df7200" stroke-width="1.0" />
  <circle cx="273.0063" cy="264.4972" r="2.25" stroke="#df7200" stroke-width="1.0" fill="#df7200"/>
  <line x1="256.7539" y1="262.8896" x2="289.2314" y2="282.6782" stroke="#efaf00" stroke-width="1.0" />
  <circle cx="272.9926" cy="272.7839" r="2.25" stroke="#efaf00" stroke-width="1.0" fill="#efaf00"/>
  <line x1="256.7864" y1="243.1323" x2="289.2863" y2="243.1397" stroke="#5d01be" stroke-width="1.0" />
  <circle cx="273.0364" cy="243.1360" r="2.25" stroke="#5d01be" stroke-width="1.0" fill="#5d01be"/>
  <line x1="256.8635" y1="205.2582" x2="289.4231" y2="205.2212" stroke="#eeaa00" stroke-width="1.0" />
  <circle cx="273.1433" cy="205.2397" r="2.25" stroke="#eeaa00" stroke-width="1.0" fill="#eeaa00"/>
  <line x1="256.7958" y1="123.1846" x2="289.2685" y2="122.7762" stroke="#eda600" stroke-width="1.0" />
  <circle cx="273.0322" cy="122.9804" r="2.25" stroke="#eda600" stroke-width="1.0" fill="#eda600"/>
  <line x1="265.1158" y1="88.7038" x2="284.7995" y2="86.6625" stroke="#f1b400" stroke-width="1.0" />
  <circle cx="274.9576" cy="87.6831" r="2.25" stroke="#f1b400" stroke-width="1.0" fill="#f1b400"/>
  <line x1="256.2709" y1="461.4187" x2="256.3242" y2="441.4508" stroke="#37004b" stroke-width="1.0" />
  <rect
     style="fill:#ffffff;fill-opacity:1;fill-rule:nonzero;stroke:none"
     width="2"
     height="2"
     x="255.7976"
     y="450.4348"
     transform="rotate(-89.8470 256.2976 451.4348)" /> 
  <path
     style="fill:none;stroke:#37004b;stroke-width:1px;stroke-linecap:butt;stroke-linejoin:miter;stroke-opacity:1"
     d="m 256.2976,449.4348 2,2 -2,2 m -2.370121,-4 2,2 -2,2"
     transform="rotate(-89.8470 256.2976 451.4348)"/>
  <line x1="256.2693" y1="463.0187" x2="288.7694" y2="463.0523" stroke="#bb2700" stroke-width="1.0" />
  <line x1="256.3242" y1="441.4508" x2="256.3777" y2="421.5144" stroke="#7a03fd" stroke-width="1.0" />
  <rect
     style="fill:#ffffff;fill-opacity:1;fill-rule:nonzero;stroke:none"
     width="2"
     height="2"
     x="255.8510"
     y="430.4826"
     transform="rotate(-89.8462 256.3510 431.4826)" /> 
  <path
     style="fill:none;stroke:#7a03fd;stroke-width:1px;stroke-linecap:butt;stroke-linejoin:miter;stroke-opacity:1"
     d="m 256.3510,429.4826 2,2 -2,2 m -2.370121,-4 2,2 -2,2"
     transform="rotate(-89.8462 256.3510 431.4826)"/>
  <line x1="256.3230" y1="442.7008" x2="288.8230" y2="442.7338" stroke="#44006e" stroke-width="1.0" />
  <line x1="256.3255" y1="440.2008" x2="288.8255" y2="440.2338" stroke="#44006e" stroke-width="1.0" />
  <line x1="256.3777" y1="421.5144" x2="288.8777" y2="421.5461" stroke="#4b0084" stroke-width="1.0" />
  <line x1="256.4318" y1="401.6081" x2="256.4865" y2="381.7299" stroke="#cc4200" stroke-width="1.0" />
  <rect
     style="fill:#ffffff;fill-opacity:1;fill-rule:nonzero;stroke:none"
     width="2"
     height="2"
     x="255.9591"
     y="390.6690"
     transform="rotate(-89.8426 256.4591 391.6690)" /> 
  <path
     style="fill:none;stroke:#cc4200;stroke-width:1px;stroke-linecap:butt;stroke-linejoin:miter;stroke-opacity:1"
     d="m 256.4591,389.6690 2,2 -2,2 m -2.370121,-4 2,2 -2,2"
     transform="rotate(-89.8426 256.4591 391.6690)"/>
  <line x1="256.4307" y1="402.8581" x2="288.9307" y2="402.8881" stroke="#270026" stroke-width="1.0" />
  <line x1="256.4330" y1="400.3581" x2="288.9330" y2="400.3881" stroke="#270026" stroke-width="1.0" />
  <line x1="256.4318" y1="401.6081" x2="288.8777" y2="421.5461" stroke="#17000d" stroke-width="1.0" />
  <rect
     style="fill:#ffffff;stroke:none"
     width="5.5"
     height="2"
     x="269.9048"
     y="410.5771" 
     transform="rotate(31.5708 272.6548 411.5771)"    /> 
  <path
     style="fill:none;stroke:#17000d;stroke-width:1px;stroke-linecap:butt;stroke-linejoin:miter;stroke-opacity:1"
    d="m 273.4048,409.5771 2,2 -2,2 m -1.5,-4 -2,2 2,2" transform="rotate(31.5708 272.6548 411.5771)"/>
  <line x1="256.4865" y1="381.7299" x2="256.5378" y2="361.8772" stroke="#a9165c" stroke-width="1.0" />
  <rect
     style="fill:#ffffff;fill-opacity:1;fill-rule:nonzero;stroke:none"
     width="2"
     height="2"
     x="256.0121"
     y="370.8035"
     transform="rotate(-89.8519 256.5121 371.8035)" /> 
  <path
     style="fill:none;stroke:#a9165c;stroke-width:1px;stroke-linecap:butt;stroke-linejoin:miter;stroke-opacity:1"
     d="m 256.5121,369.8035 2,2 -2,2 m -2.370121,-4 2,2 -2,2"
     transform="rotate(-89.8519 256.5121 371.8035)"/>
  <line x1="256.4854" y1="382.9799" x2="288.9854" y2="383.0079" stroke="#3c0057" stroke-width="1.0" />
  <line x1="256.4875" y1="380.4799" x2="288.9875" y2="380.5079" stroke="#3c0057" stroke-width="1.0" />
  <line x1="256.4865" y1="381.7299" x2="288.9318" y2="401.6381" stroke="#efaf00" stroke-width="1.0" />
  <rect
     style="fill:#ffffff;stroke:none"
     width="5.5"
     height="2"
     x="269.9591"
     y="390.6840" 
     transform="rotate(31.5330 272.7091 391.6840)"    /> 
  <path
     style="fill:none;stroke:#efaf00;stroke-width:1px;stroke-linecap:butt;stroke-linejoin:miter;stroke-opacity:1"
    d="m 273.4591,389.6840 2,2 -2,2 m -1.5,-4 -2,2 2,2" transform="rotate(31.5330 272.7091 391.6840)"/>
  <line x1="256.5378" y1="361.8772" x2="256.5938" y2="342.0470" stroke="#000000" stroke-width="1.0" />
  <rect
     style="fill:#ffffff;fill-opacity:1;fill-rule:nonzero;stroke:none"
     width="2"
     height="2"
     x="256.0658"
     y="350.9621"
     transform="rotate(-89.8382 256.5658 351.9621)" /> 
  <path
     style="fill:none;stroke:#000000;stroke-width:1px;stroke-linecap:butt;stroke-linejoin:miter;stroke-opacity:1"
     d="m 256.5658,349.9621 2,2 -2,2 m -2.370121,-4 2,2 -2,2"
     transform="rotate(-89.8382 256.5658 351.9621)"/>
  <line x1="256.5391" y1="360.2772" x2="289.0452" y2="360.3032" stroke="#6f02ec" stroke-width="1.0" />
  <line x1="256.5929" y1="343.2970" x2="289.0928" y2="343.3211" stroke="#37004b" stroke-width="1.0" />
  <line x1="256.5947" y1="340.7970" x2="289.0946" y2="340.8211" stroke="#37004b" stroke-width="1.0" />
  <line x1="256.6326" y1="322.2359" x2="256.6852" y2="302.4408" stroke="#a0109e" stroke-width="1.0" />
  <rect
     style="fill:#ffffff;fill-opacity:1;fill-rule:nonzero;stroke:none"
     width="2"
     height="2"
     x="256.1589"
     y="311.3383"
     transform="rotate(-89.8477 256.6589 312.3383)" /> 
  <path
     style="fill:none;stroke:#a0109e;stroke-width:1px;stroke-linecap:butt;stroke-linejoin:miter;stroke-opacity:1"
     d="m 256.6589,310.3383 2,2 -2,2 m -2.370121,-4 2,2 -2,2"
     transform="rotate(-89.8477 256.6589 312.3383)"/>
  <line x1="256.6337" y1="320.6359" x2="289.1551" y2="320.6585" stroke="#5d01be" stroke-width="1.0" />
  <line x1="256.6326" y1="322.2359" x2="289.0937" y2="342.0711" stroke="#400062" stroke-width="1.0" />
  <rect
     style="fill:#ffffff;stroke:none"
     width="5.5"
     height="2"
     x="270.1132"
     y="331.1535" 
     transform="rotate(31.4268 272.8632 332.1535)"    /> 
  <path
     style="fill:none;stroke:#400062;stroke-width:1px;stroke-linecap:butt;stroke-linejoin:miter;stroke-opacity:1"
    d="m 273.6132,330.1535 2,2 -2,2 m -1.5,-4 -2,2 2,2" transform="rotate(31.4268 272.8632 332.1535)"/>
  <line x1="256.6852" y1="302.4408" x2="256.7210" y2="282.6591" stroke="#b92500" stroke-width="1.0" />
  <rect
     style="fill:#ffffff;fill-opacity:1;fill-rule:nonzero;stroke:none"
     width="2"
     height="2"
     x="256.2031"
     y="291.5499"
     transform="rotate(-89.8963 256.7031 292.5499)" /> 
  <path
     style="fill:none;stroke:#b92500;stroke-width:1px;stroke-linecap:butt;stroke-linejoin:miter;stroke-opacity:1"
     d="m 256.7031,290.5499 2,2 -2,2 m -2.370121,-4 2,2 -2,2"
     transform="rotate(-89.8963 256.7031 292.5499)"/>
  <line x1="256.7210" y1="282.6591" x2="256.7539" y2="262.8896" stroke="#7803fb" stroke-width="1.0" />
  <rect
     style="fill:#ffffff;fill-opacity:1;fill-rule:nonzero;stroke:none"
     width="2"
     height="2"
     x="256.2374"
     y="271.7743"
     transform="rotate(-89.9048 256.7374 272.7743)" /> 
  <path
     style="fill:none;stroke:#7803fb;stroke-width:1px;stroke-linecap:butt;stroke-linejoin:miter;stroke-opacity:1"
     d="m 256.7374,270.7743 2,2 -2,2 m -2.370121,-4 2,2 -2,2"
     transform="rotate(-89.9048 256.7374 272.7743)"/>
  <line x1="256.7864" y1="243.1323" x2="256.8294" y2="223.3883" stroke="#2d0032" stroke-width="1.0" />
  <rect
     style="fill:#ffffff;fill-opacity:1;fill-rule:nonzero;stroke:none"
     width="2"
     height="2"
     x="256.3079"
     y="232.2603"
     transform="rotate(-89.8753 256.8079 233.2603)" /> 
  <path
     style="fill:none;stroke:#2d0032;stroke-width:1px;stroke-linecap:butt;stroke-linejoin:miter;stroke-opacity:1"
     d="m 256.8079,231.2603 2,2 -2,2 m -2.370121,-4 2,2 -2,2"
     transform="rotate(-89.8753 256.8079 233.2603)"/>
  <line x1="256.7864" y1="243.1323" x2="289.2602" y2="262.9049" stroke="#7c03fe" stroke-width="1.0" />
  <rect
     style="fill:#ffffff;stroke:none"
     width="5.5"
     height="2"
     x="270.2733"
     y="252.0186" 
     transform="rotate(31.3364 273.0233 253.0186)"    /> 
  <path
     style="fill:none;stroke:#7c03fe;stroke-width:1px;stroke-linecap:butt;stroke-linejoin:miter;stroke-opacity:1"
    d="m 273.7733,251.0186 2,2 -2,2 m -1.5,-4 -2,2 2,2" transform="rotate(31.3364 273.0233 253.0186)"/>
  <line x1="256.8294" y1="223.3883" x2="256.8616" y2="203.6582" stroke="#7302f5" stroke-width="1.0" />
  <rect
     style="fill:#ffffff;fill-opacity:1;fill-rule:nonzero;stroke:none"
     width="2"
     height="2"
     x="256.3455"
     y="212.5233"
     transform="rotate(-89.9064 256.8455 213.5233)" /> 
  <path
     style="fill:none;stroke:#7302f5;stroke-width:1px;stroke-linecap:butt;stroke-linejoin:miter;stroke-opacity:1"
     d="m 256.8455,211.5233 2,2 -2,2 m -2.370121,-4 2,2 -2,2"
     transform="rotate(-89.9064 256.8455 213.5233)"/>
  <line x1="256.8297" y1="224.6383" x2="289.3295" y2="224.6298" stroke="#4e008f" stroke-width="1.0" />
  <line x1="256.8291" y1="222.1383" x2="289.3288" y2="222.1298" stroke="#4e008f" stroke-width="1.0" />
  <line x1="256.8616" y1="203.6582" x2="256.9346" y2="183.9356" stroke="#7302f5" stroke-width="1.0" />
  <rect
     style="fill:#ffffff;fill-opacity:1;fill-rule:nonzero;stroke:none"
     width="2"
     height="2"
     x="256.3981"
     y="192.7969"
     transform="rotate(-89.7880 256.8981 193.7969)" /> 
  <path
     style="fill:none;stroke:#7302f5;stroke-width:1px;stroke-linecap:butt;stroke-linejoin:miter;stroke-opacity:1"
     d="m 256.8981,191.7969 2,2 -2,2 m -2.370121,-4 2,2 -2,2"
     transform="rotate(-89.7880 256.8981 193.7969)"/>
  <line x1="256.8598" y1="202.0582" x2="289.4194" y2="202.0212" stroke="#5b01b5" stroke-width="1.0" />
  <line x1="256.9346" y1="183.9356" x2="257.0124" y2="164.2004" stroke="#7102f1" stroke-width="1.0" />
  <rect
     style="fill:#ffffff;fill-opacity:1;fill-rule:nonzero;stroke:none"
     width="2"
     height="2"
     x="256.4735"
     y="173.0680"
     transform="rotate(-89.7742 256.9735 174.0680)" /> 
  <path
     style="fill:none;stroke:#7102f1;stroke-width:1px;stroke-linecap:butt;stroke-linejoin:miter;stroke-opacity:1"
     d="m 256.9735,172.0680 2,2 -2,2 m -2.370121,-4 2,2 -2,2"
     transform="rotate(-89.7742 256.9735 174.0680)"/>
  <line x1="256.9375" y1="185.1856" x2="289.4371" y2="185.1113" stroke="#200019" stroke-width="1.0" />
  <line x1="256.9318" y1="182.6856" x2="289.4314" y2="182.6113" stroke="#200019" stroke-width="1.0" />
  <line x1="257.0162" y1="165.4504" x2="289.5156" y2="165.3524" stroke="#3c0057" stroke-width="1.0" />
  <line x1="257.0086" y1="162.9505" x2="289.5080" y2="162.8524" stroke="#3c0057" stroke-width="1.0" />
  <line x1="257.0124" y1="164.2004" x2="289.4342" y2="183.8613" stroke="#eca100" stroke-width="1.0" />
  <rect
     style="fill:#ffffff;stroke:none"
     width="5.5"
     height="2"
     x="270.4733"
     y="173.0309" 
     transform="rotate(31.2329 273.2233 174.0309)"    /> 
  <path
     style="fill:none;stroke:#eca100;stroke-width:1px;stroke-linecap:butt;stroke-linejoin:miter;stroke-opacity:1"
    d="m 273.9733,172.0309 2,2 -2,2 m -1.5,-4 -2,2 2,2" transform="rotate(31.2329 273.2233 174.0309)"/>
  <line x1="256.9837" y1="144.4748" x2="256.8159" y2="124.7845" stroke="#960bd2" stroke-width="1.0" />
  <rect
     style="fill:#ffffff;fill-opacity:1;fill-rule:nonzero;stroke:none"
     width="2"
     height="2"
     x="256.3998"
     y="133.6296"
     transform="rotate(269.5119 256.8998 134.6296)" /> 
  <path
     style="fill:none;stroke:#960bd2;stroke-width:1px;stroke-linecap:butt;stroke-linejoin:miter;stroke-opacity:1"
     d="m 256.8998,132.6296 2,2 -2,2 m -2.370121,-4 2,2 -2,2"
     transform="rotate(269.5119 256.8998 134.6296)"/>
  <line x1="256.9906" y1="145.7248" x2="289.4903" y2="145.5443" stroke="#37004b" stroke-width="1.0" />
  <line x1="256.9767" y1="143.2248" x2="289.4764" y2="143.0443" stroke="#37004b" stroke-width="1.0" />
  <line x1="256.9837" y1="144.4748" x2="289.5118" y2="164.1024" stroke="#17000d" stroke-width="1.0" />
  <rect
     style="fill:#ffffff;stroke:none"
     width="5.5"
     height="2"
     x="270.4977"
     y="153.2886" 
     transform="rotate(31.1070 273.2477 154.2886)"    /> 
  <path
     style="fill:none;stroke:#17000d;stroke-width:1px;stroke-linecap:butt;stroke-linejoin:miter;stroke-opacity:1"
    d="m 273.9977,152.2886 2,2 -2,2 m -1.5,-4 -2,2 2,2" transform="rotate(31.1070 273.2477 154.2886)"/>
  <line x1="256.8159" y1="124.7845" x2="256.4005" y2="105.0016" stroke="#a61473" stroke-width="1.0" />
  <rect
     style="fill:#ffffff;fill-opacity:1;fill-rule:nonzero;stroke:none"
     width="2"
     height="2"
     x="256.1082"
     y="113.8930"
     transform="rotate(268.7971 256.6082 114.8930)" /> 
  <path
     style="fill:none;stroke:#a61473;stroke-width:1px;stroke-linecap:butt;stroke-linejoin:miter;stroke-opacity:1"
     d="m 256.6082,112.8930 2,2 -2,2 m -2.370121,-4 2,2 -2,2"
     transform="rotate(268.7971 256.6082 114.8930)"/>
  <line x1="256.8360" y1="126.3843" x2="289.3088" y2="125.9759" stroke="#6001c6" stroke-width="1.0" />
  <line x1="256.4005" y1="105.0016" x2="264.9507" y2="87.1123" stroke="#bc2900" stroke-width="1.0" />
  <rect
     style="fill:#ffffff;fill-opacity:1;fill-rule:nonzero;stroke:none"
     width="2"
     height="2"
     x="260.1756"
     y="95.0570"
     transform="rotate(-64.4546 260.6756 96.0570)" /> 
  <path
     style="fill:none;stroke:#bc2900;stroke-width:1px;stroke-linecap:butt;stroke-linejoin:miter;stroke-opacity:1"
     d="m 260.6756,94.0570 2,2 -2,2 m -2.370121,-4 2,2 -2,2"
     transform="rotate(-64.4546 260.6756 96.0570)"/>
  <line x1="256.4222" y1="106.2514" x2="288.8766" y2="105.6886" stroke="#37004b" stroke-width="1.0" />
  <line x1="256.3789" y1="103.7518" x2="288.8332" y2="103.1890" stroke="#37004b" stroke-width="1.0" />
  <line x1="264.9146" y1="86.7642" x2="284.5983" y2="84.7229" stroke="#5500a3" stroke-width="1.0" />
  <line x1="264.6567" y1="84.2775" x2="284.3405" y2="82.2362" stroke="#5500a3" stroke-width="1.0" />
  <line x1="264.9507" y1="87.1123" x2="288.8549" y2="104.4388" stroke="#eca100" stroke-width="1.0" />
  <rect
     style="fill:#ffffff;stroke:none"
     width="5.5"
     height="2"
     x="274.1528"
     y="94.7755" 
     transform="rotate(35.9357 276.9028 95.7755)"    /> 
  <path
     style="fill:none;stroke:#eca100;stroke-width:1px;stroke-linecap:butt;stroke-linejoin:miter;stroke-opacity:1"
    d="m 277.6528,93.7755 2,2 -2,2 m -1.5,-4 -2,2 2,2" transform="rotate(35.9357 276.9028 95.7755)"/>
  <line x1="284.6344" y1="85.0710" x2="288.8549" y2="104.4388" stroke="#960bd2" stroke-width="1.0" />
  <rect
     style="fill:#ffffff;fill-opacity:1;fill-rule:nonzero;stroke:none"
     width="2"
     height="2"
     x="286.2447"
     y="93.7549"
     transform="rotate(77.7068 286.7447 94.7549)" /> 
  <path
     style="fill:none;stroke:#960bd2;stroke-width:1px;stroke-linecap:butt;stroke-linejoin:miter;stroke-opacity:1"
     d="m 286.7447,92.7549 2,2 -2,2 m -2.370121,-4 2,2 -2,2"
     transform="rotate(77.7068 286.7447 94.7549)"/>
  <line x1="288.8549" y1="104.4388" x2="289.2886" y2="124.3760" stroke="#8605fc" stroke-width="1.0" />
  <rect
     style="fill:#ffffff;fill-opacity:1;fill-rule:nonzero;stroke:none"
     width="2"
     height="2"
     x="288.5718"
     y="113.4074"
     transform="rotate(88.7538 289.0718 114.4074)" /> 
  <path
     style="fill:none;stroke:#8605fc;stroke-width:1px;stroke-linecap:butt;stroke-linejoin:miter;stroke-opacity:1"
     d="m 289.0718,112.4074 2,2 -2,2 m -2.370121,-4 2,2 -2,2"
     transform="rotate(88.7538 289.0718 114.4074)"/>
  <line x1="289.2886" y1="124.3760" x2="289.4834" y2="144.2943" stroke="#8405fd" stroke-width="1.0" />
  <rect
     style="fill:#ffffff;fill-opacity:1;fill-rule:nonzero;stroke:none"
     width="2"
     height="2"
     x="288.8860"
     y="133.3352"
     transform="rotate(89.4399 289.3860 134.3352)" /> 
  <path
     style="fill:none;stroke:#8405fd;stroke-width:1px;stroke-linecap:butt;stroke-linejoin:miter;stroke-opacity:1"
     d="m 289.3860,132.3352 2,2 -2,2 m -2.370121,-4 2,2 -2,2"
     transform="rotate(89.4399 289.3860 134.3352)"/>
  <line x1="289.5118" y1="164.1024" x2="289.4342" y2="183.8613" stroke="#d75b00" stroke-width="1.0" />
  <rect
     style="fill:#ffffff;fill-opacity:1;fill-rule:nonzero;stroke:none"
     width="2"
     height="2"
     x="288.9730"
     y="172.9818"
     transform="rotate(90.2249 289.4730 173.9818)" /> 
  <path
     style="fill:none;stroke:#d75b00;stroke-width:1px;stroke-linecap:butt;stroke-linejoin:miter;stroke-opacity:1"
     d="m 289.4730,171.9818 2,2 -2,2 m -2.370121,-4 2,2 -2,2"
     transform="rotate(90.2249 289.4730 173.9818)"/>
  <line x1="289.4342" y1="183.8613" x2="289.4212" y2="203.6212" stroke="#a5137f" stroke-width="1.0" />
  <rect
     style="fill:#ffffff;fill-opacity:1;fill-rule:nonzero;stroke:none"
     width="2"
     height="2"
     x="288.9277"
     y="192.7413"
     transform="rotate(90.0377 289.4277 193.7413)" /> 
  <path
     style="fill:none;stroke:#a5137f;stroke-width:1px;stroke-linecap:butt;stroke-linejoin:miter;stroke-opacity:1"
     d="m 289.4277,191.7413 2,2 -2,2 m -2.370121,-4 2,2 -2,2"
     transform="rotate(90.0377 289.4277 193.7413)"/>
  <line x1="289.4212" y1="203.6212" x2="289.3291" y2="223.3798" stroke="#a5137f" stroke-width="1.0" />
  <rect
     style="fill:#ffffff;fill-opacity:1;fill-rule:nonzero;stroke:none"
     width="2"
     height="2"
     x="288.8752"
     y="212.5005"
     transform="rotate(90.2671 289.3752 213.5005)" /> 
  <path
     style="fill:none;stroke:#a5137f;stroke-width:1px;stroke-linecap:butt;stroke-linejoin:miter;stroke-opacity:1"
     d="m 289.3752,211.5005 2,2 -2,2 m -2.370121,-4 2,2 -2,2"
     transform="rotate(90.2671 289.3752 213.5005)"/>
  <line x1="289.3291" y1="223.3798" x2="289.2863" y2="243.1397" stroke="#000000" stroke-width="1.0" />
  <rect
     style="fill:#ffffff;fill-opacity:1;fill-rule:nonzero;stroke:none"
     width="2"
     height="2"
     x="288.8077"
     y="232.2597"
     transform="rotate(90.1243 289.3077 233.2597)" /> 
  <path
     style="fill:none;stroke:#000000;stroke-width:1px;stroke-linecap:butt;stroke-linejoin:miter;stroke-opacity:1"
     d="m 289.3077,231.2597 2,2 -2,2 m -2.370121,-4 2,2 -2,2"
     transform="rotate(90.1243 289.3077 233.2597)"/>
  <line x1="289.2602" y1="262.9049" x2="289.2314" y2="282.6782" stroke="#9309df" stroke-width="1.0" />
  <rect
     style="fill:#ffffff;fill-opacity:1;fill-rule:nonzero;stroke:none"
     width="2"
     height="2"
     x="288.7458"
     y="271.7915"
     transform="rotate(90.0836 289.2458 272.7915)" /> 
  <path
     style="fill:none;stroke:#9309df;stroke-width:1px;stroke-linecap:butt;stroke-linejoin:miter;stroke-opacity:1"
     d="m 289.2458,270.7915 2,2 -2,2 m -2.370121,-4 2,2 -2,2"
     transform="rotate(90.0836 289.2458 272.7915)"/>
  <line x1="289.2314" y1="282.6782" x2="289.1906" y2="302.4618" stroke="#940ad9" stroke-width="1.0" />
  <rect
     style="fill:#ffffff;fill-opacity:1;fill-rule:nonzero;stroke:none"
     width="2"
     height="2"
     x="288.7110"
     y="291.5700"
     transform="rotate(90.1180 289.2110 292.5700)" /> 
  <path
     style="fill:none;stroke:#940ad9;stroke-width:1px;stroke-linecap:butt;stroke-linejoin:miter;stroke-opacity:1"
     d="m 289.2110,290.5700 2,2 -2,2 m -2.370121,-4 2,2 -2,2"
     transform="rotate(90.1180 289.2110 292.5700)"/>
  <line x1="289.1906" y1="302.4618" x2="289.1540" y2="322.2585" stroke="#ab1751" stroke-width="1.0" />
  <rect
     style="fill:#ffffff;fill-opacity:1;fill-rule:nonzero;stroke:none"
     width="2"
     height="2"
     x="288.6723"
     y="311.3601"
     transform="rotate(90.1062 289.1723 312.3601)" /> 
  <path
     style="fill:none;stroke:#ab1751;stroke-width:1px;stroke-linecap:butt;stroke-linejoin:miter;stroke-opacity:1"
     d="m 289.1723,310.3601 2,2 -2,2 m -2.370121,-4 2,2 -2,2"
     transform="rotate(90.1062 289.1723 312.3601)"/>
  <line x1="289.0937" y1="342.0711" x2="289.0439" y2="361.9032" stroke="#000000" stroke-width="1.0" />
  <rect
     style="fill:#ffffff;fill-opacity:1;fill-rule:nonzero;stroke:none"
     width="2"
     height="2"
     x="288.5688"
     y="350.9872"
     transform="rotate(90.1438 289.0688 351.9872)" /> 
  <path
     style="fill:none;stroke:#000000;stroke-width:1px;stroke-linecap:butt;stroke-linejoin:miter;stroke-opacity:1"
     d="m 289.0688,349.9872 2,2 -2,2 m -2.370121,-4 2,2 -2,2"
     transform="rotate(90.1438 289.0688 351.9872)"/>
  <line x1="289.0439" y1="361.9032" x2="288.9864" y2="381.7579" stroke="#8806f9" stroke-width="1.0" />
  <rect
     style="fill:#ffffff;fill-opacity:1;fill-rule:nonzero;stroke:none"
     width="2"
     height="2"
     x="288.5152"
     y="370.8306"
     transform="rotate(90.1659 289.0152 371.8306)" /> 
  <path
     style="fill:none;stroke:#8806f9;stroke-width:1px;stroke-linecap:butt;stroke-linejoin:miter;stroke-opacity:1"
     d="m 289.0152,369.8306 2,2 -2,2 m -2.370121,-4 2,2 -2,2"
     transform="rotate(90.1659 289.0152 371.8306)"/>
  <line x1="288.9864" y1="381.7579" x2="288.9318" y2="401.6381" stroke="#7602f8" stroke-width="1.0" />
  <rect
     style="fill:#ffffff;fill-opacity:1;fill-rule:nonzero;stroke:none"
     width="2"
     height="2"
     x="288.4591"
     y="390.6980"
     transform="rotate(90.1574 288.9591 391.6980)" /> 
  <path
     style="fill:none;stroke:#7602f8;stroke-width:1px;stroke-linecap:butt;stroke-linejoin:miter;stroke-opacity:1"
     d="m 288.9591,389.6980 2,2 -2,2 m -2.370121,-4 2,2 -2,2"
     transform="rotate(90.1574 288.9591 391.6980)"/>
  <line x1="288.8777" y1="421.5461" x2="288.8242" y2="441.4838" stroke="#a0109e" stroke-width="1.0" />
  <rect
     style="fill:#ffffff;fill-opacity:1;fill-rule:nonzero;stroke:none"
     width="2"
     height="2"
     x="288.3510"
     y="430.5150"
     transform="rotate(90.1538 288.8510 431.5150)" /> 
  <path
     style="fill:none;stroke:#a0109e;stroke-width:1px;stroke-linecap:butt;stroke-linejoin:miter;stroke-opacity:1"
     d="m 288.8510,429.5150 2,2 -2,2 m -2.370121,-4 2,2 -2,2"
     transform="rotate(90.1538 288.8510 431.5150)"/>
  <line x1="288.8242" y1="441.4838" x2="288.7711" y2="461.4523" stroke="#5b01b5" stroke-width="1.0" />
  <rect
     style="fill:#ffffff;fill-opacity:1;fill-rule:nonzero;stroke:none"
     width="2"
     height="2"
     x="288.2976"
     y="450.4681"
     transform="rotate(90.1525 288.7976 451.4681)" /> 
  <path
     style="fill:none;stroke:#5b01b5;stroke-width:1px;stroke-linecap:butt;stroke-linejoin:miter;stroke-opacity:1"
     d="m 288.7976,449.4681 2,2 -2,2 m -2.370121,-4 2,2 -2,2"
     transform="rotate(90.1525 288.7976 451.4681)"/>
<circle cx="256.2709" cy="461.4187" r="5.0" stroke="#595959" stroke-width="1.0" fill="#ffffff"/>
<text x="256.2709" y="464.1187" text-anchor="middle" font-family="Helvetica" font-size="7.5" fill="#000000" >A</text>
<circle cx="256.3242" cy="441.4508" r="5.0" stroke="#595959" stroke-width="1.0" fill="#ffffff"/>
<text x="256.3242" y="444.1508" text-anchor="middle" font-family="Helvetica" font-size="7.5" fill="#000000" >C</text>
<circle cx="256.3777" cy="421.5144" r="5.0" stroke="#595959" stroke-width="1.0" fill="#ffffff"/>
<text x="256.3777" y="424.2144" text-anchor="middle" font-family="Helvetica" font-size="7.5" fill="#000000" >U</text>
<circle cx="256.4318" cy="401.6081" r="5.0" stroke="#595959" stroke-width="1.0" fill="#ffffff"/>
<text x="256.4318" y="404.3081" text-anchor="middle" font-family="Helvetica" font-size="7.5" fill="#000000" >G</text>
<circle cx="256.4865" cy="381.7299" r="5.0" stroke="#595959" stroke-width="1.0" fill="#ffffff"/>
<text x="256.4865" y="384.4299" text-anchor="middle" font-family="Helvetica" font-size="7.5" fill="#000000" >G</text>
<circle cx="256.5378" cy="361.8772" r="5.0" stroke="#595959" stroke-width="1.0" fill="#ffffff"/>
<text x="256.5378" y="364.5772" text-anchor="middle" font-family="Helvetica" font-size="7.5" fill="#000000" >A</text>
<circle cx="256.5938" cy="342.0470" r="5.0" stroke="#595959" stroke-width="1.0" fill="#ffffff"/>
<text x="256.5938" y="344.7470" text-anchor="middle" font-family="Helvetica" font-size="7.5" fill="#000000" >C</text>
<circle cx="256.6326" cy="322.2359" r="5.0" stroke="#595959" stroke-width="1.0" fill="#ffffff"/>
<text x="256.6326" y="324.9359" text-anchor="middle" font-family="Helvetica" font-size="7.5" fill="#000000" >A</text>
<circle cx="256.6852" cy="302.4408" r="5.0" stroke="#595959" stroke-width="1.0" fill="#ffffff"/>
<text x="256.6852" y="305.1408" text-anchor="middle" font-family="Helvetica" font-size="7.5" fill="#000000" >I</text>
<circle cx="256.7210" cy="282.6591" r="5.0" stroke="#595959" stroke-width="1.0" fill="#ffffff"/>
<text x="256.7210" y="285.3591" text-anchor="middle" font-family="Helvetica" font-size="7.5" fill="#000000" >I</text>
<circle cx="256.7539" cy="262.8896" r="5.0" stroke="#595959" stroke-width="1.0" fill="#ffffff"/>
<text x="256.7539" y="265.5896" text-anchor="middle" font-family="Helvetica" font-size="7.5" fill="#000000" >U</text>
<circle cx="256.7864" cy="243.1323" r="5.0" stroke="#595959" stroke-width="1.0" fill="orange"/>
<text x="256.7864" y="245.8323" text-anchor="middle" font-family="Helvetica" font-size="7.5" fill="#000000" >I</text>
<circle cx="256.8294" cy="223.3883" r="5.0" stroke="#595959" stroke-width="1.0" fill="#ffffff"/>
<text x="256.8294" y="226.0883" text-anchor="middle" font-family="Helvetica" font-size="7.5" fill="#000000" >C</text>
<circle cx="256.8616" cy="203.6582" r="5.0" stroke="#595959" stroke-width="1.0" fill="#ffffff"/>
<text x="256.8616" y="206.3582" text-anchor="middle" font-family="Helvetica" font-size="7.5" fill="#000000" >U</text>
<circle cx="256.9346" cy="183.9356" r="5.0" stroke="#595959" stroke-width="1.0" fill="#ffffff"/>
<text x="256.9346" y="186.6356" text-anchor="middle" font-family="Helvetica" font-size="7.5" fill="#000000" >C</text>
<circle cx="257.0124" cy="164.2004" r="5.0" stroke="#595959" stroke-width="1.0" fill="#ffffff"/>
<text x="257.0124" y="166.9004" text-anchor="middle" font-family="Helvetica" font-size="7.5" fill="#000000" >C</text>
<circle cx="256.9837" cy="144.4748" r="5.0" stroke="#595959" stroke-width="1.0" fill="#ffffff"/>
<text x="256.9837" y="147.1748" text-anchor="middle" font-family="Helvetica" font-size="7.5" fill="#000000" >G</text>
<circle cx="256.8159" cy="124.7845" r="5.0" stroke="#595959" stroke-width="1.0" fill="#ffffff"/>
<text x="256.8159" y="127.4845" text-anchor="middle" font-family="Helvetica" font-size="7.5" fill="#000000" >A</text>
<circle cx="256.4005" cy="105.0016" r="5.0" stroke="#595959" stroke-width="1.0" fill="#ffffff"/>
<text x="256.4005" y="107.7016" text-anchor="middle" font-family="Helvetica" font-size="7.5" fill="#000000" >G</text>
<circle cx="264.9507" cy="87.1123" r="5.0" stroke="#595959" stroke-width="1.0" fill="#ffffff"/>
<text x="264.9507" y="89.8123" text-anchor="middle" font-family="Helvetica" font-size="7.5" fill="#000000" >G</text>
<circle cx="284.6344" cy="85.0710" r="5.0" stroke="#595959" stroke-width="1.0" fill="#ffffff"/>
<text x="284.6344" y="87.7710" text-anchor="middle" font-family="Helvetica" font-size="7.5" fill="#000000" >C</text>
<circle cx="288.8549" cy="104.4388" r="5.0" stroke="#595959" stroke-width="1.0" fill="#ffffff"/>
<text x="288.8549" y="107.1388" text-anchor="middle" font-family="Helvetica" font-size="7.5" fill="#000000" >C</text>
<circle cx="289.2886" cy="124.3760" r="5.0" stroke="#595959" stroke-width="1.0" fill="#ffffff"/>
<text x="289.2886" y="127.0760" text-anchor="middle" font-family="Helvetica" font-size="7.5" fill="#000000" >U</text>
<circle cx="289.4834" cy="144.2943" r="5.0" stroke="#595959" stroke-width="1.0" fill="#ffffff"/>
<text x="289.4834" y="146.9943" text-anchor="middle" font-family="Helvetica" font-size="7.5" fill="#000000" >C</text>
<circle cx="289.5118" cy="164.1024" r="5.0" stroke="#595959" stroke-width="1.0" fill="#ffffff"/>
<text x="289.5118" y="166.8024" text-anchor="middle" font-family="Helvetica" font-size="7.5" fill="#000000" >G</text>
<circle cx="289.4342" cy="183.8613" r="5.0" stroke="#595959" stroke-width="1.0" fill="#ffffff"/>
<text x="289.4342" y="186.5613" text-anchor="middle" font-family="Helvetica" font-size="7.5" fill="#000000" >G</text>
<circle cx="289.4212" cy="203.6212" r="5.0" stroke="#595959" stroke-width="1.0" fill="#ffffff"/>
<text x="289.4212" y="206.3212" text-anchor="middle" font-family="Helvetica" font-size="7.5" fill="#000000" >A</text>
<circle cx="289.3291" cy="223.3798" r="5.0" stroke="#595959" stroke-width="1.0" fill="#ffffff"/>
<text x="289.3291" y="226.0798" text-anchor="middle" font-family="Helvetica" font-size="7.5" fill="#000000" >G</text>
<circle cx="289.2863" cy="243.1397" r="5.0" stroke="#595959" stroke-width="1.0" fill="#ffffff"/>
<text x="289.2863" y="245.8397" text-anchor="middle" font-family="Helvetica" font-size="7.5" fill="#000000" >U</text>
<circle cx="289.2602" cy="262.9049" r="5.0" stroke="#595959" stroke-width="1.0" fill="#ffffff"/>
<text x="289.2602" y="265.6049" text-anchor="middle" font-family="Helvetica" font-size="7.5" fill="#000000" >I</text>
<circle cx="289.2314" cy="282.6782" r="5.0" stroke="#595959" stroke-width="1.0" fill="#ffffff"/>
<text x="289.2314" y="285.3782" text-anchor="middle" font-family="Helvetica" font-size="7.5" fill="#000000" >U</text>
<circle cx="289.1906" cy="302.4618" r="5.0" stroke="#595959" stroke-width="1.0" fill="#ffffff"/>
<text x="289.1906" y="305.1618" text-anchor="middle" font-family="Helvetica" font-size="7.5" fill="#000000" >U</text>
<circle cx="289.1540" cy="322.2585" r="5.0" stroke="#595959" stroke-width="1.0" fill="#ffffff"/>
<text x="289.1540" y="324.9585" text-anchor="middle" font-family="Helvetica" font-size="7.5" fill="#000000" >U</text>
<circle cx="289.0937" cy="342.0711" r="5.0" stroke="#595959" stroke-width="1.0" fill="#ffffff"/>
<text x="289.0937" y="344.7711" text-anchor="middle" font-family="Helvetica" font-size="7.5" fill="#000000" >G</text>
<circle cx="289.0439" cy="361.9032" r="5.0" stroke="#595959" stroke-width="1.0" fill="#ffffff"/>
<text x="289.0439" y="364.6032" text-anchor="middle" font-family="Helvetica" font-size="7.5" fill="#000000" >U</text>
<circle cx="288.9864" cy="381.7579" r="5.0" stroke="#595959" stroke-width="1.0" fill="#ffffff"/>
<text x="288.9864" y="384.4579" text-anchor="middle" font-family="Helvetica" font-size="7.5" fill="#000000" >C</text>
<circle cx="288.9318" cy="401.6381" r="5.0" stroke="#595959" stroke-width="1.0" fill="#ffffff"/>
<text x="288.9318" y="404.3381" text-anchor="middle" font-family="Helvetica" font-size="7.5" fill="#000000" >C</text>
<circle cx="288.8777" cy="421.5461" r="5.0" stroke="#595959" stroke-width="1.0" fill="#ffffff"/>
<text x="288.8777" y="424.2461" text-anchor="middle" font-family="Helvetica" font-size="7.5" fill="#000000" >A</text>
<circle cx="288.8242" cy="441.4838" r="5.0" stroke="#595959" stroke-width="1.0" fill="#ffffff"/>
<text x="288.8242" y="444.1838" text-anchor="middle" font-family="Helvetica" font-size="7.5" fill="#000000" >G</text>
<circle cx="288.7711" cy="461.4523" r="5.0" stroke="#595959" stroke-width="1.0" fill="#ffffff"/>
<text x="288.7711" y="464.1523" text-anchor="middle" font-family="Helvetica" font-size="7.5" fill="#000000" >U</text>
</svg>
