<?xml version="1.0" encoding="UTF-8"?>
<!DOCTYPE svg PUBLIC "-//W3C//DTD SVG 1.1//EN" 
"http://www.w3.org/Graphics/SVG/1.1/DTD/svg11.dtd">

<svg version="1.1"
   width="546px"
   height="546px"
xmlns="http://www.w3.org/2000/svg">
    <rect width="100%" height="100%" fill="white"/>

  <line x1="256.7500" y1="422.9474" x2="256.7500" y2="402.9476" stroke="#595959"
     style="stroke-width:2;stroke-miterlimit:4;stroke-dasharray:1,1;stroke-dashoffset:0" />
  <line x1="256.7500" y1="342.9479" x2="256.7500" y2="322.9483" stroke="#595959"
     style="stroke-width:2;stroke-miterlimit:4;stroke-dasharray:1,1;stroke-dashoffset:0" />
  <line x1="256.7500" y1="262.9486" x2="256.7500" y2="242.9490" stroke="#595959"
     style="stroke-width:2;stroke-miterlimit:4;stroke-dasharray:1,1;stroke-dashoffset:0" />
  <line x1="256.7500" y1="162.9497" x2="256.7500" y2="142.9496" stroke="#595959"
     style="stroke-width:2;stroke-miterlimit:4;stroke-dasharray:1,1;stroke-dashoffset:0" />
  <line x1="289.2500" y1="142.9496" x2="289.2500" y2="162.9497" stroke="#595959"
     style="stroke-width:2;stroke-miterlimit:4;stroke-dasharray:1,1;stroke-dashoffset:0" />
  <line x1="289.2500" y1="242.9490" x2="289.2500" y2="262.9486" stroke="#595959"
     style="stroke-width:2;stroke-miterlimit:4;stroke-dasharray:1,1;stroke-dashoffset:0" />
  <line x1="289.2500" y1="322.9483" x2="289.2500" y2="342.9479" stroke="#595959"
     style="stroke-width:2;stroke-miterlimit:4;stroke-dasharray:1,1;stroke-dashoffset:0" />
  <line x1="289.2500" y1="402.9476" x2="289.2500" y2="422.9474" stroke="#595959"
     style="stroke-width:2;stroke-miterlimit:4;stroke-dasharray:1,1;stroke-dashoffset:0" />
  <line x1="256.7500" y1="461.3474" x2="289.2500" y2="461.3474" stroke="#c83b00" stroke-width="1.0" />
  <circle cx="273.0000" cy="461.3474" r="2.25" stroke="#c83b00" stroke-width="1.0" fill="#c83b00"/>
  <line x1="256.7500" y1="424.5474" x2="289.2500" y2="424.5474" stroke="#eb9d00" stroke-width="1.0" />
  <circle cx="273.0000" cy="424.5474" r="2.25" stroke="#eb9d00" stroke-width="1.0" fill="#eb9d00"/>
  <line x1="256.7500" y1="301.3482" x2="289.2500" y2="301.3482" stroke="#ae1a38" stroke-width="1.0" />
  <circle cx="273.0000" cy="301.3482" r="2.25" stroke="#ae1a38" stroke-width="1.0" fill="#ae1a38"/>
  <line x1="256.7500" y1="304.5482" x2="289.2500" y2="304.5482" stroke="#ce4700" stroke-width="1.0" />
  <circle cx="273.0000" cy="304.5482" r="2.25" stroke="#ce4700" stroke-width="1.0" fill="#ce4700"/>
  <line x1="256.7500" y1="281.3487" x2="289.2500" y2="281.3487" stroke="#960bd2" stroke-width="1.0" />
  <circle cx="273.0000" cy="281.3487" r="2.25" stroke="#960bd2" stroke-width="1.0" fill="#960bd2"/>
  <line x1="256.7500" y1="284.5487" x2="289.2500" y2="284.5487" stroke="#e07500" stroke-width="1.0" />
  <circle cx="273.0000" cy="284.5487" r="2.25" stroke="#e07500" stroke-width="1.0" fill="#e07500"/>
  <line x1="256.7500" y1="282.9487" x2="289.2500" y2="302.9482" stroke="#da6400" stroke-width="1.0" />
  <circle cx="273.0000" cy="292.9484" r="2.25" stroke="#da6400" stroke-width="1.0" fill="#da6400"/>
  <line x1="256.7500" y1="261.3486" x2="289.2500" y2="261.3486" stroke="#ae1a38" stroke-width="1.0" />
  <circle cx="273.0000" cy="261.3486" r="2.25" stroke="#ae1a38" stroke-width="1.0" fill="#ae1a38"/>
  <line x1="256.7500" y1="264.5486" x2="289.2500" y2="264.5486" stroke="#ce4700" stroke-width="1.0" />
  <circle cx="273.0000" cy="264.5486" r="2.25" stroke="#ce4700" stroke-width="1.0" fill="#ce4700"/>
  <line x1="256.7500" y1="242.9490" x2="289.2500" y2="242.9490" stroke="#5500a3" stroke-width="1.0" />
  <circle cx="273.0000" cy="242.9490" r="2.25" stroke="#5500a3" stroke-width="1.0" fill="#5500a3"/>
  <line x1="256.7382" y1="121.3500" x2="289.2618" y2="121.3500" stroke="#eb9d00" stroke-width="1.0" />
  <circle cx="273.0000" cy="121.3500" r="2.25" stroke="#eb9d00" stroke-width="1.0" fill="#eb9d00"/>
  <line x1="256.7500" y1="462.9474" x2="256.7500" y2="442.9474" stroke="#5500a3" stroke-width="1.0" />
  <rect
     style="fill:#ffffff;fill-opacity:1;fill-rule:nonzero;stroke:none"
     width="2"
     height="2"
     x="256.2500"
     y="451.9474"
     transform="rotate(270.0000 256.7500 452.9474)" /> 
  <path
     style="fill:none;stroke:#5500a3;stroke-width:1px;stroke-linecap:butt;stroke-linejoin:miter;stroke-opacity:1"
     d="m 256.7500,450.9474 2,2 -2,2 m -2.370121,-4 2,2 -2,2"
     transform="rotate(270.0000 256.7500 452.9474)"/>
  <line x1="256.7500" y1="464.5474" x2="289.2500" y2="464.5474" stroke="#c83b00" stroke-width="1.0" />
  <line x1="256.7500" y1="442.9474" x2="256.7500" y2="422.9474" stroke="#6f02ec" stroke-width="1.0" />
  <rect
     style="fill:#ffffff;fill-opacity:1;fill-rule:nonzero;stroke:none"
     width="2"
     height="2"
     x="256.2500"
     y="431.9474"
     transform="rotate(-90.0000 256.7500 432.9474)" /> 
  <path
     style="fill:none;stroke:#6f02ec;stroke-width:1px;stroke-linecap:butt;stroke-linejoin:miter;stroke-opacity:1"
     d="m 256.7500,430.9474 2,2 -2,2 m -2.370121,-4 2,2 -2,2"
     transform="rotate(-90.0000 256.7500 432.9474)"/>
  <line x1="256.7500" y1="444.1974" x2="289.2500" y2="444.1974" stroke="#000000" stroke-width="1.0" />
  <line x1="256.7500" y1="441.6974" x2="289.2500" y2="441.6974" stroke="#000000" stroke-width="1.0" />
  <line x1="256.7500" y1="421.3474" x2="289.2500" y2="421.3474" stroke="#6301ce" stroke-width="1.0" />
  <line x1="256.7500" y1="402.9476" x2="256.7500" y2="382.9476" stroke="#da6400" stroke-width="1.0" />
  <rect
     style="fill:#ffffff;fill-opacity:1;fill-rule:nonzero;stroke:none"
     width="2"
     height="2"
     x="256.2500"
     y="391.9476"
     transform="rotate(-90.0000 256.7500 392.9476)" /> 
  <path
     style="fill:none;stroke:#da6400;stroke-width:1px;stroke-linecap:butt;stroke-linejoin:miter;stroke-opacity:1"
     d="m 256.7500,390.9476 2,2 -2,2 m -2.370121,-4 2,2 -2,2"
     transform="rotate(-90.0000 256.7500 392.9476)"/>
  <line x1="256.7500" y1="404.1976" x2="289.2500" y2="404.1976" stroke="#000000" stroke-width="1.0" />
  <line x1="256.7500" y1="401.6976" x2="289.2500" y2="401.6976" stroke="#000000" stroke-width="1.0" />
  <line x1="256.7500" y1="402.9476" x2="289.2500" y2="422.9474" stroke="#000000" stroke-width="1.0" />
  <rect
     style="fill:#ffffff;stroke:none"
     width="5.5"
     height="2"
     x="270.2500"
     y="411.9475" 
     transform="rotate(31.6072 273.0000 412.9475)"    /> 
  <path
     style="fill:none;stroke:#000000;stroke-width:1px;stroke-linecap:butt;stroke-linejoin:miter;stroke-opacity:1"
    d="m 273.7500,410.9475 2,2 -2,2 m -1.5,-4 -2,2 2,2" transform="rotate(31.6072 273.0000 412.9475)"/>
  <line x1="256.7500" y1="382.9476" x2="256.7500" y2="362.9479" stroke="#8405fd" stroke-width="1.0" />
  <rect
     style="fill:#ffffff;fill-opacity:1;fill-rule:nonzero;stroke:none"
     width="2"
     height="2"
     x="256.2500"
     y="371.9478"
     transform="rotate(-90.0000 256.7500 372.9478)" /> 
  <path
     style="fill:none;stroke:#8405fd;stroke-width:1px;stroke-linecap:butt;stroke-linejoin:miter;stroke-opacity:1"
     d="m 256.7500,370.9478 2,2 -2,2 m -2.370121,-4 2,2 -2,2"
     transform="rotate(-90.0000 256.7500 372.9478)"/>
  <line x1="256.7500" y1="384.1976" x2="289.2500" y2="384.1976" stroke="#44006e" stroke-width="1.0" />
  <line x1="256.7500" y1="381.6976" x2="289.2500" y2="381.6976" stroke="#44006e" stroke-width="1.0" />
  <line x1="256.7500" y1="382.9476" x2="289.2500" y2="402.9476" stroke="#e68800" stroke-width="1.0" />
  <rect
     style="fill:#ffffff;stroke:none"
     width="5.5"
     height="2"
     x="270.2500"
     y="391.9476" 
     transform="rotate(31.6076 273.0000 392.9476)"    /> 
  <path
     style="fill:none;stroke:#e68800;stroke-width:1px;stroke-linecap:butt;stroke-linejoin:miter;stroke-opacity:1"
    d="m 273.7500,390.9476 2,2 -2,2 m -1.5,-4 -2,2 2,2" transform="rotate(31.6076 273.0000 392.9476)"/>
  <line x1="256.7500" y1="362.9479" x2="256.7500" y2="342.9479" stroke="#000000" stroke-width="1.0" />
  <rect
     style="fill:#ffffff;fill-opacity:1;fill-rule:nonzero;stroke:none"
     width="2"
     height="2"
     x="256.2500"
     y="351.9479"
     transform="rotate(270.0000 256.7500 352.9479)" /> 
  <path
     style="fill:none;stroke:#000000;stroke-width:1px;stroke-linecap:butt;stroke-linejoin:miter;stroke-opacity:1"
     d="m 256.7500,350.9479 2,2 -2,2 m -2.370121,-4 2,2 -2,2"
     transform="rotate(270.0000 256.7500 352.9479)"/>
  <line x1="256.7500" y1="362.9479" x2="289.2500" y2="362.9479" stroke="#44006e" stroke-width="1.0" />
  <line x1="256.7500" y1="344.1979" x2="289.2500" y2="344.1979" stroke="#000000" stroke-width="1.0" />
  <line x1="256.7500" y1="341.6979" x2="289.2500" y2="341.6979" stroke="#000000" stroke-width="1.0" />
  <line x1="256.7500" y1="322.9483" x2="256.7500" y2="302.9482" stroke="#6f02ec" stroke-width="1.0" />
  <rect
     style="fill:#ffffff;fill-opacity:1;fill-rule:nonzero;stroke:none"
     width="2"
     height="2"
     x="256.2500"
     y="311.9482"
     transform="rotate(270.0000 256.7500 312.9482)" /> 
  <path
     style="fill:none;stroke:#6f02ec;stroke-width:1px;stroke-linecap:butt;stroke-linejoin:miter;stroke-opacity:1"
     d="m 256.7500,310.9482 2,2 -2,2 m -2.370121,-4 2,2 -2,2"
     transform="rotate(270.0000 256.7500 312.9482)"/>
  <line x1="256.7500" y1="322.9483" x2="289.2500" y2="322.9483" stroke="#44006e" stroke-width="1.0" />
  <line x1="256.7500" y1="322.9483" x2="289.2500" y2="342.9479" stroke="#5500a3" stroke-width="1.0" />
  <rect
     style="fill:#ffffff;stroke:none"
     width="5.5"
     height="2"
     x="270.2500"
     y="331.9481" 
     transform="rotate(31.6070 273.0000 332.9481)"    /> 
  <path
     style="fill:none;stroke:#5500a3;stroke-width:1px;stroke-linecap:butt;stroke-linejoin:miter;stroke-opacity:1"
    d="m 273.7500,330.9481 2,2 -2,2 m -1.5,-4 -2,2 2,2" transform="rotate(31.6070 273.0000 332.9481)"/>
  <line x1="256.7500" y1="302.9482" x2="256.7500" y2="282.9487" stroke="#ae1a38" stroke-width="1.0" />
  <rect
     style="fill:#ffffff;fill-opacity:1;fill-rule:nonzero;stroke:none"
     width="2"
     height="2"
     x="256.2500"
     y="291.9484"
     transform="rotate(-90.0000 256.7500 292.9484)" /> 
  <path
     style="fill:none;stroke:#ae1a38;stroke-width:1px;stroke-linecap:butt;stroke-linejoin:miter;stroke-opacity:1"
     d="m 256.7500,290.9484 2,2 -2,2 m -2.370121,-4 2,2 -2,2"
     transform="rotate(-90.0000 256.7500 292.9484)"/>
  <line x1="256.7500" y1="282.9487" x2="256.7500" y2="262.9486" stroke="#2d0032" stroke-width="1.0" />
  <rect
     style="fill:#ffffff;fill-opacity:1;fill-rule:nonzero;stroke:none"
     width="2"
     height="2"
     x="256.2500"
     y="271.9486"
     transform="rotate(270.0000 256.7500 272.9486)" /> 
  <path
     style="fill:none;stroke:#2d0032;stroke-width:1px;stroke-linecap:butt;stroke-linejoin:miter;stroke-opacity:1"
     d="m 256.7500,270.9486 2,2 -2,2 m -2.370121,-4 2,2 -2,2"
     transform="rotate(270.0000 256.7500 272.9486)"/>
  <line x1="256.7500" y1="242.9490" x2="256.7500" y2="222.9490" stroke="#000000" stroke-width="1.0" />
  <rect
     style="fill:#ffffff;fill-opacity:1;fill-rule:nonzero;stroke:none"
     width="2"
     height="2"
     x="256.2500"
     y="231.9490"
     transform="rotate(270.0000 256.7500 232.9490)" /> 
  <path
     style="fill:none;stroke:#000000;stroke-width:1px;stroke-linecap:butt;stroke-linejoin:miter;stroke-opacity:1"
     d="m 256.7500,230.9490 2,2 -2,2 m -2.370121,-4 2,2 -2,2"
     transform="rotate(270.0000 256.7500 232.9490)"/>
  <line x1="256.7500" y1="242.9490" x2="289.2500" y2="262.9486" stroke="#6301ce" stroke-width="1.0" />
  <rect
     style="fill:#ffffff;stroke:none"
     width="5.5"
     height="2"
     x="270.2500"
     y="251.9488" 
     transform="rotate(31.6069 273.0000 252.9488)"    /> 
  <path
     style="fill:none;stroke:#6301ce;stroke-width:1px;stroke-linecap:butt;stroke-linejoin:miter;stroke-opacity:1"
    d="m 273.7500,250.9488 2,2 -2,2 m -1.5,-4 -2,2 2,2" transform="rotate(31.6069 273.0000 252.9488)"/>
  <line x1="256.7500" y1="222.9490" x2="256.7500" y2="202.9494" stroke="#960bd2" stroke-width="1.0" />
  <rect
     style="fill:#ffffff;fill-opacity:1;fill-rule:nonzero;stroke:none"
     width="2"
     height="2"
     x="256.2500"
     y="211.9492"
     transform="rotate(270.0000 256.7500 212.9492)" /> 
  <path
     style="fill:none;stroke:#960bd2;stroke-width:1px;stroke-linecap:butt;stroke-linejoin:miter;stroke-opacity:1"
     d="m 256.7500,210.9492 2,2 -2,2 m -2.370121,-4 2,2 -2,2"
     transform="rotate(270.0000 256.7500 212.9492)"/>
  <line x1="256.7500" y1="224.1990" x2="289.2500" y2="224.1990" stroke="#44006e" stroke-width="1.0" />
  <line x1="256.7500" y1="221.6990" x2="289.2500" y2="221.6990" stroke="#44006e" stroke-width="1.0" />
  <line x1="256.7500" y1="202.9494" x2="256.7500" y2="182.9494" stroke="#5500a3" stroke-width="1.0" />
  <rect
     style="fill:#ffffff;fill-opacity:1;fill-rule:nonzero;stroke:none"
     width="2"
     height="2"
     x="256.2500"
     y="191.9494"
     transform="rotate(-90.0000 256.7500 192.9494)" /> 
  <path
     style="fill:none;stroke:#5500a3;stroke-width:1px;stroke-linecap:butt;stroke-linejoin:miter;stroke-opacity:1"
     d="m 256.7500,190.9494 2,2 -2,2 m -2.370121,-4 2,2 -2,2"
     transform="rotate(-90.0000 256.7500 192.9494)"/>
  <line x1="256.7500" y1="202.9494" x2="289.2500" y2="202.9494" stroke="#44006e" stroke-width="1.0" />
  <line x1="256.7500" y1="182.9494" x2="256.7500" y2="162.9497" stroke="#7a03fd" stroke-width="1.0" />
  <rect
     style="fill:#ffffff;fill-opacity:1;fill-rule:nonzero;stroke:none"
     width="2"
     height="2"
     x="256.2500"
     y="171.9495"
     transform="rotate(-89.9999 256.7500 172.9495)" /> 
  <path
     style="fill:none;stroke:#7a03fd;stroke-width:1px;stroke-linecap:butt;stroke-linejoin:miter;stroke-opacity:1"
     d="m 256.7500,170.9495 2,2 -2,2 m -2.370121,-4 2,2 -2,2"
     transform="rotate(-89.9999 256.7500 172.9495)"/>
  <line x1="256.7500" y1="184.1994" x2="289.2500" y2="184.1994" stroke="#000000" stroke-width="1.0" />
  <line x1="256.7500" y1="181.6994" x2="289.2500" y2="181.6994" stroke="#000000" stroke-width="1.0" />
  <line x1="256.7500" y1="164.1997" x2="289.2500" y2="164.1997" stroke="#44006e" stroke-width="1.0" />
  <line x1="256.7500" y1="161.6997" x2="289.2500" y2="161.6997" stroke="#44006e" stroke-width="1.0" />
  <line x1="256.7500" y1="162.9497" x2="289.2500" y2="182.9494" stroke="#e68800" stroke-width="1.0" />
  <rect
     style="fill:#ffffff;stroke:none"
     width="5.5"
     height="2"
     x="270.2500"
     y="171.9495" 
     transform="rotate(31.6071 273.0000 172.9495)"    /> 
  <path
     style="fill:none;stroke:#e68800;stroke-width:1px;stroke-linecap:butt;stroke-linejoin:miter;stroke-opacity:1"
    d="m 273.7500,170.9495 2,2 -2,2 m -1.5,-4 -2,2 2,2" transform="rotate(31.6071 273.0000 172.9495)"/>
  <line x1="256.7500" y1="142.9496" x2="256.7382" y2="122.9500" stroke="#a61473" stroke-width="1.0" />
  <rect
     style="fill:#ffffff;fill-opacity:1;fill-rule:nonzero;stroke:none"
     width="2"
     height="2"
     x="256.2441"
     y="131.9498"
     transform="rotate(269.9662 256.7441 132.9498)" /> 
  <path
     style="fill:none;stroke:#a61473;stroke-width:1px;stroke-linecap:butt;stroke-linejoin:miter;stroke-opacity:1"
     d="m 256.7441,130.9498 2,2 -2,2 m -2.370121,-4 2,2 -2,2"
     transform="rotate(269.9662 256.7441 132.9498)"/>
  <line x1="256.7500" y1="144.1996" x2="289.2500" y2="144.1996" stroke="#2d0032" stroke-width="1.0" />
  <line x1="256.7500" y1="141.6996" x2="289.2500" y2="141.6996" stroke="#2d0032" stroke-width="1.0" />
  <line x1="256.7500" y1="142.9496" x2="289.2500" y2="162.9497" stroke="#2d0032" stroke-width="1.0" />
  <rect
     style="fill:#ffffff;stroke:none"
     width="5.5"
     height="2"
     x="270.2500"
     y="151.9496" 
     transform="rotate(31.6075 273.0000 152.9496)"    /> 
  <path
     style="fill:none;stroke:#2d0032;stroke-width:1px;stroke-linecap:butt;stroke-linejoin:miter;stroke-opacity:1"
    d="m 273.7500,150.9496 2,2 -2,2 m -1.5,-4 -2,2 2,2" transform="rotate(31.6075 273.0000 152.9496)"/>
  <line x1="256.7382" y1="122.9500" x2="256.7295" y2="102.9497" stroke="#ae1a38" stroke-width="1.0" />
  <rect
     style="fill:#ffffff;fill-opacity:1;fill-rule:nonzero;stroke:none"
     width="2"
     height="2"
     x="256.2338"
     y="111.9499"
     transform="rotate(269.9752 256.7338 112.9499)" /> 
  <path
     style="fill:none;stroke:#ae1a38;stroke-width:1px;stroke-linecap:butt;stroke-linejoin:miter;stroke-opacity:1"
     d="m 256.7338,110.9499 2,2 -2,2 m -2.370121,-4 2,2 -2,2"
     transform="rotate(269.9752 256.7338 112.9499)"/>
  <line x1="256.7382" y1="124.5500" x2="289.2618" y2="124.5500" stroke="#6301ce" stroke-width="1.0" />
  <line x1="256.7382" y1="122.9500" x2="289.2500" y2="142.9496" stroke="#f1b400" stroke-width="1.0" />
  <rect
     style="fill:#ffffff;stroke:none"
     width="5.5"
     height="2"
     x="270.2441"
     y="131.9498" 
     transform="rotate(31.5977 272.9941 132.9498)"    /> 
  <path
     style="fill:none;stroke:#f1b400;stroke-width:1px;stroke-linecap:butt;stroke-linejoin:miter;stroke-opacity:1"
    d="m 273.7441,130.9498 2,2 -2,2 m -1.5,-4 -2,2 2,2" transform="rotate(31.5977 272.9941 132.9498)"/>
  <line x1="256.7295" y1="102.9497" x2="263.0187" y2="83.9771" stroke="#bb2700" stroke-width="1.0" />
  <rect
     style="fill:#ffffff;fill-opacity:1;fill-rule:nonzero;stroke:none"
     width="2"
     height="2"
     x="259.3741"
     y="92.4634"
     transform="rotate(-71.6602 259.8741 93.4634)" /> 
  <path
     style="fill:none;stroke:#bb2700;stroke-width:1px;stroke-linecap:butt;stroke-linejoin:miter;stroke-opacity:1"
     d="m 259.8741,91.4634 2,2 -2,2 m -2.370121,-4 2,2 -2,2"
     transform="rotate(-71.6602 259.8741 93.4634)"/>
  <line x1="256.7295" y1="104.1997" x2="289.2705" y2="104.1997" stroke="#000000" stroke-width="1.0" />
  <line x1="256.7295" y1="101.6997" x2="289.2705" y2="101.6997" stroke="#000000" stroke-width="1.0" />
  <line x1="263.0187" y1="85.2271" x2="282.9813" y2="85.2271" stroke="#44006e" stroke-width="1.0" />
  <line x1="263.0187" y1="82.7271" x2="282.9813" y2="82.7271" stroke="#44006e" stroke-width="1.0" />
  <line x1="282.9813" y1="83.9771" x2="289.2705" y2="102.9497" stroke="#960bd2" stroke-width="1.0" />
  <rect
     style="fill:#ffffff;fill-opacity:1;fill-rule:nonzero;stroke:none"
     width="2"
     height="2"
     x="285.6259"
     y="92.4634"
     transform="rotate(71.6602 286.1259 93.4634)" /> 
  <path
     style="fill:none;stroke:#960bd2;stroke-width:1px;stroke-linecap:butt;stroke-linejoin:miter;stroke-opacity:1"
     d="m 286.1259,91.4634 2,2 -2,2 m -2.370121,-4 2,2 -2,2"
     transform="rotate(71.6602 286.1259 93.4634)"/>
  <line x1="289.2705" y1="102.9497" x2="289.2618" y2="122.9500" stroke="#8405fd" stroke-width="1.0" />
  <rect
     style="fill:#ffffff;fill-opacity:1;fill-rule:nonzero;stroke:none"
     width="2"
     height="2"
     x="288.7662"
     y="111.9499"
     transform="rotate(90.0248 289.2662 112.9499)" /> 
  <path
     style="fill:none;stroke:#8405fd;stroke-width:1px;stroke-linecap:butt;stroke-linejoin:miter;stroke-opacity:1"
     d="m 289.2662,110.9499 2,2 -2,2 m -2.370121,-4 2,2 -2,2"
     transform="rotate(90.0248 289.2662 112.9499)"/>
  <line x1="289.2618" y1="122.9500" x2="289.2500" y2="142.9496" stroke="#8d07ef" stroke-width="1.0" />
  <rect
     style="fill:#ffffff;fill-opacity:1;fill-rule:nonzero;stroke:none"
     width="2"
     height="2"
     x="288.7559"
     y="131.9498"
     transform="rotate(90.0338 289.2559 132.9498)" /> 
  <path
     style="fill:none;stroke:#8d07ef;stroke-width:1px;stroke-linecap:butt;stroke-linejoin:miter;stroke-opacity:1"
     d="m 289.2559,130.9498 2,2 -2,2 m -2.370121,-4 2,2 -2,2"
     transform="rotate(90.0338 289.2559 132.9498)"/>
  <line x1="289.2500" y1="162.9497" x2="289.2500" y2="182.9494" stroke="#f1b400" stroke-width="1.0" />
  <rect
     style="fill:#ffffff;fill-opacity:1;fill-rule:nonzero;stroke:none"
     width="2"
     height="2"
     x="288.7500"
     y="171.9495"
     transform="rotate(89.9999 289.2500 172.9495)" /> 
  <path
     style="fill:none;stroke:#f1b400;stroke-width:1px;stroke-linecap:butt;stroke-linejoin:miter;stroke-opacity:1"
     d="m 289.2500,170.9495 2,2 -2,2 m -2.370121,-4 2,2 -2,2"
     transform="rotate(89.9999 289.2500 172.9495)"/>
  <line x1="289.2500" y1="182.9494" x2="289.2500" y2="202.9494" stroke="#a61473" stroke-width="1.0" />
  <rect
     style="fill:#ffffff;fill-opacity:1;fill-rule:nonzero;stroke:none"
     width="2"
     height="2"
     x="288.7500"
     y="191.9494"
     transform="rotate(90.0000 289.2500 192.9494)" /> 
  <path
     style="fill:none;stroke:#a61473;stroke-width:1px;stroke-linecap:butt;stroke-linejoin:miter;stroke-opacity:1"
     d="m 289.2500,190.9494 2,2 -2,2 m -2.370121,-4 2,2 -2,2"
     transform="rotate(90.0000 289.2500 192.9494)"/>
  <line x1="289.2500" y1="202.9494" x2="289.2500" y2="222.9490" stroke="#bb2700" stroke-width="1.0" />
  <rect
     style="fill:#ffffff;fill-opacity:1;fill-rule:nonzero;stroke:none"
     width="2"
     height="2"
     x="288.7500"
     y="211.9492"
     transform="rotate(90.0000 289.2500 212.9492)" /> 
  <path
     style="fill:none;stroke:#bb2700;stroke-width:1px;stroke-linecap:butt;stroke-linejoin:miter;stroke-opacity:1"
     d="m 289.2500,210.9492 2,2 -2,2 m -2.370121,-4 2,2 -2,2"
     transform="rotate(90.0000 289.2500 212.9492)"/>
  <line x1="289.2500" y1="222.9490" x2="289.2500" y2="242.9490" stroke="#000000" stroke-width="1.0" />
  <rect
     style="fill:#ffffff;fill-opacity:1;fill-rule:nonzero;stroke:none"
     width="2"
     height="2"
     x="288.7500"
     y="231.9490"
     transform="rotate(90.0000 289.2500 232.9490)" /> 
  <path
     style="fill:none;stroke:#000000;stroke-width:1px;stroke-linecap:butt;stroke-linejoin:miter;stroke-opacity:1"
     d="m 289.2500,230.9490 2,2 -2,2 m -2.370121,-4 2,2 -2,2"
     transform="rotate(90.0000 289.2500 232.9490)"/>
  <line x1="289.2500" y1="262.9486" x2="289.2500" y2="282.9487" stroke="#2d0032" stroke-width="1.0" />
  <rect
     style="fill:#ffffff;fill-opacity:1;fill-rule:nonzero;stroke:none"
     width="2"
     height="2"
     x="288.7500"
     y="271.9486"
     transform="rotate(90.0000 289.2500 272.9486)" /> 
  <path
     style="fill:none;stroke:#2d0032;stroke-width:1px;stroke-linecap:butt;stroke-linejoin:miter;stroke-opacity:1"
     d="m 289.2500,270.9486 2,2 -2,2 m -2.370121,-4 2,2 -2,2"
     transform="rotate(90.0000 289.2500 272.9486)"/>
  <line x1="289.2500" y1="282.9487" x2="289.2500" y2="302.9482" stroke="#960bd2" stroke-width="1.0" />
  <rect
     style="fill:#ffffff;fill-opacity:1;fill-rule:nonzero;stroke:none"
     width="2"
     height="2"
     x="288.7500"
     y="291.9484"
     transform="rotate(90.0000 289.2500 292.9484)" /> 
  <path
     style="fill:none;stroke:#960bd2;stroke-width:1px;stroke-linecap:butt;stroke-linejoin:miter;stroke-opacity:1"
     d="m 289.2500,290.9484 2,2 -2,2 m -2.370121,-4 2,2 -2,2"
     transform="rotate(90.0000 289.2500 292.9484)"/>
  <line x1="289.2500" y1="302.9482" x2="289.2500" y2="322.9483" stroke="#a61473" stroke-width="1.0" />
  <rect
     style="fill:#ffffff;fill-opacity:1;fill-rule:nonzero;stroke:none"
     width="2"
     height="2"
     x="288.7500"
     y="311.9482"
     transform="rotate(90.0000 289.2500 312.9482)" /> 
  <path
     style="fill:none;stroke:#a61473;stroke-width:1px;stroke-linecap:butt;stroke-linejoin:miter;stroke-opacity:1"
     d="m 289.2500,310.9482 2,2 -2,2 m -2.370121,-4 2,2 -2,2"
     transform="rotate(90.0000 289.2500 312.9482)"/>
  <line x1="289.2500" y1="342.9479" x2="289.2500" y2="362.9479" stroke="#000000" stroke-width="1.0" />
  <rect
     style="fill:#ffffff;fill-opacity:1;fill-rule:nonzero;stroke:none"
     width="2"
     height="2"
     x="288.7500"
     y="351.9479"
     transform="rotate(90.0000 289.2500 352.9479)" /> 
  <path
     style="fill:none;stroke:#000000;stroke-width:1px;stroke-linecap:butt;stroke-linejoin:miter;stroke-opacity:1"
     d="m 289.2500,350.9479 2,2 -2,2 m -2.370121,-4 2,2 -2,2"
     transform="rotate(90.0000 289.2500 352.9479)"/>
  <line x1="289.2500" y1="362.9479" x2="289.2500" y2="382.9476" stroke="#7a03fd" stroke-width="1.0" />
  <rect
     style="fill:#ffffff;fill-opacity:1;fill-rule:nonzero;stroke:none"
     width="2"
     height="2"
     x="288.7500"
     y="371.9478"
     transform="rotate(90.0000 289.2500 372.9478)" /> 
  <path
     style="fill:none;stroke:#7a03fd;stroke-width:1px;stroke-linecap:butt;stroke-linejoin:miter;stroke-opacity:1"
     d="m 289.2500,370.9478 2,2 -2,2 m -2.370121,-4 2,2 -2,2"
     transform="rotate(90.0000 289.2500 372.9478)"/>
  <line x1="289.2500" y1="382.9476" x2="289.2500" y2="402.9476" stroke="#7a03fd" stroke-width="1.0" />
  <rect
     style="fill:#ffffff;fill-opacity:1;fill-rule:nonzero;stroke:none"
     width="2"
     height="2"
     x="288.7500"
     y="391.9476"
     transform="rotate(90.0000 289.2500 392.9476)" /> 
  <path
     style="fill:none;stroke:#7a03fd;stroke-width:1px;stroke-linecap:butt;stroke-linejoin:miter;stroke-opacity:1"
     d="m 289.2500,390.9476 2,2 -2,2 m -2.370121,-4 2,2 -2,2"
     transform="rotate(90.0000 289.2500 392.9476)"/>
  <line x1="289.2500" y1="422.9474" x2="289.2500" y2="442.9474" stroke="#ce4700" stroke-width="1.0" />
  <rect
     style="fill:#ffffff;fill-opacity:1;fill-rule:nonzero;stroke:none"
     width="2"
     height="2"
     x="288.7500"
     y="431.9474"
     transform="rotate(90.0000 289.2500 432.9474)" /> 
  <path
     style="fill:none;stroke:#ce4700;stroke-width:1px;stroke-linecap:butt;stroke-linejoin:miter;stroke-opacity:1"
     d="m 289.2500,430.9474 2,2 -2,2 m -2.370121,-4 2,2 -2,2"
     transform="rotate(90.0000 289.2500 432.9474)"/>
  <line x1="289.2500" y1="442.9474" x2="289.2500" y2="462.9474" stroke="#44006e" stroke-width="1.0" />
  <rect
     style="fill:#ffffff;fill-opacity:1;fill-rule:nonzero;stroke:none"
     width="2"
     height="2"
     x="288.7500"
     y="451.9474"
     transform="rotate(90.0000 289.2500 452.9474)" /> 
  <path
     style="fill:none;stroke:#44006e;stroke-width:1px;stroke-linecap:butt;stroke-linejoin:miter;stroke-opacity:1"
     d="m 289.2500,450.9474 2,2 -2,2 m -2.370121,-4 2,2 -2,2"
     transform="rotate(90.0000 289.2500 452.9474)"/>
<circle cx="256.7500" cy="462.9474" r="5.0" stroke="#595959" stroke-width="1.0" fill="#ffffff"/>
<text x="256.7500" y="465.6474" text-anchor="middle" font-family="Helvetica" font-size="7.5" fill="#000000" >A</text>
<circle cx="256.7500" cy="442.9474" r="5.0" stroke="#595959" stroke-width="1.0" fill="#ffffff"/>
<text x="256.7500" y="445.6474" text-anchor="middle" font-family="Helvetica" font-size="7.5" fill="#000000" >C</text>
<circle cx="256.7500" cy="422.9474" r="5.0" stroke="#595959" stroke-width="1.0" fill="#ffffff"/>
<text x="256.7500" y="425.6474" text-anchor="middle" font-family="Helvetica" font-size="7.5" fill="#000000" >U</text>
<circle cx="256.7500" cy="402.9476" r="5.0" stroke="#595959" stroke-width="1.0" fill="#ffffff"/>
<text x="256.7500" y="405.6476" text-anchor="middle" font-family="Helvetica" font-size="7.5" fill="#000000" >G</text>
<circle cx="256.7500" cy="382.9476" r="5.0" stroke="#595959" stroke-width="1.0" fill="#ffffff"/>
<text x="256.7500" y="385.6476" text-anchor="middle" font-family="Helvetica" font-size="7.5" fill="#000000" >G</text>
<circle cx="256.7500" cy="362.9479" r="5.0" stroke="#595959" stroke-width="1.0" fill="#ffffff"/>
<text x="256.7500" y="365.6479" text-anchor="middle" font-family="Helvetica" font-size="7.5" fill="#000000" >A</text>
<circle cx="256.7500" cy="342.9479" r="5.0" stroke="#595959" stroke-width="1.0" fill="#ffffff"/>
<text x="256.7500" y="345.6479" text-anchor="middle" font-family="Helvetica" font-size="7.5" fill="#000000" >C</text>
<circle cx="256.7500" cy="322.9483" r="5.0" stroke="#595959" stroke-width="1.0" fill="#ffffff"/>
<text x="256.7500" y="325.6483" text-anchor="middle" font-family="Helvetica" font-size="7.5" fill="#000000" >A</text>
<circle cx="256.7500" cy="302.9482" r="5.0" stroke="#595959" stroke-width="1.0" fill="#ffffff"/>
<text x="256.7500" y="305.6482" text-anchor="middle" font-family="Helvetica" font-size="7.5" fill="#000000" >I</text>
<circle cx="256.7500" cy="282.9487" r="5.0" stroke="#595959" stroke-width="1.0" fill="#ffffff"/>
<text x="256.7500" y="285.6487" text-anchor="middle" font-family="Helvetica" font-size="7.5" fill="#000000" >I</text>
<circle cx="256.7500" cy="262.9486" r="5.0" stroke="#595959" stroke-width="1.0" fill="#ffffff"/>
<text x="256.7500" y="265.6486" text-anchor="middle" font-family="Helvetica" font-size="7.5" fill="#000000" >U</text>
<circle cx="256.7500" cy="242.9490" r="5.0" stroke="#595959" stroke-width="1.0" fill="#ffffff"/>
<text x="256.7500" y="245.6490" text-anchor="middle" font-family="Helvetica" font-size="7.5" fill="#000000" >I</text>
<circle cx="256.7500" cy="222.9490" r="5.0" stroke="#595959" stroke-width="1.0" fill="#ffffff"/>
<text x="256.7500" y="225.6490" text-anchor="middle" font-family="Helvetica" font-size="7.5" fill="#000000" >C</text>
<circle cx="256.7500" cy="202.9494" r="5.0" stroke="#595959" stroke-width="1.0" fill="#ffffff"/>
<text x="256.7500" y="205.6494" text-anchor="middle" font-family="Helvetica" font-size="7.5" fill="#000000" >U</text>
<circle cx="256.7500" cy="182.9494" r="5.0" stroke="#595959" stroke-width="1.0" fill="#ffffff"/>
<text x="256.7500" y="185.6494" text-anchor="middle" font-family="Helvetica" font-size="7.5" fill="#000000" >C</text>
<circle cx="256.7500" cy="162.9497" r="5.0" stroke="#595959" stroke-width="1.0" fill="#ffffff"/>
<text x="256.7500" y="165.6497" text-anchor="middle" font-family="Helvetica" font-size="7.5" fill="#000000" >C</text>
<circle cx="256.7500" cy="142.9496" r="5.0" stroke="#595959" stroke-width="1.0" fill="#ffffff"/>
<text x="256.7500" y="145.6496" text-anchor="middle" font-family="Helvetica" font-size="7.5" fill="#000000" >G</text>
<circle cx="256.7382" cy="122.9500" r="5.0" stroke="#595959" stroke-width="1.0" fill="#ffffff"/>
<text x="256.7382" y="125.6500" text-anchor="middle" font-family="Helvetica" font-size="7.5" fill="#000000" >A</text>
<circle cx="256.7295" cy="102.9497" r="5.0" stroke="#595959" stroke-width="1.0" fill="#ffffff"/>
<text x="256.7295" y="105.6497" text-anchor="middle" font-family="Helvetica" font-size="7.5" fill="#000000" >G</text>
<circle cx="263.0187" cy="83.9771" r="5.0" stroke="#595959" stroke-width="1.0" fill="#ffffff"/>
<text x="263.0187" y="86.6771" text-anchor="middle" font-family="Helvetica" font-size="7.5" fill="#000000" >G</text>
<circle cx="282.9813" cy="83.9771" r="5.0" stroke="#595959" stroke-width="1.0" fill="#ffffff"/>
<text x="282.9813" y="86.6771" text-anchor="middle" font-family="Helvetica" font-size="7.5" fill="#000000" >C</text>
<circle cx="289.2705" cy="102.9497" r="5.0" stroke="#595959" stroke-width="1.0" fill="#ffffff"/>
<text x="289.2705" y="105.6497" text-anchor="middle" font-family="Helvetica" font-size="7.5" fill="#000000" >C</text>
<circle cx="289.2618" cy="122.9500" r="5.0" stroke="#595959" stroke-width="1.0" fill="#ffffff"/>
<text x="289.2618" y="125.6500" text-anchor="middle" font-family="Helvetica" font-size="7.5" fill="#000000" >U</text>
<circle cx="289.2500" cy="142.9496" r="5.0" stroke="#595959" stroke-width="1.0" fill="#ffffff"/>
<text x="289.2500" y="145.6496" text-anchor="middle" font-family="Helvetica" font-size="7.5" fill="#000000" >C</text>
<circle cx="289.2500" cy="162.9497" r="5.0" stroke="#595959" stroke-width="1.0" fill="#ffffff"/>
<text x="289.2500" y="165.6497" text-anchor="middle" font-family="Helvetica" font-size="7.5" fill="#000000" >G</text>
<circle cx="289.2500" cy="182.9494" r="5.0" stroke="#595959" stroke-width="1.0" fill="#ffffff"/>
<text x="289.2500" y="185.6494" text-anchor="middle" font-family="Helvetica" font-size="7.5" fill="#000000" >G</text>
<circle cx="289.2500" cy="202.9494" r="5.0" stroke="#595959" stroke-width="1.0" fill="#ffffff"/>
<text x="289.2500" y="205.6494" text-anchor="middle" font-family="Helvetica" font-size="7.5" fill="#000000" >A</text>
<circle cx="289.2500" cy="222.9490" r="5.0" stroke="#595959" stroke-width="1.0" fill="#ffffff"/>
<text x="289.2500" y="225.6490" text-anchor="middle" font-family="Helvetica" font-size="7.5" fill="#000000" >G</text>
<circle cx="289.2500" cy="242.9490" r="5.0" stroke="#595959" stroke-width="1.0" fill="#ffffff"/>
<text x="289.2500" y="245.6490" text-anchor="middle" font-family="Helvetica" font-size="7.5" fill="#000000" >U</text>
<circle cx="289.2500" cy="262.9486" r="5.0" stroke="#595959" stroke-width="1.0" fill="#ffffff"/>
<text x="289.2500" y="265.6486" text-anchor="middle" font-family="Helvetica" font-size="7.5" fill="#000000" >I</text>
<circle cx="289.2500" cy="282.9487" r="5.0" stroke="#595959" stroke-width="1.0" fill="orange"/>
<text x="289.2500" y="285.6487" text-anchor="middle" font-family="Helvetica" font-size="7.5" fill="#000000" >U</text>
<circle cx="289.2500" cy="302.9482" r="5.0" stroke="#595959" stroke-width="1.0" fill="#ffffff"/>
<text x="289.2500" y="305.6482" text-anchor="middle" font-family="Helvetica" font-size="7.5" fill="#000000" >U</text>
<circle cx="289.2500" cy="322.9483" r="5.0" stroke="#595959" stroke-width="1.0" fill="#ffffff"/>
<text x="289.2500" y="325.6483" text-anchor="middle" font-family="Helvetica" font-size="7.5" fill="#000000" >U</text>
<circle cx="289.2500" cy="342.9479" r="5.0" stroke="#595959" stroke-width="1.0" fill="#ffffff"/>
<text x="289.2500" y="345.6479" text-anchor="middle" font-family="Helvetica" font-size="7.5" fill="#000000" >G</text>
<circle cx="289.2500" cy="362.9479" r="5.0" stroke="#595959" stroke-width="1.0" fill="#ffffff"/>
<text x="289.2500" y="365.6479" text-anchor="middle" font-family="Helvetica" font-size="7.5" fill="#000000" >U</text>
<circle cx="289.2500" cy="382.9476" r="5.0" stroke="#595959" stroke-width="1.0" fill="#ffffff"/>
<text x="289.2500" y="385.6476" text-anchor="middle" font-family="Helvetica" font-size="7.5" fill="#000000" >C</text>
<circle cx="289.2500" cy="402.9476" r="5.0" stroke="#595959" stroke-width="1.0" fill="#ffffff"/>
<text x="289.2500" y="405.6476" text-anchor="middle" font-family="Helvetica" font-size="7.5" fill="#000000" >C</text>
<circle cx="289.2500" cy="422.9474" r="5.0" stroke="#595959" stroke-width="1.0" fill="#ffffff"/>
<text x="289.2500" y="425.6474" text-anchor="middle" font-family="Helvetica" font-size="7.5" fill="#000000" >A</text>
<circle cx="289.2500" cy="442.9474" r="5.0" stroke="#595959" stroke-width="1.0" fill="#ffffff"/>
<text x="289.2500" y="445.6474" text-anchor="middle" font-family="Helvetica" font-size="7.5" fill="#000000" >G</text>
<circle cx="289.2500" cy="462.9474" r="5.0" stroke="#595959" stroke-width="1.0" fill="#ffffff"/>
<text x="289.2500" y="465.6474" text-anchor="middle" font-family="Helvetica" font-size="7.5" fill="#000000" >U</text>
</svg>
