<?xml version="1.0" encoding="UTF-8"?>
<!DOCTYPE svg PUBLIC "-//W3C//DTD SVG 1.1//EN" 
"http://www.w3.org/Graphics/SVG/1.1/DTD/svg11.dtd">

<svg version="1.1"
   width="546px"
   height="546px"
xmlns="http://www.w3.org/2000/svg">
    <rect width="100%" height="100%" fill="white"/>

  <line x1="256.7500" y1="422.9461" x2="256.7500" y2="402.9461" stroke="#595959"
     style="stroke-width:2;stroke-miterlimit:4;stroke-dasharray:1,1;stroke-dashoffset:0" />
  <line x1="256.7500" y1="342.9473" x2="256.7500" y2="322.9473" stroke="#595959"
     style="stroke-width:2;stroke-miterlimit:4;stroke-dasharray:1,1;stroke-dashoffset:0" />
  <line x1="256.7500" y1="262.9490" x2="256.7500" y2="242.9491" stroke="#595959"
     style="stroke-width:2;stroke-miterlimit:4;stroke-dasharray:1,1;stroke-dashoffset:0" />
  <line x1="256.7501" y1="162.9506" x2="256.7495" y2="142.9511" stroke="#595959"
     style="stroke-width:2;stroke-miterlimit:4;stroke-dasharray:1,1;stroke-dashoffset:0" />
  <line x1="289.2505" y1="142.9511" x2="289.2499" y2="162.9506" stroke="#595959"
     style="stroke-width:2;stroke-miterlimit:4;stroke-dasharray:1,1;stroke-dashoffset:0" />
  <line x1="289.2500" y1="242.9491" x2="289.2500" y2="262.9490" stroke="#595959"
     style="stroke-width:2;stroke-miterlimit:4;stroke-dasharray:1,1;stroke-dashoffset:0" />
  <line x1="289.2500" y1="322.9473" x2="289.2500" y2="342.9473" stroke="#595959"
     style="stroke-width:2;stroke-miterlimit:4;stroke-dasharray:1,1;stroke-dashoffset:0" />
  <line x1="289.2500" y1="402.9461" x2="289.2500" y2="422.9461" stroke="#595959"
     style="stroke-width:2;stroke-miterlimit:4;stroke-dasharray:1,1;stroke-dashoffset:0" />
  <line x1="256.7500" y1="461.3458" x2="289.2500" y2="461.3458" stroke="#d14c00" stroke-width="1.0" />
  <circle cx="273.0000" cy="461.3458" r="2.25" stroke="#d14c00" stroke-width="1.0" fill="#d14c00"/>
  <line x1="256.7500" y1="424.5461" x2="289.2500" y2="424.5461" stroke="#e38000" stroke-width="1.0" />
  <circle cx="273.0000" cy="424.5461" r="2.25" stroke="#e38000" stroke-width="1.0" fill="#e38000"/>
  <line x1="256.7500" y1="364.5466" x2="289.2500" y2="364.5466" stroke="#e38000" stroke-width="1.0" />
  <circle cx="273.0000" cy="364.5466" r="2.25" stroke="#e38000" stroke-width="1.0" fill="#e38000"/>
  <line x1="256.7500" y1="301.3481" x2="289.2500" y2="301.3481" stroke="#9b0dba" stroke-width="1.0" />
  <circle cx="273.0000" cy="301.3481" r="2.25" stroke="#9b0dba" stroke-width="1.0" fill="#9b0dba"/>
  <line x1="256.7500" y1="304.5481" x2="289.2500" y2="304.5481" stroke="#c93d00" stroke-width="1.0" />
  <circle cx="273.0000" cy="304.5481" r="2.25" stroke="#c93d00" stroke-width="1.0" fill="#c93d00"/>
  <line x1="256.7500" y1="281.3482" x2="289.2500" y2="281.3482" stroke="#8a06f6" stroke-width="1.0" />
  <circle cx="273.0000" cy="281.3482" r="2.25" stroke="#8a06f6" stroke-width="1.0" fill="#8a06f6"/>
  <line x1="256.7500" y1="284.5482" x2="289.2500" y2="284.5482" stroke="#e99400" stroke-width="1.0" />
  <circle cx="273.0000" cy="284.5482" r="2.25" stroke="#e99400" stroke-width="1.0" fill="#e99400"/>
  <line x1="256.7500" y1="261.3490" x2="289.2500" y2="261.3490" stroke="#6801dc" stroke-width="1.0" />
  <circle cx="273.0000" cy="261.3490" r="2.25" stroke="#6801dc" stroke-width="1.0" fill="#6801dc"/>
  <line x1="256.7500" y1="264.5490" x2="289.2500" y2="264.5490" stroke="#e99400" stroke-width="1.0" />
  <circle cx="273.0000" cy="264.5490" r="2.25" stroke="#e99400" stroke-width="1.0" fill="#e99400"/>
  <line x1="256.7500" y1="242.9491" x2="289.2500" y2="242.9491" stroke="#480079" stroke-width="1.0" />
  <circle cx="273.0000" cy="242.9491" r="2.25" stroke="#480079" stroke-width="1.0" fill="#480079"/>
  <line x1="256.7500" y1="204.5499" x2="289.2500" y2="204.5499" stroke="#e99400" stroke-width="1.0" />
  <circle cx="273.0000" cy="204.5499" r="2.25" stroke="#e99400" stroke-width="1.0" fill="#e99400"/>
  <line x1="256.6746" y1="124.5512" x2="289.3254" y2="124.5512" stroke="#eeaa00" stroke-width="1.0" />
  <circle cx="273.0000" cy="124.5512" r="2.25" stroke="#eeaa00" stroke-width="1.0" fill="#eeaa00"/>
  <line x1="256.7500" y1="462.9458" x2="256.7500" y2="442.9458" stroke="#480079" stroke-width="1.0" />
  <rect
     style="fill:#ffffff;fill-opacity:1;fill-rule:nonzero;stroke:none"
     width="2"
     height="2"
     x="256.2500"
     y="451.9458"
     transform="rotate(-90.0000 256.7500 452.9458)" /> 
  <path
     style="fill:none;stroke:#480079;stroke-width:1px;stroke-linecap:butt;stroke-linejoin:miter;stroke-opacity:1"
     d="m 256.7500,450.9458 2,2 -2,2 m -2.370121,-4 2,2 -2,2"
     transform="rotate(-90.0000 256.7500 452.9458)"/>
  <line x1="256.7500" y1="464.5458" x2="289.2500" y2="464.5458" stroke="#a5137f" stroke-width="1.0" />
  <line x1="256.7500" y1="442.9458" x2="256.7500" y2="422.9461" stroke="#5800ac" stroke-width="1.0" />
  <rect
     style="fill:#ffffff;fill-opacity:1;fill-rule:nonzero;stroke:none"
     width="2"
     height="2"
     x="256.2500"
     y="431.9460"
     transform="rotate(270.0000 256.7500 432.9460)" /> 
  <path
     style="fill:none;stroke:#5800ac;stroke-width:1px;stroke-linecap:butt;stroke-linejoin:miter;stroke-opacity:1"
     d="m 256.7500,430.9460 2,2 -2,2 m -2.370121,-4 2,2 -2,2"
     transform="rotate(270.0000 256.7500 432.9460)"/>
  <line x1="256.7500" y1="444.1958" x2="289.2500" y2="444.1958" stroke="#000000" stroke-width="1.0" />
  <line x1="256.7500" y1="441.6958" x2="289.2500" y2="441.6958" stroke="#000000" stroke-width="1.0" />
  <line x1="256.7500" y1="421.3461" x2="289.2500" y2="421.3461" stroke="#7302f5" stroke-width="1.0" />
  <line x1="256.7500" y1="402.9461" x2="256.7500" y2="382.9466" stroke="#c33200" stroke-width="1.0" />
  <rect
     style="fill:#ffffff;fill-opacity:1;fill-rule:nonzero;stroke:none"
     width="2"
     height="2"
     x="256.2500"
     y="391.9463"
     transform="rotate(270.0000 256.7500 392.9463)" /> 
  <path
     style="fill:none;stroke:#c33200;stroke-width:1px;stroke-linecap:butt;stroke-linejoin:miter;stroke-opacity:1"
     d="m 256.7500,390.9463 2,2 -2,2 m -2.370121,-4 2,2 -2,2"
     transform="rotate(270.0000 256.7500 392.9463)"/>
  <line x1="256.7500" y1="404.1961" x2="289.2500" y2="404.1961" stroke="#000000" stroke-width="1.0" />
  <line x1="256.7500" y1="401.6961" x2="289.2500" y2="401.6961" stroke="#000000" stroke-width="1.0" />
  <line x1="256.7500" y1="402.9461" x2="289.2500" y2="422.9461" stroke="#000000" stroke-width="1.0" />
  <rect
     style="fill:#ffffff;stroke:none"
     width="5.5"
     height="2"
     x="270.2500"
     y="411.9461" 
     transform="rotate(31.6075 273.0000 412.9461)"    /> 
  <path
     style="fill:none;stroke:#000000;stroke-width:1px;stroke-linecap:butt;stroke-linejoin:miter;stroke-opacity:1"
    d="m 273.7500,410.9461 2,2 -2,2 m -1.5,-4 -2,2 2,2" transform="rotate(31.6075 273.0000 412.9461)"/>
  <line x1="256.7500" y1="382.9466" x2="256.7500" y2="362.9466" stroke="#9b0dba" stroke-width="1.0" />
  <rect
     style="fill:#ffffff;fill-opacity:1;fill-rule:nonzero;stroke:none"
     width="2"
     height="2"
     x="256.2500"
     y="371.9466"
     transform="rotate(-90.0000 256.7500 372.9466)" /> 
  <path
     style="fill:none;stroke:#9b0dba;stroke-width:1px;stroke-linecap:butt;stroke-linejoin:miter;stroke-opacity:1"
     d="m 256.7500,370.9466 2,2 -2,2 m -2.370121,-4 2,2 -2,2"
     transform="rotate(-90.0000 256.7500 372.9466)"/>
  <line x1="256.7500" y1="384.1966" x2="289.2500" y2="384.1966" stroke="#480079" stroke-width="1.0" />
  <line x1="256.7500" y1="381.6966" x2="289.2500" y2="381.6966" stroke="#480079" stroke-width="1.0" />
  <line x1="256.7500" y1="382.9466" x2="289.2500" y2="402.9461" stroke="#eeaa00" stroke-width="1.0" />
  <rect
     style="fill:#ffffff;stroke:none"
     width="5.5"
     height="2"
     x="270.2500"
     y="391.9463" 
     transform="rotate(31.6068 273.0000 392.9463)"    /> 
  <path
     style="fill:none;stroke:#eeaa00;stroke-width:1px;stroke-linecap:butt;stroke-linejoin:miter;stroke-opacity:1"
    d="m 273.7500,390.9463 2,2 -2,2 m -1.5,-4 -2,2 2,2" transform="rotate(31.6068 273.0000 392.9463)"/>
  <line x1="256.7500" y1="362.9466" x2="256.7500" y2="342.9473" stroke="#000000" stroke-width="1.0" />
  <rect
     style="fill:#ffffff;fill-opacity:1;fill-rule:nonzero;stroke:none"
     width="2"
     height="2"
     x="256.2500"
     y="351.9470"
     transform="rotate(270.0000 256.7500 352.9470)" /> 
  <path
     style="fill:none;stroke:#000000;stroke-width:1px;stroke-linecap:butt;stroke-linejoin:miter;stroke-opacity:1"
     d="m 256.7500,350.9470 2,2 -2,2 m -2.370121,-4 2,2 -2,2"
     transform="rotate(270.0000 256.7500 352.9470)"/>
  <line x1="256.7500" y1="361.3466" x2="289.2500" y2="361.3466" stroke="#7302f5" stroke-width="1.0" />
  <line x1="256.7500" y1="344.1973" x2="289.2500" y2="344.1973" stroke="#33003e" stroke-width="1.0" />
  <line x1="256.7500" y1="341.6973" x2="289.2500" y2="341.6973" stroke="#33003e" stroke-width="1.0" />
  <line x1="256.7500" y1="322.9473" x2="256.7500" y2="302.9481" stroke="#c93d00" stroke-width="1.0" />
  <rect
     style="fill:#ffffff;fill-opacity:1;fill-rule:nonzero;stroke:none"
     width="2"
     height="2"
     x="256.2500"
     y="311.9477"
     transform="rotate(270.0000 256.7500 312.9477)" /> 
  <path
     style="fill:none;stroke:#c93d00;stroke-width:1px;stroke-linecap:butt;stroke-linejoin:miter;stroke-opacity:1"
     d="m 256.7500,310.9477 2,2 -2,2 m -2.370121,-4 2,2 -2,2"
     transform="rotate(270.0000 256.7500 312.9477)"/>
  <line x1="256.7500" y1="322.9473" x2="289.2500" y2="322.9473" stroke="#480079" stroke-width="1.0" />
  <line x1="256.7500" y1="322.9473" x2="289.2500" y2="342.9473" stroke="#33003e" stroke-width="1.0" />
  <rect
     style="fill:#ffffff;stroke:none"
     width="5.5"
     height="2"
     x="270.2500"
     y="331.9473" 
     transform="rotate(31.6074 273.0000 332.9473)"    /> 
  <path
     style="fill:none;stroke:#33003e;stroke-width:1px;stroke-linecap:butt;stroke-linejoin:miter;stroke-opacity:1"
    d="m 273.7500,330.9473 2,2 -2,2 m -1.5,-4 -2,2 2,2" transform="rotate(31.6074 273.0000 332.9473)"/>
  <line x1="256.7500" y1="302.9481" x2="256.7500" y2="282.9482" stroke="#dd6b00" stroke-width="1.0" />
  <rect
     style="fill:#ffffff;fill-opacity:1;fill-rule:nonzero;stroke:none"
     width="2"
     height="2"
     x="256.2500"
     y="291.9481"
     transform="rotate(-90.0000 256.7500 292.9481)" /> 
  <path
     style="fill:none;stroke:#dd6b00;stroke-width:1px;stroke-linecap:butt;stroke-linejoin:miter;stroke-opacity:1"
     d="m 256.7500,290.9481 2,2 -2,2 m -2.370121,-4 2,2 -2,2"
     transform="rotate(-90.0000 256.7500 292.9481)"/>
  <line x1="256.7500" y1="282.9482" x2="256.7500" y2="262.9490" stroke="#33003e" stroke-width="1.0" />
  <rect
     style="fill:#ffffff;fill-opacity:1;fill-rule:nonzero;stroke:none"
     width="2"
     height="2"
     x="256.2500"
     y="271.9486"
     transform="rotate(270.0000 256.7500 272.9486)" /> 
  <path
     style="fill:none;stroke:#33003e;stroke-width:1px;stroke-linecap:butt;stroke-linejoin:miter;stroke-opacity:1"
     d="m 256.7500,270.9486 2,2 -2,2 m -2.370121,-4 2,2 -2,2"
     transform="rotate(270.0000 256.7500 272.9486)"/>
  <line x1="256.7500" y1="242.9491" x2="256.7500" y2="222.9498" stroke="#000000" stroke-width="1.0" />
  <rect
     style="fill:#ffffff;fill-opacity:1;fill-rule:nonzero;stroke:none"
     width="2"
     height="2"
     x="256.2500"
     y="231.9494"
     transform="rotate(270.0000 256.7500 232.9494)" /> 
  <path
     style="fill:none;stroke:#000000;stroke-width:1px;stroke-linecap:butt;stroke-linejoin:miter;stroke-opacity:1"
     d="m 256.7500,230.9494 2,2 -2,2 m -2.370121,-4 2,2 -2,2"
     transform="rotate(270.0000 256.7500 232.9494)"/>
  <line x1="256.7500" y1="242.9491" x2="289.2500" y2="262.9490" stroke="#5800ac" stroke-width="1.0" />
  <rect
     style="fill:#ffffff;stroke:none"
     width="5.5"
     height="2"
     x="270.2500"
     y="251.9490" 
     transform="rotate(31.6074 273.0000 252.9490)"    /> 
  <path
     style="fill:none;stroke:#5800ac;stroke-width:1px;stroke-linecap:butt;stroke-linejoin:miter;stroke-opacity:1"
    d="m 273.7500,250.9490 2,2 -2,2 m -1.5,-4 -2,2 2,2" transform="rotate(31.6074 273.0000 252.9490)"/>
  <line x1="256.7500" y1="222.9498" x2="256.7500" y2="202.9499" stroke="#5800ac" stroke-width="1.0" />
  <rect
     style="fill:#ffffff;fill-opacity:1;fill-rule:nonzero;stroke:none"
     width="2"
     height="2"
     x="256.2500"
     y="211.9499"
     transform="rotate(270.0000 256.7500 212.9499)" /> 
  <path
     style="fill:none;stroke:#5800ac;stroke-width:1px;stroke-linecap:butt;stroke-linejoin:miter;stroke-opacity:1"
     d="m 256.7500,210.9499 2,2 -2,2 m -2.370121,-4 2,2 -2,2"
     transform="rotate(270.0000 256.7500 212.9499)"/>
  <line x1="256.7500" y1="224.1998" x2="289.2500" y2="224.1998" stroke="#33003e" stroke-width="1.0" />
  <line x1="256.7500" y1="221.6998" x2="289.2500" y2="221.6998" stroke="#33003e" stroke-width="1.0" />
  <line x1="256.7500" y1="202.9499" x2="256.7500" y2="182.9505" stroke="#33003e" stroke-width="1.0" />
  <rect
     style="fill:#ffffff;fill-opacity:1;fill-rule:nonzero;stroke:none"
     width="2"
     height="2"
     x="256.2500"
     y="191.9502"
     transform="rotate(-90.0000 256.7500 192.9502)" /> 
  <path
     style="fill:none;stroke:#33003e;stroke-width:1px;stroke-linecap:butt;stroke-linejoin:miter;stroke-opacity:1"
     d="m 256.7500,190.9502 2,2 -2,2 m -2.370121,-4 2,2 -2,2"
     transform="rotate(-90.0000 256.7500 192.9502)"/>
  <line x1="256.7500" y1="201.3499" x2="289.2500" y2="201.3499" stroke="#6801dc" stroke-width="1.0" />
  <line x1="256.7500" y1="182.9505" x2="256.7501" y2="162.9506" stroke="#7302f5" stroke-width="1.0" />
  <rect
     style="fill:#ffffff;fill-opacity:1;fill-rule:nonzero;stroke:none"
     width="2"
     height="2"
     x="256.2501"
     y="171.9506"
     transform="rotate(-89.9996 256.7501 172.9506)" /> 
  <path
     style="fill:none;stroke:#7302f5;stroke-width:1px;stroke-linecap:butt;stroke-linejoin:miter;stroke-opacity:1"
     d="m 256.7501,170.9506 2,2 -2,2 m -2.370121,-4 2,2 -2,2"
     transform="rotate(-89.9996 256.7501 172.9506)"/>
  <line x1="256.7500" y1="184.2005" x2="289.2500" y2="184.2005" stroke="#33003e" stroke-width="1.0" />
  <line x1="256.7500" y1="181.7005" x2="289.2500" y2="181.7005" stroke="#33003e" stroke-width="1.0" />
  <line x1="256.7501" y1="164.2006" x2="289.2499" y2="164.2006" stroke="#480079" stroke-width="1.0" />
  <line x1="256.7501" y1="161.7006" x2="289.2499" y2="161.7006" stroke="#480079" stroke-width="1.0" />
  <line x1="256.7501" y1="162.9506" x2="289.2500" y2="182.9505" stroke="#e99400" stroke-width="1.0" />
  <rect
     style="fill:#ffffff;stroke:none"
     width="5.5"
     height="2"
     x="270.2501"
     y="171.9506" 
     transform="rotate(31.6076 273.0001 172.9506)"    /> 
  <path
     style="fill:none;stroke:#e99400;stroke-width:1px;stroke-linecap:butt;stroke-linejoin:miter;stroke-opacity:1"
    d="m 273.7501,170.9506 2,2 -2,2 m -1.5,-4 -2,2 2,2" transform="rotate(31.6076 273.0001 172.9506)"/>
  <line x1="256.7495" y1="142.9511" x2="256.6746" y2="122.9512" stroke="#7e04ff" stroke-width="1.0" />
  <rect
     style="fill:#ffffff;fill-opacity:1;fill-rule:nonzero;stroke:none"
     width="2"
     height="2"
     x="256.2121"
     y="131.9511"
     transform="rotate(269.7854 256.7121 132.9511)" /> 
  <path
     style="fill:none;stroke:#7e04ff;stroke-width:1px;stroke-linecap:butt;stroke-linejoin:miter;stroke-opacity:1"
     d="m 256.7121,130.9511 2,2 -2,2 m -2.370121,-4 2,2 -2,2"
     transform="rotate(269.7854 256.7121 132.9511)"/>
  <line x1="256.7495" y1="144.2011" x2="289.2505" y2="144.2011" stroke="#480079" stroke-width="1.0" />
  <line x1="256.7495" y1="141.7011" x2="289.2505" y2="141.7011" stroke="#480079" stroke-width="1.0" />
  <line x1="256.7495" y1="142.9511" x2="289.2499" y2="162.9506" stroke="#000000" stroke-width="1.0" />
  <rect
     style="fill:#ffffff;stroke:none"
     width="5.5"
     height="2"
     x="270.2497"
     y="151.9508" 
     transform="rotate(31.6066 272.9997 152.9508)"    /> 
  <path
     style="fill:none;stroke:#000000;stroke-width:1px;stroke-linecap:butt;stroke-linejoin:miter;stroke-opacity:1"
    d="m 273.7497,150.9508 2,2 -2,2 m -1.5,-4 -2,2 2,2" transform="rotate(31.6066 272.9997 152.9508)"/>
  <line x1="256.6746" y1="122.9512" x2="256.7280" y2="102.9516" stroke="#b41f06" stroke-width="1.0" />
  <rect
     style="fill:#ffffff;fill-opacity:1;fill-rule:nonzero;stroke:none"
     width="2"
     height="2"
     x="256.2013"
     y="111.9514"
     transform="rotate(-89.8471 256.7013 112.9514)" /> 
  <path
     style="fill:none;stroke:#b41f06;stroke-width:1px;stroke-linecap:butt;stroke-linejoin:miter;stroke-opacity:1"
     d="m 256.7013,110.9514 2,2 -2,2 m -2.370121,-4 2,2 -2,2"
     transform="rotate(-89.8471 256.7013 112.9514)"/>
  <line x1="256.6746" y1="121.3512" x2="289.3254" y2="121.3512" stroke="#5800ac" stroke-width="1.0" />
  <line x1="256.7280" y1="102.9516" x2="263.0189" y2="83.9793" stroke="#c33200" stroke-width="1.0" />
  <rect
     style="fill:#ffffff;fill-opacity:1;fill-rule:nonzero;stroke:none"
     width="2"
     height="2"
     x="259.3735"
     y="92.4654"
     transform="rotate(-71.6552 259.8735 93.4654)" /> 
  <path
     style="fill:none;stroke:#c33200;stroke-width:1px;stroke-linecap:butt;stroke-linejoin:miter;stroke-opacity:1"
     d="m 259.8735,91.4654 2,2 -2,2 m -2.370121,-4 2,2 -2,2"
     transform="rotate(-71.6552 259.8735 93.4654)"/>
  <line x1="256.7280" y1="104.2016" x2="289.2720" y2="104.2016" stroke="#33003e" stroke-width="1.0" />
  <line x1="256.7280" y1="101.7016" x2="289.2720" y2="101.7016" stroke="#33003e" stroke-width="1.0" />
  <line x1="256.7280" y1="102.9516" x2="289.3254" y2="122.9512" stroke="#eeaa00" stroke-width="1.0" />
  <rect
     style="fill:#ffffff;stroke:none"
     width="5.5"
     height="2"
     x="270.2767"
     y="111.9514" 
     transform="rotate(31.5306 273.0267 112.9514)"    /> 
  <path
     style="fill:none;stroke:#eeaa00;stroke-width:1px;stroke-linecap:butt;stroke-linejoin:miter;stroke-opacity:1"
    d="m 273.7767,110.9514 2,2 -2,2 m -1.5,-4 -2,2 2,2" transform="rotate(31.5306 273.0267 112.9514)"/>
  <line x1="263.0189" y1="85.2293" x2="282.9811" y2="85.2293" stroke="#33003e" stroke-width="1.0" />
  <line x1="263.0189" y1="82.7293" x2="282.9811" y2="82.7293" stroke="#33003e" stroke-width="1.0" />
  <line x1="282.9811" y1="83.9793" x2="289.2720" y2="102.9516" stroke="#9b0dba" stroke-width="1.0" />
  <rect
     style="fill:#ffffff;fill-opacity:1;fill-rule:nonzero;stroke:none"
     width="2"
     height="2"
     x="285.6265"
     y="92.4654"
     transform="rotate(71.6552 286.1265 93.4654)" /> 
  <path
     style="fill:none;stroke:#9b0dba;stroke-width:1px;stroke-linecap:butt;stroke-linejoin:miter;stroke-opacity:1"
     d="m 286.1265,91.4654 2,2 -2,2 m -2.370121,-4 2,2 -2,2"
     transform="rotate(71.6552 286.1265 93.4654)"/>
  <line x1="289.2720" y1="102.9516" x2="289.3254" y2="122.9512" stroke="#9309df" stroke-width="1.0" />
  <rect
     style="fill:#ffffff;fill-opacity:1;fill-rule:nonzero;stroke:none"
     width="2"
     height="2"
     x="288.7987"
     y="111.9514"
     transform="rotate(89.8471 289.2987 112.9514)" /> 
  <path
     style="fill:none;stroke:#9309df;stroke-width:1px;stroke-linecap:butt;stroke-linejoin:miter;stroke-opacity:1"
     d="m 289.2987,110.9514 2,2 -2,2 m -2.370121,-4 2,2 -2,2"
     transform="rotate(89.8471 289.2987 112.9514)"/>
  <line x1="289.3254" y1="122.9512" x2="289.2505" y2="142.9511" stroke="#9309df" stroke-width="1.0" />
  <rect
     style="fill:#ffffff;fill-opacity:1;fill-rule:nonzero;stroke:none"
     width="2"
     height="2"
     x="288.7879"
     y="131.9511"
     transform="rotate(90.2146 289.2879 132.9511)" /> 
  <path
     style="fill:none;stroke:#9309df;stroke-width:1px;stroke-linecap:butt;stroke-linejoin:miter;stroke-opacity:1"
     d="m 289.2879,130.9511 2,2 -2,2 m -2.370121,-4 2,2 -2,2"
     transform="rotate(90.2146 289.2879 132.9511)"/>
  <line x1="289.2499" y1="162.9506" x2="289.2500" y2="182.9505" stroke="#d14c00" stroke-width="1.0" />
  <rect
     style="fill:#ffffff;fill-opacity:1;fill-rule:nonzero;stroke:none"
     width="2"
     height="2"
     x="288.7499"
     y="171.9506"
     transform="rotate(89.9996 289.2499 172.9506)" /> 
  <path
     style="fill:none;stroke:#d14c00;stroke-width:1px;stroke-linecap:butt;stroke-linejoin:miter;stroke-opacity:1"
     d="m 289.2499,170.9506 2,2 -2,2 m -2.370121,-4 2,2 -2,2"
     transform="rotate(89.9996 289.2499 172.9506)"/>
  <line x1="289.2500" y1="182.9505" x2="289.2500" y2="202.9499" stroke="#9b0dba" stroke-width="1.0" />
  <rect
     style="fill:#ffffff;fill-opacity:1;fill-rule:nonzero;stroke:none"
     width="2"
     height="2"
     x="288.7500"
     y="191.9502"
     transform="rotate(90.0000 289.2500 192.9502)" /> 
  <path
     style="fill:none;stroke:#9b0dba;stroke-width:1px;stroke-linecap:butt;stroke-linejoin:miter;stroke-opacity:1"
     d="m 289.2500,190.9502 2,2 -2,2 m -2.370121,-4 2,2 -2,2"
     transform="rotate(90.0000 289.2500 192.9502)"/>
  <line x1="289.2500" y1="202.9499" x2="289.2500" y2="222.9498" stroke="#9309df" stroke-width="1.0" />
  <rect
     style="fill:#ffffff;fill-opacity:1;fill-rule:nonzero;stroke:none"
     width="2"
     height="2"
     x="288.7500"
     y="211.9499"
     transform="rotate(90.0000 289.2500 212.9499)" /> 
  <path
     style="fill:none;stroke:#9309df;stroke-width:1px;stroke-linecap:butt;stroke-linejoin:miter;stroke-opacity:1"
     d="m 289.2500,210.9499 2,2 -2,2 m -2.370121,-4 2,2 -2,2"
     transform="rotate(90.0000 289.2500 212.9499)"/>
  <line x1="289.2500" y1="222.9498" x2="289.2500" y2="242.9491" stroke="#000000" stroke-width="1.0" />
  <rect
     style="fill:#ffffff;fill-opacity:1;fill-rule:nonzero;stroke:none"
     width="2"
     height="2"
     x="288.7500"
     y="231.9494"
     transform="rotate(90.0000 289.2500 232.9494)" /> 
  <path
     style="fill:none;stroke:#000000;stroke-width:1px;stroke-linecap:butt;stroke-linejoin:miter;stroke-opacity:1"
     d="m 289.2500,230.9494 2,2 -2,2 m -2.370121,-4 2,2 -2,2"
     transform="rotate(90.0000 289.2500 232.9494)"/>
  <line x1="289.2500" y1="262.9490" x2="289.2500" y2="282.9482" stroke="#6801dc" stroke-width="1.0" />
  <rect
     style="fill:#ffffff;fill-opacity:1;fill-rule:nonzero;stroke:none"
     width="2"
     height="2"
     x="288.7500"
     y="271.9486"
     transform="rotate(90.0000 289.2500 272.9486)" /> 
  <path
     style="fill:none;stroke:#6801dc;stroke-width:1px;stroke-linecap:butt;stroke-linejoin:miter;stroke-opacity:1"
     d="m 289.2500,270.9486 2,2 -2,2 m -2.370121,-4 2,2 -2,2"
     transform="rotate(90.0000 289.2500 272.9486)"/>
  <line x1="289.2500" y1="282.9482" x2="289.2500" y2="302.9481" stroke="#b41f06" stroke-width="1.0" />
  <rect
     style="fill:#ffffff;fill-opacity:1;fill-rule:nonzero;stroke:none"
     width="2"
     height="2"
     x="288.7500"
     y="291.9481"
     transform="rotate(90.0000 289.2500 292.9481)" /> 
  <path
     style="fill:none;stroke:#b41f06;stroke-width:1px;stroke-linecap:butt;stroke-linejoin:miter;stroke-opacity:1"
     d="m 289.2500,290.9481 2,2 -2,2 m -2.370121,-4 2,2 -2,2"
     transform="rotate(90.0000 289.2500 292.9481)"/>
  <line x1="289.2500" y1="302.9481" x2="289.2500" y2="322.9473" stroke="#c93d00" stroke-width="1.0" />
  <rect
     style="fill:#ffffff;fill-opacity:1;fill-rule:nonzero;stroke:none"
     width="2"
     height="2"
     x="288.7500"
     y="311.9477"
     transform="rotate(90.0000 289.2500 312.9477)" /> 
  <path
     style="fill:none;stroke:#c93d00;stroke-width:1px;stroke-linecap:butt;stroke-linejoin:miter;stroke-opacity:1"
     d="m 289.2500,310.9477 2,2 -2,2 m -2.370121,-4 2,2 -2,2"
     transform="rotate(90.0000 289.2500 312.9477)"/>
  <line x1="289.2500" y1="342.9473" x2="289.2500" y2="362.9466" stroke="#000000" stroke-width="1.0" />
  <rect
     style="fill:#ffffff;fill-opacity:1;fill-rule:nonzero;stroke:none"
     width="2"
     height="2"
     x="288.7500"
     y="351.9470"
     transform="rotate(90.0000 289.2500 352.9470)" /> 
  <path
     style="fill:none;stroke:#000000;stroke-width:1px;stroke-linecap:butt;stroke-linejoin:miter;stroke-opacity:1"
     d="m 289.2500,350.9470 2,2 -2,2 m -2.370121,-4 2,2 -2,2"
     transform="rotate(90.0000 289.2500 352.9470)"/>
  <line x1="289.2500" y1="362.9466" x2="289.2500" y2="382.9466" stroke="#7e04ff" stroke-width="1.0" />
  <rect
     style="fill:#ffffff;fill-opacity:1;fill-rule:nonzero;stroke:none"
     width="2"
     height="2"
     x="288.7500"
     y="371.9466"
     transform="rotate(90.0000 289.2500 372.9466)" /> 
  <path
     style="fill:none;stroke:#7e04ff;stroke-width:1px;stroke-linecap:butt;stroke-linejoin:miter;stroke-opacity:1"
     d="m 289.2500,370.9466 2,2 -2,2 m -2.370121,-4 2,2 -2,2"
     transform="rotate(90.0000 289.2500 372.9466)"/>
  <line x1="289.2500" y1="382.9466" x2="289.2500" y2="402.9461" stroke="#8a06f6" stroke-width="1.0" />
  <rect
     style="fill:#ffffff;fill-opacity:1;fill-rule:nonzero;stroke:none"
     width="2"
     height="2"
     x="288.7500"
     y="391.9463"
     transform="rotate(90.0000 289.2500 392.9463)" /> 
  <path
     style="fill:none;stroke:#8a06f6;stroke-width:1px;stroke-linecap:butt;stroke-linejoin:miter;stroke-opacity:1"
     d="m 289.2500,390.9463 2,2 -2,2 m -2.370121,-4 2,2 -2,2"
     transform="rotate(90.0000 289.2500 392.9463)"/>
  <line x1="289.2500" y1="422.9461" x2="289.2500" y2="442.9458" stroke="#bc2900" stroke-width="1.0" />
  <rect
     style="fill:#ffffff;fill-opacity:1;fill-rule:nonzero;stroke:none"
     width="2"
     height="2"
     x="288.7500"
     y="431.9460"
     transform="rotate(90.0000 289.2500 432.9460)" /> 
  <path
     style="fill:none;stroke:#bc2900;stroke-width:1px;stroke-linecap:butt;stroke-linejoin:miter;stroke-opacity:1"
     d="m 289.2500,430.9460 2,2 -2,2 m -2.370121,-4 2,2 -2,2"
     transform="rotate(90.0000 289.2500 432.9460)"/>
  <line x1="289.2500" y1="442.9458" x2="289.2500" y2="462.9458" stroke="#33003e" stroke-width="1.0" />
  <rect
     style="fill:#ffffff;fill-opacity:1;fill-rule:nonzero;stroke:none"
     width="2"
     height="2"
     x="288.7500"
     y="451.9458"
     transform="rotate(90.0000 289.2500 452.9458)" /> 
  <path
     style="fill:none;stroke:#33003e;stroke-width:1px;stroke-linecap:butt;stroke-linejoin:miter;stroke-opacity:1"
     d="m 289.2500,450.9458 2,2 -2,2 m -2.370121,-4 2,2 -2,2"
     transform="rotate(90.0000 289.2500 452.9458)"/>
<circle cx="256.7500" cy="462.9458" r="5.0" stroke="#595959" stroke-width="1.0" fill="#ffffff"/>
<text x="256.7500" y="465.6458" text-anchor="middle" font-family="Helvetica" font-size="7.5" fill="#000000" >A</text>
<circle cx="256.7500" cy="442.9458" r="5.0" stroke="#595959" stroke-width="1.0" fill="#ffffff"/>
<text x="256.7500" y="445.6458" text-anchor="middle" font-family="Helvetica" font-size="7.5" fill="#000000" >C</text>
<circle cx="256.7500" cy="422.9461" r="5.0" stroke="#595959" stroke-width="1.0" fill="#ffffff"/>
<text x="256.7500" y="425.6461" text-anchor="middle" font-family="Helvetica" font-size="7.5" fill="#000000" >U</text>
<circle cx="256.7500" cy="402.9461" r="5.0" stroke="#595959" stroke-width="1.0" fill="#ffffff"/>
<text x="256.7500" y="405.6461" text-anchor="middle" font-family="Helvetica" font-size="7.5" fill="#000000" >G</text>
<circle cx="256.7500" cy="382.9466" r="5.0" stroke="#595959" stroke-width="1.0" fill="#ffffff"/>
<text x="256.7500" y="385.6466" text-anchor="middle" font-family="Helvetica" font-size="7.5" fill="#000000" >G</text>
<circle cx="256.7500" cy="362.9466" r="5.0" stroke="#595959" stroke-width="1.0" fill="#ffffff"/>
<text x="256.7500" y="365.6466" text-anchor="middle" font-family="Helvetica" font-size="7.5" fill="#000000" >A</text>
<circle cx="256.7500" cy="342.9473" r="5.0" stroke="#595959" stroke-width="1.0" fill="#ffffff"/>
<text x="256.7500" y="345.6473" text-anchor="middle" font-family="Helvetica" font-size="7.5" fill="#000000" >C</text>
<circle cx="256.7500" cy="322.9473" r="5.0" stroke="#595959" stroke-width="1.0" fill="#ffffff"/>
<text x="256.7500" y="325.6473" text-anchor="middle" font-family="Helvetica" font-size="7.5" fill="#000000" >A</text>
<circle cx="256.7500" cy="302.9481" r="5.0" stroke="#595959" stroke-width="1.0" fill="#ffffff"/>
<text x="256.7500" y="305.6481" text-anchor="middle" font-family="Helvetica" font-size="7.5" fill="#000000" >I</text>
<circle cx="256.7500" cy="282.9482" r="5.0" stroke="#595959" stroke-width="1.0" fill="#ffffff"/>
<text x="256.7500" y="285.6482" text-anchor="middle" font-family="Helvetica" font-size="7.5" fill="#000000" >I</text>
<circle cx="256.7500" cy="262.9490" r="5.0" stroke="#595959" stroke-width="1.0" fill="orange"/>
<text x="256.7500" y="265.6490" text-anchor="middle" font-family="Helvetica" font-size="7.5" fill="#000000" >U</text>
<circle cx="256.7500" cy="242.9491" r="5.0" stroke="#595959" stroke-width="1.0" fill="orange"/>
<text x="256.7500" y="245.6491" text-anchor="middle" font-family="Helvetica" font-size="7.5" fill="#000000" >I</text>
<circle cx="256.7500" cy="222.9498" r="5.0" stroke="#595959" stroke-width="1.0" fill="#ffffff"/>
<text x="256.7500" y="225.6498" text-anchor="middle" font-family="Helvetica" font-size="7.5" fill="#000000" >C</text>
<circle cx="256.7500" cy="202.9499" r="5.0" stroke="#595959" stroke-width="1.0" fill="#ffffff"/>
<text x="256.7500" y="205.6499" text-anchor="middle" font-family="Helvetica" font-size="7.5" fill="#000000" >U</text>
<circle cx="256.7500" cy="182.9505" r="5.0" stroke="#595959" stroke-width="1.0" fill="#ffffff"/>
<text x="256.7500" y="185.6505" text-anchor="middle" font-family="Helvetica" font-size="7.5" fill="#000000" >C</text>
<circle cx="256.7501" cy="162.9506" r="5.0" stroke="#595959" stroke-width="1.0" fill="#ffffff"/>
<text x="256.7501" y="165.6506" text-anchor="middle" font-family="Helvetica" font-size="7.5" fill="#000000" >C</text>
<circle cx="256.7495" cy="142.9511" r="5.0" stroke="#595959" stroke-width="1.0" fill="#ffffff"/>
<text x="256.7495" y="145.6511" text-anchor="middle" font-family="Helvetica" font-size="7.5" fill="#000000" >G</text>
<circle cx="256.6746" cy="122.9512" r="5.0" stroke="#595959" stroke-width="1.0" fill="#ffffff"/>
<text x="256.6746" y="125.6512" text-anchor="middle" font-family="Helvetica" font-size="7.5" fill="#000000" >A</text>
<circle cx="256.7280" cy="102.9516" r="5.0" stroke="#595959" stroke-width="1.0" fill="#ffffff"/>
<text x="256.7280" y="105.6516" text-anchor="middle" font-family="Helvetica" font-size="7.5" fill="#000000" >G</text>
<circle cx="263.0189" cy="83.9793" r="5.0" stroke="#595959" stroke-width="1.0" fill="#ffffff"/>
<text x="263.0189" y="86.6793" text-anchor="middle" font-family="Helvetica" font-size="7.5" fill="#000000" >G</text>
<circle cx="282.9811" cy="83.9793" r="5.0" stroke="#595959" stroke-width="1.0" fill="#ffffff"/>
<text x="282.9811" y="86.6793" text-anchor="middle" font-family="Helvetica" font-size="7.5" fill="#000000" >C</text>
<circle cx="289.2720" cy="102.9516" r="5.0" stroke="#595959" stroke-width="1.0" fill="#ffffff"/>
<text x="289.2720" y="105.6516" text-anchor="middle" font-family="Helvetica" font-size="7.5" fill="#000000" >C</text>
<circle cx="289.3254" cy="122.9512" r="5.0" stroke="#595959" stroke-width="1.0" fill="#ffffff"/>
<text x="289.3254" y="125.6512" text-anchor="middle" font-family="Helvetica" font-size="7.5" fill="#000000" >U</text>
<circle cx="289.2505" cy="142.9511" r="5.0" stroke="#595959" stroke-width="1.0" fill="#ffffff"/>
<text x="289.2505" y="145.6511" text-anchor="middle" font-family="Helvetica" font-size="7.5" fill="#000000" >C</text>
<circle cx="289.2499" cy="162.9506" r="5.0" stroke="#595959" stroke-width="1.0" fill="#ffffff"/>
<text x="289.2499" y="165.6506" text-anchor="middle" font-family="Helvetica" font-size="7.5" fill="#000000" >G</text>
<circle cx="289.2500" cy="182.9505" r="5.0" stroke="#595959" stroke-width="1.0" fill="#ffffff"/>
<text x="289.2500" y="185.6505" text-anchor="middle" font-family="Helvetica" font-size="7.5" fill="#000000" >G</text>
<circle cx="289.2500" cy="202.9499" r="5.0" stroke="#595959" stroke-width="1.0" fill="#ffffff"/>
<text x="289.2500" y="205.6499" text-anchor="middle" font-family="Helvetica" font-size="7.5" fill="#000000" >A</text>
<circle cx="289.2500" cy="222.9498" r="5.0" stroke="#595959" stroke-width="1.0" fill="#ffffff"/>
<text x="289.2500" y="225.6498" text-anchor="middle" font-family="Helvetica" font-size="7.5" fill="#000000" >G</text>
<circle cx="289.2500" cy="242.9491" r="5.0" stroke="#595959" stroke-width="1.0" fill="#ffffff"/>
<text x="289.2500" y="245.6491" text-anchor="middle" font-family="Helvetica" font-size="7.5" fill="#000000" >U</text>
<circle cx="289.2500" cy="262.9490" r="5.0" stroke="#595959" stroke-width="1.0" fill="#ffffff"/>
<text x="289.2500" y="265.6490" text-anchor="middle" font-family="Helvetica" font-size="7.5" fill="#000000" >I</text>
<circle cx="289.2500" cy="282.9482" r="5.0" stroke="#595959" stroke-width="1.0" fill="#ffffff"/>
<text x="289.2500" y="285.6482" text-anchor="middle" font-family="Helvetica" font-size="7.5" fill="#000000" >U</text>
<circle cx="289.2500" cy="302.9481" r="5.0" stroke="#595959" stroke-width="1.0" fill="#ffffff"/>
<text x="289.2500" y="305.6481" text-anchor="middle" font-family="Helvetica" font-size="7.5" fill="#000000" >U</text>
<circle cx="289.2500" cy="322.9473" r="5.0" stroke="#595959" stroke-width="1.0" fill="#ffffff"/>
<text x="289.2500" y="325.6473" text-anchor="middle" font-family="Helvetica" font-size="7.5" fill="#000000" >U</text>
<circle cx="289.2500" cy="342.9473" r="5.0" stroke="#595959" stroke-width="1.0" fill="#ffffff"/>
<text x="289.2500" y="345.6473" text-anchor="middle" font-family="Helvetica" font-size="7.5" fill="#000000" >G</text>
<circle cx="289.2500" cy="362.9466" r="5.0" stroke="#595959" stroke-width="1.0" fill="#ffffff"/>
<text x="289.2500" y="365.6466" text-anchor="middle" font-family="Helvetica" font-size="7.5" fill="#000000" >U</text>
<circle cx="289.2500" cy="382.9466" r="5.0" stroke="#595959" stroke-width="1.0" fill="#ffffff"/>
<text x="289.2500" y="385.6466" text-anchor="middle" font-family="Helvetica" font-size="7.5" fill="#000000" >C</text>
<circle cx="289.2500" cy="402.9461" r="5.0" stroke="#595959" stroke-width="1.0" fill="#ffffff"/>
<text x="289.2500" y="405.6461" text-anchor="middle" font-family="Helvetica" font-size="7.5" fill="#000000" >C</text>
<circle cx="289.2500" cy="422.9461" r="5.0" stroke="#595959" stroke-width="1.0" fill="#ffffff"/>
<text x="289.2500" y="425.6461" text-anchor="middle" font-family="Helvetica" font-size="7.5" fill="#000000" >A</text>
<circle cx="289.2500" cy="442.9458" r="5.0" stroke="#595959" stroke-width="1.0" fill="#ffffff"/>
<text x="289.2500" y="445.6458" text-anchor="middle" font-family="Helvetica" font-size="7.5" fill="#000000" >G</text>
<circle cx="289.2500" cy="462.9458" r="5.0" stroke="#595959" stroke-width="1.0" fill="#ffffff"/>
<text x="289.2500" y="465.6458" text-anchor="middle" font-family="Helvetica" font-size="7.5" fill="#000000" >U</text>
</svg>
