<?xml version="1.0" encoding="UTF-8"?>
<!DOCTYPE svg PUBLIC "-//W3C//DTD SVG 1.1//EN" 
"http://www.w3.org/Graphics/SVG/1.1/DTD/svg11.dtd">

<svg version="1.1"
   width="546px"
   height="546px"
xmlns="http://www.w3.org/2000/svg">
    <rect width="100%" height="100%" fill="white"/>

  <line x1="256.7500" y1="422.9483" x2="256.7500" y2="402.9484" stroke="#595959"
     style="stroke-width:2;stroke-miterlimit:4;stroke-dasharray:1,1;stroke-dashoffset:0" />
  <line x1="256.7500" y1="342.9485" x2="256.7500" y2="322.9485" stroke="#595959"
     style="stroke-width:2;stroke-miterlimit:4;stroke-dasharray:1,1;stroke-dashoffset:0" />
  <line x1="256.7500" y1="262.9486" x2="256.7500" y2="242.9487" stroke="#595959"
     style="stroke-width:2;stroke-miterlimit:4;stroke-dasharray:1,1;stroke-dashoffset:0" />
  <line x1="256.7500" y1="162.9489" x2="256.7500" y2="142.9489" stroke="#595959"
     style="stroke-width:2;stroke-miterlimit:4;stroke-dasharray:1,1;stroke-dashoffset:0" />
  <line x1="289.2500" y1="142.9489" x2="289.2500" y2="162.9489" stroke="#595959"
     style="stroke-width:2;stroke-miterlimit:4;stroke-dasharray:1,1;stroke-dashoffset:0" />
  <line x1="289.2500" y1="242.9487" x2="289.2500" y2="262.9486" stroke="#595959"
     style="stroke-width:2;stroke-miterlimit:4;stroke-dasharray:1,1;stroke-dashoffset:0" />
  <line x1="289.2500" y1="322.9485" x2="289.2500" y2="342.9485" stroke="#595959"
     style="stroke-width:2;stroke-miterlimit:4;stroke-dasharray:1,1;stroke-dashoffset:0" />
  <line x1="289.2500" y1="402.9484" x2="289.2500" y2="422.9483" stroke="#595959"
     style="stroke-width:2;stroke-miterlimit:4;stroke-dasharray:1,1;stroke-dashoffset:0" />
  <line x1="256.7500" y1="464.5483" x2="289.2500" y2="464.5483" stroke="#df7200" stroke-width="1.0" />
  <circle cx="273.0000" cy="464.5483" r="2.25" stroke="#df7200" stroke-width="1.0" fill="#df7200"/>
  <line x1="256.7500" y1="364.5484" x2="289.2500" y2="364.5484" stroke="#e27c00" stroke-width="1.0" />
  <circle cx="273.0000" cy="364.5484" r="2.25" stroke="#e27c00" stroke-width="1.0" fill="#e27c00"/>
  <line x1="256.7500" y1="321.3485" x2="289.2500" y2="321.3485" stroke="#eb9d00" stroke-width="1.0" />
  <circle cx="273.0000" cy="321.3485" r="2.25" stroke="#eb9d00" stroke-width="1.0" fill="#eb9d00"/>
  <line x1="258.3500" y1="302.9486" x2="258.3500" y2="282.9486" stroke="#d85e00" stroke-width="1.0" />
  <path d="M 252.6000 295.1986 L 252.6000 290.6986 L 257.1000 290.6986 L 257.1000 295.1986 z" style="stroke:#d85e00;stroke-width:1.0" fill="#d85e00" 
    transform="rotate(450.0000 258.3500 292.9486)"/>
  <path d="M 260.1000 295.1986 L 260.1000 290.6986 L 264.1000 292.9486 z" style="stroke:#d85e00;stroke-width:1.0" fill="#d85e00"
    transform="rotate(450.0000 258.3500 292.9486)"/>
  <line x1="256.7500" y1="301.3486" x2="289.2500" y2="301.3486" stroke="#ca4000" stroke-width="1.0" />
  <circle cx="273.0000" cy="301.3486" r="2.25" stroke="#ca4000" stroke-width="1.0" fill="#ca4000"/>
  <line x1="256.7500" y1="304.5486" x2="289.2500" y2="304.5486" stroke="#e58400" stroke-width="1.0" />
  <circle cx="273.0000" cy="304.5486" r="2.25" stroke="#e58400" stroke-width="1.0" fill="#e58400"/>
  <line x1="258.3500" y1="282.9486" x2="258.3500" y2="262.9486" stroke="#f2b800" stroke-width="1.0" />
  <path d="M 252.6000 275.1986 L 252.6000 270.6986 L 257.1000 270.6986 L 257.1000 275.1986 z" style="stroke:#f2b800;stroke-width:1.0" fill="#f2b800" 
    transform="rotate(90.0000 258.3500 272.9486)"/>
  <path d="M 260.1000 275.1986 L 260.1000 270.6986 L 264.1000 272.9486 z" style="stroke:#f2b800;stroke-width:1.0" fill="#f2b800"
    transform="rotate(90.0000 258.3500 272.9486)"/>
  <line x1="256.7500" y1="282.9486" x2="289.2500" y2="282.9486" stroke="#df7200" stroke-width="1.0" />
  <circle cx="273.0000" cy="282.9486" r="2.25" stroke="#df7200" stroke-width="1.0" fill="#df7200"/>
  <line x1="256.7500" y1="261.3486" x2="289.2500" y2="261.3486" stroke="#d85e00" stroke-width="1.0" />
  <circle cx="273.0000" cy="261.3486" r="2.25" stroke="#d85e00" stroke-width="1.0" fill="#d85e00"/>
  <line x1="256.7500" y1="264.5486" x2="289.2500" y2="264.5486" stroke="#b82400" stroke-width="1.0" />
  <circle cx="273.0000" cy="264.5486" r="2.25" stroke="#b82400" stroke-width="1.0" fill="#b82400"/>
  <line x1="256.7500" y1="262.9486" x2="289.2500" y2="282.9486" stroke="#c02e00" stroke-width="1.0" />
  <circle cx="273.0000" cy="272.9486" r="2.25" stroke="#c02e00" stroke-width="1.0" fill="#c02e00"/>
  <line x1="256.7500" y1="242.9487" x2="289.2500" y2="242.9487" stroke="#4b0084" stroke-width="1.0" />
  <circle cx="273.0000" cy="242.9487" r="2.25" stroke="#4b0084" stroke-width="1.0" fill="#4b0084"/>
  <line x1="256.7500" y1="204.5488" x2="289.2500" y2="204.5488" stroke="#f2b800" stroke-width="1.0" />
  <circle cx="273.0000" cy="204.5488" r="2.25" stroke="#f2b800" stroke-width="1.0" fill="#f2b800"/>
  <line x1="256.7500" y1="462.9483" x2="256.7500" y2="442.9483" stroke="#000000" stroke-width="1.0" />
  <rect
     style="fill:#ffffff;fill-opacity:1;fill-rule:nonzero;stroke:none"
     width="2"
     height="2"
     x="256.2500"
     y="451.9483"
     transform="rotate(-90.0000 256.7500 452.9483)" /> 
  <path
     style="fill:none;stroke:#000000;stroke-width:1px;stroke-linecap:butt;stroke-linejoin:miter;stroke-opacity:1"
     d="m 256.7500,450.9483 2,2 -2,2 m -2.370121,-4 2,2 -2,2"
     transform="rotate(-90.0000 256.7500 452.9483)"/>
  <line x1="256.7500" y1="461.3483" x2="289.2500" y2="461.3483" stroke="#960bd2" stroke-width="1.0" />
  <line x1="256.7500" y1="442.9483" x2="256.7500" y2="422.9483" stroke="#9109e5" stroke-width="1.0" />
  <rect
     style="fill:#ffffff;fill-opacity:1;fill-rule:nonzero;stroke:none"
     width="2"
     height="2"
     x="256.2500"
     y="431.9483"
     transform="rotate(-90.0000 256.7500 432.9483)" /> 
  <path
     style="fill:none;stroke:#9109e5;stroke-width:1px;stroke-linecap:butt;stroke-linejoin:miter;stroke-opacity:1"
     d="m 256.7500,430.9483 2,2 -2,2 m -2.370121,-4 2,2 -2,2"
     transform="rotate(-90.0000 256.7500 432.9483)"/>
  <line x1="256.7500" y1="444.1983" x2="289.2500" y2="444.1983" stroke="#33003e" stroke-width="1.0" />
  <line x1="256.7500" y1="441.6983" x2="289.2500" y2="441.6983" stroke="#33003e" stroke-width="1.0" />
  <line x1="256.7500" y1="422.9483" x2="289.2500" y2="422.9483" stroke="#4b0084" stroke-width="1.0" />
  <line x1="256.7500" y1="422.9483" x2="289.2500" y2="442.9483" stroke="#f2b800" stroke-width="1.0" />
  <rect
     style="fill:#ffffff;stroke:none"
     width="5.5"
     height="2"
     x="270.2500"
     y="431.9483" 
     transform="rotate(31.6075 273.0000 432.9483)"    /> 
  <path
     style="fill:none;stroke:#f2b800;stroke-width:1px;stroke-linecap:butt;stroke-linejoin:miter;stroke-opacity:1"
    d="m 273.7500,430.9483 2,2 -2,2 m -1.5,-4 -2,2 2,2" transform="rotate(31.6075 273.0000 432.9483)"/>
  <line x1="256.7500" y1="402.9484" x2="256.7500" y2="382.9484" stroke="#b11c1f" stroke-width="1.0" />
  <rect
     style="fill:#ffffff;fill-opacity:1;fill-rule:nonzero;stroke:none"
     width="2"
     height="2"
     x="256.2500"
     y="391.9484"
     transform="rotate(270.0000 256.7500 392.9484)" /> 
  <path
     style="fill:none;stroke:#b11c1f;stroke-width:1px;stroke-linecap:butt;stroke-linejoin:miter;stroke-opacity:1"
     d="m 256.7500,390.9484 2,2 -2,2 m -2.370121,-4 2,2 -2,2"
     transform="rotate(270.0000 256.7500 392.9484)"/>
  <line x1="256.7500" y1="404.1984" x2="289.2500" y2="404.1984" stroke="#000000" stroke-width="1.0" />
  <line x1="256.7500" y1="401.6984" x2="289.2500" y2="401.6984" stroke="#000000" stroke-width="1.0" />
  <line x1="256.7500" y1="402.9484" x2="289.2500" y2="422.9483" stroke="#200019" stroke-width="1.0" />
  <rect
     style="fill:#ffffff;stroke:none"
     width="5.5"
     height="2"
     x="270.2500"
     y="411.9484" 
     transform="rotate(31.6075 273.0000 412.9484)"    /> 
  <path
     style="fill:none;stroke:#200019;stroke-width:1px;stroke-linecap:butt;stroke-linejoin:miter;stroke-opacity:1"
    d="m 273.7500,410.9484 2,2 -2,2 m -1.5,-4 -2,2 2,2" transform="rotate(31.6075 273.0000 412.9484)"/>
  <line x1="256.7500" y1="382.9484" x2="256.7500" y2="362.9484" stroke="#960bd2" stroke-width="1.0" />
  <rect
     style="fill:#ffffff;fill-opacity:1;fill-rule:nonzero;stroke:none"
     width="2"
     height="2"
     x="256.2500"
     y="371.9484"
     transform="rotate(-90.0000 256.7500 372.9484)" /> 
  <path
     style="fill:none;stroke:#960bd2;stroke-width:1px;stroke-linecap:butt;stroke-linejoin:miter;stroke-opacity:1"
     d="m 256.7500,370.9484 2,2 -2,2 m -2.370121,-4 2,2 -2,2"
     transform="rotate(-90.0000 256.7500 372.9484)"/>
  <line x1="256.7500" y1="384.1984" x2="289.2500" y2="384.1984" stroke="#4b0084" stroke-width="1.0" />
  <line x1="256.7500" y1="381.6984" x2="289.2500" y2="381.6984" stroke="#4b0084" stroke-width="1.0" />
  <line x1="256.7500" y1="382.9484" x2="289.2500" y2="402.9484" stroke="#eeaa00" stroke-width="1.0" />
  <rect
     style="fill:#ffffff;stroke:none"
     width="5.5"
     height="2"
     x="270.2500"
     y="391.9484" 
     transform="rotate(31.6075 273.0000 392.9484)"    /> 
  <path
     style="fill:none;stroke:#eeaa00;stroke-width:1px;stroke-linecap:butt;stroke-linejoin:miter;stroke-opacity:1"
    d="m 273.7500,390.9484 2,2 -2,2 m -1.5,-4 -2,2 2,2" transform="rotate(31.6075 273.0000 392.9484)"/>
  <line x1="256.7500" y1="362.9484" x2="256.7500" y2="342.9485" stroke="#000000" stroke-width="1.0" />
  <rect
     style="fill:#ffffff;fill-opacity:1;fill-rule:nonzero;stroke:none"
     width="2"
     height="2"
     x="256.2500"
     y="351.9485"
     transform="rotate(-90.0000 256.7500 352.9485)" /> 
  <path
     style="fill:none;stroke:#000000;stroke-width:1px;stroke-linecap:butt;stroke-linejoin:miter;stroke-opacity:1"
     d="m 256.7500,350.9485 2,2 -2,2 m -2.370121,-4 2,2 -2,2"
     transform="rotate(-90.0000 256.7500 352.9485)"/>
  <line x1="256.7500" y1="361.3484" x2="289.2500" y2="361.3484" stroke="#7602f8" stroke-width="1.0" />
  <line x1="256.7500" y1="344.1985" x2="289.2500" y2="344.1985" stroke="#000000" stroke-width="1.0" />
  <line x1="256.7500" y1="341.6985" x2="289.2500" y2="341.6985" stroke="#000000" stroke-width="1.0" />
  <line x1="256.7500" y1="322.9485" x2="256.7500" y2="302.9486" stroke="#960bd2" stroke-width="1.0" />
  <rect
     style="fill:#ffffff;fill-opacity:1;fill-rule:nonzero;stroke:none"
     width="2"
     height="2"
     x="256.2500"
     y="311.9485"
     transform="rotate(270.0000 256.7500 312.9485)" /> 
  <path
     style="fill:none;stroke:#960bd2;stroke-width:1px;stroke-linecap:butt;stroke-linejoin:miter;stroke-opacity:1"
     d="m 256.7500,310.9485 2,2 -2,2 m -2.370121,-4 2,2 -2,2"
     transform="rotate(270.0000 256.7500 312.9485)"/>
  <line x1="256.7500" y1="324.5485" x2="289.2500" y2="324.5485" stroke="#6a01e2" stroke-width="1.0" />
  <line x1="256.7500" y1="322.9485" x2="289.2500" y2="342.9485" stroke="#33003e" stroke-width="1.0" />
  <rect
     style="fill:#ffffff;stroke:none"
     width="5.5"
     height="2"
     x="270.2500"
     y="331.9485" 
     transform="rotate(31.6074 273.0000 332.9485)"    /> 
  <path
     style="fill:none;stroke:#33003e;stroke-width:1px;stroke-linecap:butt;stroke-linejoin:miter;stroke-opacity:1"
    d="m 273.7500,330.9485 2,2 -2,2 m -1.5,-4 -2,2 2,2" transform="rotate(31.6074 273.0000 332.9485)"/>
  <line x1="255.1500" y1="302.9486" x2="255.1500" y2="282.9486" stroke="#db6700" stroke-width="1.0" />
  <rect
     style="fill:#ffffff;fill-opacity:1;fill-rule:nonzero;stroke:none"
     width="2"
     height="2"
     x="254.6500"
     y="291.9486"
     transform="rotate(270.0000 255.1500 292.9486)" /> 
  <path
     style="fill:none;stroke:#db6700;stroke-width:1px;stroke-linecap:butt;stroke-linejoin:miter;stroke-opacity:1"
     d="m 255.1500,290.9486 2,2 -2,2 m -2.370121,-4 2,2 -2,2"
     transform="rotate(270.0000 255.1500 292.9486)"/>
  <line x1="255.1500" y1="282.9486" x2="255.1500" y2="262.9486" stroke="#b82400" stroke-width="1.0" />
  <rect
     style="fill:#ffffff;fill-opacity:1;fill-rule:nonzero;stroke:none"
     width="2"
     height="2"
     x="254.6500"
     y="271.9486"
     transform="rotate(-90.0000 255.1500 272.9486)" /> 
  <path
     style="fill:none;stroke:#b82400;stroke-width:1px;stroke-linecap:butt;stroke-linejoin:miter;stroke-opacity:1"
     d="m 255.1500,270.9486 2,2 -2,2 m -2.370121,-4 2,2 -2,2"
     transform="rotate(-90.0000 255.1500 272.9486)"/>
  <line x1="256.7500" y1="242.9487" x2="256.7500" y2="222.9487" stroke="#000000" stroke-width="1.0" />
  <rect
     style="fill:#ffffff;fill-opacity:1;fill-rule:nonzero;stroke:none"
     width="2"
     height="2"
     x="256.2500"
     y="231.9487"
     transform="rotate(-90.0000 256.7500 232.9487)" /> 
  <path
     style="fill:none;stroke:#000000;stroke-width:1px;stroke-linecap:butt;stroke-linejoin:miter;stroke-opacity:1"
     d="m 256.7500,230.9487 2,2 -2,2 m -2.370121,-4 2,2 -2,2"
     transform="rotate(-90.0000 256.7500 232.9487)"/>
  <line x1="256.7500" y1="242.9487" x2="289.2500" y2="262.9486" stroke="#8806f9" stroke-width="1.0" />
  <rect
     style="fill:#ffffff;stroke:none"
     width="5.5"
     height="2"
     x="270.2500"
     y="251.9487" 
     transform="rotate(31.6074 273.0000 252.9487)"    /> 
  <path
     style="fill:none;stroke:#8806f9;stroke-width:1px;stroke-linecap:butt;stroke-linejoin:miter;stroke-opacity:1"
    d="m 273.7500,250.9487 2,2 -2,2 m -1.5,-4 -2,2 2,2" transform="rotate(31.6074 273.0000 252.9487)"/>
  <line x1="256.7500" y1="222.9487" x2="256.7500" y2="202.9488" stroke="#7602f8" stroke-width="1.0" />
  <rect
     style="fill:#ffffff;fill-opacity:1;fill-rule:nonzero;stroke:none"
     width="2"
     height="2"
     x="256.2500"
     y="211.9488"
     transform="rotate(270.0000 256.7500 212.9488)" /> 
  <path
     style="fill:none;stroke:#7602f8;stroke-width:1px;stroke-linecap:butt;stroke-linejoin:miter;stroke-opacity:1"
     d="m 256.7500,210.9488 2,2 -2,2 m -2.370121,-4 2,2 -2,2"
     transform="rotate(270.0000 256.7500 212.9488)"/>
  <line x1="256.7500" y1="224.1987" x2="289.2500" y2="224.1987" stroke="#33003e" stroke-width="1.0" />
  <line x1="256.7500" y1="221.6987" x2="289.2500" y2="221.6987" stroke="#33003e" stroke-width="1.0" />
  <line x1="256.7500" y1="202.9488" x2="256.7500" y2="182.9488" stroke="#7602f8" stroke-width="1.0" />
  <rect
     style="fill:#ffffff;fill-opacity:1;fill-rule:nonzero;stroke:none"
     width="2"
     height="2"
     x="256.2500"
     y="191.9488"
     transform="rotate(-90.0000 256.7500 192.9488)" /> 
  <path
     style="fill:none;stroke:#7602f8;stroke-width:1px;stroke-linecap:butt;stroke-linejoin:miter;stroke-opacity:1"
     d="m 256.7500,190.9488 2,2 -2,2 m -2.370121,-4 2,2 -2,2"
     transform="rotate(-90.0000 256.7500 192.9488)"/>
  <line x1="256.7500" y1="201.3488" x2="289.2500" y2="201.3488" stroke="#5b01b5" stroke-width="1.0" />
  <line x1="256.7500" y1="202.9488" x2="289.2500" y2="222.9487" stroke="#f2b800" stroke-width="1.0" />
  <rect
     style="fill:#ffffff;stroke:none"
     width="5.5"
     height="2"
     x="270.2500"
     y="211.9488" 
     transform="rotate(31.6074 273.0000 212.9488)"    /> 
  <path
     style="fill:none;stroke:#f2b800;stroke-width:1px;stroke-linecap:butt;stroke-linejoin:miter;stroke-opacity:1"
    d="m 273.7500,210.9488 2,2 -2,2 m -1.5,-4 -2,2 2,2" transform="rotate(31.6074 273.0000 212.9488)"/>
  <line x1="256.7500" y1="182.9488" x2="256.7500" y2="162.9489" stroke="#6a01e2" stroke-width="1.0" />
  <rect
     style="fill:#ffffff;fill-opacity:1;fill-rule:nonzero;stroke:none"
     width="2"
     height="2"
     x="256.2500"
     y="171.9489"
     transform="rotate(-90.0000 256.7500 172.9489)" /> 
  <path
     style="fill:none;stroke:#6a01e2;stroke-width:1px;stroke-linecap:butt;stroke-linejoin:miter;stroke-opacity:1"
     d="m 256.7500,170.9489 2,2 -2,2 m -2.370121,-4 2,2 -2,2"
     transform="rotate(-90.0000 256.7500 172.9489)"/>
  <line x1="256.7500" y1="184.1988" x2="289.2500" y2="184.1988" stroke="#33003e" stroke-width="1.0" />
  <line x1="256.7500" y1="181.6988" x2="289.2500" y2="181.6988" stroke="#33003e" stroke-width="1.0" />
  <line x1="256.7500" y1="164.1989" x2="289.2500" y2="164.1989" stroke="#200019" stroke-width="1.0" />
  <line x1="256.7500" y1="161.6989" x2="289.2500" y2="161.6989" stroke="#200019" stroke-width="1.0" />
  <line x1="256.7500" y1="142.9489" x2="256.7395" y2="122.9490" stroke="#ac1845" stroke-width="1.0" />
  <rect
     style="fill:#ffffff;fill-opacity:1;fill-rule:nonzero;stroke:none"
     width="2"
     height="2"
     x="256.2447"
     y="131.9489"
     transform="rotate(269.9701 256.7447 132.9489)" /> 
  <path
     style="fill:none;stroke:#ac1845;stroke-width:1px;stroke-linecap:butt;stroke-linejoin:miter;stroke-opacity:1"
     d="m 256.7447,130.9489 2,2 -2,2 m -2.370121,-4 2,2 -2,2"
     transform="rotate(269.9701 256.7447 132.9489)"/>
  <line x1="256.7500" y1="144.1989" x2="289.2500" y2="144.1989" stroke="#33003e" stroke-width="1.0" />
  <line x1="256.7500" y1="141.6989" x2="289.2500" y2="141.6989" stroke="#33003e" stroke-width="1.0" />
  <line x1="256.7500" y1="142.9489" x2="289.2500" y2="162.9489" stroke="#000000" stroke-width="1.0" />
  <rect
     style="fill:#ffffff;stroke:none"
     width="5.5"
     height="2"
     x="270.2500"
     y="151.9489" 
     transform="rotate(31.6075 273.0000 152.9489)"    /> 
  <path
     style="fill:none;stroke:#000000;stroke-width:1px;stroke-linecap:butt;stroke-linejoin:miter;stroke-opacity:1"
    d="m 273.7500,150.9489 2,2 -2,2 m -1.5,-4 -2,2 2,2" transform="rotate(31.6075 273.0000 152.9489)"/>
  <line x1="256.7395" y1="122.9490" x2="256.7290" y2="102.9489" stroke="#b11c1f" stroke-width="1.0" />
  <rect
     style="fill:#ffffff;fill-opacity:1;fill-rule:nonzero;stroke:none"
     width="2"
     height="2"
     x="256.2342"
     y="111.9489"
     transform="rotate(269.9697 256.7342 112.9489)" /> 
  <path
     style="fill:none;stroke:#b11c1f;stroke-width:1px;stroke-linecap:butt;stroke-linejoin:miter;stroke-opacity:1"
     d="m 256.7342,110.9489 2,2 -2,2 m -2.370121,-4 2,2 -2,2"
     transform="rotate(269.9697 256.7342 112.9489)"/>
  <line x1="256.7395" y1="122.9490" x2="289.2605" y2="122.9490" stroke="#33003e" stroke-width="1.0" />
  <line x1="256.7290" y1="102.9489" x2="263.0188" y2="83.9763" stroke="#bc2900" stroke-width="1.0" />
  <rect
     style="fill:#ffffff;fill-opacity:1;fill-rule:nonzero;stroke:none"
     width="2"
     height="2"
     x="259.3739"
     y="92.4626"
     transform="rotate(-71.6585 259.8739 93.4626)" /> 
  <path
     style="fill:none;stroke:#bc2900;stroke-width:1px;stroke-linecap:butt;stroke-linejoin:miter;stroke-opacity:1"
     d="m 259.8739,91.4626 2,2 -2,2 m -2.370121,-4 2,2 -2,2"
     transform="rotate(-71.6585 259.8739 93.4626)"/>
  <line x1="256.7290" y1="104.1989" x2="289.2710" y2="104.1989" stroke="#200019" stroke-width="1.0" />
  <line x1="256.7290" y1="101.6989" x2="289.2710" y2="101.6989" stroke="#200019" stroke-width="1.0" />
  <line x1="263.0188" y1="85.2263" x2="282.9812" y2="85.2263" stroke="#4b0084" stroke-width="1.0" />
  <line x1="263.0188" y1="82.7263" x2="282.9812" y2="82.7263" stroke="#4b0084" stroke-width="1.0" />
  <line x1="282.9812" y1="83.9763" x2="289.2710" y2="102.9489" stroke="#8806f9" stroke-width="1.0" />
  <rect
     style="fill:#ffffff;fill-opacity:1;fill-rule:nonzero;stroke:none"
     width="2"
     height="2"
     x="285.6261"
     y="92.4626"
     transform="rotate(71.6585 286.1261 93.4626)" /> 
  <path
     style="fill:none;stroke:#8806f9;stroke-width:1px;stroke-linecap:butt;stroke-linejoin:miter;stroke-opacity:1"
     d="m 286.1261,91.4626 2,2 -2,2 m -2.370121,-4 2,2 -2,2"
     transform="rotate(71.6585 286.1261 93.4626)"/>
  <line x1="289.2710" y1="102.9489" x2="289.2605" y2="122.9490" stroke="#7c03fe" stroke-width="1.0" />
  <rect
     style="fill:#ffffff;fill-opacity:1;fill-rule:nonzero;stroke:none"
     width="2"
     height="2"
     x="288.7658"
     y="111.9489"
     transform="rotate(90.0303 289.2658 112.9489)" /> 
  <path
     style="fill:none;stroke:#7c03fe;stroke-width:1px;stroke-linecap:butt;stroke-linejoin:miter;stroke-opacity:1"
     d="m 289.2658,110.9489 2,2 -2,2 m -2.370121,-4 2,2 -2,2"
     transform="rotate(90.0303 289.2658 112.9489)"/>
  <line x1="289.2605" y1="122.9490" x2="289.2500" y2="142.9489" stroke="#9109e5" stroke-width="1.0" />
  <rect
     style="fill:#ffffff;fill-opacity:1;fill-rule:nonzero;stroke:none"
     width="2"
     height="2"
     x="288.7553"
     y="131.9489"
     transform="rotate(90.0299 289.2553 132.9489)" /> 
  <path
     style="fill:none;stroke:#9109e5;stroke-width:1px;stroke-linecap:butt;stroke-linejoin:miter;stroke-opacity:1"
     d="m 289.2553,130.9489 2,2 -2,2 m -2.370121,-4 2,2 -2,2"
     transform="rotate(90.0299 289.2553 132.9489)"/>
  <line x1="289.2500" y1="162.9489" x2="289.2500" y2="182.9488" stroke="#d55800" stroke-width="1.0" />
  <rect
     style="fill:#ffffff;fill-opacity:1;fill-rule:nonzero;stroke:none"
     width="2"
     height="2"
     x="288.7500"
     y="171.9489"
     transform="rotate(90.0000 289.2500 172.9489)" /> 
  <path
     style="fill:none;stroke:#d55800;stroke-width:1px;stroke-linecap:butt;stroke-linejoin:miter;stroke-opacity:1"
     d="m 289.2500,170.9489 2,2 -2,2 m -2.370121,-4 2,2 -2,2"
     transform="rotate(90.0000 289.2500 172.9489)"/>
  <line x1="289.2500" y1="182.9488" x2="289.2500" y2="202.9488" stroke="#9b0dba" stroke-width="1.0" />
  <rect
     style="fill:#ffffff;fill-opacity:1;fill-rule:nonzero;stroke:none"
     width="2"
     height="2"
     x="288.7500"
     y="191.9488"
     transform="rotate(90.0000 289.2500 192.9488)" /> 
  <path
     style="fill:none;stroke:#9b0dba;stroke-width:1px;stroke-linecap:butt;stroke-linejoin:miter;stroke-opacity:1"
     d="m 289.2500,190.9488 2,2 -2,2 m -2.370121,-4 2,2 -2,2"
     transform="rotate(90.0000 289.2500 192.9488)"/>
  <line x1="289.2500" y1="202.9488" x2="289.2500" y2="222.9487" stroke="#9b0dba" stroke-width="1.0" />
  <rect
     style="fill:#ffffff;fill-opacity:1;fill-rule:nonzero;stroke:none"
     width="2"
     height="2"
     x="288.7500"
     y="211.9488"
     transform="rotate(90.0000 289.2500 212.9488)" /> 
  <path
     style="fill:none;stroke:#9b0dba;stroke-width:1px;stroke-linecap:butt;stroke-linejoin:miter;stroke-opacity:1"
     d="m 289.2500,210.9488 2,2 -2,2 m -2.370121,-4 2,2 -2,2"
     transform="rotate(90.0000 289.2500 212.9488)"/>
  <line x1="289.2500" y1="222.9487" x2="289.2500" y2="242.9487" stroke="#000000" stroke-width="1.0" />
  <rect
     style="fill:#ffffff;fill-opacity:1;fill-rule:nonzero;stroke:none"
     width="2"
     height="2"
     x="288.7500"
     y="231.9487"
     transform="rotate(90.0000 289.2500 232.9487)" /> 
  <path
     style="fill:none;stroke:#000000;stroke-width:1px;stroke-linecap:butt;stroke-linejoin:miter;stroke-opacity:1"
     d="m 289.2500,230.9487 2,2 -2,2 m -2.370121,-4 2,2 -2,2"
     transform="rotate(90.0000 289.2500 232.9487)"/>
  <line x1="289.2500" y1="262.9486" x2="289.2500" y2="282.9486" stroke="#400062" stroke-width="1.0" />
  <rect
     style="fill:#ffffff;fill-opacity:1;fill-rule:nonzero;stroke:none"
     width="2"
     height="2"
     x="288.7500"
     y="271.9486"
     transform="rotate(90.0000 289.2500 272.9486)" /> 
  <path
     style="fill:none;stroke:#400062;stroke-width:1px;stroke-linecap:butt;stroke-linejoin:miter;stroke-opacity:1"
     d="m 289.2500,270.9486 2,2 -2,2 m -2.370121,-4 2,2 -2,2"
     transform="rotate(90.0000 289.2500 272.9486)"/>
  <line x1="289.2500" y1="282.9486" x2="289.2500" y2="302.9486" stroke="#c02e00" stroke-width="1.0" />
  <rect
     style="fill:#ffffff;fill-opacity:1;fill-rule:nonzero;stroke:none"
     width="2"
     height="2"
     x="288.7500"
     y="291.9486"
     transform="rotate(90.0000 289.2500 292.9486)" /> 
  <path
     style="fill:none;stroke:#c02e00;stroke-width:1px;stroke-linecap:butt;stroke-linejoin:miter;stroke-opacity:1"
     d="m 289.2500,290.9486 2,2 -2,2 m -2.370121,-4 2,2 -2,2"
     transform="rotate(90.0000 289.2500 292.9486)"/>
  <line x1="289.2500" y1="302.9486" x2="289.2500" y2="322.9485" stroke="#eb9d00" stroke-width="1.0" />
  <rect
     style="fill:#ffffff;fill-opacity:1;fill-rule:nonzero;stroke:none"
     width="2"
     height="2"
     x="288.7500"
     y="311.9485"
     transform="rotate(90.0000 289.2500 312.9485)" /> 
  <path
     style="fill:none;stroke:#eb9d00;stroke-width:1px;stroke-linecap:butt;stroke-linejoin:miter;stroke-opacity:1"
     d="m 289.2500,310.9485 2,2 -2,2 m -2.370121,-4 2,2 -2,2"
     transform="rotate(90.0000 289.2500 312.9485)"/>
  <line x1="289.2500" y1="342.9485" x2="289.2500" y2="362.9484" stroke="#000000" stroke-width="1.0" />
  <rect
     style="fill:#ffffff;fill-opacity:1;fill-rule:nonzero;stroke:none"
     width="2"
     height="2"
     x="288.7500"
     y="351.9485"
     transform="rotate(90.0000 289.2500 352.9485)" /> 
  <path
     style="fill:none;stroke:#000000;stroke-width:1px;stroke-linecap:butt;stroke-linejoin:miter;stroke-opacity:1"
     d="m 289.2500,350.9485 2,2 -2,2 m -2.370121,-4 2,2 -2,2"
     transform="rotate(90.0000 289.2500 352.9485)"/>
  <line x1="289.2500" y1="362.9484" x2="289.2500" y2="382.9484" stroke="#7102f1" stroke-width="1.0" />
  <rect
     style="fill:#ffffff;fill-opacity:1;fill-rule:nonzero;stroke:none"
     width="2"
     height="2"
     x="288.7500"
     y="371.9484"
     transform="rotate(90.0000 289.2500 372.9484)" /> 
  <path
     style="fill:none;stroke:#7102f1;stroke-width:1px;stroke-linecap:butt;stroke-linejoin:miter;stroke-opacity:1"
     d="m 289.2500,370.9484 2,2 -2,2 m -2.370121,-4 2,2 -2,2"
     transform="rotate(90.0000 289.2500 372.9484)"/>
  <line x1="289.2500" y1="382.9484" x2="289.2500" y2="402.9484" stroke="#6a01e2" stroke-width="1.0" />
  <rect
     style="fill:#ffffff;fill-opacity:1;fill-rule:nonzero;stroke:none"
     width="2"
     height="2"
     x="288.7500"
     y="391.9484"
     transform="rotate(90.0000 289.2500 392.9484)" /> 
  <path
     style="fill:none;stroke:#6a01e2;stroke-width:1px;stroke-linecap:butt;stroke-linejoin:miter;stroke-opacity:1"
     d="m 289.2500,390.9484 2,2 -2,2 m -2.370121,-4 2,2 -2,2"
     transform="rotate(90.0000 289.2500 392.9484)"/>
  <line x1="289.2500" y1="422.9483" x2="289.2500" y2="442.9483" stroke="#9b0dba" stroke-width="1.0" />
  <rect
     style="fill:#ffffff;fill-opacity:1;fill-rule:nonzero;stroke:none"
     width="2"
     height="2"
     x="288.7500"
     y="431.9483"
     transform="rotate(90.0000 289.2500 432.9483)" /> 
  <path
     style="fill:none;stroke:#9b0dba;stroke-width:1px;stroke-linecap:butt;stroke-linejoin:miter;stroke-opacity:1"
     d="m 289.2500,430.9483 2,2 -2,2 m -2.370121,-4 2,2 -2,2"
     transform="rotate(90.0000 289.2500 432.9483)"/>
  <line x1="289.2500" y1="442.9483" x2="289.2500" y2="462.9483" stroke="#000000" stroke-width="1.0" />
  <rect
     style="fill:#ffffff;fill-opacity:1;fill-rule:nonzero;stroke:none"
     width="2"
     height="2"
     x="288.7500"
     y="451.9483"
     transform="rotate(90.0000 289.2500 452.9483)" /> 
  <path
     style="fill:none;stroke:#000000;stroke-width:1px;stroke-linecap:butt;stroke-linejoin:miter;stroke-opacity:1"
     d="m 289.2500,450.9483 2,2 -2,2 m -2.370121,-4 2,2 -2,2"
     transform="rotate(90.0000 289.2500 452.9483)"/>
<circle cx="256.7500" cy="462.9483" r="5.0" stroke="#595959" stroke-width="1.0" fill="#ffffff"/>
<text x="256.7500" y="465.6483" text-anchor="middle" font-family="Helvetica" font-size="7.5" fill="#000000" >A</text>
<circle cx="256.7500" cy="442.9483" r="5.0" stroke="#595959" stroke-width="1.0" fill="#ffffff"/>
<text x="256.7500" y="445.6483" text-anchor="middle" font-family="Helvetica" font-size="7.5" fill="#000000" >C</text>
<circle cx="256.7500" cy="422.9483" r="5.0" stroke="#595959" stroke-width="1.0" fill="#ffffff"/>
<text x="256.7500" y="425.6483" text-anchor="middle" font-family="Helvetica" font-size="7.5" fill="#000000" >U</text>
<circle cx="256.7500" cy="402.9484" r="5.0" stroke="#595959" stroke-width="1.0" fill="#ffffff"/>
<text x="256.7500" y="405.6484" text-anchor="middle" font-family="Helvetica" font-size="7.5" fill="#000000" >G</text>
<circle cx="256.7500" cy="382.9484" r="5.0" stroke="#595959" stroke-width="1.0" fill="#ffffff"/>
<text x="256.7500" y="385.6484" text-anchor="middle" font-family="Helvetica" font-size="7.5" fill="#000000" >G</text>
<circle cx="256.7500" cy="362.9484" r="5.0" stroke="#595959" stroke-width="1.0" fill="#ffffff"/>
<text x="256.7500" y="365.6484" text-anchor="middle" font-family="Helvetica" font-size="7.5" fill="#000000" >A</text>
<circle cx="256.7500" cy="342.9485" r="5.0" stroke="#595959" stroke-width="1.0" fill="#ffffff"/>
<text x="256.7500" y="345.6485" text-anchor="middle" font-family="Helvetica" font-size="7.5" fill="#000000" >C</text>
<circle cx="256.7500" cy="322.9485" r="5.0" stroke="#595959" stroke-width="1.0" fill="#ffffff"/>
<text x="256.7500" y="325.6485" text-anchor="middle" font-family="Helvetica" font-size="7.5" fill="#000000" >A</text>
<circle cx="256.7500" cy="302.9486" r="5.0" stroke="#595959" stroke-width="1.0" fill="#ffffff"/>
<text x="256.7500" y="305.6486" text-anchor="middle" font-family="Helvetica" font-size="7.5" fill="#000000" >I</text>
<circle cx="256.7500" cy="282.9486" r="5.0" stroke="#595959" stroke-width="1.0" fill="#ffffff"/>
<text x="256.7500" y="285.6486" text-anchor="middle" font-family="Helvetica" font-size="7.5" fill="#000000" >I</text>
<circle cx="256.7500" cy="262.9486" r="5.0" stroke="#595959" stroke-width="1.0" fill="orange"/>
<text x="256.7500" y="265.6486" text-anchor="middle" font-family="Helvetica" font-size="7.5" fill="#000000" >U</text>
<circle cx="256.7500" cy="242.9487" r="5.0" stroke="#595959" stroke-width="1.0" fill="#ffffff"/>
<text x="256.7500" y="245.6487" text-anchor="middle" font-family="Helvetica" font-size="7.5" fill="#000000" >I</text>
<circle cx="256.7500" cy="222.9487" r="5.0" stroke="#595959" stroke-width="1.0" fill="#ffffff"/>
<text x="256.7500" y="225.6487" text-anchor="middle" font-family="Helvetica" font-size="7.5" fill="#000000" >C</text>
<circle cx="256.7500" cy="202.9488" r="5.0" stroke="#595959" stroke-width="1.0" fill="#ffffff"/>
<text x="256.7500" y="205.6488" text-anchor="middle" font-family="Helvetica" font-size="7.5" fill="#000000" >U</text>
<circle cx="256.7500" cy="182.9488" r="5.0" stroke="#595959" stroke-width="1.0" fill="#ffffff"/>
<text x="256.7500" y="185.6488" text-anchor="middle" font-family="Helvetica" font-size="7.5" fill="#000000" >C</text>
<circle cx="256.7500" cy="162.9489" r="5.0" stroke="#595959" stroke-width="1.0" fill="#ffffff"/>
<text x="256.7500" y="165.6489" text-anchor="middle" font-family="Helvetica" font-size="7.5" fill="#000000" >C</text>
<circle cx="256.7500" cy="142.9489" r="5.0" stroke="#595959" stroke-width="1.0" fill="#ffffff"/>
<text x="256.7500" y="145.6489" text-anchor="middle" font-family="Helvetica" font-size="7.5" fill="#000000" >G</text>
<circle cx="256.7395" cy="122.9490" r="5.0" stroke="#595959" stroke-width="1.0" fill="#ffffff"/>
<text x="256.7395" y="125.6490" text-anchor="middle" font-family="Helvetica" font-size="7.5" fill="#000000" >A</text>
<circle cx="256.7290" cy="102.9489" r="5.0" stroke="#595959" stroke-width="1.0" fill="#ffffff"/>
<text x="256.7290" y="105.6489" text-anchor="middle" font-family="Helvetica" font-size="7.5" fill="#000000" >G</text>
<circle cx="263.0188" cy="83.9763" r="5.0" stroke="#595959" stroke-width="1.0" fill="#ffffff"/>
<text x="263.0188" y="86.6763" text-anchor="middle" font-family="Helvetica" font-size="7.5" fill="#000000" >G</text>
<circle cx="282.9812" cy="83.9763" r="5.0" stroke="#595959" stroke-width="1.0" fill="#ffffff"/>
<text x="282.9812" y="86.6763" text-anchor="middle" font-family="Helvetica" font-size="7.5" fill="#000000" >C</text>
<circle cx="289.2710" cy="102.9489" r="5.0" stroke="#595959" stroke-width="1.0" fill="#ffffff"/>
<text x="289.2710" y="105.6489" text-anchor="middle" font-family="Helvetica" font-size="7.5" fill="#000000" >C</text>
<circle cx="289.2605" cy="122.9490" r="5.0" stroke="#595959" stroke-width="1.0" fill="#ffffff"/>
<text x="289.2605" y="125.6490" text-anchor="middle" font-family="Helvetica" font-size="7.5" fill="#000000" >U</text>
<circle cx="289.2500" cy="142.9489" r="5.0" stroke="#595959" stroke-width="1.0" fill="#ffffff"/>
<text x="289.2500" y="145.6489" text-anchor="middle" font-family="Helvetica" font-size="7.5" fill="#000000" >C</text>
<circle cx="289.2500" cy="162.9489" r="5.0" stroke="#595959" stroke-width="1.0" fill="#ffffff"/>
<text x="289.2500" y="165.6489" text-anchor="middle" font-family="Helvetica" font-size="7.5" fill="#000000" >G</text>
<circle cx="289.2500" cy="182.9488" r="5.0" stroke="#595959" stroke-width="1.0" fill="#ffffff"/>
<text x="289.2500" y="185.6488" text-anchor="middle" font-family="Helvetica" font-size="7.5" fill="#000000" >G</text>
<circle cx="289.2500" cy="202.9488" r="5.0" stroke="#595959" stroke-width="1.0" fill="#ffffff"/>
<text x="289.2500" y="205.6488" text-anchor="middle" font-family="Helvetica" font-size="7.5" fill="#000000" >A</text>
<circle cx="289.2500" cy="222.9487" r="5.0" stroke="#595959" stroke-width="1.0" fill="#ffffff"/>
<text x="289.2500" y="225.6487" text-anchor="middle" font-family="Helvetica" font-size="7.5" fill="#000000" >G</text>
<circle cx="289.2500" cy="242.9487" r="5.0" stroke="#595959" stroke-width="1.0" fill="#ffffff"/>
<text x="289.2500" y="245.6487" text-anchor="middle" font-family="Helvetica" font-size="7.5" fill="#000000" >U</text>
<circle cx="289.2500" cy="262.9486" r="5.0" stroke="#595959" stroke-width="1.0" fill="#ffffff"/>
<text x="289.2500" y="265.6486" text-anchor="middle" font-family="Helvetica" font-size="7.5" fill="#000000" >I</text>
<circle cx="289.2500" cy="282.9486" r="5.0" stroke="#595959" stroke-width="1.0" fill="#ffffff"/>
<text x="289.2500" y="285.6486" text-anchor="middle" font-family="Helvetica" font-size="7.5" fill="#000000" >U</text>
<circle cx="289.2500" cy="302.9486" r="5.0" stroke="#595959" stroke-width="1.0" fill="#ffffff"/>
<text x="289.2500" y="305.6486" text-anchor="middle" font-family="Helvetica" font-size="7.5" fill="#000000" >U</text>
<circle cx="289.2500" cy="322.9485" r="5.0" stroke="#595959" stroke-width="1.0" fill="#ffffff"/>
<text x="289.2500" y="325.6485" text-anchor="middle" font-family="Helvetica" font-size="7.5" fill="#000000" >U</text>
<circle cx="289.2500" cy="342.9485" r="5.0" stroke="#595959" stroke-width="1.0" fill="#ffffff"/>
<text x="289.2500" y="345.6485" text-anchor="middle" font-family="Helvetica" font-size="7.5" fill="#000000" >G</text>
<circle cx="289.2500" cy="362.9484" r="5.0" stroke="#595959" stroke-width="1.0" fill="#ffffff"/>
<text x="289.2500" y="365.6484" text-anchor="middle" font-family="Helvetica" font-size="7.5" fill="#000000" >U</text>
<circle cx="289.2500" cy="382.9484" r="5.0" stroke="#595959" stroke-width="1.0" fill="#ffffff"/>
<text x="289.2500" y="385.6484" text-anchor="middle" font-family="Helvetica" font-size="7.5" fill="#000000" >C</text>
<circle cx="289.2500" cy="402.9484" r="5.0" stroke="#595959" stroke-width="1.0" fill="#ffffff"/>
<text x="289.2500" y="405.6484" text-anchor="middle" font-family="Helvetica" font-size="7.5" fill="#000000" >C</text>
<circle cx="289.2500" cy="422.9483" r="5.0" stroke="#595959" stroke-width="1.0" fill="#ffffff"/>
<text x="289.2500" y="425.6483" text-anchor="middle" font-family="Helvetica" font-size="7.5" fill="#000000" >A</text>
<circle cx="289.2500" cy="442.9483" r="5.0" stroke="#595959" stroke-width="1.0" fill="#ffffff"/>
<text x="289.2500" y="445.6483" text-anchor="middle" font-family="Helvetica" font-size="7.5" fill="#000000" >G</text>
<circle cx="289.2500" cy="462.9483" r="5.0" stroke="#595959" stroke-width="1.0" fill="#ffffff"/>
<text x="289.2500" y="465.6483" text-anchor="middle" font-family="Helvetica" font-size="7.5" fill="#000000" >U</text>
</svg>
