<?xml version="1.0" encoding="UTF-8"?>
<!DOCTYPE svg PUBLIC "-//W3C//DTD SVG 1.1//EN" 
"http://www.w3.org/Graphics/SVG/1.1/DTD/svg11.dtd">

<svg version="1.1"
   width="546px"
   height="546px"
xmlns="http://www.w3.org/2000/svg">
    <rect width="100%" height="100%" fill="white"/>

  <line x1="256.7500" y1="422.9488" x2="256.7500" y2="402.9489" stroke="#595959"
     style="stroke-width:2;stroke-miterlimit:4;stroke-dasharray:1,1;stroke-dashoffset:0" />
  <line x1="256.7500" y1="342.9486" x2="256.7500" y2="322.9488" stroke="#595959"
     style="stroke-width:2;stroke-miterlimit:4;stroke-dasharray:1,1;stroke-dashoffset:0" />
  <line x1="256.7500" y1="262.9485" x2="256.7500" y2="242.9488" stroke="#595959"
     style="stroke-width:2;stroke-miterlimit:4;stroke-dasharray:1,1;stroke-dashoffset:0" />
  <line x1="256.7500" y1="162.9489" x2="256.7499" y2="142.9486" stroke="#595959"
     style="stroke-width:2;stroke-miterlimit:4;stroke-dasharray:1,1;stroke-dashoffset:0" />
  <line x1="289.2501" y1="142.9486" x2="289.2500" y2="162.9489" stroke="#595959"
     style="stroke-width:2;stroke-miterlimit:4;stroke-dasharray:1,1;stroke-dashoffset:0" />
  <line x1="289.2500" y1="322.9488" x2="289.2500" y2="342.9486" stroke="#595959"
     style="stroke-width:2;stroke-miterlimit:4;stroke-dasharray:1,1;stroke-dashoffset:0" />
  <line x1="289.2500" y1="402.9489" x2="289.2500" y2="422.9488" stroke="#595959"
     style="stroke-width:2;stroke-miterlimit:4;stroke-dasharray:1,1;stroke-dashoffset:0" />
  <line x1="256.7500" y1="461.3488" x2="289.2500" y2="461.3488" stroke="#e99400" stroke-width="1.0" />
  <path d="M 270.7500 463.5988 L 270.7500 459.0988 L 275.2500 459.0988 L 275.2500 463.5988 z" style="stroke:#e99400;stroke-width:1.0" fill="#e99400" 
    transform="rotate(0.0000 273.0000 461.3488)"/>
  <line x1="256.7500" y1="444.5489" x2="289.2500" y2="444.5489" stroke="#e99400" stroke-width="1.0" />
  <circle cx="273.0000" cy="444.5489" r="2.25" stroke="#e99400" stroke-width="1.0" fill="#e99400"/>
  <line x1="256.7500" y1="424.5488" x2="289.2500" y2="424.5488" stroke="#e99400" stroke-width="1.0" />
  <circle cx="273.0000" cy="424.5488" r="2.25" stroke="#e99400" stroke-width="1.0" fill="#e99400"/>
  <line x1="256.7500" y1="364.5489" x2="289.2500" y2="364.5489" stroke="#e99400" stroke-width="1.0" />
  <circle cx="273.0000" cy="364.5489" r="2.25" stroke="#e99400" stroke-width="1.0" fill="#e99400"/>
  <line x1="256.7500" y1="321.3488" x2="289.2500" y2="321.3488" stroke="#e99400" stroke-width="1.0" />
  <circle cx="273.0000" cy="321.3488" r="2.25" stroke="#e99400" stroke-width="1.0" fill="#e99400"/>
  <line x1="256.7500" y1="302.9485" x2="289.2500" y2="302.9485" stroke="#000000" stroke-width="1.0" />
  <circle cx="273.0000" cy="302.9485" r="2.25" stroke="#000000" stroke-width="1.0" fill="#000000"/>
  <line x1="256.7500" y1="281.3488" x2="289.2500" y2="281.3488" stroke="#9309df" stroke-width="1.0" />
  <circle cx="273.0000" cy="281.3488" r="2.25" stroke="#9309df" stroke-width="1.0" fill="#9309df"/>
  <line x1="256.7500" y1="284.5488" x2="289.2500" y2="284.5488" stroke="#d14c00" stroke-width="1.0" />
  <circle cx="273.0000" cy="284.5488" r="2.25" stroke="#d14c00" stroke-width="1.0" fill="#d14c00"/>
  <line x1="256.7500" y1="262.9485" x2="289.2500" y2="262.9485" stroke="#480079" stroke-width="1.0" />
  <circle cx="273.0000" cy="262.9485" r="2.25" stroke="#480079" stroke-width="1.0" fill="#480079"/>
  <line x1="256.7500" y1="242.9488" x2="289.2500" y2="242.9488" stroke="#000000" stroke-width="1.0" />
  <circle cx="273.0000" cy="242.9488" r="2.25" stroke="#000000" stroke-width="1.0" fill="#000000"/>
  <line x1="256.7500" y1="204.5488" x2="289.2500" y2="204.5488" stroke="#e99400" stroke-width="1.0" />
  <circle cx="273.0000" cy="204.5488" r="2.25" stroke="#e99400" stroke-width="1.0" fill="#e99400"/>
  <line x1="256.7350" y1="121.3485" x2="289.2650" y2="121.3485" stroke="#dd6b00" stroke-width="1.0" />
  <circle cx="273.0000" cy="121.3485" r="2.25" stroke="#dd6b00" stroke-width="1.0" fill="#dd6b00"/>
  <line x1="256.7500" y1="462.9488" x2="256.7500" y2="442.9489" stroke="#000000" stroke-width="1.0" />
  <rect
     style="fill:#ffffff;fill-opacity:1;fill-rule:nonzero;stroke:none"
     width="2"
     height="2"
     x="256.2500"
     y="451.9489"
     transform="rotate(270.0000 256.7500 452.9489)" /> 
  <path
     style="fill:none;stroke:#000000;stroke-width:1px;stroke-linecap:butt;stroke-linejoin:miter;stroke-opacity:1"
     d="m 256.7500,450.9489 2,2 -2,2 m -2.370121,-4 2,2 -2,2"
     transform="rotate(270.0000 256.7500 452.9489)"/>
  <line x1="256.7500" y1="464.5488" x2="289.2500" y2="464.5488" stroke="#e99400" stroke-width="1.0" />
  <circle cx="273.0000" cy="464.5488" r="2.25" stroke="#e99400" stroke-width="1.0" fill="#ffffff"/>
  <line x1="256.7500" y1="442.9489" x2="256.7500" y2="422.9488" stroke="#a5137f" stroke-width="1.0" />
  <rect
     style="fill:#ffffff;fill-opacity:1;fill-rule:nonzero;stroke:none"
     width="2"
     height="2"
     x="256.2500"
     y="431.9488"
     transform="rotate(-90.0000 256.7500 432.9488)" /> 
  <path
     style="fill:none;stroke:#a5137f;stroke-width:1px;stroke-linecap:butt;stroke-linejoin:miter;stroke-opacity:1"
     d="m 256.7500,430.9488 2,2 -2,2 m -2.370121,-4 2,2 -2,2"
     transform="rotate(-90.0000 256.7500 432.9488)"/>
  <line x1="256.7500" y1="442.5989" x2="289.2500" y2="442.5989" stroke="#6801dc" stroke-width="1.0" />
  <line x1="256.7500" y1="440.0989" x2="289.2500" y2="440.0989" stroke="#6801dc" stroke-width="1.0" />
  <line x1="256.7500" y1="421.3488" x2="289.2500" y2="421.3488" stroke="#6801dc" stroke-width="1.0" />
  <line x1="256.7500" y1="402.9489" x2="256.7500" y2="382.9487" stroke="#d14c00" stroke-width="1.0" />
  <rect
     style="fill:#ffffff;fill-opacity:1;fill-rule:nonzero;stroke:none"
     width="2"
     height="2"
     x="256.2500"
     y="391.9488"
     transform="rotate(-90.0000 256.7500 392.9488)" /> 
  <path
     style="fill:none;stroke:#d14c00;stroke-width:1px;stroke-linecap:butt;stroke-linejoin:miter;stroke-opacity:1"
     d="m 256.7500,390.9488 2,2 -2,2 m -2.370121,-4 2,2 -2,2"
     transform="rotate(-90.0000 256.7500 392.9488)"/>
  <line x1="256.7500" y1="404.1989" x2="289.2500" y2="404.1989" stroke="#000000" stroke-width="1.0" />
  <line x1="256.7500" y1="401.6989" x2="289.2500" y2="401.6989" stroke="#000000" stroke-width="1.0" />
  <line x1="256.7500" y1="402.9489" x2="289.2500" y2="422.9488" stroke="#000000" stroke-width="1.0" />
  <rect
     style="fill:#ffffff;stroke:none"
     width="5.5"
     height="2"
     x="270.2500"
     y="411.9488" 
     transform="rotate(31.6073 273.0000 412.9488)"    /> 
  <path
     style="fill:none;stroke:#000000;stroke-width:1px;stroke-linecap:butt;stroke-linejoin:miter;stroke-opacity:1"
    d="m 273.7500,410.9488 2,2 -2,2 m -1.5,-4 -2,2 2,2" transform="rotate(31.6073 273.0000 412.9488)"/>
  <line x1="256.7500" y1="382.9487" x2="256.7500" y2="362.9489" stroke="#b41f06" stroke-width="1.0" />
  <rect
     style="fill:#ffffff;fill-opacity:1;fill-rule:nonzero;stroke:none"
     width="2"
     height="2"
     x="256.2500"
     y="371.9488"
     transform="rotate(270.0000 256.7500 372.9488)" /> 
  <path
     style="fill:none;stroke:#b41f06;stroke-width:1px;stroke-linecap:butt;stroke-linejoin:miter;stroke-opacity:1"
     d="m 256.7500,370.9488 2,2 -2,2 m -2.370121,-4 2,2 -2,2"
     transform="rotate(270.0000 256.7500 372.9488)"/>
  <line x1="256.7500" y1="384.1987" x2="289.2500" y2="384.1987" stroke="#480079" stroke-width="1.0" />
  <line x1="256.7500" y1="381.6987" x2="289.2500" y2="381.6987" stroke="#480079" stroke-width="1.0" />
  <line x1="256.7500" y1="362.9489" x2="256.7500" y2="342.9486" stroke="#000000" stroke-width="1.0" />
  <rect
     style="fill:#ffffff;fill-opacity:1;fill-rule:nonzero;stroke:none"
     width="2"
     height="2"
     x="256.2500"
     y="351.9487"
     transform="rotate(-90.0000 256.7500 352.9487)" /> 
  <path
     style="fill:none;stroke:#000000;stroke-width:1px;stroke-linecap:butt;stroke-linejoin:miter;stroke-opacity:1"
     d="m 256.7500,350.9487 2,2 -2,2 m -2.370121,-4 2,2 -2,2"
     transform="rotate(-90.0000 256.7500 352.9487)"/>
  <line x1="256.7500" y1="361.3489" x2="289.2500" y2="361.3489" stroke="#6801dc" stroke-width="1.0" />
  <line x1="256.7500" y1="362.9489" x2="289.2500" y2="382.9487" stroke="#e99400" stroke-width="1.0" />
  <rect
     style="fill:#ffffff;stroke:none"
     width="5.5"
     height="2"
     x="270.2500"
     y="371.9488" 
     transform="rotate(31.6073 273.0000 372.9488)"    /> 
  <path
     style="fill:none;stroke:#e99400;stroke-width:1px;stroke-linecap:butt;stroke-linejoin:miter;stroke-opacity:1"
    d="m 273.7500,370.9488 2,2 -2,2 m -1.5,-4 -2,2 2,2" transform="rotate(31.6073 273.0000 372.9488)"/>
  <line x1="256.7500" y1="344.1986" x2="289.2500" y2="344.1986" stroke="#480079" stroke-width="1.0" />
  <line x1="256.7500" y1="341.6986" x2="289.2500" y2="341.6986" stroke="#480079" stroke-width="1.0" />
  <line x1="256.7500" y1="322.9488" x2="256.7500" y2="302.9485" stroke="#a5137f" stroke-width="1.0" />
  <rect
     style="fill:#ffffff;fill-opacity:1;fill-rule:nonzero;stroke:none"
     width="2"
     height="2"
     x="256.2500"
     y="311.9487"
     transform="rotate(270.0000 256.7500 312.9487)" /> 
  <path
     style="fill:none;stroke:#a5137f;stroke-width:1px;stroke-linecap:butt;stroke-linejoin:miter;stroke-opacity:1"
     d="m 256.7500,310.9487 2,2 -2,2 m -2.370121,-4 2,2 -2,2"
     transform="rotate(270.0000 256.7500 312.9487)"/>
  <line x1="256.7500" y1="324.5488" x2="289.2500" y2="324.5488" stroke="#6801dc" stroke-width="1.0" />
  <line x1="256.7500" y1="322.9488" x2="289.2500" y2="342.9486" stroke="#9309df" stroke-width="1.0" />
  <rect
     style="fill:#ffffff;stroke:none"
     width="5.5"
     height="2"
     x="270.2500"
     y="331.9487" 
     transform="rotate(31.6072 273.0000 332.9487)"    /> 
  <path
     style="fill:none;stroke:#9309df;stroke-width:1px;stroke-linecap:butt;stroke-linejoin:miter;stroke-opacity:1"
    d="m 273.7500,330.9487 2,2 -2,2 m -1.5,-4 -2,2 2,2" transform="rotate(31.6072 273.0000 332.9487)"/>
  <line x1="256.7500" y1="302.9485" x2="256.7500" y2="282.9488" stroke="#e99400" stroke-width="1.0" />
  <rect
     style="fill:#ffffff;fill-opacity:1;fill-rule:nonzero;stroke:none"
     width="2"
     height="2"
     x="256.2500"
     y="291.9487"
     transform="rotate(-90.0000 256.7500 292.9487)" /> 
  <path
     style="fill:none;stroke:#e99400;stroke-width:1px;stroke-linecap:butt;stroke-linejoin:miter;stroke-opacity:1"
     d="m 256.7500,290.9487 2,2 -2,2 m -2.370121,-4 2,2 -2,2"
     transform="rotate(-90.0000 256.7500 292.9487)"/>
  <line x1="256.7500" y1="282.9488" x2="256.7500" y2="262.9485" stroke="#480079" stroke-width="1.0" />
  <rect
     style="fill:#ffffff;fill-opacity:1;fill-rule:nonzero;stroke:none"
     width="2"
     height="2"
     x="256.2500"
     y="271.9486"
     transform="rotate(-90.0000 256.7500 272.9486)" /> 
  <path
     style="fill:none;stroke:#480079;stroke-width:1px;stroke-linecap:butt;stroke-linejoin:miter;stroke-opacity:1"
     d="m 256.7500,270.9486 2,2 -2,2 m -2.370121,-4 2,2 -2,2"
     transform="rotate(-90.0000 256.7500 272.9486)"/>
  <line x1="256.7500" y1="242.9488" x2="256.7500" y2="222.9485" stroke="#000000" stroke-width="1.0" />
  <rect
     style="fill:#ffffff;fill-opacity:1;fill-rule:nonzero;stroke:none"
     width="2"
     height="2"
     x="256.2500"
     y="231.9486"
     transform="rotate(270.0000 256.7500 232.9486)" /> 
  <path
     style="fill:none;stroke:#000000;stroke-width:1px;stroke-linecap:butt;stroke-linejoin:miter;stroke-opacity:1"
     d="m 256.7500,230.9486 2,2 -2,2 m -2.370121,-4 2,2 -2,2"
     transform="rotate(270.0000 256.7500 232.9486)"/>
  <line x1="256.7500" y1="242.9488" x2="289.2500" y2="262.9485" stroke="#c33200" stroke-width="1.0" />
  <rect
     style="fill:#ffffff;stroke:none"
     width="5.5"
     height="2"
     x="270.2500"
     y="251.9486" 
     transform="rotate(31.6071 273.0000 252.9486)"    /> 
  <path
     style="fill:none;stroke:#c33200;stroke-width:1px;stroke-linecap:butt;stroke-linejoin:miter;stroke-opacity:1"
    d="m 273.7500,250.9486 2,2 -2,2 m -1.5,-4 -2,2 2,2" transform="rotate(31.6071 273.0000 252.9486)"/>
  <line x1="256.7500" y1="222.9485" x2="256.7500" y2="202.9488" stroke="#9309df" stroke-width="1.0" />
  <rect
     style="fill:#ffffff;fill-opacity:1;fill-rule:nonzero;stroke:none"
     width="2"
     height="2"
     x="256.2500"
     y="211.9486"
     transform="rotate(270.0000 256.7500 212.9486)" /> 
  <path
     style="fill:none;stroke:#9309df;stroke-width:1px;stroke-linecap:butt;stroke-linejoin:miter;stroke-opacity:1"
     d="m 256.7500,210.9486 2,2 -2,2 m -2.370121,-4 2,2 -2,2"
     transform="rotate(270.0000 256.7500 212.9486)"/>
  <line x1="256.7500" y1="224.1985" x2="289.2500" y2="224.1985" stroke="#000000" stroke-width="1.0" />
  <line x1="256.7500" y1="221.6985" x2="289.2500" y2="221.6985" stroke="#000000" stroke-width="1.0" />
  <line x1="256.7500" y1="202.9488" x2="256.7500" y2="182.9485" stroke="#9309df" stroke-width="1.0" />
  <rect
     style="fill:#ffffff;fill-opacity:1;fill-rule:nonzero;stroke:none"
     width="2"
     height="2"
     x="256.2500"
     y="191.9487"
     transform="rotate(-90.0000 256.7500 192.9487)" /> 
  <path
     style="fill:none;stroke:#9309df;stroke-width:1px;stroke-linecap:butt;stroke-linejoin:miter;stroke-opacity:1"
     d="m 256.7500,190.9487 2,2 -2,2 m -2.370121,-4 2,2 -2,2"
     transform="rotate(-90.0000 256.7500 192.9487)"/>
  <line x1="256.7500" y1="201.3488" x2="289.2500" y2="201.3488" stroke="#6801dc" stroke-width="1.0" />
  <line x1="256.7500" y1="182.9485" x2="256.7500" y2="162.9489" stroke="#7e04ff" stroke-width="1.0" />
  <rect
     style="fill:#ffffff;fill-opacity:1;fill-rule:nonzero;stroke:none"
     width="2"
     height="2"
     x="256.2500"
     y="171.9487"
     transform="rotate(-89.9999 256.7500 172.9487)" /> 
  <path
     style="fill:none;stroke:#7e04ff;stroke-width:1px;stroke-linecap:butt;stroke-linejoin:miter;stroke-opacity:1"
     d="m 256.7500,170.9487 2,2 -2,2 m -2.370121,-4 2,2 -2,2"
     transform="rotate(-89.9999 256.7500 172.9487)"/>
  <line x1="256.7500" y1="184.1985" x2="289.2500" y2="184.1985" stroke="#000000" stroke-width="1.0" />
  <line x1="256.7500" y1="181.6985" x2="289.2500" y2="181.6985" stroke="#000000" stroke-width="1.0" />
  <line x1="256.7500" y1="182.9485" x2="289.2500" y2="202.9488" stroke="#e99400" stroke-width="1.0" />
  <rect
     style="fill:#ffffff;stroke:none"
     width="5.5"
     height="2"
     x="270.2500"
     y="191.9487" 
     transform="rotate(31.6079 273.0000 192.9487)"    /> 
  <path
     style="fill:none;stroke:#e99400;stroke-width:1px;stroke-linecap:butt;stroke-linejoin:miter;stroke-opacity:1"
    d="m 273.7500,190.9487 2,2 -2,2 m -1.5,-4 -2,2 2,2" transform="rotate(31.6079 273.0000 192.9487)"/>
  <line x1="256.7500" y1="164.1989" x2="289.2500" y2="164.1989" stroke="#000000" stroke-width="1.0" />
  <line x1="256.7500" y1="161.6989" x2="289.2500" y2="161.6989" stroke="#000000" stroke-width="1.0" />
  <line x1="256.7499" y1="142.9486" x2="256.7350" y2="122.9485" stroke="#9309df" stroke-width="1.0" />
  <rect
     style="fill:#ffffff;fill-opacity:1;fill-rule:nonzero;stroke:none"
     width="2"
     height="2"
     x="256.2425"
     y="131.9485"
     transform="rotate(269.9573 256.7425 132.9485)" /> 
  <path
     style="fill:none;stroke:#9309df;stroke-width:1px;stroke-linecap:butt;stroke-linejoin:miter;stroke-opacity:1"
     d="m 256.7425,130.9485 2,2 -2,2 m -2.370121,-4 2,2 -2,2"
     transform="rotate(269.9573 256.7425 132.9485)"/>
  <line x1="256.7499" y1="144.1986" x2="289.2501" y2="144.1986" stroke="#000000" stroke-width="1.0" />
  <line x1="256.7499" y1="141.6986" x2="289.2501" y2="141.6986" stroke="#000000" stroke-width="1.0" />
  <line x1="256.7499" y1="142.9486" x2="289.2500" y2="162.9489" stroke="#000000" stroke-width="1.0" />
  <rect
     style="fill:#ffffff;stroke:none"
     width="5.5"
     height="2"
     x="270.2500"
     y="151.9487" 
     transform="rotate(31.6079 273.0000 152.9487)"    /> 
  <path
     style="fill:none;stroke:#000000;stroke-width:1px;stroke-linecap:butt;stroke-linejoin:miter;stroke-opacity:1"
    d="m 273.7500,150.9487 2,2 -2,2 m -1.5,-4 -2,2 2,2" transform="rotate(31.6079 273.0000 152.9487)"/>
  <line x1="256.7350" y1="122.9485" x2="256.7295" y2="102.9477" stroke="#9309df" stroke-width="1.0" />
  <rect
     style="fill:#ffffff;fill-opacity:1;fill-rule:nonzero;stroke:none"
     width="2"
     height="2"
     x="256.2323"
     y="111.9481"
     transform="rotate(269.9841 256.7323 112.9481)" /> 
  <path
     style="fill:none;stroke:#9309df;stroke-width:1px;stroke-linecap:butt;stroke-linejoin:miter;stroke-opacity:1"
     d="m 256.7323,110.9481 2,2 -2,2 m -2.370121,-4 2,2 -2,2"
     transform="rotate(269.9841 256.7323 112.9481)"/>
  <line x1="256.7350" y1="124.5485" x2="289.2650" y2="124.5485" stroke="#9309df" stroke-width="1.0" />
  <line x1="256.7350" y1="122.9485" x2="289.2501" y2="142.9486" stroke="#e99400" stroke-width="1.0" />
  <rect
     style="fill:#ffffff;stroke:none"
     width="5.5"
     height="2"
     x="270.2425"
     y="131.9485" 
     transform="rotate(31.5957 272.9925 132.9485)"    /> 
  <path
     style="fill:none;stroke:#e99400;stroke-width:1px;stroke-linecap:butt;stroke-linejoin:miter;stroke-opacity:1"
    d="m 273.7425,130.9485 2,2 -2,2 m -1.5,-4 -2,2 2,2" transform="rotate(31.5957 272.9925 132.9485)"/>
  <line x1="256.7295" y1="102.9477" x2="263.0184" y2="83.9755" stroke="#c33200" stroke-width="1.0" />
  <rect
     style="fill:#ffffff;fill-opacity:1;fill-rule:nonzero;stroke:none"
     width="2"
     height="2"
     x="259.3740"
     y="92.4616"
     transform="rotate(-71.6605 259.8740 93.4616)" /> 
  <path
     style="fill:none;stroke:#c33200;stroke-width:1px;stroke-linecap:butt;stroke-linejoin:miter;stroke-opacity:1"
     d="m 259.8740,91.4616 2,2 -2,2 m -2.370121,-4 2,2 -2,2"
     transform="rotate(-71.6605 259.8740 93.4616)"/>
  <line x1="256.7295" y1="104.1977" x2="289.2705" y2="104.1977" stroke="#000000" stroke-width="1.0" />
  <line x1="256.7295" y1="101.6977" x2="289.2705" y2="101.6977" stroke="#000000" stroke-width="1.0" />
  <line x1="256.7295" y1="102.9477" x2="289.2650" y2="122.9485" stroke="#e99400" stroke-width="1.0" />
  <rect
     style="fill:#ffffff;stroke:none"
     width="5.5"
     height="2"
     x="270.2472"
     y="111.9481" 
     transform="rotate(31.5806 272.9972 112.9481)"    /> 
  <path
     style="fill:none;stroke:#e99400;stroke-width:1px;stroke-linecap:butt;stroke-linejoin:miter;stroke-opacity:1"
    d="m 273.7472,110.9481 2,2 -2,2 m -1.5,-4 -2,2 2,2" transform="rotate(31.5806 272.9972 112.9481)"/>
  <line x1="263.0184" y1="85.2255" x2="282.9816" y2="85.2255" stroke="#000000" stroke-width="1.0" />
  <line x1="263.0184" y1="82.7255" x2="282.9816" y2="82.7255" stroke="#000000" stroke-width="1.0" />
  <line x1="263.0184" y1="83.9755" x2="289.2705" y2="102.9477" stroke="#c33200" stroke-width="1.0" />
  <rect
     style="fill:#ffffff;stroke:none"
     width="5.5"
     height="2"
     x="273.3945"
     y="92.4616" 
     transform="rotate(35.8554 276.1445 93.4616)"    /> 
  <path
     style="fill:none;stroke:#c33200;stroke-width:1px;stroke-linecap:butt;stroke-linejoin:miter;stroke-opacity:1"
    d="m 276.8945,91.4616 2,2 -2,2 m -1.5,-4 -2,2 2,2" transform="rotate(35.8554 276.1445 93.4616)"/>
  <line x1="282.9816" y1="83.9755" x2="289.2705" y2="102.9477" stroke="#c33200" stroke-width="1.0" />
  <rect
     style="fill:#ffffff;fill-opacity:1;fill-rule:nonzero;stroke:none"
     width="2"
     height="2"
     x="285.6260"
     y="92.4616"
     transform="rotate(71.6605 286.1260 93.4616)" /> 
  <path
     style="fill:none;stroke:#c33200;stroke-width:1px;stroke-linecap:butt;stroke-linejoin:miter;stroke-opacity:1"
     d="m 286.1260,91.4616 2,2 -2,2 m -2.370121,-4 2,2 -2,2"
     transform="rotate(71.6605 286.1260 93.4616)"/>
  <line x1="289.2705" y1="102.9477" x2="289.2650" y2="122.9485" stroke="#7e04ff" stroke-width="1.0" />
  <rect
     style="fill:#ffffff;fill-opacity:1;fill-rule:nonzero;stroke:none"
     width="2"
     height="2"
     x="288.7677"
     y="111.9481"
     transform="rotate(90.0159 289.2677 112.9481)" /> 
  <path
     style="fill:none;stroke:#7e04ff;stroke-width:1px;stroke-linecap:butt;stroke-linejoin:miter;stroke-opacity:1"
     d="m 289.2677,110.9481 2,2 -2,2 m -2.370121,-4 2,2 -2,2"
     transform="rotate(90.0159 289.2677 112.9481)"/>
  <line x1="289.2650" y1="122.9485" x2="289.2501" y2="142.9486" stroke="#d14c00" stroke-width="1.0" />
  <rect
     style="fill:#ffffff;fill-opacity:1;fill-rule:nonzero;stroke:none"
     width="2"
     height="2"
     x="288.7575"
     y="131.9485"
     transform="rotate(90.0427 289.2575 132.9485)" /> 
  <path
     style="fill:none;stroke:#d14c00;stroke-width:1px;stroke-linecap:butt;stroke-linejoin:miter;stroke-opacity:1"
     d="m 289.2575,130.9485 2,2 -2,2 m -2.370121,-4 2,2 -2,2"
     transform="rotate(90.0427 289.2575 132.9485)"/>
  <line x1="289.2500" y1="162.9489" x2="289.2500" y2="182.9485" stroke="#a5137f" stroke-width="1.0" />
  <rect
     style="fill:#ffffff;fill-opacity:1;fill-rule:nonzero;stroke:none"
     width="2"
     height="2"
     x="288.7500"
     y="171.9487"
     transform="rotate(89.9999 289.2500 172.9487)" /> 
  <path
     style="fill:none;stroke:#a5137f;stroke-width:1px;stroke-linecap:butt;stroke-linejoin:miter;stroke-opacity:1"
     d="m 289.2500,170.9487 2,2 -2,2 m -2.370121,-4 2,2 -2,2"
     transform="rotate(89.9999 289.2500 172.9487)"/>
  <line x1="289.2500" y1="182.9485" x2="289.2500" y2="202.9488" stroke="#7e04ff" stroke-width="1.0" />
  <rect
     style="fill:#ffffff;fill-opacity:1;fill-rule:nonzero;stroke:none"
     width="2"
     height="2"
     x="288.7500"
     y="191.9487"
     transform="rotate(90.0000 289.2500 192.9487)" /> 
  <path
     style="fill:none;stroke:#7e04ff;stroke-width:1px;stroke-linecap:butt;stroke-linejoin:miter;stroke-opacity:1"
     d="m 289.2500,190.9487 2,2 -2,2 m -2.370121,-4 2,2 -2,2"
     transform="rotate(90.0000 289.2500 192.9487)"/>
  <line x1="289.2500" y1="202.9488" x2="289.2500" y2="222.9485" stroke="#7e04ff" stroke-width="1.0" />
  <rect
     style="fill:#ffffff;fill-opacity:1;fill-rule:nonzero;stroke:none"
     width="2"
     height="2"
     x="288.7500"
     y="211.9486"
     transform="rotate(90.0000 289.2500 212.9486)" /> 
  <path
     style="fill:none;stroke:#7e04ff;stroke-width:1px;stroke-linecap:butt;stroke-linejoin:miter;stroke-opacity:1"
     d="m 289.2500,210.9486 2,2 -2,2 m -2.370121,-4 2,2 -2,2"
     transform="rotate(90.0000 289.2500 212.9486)"/>
  <line x1="289.2500" y1="222.9485" x2="289.2500" y2="242.9488" stroke="#000000" stroke-width="1.0" />
  <rect
     style="fill:#ffffff;fill-opacity:1;fill-rule:nonzero;stroke:none"
     width="2"
     height="2"
     x="288.7500"
     y="231.9486"
     transform="rotate(90.0000 289.2500 232.9486)" /> 
  <path
     style="fill:none;stroke:#000000;stroke-width:1px;stroke-linecap:butt;stroke-linejoin:miter;stroke-opacity:1"
     d="m 289.2500,230.9486 2,2 -2,2 m -2.370121,-4 2,2 -2,2"
     transform="rotate(90.0000 289.2500 232.9486)"/>
  <line x1="289.2500" y1="242.9488" x2="289.2500" y2="262.9485" stroke="#dd6b00" stroke-width="1.0" />
  <rect
     style="fill:#ffffff;fill-opacity:1;fill-rule:nonzero;stroke:none"
     width="2"
     height="2"
     x="288.7500"
     y="251.9486"
     transform="rotate(90.0000 289.2500 252.9486)" /> 
  <path
     style="fill:none;stroke:#dd6b00;stroke-width:1px;stroke-linecap:butt;stroke-linejoin:miter;stroke-opacity:1"
     d="m 289.2500,250.9486 2,2 -2,2 m -2.370121,-4 2,2 -2,2"
     transform="rotate(90.0000 289.2500 252.9486)"/>
  <line x1="289.2500" y1="262.9485" x2="289.2500" y2="282.9488" stroke="#000000" stroke-width="1.0" />
  <rect
     style="fill:#ffffff;fill-opacity:1;fill-rule:nonzero;stroke:none"
     width="2"
     height="2"
     x="288.7500"
     y="271.9486"
     transform="rotate(90.0000 289.2500 272.9486)" /> 
  <path
     style="fill:none;stroke:#000000;stroke-width:1px;stroke-linecap:butt;stroke-linejoin:miter;stroke-opacity:1"
     d="m 289.2500,270.9486 2,2 -2,2 m -2.370121,-4 2,2 -2,2"
     transform="rotate(90.0000 289.2500 272.9486)"/>
  <line x1="289.2500" y1="282.9488" x2="289.2500" y2="302.9485" stroke="#6801dc" stroke-width="1.0" />
  <rect
     style="fill:#ffffff;fill-opacity:1;fill-rule:nonzero;stroke:none"
     width="2"
     height="2"
     x="288.7500"
     y="291.9487"
     transform="rotate(90.0000 289.2500 292.9487)" /> 
  <path
     style="fill:none;stroke:#6801dc;stroke-width:1px;stroke-linecap:butt;stroke-linejoin:miter;stroke-opacity:1"
     d="m 289.2500,290.9487 2,2 -2,2 m -2.370121,-4 2,2 -2,2"
     transform="rotate(90.0000 289.2500 292.9487)"/>
  <line x1="289.2500" y1="302.9485" x2="289.2500" y2="322.9488" stroke="#9309df" stroke-width="1.0" />
  <rect
     style="fill:#ffffff;fill-opacity:1;fill-rule:nonzero;stroke:none"
     width="2"
     height="2"
     x="288.7500"
     y="311.9487"
     transform="rotate(90.0000 289.2500 312.9487)" /> 
  <path
     style="fill:none;stroke:#9309df;stroke-width:1px;stroke-linecap:butt;stroke-linejoin:miter;stroke-opacity:1"
     d="m 289.2500,310.9487 2,2 -2,2 m -2.370121,-4 2,2 -2,2"
     transform="rotate(90.0000 289.2500 312.9487)"/>
  <line x1="289.2500" y1="342.9486" x2="289.2500" y2="362.9489" stroke="#000000" stroke-width="1.0" />
  <rect
     style="fill:#ffffff;fill-opacity:1;fill-rule:nonzero;stroke:none"
     width="2"
     height="2"
     x="288.7500"
     y="351.9487"
     transform="rotate(90.0000 289.2500 352.9487)" /> 
  <path
     style="fill:none;stroke:#000000;stroke-width:1px;stroke-linecap:butt;stroke-linejoin:miter;stroke-opacity:1"
     d="m 289.2500,350.9487 2,2 -2,2 m -2.370121,-4 2,2 -2,2"
     transform="rotate(90.0000 289.2500 352.9487)"/>
  <line x1="289.2500" y1="362.9489" x2="289.2500" y2="382.9487" stroke="#480079" stroke-width="1.0" />
  <rect
     style="fill:#ffffff;fill-opacity:1;fill-rule:nonzero;stroke:none"
     width="2"
     height="2"
     x="288.7500"
     y="371.9488"
     transform="rotate(90.0000 289.2500 372.9488)" /> 
  <path
     style="fill:none;stroke:#480079;stroke-width:1px;stroke-linecap:butt;stroke-linejoin:miter;stroke-opacity:1"
     d="m 289.2500,370.9488 2,2 -2,2 m -2.370121,-4 2,2 -2,2"
     transform="rotate(90.0000 289.2500 372.9488)"/>
  <line x1="289.2500" y1="382.9487" x2="289.2500" y2="402.9489" stroke="#6801dc" stroke-width="1.0" />
  <rect
     style="fill:#ffffff;fill-opacity:1;fill-rule:nonzero;stroke:none"
     width="2"
     height="2"
     x="288.7500"
     y="391.9488"
     transform="rotate(90.0000 289.2500 392.9488)" /> 
  <path
     style="fill:none;stroke:#6801dc;stroke-width:1px;stroke-linecap:butt;stroke-linejoin:miter;stroke-opacity:1"
     d="m 289.2500,390.9488 2,2 -2,2 m -2.370121,-4 2,2 -2,2"
     transform="rotate(90.0000 289.2500 392.9488)"/>
  <line x1="289.2500" y1="422.9488" x2="289.2500" y2="442.9489" stroke="#b41f06" stroke-width="1.0" />
  <rect
     style="fill:#ffffff;fill-opacity:1;fill-rule:nonzero;stroke:none"
     width="2"
     height="2"
     x="288.7500"
     y="431.9488"
     transform="rotate(90.0000 289.2500 432.9488)" /> 
  <path
     style="fill:none;stroke:#b41f06;stroke-width:1px;stroke-linecap:butt;stroke-linejoin:miter;stroke-opacity:1"
     d="m 289.2500,430.9488 2,2 -2,2 m -2.370121,-4 2,2 -2,2"
     transform="rotate(90.0000 289.2500 432.9488)"/>
  <line x1="289.2500" y1="442.9489" x2="289.2500" y2="462.9488" stroke="#b41f06" stroke-width="1.0" />
  <rect
     style="fill:#ffffff;fill-opacity:1;fill-rule:nonzero;stroke:none"
     width="2"
     height="2"
     x="288.2500"
     y="451.9489" 
     transform="rotate(90.0000 289.2500 452.9489)" /> 
  <path
     style="fill:none;stroke:#b41f06;stroke-width:1px;stroke-linecap:butt;stroke-linejoin:miter;stroke-opacity:1"
     d="m 292.2500,450.9489 -2,2 2,2 m -6,-4 2,2 -2,2"
     transform="rotate(90.0000 289.2500 452.9489)"/>
<circle cx="256.7500" cy="462.9488" r="5.0" stroke="#595959" stroke-width="1.0" fill="#ffffff"/>
<text x="256.7500" y="465.6488" text-anchor="middle" font-family="Helvetica" font-size="7.5" fill="#000000" >A</text>
<circle cx="256.7500" cy="442.9489" r="5.0" stroke="#595959" stroke-width="1.0" fill="#ffffff"/>
<text x="256.7500" y="445.6489" text-anchor="middle" font-family="Helvetica" font-size="7.5" fill="#000000" >C</text>
<circle cx="256.7500" cy="422.9488" r="5.0" stroke="#595959" stroke-width="1.0" fill="#ffffff"/>
<text x="256.7500" y="425.6488" text-anchor="middle" font-family="Helvetica" font-size="7.5" fill="#000000" >U</text>
<circle cx="256.7500" cy="402.9489" r="5.0" stroke="#595959" stroke-width="1.0" fill="#ffffff"/>
<text x="256.7500" y="405.6489" text-anchor="middle" font-family="Helvetica" font-size="7.5" fill="#000000" >G</text>
<circle cx="256.7500" cy="382.9487" r="5.0" stroke="#595959" stroke-width="1.0" fill="#ffffff"/>
<text x="256.7500" y="385.6487" text-anchor="middle" font-family="Helvetica" font-size="7.5" fill="#000000" >G</text>
<circle cx="256.7500" cy="362.9489" r="5.0" stroke="#595959" stroke-width="1.0" fill="#ffffff"/>
<text x="256.7500" y="365.6489" text-anchor="middle" font-family="Helvetica" font-size="7.5" fill="#000000" >A</text>
<circle cx="256.7500" cy="342.9486" r="5.0" stroke="#595959" stroke-width="1.0" fill="#ffffff"/>
<text x="256.7500" y="345.6486" text-anchor="middle" font-family="Helvetica" font-size="7.5" fill="#000000" >C</text>
<circle cx="256.7500" cy="322.9488" r="5.0" stroke="#595959" stroke-width="1.0" fill="#ffffff"/>
<text x="256.7500" y="325.6488" text-anchor="middle" font-family="Helvetica" font-size="7.5" fill="#000000" >A</text>
<circle cx="256.7500" cy="302.9485" r="5.0" stroke="#595959" stroke-width="1.0" fill="#ffffff"/>
<text x="256.7500" y="305.6485" text-anchor="middle" font-family="Helvetica" font-size="7.5" fill="#000000" >I</text>
<circle cx="256.7500" cy="282.9488" r="5.0" stroke="#595959" stroke-width="1.0" fill="#ffffff"/>
<text x="256.7500" y="285.6488" text-anchor="middle" font-family="Helvetica" font-size="7.5" fill="#000000" >I</text>
<circle cx="256.7500" cy="262.9485" r="5.0" stroke="#595959" stroke-width="1.0" fill="orange"/>
<text x="256.7500" y="265.6485" text-anchor="middle" font-family="Helvetica" font-size="7.5" fill="#000000" >U</text>
<circle cx="256.7500" cy="242.9488" r="5.0" stroke="#595959" stroke-width="1.0" fill="#ffffff"/>
<text x="256.7500" y="245.6488" text-anchor="middle" font-family="Helvetica" font-size="7.5" fill="#000000" >I</text>
<circle cx="256.7500" cy="222.9485" r="5.0" stroke="#595959" stroke-width="1.0" fill="#ffffff"/>
<text x="256.7500" y="225.6485" text-anchor="middle" font-family="Helvetica" font-size="7.5" fill="#000000" >C</text>
<circle cx="256.7500" cy="202.9488" r="5.0" stroke="#595959" stroke-width="1.0" fill="#ffffff"/>
<text x="256.7500" y="205.6488" text-anchor="middle" font-family="Helvetica" font-size="7.5" fill="#000000" >U</text>
<circle cx="256.7500" cy="182.9485" r="5.0" stroke="#595959" stroke-width="1.0" fill="#ffffff"/>
<text x="256.7500" y="185.6485" text-anchor="middle" font-family="Helvetica" font-size="7.5" fill="#000000" >C</text>
<circle cx="256.7500" cy="162.9489" r="5.0" stroke="#595959" stroke-width="1.0" fill="#ffffff"/>
<text x="256.7500" y="165.6489" text-anchor="middle" font-family="Helvetica" font-size="7.5" fill="#000000" >C</text>
<circle cx="256.7499" cy="142.9486" r="5.0" stroke="#595959" stroke-width="1.0" fill="#ffffff"/>
<text x="256.7499" y="145.6486" text-anchor="middle" font-family="Helvetica" font-size="7.5" fill="#000000" >G</text>
<circle cx="256.7350" cy="122.9485" r="5.0" stroke="#595959" stroke-width="1.0" fill="#ffffff"/>
<text x="256.7350" y="125.6485" text-anchor="middle" font-family="Helvetica" font-size="7.5" fill="#000000" >A</text>
<circle cx="256.7295" cy="102.9477" r="5.0" stroke="#595959" stroke-width="1.0" fill="#ffffff"/>
<text x="256.7295" y="105.6477" text-anchor="middle" font-family="Helvetica" font-size="7.5" fill="#000000" >G</text>
<circle cx="263.0184" cy="83.9755" r="5.0" stroke="#595959" stroke-width="1.0" fill="#ffffff"/>
<text x="263.0184" y="86.6755" text-anchor="middle" font-family="Helvetica" font-size="7.5" fill="#000000" >G</text>
<circle cx="282.9816" cy="83.9755" r="5.0" stroke="#595959" stroke-width="1.0" fill="#ffffff"/>
<text x="282.9816" y="86.6755" text-anchor="middle" font-family="Helvetica" font-size="7.5" fill="#000000" >C</text>
<circle cx="289.2705" cy="102.9477" r="5.0" stroke="#595959" stroke-width="1.0" fill="#ffffff"/>
<text x="289.2705" y="105.6477" text-anchor="middle" font-family="Helvetica" font-size="7.5" fill="#000000" >C</text>
<circle cx="289.2650" cy="122.9485" r="5.0" stroke="#595959" stroke-width="1.0" fill="#ffffff"/>
<text x="289.2650" y="125.6485" text-anchor="middle" font-family="Helvetica" font-size="7.5" fill="#000000" >U</text>
<circle cx="289.2501" cy="142.9486" r="5.0" stroke="#595959" stroke-width="1.0" fill="#ffffff"/>
<text x="289.2501" y="145.6486" text-anchor="middle" font-family="Helvetica" font-size="7.5" fill="#000000" >C</text>
<circle cx="289.2500" cy="162.9489" r="5.0" stroke="#595959" stroke-width="1.0" fill="#ffffff"/>
<text x="289.2500" y="165.6489" text-anchor="middle" font-family="Helvetica" font-size="7.5" fill="#000000" >G</text>
<circle cx="289.2500" cy="182.9485" r="5.0" stroke="#595959" stroke-width="1.0" fill="#ffffff"/>
<text x="289.2500" y="185.6485" text-anchor="middle" font-family="Helvetica" font-size="7.5" fill="#000000" >G</text>
<circle cx="289.2500" cy="202.9488" r="5.0" stroke="#595959" stroke-width="1.0" fill="#ffffff"/>
<text x="289.2500" y="205.6488" text-anchor="middle" font-family="Helvetica" font-size="7.5" fill="#000000" >A</text>
<circle cx="289.2500" cy="222.9485" r="5.0" stroke="#595959" stroke-width="1.0" fill="#ffffff"/>
<text x="289.2500" y="225.6485" text-anchor="middle" font-family="Helvetica" font-size="7.5" fill="#000000" >G</text>
<circle cx="289.2500" cy="242.9488" r="5.0" stroke="#595959" stroke-width="1.0" fill="#ffffff"/>
<text x="289.2500" y="245.6488" text-anchor="middle" font-family="Helvetica" font-size="7.5" fill="#000000" >U</text>
<circle cx="289.2500" cy="262.9485" r="5.0" stroke="#595959" stroke-width="1.0" fill="orange"/>
<text x="289.2500" y="265.6485" text-anchor="middle" font-family="Helvetica" font-size="7.5" fill="#000000" >I</text>
<circle cx="289.2500" cy="282.9488" r="5.0" stroke="#595959" stroke-width="1.0" fill="orange"/>
<text x="289.2500" y="285.6488" text-anchor="middle" font-family="Helvetica" font-size="7.5" fill="#000000" >U</text>
<circle cx="289.2500" cy="302.9485" r="5.0" stroke="#595959" stroke-width="1.0" fill="#ffffff"/>
<text x="289.2500" y="305.6485" text-anchor="middle" font-family="Helvetica" font-size="7.5" fill="#000000" >U</text>
<circle cx="289.2500" cy="322.9488" r="5.0" stroke="#595959" stroke-width="1.0" fill="#ffffff"/>
<text x="289.2500" y="325.6488" text-anchor="middle" font-family="Helvetica" font-size="7.5" fill="#000000" >U</text>
<circle cx="289.2500" cy="342.9486" r="5.0" stroke="#595959" stroke-width="1.0" fill="#ffffff"/>
<text x="289.2500" y="345.6486" text-anchor="middle" font-family="Helvetica" font-size="7.5" fill="#000000" >G</text>
<circle cx="289.2500" cy="362.9489" r="5.0" stroke="#595959" stroke-width="1.0" fill="#ffffff"/>
<text x="289.2500" y="365.6489" text-anchor="middle" font-family="Helvetica" font-size="7.5" fill="#000000" >U</text>
<circle cx="289.2500" cy="382.9487" r="5.0" stroke="#595959" stroke-width="1.0" fill="#ffffff"/>
<text x="289.2500" y="385.6487" text-anchor="middle" font-family="Helvetica" font-size="7.5" fill="#000000" >C</text>
<circle cx="289.2500" cy="402.9489" r="5.0" stroke="#595959" stroke-width="1.0" fill="#ffffff"/>
<text x="289.2500" y="405.6489" text-anchor="middle" font-family="Helvetica" font-size="7.5" fill="#000000" >C</text>
<circle cx="289.2500" cy="422.9488" r="5.0" stroke="#595959" stroke-width="1.0" fill="#ffffff"/>
<text x="289.2500" y="425.6488" text-anchor="middle" font-family="Helvetica" font-size="7.5" fill="#000000" >A</text>
<circle cx="289.2500" cy="442.9489" r="5.0" stroke="#595959" stroke-width="1.0" fill="#ffffff"/>
<text x="289.2500" y="445.6489" text-anchor="middle" font-family="Helvetica" font-size="7.5" fill="#000000" >G</text>
<circle cx="289.2500" cy="462.9488" r="5.0" stroke="#595959" stroke-width="1.0" fill="#ffffff"/>
<text x="289.2500" y="465.6488" text-anchor="middle" font-family="Helvetica" font-size="7.5" fill="#000000" >U</text>
</svg>
