<?xml version="1.0" encoding="UTF-8"?>
<!DOCTYPE svg PUBLIC "-//W3C//DTD SVG 1.1//EN" 
"http://www.w3.org/Graphics/SVG/1.1/DTD/svg11.dtd">

<svg version="1.1"
   width="546px"
   height="546px"
xmlns="http://www.w3.org/2000/svg">
    <rect width="100%" height="100%" fill="white"/>

  <line x1="256.7500" y1="422.9482" x2="256.7500" y2="402.9484" stroke="#595959"
     style="stroke-width:2;stroke-miterlimit:4;stroke-dasharray:1,1;stroke-dashoffset:0" />
  <line x1="256.7500" y1="262.9486" x2="256.7500" y2="242.9488" stroke="#595959"
     style="stroke-width:2;stroke-miterlimit:4;stroke-dasharray:1,1;stroke-dashoffset:0" />
  <line x1="256.7500" y1="162.9490" x2="256.7497" y2="142.9489" stroke="#595959"
     style="stroke-width:2;stroke-miterlimit:4;stroke-dasharray:1,1;stroke-dashoffset:0" />
  <line x1="289.2503" y1="142.9489" x2="289.2500" y2="162.9490" stroke="#595959"
     style="stroke-width:2;stroke-miterlimit:4;stroke-dasharray:1,1;stroke-dashoffset:0" />
  <line x1="289.2500" y1="242.9488" x2="289.2500" y2="262.9486" stroke="#595959"
     style="stroke-width:2;stroke-miterlimit:4;stroke-dasharray:1,1;stroke-dashoffset:0" />
  <line x1="289.2500" y1="402.9484" x2="289.2500" y2="422.9482" stroke="#595959"
     style="stroke-width:2;stroke-miterlimit:4;stroke-dasharray:1,1;stroke-dashoffset:0" />
  <line x1="256.7500" y1="464.5482" x2="289.2500" y2="464.5482" stroke="#af1b2c" stroke-width="1.0" />
  <circle cx="273.0000" cy="464.5482" r="2.25" stroke="#af1b2c" stroke-width="1.0" fill="#af1b2c"/>
  <line x1="256.7500" y1="384.5482" x2="289.2500" y2="384.5482" stroke="#e89000" stroke-width="1.0" />
  <circle cx="273.0000" cy="384.5482" r="2.25" stroke="#e89000" stroke-width="1.0" fill="#e89000"/>
  <line x1="256.7500" y1="362.9484" x2="289.2500" y2="342.9483" stroke="#df7200" stroke-width="1.0" />
  <circle cx="273.0000" cy="352.9484" r="2.25" stroke="#df7200" stroke-width="1.0" fill="#df7200"/>
  <line x1="256.7500" y1="361.3484" x2="289.2500" y2="361.3484" stroke="#cd4500" stroke-width="1.0" />
  <circle cx="273.0000" cy="361.3484" r="2.25" stroke="#cd4500" stroke-width="1.0" fill="#cd4500"/>
  <line x1="256.7500" y1="344.5483" x2="289.2500" y2="344.5483" stroke="#efaf00" stroke-width="1.0" />
  <circle cx="273.0000" cy="344.5483" r="2.25" stroke="#efaf00" stroke-width="1.0" fill="#efaf00"/>
  <line x1="256.7500" y1="324.5485" x2="289.2500" y2="324.5485" stroke="#efaf00" stroke-width="1.0" />
  <circle cx="273.0000" cy="324.5485" r="2.25" stroke="#efaf00" stroke-width="1.0" fill="#efaf00"/>
  <line x1="256.7500" y1="301.3484" x2="289.2500" y2="301.3484" stroke="#a31289" stroke-width="1.0" />
  <circle cx="273.0000" cy="301.3484" r="2.25" stroke="#a31289" stroke-width="1.0" fill="#a31289"/>
  <line x1="256.7500" y1="304.5484" x2="289.2500" y2="304.5484" stroke="#df7200" stroke-width="1.0" />
  <circle cx="273.0000" cy="304.5484" r="2.25" stroke="#df7200" stroke-width="1.0" fill="#df7200"/>
  <line x1="258.3500" y1="282.9487" x2="258.3500" y2="262.9486" stroke="#efaf00" stroke-width="1.0" />
  <path d="M 252.6000 275.1986 L 252.6000 270.6986 L 257.1000 270.6986 L 257.1000 275.1986 z" style="stroke:#efaf00;stroke-width:1.0" fill="#efaf00" 
    transform="rotate(270.0000 258.3500 272.9486)"/>
  <path d="M 260.1000 275.1986 L 260.1000 270.6986 L 264.1000 272.9486 z" style="stroke:#efaf00;stroke-width:1.0" fill="#efaf00"
    transform="rotate(270.0000 258.3500 272.9486)"/>
  <line x1="256.7500" y1="281.3487" x2="289.2500" y2="281.3487" stroke="#b92500" stroke-width="1.0" />
  <circle cx="273.0000" cy="281.3487" r="2.25" stroke="#b92500" stroke-width="1.0" fill="#b92500"/>
  <line x1="256.7500" y1="284.5487" x2="289.2500" y2="284.5487" stroke="#b92500" stroke-width="1.0" />
  <circle cx="273.0000" cy="284.5487" r="2.25" stroke="#b92500" stroke-width="1.0" fill="#b92500"/>
  <line x1="256.7500" y1="282.9487" x2="289.2500" y2="302.9484" stroke="#b92500" stroke-width="1.0" />
  <circle cx="273.0000" cy="292.9486" r="2.25" stroke="#b92500" stroke-width="1.0" fill="#b92500"/>
  <line x1="256.7500" y1="262.9486" x2="289.2500" y2="262.9486" stroke="#e89000" stroke-width="1.0" />
  <circle cx="273.0000" cy="262.9486" r="2.25" stroke="#e89000" stroke-width="1.0" fill="#e89000"/>
  <line x1="256.7500" y1="262.9486" x2="289.2500" y2="282.9487" stroke="#980bca" stroke-width="1.0" />
  <circle cx="273.0000" cy="272.9486" r="2.25" stroke="#980bca" stroke-width="1.0" fill="#980bca"/>
  <line x1="256.7500" y1="242.9488" x2="289.2500" y2="242.9488" stroke="#3c0057" stroke-width="1.0" />
  <circle cx="273.0000" cy="242.9488" r="2.25" stroke="#3c0057" stroke-width="1.0" fill="#3c0057"/>
  <line x1="256.7497" y1="144.5489" x2="289.2503" y2="144.5489" stroke="#efaf00" stroke-width="1.0" />
  <circle cx="273.0000" cy="144.5489" r="2.25" stroke="#efaf00" stroke-width="1.0" fill="#efaf00"/>
  <line x1="256.7378" y1="121.3491" x2="289.2622" y2="121.3491" stroke="#e89000" stroke-width="1.0" />
  <circle cx="273.0000" cy="121.3491" r="2.25" stroke="#e89000" stroke-width="1.0" fill="#e89000"/>
  <line x1="263.0188" y1="85.5767" x2="282.9812" y2="85.5767" stroke="#efaf00" stroke-width="1.0" />
  <circle cx="273.0000" cy="85.5767" r="2.25" stroke="#efaf00" stroke-width="1.0" fill="#efaf00"/>
  <line x1="256.7500" y1="462.9482" x2="256.7500" y2="442.9483" stroke="#000000" stroke-width="1.0" />
  <rect
     style="fill:#ffffff;fill-opacity:1;fill-rule:nonzero;stroke:none"
     width="2"
     height="2"
     x="256.2500"
     y="451.9483"
     transform="rotate(-90.0000 256.7500 452.9483)" /> 
  <path
     style="fill:none;stroke:#000000;stroke-width:1px;stroke-linecap:butt;stroke-linejoin:miter;stroke-opacity:1"
     d="m 256.7500,450.9483 2,2 -2,2 m -2.370121,-4 2,2 -2,2"
     transform="rotate(-90.0000 256.7500 452.9483)"/>
  <line x1="256.7500" y1="461.3482" x2="289.2500" y2="461.3482" stroke="#c43500" stroke-width="1.0" />
  <line x1="256.7500" y1="442.9483" x2="256.7500" y2="422.9482" stroke="#5800ac" stroke-width="1.0" />
  <rect
     style="fill:#ffffff;fill-opacity:1;fill-rule:nonzero;stroke:none"
     width="2"
     height="2"
     x="256.2500"
     y="431.9483"
     transform="rotate(270.0000 256.7500 432.9483)" /> 
  <path
     style="fill:none;stroke:#5800ac;stroke-width:1px;stroke-linecap:butt;stroke-linejoin:miter;stroke-opacity:1"
     d="m 256.7500,430.9483 2,2 -2,2 m -2.370121,-4 2,2 -2,2"
     transform="rotate(270.0000 256.7500 432.9483)"/>
  <line x1="256.7500" y1="444.1983" x2="289.2500" y2="444.1983" stroke="#3c0057" stroke-width="1.0" />
  <line x1="256.7500" y1="441.6983" x2="289.2500" y2="441.6983" stroke="#3c0057" stroke-width="1.0" />
  <line x1="256.7500" y1="422.9482" x2="289.2500" y2="422.9482" stroke="#3c0057" stroke-width="1.0" />
  <line x1="256.7500" y1="402.9484" x2="256.7500" y2="382.9482" stroke="#d75b00" stroke-width="1.0" />
  <rect
     style="fill:#ffffff;fill-opacity:1;fill-rule:nonzero;stroke:none"
     width="2"
     height="2"
     x="256.2500"
     y="391.9483"
     transform="rotate(270.0000 256.7500 392.9483)" /> 
  <path
     style="fill:none;stroke:#d75b00;stroke-width:1px;stroke-linecap:butt;stroke-linejoin:miter;stroke-opacity:1"
     d="m 256.7500,390.9483 2,2 -2,2 m -2.370121,-4 2,2 -2,2"
     transform="rotate(270.0000 256.7500 392.9483)"/>
  <line x1="256.7500" y1="404.1984" x2="289.2500" y2="404.1984" stroke="#3c0057" stroke-width="1.0" />
  <line x1="256.7500" y1="401.6984" x2="289.2500" y2="401.6984" stroke="#3c0057" stroke-width="1.0" />
  <line x1="256.7500" y1="402.9484" x2="289.2500" y2="422.9482" stroke="#000000" stroke-width="1.0" />
  <rect
     style="fill:#ffffff;stroke:none"
     width="5.5"
     height="2"
     x="270.2500"
     y="411.9483" 
     transform="rotate(31.6073 273.0000 412.9483)"    /> 
  <path
     style="fill:none;stroke:#000000;stroke-width:1px;stroke-linecap:butt;stroke-linejoin:miter;stroke-opacity:1"
    d="m 273.7500,410.9483 2,2 -2,2 m -1.5,-4 -2,2 2,2" transform="rotate(31.6073 273.0000 412.9483)"/>
  <line x1="256.7500" y1="382.9482" x2="256.7500" y2="362.9484" stroke="#a31289" stroke-width="1.0" />
  <rect
     style="fill:#ffffff;fill-opacity:1;fill-rule:nonzero;stroke:none"
     width="2"
     height="2"
     x="256.2500"
     y="371.9483"
     transform="rotate(-90.0000 256.7500 372.9483)" /> 
  <path
     style="fill:none;stroke:#a31289;stroke-width:1px;stroke-linecap:butt;stroke-linejoin:miter;stroke-opacity:1"
     d="m 256.7500,370.9483 2,2 -2,2 m -2.370121,-4 2,2 -2,2"
     transform="rotate(-90.0000 256.7500 372.9483)"/>
  <line x1="256.7500" y1="382.5982" x2="289.2500" y2="382.5982" stroke="#6a01e2" stroke-width="1.0" />
  <line x1="256.7500" y1="380.0982" x2="289.2500" y2="380.0982" stroke="#6a01e2" stroke-width="1.0" />
  <line x1="256.7500" y1="382.9482" x2="289.2500" y2="402.9484" stroke="#e89000" stroke-width="1.0" />
  <rect
     style="fill:#ffffff;stroke:none"
     width="5.5"
     height="2"
     x="270.2500"
     y="391.9483" 
     transform="rotate(31.6076 273.0000 392.9483)"    /> 
  <path
     style="fill:none;stroke:#e89000;stroke-width:1px;stroke-linecap:butt;stroke-linejoin:miter;stroke-opacity:1"
    d="m 273.7500,390.9483 2,2 -2,2 m -1.5,-4 -2,2 2,2" transform="rotate(31.6076 273.0000 392.9483)"/>
  <line x1="256.7500" y1="362.9484" x2="256.7500" y2="342.9483" stroke="#000000" stroke-width="1.0" />
  <rect
     style="fill:#ffffff;fill-opacity:1;fill-rule:nonzero;stroke:none"
     width="2"
     height="2"
     x="256.2500"
     y="351.9484"
     transform="rotate(-90.0000 256.7500 352.9484)" /> 
  <path
     style="fill:none;stroke:#000000;stroke-width:1px;stroke-linecap:butt;stroke-linejoin:miter;stroke-opacity:1"
     d="m 256.7500,350.9484 2,2 -2,2 m -2.370121,-4 2,2 -2,2"
     transform="rotate(-90.0000 256.7500 352.9484)"/>
  <line x1="256.7500" y1="364.5484" x2="289.2500" y2="364.5484" stroke="#980bca" stroke-width="1.0" />
  <line x1="256.7500" y1="362.9484" x2="289.2500" y2="382.9482" stroke="#efaf00" stroke-width="1.0" />
  <rect
     style="fill:#ffffff;stroke:none"
     width="5.5"
     height="2"
     x="270.2500"
     y="371.9483" 
     transform="rotate(31.6073 273.0000 372.9483)"    /> 
  <path
     style="fill:none;stroke:#efaf00;stroke-width:1px;stroke-linecap:butt;stroke-linejoin:miter;stroke-opacity:1"
    d="m 273.7500,370.9483 2,2 -2,2 m -1.5,-4 -2,2 2,2" transform="rotate(31.6073 273.0000 372.9483)"/>
  <line x1="256.7500" y1="342.9483" x2="256.7500" y2="322.9485" stroke="#efaf00" stroke-width="1.0" />
  <rect
     style="fill:#ffffff;fill-opacity:1;fill-rule:nonzero;stroke:none"
     width="2"
     height="2"
     x="256.2500"
     y="331.9484"
     transform="rotate(270.0000 256.7500 332.9484)" /> 
  <path
     style="fill:none;stroke:#efaf00;stroke-width:1px;stroke-linecap:butt;stroke-linejoin:miter;stroke-opacity:1"
     d="m 256.7500,330.9484 2,2 -2,2 m -2.370121,-4 2,2 -2,2"
     transform="rotate(270.0000 256.7500 332.9484)"/>
  <line x1="256.7500" y1="342.5983" x2="289.2500" y2="342.5983" stroke="#5800ac" stroke-width="1.0" />
  <line x1="256.7500" y1="340.0983" x2="289.2500" y2="340.0983" stroke="#5800ac" stroke-width="1.0" />
  <line x1="256.7500" y1="322.9485" x2="256.7500" y2="302.9484" stroke="#8a06f6" stroke-width="1.0" />
  <rect
     style="fill:#ffffff;fill-opacity:1;fill-rule:nonzero;stroke:none"
     width="2"
     height="2"
     x="256.2500"
     y="311.9485"
     transform="rotate(-90.0000 256.7500 312.9485)" /> 
  <path
     style="fill:none;stroke:#8a06f6;stroke-width:1px;stroke-linecap:butt;stroke-linejoin:miter;stroke-opacity:1"
     d="m 256.7500,310.9485 2,2 -2,2 m -2.370121,-4 2,2 -2,2"
     transform="rotate(-90.0000 256.7500 312.9485)"/>
  <line x1="256.7500" y1="321.3485" x2="289.2500" y2="321.3485" stroke="#5800ac" stroke-width="1.0" />
  <line x1="256.7500" y1="322.9485" x2="289.2500" y2="342.9483" stroke="#6a01e2" stroke-width="1.0" />
  <rect
     style="fill:#ffffff;stroke:none"
     width="5.5"
     height="2"
     x="270.2500"
     y="331.9484" 
     transform="rotate(31.6072 273.0000 332.9484)"    /> 
  <path
     style="fill:none;stroke:#6a01e2;stroke-width:1px;stroke-linecap:butt;stroke-linejoin:miter;stroke-opacity:1"
    d="m 273.7500,330.9484 2,2 -2,2 m -1.5,-4 -2,2 2,2" transform="rotate(31.6072 273.0000 332.9484)"/>
  <line x1="256.7500" y1="302.9484" x2="256.7500" y2="282.9487" stroke="#7c03fe" stroke-width="1.0" />
  <rect
     style="fill:#ffffff;fill-opacity:1;fill-rule:nonzero;stroke:none"
     width="2"
     height="2"
     x="256.2500"
     y="291.9486"
     transform="rotate(270.0000 256.7500 292.9486)" /> 
  <path
     style="fill:none;stroke:#7c03fe;stroke-width:1px;stroke-linecap:butt;stroke-linejoin:miter;stroke-opacity:1"
     d="m 256.7500,290.9486 2,2 -2,2 m -2.370121,-4 2,2 -2,2"
     transform="rotate(270.0000 256.7500 292.9486)"/>
  <line x1="255.1500" y1="282.9487" x2="255.1500" y2="262.9486" stroke="#6a01e2" stroke-width="1.0" />
  <rect
     style="fill:#ffffff;fill-opacity:1;fill-rule:nonzero;stroke:none"
     width="2"
     height="2"
     x="254.6500"
     y="271.9486"
     transform="rotate(270.0000 255.1500 272.9486)" /> 
  <path
     style="fill:none;stroke:#6a01e2;stroke-width:1px;stroke-linecap:butt;stroke-linejoin:miter;stroke-opacity:1"
     d="m 255.1500,270.9486 2,2 -2,2 m -2.370121,-4 2,2 -2,2"
     transform="rotate(270.0000 255.1500 272.9486)"/>
  <line x1="256.7500" y1="242.9488" x2="256.7500" y2="222.9487" stroke="#000000" stroke-width="1.0" />
  <rect
     style="fill:#ffffff;fill-opacity:1;fill-rule:nonzero;stroke:none"
     width="2"
     height="2"
     x="256.2500"
     y="231.9487"
     transform="rotate(270.0000 256.7500 232.9487)" /> 
  <path
     style="fill:none;stroke:#000000;stroke-width:1px;stroke-linecap:butt;stroke-linejoin:miter;stroke-opacity:1"
     d="m 256.7500,230.9487 2,2 -2,2 m -2.370121,-4 2,2 -2,2"
     transform="rotate(270.0000 256.7500 232.9487)"/>
  <line x1="256.7500" y1="242.9488" x2="289.2500" y2="262.9486" stroke="#b92500" stroke-width="1.0" />
  <rect
     style="fill:#ffffff;stroke:none"
     width="5.5"
     height="2"
     x="270.2500"
     y="251.9487" 
     transform="rotate(31.6072 273.0000 252.9487)"    /> 
  <path
     style="fill:none;stroke:#b92500;stroke-width:1px;stroke-linecap:butt;stroke-linejoin:miter;stroke-opacity:1"
    d="m 273.7500,250.9487 2,2 -2,2 m -1.5,-4 -2,2 2,2" transform="rotate(31.6072 273.0000 252.9487)"/>
  <line x1="256.7500" y1="222.9487" x2="256.7500" y2="202.9489" stroke="#7c03fe" stroke-width="1.0" />
  <rect
     style="fill:#ffffff;fill-opacity:1;fill-rule:nonzero;stroke:none"
     width="2"
     height="2"
     x="256.2500"
     y="211.9488"
     transform="rotate(270.0000 256.7500 212.9488)" /> 
  <path
     style="fill:none;stroke:#7c03fe;stroke-width:1px;stroke-linecap:butt;stroke-linejoin:miter;stroke-opacity:1"
     d="m 256.7500,210.9488 2,2 -2,2 m -2.370121,-4 2,2 -2,2"
     transform="rotate(270.0000 256.7500 212.9488)"/>
  <line x1="256.7500" y1="224.1987" x2="289.2500" y2="224.1987" stroke="#3c0057" stroke-width="1.0" />
  <line x1="256.7500" y1="221.6987" x2="289.2500" y2="221.6987" stroke="#3c0057" stroke-width="1.0" />
  <line x1="256.7500" y1="202.9489" x2="256.7500" y2="182.9488" stroke="#7c03fe" stroke-width="1.0" />
  <rect
     style="fill:#ffffff;fill-opacity:1;fill-rule:nonzero;stroke:none"
     width="2"
     height="2"
     x="256.2500"
     y="191.9489"
     transform="rotate(-90.0000 256.7500 192.9489)" /> 
  <path
     style="fill:none;stroke:#7c03fe;stroke-width:1px;stroke-linecap:butt;stroke-linejoin:miter;stroke-opacity:1"
     d="m 256.7500,190.9489 2,2 -2,2 m -2.370121,-4 2,2 -2,2"
     transform="rotate(-90.0000 256.7500 192.9489)"/>
  <line x1="256.7500" y1="202.9489" x2="289.2500" y2="202.9489" stroke="#3c0057" stroke-width="1.0" />
  <line x1="256.7500" y1="182.9488" x2="256.7500" y2="162.9490" stroke="#7c03fe" stroke-width="1.0" />
  <rect
     style="fill:#ffffff;fill-opacity:1;fill-rule:nonzero;stroke:none"
     width="2"
     height="2"
     x="256.2500"
     y="171.9489"
     transform="rotate(-90.0000 256.7500 172.9489)" /> 
  <path
     style="fill:none;stroke:#7c03fe;stroke-width:1px;stroke-linecap:butt;stroke-linejoin:miter;stroke-opacity:1"
     d="m 256.7500,170.9489 2,2 -2,2 m -2.370121,-4 2,2 -2,2"
     transform="rotate(-90.0000 256.7500 172.9489)"/>
  <line x1="256.7500" y1="184.1988" x2="289.2500" y2="184.1988" stroke="#000000" stroke-width="1.0" />
  <line x1="256.7500" y1="181.6988" x2="289.2500" y2="181.6988" stroke="#000000" stroke-width="1.0" />
  <line x1="256.7500" y1="164.1990" x2="289.2500" y2="164.1990" stroke="#000000" stroke-width="1.0" />
  <line x1="256.7500" y1="161.6990" x2="289.2500" y2="161.6990" stroke="#000000" stroke-width="1.0" />
  <line x1="256.7500" y1="162.9490" x2="289.2500" y2="182.9488" stroke="#d75b00" stroke-width="1.0" />
  <rect
     style="fill:#ffffff;stroke:none"
     width="5.5"
     height="2"
     x="270.2500"
     y="171.9489" 
     transform="rotate(31.6073 273.0000 172.9489)"    /> 
  <path
     style="fill:none;stroke:#d75b00;stroke-width:1px;stroke-linecap:butt;stroke-linejoin:miter;stroke-opacity:1"
    d="m 273.7500,170.9489 2,2 -2,2 m -1.5,-4 -2,2 2,2" transform="rotate(31.6073 273.0000 172.9489)"/>
  <line x1="256.7497" y1="142.9489" x2="256.7378" y2="122.9491" stroke="#980bca" stroke-width="1.0" />
  <rect
     style="fill:#ffffff;fill-opacity:1;fill-rule:nonzero;stroke:none"
     width="2"
     height="2"
     x="256.2438"
     y="131.9490"
     transform="rotate(269.9661 256.7438 132.9490)" /> 
  <path
     style="fill:none;stroke:#980bca;stroke-width:1px;stroke-linecap:butt;stroke-linejoin:miter;stroke-opacity:1"
     d="m 256.7438,130.9490 2,2 -2,2 m -2.370121,-4 2,2 -2,2"
     transform="rotate(269.9661 256.7438 132.9490)"/>
  <line x1="256.7497" y1="142.5989" x2="289.2503" y2="142.5989" stroke="#5800ac" stroke-width="1.0" />
  <line x1="256.7497" y1="140.0989" x2="289.2503" y2="140.0989" stroke="#5800ac" stroke-width="1.0" />
  <line x1="256.7497" y1="142.9489" x2="289.2500" y2="162.9490" stroke="#000000" stroke-width="1.0" />
  <rect
     style="fill:#ffffff;stroke:none"
     width="5.5"
     height="2"
     x="270.2498"
     y="151.9489" 
     transform="rotate(31.6073 272.9998 152.9489)"    /> 
  <path
     style="fill:none;stroke:#000000;stroke-width:1px;stroke-linecap:butt;stroke-linejoin:miter;stroke-opacity:1"
    d="m 273.7498,150.9489 2,2 -2,2 m -1.5,-4 -2,2 2,2" transform="rotate(31.6073 272.9998 152.9489)"/>
  <line x1="256.7378" y1="122.9491" x2="256.7281" y2="102.9489" stroke="#d75b00" stroke-width="1.0" />
  <rect
     style="fill:#ffffff;fill-opacity:1;fill-rule:nonzero;stroke:none"
     width="2"
     height="2"
     x="256.2330"
     y="111.9490"
     transform="rotate(269.9721 256.7330 112.9490)" /> 
  <path
     style="fill:none;stroke:#d75b00;stroke-width:1px;stroke-linecap:butt;stroke-linejoin:miter;stroke-opacity:1"
     d="m 256.7330,110.9490 2,2 -2,2 m -2.370121,-4 2,2 -2,2"
     transform="rotate(269.9721 256.7330 112.9490)"/>
  <line x1="256.7378" y1="124.5491" x2="289.2622" y2="124.5491" stroke="#6a01e2" stroke-width="1.0" />
  <line x1="256.7281" y1="102.9489" x2="263.0188" y2="83.9767" stroke="#af1b2c" stroke-width="1.0" />
  <rect
     style="fill:#ffffff;fill-opacity:1;fill-rule:nonzero;stroke:none"
     width="2"
     height="2"
     x="259.3735"
     y="92.4628"
     transform="rotate(-71.6558 259.8735 93.4628)" /> 
  <path
     style="fill:none;stroke:#af1b2c;stroke-width:1px;stroke-linecap:butt;stroke-linejoin:miter;stroke-opacity:1"
     d="m 259.8735,91.4628 2,2 -2,2 m -2.370121,-4 2,2 -2,2"
     transform="rotate(-71.6558 259.8735 93.4628)"/>
  <line x1="256.7281" y1="104.1989" x2="289.2719" y2="104.1989" stroke="#3c0057" stroke-width="1.0" />
  <line x1="256.7281" y1="101.6989" x2="289.2719" y2="101.6989" stroke="#3c0057" stroke-width="1.0" />
  <line x1="256.7281" y1="102.9489" x2="289.2622" y2="122.9491" stroke="#e89000" stroke-width="1.0" />
  <rect
     style="fill:#ffffff;stroke:none"
     width="5.5"
     height="2"
     x="270.2451"
     y="111.9490" 
     transform="rotate(31.5809 272.9951 112.9490)"    /> 
  <path
     style="fill:none;stroke:#e89000;stroke-width:1px;stroke-linecap:butt;stroke-linejoin:miter;stroke-opacity:1"
    d="m 273.7451,110.9490 2,2 -2,2 m -1.5,-4 -2,2 2,2" transform="rotate(31.5809 272.9951 112.9490)"/>
  <line x1="263.0188" y1="83.6267" x2="282.9812" y2="83.6267" stroke="#5800ac" stroke-width="1.0" />
  <line x1="263.0188" y1="81.1267" x2="282.9812" y2="81.1267" stroke="#5800ac" stroke-width="1.0" />
  <line x1="282.9812" y1="83.9767" x2="289.2719" y2="102.9489" stroke="#8a06f6" stroke-width="1.0" />
  <rect
     style="fill:#ffffff;fill-opacity:1;fill-rule:nonzero;stroke:none"
     width="2"
     height="2"
     x="285.6265"
     y="92.4628"
     transform="rotate(71.6558 286.1265 93.4628)" /> 
  <path
     style="fill:none;stroke:#8a06f6;stroke-width:1px;stroke-linecap:butt;stroke-linejoin:miter;stroke-opacity:1"
     d="m 286.1265,91.4628 2,2 -2,2 m -2.370121,-4 2,2 -2,2"
     transform="rotate(71.6558 286.1265 93.4628)"/>
  <line x1="289.2719" y1="102.9489" x2="289.2622" y2="122.9491" stroke="#6a01e2" stroke-width="1.0" />
  <rect
     style="fill:#ffffff;fill-opacity:1;fill-rule:nonzero;stroke:none"
     width="2"
     height="2"
     x="288.7670"
     y="111.9490"
     transform="rotate(90.0279 289.2670 112.9490)" /> 
  <path
     style="fill:none;stroke:#6a01e2;stroke-width:1px;stroke-linecap:butt;stroke-linejoin:miter;stroke-opacity:1"
     d="m 289.2670,110.9490 2,2 -2,2 m -2.370121,-4 2,2 -2,2"
     transform="rotate(90.0279 289.2670 112.9490)"/>
  <line x1="289.2622" y1="122.9491" x2="289.2503" y2="142.9489" stroke="#980bca" stroke-width="1.0" />
  <rect
     style="fill:#ffffff;fill-opacity:1;fill-rule:nonzero;stroke:none"
     width="2"
     height="2"
     x="288.7562"
     y="131.9490"
     transform="rotate(90.0339 289.2562 132.9490)" /> 
  <path
     style="fill:none;stroke:#980bca;stroke-width:1px;stroke-linecap:butt;stroke-linejoin:miter;stroke-opacity:1"
     d="m 289.2562,130.9490 2,2 -2,2 m -2.370121,-4 2,2 -2,2"
     transform="rotate(90.0339 289.2562 132.9490)"/>
  <line x1="289.2500" y1="162.9490" x2="289.2500" y2="182.9488" stroke="#c43500" stroke-width="1.0" />
  <rect
     style="fill:#ffffff;fill-opacity:1;fill-rule:nonzero;stroke:none"
     width="2"
     height="2"
     x="288.7500"
     y="171.9489"
     transform="rotate(90.0000 289.2500 172.9489)" /> 
  <path
     style="fill:none;stroke:#c43500;stroke-width:1px;stroke-linecap:butt;stroke-linejoin:miter;stroke-opacity:1"
     d="m 289.2500,170.9489 2,2 -2,2 m -2.370121,-4 2,2 -2,2"
     transform="rotate(90.0000 289.2500 172.9489)"/>
  <line x1="289.2500" y1="182.9488" x2="289.2500" y2="202.9489" stroke="#c43500" stroke-width="1.0" />
  <rect
     style="fill:#ffffff;fill-opacity:1;fill-rule:nonzero;stroke:none"
     width="2"
     height="2"
     x="288.7500"
     y="191.9489"
     transform="rotate(90.0000 289.2500 192.9489)" /> 
  <path
     style="fill:none;stroke:#c43500;stroke-width:1px;stroke-linecap:butt;stroke-linejoin:miter;stroke-opacity:1"
     d="m 289.2500,190.9489 2,2 -2,2 m -2.370121,-4 2,2 -2,2"
     transform="rotate(90.0000 289.2500 192.9489)"/>
  <line x1="289.2500" y1="202.9489" x2="289.2500" y2="222.9487" stroke="#d75b00" stroke-width="1.0" />
  <rect
     style="fill:#ffffff;fill-opacity:1;fill-rule:nonzero;stroke:none"
     width="2"
     height="2"
     x="288.7500"
     y="211.9488"
     transform="rotate(90.0000 289.2500 212.9488)" /> 
  <path
     style="fill:none;stroke:#d75b00;stroke-width:1px;stroke-linecap:butt;stroke-linejoin:miter;stroke-opacity:1"
     d="m 289.2500,210.9488 2,2 -2,2 m -2.370121,-4 2,2 -2,2"
     transform="rotate(90.0000 289.2500 212.9488)"/>
  <line x1="289.2500" y1="222.9487" x2="289.2500" y2="242.9488" stroke="#000000" stroke-width="1.0" />
  <rect
     style="fill:#ffffff;fill-opacity:1;fill-rule:nonzero;stroke:none"
     width="2"
     height="2"
     x="288.7500"
     y="231.9487"
     transform="rotate(90.0000 289.2500 232.9487)" /> 
  <path
     style="fill:none;stroke:#000000;stroke-width:1px;stroke-linecap:butt;stroke-linejoin:miter;stroke-opacity:1"
     d="m 289.2500,230.9487 2,2 -2,2 m -2.370121,-4 2,2 -2,2"
     transform="rotate(90.0000 289.2500 232.9487)"/>
  <line x1="289.2500" y1="262.9486" x2="289.2500" y2="282.9487" stroke="#e89000" stroke-width="1.0" />
  <rect
     style="fill:#ffffff;fill-opacity:1;fill-rule:nonzero;stroke:none"
     width="2"
     height="2"
     x="288.7500"
     y="271.9486"
     transform="rotate(90.0000 289.2500 272.9486)" /> 
  <path
     style="fill:none;stroke:#e89000;stroke-width:1px;stroke-linecap:butt;stroke-linejoin:miter;stroke-opacity:1"
     d="m 289.2500,270.9486 2,2 -2,2 m -2.370121,-4 2,2 -2,2"
     transform="rotate(90.0000 289.2500 272.9486)"/>
  <line x1="289.2500" y1="282.9487" x2="289.2500" y2="302.9484" stroke="#7c03fe" stroke-width="1.0" />
  <rect
     style="fill:#ffffff;fill-opacity:1;fill-rule:nonzero;stroke:none"
     width="2"
     height="2"
     x="288.7500"
     y="291.9486"
     transform="rotate(90.0000 289.2500 292.9486)" /> 
  <path
     style="fill:none;stroke:#7c03fe;stroke-width:1px;stroke-linecap:butt;stroke-linejoin:miter;stroke-opacity:1"
     d="m 289.2500,290.9486 2,2 -2,2 m -2.370121,-4 2,2 -2,2"
     transform="rotate(90.0000 289.2500 292.9486)"/>
  <line x1="289.2500" y1="302.9484" x2="289.2500" y2="322.9485" stroke="#a31289" stroke-width="1.0" />
  <rect
     style="fill:#ffffff;fill-opacity:1;fill-rule:nonzero;stroke:none"
     width="2"
     height="2"
     x="288.7500"
     y="311.9485"
     transform="rotate(90.0000 289.2500 312.9485)" /> 
  <path
     style="fill:none;stroke:#a31289;stroke-width:1px;stroke-linecap:butt;stroke-linejoin:miter;stroke-opacity:1"
     d="m 289.2500,310.9485 2,2 -2,2 m -2.370121,-4 2,2 -2,2"
     transform="rotate(90.0000 289.2500 312.9485)"/>
  <line x1="289.2500" y1="322.9485" x2="289.2500" y2="342.9483" stroke="#efaf00" stroke-width="1.0" />
  <rect
     style="fill:#ffffff;fill-opacity:1;fill-rule:nonzero;stroke:none"
     width="2"
     height="2"
     x="288.7500"
     y="331.9484"
     transform="rotate(90.0000 289.2500 332.9484)" /> 
  <path
     style="fill:none;stroke:#efaf00;stroke-width:1px;stroke-linecap:butt;stroke-linejoin:miter;stroke-opacity:1"
     d="m 289.2500,330.9484 2,2 -2,2 m -2.370121,-4 2,2 -2,2"
     transform="rotate(90.0000 289.2500 332.9484)"/>
  <line x1="289.2500" y1="342.9483" x2="289.2500" y2="362.9484" stroke="#000000" stroke-width="1.0" />
  <rect
     style="fill:#ffffff;fill-opacity:1;fill-rule:nonzero;stroke:none"
     width="2"
     height="2"
     x="288.7500"
     y="351.9484"
     transform="rotate(90.0000 289.2500 352.9484)" /> 
  <path
     style="fill:none;stroke:#000000;stroke-width:1px;stroke-linecap:butt;stroke-linejoin:miter;stroke-opacity:1"
     d="m 289.2500,350.9484 2,2 -2,2 m -2.370121,-4 2,2 -2,2"
     transform="rotate(90.0000 289.2500 352.9484)"/>
  <line x1="289.2500" y1="362.9484" x2="289.2500" y2="382.9482" stroke="#8a06f6" stroke-width="1.0" />
  <rect
     style="fill:#ffffff;fill-opacity:1;fill-rule:nonzero;stroke:none"
     width="2"
     height="2"
     x="288.7500"
     y="371.9483"
     transform="rotate(90.0000 289.2500 372.9483)" /> 
  <path
     style="fill:none;stroke:#8a06f6;stroke-width:1px;stroke-linecap:butt;stroke-linejoin:miter;stroke-opacity:1"
     d="m 289.2500,370.9483 2,2 -2,2 m -2.370121,-4 2,2 -2,2"
     transform="rotate(90.0000 289.2500 372.9483)"/>
  <line x1="289.2500" y1="382.9482" x2="289.2500" y2="402.9484" stroke="#5800ac" stroke-width="1.0" />
  <rect
     style="fill:#ffffff;fill-opacity:1;fill-rule:nonzero;stroke:none"
     width="2"
     height="2"
     x="288.7500"
     y="391.9483"
     transform="rotate(90.0000 289.2500 392.9483)" /> 
  <path
     style="fill:none;stroke:#5800ac;stroke-width:1px;stroke-linecap:butt;stroke-linejoin:miter;stroke-opacity:1"
     d="m 289.2500,390.9483 2,2 -2,2 m -2.370121,-4 2,2 -2,2"
     transform="rotate(90.0000 289.2500 392.9483)"/>
  <line x1="289.2500" y1="422.9482" x2="289.2500" y2="442.9483" stroke="#7c03fe" stroke-width="1.0" />
  <rect
     style="fill:#ffffff;fill-opacity:1;fill-rule:nonzero;stroke:none"
     width="2"
     height="2"
     x="288.7500"
     y="431.9483"
     transform="rotate(90.0000 289.2500 432.9483)" /> 
  <path
     style="fill:none;stroke:#7c03fe;stroke-width:1px;stroke-linecap:butt;stroke-linejoin:miter;stroke-opacity:1"
     d="m 289.2500,430.9483 2,2 -2,2 m -2.370121,-4 2,2 -2,2"
     transform="rotate(90.0000 289.2500 432.9483)"/>
  <line x1="290.8500" y1="442.9483" x2="290.8500" y2="462.9482" stroke="#7c03fe" stroke-width="1.0" />
  <rect
     style="fill:#ffffff;fill-opacity:1;fill-rule:nonzero;stroke:none"
     width="2"
     height="2"
     x="290.3500"
     y="451.9483"
     transform="rotate(90.0000 290.8500 452.9483)" /> 
  <path
     style="fill:none;stroke:#7c03fe;stroke-width:1px;stroke-linecap:butt;stroke-linejoin:miter;stroke-opacity:1"
     d="m 290.8500,450.9483 2,2 -2,2 m -2.370121,-4 2,2 -2,2"
     transform="rotate(90.0000 290.8500 452.9483)"/>
  <line x1="287.6500" y1="442.9483" x2="287.6500" y2="462.9482" stroke="#e89000" stroke-width="1.0" />
  <rect
     style="fill:#ffffff;fill-opacity:1;fill-rule:nonzero;stroke:none"
     width="2"
     height="2"
     x="286.6500"
     y="451.9483" 
     transform="rotate(90.0000 287.6500 452.9483)" /> 
  <path
     style="fill:none;stroke:#e89000;stroke-width:1px;stroke-linecap:butt;stroke-linejoin:miter;stroke-opacity:1"
     d="m 290.6500,450.9483 -2,2 2,2 m -6,-4 2,2 -2,2"
     transform="rotate(90.0000 287.6500 452.9483)"/>
<circle cx="256.7500" cy="462.9482" r="5.0" stroke="#595959" stroke-width="1.0" fill="#ffffff"/>
<text x="256.7500" y="465.6482" text-anchor="middle" font-family="Helvetica" font-size="7.5" fill="#000000" >A</text>
<circle cx="256.7500" cy="442.9483" r="5.0" stroke="#595959" stroke-width="1.0" fill="#ffffff"/>
<text x="256.7500" y="445.6483" text-anchor="middle" font-family="Helvetica" font-size="7.5" fill="#000000" >C</text>
<circle cx="256.7500" cy="422.9482" r="5.0" stroke="#595959" stroke-width="1.0" fill="#ffffff"/>
<text x="256.7500" y="425.6482" text-anchor="middle" font-family="Helvetica" font-size="7.5" fill="#000000" >U</text>
<circle cx="256.7500" cy="402.9484" r="5.0" stroke="#595959" stroke-width="1.0" fill="#ffffff"/>
<text x="256.7500" y="405.6484" text-anchor="middle" font-family="Helvetica" font-size="7.5" fill="#000000" >G</text>
<circle cx="256.7500" cy="382.9482" r="5.0" stroke="#595959" stroke-width="1.0" fill="#ffffff"/>
<text x="256.7500" y="385.6482" text-anchor="middle" font-family="Helvetica" font-size="7.5" fill="#000000" >G</text>
<circle cx="256.7500" cy="362.9484" r="5.0" stroke="#595959" stroke-width="1.0" fill="#ffffff"/>
<text x="256.7500" y="365.6484" text-anchor="middle" font-family="Helvetica" font-size="7.5" fill="#000000" >A</text>
<circle cx="256.7500" cy="342.9483" r="5.0" stroke="#595959" stroke-width="1.0" fill="#ffffff"/>
<text x="256.7500" y="345.6483" text-anchor="middle" font-family="Helvetica" font-size="7.5" fill="#000000" >C</text>
<circle cx="256.7500" cy="322.9485" r="5.0" stroke="#595959" stroke-width="1.0" fill="#ffffff"/>
<text x="256.7500" y="325.6485" text-anchor="middle" font-family="Helvetica" font-size="7.5" fill="#000000" >A</text>
<circle cx="256.7500" cy="302.9484" r="5.0" stroke="#595959" stroke-width="1.0" fill="#ffffff"/>
<text x="256.7500" y="305.6484" text-anchor="middle" font-family="Helvetica" font-size="7.5" fill="#000000" >I</text>
<circle cx="256.7500" cy="282.9487" r="5.0" stroke="#595959" stroke-width="1.0" fill="orange"/>
<text x="256.7500" y="285.6487" text-anchor="middle" font-family="Helvetica" font-size="7.5" fill="#000000" >I</text>
<circle cx="256.7500" cy="262.9486" r="5.0" stroke="#595959" stroke-width="1.0" fill="orange"/>
<text x="256.7500" y="265.6486" text-anchor="middle" font-family="Helvetica" font-size="7.5" fill="#000000" >U</text>
<circle cx="256.7500" cy="242.9488" r="5.0" stroke="#595959" stroke-width="1.0" fill="#ffffff"/>
<text x="256.7500" y="245.6488" text-anchor="middle" font-family="Helvetica" font-size="7.5" fill="#000000" >I</text>
<circle cx="256.7500" cy="222.9487" r="5.0" stroke="#595959" stroke-width="1.0" fill="#ffffff"/>
<text x="256.7500" y="225.6487" text-anchor="middle" font-family="Helvetica" font-size="7.5" fill="#000000" >C</text>
<circle cx="256.7500" cy="202.9489" r="5.0" stroke="#595959" stroke-width="1.0" fill="#ffffff"/>
<text x="256.7500" y="205.6489" text-anchor="middle" font-family="Helvetica" font-size="7.5" fill="#000000" >U</text>
<circle cx="256.7500" cy="182.9488" r="5.0" stroke="#595959" stroke-width="1.0" fill="#ffffff"/>
<text x="256.7500" y="185.6488" text-anchor="middle" font-family="Helvetica" font-size="7.5" fill="#000000" >C</text>
<circle cx="256.7500" cy="162.9490" r="5.0" stroke="#595959" stroke-width="1.0" fill="#ffffff"/>
<text x="256.7500" y="165.6490" text-anchor="middle" font-family="Helvetica" font-size="7.5" fill="#000000" >C</text>
<circle cx="256.7497" cy="142.9489" r="5.0" stroke="#595959" stroke-width="1.0" fill="#ffffff"/>
<text x="256.7497" y="145.6489" text-anchor="middle" font-family="Helvetica" font-size="7.5" fill="#000000" >G</text>
<circle cx="256.7378" cy="122.9491" r="5.0" stroke="#595959" stroke-width="1.0" fill="#ffffff"/>
<text x="256.7378" y="125.6491" text-anchor="middle" font-family="Helvetica" font-size="7.5" fill="#000000" >A</text>
<circle cx="256.7281" cy="102.9489" r="5.0" stroke="#595959" stroke-width="1.0" fill="#ffffff"/>
<text x="256.7281" y="105.6489" text-anchor="middle" font-family="Helvetica" font-size="7.5" fill="#000000" >G</text>
<circle cx="263.0188" cy="83.9767" r="5.0" stroke="#595959" stroke-width="1.0" fill="#ffffff"/>
<text x="263.0188" y="86.6767" text-anchor="middle" font-family="Helvetica" font-size="7.5" fill="#000000" >G</text>
<circle cx="282.9812" cy="83.9767" r="5.0" stroke="#595959" stroke-width="1.0" fill="#ffffff"/>
<text x="282.9812" y="86.6767" text-anchor="middle" font-family="Helvetica" font-size="7.5" fill="#000000" >C</text>
<circle cx="289.2719" cy="102.9489" r="5.0" stroke="#595959" stroke-width="1.0" fill="#ffffff"/>
<text x="289.2719" y="105.6489" text-anchor="middle" font-family="Helvetica" font-size="7.5" fill="#000000" >C</text>
<circle cx="289.2622" cy="122.9491" r="5.0" stroke="#595959" stroke-width="1.0" fill="#ffffff"/>
<text x="289.2622" y="125.6491" text-anchor="middle" font-family="Helvetica" font-size="7.5" fill="#000000" >U</text>
<circle cx="289.2503" cy="142.9489" r="5.0" stroke="#595959" stroke-width="1.0" fill="#ffffff"/>
<text x="289.2503" y="145.6489" text-anchor="middle" font-family="Helvetica" font-size="7.5" fill="#000000" >C</text>
<circle cx="289.2500" cy="162.9490" r="5.0" stroke="#595959" stroke-width="1.0" fill="#ffffff"/>
<text x="289.2500" y="165.6490" text-anchor="middle" font-family="Helvetica" font-size="7.5" fill="#000000" >G</text>
<circle cx="289.2500" cy="182.9488" r="5.0" stroke="#595959" stroke-width="1.0" fill="#ffffff"/>
<text x="289.2500" y="185.6488" text-anchor="middle" font-family="Helvetica" font-size="7.5" fill="#000000" >G</text>
<circle cx="289.2500" cy="202.9489" r="5.0" stroke="#595959" stroke-width="1.0" fill="#ffffff"/>
<text x="289.2500" y="205.6489" text-anchor="middle" font-family="Helvetica" font-size="7.5" fill="#000000" >A</text>
<circle cx="289.2500" cy="222.9487" r="5.0" stroke="#595959" stroke-width="1.0" fill="#ffffff"/>
<text x="289.2500" y="225.6487" text-anchor="middle" font-family="Helvetica" font-size="7.5" fill="#000000" >G</text>
<circle cx="289.2500" cy="242.9488" r="5.0" stroke="#595959" stroke-width="1.0" fill="orange"/>
<text x="289.2500" y="245.6488" text-anchor="middle" font-family="Helvetica" font-size="7.5" fill="#000000" >U</text>
<circle cx="289.2500" cy="262.9486" r="5.0" stroke="#595959" stroke-width="1.0" fill="orange"/>
<text x="289.2500" y="265.6486" text-anchor="middle" font-family="Helvetica" font-size="7.5" fill="#000000" >I</text>
<circle cx="289.2500" cy="282.9487" r="5.0" stroke="#595959" stroke-width="1.0" fill="#ffffff"/>
<text x="289.2500" y="285.6487" text-anchor="middle" font-family="Helvetica" font-size="7.5" fill="#000000" >U</text>
<circle cx="289.2500" cy="302.9484" r="5.0" stroke="#595959" stroke-width="1.0" fill="#ffffff"/>
<text x="289.2500" y="305.6484" text-anchor="middle" font-family="Helvetica" font-size="7.5" fill="#000000" >U</text>
<circle cx="289.2500" cy="322.9485" r="5.0" stroke="#595959" stroke-width="1.0" fill="#ffffff"/>
<text x="289.2500" y="325.6485" text-anchor="middle" font-family="Helvetica" font-size="7.5" fill="#000000" >U</text>
<circle cx="289.2500" cy="342.9483" r="5.0" stroke="#595959" stroke-width="1.0" fill="#ffffff"/>
<text x="289.2500" y="345.6483" text-anchor="middle" font-family="Helvetica" font-size="7.5" fill="#000000" >G</text>
<circle cx="289.2500" cy="362.9484" r="5.0" stroke="#595959" stroke-width="1.0" fill="#ffffff"/>
<text x="289.2500" y="365.6484" text-anchor="middle" font-family="Helvetica" font-size="7.5" fill="#000000" >U</text>
<circle cx="289.2500" cy="382.9482" r="5.0" stroke="#595959" stroke-width="1.0" fill="#ffffff"/>
<text x="289.2500" y="385.6482" text-anchor="middle" font-family="Helvetica" font-size="7.5" fill="#000000" >C</text>
<circle cx="289.2500" cy="402.9484" r="5.0" stroke="#595959" stroke-width="1.0" fill="#ffffff"/>
<text x="289.2500" y="405.6484" text-anchor="middle" font-family="Helvetica" font-size="7.5" fill="#000000" >C</text>
<circle cx="289.2500" cy="422.9482" r="5.0" stroke="#595959" stroke-width="1.0" fill="#ffffff"/>
<text x="289.2500" y="425.6482" text-anchor="middle" font-family="Helvetica" font-size="7.5" fill="#000000" >A</text>
<circle cx="289.2500" cy="442.9483" r="5.0" stroke="#595959" stroke-width="1.0" fill="#ffffff"/>
<text x="289.2500" y="445.6483" text-anchor="middle" font-family="Helvetica" font-size="7.5" fill="#000000" >G</text>
<circle cx="289.2500" cy="462.9482" r="5.0" stroke="#595959" stroke-width="1.0" fill="#ffffff"/>
<text x="289.2500" y="465.6482" text-anchor="middle" font-family="Helvetica" font-size="7.5" fill="#000000" >U</text>
</svg>
