<?xml version="1.0" encoding="UTF-8"?>
<!DOCTYPE svg PUBLIC "-//W3C//DTD SVG 1.1//EN" 
"http://www.w3.org/Graphics/SVG/1.1/DTD/svg11.dtd">

<svg version="1.1"
   width="546px"
   height="546px"
xmlns="http://www.w3.org/2000/svg">
    <rect width="100%" height="100%" fill="white"/>

  <line x1="256.2245" y1="422.4582" x2="256.3019" y2="402.4775" stroke="#595959"
     style="stroke-width:2;stroke-miterlimit:4;stroke-dasharray:1,1;stroke-dashoffset:0" />
  <line x1="256.5229" y1="342.5714" x2="256.5827" y2="322.6146" stroke="#595959"
     style="stroke-width:2;stroke-miterlimit:4;stroke-dasharray:1,1;stroke-dashoffset:0" />
  <line x1="256.8040" y1="262.7945" x2="256.7955" y2="242.8802" stroke="#595959"
     style="stroke-width:2;stroke-miterlimit:4;stroke-dasharray:1,1;stroke-dashoffset:0" />
  <line x1="257.0591" y1="163.4325" x2="257.0715" y2="143.6370" stroke="#595959"
     style="stroke-width:2;stroke-miterlimit:4;stroke-dasharray:1,1;stroke-dashoffset:0" />
  <line x1="289.5709" y1="143.3328" x2="289.6154" y2="163.2996" stroke="#595959"
     style="stroke-width:2;stroke-miterlimit:4;stroke-dasharray:1,1;stroke-dashoffset:0" />
  <line x1="289.3270" y1="242.9586" x2="289.3042" y2="262.8774" stroke="#595959"
     style="stroke-width:2;stroke-miterlimit:4;stroke-dasharray:1,1;stroke-dashoffset:0" />
  <line x1="289.0921" y1="322.6755" x2="289.0229" y2="342.6232" stroke="#595959"
     style="stroke-width:2;stroke-miterlimit:4;stroke-dasharray:1,1;stroke-dashoffset:0" />
  <line x1="288.8019" y1="402.5127" x2="288.7245" y2="422.4911" stroke="#595959"
     style="stroke-width:2;stroke-miterlimit:4;stroke-dasharray:1,1;stroke-dashoffset:0" />
  <line x1="256.0672" y1="464.0385" x2="288.5673" y2="464.0697" stroke="#bb2700" stroke-width="1.0" />
  <circle cx="272.3172" cy="464.0541" r="2.25" stroke="#bb2700" stroke-width="1.0" fill="#bb2700"/>
  <line x1="256.5797" y1="324.2146" x2="289.0891" y2="324.2755" stroke="#e99400" stroke-width="1.0" />
  <circle cx="272.8344" cy="324.2450" r="2.25" stroke="#e99400" stroke-width="1.0" fill="#e99400"/>
  <line x1="256.6448" y1="301.0648" x2="289.1487" y2="301.1354" stroke="#8405fd" stroke-width="1.0" />
  <circle cx="272.8967" cy="301.1001" r="2.25" stroke="#8405fd" stroke-width="1.0" fill="#8405fd"/>
  <line x1="256.6379" y1="304.2648" x2="289.1417" y2="304.3354" stroke="#da6400" stroke-width="1.0" />
  <circle cx="272.8898" cy="304.3001" r="2.25" stroke="#da6400" stroke-width="1.0" fill="#da6400"/>
  <line x1="256.6999" y1="279.5237" x2="289.2095" y2="279.6028" stroke="#d55800" stroke-width="1.0" />
  <circle cx="276.4547" cy="279.5632" r="2.25" stroke="#d55800" stroke-width="1.0" fill="#d55800"
    transform="rotate(180.1393 272.9547 279.5632)" />
  <path d="M 271.2047 281.8132 L 271.2047 277.3132 L 267.2047 279.5632 z" style="stroke:#d55800;stroke-width:1.0" fill="#d55800" 
    transform="rotate(180.1393 272.9547 279.5632)"/>
  <line x1="256.6921" y1="282.7237" x2="289.2018" y2="282.8027" stroke="#d14c00" stroke-width="1.0" />
  <circle cx="272.9469" cy="282.7632" r="2.25" stroke="#d14c00" stroke-width="1.0" fill="#d14c00"/>
  <line x1="256.6843" y1="285.9237" x2="289.1940" y2="286.0027" stroke="#cc4200" stroke-width="1.0" />
  <circle cx="272.9392" cy="285.9632" r="2.25" stroke="#cc4200" stroke-width="1.0" fill="#cc4200"/>
  <line x1="256.8080" y1="261.1945" x2="289.3083" y2="261.2774" stroke="#d55800" stroke-width="1.0" />
  <circle cx="273.0582" cy="261.2360" r="2.25" stroke="#d55800" stroke-width="1.0" fill="#d55800"/>
  <line x1="256.7999" y1="264.3945" x2="289.3001" y2="264.4774" stroke="#9309df" stroke-width="1.0" />
  <circle cx="273.0500" cy="264.4360" r="2.25" stroke="#9309df" stroke-width="1.0" fill="#9309df"/>
  <line x1="256.8032" y1="239.6802" x2="289.3347" y2="239.7586" stroke="#f3bd00" stroke-width="1.0" />
  <circle cx="273.0690" cy="239.7194" r="2.25" stroke="#f3bd00" stroke-width="1.0" fill="#f3bd00"/>
  <line x1="256.7955" y1="242.8802" x2="289.3270" y2="242.9586" stroke="#d14c00" stroke-width="1.0" />
  <circle cx="276.5613" cy="242.9194" r="2.25" stroke="#d14c00" stroke-width="1.0" fill="#d14c00"
    transform="rotate(180.1381 273.0613 242.9194)" />
  <path d="M 271.3113 245.1694 L 271.3113 240.6694 L 267.3113 242.9194 z" style="stroke:#d14c00;stroke-width:1.0" fill="#d14c00" 
    transform="rotate(180.1381 273.0613 242.9194)"/>
  <line x1="256.7878" y1="246.0802" x2="289.3193" y2="246.1586" stroke="#a81568" stroke-width="1.0" />
  <circle cx="273.0536" cy="246.1194" r="2.25" stroke="#a81568" stroke-width="1.0" fill="#a81568"/>
  <line x1="256.8387" y1="224.5825" x2="289.3537" y2="224.6479" stroke="#d14c00" stroke-width="1.0" />
  <circle cx="273.0962" cy="224.6152" r="2.25" stroke="#d14c00" stroke-width="1.0" fill="#d14c00"/>
  <line x1="256.9419" y1="204.7027" x2="289.4884" y2="204.7447" stroke="#eda600" stroke-width="1.0" />
  <circle cx="273.2152" cy="204.7237" r="2.25" stroke="#eda600" stroke-width="1.0" fill="#eda600"/>
  <line x1="257.0657" y1="165.0325" x2="289.6220" y2="164.8995" stroke="#f3bd00" stroke-width="1.0" />
  <circle cx="273.3438" cy="164.9660" r="2.25" stroke="#f3bd00" stroke-width="1.0" fill="#f3bd00"/>
  <line x1="256.8248" y1="125.4477" x2="289.2127" y2="124.8939" stroke="#eda600" stroke-width="1.0" />
  <circle cx="273.0187" cy="125.1708" r="2.25" stroke="#eda600" stroke-width="1.0" fill="#eda600"/>
  <line x1="266.0701" y1="88.2002" x2="285.6270" y2="85.2461" stroke="#eda600" stroke-width="1.0" />
  <circle cx="275.8485" cy="86.7232" r="2.25" stroke="#eda600" stroke-width="1.0" fill="#eda600"/>
  <line x1="256.0687" y1="462.4385" x2="256.1467" y2="442.4451" stroke="#000000" stroke-width="1.0" />
  <rect
     style="fill:#ffffff;fill-opacity:1;fill-rule:nonzero;stroke:none"
     width="2"
     height="2"
     x="255.6077"
     y="451.4418"
     transform="rotate(-89.7766 256.1077 452.4418)" /> 
  <path
     style="fill:none;stroke:#000000;stroke-width:1px;stroke-linecap:butt;stroke-linejoin:miter;stroke-opacity:1"
     d="m 256.1077,450.4418 2,2 -2,2 m -2.370121,-4 2,2 -2,2"
     transform="rotate(-89.7766 256.1077 452.4418)"/>
  <line x1="256.0703" y1="460.8385" x2="288.5703" y2="460.8697" stroke="#cc4200" stroke-width="1.0" />
  <line x1="256.1467" y1="442.4451" x2="256.2245" y2="422.4582" stroke="#8405fd" stroke-width="1.0" />
  <rect
     style="fill:#ffffff;fill-opacity:1;fill-rule:nonzero;stroke:none"
     width="2"
     height="2"
     x="255.6856"
     y="431.4517"
     transform="rotate(-89.7769 256.1856 432.4517)" /> 
  <path
     style="fill:none;stroke:#8405fd;stroke-width:1px;stroke-linecap:butt;stroke-linejoin:miter;stroke-opacity:1"
     d="m 256.1856,430.4517 2,2 -2,2 m -2.370121,-4 2,2 -2,2"
     transform="rotate(-89.7769 256.1856 432.4517)"/>
  <line x1="256.1455" y1="443.6951" x2="288.6454" y2="443.7268" stroke="#000000" stroke-width="1.0" />
  <line x1="256.1479" y1="441.1951" x2="288.6479" y2="441.2268" stroke="#000000" stroke-width="1.0" />
  <line x1="256.2245" y1="422.4582" x2="288.7245" y2="422.4911" stroke="#400062" stroke-width="1.0" />
  <line x1="256.2245" y1="422.4582" x2="288.6467" y2="442.4768" stroke="#f3bd00" stroke-width="1.0" />
  <rect
     style="fill:#ffffff;stroke:none"
     width="5.5"
     height="2"
     x="269.6856"
     y="431.4675" 
     transform="rotate(31.6927 272.4356 432.4675)"    /> 
  <path
     style="fill:none;stroke:#f3bd00;stroke-width:1px;stroke-linecap:butt;stroke-linejoin:miter;stroke-opacity:1"
    d="m 273.1856,430.4675 2,2 -2,2 m -1.5,-4 -2,2 2,2" transform="rotate(31.6927 272.4356 432.4675)"/>
  <line x1="256.3019" y1="402.4775" x2="256.3783" y2="382.5029" stroke="#c53700" stroke-width="1.0" />
  <rect
     style="fill:#ffffff;fill-opacity:1;fill-rule:nonzero;stroke:none"
     width="2"
     height="2"
     x="255.8401"
     y="391.4902"
     transform="rotate(-89.7810 256.3401 392.4902)" /> 
  <path
     style="fill:none;stroke:#c53700;stroke-width:1px;stroke-linecap:butt;stroke-linejoin:miter;stroke-opacity:1"
     d="m 256.3401,390.4902 2,2 -2,2 m -2.370121,-4 2,2 -2,2"
     transform="rotate(-89.7810 256.3401 392.4902)"/>
  <line x1="256.3006" y1="403.7275" x2="288.8005" y2="403.7627" stroke="#000000" stroke-width="1.0" />
  <line x1="256.3033" y1="401.2275" x2="288.8032" y2="401.2627" stroke="#000000" stroke-width="1.0" />
  <line x1="256.3019" y1="402.4775" x2="288.7245" y2="422.4911" stroke="#000000" stroke-width="1.0" />
  <rect
     style="fill:#ffffff;stroke:none"
     width="5.5"
     height="2"
     x="269.7632"
     y="411.4843" 
     transform="rotate(31.6859 272.5132 412.4843)"    /> 
  <path
     style="fill:none;stroke:#000000;stroke-width:1px;stroke-linecap:butt;stroke-linejoin:miter;stroke-opacity:1"
    d="m 273.2632,410.4843 2,2 -2,2 m -1.5,-4 -2,2 2,2" transform="rotate(31.6859 272.5132 412.4843)"/>
  <line x1="256.3783" y1="382.5029" x2="256.4524" y2="362.5342" stroke="#c02e00" stroke-width="1.0" />
  <rect
     style="fill:#ffffff;fill-opacity:1;fill-rule:nonzero;stroke:none"
     width="2"
     height="2"
     x="255.9153"
     y="371.5186"
     transform="rotate(-89.7871 256.4153 372.5186)" /> 
  <path
     style="fill:none;stroke:#c02e00;stroke-width:1px;stroke-linecap:butt;stroke-linejoin:miter;stroke-opacity:1"
     d="m 256.4153,370.5186 2,2 -2,2 m -2.370121,-4 2,2 -2,2"
     transform="rotate(-89.7871 256.4153 372.5186)"/>
  <line x1="256.3768" y1="383.7529" x2="288.8767" y2="383.7918" stroke="#000000" stroke-width="1.0" />
  <line x1="256.3797" y1="381.2529" x2="288.8797" y2="381.2918" stroke="#000000" stroke-width="1.0" />
  <line x1="256.3783" y1="382.5029" x2="288.8019" y2="402.5127" stroke="#f3bd00" stroke-width="1.0" />
  <rect
     style="fill:#ffffff;stroke:none"
     width="5.5"
     height="2"
     x="269.8401"
     y="391.5078" 
     transform="rotate(31.6802 272.5901 392.5078)"    /> 
  <path
     style="fill:none;stroke:#f3bd00;stroke-width:1px;stroke-linecap:butt;stroke-linejoin:miter;stroke-opacity:1"
    d="m 273.3401,390.5078 2,2 -2,2 m -1.5,-4 -2,2 2,2" transform="rotate(31.6802 272.5901 392.5078)"/>
  <line x1="256.4524" y1="362.5342" x2="256.5229" y2="342.5714" stroke="#000000" stroke-width="1.0" />
  <rect
     style="fill:#ffffff;fill-opacity:1;fill-rule:nonzero;stroke:none"
     width="2"
     height="2"
     x="255.9877"
     y="351.5528"
     transform="rotate(-89.7979 256.4877 352.5528)" /> 
  <path
     style="fill:none;stroke:#000000;stroke-width:1px;stroke-linecap:butt;stroke-linejoin:miter;stroke-opacity:1"
     d="m 256.4877,350.5528 2,2 -2,2 m -2.370121,-4 2,2 -2,2"
     transform="rotate(-89.7979 256.4877 352.5528)"/>
  <line x1="256.4524" y1="362.5342" x2="288.9524" y2="362.5786" stroke="#400062" stroke-width="1.0" />
  <line x1="256.4524" y1="362.5342" x2="288.8782" y2="382.5418" stroke="#f3bd00" stroke-width="1.0" />
  <rect
     style="fill:#ffffff;stroke:none"
     width="5.5"
     height="2"
     x="269.9153"
     y="371.5380" 
     transform="rotate(31.6757 272.6653 372.5380)"    /> 
  <path
     style="fill:none;stroke:#f3bd00;stroke-width:1px;stroke-linecap:butt;stroke-linejoin:miter;stroke-opacity:1"
    d="m 273.4153,370.5380 2,2 -2,2 m -1.5,-4 -2,2 2,2" transform="rotate(31.6757 272.6653 372.5380)"/>
  <line x1="256.5209" y1="343.8214" x2="289.0209" y2="343.8732" stroke="#000000" stroke-width="1.0" />
  <line x1="256.5249" y1="341.3214" x2="289.0249" y2="341.3732" stroke="#000000" stroke-width="1.0" />
  <line x1="256.5827" y1="322.6146" x2="256.6413" y2="302.6648" stroke="#c02e00" stroke-width="1.0" />
  <rect
     style="fill:#ffffff;fill-opacity:1;fill-rule:nonzero;stroke:none"
     width="2"
     height="2"
     x="256.1120"
     y="311.6397"
     transform="rotate(-89.8314 256.6120 312.6397)" /> 
  <path
     style="fill:none;stroke:#c02e00;stroke-width:1px;stroke-linecap:butt;stroke-linejoin:miter;stroke-opacity:1"
     d="m 256.6120,310.6397 2,2 -2,2 m -2.370121,-4 2,2 -2,2"
     transform="rotate(-89.8314 256.6120 312.6397)"/>
  <line x1="256.5857" y1="321.0146" x2="289.0951" y2="321.0755" stroke="#6801dc" stroke-width="1.0" />
  <line x1="256.5827" y1="322.6146" x2="289.0229" y2="342.6232" stroke="#4e008f" stroke-width="1.0" />
  <rect
     style="fill:#ffffff;stroke:none"
     width="5.5"
     height="2"
     x="270.0528"
     y="331.6189" 
     transform="rotate(31.6657 272.8028 332.6189)"    /> 
  <path
     style="fill:none;stroke:#4e008f;stroke-width:1px;stroke-linecap:butt;stroke-linejoin:miter;stroke-opacity:1"
    d="m 273.5528,330.6189 2,2 -2,2 m -1.5,-4 -2,2 2,2" transform="rotate(31.6657 272.8028 332.6189)"/>
  <line x1="256.6413" y1="302.6648" x2="256.6921" y2="282.7237" stroke="#c02e00" stroke-width="1.0" />
  <rect
     style="fill:#ffffff;fill-opacity:1;fill-rule:nonzero;stroke:none"
     width="2"
     height="2"
     x="256.1667"
     y="291.6942"
     transform="rotate(-89.8541 256.6667 292.6942)" /> 
  <path
     style="fill:none;stroke:#c02e00;stroke-width:1px;stroke-linecap:butt;stroke-linejoin:miter;stroke-opacity:1"
     d="m 256.6667,290.6942 2,2 -2,2 m -2.370121,-4 2,2 -2,2"
     transform="rotate(-89.8541 256.6667 292.6942)"/>
  <line x1="256.6921" y1="282.7237" x2="256.8040" y2="262.7945" stroke="#2d0032" stroke-width="1.0" />
  <rect
     style="fill:#ffffff;fill-opacity:1;fill-rule:nonzero;stroke:none"
     width="2"
     height="2"
     x="256.2480"
     y="271.7591"
     transform="rotate(-89.6785 256.7480 272.7591)" /> 
  <path
     style="fill:none;stroke:#2d0032;stroke-width:1px;stroke-linecap:butt;stroke-linejoin:miter;stroke-opacity:1"
     d="m 256.7480,270.7591 2,2 -2,2 m -2.370121,-4 2,2 -2,2"
     transform="rotate(-89.6785 256.7480 272.7591)"/>
  <line x1="256.7955" y1="242.8802" x2="256.8420" y2="222.9825" stroke="#000000" stroke-width="1.0" />
  <rect
     style="fill:#ffffff;fill-opacity:1;fill-rule:nonzero;stroke:none"
     width="2"
     height="2"
     x="256.3187"
     y="231.9314"
     transform="rotate(-89.8662 256.8187 232.9314)" /> 
  <path
     style="fill:none;stroke:#000000;stroke-width:1px;stroke-linecap:butt;stroke-linejoin:miter;stroke-opacity:1"
     d="m 256.8187,230.9314 2,2 -2,2 m -2.370121,-4 2,2 -2,2"
     transform="rotate(-89.8662 256.8187 232.9314)"/>
  <line x1="256.7955" y1="242.8802" x2="289.3042" y2="262.8774" stroke="#4e008f" stroke-width="1.0" />
  <rect
     style="fill:#ffffff;stroke:none"
     width="5.5"
     height="2"
     x="270.2998"
     y="251.8788" 
     transform="rotate(31.5971 273.0498 252.8788)"    /> 
  <path
     style="fill:none;stroke:#4e008f;stroke-width:1px;stroke-linecap:butt;stroke-linejoin:miter;stroke-opacity:1"
    d="m 273.7998,250.8788 2,2 -2,2 m -1.5,-4 -2,2 2,2" transform="rotate(31.5971 273.0498 252.8788)"/>
  <line x1="256.8420" y1="222.9825" x2="256.9440" y2="203.1027" stroke="#a81568" stroke-width="1.0" />
  <rect
     style="fill:#ffffff;fill-opacity:1;fill-rule:nonzero;stroke:none"
     width="2"
     height="2"
     x="256.3930"
     y="212.0426"
     transform="rotate(-89.7061 256.8930 213.0426)" /> 
  <path
     style="fill:none;stroke:#a81568;stroke-width:1px;stroke-linecap:butt;stroke-linejoin:miter;stroke-opacity:1"
     d="m 256.8930,211.0426 2,2 -2,2 m -2.370121,-4 2,2 -2,2"
     transform="rotate(-89.7061 256.8930 213.0426)"/>
  <line x1="256.8427" y1="222.6325" x2="289.3576" y2="222.6980" stroke="#9309df" stroke-width="1.0" />
  <line x1="256.8477" y1="220.1325" x2="289.3626" y2="220.1980" stroke="#9309df" stroke-width="1.0" />
  <line x1="256.9440" y1="203.1027" x2="257.0660" y2="183.2437" stroke="#990cc2" stroke-width="1.0" />
  <rect
     style="fill:#ffffff;fill-opacity:1;fill-rule:nonzero;stroke:none"
     width="2"
     height="2"
     x="256.5050"
     y="192.1732"
     transform="rotate(-89.6479 257.0050 193.1732)" /> 
  <path
     style="fill:none;stroke:#990cc2;stroke-width:1px;stroke-linecap:butt;stroke-linejoin:miter;stroke-opacity:1"
     d="m 257.0050,191.1732 2,2 -2,2 m -2.370121,-4 2,2 -2,2"
     transform="rotate(-89.6479 257.0050 193.1732)"/>
  <line x1="256.9460" y1="201.5027" x2="289.4926" y2="201.5447" stroke="#5d01be" stroke-width="1.0" />
  <line x1="256.9440" y1="203.1027" x2="289.3569" y2="223.0480" stroke="#f3bd00" stroke-width="1.0" />
  <rect
     style="fill:#ffffff;stroke:none"
     width="5.5"
     height="2"
     x="270.4004"
     y="212.0753" 
     transform="rotate(31.6060 273.1504 213.0753)"    /> 
  <path
     style="fill:none;stroke:#f3bd00;stroke-width:1px;stroke-linecap:butt;stroke-linejoin:miter;stroke-opacity:1"
    d="m 273.9004,211.0753 2,2 -2,2 m -1.5,-4 -2,2 2,2" transform="rotate(31.6060 273.1504 213.0753)"/>
  <line x1="257.0660" y1="183.2437" x2="257.0591" y2="163.4325" stroke="#4e008f" stroke-width="1.0" />
  <rect
     style="fill:#ffffff;fill-opacity:1;fill-rule:nonzero;stroke:none"
     width="2"
     height="2"
     x="256.5626"
     y="172.3381"
     transform="rotate(269.9801 257.0626 173.3381)" /> 
  <path
     style="fill:none;stroke:#4e008f;stroke-width:1px;stroke-linecap:butt;stroke-linejoin:miter;stroke-opacity:1"
     d="m 257.0626,171.3381 2,2 -2,2 m -2.370121,-4 2,2 -2,2"
     transform="rotate(269.9801 257.0626 173.3381)"/>
  <line x1="257.0661" y1="184.4937" x2="289.5565" y2="184.4908" stroke="#2d0032" stroke-width="1.0" />
  <line x1="257.0659" y1="181.9937" x2="289.5563" y2="181.9908" stroke="#2d0032" stroke-width="1.0" />
  <line x1="257.0577" y1="163.0825" x2="289.6140" y2="162.9496" stroke="#4e008f" stroke-width="1.0" />
  <line x1="257.0475" y1="160.5826" x2="289.6038" y2="160.4496" stroke="#4e008f" stroke-width="1.0" />
  <line x1="257.0715" y1="143.6370" x2="256.7974" y2="123.8479" stroke="#cc4200" stroke-width="1.0" />
  <rect
     style="fill:#ffffff;fill-opacity:1;fill-rule:nonzero;stroke:none"
     width="2"
     height="2"
     x="256.4344"
     y="132.7424"
     transform="rotate(269.2065 256.9344 133.7424)" /> 
  <path
     style="fill:none;stroke:#cc4200;stroke-width:1px;stroke-linecap:butt;stroke-linejoin:miter;stroke-opacity:1"
     d="m 256.9344,131.7424 2,2 -2,2 m -2.370121,-4 2,2 -2,2"
     transform="rotate(269.2065 256.9344 133.7424)"/>
  <line x1="257.0832" y1="144.8869" x2="289.5826" y2="144.5827" stroke="#000000" stroke-width="1.0" />
  <line x1="257.0598" y1="142.3870" x2="289.5592" y2="142.0828" stroke="#000000" stroke-width="1.0" />
  <line x1="257.0715" y1="143.6370" x2="289.6154" y2="163.2996" stroke="#400062" stroke-width="1.0" />
  <rect
     style="fill:#ffffff;stroke:none"
     width="5.5"
     height="2"
     x="270.5934"
     y="152.4683" 
     transform="rotate(31.1398 273.3434 153.4683)"    /> 
  <path
     style="fill:none;stroke:#400062;stroke-width:1px;stroke-linecap:butt;stroke-linejoin:miter;stroke-opacity:1"
    d="m 274.0934,151.4683 2,2 -2,2 m -1.5,-4 -2,2 2,2" transform="rotate(31.1398 273.3434 153.4683)"/>
  <line x1="256.7974" y1="123.8479" x2="256.2674" y2="104.0202" stroke="#990cc2" stroke-width="1.0" />
  <rect
     style="fill:#ffffff;fill-opacity:1;fill-rule:nonzero;stroke:none"
     width="2"
     height="2"
     x="256.0324"
     y="112.9341"
     transform="rotate(268.4688 256.5324 113.9341)" /> 
  <path
     style="fill:none;stroke:#990cc2;stroke-width:1px;stroke-linecap:butt;stroke-linejoin:miter;stroke-opacity:1"
     d="m 256.5324,111.9341 2,2 -2,2 m -2.370121,-4 2,2 -2,2"
     transform="rotate(268.4688 256.5324 113.9341)"/>
  <line x1="256.7701" y1="122.2482" x2="289.1580" y2="121.6943" stroke="#5d01be" stroke-width="1.0" />
  <line x1="256.7974" y1="123.8479" x2="289.5709" y2="143.3328" stroke="#f3bd00" stroke-width="1.0" />
  <rect
     style="fill:#ffffff;stroke:none"
     width="5.5"
     height="2"
     x="270.4341"
     y="132.5904" 
     transform="rotate(30.7328 273.1841 133.5904)"    /> 
  <path
     style="fill:none;stroke:#f3bd00;stroke-width:1px;stroke-linecap:butt;stroke-linejoin:miter;stroke-opacity:1"
    d="m 273.9341,131.5904 2,2 -2,2 m -1.5,-4 -2,2 2,2" transform="rotate(30.7328 273.1841 133.5904)"/>
  <line x1="256.2674" y1="104.0202" x2="265.8311" y2="86.6182" stroke="#d55800" stroke-width="1.0" />
  <rect
     style="fill:#ffffff;fill-opacity:1;fill-rule:nonzero;stroke:none"
     width="2"
     height="2"
     x="260.5492"
     y="94.3192"
     transform="rotate(-61.2080 261.0492 95.3192)" /> 
  <path
     style="fill:none;stroke:#d55800;stroke-width:1px;stroke-linecap:butt;stroke-linejoin:miter;stroke-opacity:1"
     d="m 261.0492,93.3192 2,2 -2,2 m -2.370121,-4 2,2 -2,2"
     transform="rotate(-61.2080 261.0492 95.3192)"/>
  <line x1="256.2974" y1="105.2699" x2="288.7116" y2="104.4919" stroke="#400062" stroke-width="1.0" />
  <line x1="256.2374" y1="102.7706" x2="288.6516" y2="101.9926" stroke="#400062" stroke-width="1.0" />
  <line x1="265.7788" y1="86.2721" x2="285.3358" y2="83.3180" stroke="#5d01be" stroke-width="1.0" />
  <line x1="265.4054" y1="83.8001" x2="284.9624" y2="80.8460" stroke="#5d01be" stroke-width="1.0" />
  <line x1="265.8311" y1="86.6182" x2="288.6816" y2="103.2422" stroke="#e58400" stroke-width="1.0" />
  <rect
     style="fill:#ffffff;stroke:none"
     width="5.5"
     height="2"
     x="274.5063"
     y="93.9302" 
     transform="rotate(36.0364 277.2563 94.9302)"    /> 
  <path
     style="fill:none;stroke:#e58400;stroke-width:1px;stroke-linecap:butt;stroke-linejoin:miter;stroke-opacity:1"
    d="m 278.0063,92.9302 2,2 -2,2 m -1.5,-4 -2,2 2,2" transform="rotate(36.0364 277.2563 94.9302)"/>
  <line x1="285.3880" y1="83.6640" x2="288.6816" y2="103.2422" stroke="#9309df" stroke-width="1.0" />
  <rect
     style="fill:#ffffff;fill-opacity:1;fill-rule:nonzero;stroke:none"
     width="2"
     height="2"
     x="286.5348"
     y="92.4531"
     transform="rotate(80.4508 287.0348 93.4531)" /> 
  <path
     style="fill:none;stroke:#9309df;stroke-width:1px;stroke-linecap:butt;stroke-linejoin:miter;stroke-opacity:1"
     d="m 287.0348,91.4531 2,2 -2,2 m -2.370121,-4 2,2 -2,2"
     transform="rotate(80.4508 287.0348 93.4531)"/>
  <line x1="288.6816" y1="103.2422" x2="289.1853" y2="123.2941" stroke="#8405fd" stroke-width="1.0" />
  <rect
     style="fill:#ffffff;fill-opacity:1;fill-rule:nonzero;stroke:none"
     width="2"
     height="2"
     x="288.4335"
     y="112.2682"
     transform="rotate(88.5609 288.9335 113.2682)" /> 
  <path
     style="fill:none;stroke:#8405fd;stroke-width:1px;stroke-linecap:butt;stroke-linejoin:miter;stroke-opacity:1"
     d="m 288.9335,111.2682 2,2 -2,2 m -2.370121,-4 2,2 -2,2"
     transform="rotate(88.5609 288.9335 113.2682)"/>
  <line x1="289.1853" y1="123.2941" x2="289.5709" y2="143.3328" stroke="#8405fd" stroke-width="1.0" />
  <rect
     style="fill:#ffffff;fill-opacity:1;fill-rule:nonzero;stroke:none"
     width="2"
     height="2"
     x="288.8781"
     y="132.3134"
     transform="rotate(88.8978 289.3781 133.3134)" /> 
  <path
     style="fill:none;stroke:#8405fd;stroke-width:1px;stroke-linecap:butt;stroke-linejoin:miter;stroke-opacity:1"
     d="m 289.3781,131.3134 2,2 -2,2 m -2.370121,-4 2,2 -2,2"
     transform="rotate(88.8978 289.3781 133.3134)"/>
  <line x1="289.6154" y1="163.2996" x2="289.5564" y2="183.2408" stroke="#e07500" stroke-width="1.0" />
  <rect
     style="fill:#ffffff;fill-opacity:1;fill-rule:nonzero;stroke:none"
     width="2"
     height="2"
     x="289.0859"
     y="172.2702"
     transform="rotate(90.1697 289.5859 173.2702)" /> 
  <path
     style="fill:none;stroke:#e07500;stroke-width:1px;stroke-linecap:butt;stroke-linejoin:miter;stroke-opacity:1"
     d="m 289.5859,171.2702 2,2 -2,2 m -2.370121,-4 2,2 -2,2"
     transform="rotate(90.1697 289.5859 173.2702)"/>
  <line x1="289.5564" y1="183.2408" x2="289.4905" y2="203.1447" stroke="#b41f06" stroke-width="1.0" />
  <rect
     style="fill:#ffffff;fill-opacity:1;fill-rule:nonzero;stroke:none"
     width="2"
     height="2"
     x="289.0234"
     y="192.1928"
     transform="rotate(90.1896 289.5234 193.1928)" /> 
  <path
     style="fill:none;stroke:#b41f06;stroke-width:1px;stroke-linecap:butt;stroke-linejoin:miter;stroke-opacity:1"
     d="m 289.5234,191.1928 2,2 -2,2 m -2.370121,-4 2,2 -2,2"
     transform="rotate(90.1896 289.5234 193.1928)"/>
  <line x1="289.4905" y1="203.1447" x2="289.3569" y2="223.0480" stroke="#c02e00" stroke-width="1.0" />
  <rect
     style="fill:#ffffff;fill-opacity:1;fill-rule:nonzero;stroke:none"
     width="2"
     height="2"
     x="288.9237"
     y="212.0963"
     transform="rotate(90.3846 289.4237 213.0963)" /> 
  <path
     style="fill:none;stroke:#c02e00;stroke-width:1px;stroke-linecap:butt;stroke-linejoin:miter;stroke-opacity:1"
     d="m 289.4237,211.0963 2,2 -2,2 m -2.370121,-4 2,2 -2,2"
     transform="rotate(90.3846 289.4237 213.0963)"/>
  <line x1="289.3569" y1="223.0480" x2="289.3270" y2="242.9586" stroke="#2d0032" stroke-width="1.0" />
  <rect
     style="fill:#ffffff;fill-opacity:1;fill-rule:nonzero;stroke:none"
     width="2"
     height="2"
     x="288.8420"
     y="232.0033"
     transform="rotate(90.0859 289.3420 233.0033)" /> 
  <path
     style="fill:none;stroke:#2d0032;stroke-width:1px;stroke-linecap:butt;stroke-linejoin:miter;stroke-opacity:1"
     d="m 289.3420,231.0033 2,2 -2,2 m -2.370121,-4 2,2 -2,2"
     transform="rotate(90.0859 289.3420 233.0033)"/>
  <line x1="289.3042" y1="262.8774" x2="289.2018" y2="282.8027" stroke="#400062" stroke-width="1.0" />
  <rect
     style="fill:#ffffff;fill-opacity:1;fill-rule:nonzero;stroke:none"
     width="2"
     height="2"
     x="288.7530"
     y="271.8401"
     transform="rotate(90.2945 289.2530 272.8401)" /> 
  <path
     style="fill:none;stroke:#400062;stroke-width:1px;stroke-linecap:butt;stroke-linejoin:miter;stroke-opacity:1"
     d="m 289.2530,270.8401 2,2 -2,2 m -2.370121,-4 2,2 -2,2"
     transform="rotate(90.2945 289.2530 272.8401)"/>
  <line x1="289.2018" y1="282.8027" x2="289.1452" y2="302.7354" stroke="#8b07f3" stroke-width="1.0" />
  <rect
     style="fill:#ffffff;fill-opacity:1;fill-rule:nonzero;stroke:none"
     width="2"
     height="2"
     x="288.6735"
     y="291.7691"
     transform="rotate(90.1627 289.1735 292.7691)" /> 
  <path
     style="fill:none;stroke:#8b07f3;stroke-width:1px;stroke-linecap:butt;stroke-linejoin:miter;stroke-opacity:1"
     d="m 289.1735,290.7691 2,2 -2,2 m -2.370121,-4 2,2 -2,2"
     transform="rotate(90.1627 289.1735 292.7691)"/>
  <line x1="289.1452" y1="302.7354" x2="289.0921" y2="322.6755" stroke="#d14c00" stroke-width="1.0" />
  <rect
     style="fill:#ffffff;fill-opacity:1;fill-rule:nonzero;stroke:none"
     width="2"
     height="2"
     x="288.6186"
     y="311.7055"
     transform="rotate(90.1525 289.1186 312.7055)" /> 
  <path
     style="fill:none;stroke:#d14c00;stroke-width:1px;stroke-linecap:butt;stroke-linejoin:miter;stroke-opacity:1"
     d="m 289.1186,310.7055 2,2 -2,2 m -2.370121,-4 2,2 -2,2"
     transform="rotate(90.1525 289.1186 312.7055)"/>
  <line x1="289.0229" y1="342.6232" x2="288.9524" y2="362.5786" stroke="#000000" stroke-width="1.0" />
  <rect
     style="fill:#ffffff;fill-opacity:1;fill-rule:nonzero;stroke:none"
     width="2"
     height="2"
     x="288.4876"
     y="351.6009"
     transform="rotate(90.2023 288.9876 352.6009)" /> 
  <path
     style="fill:none;stroke:#000000;stroke-width:1px;stroke-linecap:butt;stroke-linejoin:miter;stroke-opacity:1"
     d="m 288.9876,350.6009 2,2 -2,2 m -2.370121,-4 2,2 -2,2"
     transform="rotate(90.2023 288.9876 352.6009)"/>
  <line x1="288.9524" y1="362.5786" x2="288.8782" y2="382.5418" stroke="#7102f1" stroke-width="1.0" />
  <rect
     style="fill:#ffffff;fill-opacity:1;fill-rule:nonzero;stroke:none"
     width="2"
     height="2"
     x="288.4153"
     y="371.5602"
     transform="rotate(90.2129 288.9153 372.5602)" /> 
  <path
     style="fill:none;stroke:#7102f1;stroke-width:1px;stroke-linecap:butt;stroke-linejoin:miter;stroke-opacity:1"
     d="m 288.9153,370.5602 2,2 -2,2 m -2.370121,-4 2,2 -2,2"
     transform="rotate(90.2129 288.9153 372.5602)"/>
  <line x1="288.8782" y1="382.5418" x2="288.8019" y2="402.5127" stroke="#7a03fd" stroke-width="1.0" />
  <rect
     style="fill:#ffffff;fill-opacity:1;fill-rule:nonzero;stroke:none"
     width="2"
     height="2"
     x="288.3401"
     y="391.5272"
     transform="rotate(90.2190 288.8401 392.5272)" /> 
  <path
     style="fill:none;stroke:#7a03fd;stroke-width:1px;stroke-linecap:butt;stroke-linejoin:miter;stroke-opacity:1"
     d="m 288.8401,390.5272 2,2 -2,2 m -2.370121,-4 2,2 -2,2"
     transform="rotate(90.2190 288.8401 392.5272)"/>
  <line x1="288.7245" y1="422.4911" x2="288.6467" y2="442.4768" stroke="#8b07f3" stroke-width="1.0" />
  <rect
     style="fill:#ffffff;fill-opacity:1;fill-rule:nonzero;stroke:none"
     width="2"
     height="2"
     x="288.1856"
     y="431.4839"
     transform="rotate(90.2231 288.6856 432.4839)" /> 
  <path
     style="fill:none;stroke:#8b07f3;stroke-width:1px;stroke-linecap:butt;stroke-linejoin:miter;stroke-opacity:1"
     d="m 288.6856,430.4839 2,2 -2,2 m -2.370121,-4 2,2 -2,2"
     transform="rotate(90.2231 288.6856 432.4839)"/>
  <line x1="288.6467" y1="442.4768" x2="288.5688" y2="462.4697" stroke="#2d0032" stroke-width="1.0" />
  <rect
     style="fill:#ffffff;fill-opacity:1;fill-rule:nonzero;stroke:none"
     width="2"
     height="2"
     x="288.1077"
     y="451.4732"
     transform="rotate(90.2231 288.6077 452.4732)" /> 
  <path
     style="fill:none;stroke:#2d0032;stroke-width:1px;stroke-linecap:butt;stroke-linejoin:miter;stroke-opacity:1"
     d="m 288.6077,450.4732 2,2 -2,2 m -2.370121,-4 2,2 -2,2"
     transform="rotate(90.2231 288.6077 452.4732)"/>
<circle cx="256.0687" cy="462.4385" r="5.0" stroke="#595959" stroke-width="1.0" fill="#ffffff"/>
<text x="256.0687" y="465.1385" text-anchor="middle" font-family="Helvetica" font-size="7.5" fill="#000000" >A</text>
<circle cx="256.1467" cy="442.4451" r="5.0" stroke="#595959" stroke-width="1.0" fill="#ffffff"/>
<text x="256.1467" y="445.1451" text-anchor="middle" font-family="Helvetica" font-size="7.5" fill="#000000" >C</text>
<circle cx="256.2245" cy="422.4582" r="5.0" stroke="#595959" stroke-width="1.0" fill="#ffffff"/>
<text x="256.2245" y="425.1582" text-anchor="middle" font-family="Helvetica" font-size="7.5" fill="#000000" >U</text>
<circle cx="256.3019" cy="402.4775" r="5.0" stroke="#595959" stroke-width="1.0" fill="#ffffff"/>
<text x="256.3019" y="405.1775" text-anchor="middle" font-family="Helvetica" font-size="7.5" fill="#000000" >G</text>
<circle cx="256.3783" cy="382.5029" r="5.0" stroke="#595959" stroke-width="1.0" fill="#ffffff"/>
<text x="256.3783" y="385.2029" text-anchor="middle" font-family="Helvetica" font-size="7.5" fill="#000000" >G</text>
<circle cx="256.4524" cy="362.5342" r="5.0" stroke="#595959" stroke-width="1.0" fill="#ffffff"/>
<text x="256.4524" y="365.2342" text-anchor="middle" font-family="Helvetica" font-size="7.5" fill="#000000" >A</text>
<circle cx="256.5229" cy="342.5714" r="5.0" stroke="#595959" stroke-width="1.0" fill="#ffffff"/>
<text x="256.5229" y="345.2714" text-anchor="middle" font-family="Helvetica" font-size="7.5" fill="#000000" >C</text>
<circle cx="256.5827" cy="322.6146" r="5.0" stroke="#595959" stroke-width="1.0" fill="#ffffff"/>
<text x="256.5827" y="325.3146" text-anchor="middle" font-family="Helvetica" font-size="7.5" fill="#000000" >A</text>
<circle cx="256.6413" cy="302.6648" r="5.0" stroke="#595959" stroke-width="1.0" fill="#ffffff"/>
<text x="256.6413" y="305.3648" text-anchor="middle" font-family="Helvetica" font-size="7.5" fill="#000000" >G</text>
<circle cx="256.6921" cy="282.7237" r="5.0" stroke="#595959" stroke-width="1.0" fill="#ffffff"/>
<text x="256.6921" y="285.4237" text-anchor="middle" font-family="Helvetica" font-size="7.5" fill="#000000" >G</text>
<circle cx="256.8040" cy="262.7945" r="5.0" stroke="#595959" stroke-width="1.0" fill="#ffffff"/>
<text x="256.8040" y="265.4945" text-anchor="middle" font-family="Helvetica" font-size="7.5" fill="#000000" >U</text>
<circle cx="256.7955" cy="242.8802" r="5.0" stroke="#595959" stroke-width="1.0" fill="#ffffff"/>
<text x="256.7955" y="245.5802" text-anchor="middle" font-family="Helvetica" font-size="7.5" fill="#000000" >G</text>
<circle cx="256.8420" cy="222.9825" r="5.0" stroke="#595959" stroke-width="1.0" fill="#ffffff"/>
<text x="256.8420" y="225.6825" text-anchor="middle" font-family="Helvetica" font-size="7.5" fill="#000000" >C</text>
<circle cx="256.9440" cy="203.1027" r="5.0" stroke="#595959" stroke-width="1.0" fill="#ffffff"/>
<text x="256.9440" y="205.8027" text-anchor="middle" font-family="Helvetica" font-size="7.5" fill="#000000" >U</text>
<circle cx="257.0660" cy="183.2437" r="5.0" stroke="#595959" stroke-width="1.0" fill="#ffffff"/>
<text x="257.0660" y="185.9437" text-anchor="middle" font-family="Helvetica" font-size="7.5" fill="#000000" >C</text>
<circle cx="257.0591" cy="163.4325" r="5.0" stroke="#595959" stroke-width="1.0" fill="#ffffff"/>
<text x="257.0591" y="166.1325" text-anchor="middle" font-family="Helvetica" font-size="7.5" fill="#000000" >C</text>
<circle cx="257.0715" cy="143.6370" r="5.0" stroke="#595959" stroke-width="1.0" fill="#ffffff"/>
<text x="257.0715" y="146.3370" text-anchor="middle" font-family="Helvetica" font-size="7.5" fill="#000000" >G</text>
<circle cx="256.7974" cy="123.8479" r="5.0" stroke="#595959" stroke-width="1.0" fill="#ffffff"/>
<text x="256.7974" y="126.5479" text-anchor="middle" font-family="Helvetica" font-size="7.5" fill="#000000" >A</text>
<circle cx="256.2674" cy="104.0202" r="5.0" stroke="#595959" stroke-width="1.0" fill="#ffffff"/>
<text x="256.2674" y="106.7202" text-anchor="middle" font-family="Helvetica" font-size="7.5" fill="#000000" >G</text>
<circle cx="265.8311" cy="86.6182" r="5.0" stroke="#595959" stroke-width="1.0" fill="#ffffff"/>
<text x="265.8311" y="89.3182" text-anchor="middle" font-family="Helvetica" font-size="7.5" fill="#000000" >G</text>
<circle cx="285.3880" cy="83.6640" r="5.0" stroke="#595959" stroke-width="1.0" fill="#ffffff"/>
<text x="285.3880" y="86.3640" text-anchor="middle" font-family="Helvetica" font-size="7.5" fill="#000000" >C</text>
<circle cx="288.6816" cy="103.2422" r="5.0" stroke="#595959" stroke-width="1.0" fill="#ffffff"/>
<text x="288.6816" y="105.9422" text-anchor="middle" font-family="Helvetica" font-size="7.5" fill="#000000" >C</text>
<circle cx="289.1853" cy="123.2941" r="5.0" stroke="#595959" stroke-width="1.0" fill="#ffffff"/>
<text x="289.1853" y="125.9941" text-anchor="middle" font-family="Helvetica" font-size="7.5" fill="#000000" >U</text>
<circle cx="289.5709" cy="143.3328" r="5.0" stroke="#595959" stroke-width="1.0" fill="#ffffff"/>
<text x="289.5709" y="146.0328" text-anchor="middle" font-family="Helvetica" font-size="7.5" fill="#000000" >C</text>
<circle cx="289.6154" cy="163.2996" r="5.0" stroke="#595959" stroke-width="1.0" fill="#ffffff"/>
<text x="289.6154" y="165.9996" text-anchor="middle" font-family="Helvetica" font-size="7.5" fill="#000000" >G</text>
<circle cx="289.5564" cy="183.2408" r="5.0" stroke="#595959" stroke-width="1.0" fill="#ffffff"/>
<text x="289.5564" y="185.9408" text-anchor="middle" font-family="Helvetica" font-size="7.5" fill="#000000" >G</text>
<circle cx="289.4905" cy="203.1447" r="5.0" stroke="#595959" stroke-width="1.0" fill="#ffffff"/>
<text x="289.4905" y="205.8447" text-anchor="middle" font-family="Helvetica" font-size="7.5" fill="#000000" >A</text>
<circle cx="289.3569" cy="223.0480" r="5.0" stroke="#595959" stroke-width="1.0" fill="#ffffff"/>
<text x="289.3569" y="225.7480" text-anchor="middle" font-family="Helvetica" font-size="7.5" fill="#000000" >G</text>
<circle cx="289.3270" cy="242.9586" r="5.0" stroke="#595959" stroke-width="1.0" fill="#ffffff"/>
<text x="289.3270" y="245.6586" text-anchor="middle" font-family="Helvetica" font-size="7.5" fill="#000000" >U</text>
<circle cx="289.3042" cy="262.8774" r="5.0" stroke="#595959" stroke-width="1.0" fill="orange"/>
<text x="289.3042" y="265.5774" text-anchor="middle" font-family="Helvetica" font-size="7.5" fill="#000000" >I</text>
<circle cx="289.2018" cy="282.8027" r="5.0" stroke="#595959" stroke-width="1.0" fill="#ffffff"/>
<text x="289.2018" y="285.5027" text-anchor="middle" font-family="Helvetica" font-size="7.5" fill="#000000" >U</text>
<circle cx="289.1452" cy="302.7354" r="5.0" stroke="#595959" stroke-width="1.0" fill="orange"/>
<text x="289.1452" y="305.4354" text-anchor="middle" font-family="Helvetica" font-size="7.5" fill="#000000" >U</text>
<circle cx="289.0921" cy="322.6755" r="5.0" stroke="#595959" stroke-width="1.0" fill="#ffffff"/>
<text x="289.0921" y="325.3755" text-anchor="middle" font-family="Helvetica" font-size="7.5" fill="#000000" >U</text>
<circle cx="289.0229" cy="342.6232" r="5.0" stroke="#595959" stroke-width="1.0" fill="#ffffff"/>
<text x="289.0229" y="345.3232" text-anchor="middle" font-family="Helvetica" font-size="7.5" fill="#000000" >G</text>
<circle cx="288.9524" cy="362.5786" r="5.0" stroke="#595959" stroke-width="1.0" fill="#ffffff"/>
<text x="288.9524" y="365.2786" text-anchor="middle" font-family="Helvetica" font-size="7.5" fill="#000000" >U</text>
<circle cx="288.8782" cy="382.5418" r="5.0" stroke="#595959" stroke-width="1.0" fill="#ffffff"/>
<text x="288.8782" y="385.2418" text-anchor="middle" font-family="Helvetica" font-size="7.5" fill="#000000" >C</text>
<circle cx="288.8019" cy="402.5127" r="5.0" stroke="#595959" stroke-width="1.0" fill="#ffffff"/>
<text x="288.8019" y="405.2127" text-anchor="middle" font-family="Helvetica" font-size="7.5" fill="#000000" >C</text>
<circle cx="288.7245" cy="422.4911" r="5.0" stroke="#595959" stroke-width="1.0" fill="#ffffff"/>
<text x="288.7245" y="425.1911" text-anchor="middle" font-family="Helvetica" font-size="7.5" fill="#000000" >A</text>
<circle cx="288.6467" cy="442.4768" r="5.0" stroke="#595959" stroke-width="1.0" fill="#ffffff"/>
<text x="288.6467" y="445.1768" text-anchor="middle" font-family="Helvetica" font-size="7.5" fill="#000000" >G</text>
<circle cx="288.5688" cy="462.4697" r="5.0" stroke="#595959" stroke-width="1.0" fill="#ffffff"/>
<text x="288.5688" y="465.1697" text-anchor="middle" font-family="Helvetica" font-size="7.5" fill="#000000" >U</text>
</svg>
