<?xml version="1.0" encoding="UTF-8"?>
<!DOCTYPE svg PUBLIC "-//W3C//DTD SVG 1.1//EN" 
"http://www.w3.org/Graphics/SVG/1.1/DTD/svg11.dtd">

<svg version="1.1"
   width="546px"
   height="546px"
xmlns="http://www.w3.org/2000/svg">
    <rect width="100%" height="100%" fill="white"/>

  <line x1="256.3088" y1="421.6473" x2="256.3727" y2="401.7281" stroke="#595959"
     style="stroke-width:2;stroke-miterlimit:4;stroke-dasharray:1,1;stroke-dashoffset:0" />
  <line x1="256.5658" y1="342.1081" x2="256.6242" y2="322.2726" stroke="#595959"
     style="stroke-width:2;stroke-miterlimit:4;stroke-dasharray:1,1;stroke-dashoffset:0" />
  <line x1="256.7680" y1="262.8509" x2="256.8118" y2="243.0714" stroke="#595959"
     style="stroke-width:2;stroke-miterlimit:4;stroke-dasharray:1,1;stroke-dashoffset:0" />
  <line x1="257.0717" y1="164.1121" x2="257.0316" y2="144.4336" stroke="#595959"
     style="stroke-width:2;stroke-miterlimit:4;stroke-dasharray:1,1;stroke-dashoffset:0" />
  <line x1="289.4949" y1="144.1030" x2="289.5530" y2="163.9741" stroke="#595959"
     style="stroke-width:2;stroke-miterlimit:4;stroke-dasharray:1,1;stroke-dashoffset:0" />
  <line x1="289.3118" y1="243.1028" x2="289.2689" y2="262.8879" stroke="#595959"
     style="stroke-width:2;stroke-miterlimit:4;stroke-dasharray:1,1;stroke-dashoffset:0" />
  <line x1="289.1242" y1="322.3060" x2="289.0657" y2="342.1400" stroke="#595959"
     style="stroke-width:2;stroke-miterlimit:4;stroke-dasharray:1,1;stroke-dashoffset:0" />
  <line x1="288.8727" y1="401.7602" x2="288.8088" y2="421.6801" stroke="#595959"
     style="stroke-width:2;stroke-miterlimit:4;stroke-dasharray:1,1;stroke-dashoffset:0" />
  <line x1="256.1814" y1="463.1648" x2="288.6816" y2="463.1987" stroke="#c02e00" stroke-width="1.0" />
  <circle cx="272.4315" cy="463.1817" r="2.25" stroke="#c02e00" stroke-width="1.0" fill="#c02e00"/>
  <line x1="256.3104" y1="420.0473" x2="288.8104" y2="420.0801" stroke="#eeaa00" stroke-width="1.0" />
  <circle cx="272.5604" cy="420.0637" r="2.25" stroke="#eeaa00" stroke-width="1.0" fill="#eeaa00"/>
  <line x1="256.6768" y1="302.4520" x2="289.2242" y2="282.6821" stroke="#eeaa00" stroke-width="1.0" />
  <circle cx="272.9505" cy="292.5671" r="2.25" stroke="#eeaa00" stroke-width="1.0" fill="#eeaa00"/>
  <line x1="256.6768" y1="302.4520" x2="289.1768" y2="302.4875" stroke="#8204ff" stroke-width="1.0" />
  <circle cx="272.9268" cy="302.4697" r="2.25" stroke="#8204ff" stroke-width="1.0" fill="#8204ff"/>
  <line x1="256.7260" y1="281.0448" x2="289.2261" y2="281.0821" stroke="#c02e00" stroke-width="1.0" />
  <circle cx="272.9760" cy="281.0635" r="2.25" stroke="#c02e00" stroke-width="1.0" fill="#c02e00"/>
  <line x1="256.7223" y1="284.2448" x2="289.2224" y2="284.2821" stroke="#b11c1f" stroke-width="1.0" />
  <circle cx="272.9723" cy="284.2635" r="2.25" stroke="#b11c1f" stroke-width="1.0" fill="#b11c1f"/>
  <line x1="256.7241" y1="282.6448" x2="289.1768" y2="302.4875" stroke="#e27c00" stroke-width="1.0" />
  <circle cx="272.9504" cy="292.5662" r="2.25" stroke="#e27c00" stroke-width="1.0" fill="#e27c00"/>
  <line x1="256.7680" y1="262.8509" x2="289.2689" y2="262.8879" stroke="#d55800" stroke-width="1.0" />
  <circle cx="273.0185" cy="262.8694" r="2.25" stroke="#d55800" stroke-width="1.0" fill="#d55800"/>
  <line x1="256.7680" y1="262.8509" x2="289.2242" y2="282.6821" stroke="#b11c1f" stroke-width="1.0" />
  <circle cx="272.9961" cy="272.7665" r="2.25" stroke="#b11c1f" stroke-width="1.0" fill="#b11c1f"/>
  <line x1="256.8118" y1="243.0714" x2="289.3118" y2="243.1028" stroke="#4b0084" stroke-width="1.0" />
  <circle cx="273.0618" cy="243.0871" r="2.25" stroke="#4b0084" stroke-width="1.0" fill="#4b0084"/>
  <line x1="256.8292" y1="126.3123" x2="289.2891" y2="125.8023" stroke="#e89000" stroke-width="1.0" />
  <circle cx="273.0591" cy="126.0573" r="2.25" stroke="#e89000" stroke-width="1.0" fill="#e89000"/>
  <line x1="256.1831" y1="461.5648" x2="256.2458" y2="441.5925" stroke="#4b0084" stroke-width="1.0" />
  <rect
     style="fill:#ffffff;fill-opacity:1;fill-rule:nonzero;stroke:none"
     width="2"
     height="2"
     x="255.7144"
     y="450.5786"
     transform="rotate(-89.8201 256.2144 451.5786)" /> 
  <path
     style="fill:none;stroke:#4b0084;stroke-width:1px;stroke-linecap:butt;stroke-linejoin:miter;stroke-opacity:1"
     d="m 256.2144,449.5786 2,2 -2,2 m -2.370121,-4 2,2 -2,2"
     transform="rotate(-89.8201 256.2144 451.5786)"/>
  <line x1="256.1847" y1="459.9648" x2="288.6850" y2="459.9987" stroke="#c73900" stroke-width="1.0" />
  <line x1="256.2458" y1="441.5925" x2="256.3088" y2="421.6473" stroke="#8204ff" stroke-width="1.0" />
  <rect
     style="fill:#ffffff;fill-opacity:1;fill-rule:nonzero;stroke:none"
     width="2"
     height="2"
     x="255.7773"
     y="430.6199"
     transform="rotate(-89.8190 256.2773 431.6199)" /> 
  <path
     style="fill:none;stroke:#8204ff;stroke-width:1px;stroke-linecap:butt;stroke-linejoin:miter;stroke-opacity:1"
     d="m 256.2773,429.6199 2,2 -2,2 m -2.370121,-4 2,2 -2,2"
     transform="rotate(-89.8190 256.2773 431.6199)"/>
  <line x1="256.2445" y1="442.8425" x2="288.7445" y2="442.8760" stroke="#4b0084" stroke-width="1.0" />
  <line x1="256.2471" y1="440.3425" x2="288.7470" y2="440.3760" stroke="#4b0084" stroke-width="1.0" />
  <line x1="256.3072" y1="423.2473" x2="288.8071" y2="423.2801" stroke="#5b01b5" stroke-width="1.0" />
  <line x1="256.3088" y1="421.6473" x2="288.7458" y2="441.6260" stroke="#eeaa00" stroke-width="1.0" />
  <rect
     style="fill:#ffffff;stroke:none"
     width="5.5"
     height="2"
     x="269.7773"
     y="430.6367" 
     transform="rotate(31.6299 272.5273 431.6367)"    /> 
  <path
     style="fill:none;stroke:#eeaa00;stroke-width:1px;stroke-linecap:butt;stroke-linejoin:miter;stroke-opacity:1"
    d="m 273.2773,429.6367 2,2 -2,2 m -1.5,-4 -2,2 2,2" transform="rotate(31.6299 272.5273 431.6367)"/>
  <line x1="256.3727" y1="401.7281" x2="256.4377" y2="381.8333" stroke="#b82400" stroke-width="1.0" />
  <rect
     style="fill:#ffffff;fill-opacity:1;fill-rule:nonzero;stroke:none"
     width="2"
     height="2"
     x="255.9052"
     y="390.7807"
     transform="rotate(-89.8129 256.4052 391.7807)" /> 
  <path
     style="fill:none;stroke:#b82400;stroke-width:1px;stroke-linecap:butt;stroke-linejoin:miter;stroke-opacity:1"
     d="m 256.4052,389.7807 2,2 -2,2 m -2.370121,-4 2,2 -2,2"
     transform="rotate(-89.8129 256.4052 391.7807)"/>
  <line x1="256.3715" y1="402.9781" x2="288.8715" y2="403.0102" stroke="#000000" stroke-width="1.0" />
  <line x1="256.3740" y1="400.4781" x2="288.8740" y2="400.5102" stroke="#000000" stroke-width="1.0" />
  <line x1="256.3727" y1="401.7281" x2="288.8088" y2="421.6801" stroke="#000000" stroke-width="1.0" />
  <rect
     style="fill:#ffffff;stroke:none"
     width="5.5"
     height="2"
     x="269.8408"
     y="410.7041" 
     transform="rotate(31.5965 272.5908 411.7041)"    /> 
  <path
     style="fill:none;stroke:#000000;stroke-width:1px;stroke-linecap:butt;stroke-linejoin:miter;stroke-opacity:1"
    d="m 273.3408,409.7041 2,2 -2,2 m -1.5,-4 -2,2 2,2" transform="rotate(31.5965 272.5908 411.7041)"/>
  <line x1="256.4377" y1="381.8333" x2="256.5027" y2="361.9608" stroke="#b11c1f" stroke-width="1.0" />
  <rect
     style="fill:#ffffff;fill-opacity:1;fill-rule:nonzero;stroke:none"
     width="2"
     height="2"
     x="255.9702"
     y="370.8970"
     transform="rotate(-89.8125 256.4702 371.8970)" /> 
  <path
     style="fill:none;stroke:#b11c1f;stroke-width:1px;stroke-linecap:butt;stroke-linejoin:miter;stroke-opacity:1"
     d="m 256.4702,369.8970 2,2 -2,2 m -2.370121,-4 2,2 -2,2"
     transform="rotate(-89.8125 256.4702 371.8970)"/>
  <line x1="256.4365" y1="383.0833" x2="288.9365" y2="383.1148" stroke="#4b0084" stroke-width="1.0" />
  <line x1="256.4389" y1="380.5833" x2="288.9389" y2="380.6148" stroke="#4b0084" stroke-width="1.0" />
  <line x1="256.5027" y1="361.9608" x2="256.5658" y2="342.1081" stroke="#000000" stroke-width="1.0" />
  <rect
     style="fill:#ffffff;fill-opacity:1;fill-rule:nonzero;stroke:none"
     width="2"
     height="2"
     x="256.0342"
     y="351.0344"
     transform="rotate(-89.8181 256.5342 352.0344)" /> 
  <path
     style="fill:none;stroke:#000000;stroke-width:1px;stroke-linecap:butt;stroke-linejoin:miter;stroke-opacity:1"
     d="m 256.5342,350.0344 2,2 -2,2 m -2.370121,-4 2,2 -2,2"
     transform="rotate(-89.8181 256.5342 352.0344)"/>
  <line x1="256.5027" y1="361.9608" x2="289.0027" y2="361.9921" stroke="#4b0084" stroke-width="1.0" />
  <line x1="256.5027" y1="361.9608" x2="288.9377" y2="381.8648" stroke="#e27c00" stroke-width="1.0" />
  <rect
     style="fill:#ffffff;stroke:none"
     width="5.5"
     height="2"
     x="269.9702"
     y="370.9128" 
     transform="rotate(31.5357 272.7202 371.9128)"    /> 
  <path
     style="fill:none;stroke:#e27c00;stroke-width:1px;stroke-linecap:butt;stroke-linejoin:miter;stroke-opacity:1"
    d="m 273.4702,369.9128 2,2 -2,2 m -1.5,-4 -2,2 2,2" transform="rotate(31.5357 272.7202 371.9128)"/>
  <line x1="256.5645" y1="343.3581" x2="289.0645" y2="343.3900" stroke="#000000" stroke-width="1.0" />
  <line x1="256.5670" y1="340.8581" x2="289.0670" y2="340.8900" stroke="#000000" stroke-width="1.0" />
  <line x1="256.6242" y1="322.2726" x2="256.6768" y2="302.4520" stroke="#8b07f3" stroke-width="1.0" />
  <rect
     style="fill:#ffffff;fill-opacity:1;fill-rule:nonzero;stroke:none"
     width="2"
     height="2"
     x="256.1505"
     y="311.3623"
     transform="rotate(-89.8481 256.6505 312.3623)" /> 
  <path
     style="fill:none;stroke:#8b07f3;stroke-width:1px;stroke-linecap:butt;stroke-linejoin:miter;stroke-opacity:1"
     d="m 256.6505,310.3623 2,2 -2,2 m -2.370121,-4 2,2 -2,2"
     transform="rotate(-89.8481 256.6505 312.3623)"/>
  <line x1="256.6242" y1="322.2726" x2="289.1242" y2="322.3060" stroke="#33003e" stroke-width="1.0" />
  <line x1="256.6242" y1="322.2726" x2="289.0657" y2="342.1400" stroke="#000000" stroke-width="1.0" />
  <rect
     style="fill:#ffffff;stroke:none"
     width="5.5"
     height="2"
     x="270.0950"
     y="331.2063" 
     transform="rotate(31.4837 272.8450 332.2063)"    /> 
  <path
     style="fill:none;stroke:#000000;stroke-width:1px;stroke-linecap:butt;stroke-linejoin:miter;stroke-opacity:1"
    d="m 273.5950,330.2063 2,2 -2,2 m -1.5,-4 -2,2 2,2" transform="rotate(31.4837 272.8450 332.2063)"/>
  <line x1="256.6768" y1="302.4520" x2="256.7241" y2="282.6448" stroke="#8204ff" stroke-width="1.0" />
  <rect
     style="fill:#ffffff;fill-opacity:1;fill-rule:nonzero;stroke:none"
     width="2"
     height="2"
     x="256.2005"
     y="291.5484"
     transform="rotate(-89.8630 256.7005 292.5484)" /> 
  <path
     style="fill:none;stroke:#8204ff;stroke-width:1px;stroke-linecap:butt;stroke-linejoin:miter;stroke-opacity:1"
     d="m 256.7005,290.5484 2,2 -2,2 m -2.370121,-4 2,2 -2,2"
     transform="rotate(-89.8630 256.7005 292.5484)"/>
  <line x1="256.7241" y1="282.6448" x2="256.7680" y2="262.8509" stroke="#960bd2" stroke-width="1.0" />
  <rect
     style="fill:#ffffff;fill-opacity:1;fill-rule:nonzero;stroke:none"
     width="2"
     height="2"
     x="256.2461"
     y="271.7479"
     transform="rotate(-89.8729 256.7461 272.7479)" /> 
  <path
     style="fill:none;stroke:#960bd2;stroke-width:1px;stroke-linecap:butt;stroke-linejoin:miter;stroke-opacity:1"
     d="m 256.7461,270.7479 2,2 -2,2 m -2.370121,-4 2,2 -2,2"
     transform="rotate(-89.8729 256.7461 272.7479)"/>
  <line x1="256.7241" y1="282.6448" x2="289.2689" y2="262.8879" stroke="#eeaa00" stroke-width="1.0" />
  <circle cx="272.9965" cy="272.7664" r="2.25" stroke="#eeaa00" stroke-width="1.0" fill="#ffffff"/>
  <line x1="256.8118" y1="243.0714" x2="256.8555" y2="223.3084" stroke="#000000" stroke-width="1.0" />
  <rect
     style="fill:#ffffff;fill-opacity:1;fill-rule:nonzero;stroke:none"
     width="2"
     height="2"
     x="256.3336"
     y="232.1899"
     transform="rotate(-89.8734 256.8336 233.1899)" /> 
  <path
     style="fill:none;stroke:#000000;stroke-width:1px;stroke-linecap:butt;stroke-linejoin:miter;stroke-opacity:1"
     d="m 256.8336,231.1899 2,2 -2,2 m -2.370121,-4 2,2 -2,2"
     transform="rotate(-89.8734 256.8336 233.1899)"/>
  <line x1="256.8118" y1="243.0714" x2="289.2689" y2="262.8879" stroke="#8b07f3" stroke-width="1.0" />
  <rect
     style="fill:#ffffff;stroke:none"
     width="5.5"
     height="2"
     x="270.2904"
     y="251.9797" 
     transform="rotate(31.4059 273.0404 252.9797)"    /> 
  <path
     style="fill:none;stroke:#8b07f3;stroke-width:1px;stroke-linecap:butt;stroke-linejoin:miter;stroke-opacity:1"
    d="m 273.7904,250.9797 2,2 -2,2 m -1.5,-4 -2,2 2,2" transform="rotate(31.4059 273.0404 252.9797)"/>
  <line x1="256.8555" y1="223.3084" x2="256.8945" y2="203.5634" stroke="#960bd2" stroke-width="1.0" />
  <rect
     style="fill:#ffffff;fill-opacity:1;fill-rule:nonzero;stroke:none"
     width="2"
     height="2"
     x="256.3750"
     y="212.4359"
     transform="rotate(-89.8867 256.8750 213.4359)" /> 
  <path
     style="fill:none;stroke:#960bd2;stroke-width:1px;stroke-linecap:butt;stroke-linejoin:miter;stroke-opacity:1"
     d="m 256.8750,211.4359 2,2 -2,2 m -2.370121,-4 2,2 -2,2"
     transform="rotate(-89.8867 256.8750 213.4359)"/>
  <line x1="256.8549" y1="224.5584" x2="289.3549" y2="224.5742" stroke="#33003e" stroke-width="1.0" />
  <line x1="256.8561" y1="222.0584" x2="289.3561" y2="222.0742" stroke="#33003e" stroke-width="1.0" />
  <line x1="256.8945" y1="203.5634" x2="256.9902" y2="183.8363" stroke="#960bd2" stroke-width="1.0" />
  <rect
     style="fill:#ffffff;fill-opacity:1;fill-rule:nonzero;stroke:none"
     width="2"
     height="2"
     x="256.4423"
     y="192.6999"
     transform="rotate(-89.7223 256.9423 193.6999)" /> 
  <path
     style="fill:none;stroke:#960bd2;stroke-width:1px;stroke-linecap:butt;stroke-linejoin:miter;stroke-opacity:1"
     d="m 256.9423,191.6999 2,2 -2,2 m -2.370121,-4 2,2 -2,2"
     transform="rotate(-89.7223 256.9423 193.6999)"/>
  <line x1="256.8945" y1="203.5634" x2="289.3946" y2="203.5477" stroke="#33003e" stroke-width="1.0" />
  <line x1="256.8945" y1="203.5634" x2="289.3555" y2="223.3242" stroke="#eeaa00" stroke-width="1.0" />
  <rect
     style="fill:#ffffff;stroke:none"
     width="5.5"
     height="2"
     x="270.3750"
     y="212.4438" 
     transform="rotate(31.3312 273.1250 213.4438)"    /> 
  <path
     style="fill:none;stroke:#eeaa00;stroke-width:1px;stroke-linecap:butt;stroke-linejoin:miter;stroke-opacity:1"
    d="m 273.8750,211.4438 2,2 -2,2 m -1.5,-4 -2,2 2,2" transform="rotate(31.3312 273.1250 213.4438)"/>
  <line x1="256.9902" y1="183.8363" x2="257.0717" y2="164.1121" stroke="#5b01b5" stroke-width="1.0" />
  <rect
     style="fill:#ffffff;fill-opacity:1;fill-rule:nonzero;stroke:none"
     width="2"
     height="2"
     x="256.5309"
     y="172.9742"
     transform="rotate(-89.7633 257.0309 173.9742)" /> 
  <path
     style="fill:none;stroke:#5b01b5;stroke-width:1px;stroke-linecap:butt;stroke-linejoin:miter;stroke-opacity:1"
     d="m 257.0309,171.9742 2,2 -2,2 m -2.370121,-4 2,2 -2,2"
     transform="rotate(-89.7633 257.0309 173.9742)"/>
  <line x1="256.9929" y1="185.0863" x2="289.4707" y2="185.0155" stroke="#33003e" stroke-width="1.0" />
  <line x1="256.9874" y1="182.5863" x2="289.4653" y2="182.5155" stroke="#33003e" stroke-width="1.0" />
  <line x1="257.0770" y1="165.3621" x2="289.5583" y2="165.2241" stroke="#000000" stroke-width="1.0" />
  <line x1="257.0663" y1="162.8621" x2="289.5477" y2="162.7242" stroke="#000000" stroke-width="1.0" />
  <line x1="257.0717" y1="164.1121" x2="289.4680" y2="183.7655" stroke="#e27c00" stroke-width="1.0" />
  <rect
     style="fill:#ffffff;stroke:none"
     width="5.5"
     height="2"
     x="270.5198"
     y="172.9388" 
     transform="rotate(31.2434 273.2698 173.9388)"    /> 
  <path
     style="fill:none;stroke:#e27c00;stroke-width:1px;stroke-linecap:butt;stroke-linejoin:miter;stroke-opacity:1"
    d="m 274.0198,171.9388 2,2 -2,2 m -1.5,-4 -2,2 2,2" transform="rotate(31.2434 273.2698 173.9388)"/>
  <line x1="257.0316" y1="144.4336" x2="256.8041" y2="124.7125" stroke="#b82400" stroke-width="1.0" />
  <rect
     style="fill:#ffffff;fill-opacity:1;fill-rule:nonzero;stroke:none"
     width="2"
     height="2"
     x="256.4178"
     y="133.5731"
     transform="rotate(269.3390 256.9178 134.5731)" /> 
  <path
     style="fill:none;stroke:#b82400;stroke-width:1px;stroke-linecap:butt;stroke-linejoin:miter;stroke-opacity:1"
     d="m 256.9178,132.5731 2,2 -2,2 m -2.370121,-4 2,2 -2,2"
     transform="rotate(269.3390 256.9178 134.5731)"/>
  <line x1="257.0443" y1="145.6836" x2="289.5076" y2="145.3530" stroke="#33003e" stroke-width="1.0" />
  <line x1="257.0189" y1="143.1837" x2="289.4822" y2="142.8531" stroke="#33003e" stroke-width="1.0" />
  <line x1="257.0316" y1="144.4336" x2="289.5530" y2="163.9741" stroke="#000000" stroke-width="1.0" />
  <rect
     style="fill:#ffffff;stroke:none"
     width="5.5"
     height="2"
     x="270.5423"
     y="153.2039" 
     transform="rotate(30.9996 273.2923 154.2039)"    /> 
  <path
     style="fill:none;stroke:#000000;stroke-width:1px;stroke-linecap:butt;stroke-linejoin:miter;stroke-opacity:1"
    d="m 274.0423,152.2039 2,2 -2,2 m -1.5,-4 -2,2 2,2" transform="rotate(30.9996 273.2923 154.2039)"/>
  <line x1="256.8041" y1="124.7125" x2="256.3203" y2="104.9089" stroke="#b11c1f" stroke-width="1.0" />
  <rect
     style="fill:#ffffff;fill-opacity:1;fill-rule:nonzero;stroke:none"
     width="2"
     height="2"
     x="256.0622"
     y="113.8107"
     transform="rotate(268.6008 256.5622 114.8107)" /> 
  <path
     style="fill:none;stroke:#b11c1f;stroke-width:1px;stroke-linecap:butt;stroke-linejoin:miter;stroke-opacity:1"
     d="m 256.5622,112.8107 2,2 -2,2 m -2.370121,-4 2,2 -2,2"
     transform="rotate(268.6008 256.5622 114.8107)"/>
  <line x1="256.7789" y1="123.1127" x2="289.2388" y2="122.6027" stroke="#6a01e2" stroke-width="1.0" />
  <line x1="256.3203" y1="104.9089" x2="265.3191" y2="87.2491" stroke="#a0109e" stroke-width="1.0" />
  <rect
     style="fill:#ffffff;fill-opacity:1;fill-rule:nonzero;stroke:none"
     width="2"
     height="2"
     x="260.3197"
     y="95.0790"
     transform="rotate(-62.9984 260.8197 96.0790)" /> 
  <path
     style="fill:none;stroke:#a0109e;stroke-width:1px;stroke-linecap:butt;stroke-linejoin:miter;stroke-opacity:1"
     d="m 260.8197,94.0790 2,2 -2,2 m -2.370121,-4 2,2 -2,2"
     transform="rotate(-62.9984 260.8197 96.0790)"/>
  <line x1="256.3448" y1="106.1586" x2="288.8216" y2="105.5233" stroke="#000000" stroke-width="1.0" />
  <line x1="256.2959" y1="103.6591" x2="288.7728" y2="103.0238" stroke="#000000" stroke-width="1.0" />
  <line x1="265.4720" y1="88.4897" x2="285.0947" y2="86.0708" stroke="#4b0084" stroke-width="1.0" />
  <line x1="265.1661" y1="86.0085" x2="284.7888" y2="83.5896" stroke="#4b0084" stroke-width="1.0" />
  <line x1="265.3191" y1="87.2491" x2="288.7972" y2="104.2736" stroke="#e89000" stroke-width="1.0" />
  <rect
     style="fill:#ffffff;stroke:none"
     width="5.5"
     height="2"
     x="274.3081"
     y="94.7613" 
     transform="rotate(35.9466 277.0581 95.7613)"    /> 
  <path
     style="fill:none;stroke:#e89000;stroke-width:1px;stroke-linecap:butt;stroke-linejoin:miter;stroke-opacity:1"
    d="m 277.8081,93.7613 2,2 -2,2 m -1.5,-4 -2,2 2,2" transform="rotate(35.9466 277.0581 95.7613)"/>
  <line x1="284.9417" y1="84.8302" x2="288.7972" y2="104.2736" stroke="#960bd2" stroke-width="1.0" />
  <rect
     style="fill:#ffffff;fill-opacity:1;fill-rule:nonzero;stroke:none"
     width="2"
     height="2"
     x="286.3695"
     y="93.5519"
     transform="rotate(78.7842 286.8695 94.5519)" /> 
  <path
     style="fill:none;stroke:#960bd2;stroke-width:1px;stroke-linecap:butt;stroke-linejoin:miter;stroke-opacity:1"
     d="m 286.8695,92.5519 2,2 -2,2 m -2.370121,-4 2,2 -2,2"
     transform="rotate(78.7842 286.8695 94.5519)"/>
  <line x1="288.7972" y1="104.2736" x2="289.2639" y2="124.2025" stroke="#7602f8" stroke-width="1.0" />
  <rect
     style="fill:#ffffff;fill-opacity:1;fill-rule:nonzero;stroke:none"
     width="2"
     height="2"
     x="288.5306"
     y="113.2381"
     transform="rotate(88.6584 289.0306 114.2381)" /> 
  <path
     style="fill:none;stroke:#7602f8;stroke-width:1px;stroke-linecap:butt;stroke-linejoin:miter;stroke-opacity:1"
     d="m 289.0306,112.2381 2,2 -2,2 m -2.370121,-4 2,2 -2,2"
     transform="rotate(88.6584 289.0306 114.2381)"/>
  <line x1="289.2639" y1="124.2025" x2="289.4949" y2="144.1030" stroke="#4b0084" stroke-width="1.0" />
  <rect
     style="fill:#ffffff;fill-opacity:1;fill-rule:nonzero;stroke:none"
     width="2"
     height="2"
     x="288.8794"
     y="133.1528"
     transform="rotate(89.3350 289.3794 134.1528)" /> 
  <path
     style="fill:none;stroke:#4b0084;stroke-width:1px;stroke-linecap:butt;stroke-linejoin:miter;stroke-opacity:1"
     d="m 289.3794,132.1528 2,2 -2,2 m -2.370121,-4 2,2 -2,2"
     transform="rotate(89.3350 289.3794 134.1528)"/>
  <line x1="289.5530" y1="163.9741" x2="289.4680" y2="183.7655" stroke="#ce4700" stroke-width="1.0" />
  <rect
     style="fill:#ffffff;fill-opacity:1;fill-rule:nonzero;stroke:none"
     width="2"
     height="2"
     x="289.0105"
     y="172.8698"
     transform="rotate(90.2460 289.5105 173.8698)" /> 
  <path
     style="fill:none;stroke:#ce4700;stroke-width:1px;stroke-linecap:butt;stroke-linejoin:miter;stroke-opacity:1"
     d="m 289.5105,171.8698 2,2 -2,2 m -2.370121,-4 2,2 -2,2"
     transform="rotate(90.2460 289.5105 173.8698)"/>
  <line x1="289.4680" y1="183.7655" x2="289.3946" y2="203.5477" stroke="#a0109e" stroke-width="1.0" />
  <rect
     style="fill:#ffffff;fill-opacity:1;fill-rule:nonzero;stroke:none"
     width="2"
     height="2"
     x="288.9313"
     y="192.6566"
     transform="rotate(90.2124 289.4313 193.6566)" /> 
  <path
     style="fill:none;stroke:#a0109e;stroke-width:1px;stroke-linecap:butt;stroke-linejoin:miter;stroke-opacity:1"
     d="m 289.4313,191.6566 2,2 -2,2 m -2.370121,-4 2,2 -2,2"
     transform="rotate(90.2124 289.4313 193.6566)"/>
  <line x1="289.3946" y1="203.5477" x2="289.3555" y2="223.3242" stroke="#c02e00" stroke-width="1.0" />
  <rect
     style="fill:#ffffff;fill-opacity:1;fill-rule:nonzero;stroke:none"
     width="2"
     height="2"
     x="288.8751"
     y="212.4360"
     transform="rotate(90.1134 289.3751 213.4360)" /> 
  <path
     style="fill:none;stroke:#c02e00;stroke-width:1px;stroke-linecap:butt;stroke-linejoin:miter;stroke-opacity:1"
     d="m 289.3751,211.4360 2,2 -2,2 m -2.370121,-4 2,2 -2,2"
     transform="rotate(90.1134 289.3751 213.4360)"/>
  <line x1="289.3555" y1="223.3242" x2="289.3118" y2="243.1028" stroke="#000000" stroke-width="1.0" />
  <rect
     style="fill:#ffffff;fill-opacity:1;fill-rule:nonzero;stroke:none"
     width="2"
     height="2"
     x="288.8336"
     y="232.2135"
     transform="rotate(90.1266 289.3336 233.2135)" /> 
  <path
     style="fill:none;stroke:#000000;stroke-width:1px;stroke-linecap:butt;stroke-linejoin:miter;stroke-opacity:1"
     d="m 289.3336,231.2135 2,2 -2,2 m -2.370121,-4 2,2 -2,2"
     transform="rotate(90.1266 289.3336 233.2135)"/>
  <line x1="289.2689" y1="262.8879" x2="289.2242" y2="282.6821" stroke="#e89000" stroke-width="1.0" />
  <rect
     style="fill:#ffffff;fill-opacity:1;fill-rule:nonzero;stroke:none"
     width="2"
     height="2"
     x="288.7466"
     y="271.7850"
     transform="rotate(90.1294 289.2466 272.7850)" /> 
  <path
     style="fill:none;stroke:#e89000;stroke-width:1px;stroke-linecap:butt;stroke-linejoin:miter;stroke-opacity:1"
     d="m 289.2466,270.7850 2,2 -2,2 m -2.370121,-4 2,2 -2,2"
     transform="rotate(90.1294 289.2466 272.7850)"/>
  <line x1="289.2242" y1="282.6821" x2="289.1768" y2="302.4875" stroke="#960bd2" stroke-width="1.0" />
  <rect
     style="fill:#ffffff;fill-opacity:1;fill-rule:nonzero;stroke:none"
     width="2"
     height="2"
     x="288.7005"
     y="291.5848"
     transform="rotate(90.1373 289.2005 292.5848)" /> 
  <path
     style="fill:none;stroke:#960bd2;stroke-width:1px;stroke-linecap:butt;stroke-linejoin:miter;stroke-opacity:1"
     d="m 289.2005,290.5848 2,2 -2,2 m -2.370121,-4 2,2 -2,2"
     transform="rotate(90.1373 289.2005 292.5848)"/>
  <line x1="289.1768" y1="302.4875" x2="289.1242" y2="322.3060" stroke="#a0109e" stroke-width="1.0" />
  <rect
     style="fill:#ffffff;fill-opacity:1;fill-rule:nonzero;stroke:none"
     width="2"
     height="2"
     x="288.6505"
     y="311.3967"
     transform="rotate(90.1519 289.1505 312.3967)" /> 
  <path
     style="fill:none;stroke:#a0109e;stroke-width:1px;stroke-linecap:butt;stroke-linejoin:miter;stroke-opacity:1"
     d="m 289.1505,310.3967 2,2 -2,2 m -2.370121,-4 2,2 -2,2"
     transform="rotate(90.1519 289.1505 312.3967)"/>
  <line x1="289.0657" y1="342.1400" x2="289.0027" y2="361.9921" stroke="#000000" stroke-width="1.0" />
  <rect
     style="fill:#ffffff;fill-opacity:1;fill-rule:nonzero;stroke:none"
     width="2"
     height="2"
     x="288.5342"
     y="351.0661"
     transform="rotate(90.1819 289.0342 352.0661)" /> 
  <path
     style="fill:none;stroke:#000000;stroke-width:1px;stroke-linecap:butt;stroke-linejoin:miter;stroke-opacity:1"
     d="m 289.0342,350.0661 2,2 -2,2 m -2.370121,-4 2,2 -2,2"
     transform="rotate(90.1819 289.0342 352.0661)"/>
  <line x1="289.0027" y1="361.9921" x2="288.9377" y2="381.8648" stroke="#7602f8" stroke-width="1.0" />
  <rect
     style="fill:#ffffff;fill-opacity:1;fill-rule:nonzero;stroke:none"
     width="2"
     height="2"
     x="288.4702"
     y="370.9285"
     transform="rotate(90.1875 288.9702 371.9285)" /> 
  <path
     style="fill:none;stroke:#7602f8;stroke-width:1px;stroke-linecap:butt;stroke-linejoin:miter;stroke-opacity:1"
     d="m 288.9702,369.9285 2,2 -2,2 m -2.370121,-4 2,2 -2,2"
     transform="rotate(90.1875 288.9702 371.9285)"/>
  <line x1="288.9377" y1="381.8648" x2="288.8727" y2="401.7602" stroke="#8b07f3" stroke-width="1.0" />
  <rect
     style="fill:#ffffff;fill-opacity:1;fill-rule:nonzero;stroke:none"
     width="2"
     height="2"
     x="288.4052"
     y="390.8125"
     transform="rotate(90.1871 288.9052 391.8125)" /> 
  <path
     style="fill:none;stroke:#8b07f3;stroke-width:1px;stroke-linecap:butt;stroke-linejoin:miter;stroke-opacity:1"
     d="m 288.9052,389.8125 2,2 -2,2 m -2.370121,-4 2,2 -2,2"
     transform="rotate(90.1871 288.9052 391.8125)"/>
  <line x1="288.8088" y1="421.6801" x2="288.7458" y2="441.6260" stroke="#6a01e2" stroke-width="1.0" />
  <rect
     style="fill:#ffffff;fill-opacity:1;fill-rule:nonzero;stroke:none"
     width="2"
     height="2"
     x="288.2773"
     y="430.6531"
     transform="rotate(90.1810 288.7773 431.6531)" /> 
  <path
     style="fill:none;stroke:#6a01e2;stroke-width:1px;stroke-linecap:butt;stroke-linejoin:miter;stroke-opacity:1"
     d="m 288.7773,429.6531 2,2 -2,2 m -2.370121,-4 2,2 -2,2"
     transform="rotate(90.1810 288.7773 431.6531)"/>
  <line x1="290.3458" y1="441.6310" x2="290.2833" y2="461.6037" stroke="#5b01b5" stroke-width="1.0" />
  <rect
     style="fill:#ffffff;fill-opacity:1;fill-rule:nonzero;stroke:none"
     width="2"
     height="2"
     x="289.8145"
     y="450.6174"
     transform="rotate(90.1792 290.3145 451.6174)" /> 
  <path
     style="fill:none;stroke:#5b01b5;stroke-width:1px;stroke-linecap:butt;stroke-linejoin:miter;stroke-opacity:1"
     d="m 290.3145,449.6174 2,2 -2,2 m -2.370121,-4 2,2 -2,2"
     transform="rotate(90.1792 290.3145 451.6174)"/>
  <line x1="287.1458" y1="441.6210" x2="287.0833" y2="461.5937" stroke="#eeaa00" stroke-width="1.0" />
  <rect
     style="fill:#ffffff;fill-opacity:1;fill-rule:nonzero;stroke:none"
     width="2"
     height="2"
     x="286.1145"
     y="450.6074" 
     transform="rotate(90.1792 287.1145 451.6074)" /> 
  <path
     style="fill:none;stroke:#eeaa00;stroke-width:1px;stroke-linecap:butt;stroke-linejoin:miter;stroke-opacity:1"
     d="m 290.1145,449.6074 -2,2 2,2 m -6,-4 2,2 -2,2"
     transform="rotate(90.1792 287.1145 451.6074)"/>
<circle cx="256.1831" cy="461.5648" r="5.0" stroke="#595959" stroke-width="1.0" fill="#ffffff"/>
<text x="256.1831" y="464.2648" text-anchor="middle" font-family="Helvetica" font-size="7.5" fill="#000000" >A</text>
<circle cx="256.2458" cy="441.5925" r="5.0" stroke="#595959" stroke-width="1.0" fill="#ffffff"/>
<text x="256.2458" y="444.2925" text-anchor="middle" font-family="Helvetica" font-size="7.5" fill="#000000" >C</text>
<circle cx="256.3088" cy="421.6473" r="5.0" stroke="#595959" stroke-width="1.0" fill="#ffffff"/>
<text x="256.3088" y="424.3473" text-anchor="middle" font-family="Helvetica" font-size="7.5" fill="#000000" >U</text>
<circle cx="256.3727" cy="401.7281" r="5.0" stroke="#595959" stroke-width="1.0" fill="#ffffff"/>
<text x="256.3727" y="404.4281" text-anchor="middle" font-family="Helvetica" font-size="7.5" fill="#000000" >G</text>
<circle cx="256.4377" cy="381.8333" r="5.0" stroke="#595959" stroke-width="1.0" fill="#ffffff"/>
<text x="256.4377" y="384.5333" text-anchor="middle" font-family="Helvetica" font-size="7.5" fill="#000000" >G</text>
<circle cx="256.5027" cy="361.9608" r="5.0" stroke="#595959" stroke-width="1.0" fill="#ffffff"/>
<text x="256.5027" y="364.6608" text-anchor="middle" font-family="Helvetica" font-size="7.5" fill="#000000" >A</text>
<circle cx="256.5658" cy="342.1081" r="5.0" stroke="#595959" stroke-width="1.0" fill="#ffffff"/>
<text x="256.5658" y="344.8081" text-anchor="middle" font-family="Helvetica" font-size="7.5" fill="#000000" >C</text>
<circle cx="256.6242" cy="322.2726" r="5.0" stroke="#595959" stroke-width="1.0" fill="#ffffff"/>
<text x="256.6242" y="324.9726" text-anchor="middle" font-family="Helvetica" font-size="7.5" fill="#000000" >A</text>
<circle cx="256.6768" cy="302.4520" r="5.0" stroke="#595959" stroke-width="1.0" fill="#ffffff"/>
<text x="256.6768" y="305.1520" text-anchor="middle" font-family="Helvetica" font-size="7.5" fill="#000000" >I</text>
<circle cx="256.7241" cy="282.6448" r="5.0" stroke="#595959" stroke-width="1.0" fill="orange"/>
<text x="256.7241" y="285.3448" text-anchor="middle" font-family="Helvetica" font-size="7.5" fill="#000000" >I</text>
<circle cx="256.7680" cy="262.8509" r="5.0" stroke="#595959" stroke-width="1.0" fill="orange"/>
<text x="256.7680" y="265.5509" text-anchor="middle" font-family="Helvetica" font-size="7.5" fill="#000000" >U</text>
<circle cx="256.8118" cy="243.0714" r="5.0" stroke="#595959" stroke-width="1.0" fill="#ffffff"/>
<text x="256.8118" y="245.7714" text-anchor="middle" font-family="Helvetica" font-size="7.5" fill="#000000" >I</text>
<circle cx="256.8555" cy="223.3084" r="5.0" stroke="#595959" stroke-width="1.0" fill="#ffffff"/>
<text x="256.8555" y="226.0084" text-anchor="middle" font-family="Helvetica" font-size="7.5" fill="#000000" >C</text>
<circle cx="256.8945" cy="203.5634" r="5.0" stroke="#595959" stroke-width="1.0" fill="#ffffff"/>
<text x="256.8945" y="206.2634" text-anchor="middle" font-family="Helvetica" font-size="7.5" fill="#000000" >U</text>
<circle cx="256.9902" cy="183.8363" r="5.0" stroke="#595959" stroke-width="1.0" fill="#ffffff"/>
<text x="256.9902" y="186.5363" text-anchor="middle" font-family="Helvetica" font-size="7.5" fill="#000000" >C</text>
<circle cx="257.0717" cy="164.1121" r="5.0" stroke="#595959" stroke-width="1.0" fill="#ffffff"/>
<text x="257.0717" y="166.8121" text-anchor="middle" font-family="Helvetica" font-size="7.5" fill="#000000" >C</text>
<circle cx="257.0316" cy="144.4336" r="5.0" stroke="#595959" stroke-width="1.0" fill="#ffffff"/>
<text x="257.0316" y="147.1336" text-anchor="middle" font-family="Helvetica" font-size="7.5" fill="#000000" >G</text>
<circle cx="256.8041" cy="124.7125" r="5.0" stroke="#595959" stroke-width="1.0" fill="#ffffff"/>
<text x="256.8041" y="127.4125" text-anchor="middle" font-family="Helvetica" font-size="7.5" fill="#000000" >A</text>
<circle cx="256.3203" cy="104.9089" r="5.0" stroke="#595959" stroke-width="1.0" fill="#ffffff"/>
<text x="256.3203" y="107.6089" text-anchor="middle" font-family="Helvetica" font-size="7.5" fill="#000000" >G</text>
<circle cx="265.3191" cy="87.2491" r="5.0" stroke="#595959" stroke-width="1.0" fill="#ffffff"/>
<text x="265.3191" y="89.9491" text-anchor="middle" font-family="Helvetica" font-size="7.5" fill="#000000" >G</text>
<circle cx="284.9417" cy="84.8302" r="5.0" stroke="#595959" stroke-width="1.0" fill="#ffffff"/>
<text x="284.9417" y="87.5302" text-anchor="middle" font-family="Helvetica" font-size="7.5" fill="#000000" >C</text>
<circle cx="288.7972" cy="104.2736" r="5.0" stroke="#595959" stroke-width="1.0" fill="#ffffff"/>
<text x="288.7972" y="106.9736" text-anchor="middle" font-family="Helvetica" font-size="7.5" fill="#000000" >C</text>
<circle cx="289.2639" cy="124.2025" r="5.0" stroke="#595959" stroke-width="1.0" fill="#ffffff"/>
<text x="289.2639" y="126.9025" text-anchor="middle" font-family="Helvetica" font-size="7.5" fill="#000000" >U</text>
<circle cx="289.4949" cy="144.1030" r="5.0" stroke="#595959" stroke-width="1.0" fill="#ffffff"/>
<text x="289.4949" y="146.8030" text-anchor="middle" font-family="Helvetica" font-size="7.5" fill="#000000" >C</text>
<circle cx="289.5530" cy="163.9741" r="5.0" stroke="#595959" stroke-width="1.0" fill="#ffffff"/>
<text x="289.5530" y="166.6741" text-anchor="middle" font-family="Helvetica" font-size="7.5" fill="#000000" >G</text>
<circle cx="289.4680" cy="183.7655" r="5.0" stroke="#595959" stroke-width="1.0" fill="#ffffff"/>
<text x="289.4680" y="186.4655" text-anchor="middle" font-family="Helvetica" font-size="7.5" fill="#000000" >G</text>
<circle cx="289.3946" cy="203.5477" r="5.0" stroke="#595959" stroke-width="1.0" fill="#ffffff"/>
<text x="289.3946" y="206.2477" text-anchor="middle" font-family="Helvetica" font-size="7.5" fill="#000000" >A</text>
<circle cx="289.3555" cy="223.3242" r="5.0" stroke="#595959" stroke-width="1.0" fill="#ffffff"/>
<text x="289.3555" y="226.0242" text-anchor="middle" font-family="Helvetica" font-size="7.5" fill="#000000" >G</text>
<circle cx="289.3118" cy="243.1028" r="5.0" stroke="#595959" stroke-width="1.0" fill="orange"/>
<text x="289.3118" y="245.8028" text-anchor="middle" font-family="Helvetica" font-size="7.5" fill="#000000" >U</text>
<circle cx="289.2689" cy="262.8879" r="5.0" stroke="#595959" stroke-width="1.0" fill="orange"/>
<text x="289.2689" y="265.5879" text-anchor="middle" font-family="Helvetica" font-size="7.5" fill="#000000" >I</text>
<circle cx="289.2242" cy="282.6821" r="5.0" stroke="#595959" stroke-width="1.0" fill="#ffffff"/>
<text x="289.2242" y="285.3821" text-anchor="middle" font-family="Helvetica" font-size="7.5" fill="#000000" >U</text>
<circle cx="289.1768" cy="302.4875" r="5.0" stroke="#595959" stroke-width="1.0" fill="#ffffff"/>
<text x="289.1768" y="305.1875" text-anchor="middle" font-family="Helvetica" font-size="7.5" fill="#000000" >U</text>
<circle cx="289.1242" cy="322.3060" r="5.0" stroke="#595959" stroke-width="1.0" fill="#ffffff"/>
<text x="289.1242" y="325.0060" text-anchor="middle" font-family="Helvetica" font-size="7.5" fill="#000000" >U</text>
<circle cx="289.0657" cy="342.1400" r="5.0" stroke="#595959" stroke-width="1.0" fill="#ffffff"/>
<text x="289.0657" y="344.8400" text-anchor="middle" font-family="Helvetica" font-size="7.5" fill="#000000" >G</text>
<circle cx="289.0027" cy="361.9921" r="5.0" stroke="#595959" stroke-width="1.0" fill="#ffffff"/>
<text x="289.0027" y="364.6921" text-anchor="middle" font-family="Helvetica" font-size="7.5" fill="#000000" >U</text>
<circle cx="288.9377" cy="381.8648" r="5.0" stroke="#595959" stroke-width="1.0" fill="#ffffff"/>
<text x="288.9377" y="384.5648" text-anchor="middle" font-family="Helvetica" font-size="7.5" fill="#000000" >C</text>
<circle cx="288.8727" cy="401.7602" r="5.0" stroke="#595959" stroke-width="1.0" fill="#ffffff"/>
<text x="288.8727" y="404.4602" text-anchor="middle" font-family="Helvetica" font-size="7.5" fill="#000000" >C</text>
<circle cx="288.8088" cy="421.6801" r="5.0" stroke="#595959" stroke-width="1.0" fill="#ffffff"/>
<text x="288.8088" y="424.3801" text-anchor="middle" font-family="Helvetica" font-size="7.5" fill="#000000" >A</text>
<circle cx="288.7458" cy="441.6260" r="5.0" stroke="#595959" stroke-width="1.0" fill="#ffffff"/>
<text x="288.7458" y="444.3260" text-anchor="middle" font-family="Helvetica" font-size="7.5" fill="#000000" >G</text>
<circle cx="288.6833" cy="461.5987" r="5.0" stroke="#595959" stroke-width="1.0" fill="#ffffff"/>
<text x="288.6833" y="464.2987" text-anchor="middle" font-family="Helvetica" font-size="7.5" fill="#000000" >U</text>
</svg>
