<?xml version="1.0" encoding="UTF-8"?>
<!DOCTYPE svg PUBLIC "-//W3C//DTD SVG 1.1//EN" 
"http://www.w3.org/Graphics/SVG/1.1/DTD/svg11.dtd">

<svg version="1.1"
   width="546px"
   height="546px"
xmlns="http://www.w3.org/2000/svg">
    <rect width="100%" height="100%" fill="white"/>

  <line x1="256.7500" y1="422.9468" x2="256.7500" y2="402.9468" stroke="#595959"
     style="stroke-width:2;stroke-miterlimit:4;stroke-dasharray:1,1;stroke-dashoffset:0" />
  <line x1="256.7500" y1="342.9477" x2="256.7500" y2="322.9477" stroke="#595959"
     style="stroke-width:2;stroke-miterlimit:4;stroke-dasharray:1,1;stroke-dashoffset:0" />
  <line x1="256.7500" y1="262.9489" x2="256.7500" y2="242.9489" stroke="#595959"
     style="stroke-width:2;stroke-miterlimit:4;stroke-dasharray:1,1;stroke-dashoffset:0" />
  <line x1="256.7501" y1="162.9501" x2="256.7496" y2="142.9505" stroke="#595959"
     style="stroke-width:2;stroke-miterlimit:4;stroke-dasharray:1,1;stroke-dashoffset:0" />
  <line x1="289.2504" y1="142.9505" x2="289.2499" y2="162.9501" stroke="#595959"
     style="stroke-width:2;stroke-miterlimit:4;stroke-dasharray:1,1;stroke-dashoffset:0" />
  <line x1="289.2500" y1="242.9489" x2="289.2500" y2="262.9489" stroke="#595959"
     style="stroke-width:2;stroke-miterlimit:4;stroke-dasharray:1,1;stroke-dashoffset:0" />
  <line x1="289.2500" y1="262.9489" x2="289.2500" y2="282.9483" stroke="#595959"
     style="stroke-width:2;stroke-miterlimit:4;stroke-dasharray:1,1;stroke-dashoffset:0" />
  <line x1="289.2500" y1="322.9477" x2="289.2500" y2="342.9477" stroke="#595959"
     style="stroke-width:2;stroke-miterlimit:4;stroke-dasharray:1,1;stroke-dashoffset:0" />
  <line x1="289.2500" y1="402.9468" x2="289.2500" y2="422.9468" stroke="#595959"
     style="stroke-width:2;stroke-miterlimit:4;stroke-dasharray:1,1;stroke-dashoffset:0" />
  <line x1="256.7500" y1="464.5466" x2="289.2500" y2="464.5466" stroke="#e99400" stroke-width="1.0" />
  <circle cx="273.0000" cy="464.5466" r="2.25" stroke="#e99400" stroke-width="1.0" fill="#e99400"/>
  <line x1="256.7500" y1="424.5468" x2="289.2500" y2="424.5468" stroke="#e38000" stroke-width="1.0" />
  <circle cx="273.0000" cy="424.5468" r="2.25" stroke="#e38000" stroke-width="1.0" fill="#e38000"/>
  <line x1="256.7500" y1="364.5471" x2="289.2500" y2="364.5471" stroke="#d75b00" stroke-width="1.0" />
  <circle cx="273.0000" cy="364.5471" r="2.25" stroke="#d75b00" stroke-width="1.0" fill="#d75b00"/>
  <line x1="256.7500" y1="301.3483" x2="289.2500" y2="301.3483" stroke="#ac1845" stroke-width="1.0" />
  <circle cx="273.0000" cy="301.3483" r="2.25" stroke="#ac1845" stroke-width="1.0" fill="#ac1845"/>
  <line x1="256.7500" y1="304.5483" x2="289.2500" y2="304.5483" stroke="#eeaa00" stroke-width="1.0" />
  <circle cx="273.0000" cy="304.5483" r="2.25" stroke="#eeaa00" stroke-width="1.0" fill="#eeaa00"/>
  <line x1="256.7500" y1="282.9483" x2="289.2500" y2="262.9489" stroke="#eeaa00" stroke-width="1.0" />
  <circle cx="273.0000" cy="272.9486" r="2.25" stroke="#eeaa00" stroke-width="1.0" fill="#eeaa00"/>
  <line x1="256.7500" y1="281.3483" x2="289.2500" y2="281.3483" stroke="#ac1845" stroke-width="1.0" />
  <circle cx="273.0000" cy="281.3483" r="2.25" stroke="#ac1845" stroke-width="1.0" fill="#ac1845"/>
  <line x1="256.7500" y1="284.5483" x2="289.2500" y2="284.5483" stroke="#c33200" stroke-width="1.0" />
  <circle cx="273.0000" cy="284.5483" r="2.25" stroke="#c33200" stroke-width="1.0" fill="#c33200"/>
  <line x1="256.7500" y1="282.9483" x2="289.2500" y2="302.9483" stroke="#eeaa00" stroke-width="1.0" />
  <circle cx="273.0000" cy="292.9483" r="2.25" stroke="#eeaa00" stroke-width="1.0" fill="#eeaa00"/>
  <line x1="256.7500" y1="262.9489" x2="289.2500" y2="262.9489" stroke="#eeaa00" stroke-width="1.0" />
  <circle cx="273.0000" cy="262.9489" r="2.25" stroke="#eeaa00" stroke-width="1.0" fill="#eeaa00"/>
  <line x1="256.7500" y1="262.9489" x2="289.2500" y2="282.9483" stroke="#c33200" stroke-width="1.0" />
  <circle cx="273.0000" cy="272.9486" r="2.25" stroke="#c33200" stroke-width="1.0" fill="#c33200"/>
  <line x1="256.7500" y1="242.9489" x2="289.2500" y2="242.9489" stroke="#33003e" stroke-width="1.0" />
  <circle cx="273.0000" cy="242.9489" r="2.25" stroke="#33003e" stroke-width="1.0" fill="#33003e"/>
  <line x1="256.7500" y1="224.5496" x2="289.2500" y2="224.5496" stroke="#e99400" stroke-width="1.0" />
  <circle cx="273.0000" cy="224.5496" r="2.25" stroke="#e99400" stroke-width="1.0" fill="#e99400"/>
  <line x1="256.7500" y1="204.5496" x2="289.2500" y2="204.5496" stroke="#eeaa00" stroke-width="1.0" />
  <circle cx="273.0000" cy="204.5496" r="2.25" stroke="#eeaa00" stroke-width="1.0" fill="#eeaa00"/>
  <line x1="256.7500" y1="182.9501" x2="289.2500" y2="202.9496" stroke="#eeaa00" stroke-width="1.0" />
  <circle cx="273.0000" cy="192.9498" r="2.25" stroke="#eeaa00" stroke-width="1.0" fill="#eeaa00"/>
  <line x1="256.6925" y1="124.5506" x2="289.3075" y2="124.5506" stroke="#e99400" stroke-width="1.0" />
  <circle cx="273.0000" cy="124.5506" r="2.25" stroke="#e99400" stroke-width="1.0" fill="#e99400"/>
  <line x1="263.0189" y1="85.5782" x2="282.9811" y2="85.5782" stroke="#e99400" stroke-width="1.0" />
  <circle cx="273.0000" cy="85.5782" r="2.25" stroke="#e99400" stroke-width="1.0" fill="#e99400"/>
  <line x1="256.7500" y1="462.9466" x2="256.7500" y2="442.9466" stroke="#000000" stroke-width="1.0" />
  <rect
     style="fill:#ffffff;fill-opacity:1;fill-rule:nonzero;stroke:none"
     width="2"
     height="2"
     x="256.2500"
     y="451.9466"
     transform="rotate(270.0000 256.7500 452.9466)" /> 
  <path
     style="fill:none;stroke:#000000;stroke-width:1px;stroke-linecap:butt;stroke-linejoin:miter;stroke-opacity:1"
     d="m 256.7500,450.9466 2,2 -2,2 m -2.370121,-4 2,2 -2,2"
     transform="rotate(270.0000 256.7500 452.9466)"/>
  <line x1="256.7500" y1="461.3466" x2="289.2500" y2="461.3466" stroke="#9b0dba" stroke-width="1.0" />
  <line x1="256.7500" y1="442.9466" x2="256.7500" y2="422.9468" stroke="#5800ac" stroke-width="1.0" />
  <rect
     style="fill:#ffffff;fill-opacity:1;fill-rule:nonzero;stroke:none"
     width="2"
     height="2"
     x="256.2500"
     y="431.9467"
     transform="rotate(-90.0000 256.7500 432.9467)" /> 
  <path
     style="fill:none;stroke:#5800ac;stroke-width:1px;stroke-linecap:butt;stroke-linejoin:miter;stroke-opacity:1"
     d="m 256.7500,430.9467 2,2 -2,2 m -2.370121,-4 2,2 -2,2"
     transform="rotate(-90.0000 256.7500 432.9467)"/>
  <line x1="256.7500" y1="444.1966" x2="289.2500" y2="444.1966" stroke="#480079" stroke-width="1.0" />
  <line x1="256.7500" y1="441.6966" x2="289.2500" y2="441.6966" stroke="#480079" stroke-width="1.0" />
  <line x1="256.7500" y1="421.3468" x2="289.2500" y2="421.3468" stroke="#7302f5" stroke-width="1.0" />
  <line x1="256.7500" y1="402.9468" x2="256.7500" y2="382.9471" stroke="#d75b00" stroke-width="1.0" />
  <rect
     style="fill:#ffffff;fill-opacity:1;fill-rule:nonzero;stroke:none"
     width="2"
     height="2"
     x="256.2500"
     y="391.9470"
     transform="rotate(270.0000 256.7500 392.9470)" /> 
  <path
     style="fill:none;stroke:#d75b00;stroke-width:1px;stroke-linecap:butt;stroke-linejoin:miter;stroke-opacity:1"
     d="m 256.7500,390.9470 2,2 -2,2 m -2.370121,-4 2,2 -2,2"
     transform="rotate(270.0000 256.7500 392.9470)"/>
  <line x1="256.7500" y1="404.1968" x2="289.2500" y2="404.1968" stroke="#000000" stroke-width="1.0" />
  <line x1="256.7500" y1="401.6968" x2="289.2500" y2="401.6968" stroke="#000000" stroke-width="1.0" />
  <line x1="256.7500" y1="402.9468" x2="289.2500" y2="422.9468" stroke="#33003e" stroke-width="1.0" />
  <rect
     style="fill:#ffffff;stroke:none"
     width="5.5"
     height="2"
     x="270.2500"
     y="411.9468" 
     transform="rotate(31.6075 273.0000 412.9468)"    /> 
  <path
     style="fill:none;stroke:#33003e;stroke-width:1px;stroke-linecap:butt;stroke-linejoin:miter;stroke-opacity:1"
    d="m 273.7500,410.9468 2,2 -2,2 m -1.5,-4 -2,2 2,2" transform="rotate(31.6075 273.0000 412.9468)"/>
  <line x1="256.7500" y1="382.9471" x2="256.7500" y2="362.9471" stroke="#8a06f6" stroke-width="1.0" />
  <rect
     style="fill:#ffffff;fill-opacity:1;fill-rule:nonzero;stroke:none"
     width="2"
     height="2"
     x="256.2500"
     y="371.9471"
     transform="rotate(-90.0000 256.7500 372.9471)" /> 
  <path
     style="fill:none;stroke:#8a06f6;stroke-width:1px;stroke-linecap:butt;stroke-linejoin:miter;stroke-opacity:1"
     d="m 256.7500,370.9471 2,2 -2,2 m -2.370121,-4 2,2 -2,2"
     transform="rotate(-90.0000 256.7500 372.9471)"/>
  <line x1="256.7500" y1="384.1971" x2="289.2500" y2="384.1971" stroke="#480079" stroke-width="1.0" />
  <line x1="256.7500" y1="381.6971" x2="289.2500" y2="381.6971" stroke="#480079" stroke-width="1.0" />
  <line x1="256.7500" y1="382.9471" x2="289.2500" y2="402.9468" stroke="#e99400" stroke-width="1.0" />
  <rect
     style="fill:#ffffff;stroke:none"
     width="5.5"
     height="2"
     x="270.2500"
     y="391.9470" 
     transform="rotate(31.6070 273.0000 392.9470)"    /> 
  <path
     style="fill:none;stroke:#e99400;stroke-width:1px;stroke-linecap:butt;stroke-linejoin:miter;stroke-opacity:1"
    d="m 273.7500,390.9470 2,2 -2,2 m -1.5,-4 -2,2 2,2" transform="rotate(31.6070 273.0000 392.9470)"/>
  <line x1="256.7500" y1="362.9471" x2="256.7500" y2="342.9477" stroke="#000000" stroke-width="1.0" />
  <rect
     style="fill:#ffffff;fill-opacity:1;fill-rule:nonzero;stroke:none"
     width="2"
     height="2"
     x="256.2500"
     y="351.9474"
     transform="rotate(270.0000 256.7500 352.9474)" /> 
  <path
     style="fill:none;stroke:#000000;stroke-width:1px;stroke-linecap:butt;stroke-linejoin:miter;stroke-opacity:1"
     d="m 256.7500,350.9474 2,2 -2,2 m -2.370121,-4 2,2 -2,2"
     transform="rotate(270.0000 256.7500 352.9474)"/>
  <line x1="256.7500" y1="361.3471" x2="289.2500" y2="361.3471" stroke="#8a06f6" stroke-width="1.0" />
  <line x1="256.7500" y1="344.1977" x2="289.2500" y2="344.1977" stroke="#000000" stroke-width="1.0" />
  <line x1="256.7500" y1="341.6977" x2="289.2500" y2="341.6977" stroke="#000000" stroke-width="1.0" />
  <line x1="256.7500" y1="322.9477" x2="256.7500" y2="302.9483" stroke="#bc2900" stroke-width="1.0" />
  <rect
     style="fill:#ffffff;fill-opacity:1;fill-rule:nonzero;stroke:none"
     width="2"
     height="2"
     x="256.2500"
     y="311.9480"
     transform="rotate(-90.0000 256.7500 312.9480)" /> 
  <path
     style="fill:none;stroke:#bc2900;stroke-width:1px;stroke-linecap:butt;stroke-linejoin:miter;stroke-opacity:1"
     d="m 256.7500,310.9480 2,2 -2,2 m -2.370121,-4 2,2 -2,2"
     transform="rotate(-90.0000 256.7500 312.9480)"/>
  <line x1="256.7500" y1="322.9477" x2="289.2500" y2="322.9477" stroke="#5800ac" stroke-width="1.0" />
  <line x1="256.7500" y1="322.9477" x2="289.2500" y2="342.9477" stroke="#000000" stroke-width="1.0" />
  <rect
     style="fill:#ffffff;stroke:none"
     width="5.5"
     height="2"
     x="270.2500"
     y="331.9477" 
     transform="rotate(31.6075 273.0000 332.9477)"    /> 
  <path
     style="fill:none;stroke:#000000;stroke-width:1px;stroke-linecap:butt;stroke-linejoin:miter;stroke-opacity:1"
    d="m 273.7500,330.9477 2,2 -2,2 m -1.5,-4 -2,2 2,2" transform="rotate(31.6075 273.0000 332.9477)"/>
  <line x1="256.7500" y1="302.9483" x2="256.7500" y2="282.9483" stroke="#8a06f6" stroke-width="1.0" />
  <rect
     style="fill:#ffffff;fill-opacity:1;fill-rule:nonzero;stroke:none"
     width="2"
     height="2"
     x="256.2500"
     y="291.9483"
     transform="rotate(270.0000 256.7500 292.9483)" /> 
  <path
     style="fill:none;stroke:#8a06f6;stroke-width:1px;stroke-linecap:butt;stroke-linejoin:miter;stroke-opacity:1"
     d="m 256.7500,290.9483 2,2 -2,2 m -2.370121,-4 2,2 -2,2"
     transform="rotate(270.0000 256.7500 292.9483)"/>
  <line x1="256.7500" y1="282.9483" x2="256.7500" y2="262.9489" stroke="#9309df" stroke-width="1.0" />
  <rect
     style="fill:#ffffff;fill-opacity:1;fill-rule:nonzero;stroke:none"
     width="2"
     height="2"
     x="256.2500"
     y="271.9486"
     transform="rotate(270.0000 256.7500 272.9486)" /> 
  <path
     style="fill:none;stroke:#9309df;stroke-width:1px;stroke-linecap:butt;stroke-linejoin:miter;stroke-opacity:1"
     d="m 256.7500,270.9486 2,2 -2,2 m -2.370121,-4 2,2 -2,2"
     transform="rotate(270.0000 256.7500 272.9486)"/>
  <line x1="256.7500" y1="242.9489" x2="256.7500" y2="222.9496" stroke="#000000" stroke-width="1.0" />
  <rect
     style="fill:#ffffff;fill-opacity:1;fill-rule:nonzero;stroke:none"
     width="2"
     height="2"
     x="256.2500"
     y="231.9493"
     transform="rotate(270.0000 256.7500 232.9493)" /> 
  <path
     style="fill:none;stroke:#000000;stroke-width:1px;stroke-linecap:butt;stroke-linejoin:miter;stroke-opacity:1"
     d="m 256.7500,230.9493 2,2 -2,2 m -2.370121,-4 2,2 -2,2"
     transform="rotate(270.0000 256.7500 232.9493)"/>
  <line x1="256.7500" y1="242.9489" x2="289.2500" y2="262.9489" stroke="#6801dc" stroke-width="1.0" />
  <rect
     style="fill:#ffffff;stroke:none"
     width="5.5"
     height="2"
     x="270.2500"
     y="251.9489" 
     transform="rotate(31.6075 273.0000 252.9489)"    /> 
  <path
     style="fill:none;stroke:#6801dc;stroke-width:1px;stroke-linecap:butt;stroke-linejoin:miter;stroke-opacity:1"
    d="m 273.7500,250.9489 2,2 -2,2 m -1.5,-4 -2,2 2,2" transform="rotate(31.6075 273.0000 252.9489)"/>
  <line x1="256.7500" y1="222.9496" x2="256.7500" y2="202.9496" stroke="#ac1845" stroke-width="1.0" />
  <rect
     style="fill:#ffffff;fill-opacity:1;fill-rule:nonzero;stroke:none"
     width="2"
     height="2"
     x="256.2500"
     y="211.9496"
     transform="rotate(270.0000 256.7500 212.9496)" /> 
  <path
     style="fill:none;stroke:#ac1845;stroke-width:1px;stroke-linecap:butt;stroke-linejoin:miter;stroke-opacity:1"
     d="m 256.7500,210.9496 2,2 -2,2 m -2.370121,-4 2,2 -2,2"
     transform="rotate(270.0000 256.7500 212.9496)"/>
  <line x1="256.7500" y1="222.5996" x2="289.2500" y2="222.5996" stroke="#6801dc" stroke-width="1.0" />
  <line x1="256.7500" y1="220.0996" x2="289.2500" y2="220.0996" stroke="#6801dc" stroke-width="1.0" />
  <line x1="256.7500" y1="202.9496" x2="256.7500" y2="182.9501" stroke="#8a06f6" stroke-width="1.0" />
  <rect
     style="fill:#ffffff;fill-opacity:1;fill-rule:nonzero;stroke:none"
     width="2"
     height="2"
     x="256.2500"
     y="191.9498"
     transform="rotate(-90.0000 256.7500 192.9498)" /> 
  <path
     style="fill:none;stroke:#8a06f6;stroke-width:1px;stroke-linecap:butt;stroke-linejoin:miter;stroke-opacity:1"
     d="m 256.7500,190.9498 2,2 -2,2 m -2.370121,-4 2,2 -2,2"
     transform="rotate(-90.0000 256.7500 192.9498)"/>
  <line x1="256.7500" y1="201.3496" x2="289.2500" y2="201.3496" stroke="#5800ac" stroke-width="1.0" />
  <line x1="256.7500" y1="202.9496" x2="289.2500" y2="222.9496" stroke="#e38000" stroke-width="1.0" />
  <rect
     style="fill:#ffffff;stroke:none"
     width="5.5"
     height="2"
     x="270.2500"
     y="211.9496" 
     transform="rotate(31.6075 273.0000 212.9496)"    /> 
  <path
     style="fill:none;stroke:#e38000;stroke-width:1px;stroke-linecap:butt;stroke-linejoin:miter;stroke-opacity:1"
    d="m 273.7500,210.9496 2,2 -2,2 m -1.5,-4 -2,2 2,2" transform="rotate(31.6075 273.0000 212.9496)"/>
  <line x1="256.7500" y1="182.9501" x2="256.7501" y2="162.9501" stroke="#5800ac" stroke-width="1.0" />
  <rect
     style="fill:#ffffff;fill-opacity:1;fill-rule:nonzero;stroke:none"
     width="2"
     height="2"
     x="256.2500"
     y="171.9501"
     transform="rotate(-89.9997 256.7500 172.9501)" /> 
  <path
     style="fill:none;stroke:#5800ac;stroke-width:1px;stroke-linecap:butt;stroke-linejoin:miter;stroke-opacity:1"
     d="m 256.7500,170.9501 2,2 -2,2 m -2.370121,-4 2,2 -2,2"
     transform="rotate(-89.9997 256.7500 172.9501)"/>
  <line x1="256.7500" y1="184.2001" x2="289.2500" y2="184.2001" stroke="#480079" stroke-width="1.0" />
  <line x1="256.7500" y1="181.7001" x2="289.2500" y2="181.7001" stroke="#480079" stroke-width="1.0" />
  <line x1="256.7501" y1="164.2001" x2="289.2499" y2="164.2001" stroke="#480079" stroke-width="1.0" />
  <line x1="256.7501" y1="161.7001" x2="289.2499" y2="161.7001" stroke="#480079" stroke-width="1.0" />
  <line x1="256.7501" y1="162.9501" x2="289.2500" y2="182.9501" stroke="#e38000" stroke-width="1.0" />
  <rect
     style="fill:#ffffff;stroke:none"
     width="5.5"
     height="2"
     x="270.2500"
     y="171.9501" 
     transform="rotate(31.6076 273.0000 172.9501)"    /> 
  <path
     style="fill:none;stroke:#e38000;stroke-width:1px;stroke-linecap:butt;stroke-linejoin:miter;stroke-opacity:1"
    d="m 273.7500,170.9501 2,2 -2,2 m -1.5,-4 -2,2 2,2" transform="rotate(31.6076 273.0000 172.9501)"/>
  <line x1="256.7496" y1="142.9505" x2="256.6925" y2="122.9506" stroke="#7e04ff" stroke-width="1.0" />
  <rect
     style="fill:#ffffff;fill-opacity:1;fill-rule:nonzero;stroke:none"
     width="2"
     height="2"
     x="256.2211"
     y="131.9505"
     transform="rotate(269.8363 256.7211 132.9505)" /> 
  <path
     style="fill:none;stroke:#7e04ff;stroke-width:1px;stroke-linecap:butt;stroke-linejoin:miter;stroke-opacity:1"
     d="m 256.7211,130.9505 2,2 -2,2 m -2.370121,-4 2,2 -2,2"
     transform="rotate(269.8363 256.7211 132.9505)"/>
  <line x1="256.7496" y1="144.2005" x2="289.2504" y2="144.2005" stroke="#480079" stroke-width="1.0" />
  <line x1="256.7496" y1="141.7005" x2="289.2504" y2="141.7005" stroke="#480079" stroke-width="1.0" />
  <line x1="256.7496" y1="142.9505" x2="289.2499" y2="162.9501" stroke="#000000" stroke-width="1.0" />
  <rect
     style="fill:#ffffff;stroke:none"
     width="5.5"
     height="2"
     x="270.2498"
     y="151.9503" 
     transform="rotate(31.6068 272.9998 152.9503)"    /> 
  <path
     style="fill:none;stroke:#000000;stroke-width:1px;stroke-linecap:butt;stroke-linejoin:miter;stroke-opacity:1"
    d="m 273.7498,150.9503 2,2 -2,2 m -1.5,-4 -2,2 2,2" transform="rotate(31.6068 272.9998 152.9503)"/>
  <line x1="256.6925" y1="122.9506" x2="256.7290" y2="102.9508" stroke="#ac1845" stroke-width="1.0" />
  <rect
     style="fill:#ffffff;fill-opacity:1;fill-rule:nonzero;stroke:none"
     width="2"
     height="2"
     x="256.2108"
     y="111.9507"
     transform="rotate(-89.8954 256.7108 112.9507)" /> 
  <path
     style="fill:none;stroke:#ac1845;stroke-width:1px;stroke-linecap:butt;stroke-linejoin:miter;stroke-opacity:1"
     d="m 256.7108,110.9507 2,2 -2,2 m -2.370121,-4 2,2 -2,2"
     transform="rotate(-89.8954 256.7108 112.9507)"/>
  <line x1="256.6925" y1="121.3506" x2="289.3075" y2="121.3506" stroke="#6801dc" stroke-width="1.0" />
  <line x1="256.7290" y1="102.9508" x2="263.0189" y2="83.9782" stroke="#a5137f" stroke-width="1.0" />
  <rect
     style="fill:#ffffff;fill-opacity:1;fill-rule:nonzero;stroke:none"
     width="2"
     height="2"
     x="259.3740"
     y="92.4645"
     transform="rotate(-71.6584 259.8740 93.4645)" /> 
  <path
     style="fill:none;stroke:#a5137f;stroke-width:1px;stroke-linecap:butt;stroke-linejoin:miter;stroke-opacity:1"
     d="m 259.8740,91.4645 2,2 -2,2 m -2.370121,-4 2,2 -2,2"
     transform="rotate(-71.6584 259.8740 93.4645)"/>
  <line x1="256.7290" y1="104.2008" x2="289.2710" y2="104.2008" stroke="#000000" stroke-width="1.0" />
  <line x1="256.7290" y1="101.7008" x2="289.2710" y2="101.7008" stroke="#000000" stroke-width="1.0" />
  <line x1="256.7290" y1="102.9508" x2="289.3075" y2="122.9506" stroke="#eeaa00" stroke-width="1.0" />
  <rect
     style="fill:#ffffff;stroke:none"
     width="5.5"
     height="2"
     x="270.2683"
     y="111.9507" 
     transform="rotate(31.5455 273.0183 112.9507)"    /> 
  <path
     style="fill:none;stroke:#eeaa00;stroke-width:1px;stroke-linecap:butt;stroke-linejoin:miter;stroke-opacity:1"
    d="m 273.7683,110.9507 2,2 -2,2 m -1.5,-4 -2,2 2,2" transform="rotate(31.5455 273.0183 112.9507)"/>
  <line x1="263.0189" y1="83.6282" x2="282.9811" y2="83.6282" stroke="#6801dc" stroke-width="1.0" />
  <line x1="263.0189" y1="81.1282" x2="282.9811" y2="81.1282" stroke="#6801dc" stroke-width="1.0" />
  <line x1="263.0189" y1="83.9782" x2="289.2710" y2="102.9508" stroke="#e38000" stroke-width="1.0" />
  <rect
     style="fill:#ffffff;stroke:none"
     width="5.5"
     height="2"
     x="273.3949"
     y="92.4645" 
     transform="rotate(35.8561 276.1449 93.4645)"    /> 
  <path
     style="fill:none;stroke:#e38000;stroke-width:1px;stroke-linecap:butt;stroke-linejoin:miter;stroke-opacity:1"
    d="m 276.8949,91.4645 2,2 -2,2 m -1.5,-4 -2,2 2,2" transform="rotate(35.8561 276.1449 93.4645)"/>
  <line x1="282.9811" y1="83.9782" x2="289.2710" y2="102.9508" stroke="#a5137f" stroke-width="1.0" />
  <rect
     style="fill:#ffffff;fill-opacity:1;fill-rule:nonzero;stroke:none"
     width="2"
     height="2"
     x="285.6260"
     y="92.4645"
     transform="rotate(71.6584 286.1260 93.4645)" /> 
  <path
     style="fill:none;stroke:#a5137f;stroke-width:1px;stroke-linecap:butt;stroke-linejoin:miter;stroke-opacity:1"
     d="m 286.1260,91.4645 2,2 -2,2 m -2.370121,-4 2,2 -2,2"
     transform="rotate(71.6584 286.1260 93.4645)"/>
  <line x1="289.2710" y1="102.9508" x2="289.3075" y2="122.9506" stroke="#7302f5" stroke-width="1.0" />
  <rect
     style="fill:#ffffff;fill-opacity:1;fill-rule:nonzero;stroke:none"
     width="2"
     height="2"
     x="288.7892"
     y="111.9507"
     transform="rotate(89.8954 289.2892 112.9507)" /> 
  <path
     style="fill:none;stroke:#7302f5;stroke-width:1px;stroke-linecap:butt;stroke-linejoin:miter;stroke-opacity:1"
     d="m 289.2892,110.9507 2,2 -2,2 m -2.370121,-4 2,2 -2,2"
     transform="rotate(89.8954 289.2892 112.9507)"/>
  <line x1="289.3075" y1="122.9506" x2="289.2504" y2="142.9505" stroke="#7302f5" stroke-width="1.0" />
  <rect
     style="fill:#ffffff;fill-opacity:1;fill-rule:nonzero;stroke:none"
     width="2"
     height="2"
     x="288.7789"
     y="131.9505"
     transform="rotate(90.1637 289.2789 132.9505)" /> 
  <path
     style="fill:none;stroke:#7302f5;stroke-width:1px;stroke-linecap:butt;stroke-linejoin:miter;stroke-opacity:1"
     d="m 289.2789,130.9505 2,2 -2,2 m -2.370121,-4 2,2 -2,2"
     transform="rotate(90.1637 289.2789 132.9505)"/>
  <line x1="289.2499" y1="162.9501" x2="289.2500" y2="182.9501" stroke="#e38000" stroke-width="1.0" />
  <rect
     style="fill:#ffffff;fill-opacity:1;fill-rule:nonzero;stroke:none"
     width="2"
     height="2"
     x="288.7500"
     y="171.9501"
     transform="rotate(89.9997 289.2500 172.9501)" /> 
  <path
     style="fill:none;stroke:#e38000;stroke-width:1px;stroke-linecap:butt;stroke-linejoin:miter;stroke-opacity:1"
     d="m 289.2500,170.9501 2,2 -2,2 m -2.370121,-4 2,2 -2,2"
     transform="rotate(89.9997 289.2500 172.9501)"/>
  <line x1="289.2500" y1="182.9501" x2="289.2500" y2="202.9496" stroke="#7e04ff" stroke-width="1.0" />
  <rect
     style="fill:#ffffff;fill-opacity:1;fill-rule:nonzero;stroke:none"
     width="2"
     height="2"
     x="288.7500"
     y="191.9498"
     transform="rotate(90.0000 289.2500 192.9498)" /> 
  <path
     style="fill:none;stroke:#7e04ff;stroke-width:1px;stroke-linecap:butt;stroke-linejoin:miter;stroke-opacity:1"
     d="m 289.2500,190.9498 2,2 -2,2 m -2.370121,-4 2,2 -2,2"
     transform="rotate(90.0000 289.2500 192.9498)"/>
  <line x1="289.2500" y1="202.9496" x2="289.2500" y2="222.9496" stroke="#a5137f" stroke-width="1.0" />
  <rect
     style="fill:#ffffff;fill-opacity:1;fill-rule:nonzero;stroke:none"
     width="2"
     height="2"
     x="288.7500"
     y="211.9496"
     transform="rotate(90.0000 289.2500 212.9496)" /> 
  <path
     style="fill:none;stroke:#a5137f;stroke-width:1px;stroke-linecap:butt;stroke-linejoin:miter;stroke-opacity:1"
     d="m 289.2500,210.9496 2,2 -2,2 m -2.370121,-4 2,2 -2,2"
     transform="rotate(90.0000 289.2500 212.9496)"/>
  <line x1="289.2500" y1="222.9496" x2="289.2500" y2="242.9489" stroke="#000000" stroke-width="1.0" />
  <rect
     style="fill:#ffffff;fill-opacity:1;fill-rule:nonzero;stroke:none"
     width="2"
     height="2"
     x="288.7500"
     y="231.9493"
     transform="rotate(90.0000 289.2500 232.9493)" /> 
  <path
     style="fill:none;stroke:#000000;stroke-width:1px;stroke-linecap:butt;stroke-linejoin:miter;stroke-opacity:1"
     d="m 289.2500,230.9493 2,2 -2,2 m -2.370121,-4 2,2 -2,2"
     transform="rotate(90.0000 289.2500 232.9493)"/>
  <line x1="289.2500" y1="282.9483" x2="289.2500" y2="302.9483" stroke="#9b0dba" stroke-width="1.0" />
  <rect
     style="fill:#ffffff;fill-opacity:1;fill-rule:nonzero;stroke:none"
     width="2"
     height="2"
     x="288.7500"
     y="291.9483"
     transform="rotate(90.0000 289.2500 292.9483)" /> 
  <path
     style="fill:none;stroke:#9b0dba;stroke-width:1px;stroke-linecap:butt;stroke-linejoin:miter;stroke-opacity:1"
     d="m 289.2500,290.9483 2,2 -2,2 m -2.370121,-4 2,2 -2,2"
     transform="rotate(90.0000 289.2500 292.9483)"/>
  <line x1="289.2500" y1="302.9483" x2="289.2500" y2="322.9477" stroke="#a5137f" stroke-width="1.0" />
  <rect
     style="fill:#ffffff;fill-opacity:1;fill-rule:nonzero;stroke:none"
     width="2"
     height="2"
     x="288.7500"
     y="311.9480"
     transform="rotate(90.0000 289.2500 312.9480)" /> 
  <path
     style="fill:none;stroke:#a5137f;stroke-width:1px;stroke-linecap:butt;stroke-linejoin:miter;stroke-opacity:1"
     d="m 289.2500,310.9480 2,2 -2,2 m -2.370121,-4 2,2 -2,2"
     transform="rotate(90.0000 289.2500 312.9480)"/>
  <line x1="289.2500" y1="342.9477" x2="289.2500" y2="362.9471" stroke="#000000" stroke-width="1.0" />
  <rect
     style="fill:#ffffff;fill-opacity:1;fill-rule:nonzero;stroke:none"
     width="2"
     height="2"
     x="288.7500"
     y="351.9474"
     transform="rotate(90.0000 289.2500 352.9474)" /> 
  <path
     style="fill:none;stroke:#000000;stroke-width:1px;stroke-linecap:butt;stroke-linejoin:miter;stroke-opacity:1"
     d="m 289.2500,350.9474 2,2 -2,2 m -2.370121,-4 2,2 -2,2"
     transform="rotate(90.0000 289.2500 352.9474)"/>
  <line x1="289.2500" y1="362.9471" x2="289.2500" y2="382.9471" stroke="#9b0dba" stroke-width="1.0" />
  <rect
     style="fill:#ffffff;fill-opacity:1;fill-rule:nonzero;stroke:none"
     width="2"
     height="2"
     x="288.7500"
     y="371.9471"
     transform="rotate(90.0000 289.2500 372.9471)" /> 
  <path
     style="fill:none;stroke:#9b0dba;stroke-width:1px;stroke-linecap:butt;stroke-linejoin:miter;stroke-opacity:1"
     d="m 289.2500,370.9471 2,2 -2,2 m -2.370121,-4 2,2 -2,2"
     transform="rotate(90.0000 289.2500 372.9471)"/>
  <line x1="289.2500" y1="382.9471" x2="289.2500" y2="402.9468" stroke="#7e04ff" stroke-width="1.0" />
  <rect
     style="fill:#ffffff;fill-opacity:1;fill-rule:nonzero;stroke:none"
     width="2"
     height="2"
     x="288.7500"
     y="391.9470"
     transform="rotate(90.0000 289.2500 392.9470)" /> 
  <path
     style="fill:none;stroke:#7e04ff;stroke-width:1px;stroke-linecap:butt;stroke-linejoin:miter;stroke-opacity:1"
     d="m 289.2500,390.9470 2,2 -2,2 m -2.370121,-4 2,2 -2,2"
     transform="rotate(90.0000 289.2500 392.9470)"/>
  <line x1="289.2500" y1="422.9468" x2="289.2500" y2="442.9466" stroke="#8a06f6" stroke-width="1.0" />
  <rect
     style="fill:#ffffff;fill-opacity:1;fill-rule:nonzero;stroke:none"
     width="2"
     height="2"
     x="288.7500"
     y="431.9467"
     transform="rotate(90.0000 289.2500 432.9467)" /> 
  <path
     style="fill:none;stroke:#8a06f6;stroke-width:1px;stroke-linecap:butt;stroke-linejoin:miter;stroke-opacity:1"
     d="m 289.2500,430.9467 2,2 -2,2 m -2.370121,-4 2,2 -2,2"
     transform="rotate(90.0000 289.2500 432.9467)"/>
  <line x1="289.2500" y1="442.9466" x2="289.2500" y2="462.9466" stroke="#5800ac" stroke-width="1.0" />
  <rect
     style="fill:#ffffff;fill-opacity:1;fill-rule:nonzero;stroke:none"
     width="2"
     height="2"
     x="288.7500"
     y="451.9466"
     transform="rotate(90.0000 289.2500 452.9466)" /> 
  <path
     style="fill:none;stroke:#5800ac;stroke-width:1px;stroke-linecap:butt;stroke-linejoin:miter;stroke-opacity:1"
     d="m 289.2500,450.9466 2,2 -2,2 m -2.370121,-4 2,2 -2,2"
     transform="rotate(90.0000 289.2500 452.9466)"/>
<circle cx="256.7500" cy="462.9466" r="5.0" stroke="#595959" stroke-width="1.0" fill="#ffffff"/>
<text x="256.7500" y="465.6466" text-anchor="middle" font-family="Helvetica" font-size="7.5" fill="#000000" >A</text>
<circle cx="256.7500" cy="442.9466" r="5.0" stroke="#595959" stroke-width="1.0" fill="#ffffff"/>
<text x="256.7500" y="445.6466" text-anchor="middle" font-family="Helvetica" font-size="7.5" fill="#000000" >C</text>
<circle cx="256.7500" cy="422.9468" r="5.0" stroke="#595959" stroke-width="1.0" fill="#ffffff"/>
<text x="256.7500" y="425.6468" text-anchor="middle" font-family="Helvetica" font-size="7.5" fill="#000000" >U</text>
<circle cx="256.7500" cy="402.9468" r="5.0" stroke="#595959" stroke-width="1.0" fill="#ffffff"/>
<text x="256.7500" y="405.6468" text-anchor="middle" font-family="Helvetica" font-size="7.5" fill="#000000" >G</text>
<circle cx="256.7500" cy="382.9471" r="5.0" stroke="#595959" stroke-width="1.0" fill="#ffffff"/>
<text x="256.7500" y="385.6471" text-anchor="middle" font-family="Helvetica" font-size="7.5" fill="#000000" >G</text>
<circle cx="256.7500" cy="362.9471" r="5.0" stroke="#595959" stroke-width="1.0" fill="#ffffff"/>
<text x="256.7500" y="365.6471" text-anchor="middle" font-family="Helvetica" font-size="7.5" fill="#000000" >A</text>
<circle cx="256.7500" cy="342.9477" r="5.0" stroke="#595959" stroke-width="1.0" fill="#ffffff"/>
<text x="256.7500" y="345.6477" text-anchor="middle" font-family="Helvetica" font-size="7.5" fill="#000000" >C</text>
<circle cx="256.7500" cy="322.9477" r="5.0" stroke="#595959" stroke-width="1.0" fill="#ffffff"/>
<text x="256.7500" y="325.6477" text-anchor="middle" font-family="Helvetica" font-size="7.5" fill="#000000" >A</text>
<circle cx="256.7500" cy="302.9483" r="5.0" stroke="#595959" stroke-width="1.0" fill="#ffffff"/>
<text x="256.7500" y="305.6483" text-anchor="middle" font-family="Helvetica" font-size="7.5" fill="#000000" >I</text>
<circle cx="256.7500" cy="282.9483" r="5.0" stroke="#595959" stroke-width="1.0" fill="orange"/>
<text x="256.7500" y="285.6483" text-anchor="middle" font-family="Helvetica" font-size="7.5" fill="#000000" >I</text>
<circle cx="256.7500" cy="262.9489" r="5.0" stroke="#595959" stroke-width="1.0" fill="orange"/>
<text x="256.7500" y="265.6489" text-anchor="middle" font-family="Helvetica" font-size="7.5" fill="#000000" >U</text>
<circle cx="256.7500" cy="242.9489" r="5.0" stroke="#595959" stroke-width="1.0" fill="#ffffff"/>
<text x="256.7500" y="245.6489" text-anchor="middle" font-family="Helvetica" font-size="7.5" fill="#000000" >I</text>
<circle cx="256.7500" cy="222.9496" r="5.0" stroke="#595959" stroke-width="1.0" fill="#ffffff"/>
<text x="256.7500" y="225.6496" text-anchor="middle" font-family="Helvetica" font-size="7.5" fill="#000000" >C</text>
<circle cx="256.7500" cy="202.9496" r="5.0" stroke="#595959" stroke-width="1.0" fill="#ffffff"/>
<text x="256.7500" y="205.6496" text-anchor="middle" font-family="Helvetica" font-size="7.5" fill="#000000" >U</text>
<circle cx="256.7500" cy="182.9501" r="5.0" stroke="#595959" stroke-width="1.0" fill="#ffffff"/>
<text x="256.7500" y="185.6501" text-anchor="middle" font-family="Helvetica" font-size="7.5" fill="#000000" >C</text>
<circle cx="256.7501" cy="162.9501" r="5.0" stroke="#595959" stroke-width="1.0" fill="#ffffff"/>
<text x="256.7501" y="165.6501" text-anchor="middle" font-family="Helvetica" font-size="7.5" fill="#000000" >C</text>
<circle cx="256.7496" cy="142.9505" r="5.0" stroke="#595959" stroke-width="1.0" fill="#ffffff"/>
<text x="256.7496" y="145.6505" text-anchor="middle" font-family="Helvetica" font-size="7.5" fill="#000000" >G</text>
<circle cx="256.6925" cy="122.9506" r="5.0" stroke="#595959" stroke-width="1.0" fill="#ffffff"/>
<text x="256.6925" y="125.6506" text-anchor="middle" font-family="Helvetica" font-size="7.5" fill="#000000" >A</text>
<circle cx="256.7290" cy="102.9508" r="5.0" stroke="#595959" stroke-width="1.0" fill="#ffffff"/>
<text x="256.7290" y="105.6508" text-anchor="middle" font-family="Helvetica" font-size="7.5" fill="#000000" >G</text>
<circle cx="263.0189" cy="83.9782" r="5.0" stroke="#595959" stroke-width="1.0" fill="#ffffff"/>
<text x="263.0189" y="86.6782" text-anchor="middle" font-family="Helvetica" font-size="7.5" fill="#000000" >G</text>
<circle cx="282.9811" cy="83.9782" r="5.0" stroke="#595959" stroke-width="1.0" fill="#ffffff"/>
<text x="282.9811" y="86.6782" text-anchor="middle" font-family="Helvetica" font-size="7.5" fill="#000000" >C</text>
<circle cx="289.2710" cy="102.9508" r="5.0" stroke="#595959" stroke-width="1.0" fill="#ffffff"/>
<text x="289.2710" y="105.6508" text-anchor="middle" font-family="Helvetica" font-size="7.5" fill="#000000" >C</text>
<circle cx="289.3075" cy="122.9506" r="5.0" stroke="#595959" stroke-width="1.0" fill="#ffffff"/>
<text x="289.3075" y="125.6506" text-anchor="middle" font-family="Helvetica" font-size="7.5" fill="#000000" >U</text>
<circle cx="289.2504" cy="142.9505" r="5.0" stroke="#595959" stroke-width="1.0" fill="#ffffff"/>
<text x="289.2504" y="145.6505" text-anchor="middle" font-family="Helvetica" font-size="7.5" fill="#000000" >C</text>
<circle cx="289.2499" cy="162.9501" r="5.0" stroke="#595959" stroke-width="1.0" fill="#ffffff"/>
<text x="289.2499" y="165.6501" text-anchor="middle" font-family="Helvetica" font-size="7.5" fill="#000000" >G</text>
<circle cx="289.2500" cy="182.9501" r="5.0" stroke="#595959" stroke-width="1.0" fill="#ffffff"/>
<text x="289.2500" y="185.6501" text-anchor="middle" font-family="Helvetica" font-size="7.5" fill="#000000" >G</text>
<circle cx="289.2500" cy="202.9496" r="5.0" stroke="#595959" stroke-width="1.0" fill="#ffffff"/>
<text x="289.2500" y="205.6496" text-anchor="middle" font-family="Helvetica" font-size="7.5" fill="#000000" >A</text>
<circle cx="289.2500" cy="222.9496" r="5.0" stroke="#595959" stroke-width="1.0" fill="#ffffff"/>
<text x="289.2500" y="225.6496" text-anchor="middle" font-family="Helvetica" font-size="7.5" fill="#000000" >G</text>
<circle cx="289.2500" cy="242.9489" r="5.0" stroke="#595959" stroke-width="1.0" fill="#ffffff"/>
<text x="289.2500" y="245.6489" text-anchor="middle" font-family="Helvetica" font-size="7.5" fill="#000000" >U</text>
<circle cx="289.2500" cy="262.9489" r="5.0" stroke="#595959" stroke-width="1.0" fill="orange"/>
<text x="289.2500" y="265.6489" text-anchor="middle" font-family="Helvetica" font-size="7.5" fill="#000000" >I</text>
<circle cx="289.2500" cy="282.9483" r="5.0" stroke="#595959" stroke-width="1.0" fill="#ffffff"/>
<text x="289.2500" y="285.6483" text-anchor="middle" font-family="Helvetica" font-size="7.5" fill="#000000" >U</text>
<circle cx="289.2500" cy="302.9483" r="5.0" stroke="#595959" stroke-width="1.0" fill="#ffffff"/>
<text x="289.2500" y="305.6483" text-anchor="middle" font-family="Helvetica" font-size="7.5" fill="#000000" >U</text>
<circle cx="289.2500" cy="322.9477" r="5.0" stroke="#595959" stroke-width="1.0" fill="#ffffff"/>
<text x="289.2500" y="325.6477" text-anchor="middle" font-family="Helvetica" font-size="7.5" fill="#000000" >U</text>
<circle cx="289.2500" cy="342.9477" r="5.0" stroke="#595959" stroke-width="1.0" fill="#ffffff"/>
<text x="289.2500" y="345.6477" text-anchor="middle" font-family="Helvetica" font-size="7.5" fill="#000000" >G</text>
<circle cx="289.2500" cy="362.9471" r="5.0" stroke="#595959" stroke-width="1.0" fill="#ffffff"/>
<text x="289.2500" y="365.6471" text-anchor="middle" font-family="Helvetica" font-size="7.5" fill="#000000" >U</text>
<circle cx="289.2500" cy="382.9471" r="5.0" stroke="#595959" stroke-width="1.0" fill="#ffffff"/>
<text x="289.2500" y="385.6471" text-anchor="middle" font-family="Helvetica" font-size="7.5" fill="#000000" >C</text>
<circle cx="289.2500" cy="402.9468" r="5.0" stroke="#595959" stroke-width="1.0" fill="#ffffff"/>
<text x="289.2500" y="405.6468" text-anchor="middle" font-family="Helvetica" font-size="7.5" fill="#000000" >C</text>
<circle cx="289.2500" cy="422.9468" r="5.0" stroke="#595959" stroke-width="1.0" fill="#ffffff"/>
<text x="289.2500" y="425.6468" text-anchor="middle" font-family="Helvetica" font-size="7.5" fill="#000000" >A</text>
<circle cx="289.2500" cy="442.9466" r="5.0" stroke="#595959" stroke-width="1.0" fill="#ffffff"/>
<text x="289.2500" y="445.6466" text-anchor="middle" font-family="Helvetica" font-size="7.5" fill="#000000" >G</text>
<circle cx="289.2500" cy="462.9466" r="5.0" stroke="#595959" stroke-width="1.0" fill="#ffffff"/>
<text x="289.2500" y="465.6466" text-anchor="middle" font-family="Helvetica" font-size="7.5" fill="#000000" >U</text>
</svg>
