<?xml version="1.0" encoding="UTF-8"?>
<!DOCTYPE svg PUBLIC "-//W3C//DTD SVG 1.1//EN" 
"http://www.w3.org/Graphics/SVG/1.1/DTD/svg11.dtd">

<svg version="1.1"
   width="546px"
   height="546px"
xmlns="http://www.w3.org/2000/svg">
    <rect width="100%" height="100%" fill="white"/>

  <line x1="256.4058" y1="422.1464" x2="256.4638" y2="402.1919" stroke="#595959"
     style="stroke-width:2;stroke-miterlimit:4;stroke-dasharray:1,1;stroke-dashoffset:0" />
  <line x1="256.6095" y1="342.4093" x2="256.6375" y2="322.5035" stroke="#595959"
     style="stroke-width:2;stroke-miterlimit:4;stroke-dasharray:1,1;stroke-dashoffset:0" />
  <line x1="256.7359" y1="262.8248" x2="256.7663" y2="242.9457" stroke="#595959"
     style="stroke-width:2;stroke-miterlimit:4;stroke-dasharray:1,1;stroke-dashoffset:0" />
  <line x1="256.9829" y1="163.6647" x2="257.0087" y2="143.9051" stroke="#595959"
     style="stroke-width:2;stroke-miterlimit:4;stroke-dasharray:1,1;stroke-dashoffset:0" />
  <line x1="289.5077" y1="143.7366" x2="289.4828" y2="163.5576" stroke="#595959"
     style="stroke-width:2;stroke-miterlimit:4;stroke-dasharray:1,1;stroke-dashoffset:0" />
  <line x1="289.2663" y1="242.9410" x2="289.2489" y2="262.8165" stroke="#595959"
     style="stroke-width:2;stroke-miterlimit:4;stroke-dasharray:1,1;stroke-dashoffset:0" />
  <line x1="289.1655" y1="322.4900" x2="289.1096" y2="342.3978" stroke="#595959"
     style="stroke-width:2;stroke-miterlimit:4;stroke-dasharray:1,1;stroke-dashoffset:0" />
  <line x1="288.9638" y1="402.1896" x2="288.9200" y2="422.1467" stroke="#595959"
     style="stroke-width:2;stroke-miterlimit:4;stroke-dasharray:1,1;stroke-dashoffset:0" />
  <line x1="256.3089" y1="463.7005" x2="288.8135" y2="463.7034" stroke="#da6400" stroke-width="1.0" />
  <circle cx="272.5612" cy="463.7020" r="2.25" stroke="#da6400" stroke-width="1.0" fill="#da6400"/>
  <line x1="256.4058" y1="423.7464" x2="288.9200" y2="423.7467" stroke="#efaf00" stroke-width="1.0" />
  <circle cx="272.6629" cy="423.7465" r="2.25" stroke="#efaf00" stroke-width="1.0" fill="#efaf00"/>
  <line x1="256.5577" y1="363.9246" x2="289.0698" y2="363.9161" stroke="#eb9d00" stroke-width="1.0" />
  <circle cx="272.8137" cy="363.9204" r="2.25" stroke="#eb9d00" stroke-width="1.0" fill="#eb9d00"/>
  <line x1="256.6382" y1="324.1035" x2="289.1662" y2="324.0900" stroke="#f2b800" stroke-width="1.0" />
  <circle cx="272.9022" cy="324.0968" r="2.25" stroke="#f2b800" stroke-width="1.0" fill="#f2b800"/>
  <line x1="256.6869" y1="302.6051" x2="289.1893" y2="302.5912" stroke="#bf2d00" stroke-width="1.0" />
  <circle cx="272.9381" cy="302.5981" r="2.25" stroke="#bf2d00" stroke-width="1.0" fill="#bf2d00"/>
  <line x1="256.7061" y1="281.1122" x2="289.2299" y2="281.1002" stroke="#d75b00" stroke-width="1.0" />
  <circle cx="272.9680" cy="281.1062" r="2.25" stroke="#d75b00" stroke-width="1.0" fill="#d75b00"/>
  <line x1="256.7072" y1="284.3122" x2="289.2310" y2="284.3002" stroke="#e89000" stroke-width="1.0" />
  <circle cx="272.9691" cy="284.3062" r="2.25" stroke="#e89000" stroke-width="1.0" fill="#e89000"/>
  <line x1="256.7355" y1="261.2248" x2="289.2485" y2="261.2165" stroke="#eca100" stroke-width="1.0" />
  <circle cx="272.9920" cy="261.2206" r="2.25" stroke="#eca100" stroke-width="1.0" fill="#eca100"/>
  <line x1="256.7363" y1="264.4248" x2="289.2493" y2="264.4165" stroke="#e07500" stroke-width="1.0" />
  <circle cx="272.9928" cy="264.4206" r="2.25" stroke="#e07500" stroke-width="1.0" fill="#e07500"/>
  <line x1="256.7359" y1="262.8248" x2="289.2304" y2="282.7002" stroke="#e68800" stroke-width="1.0" />
  <circle cx="272.9832" cy="272.7625" r="2.25" stroke="#e68800" stroke-width="1.0" fill="#e68800"/>
  <line x1="256.7663" y1="242.9457" x2="289.2663" y2="242.9410" stroke="#a81568" stroke-width="1.0" />
  <circle cx="273.0163" cy="242.9433" r="2.25" stroke="#a81568" stroke-width="1.0" fill="#a81568"/>
  <line x1="256.8311" y1="204.8387" x2="289.3984" y2="204.8280" stroke="#efaf00" stroke-width="1.0" />
  <circle cx="273.1148" cy="204.8333" r="2.25" stroke="#efaf00" stroke-width="1.0" fill="#efaf00"/>
  <line x1="256.3091" y1="462.1005" x2="256.3620" y2="442.1159" stroke="#33003e" stroke-width="1.0" />
  <rect
     style="fill:#ffffff;fill-opacity:1;fill-rule:nonzero;stroke:none"
     width="2"
     height="2"
     x="255.8356"
     y="451.1082"
     transform="rotate(-89.8481 256.3356 452.1082)" /> 
  <path
     style="fill:none;stroke:#33003e;stroke-width:1px;stroke-linecap:butt;stroke-linejoin:miter;stroke-opacity:1"
     d="m 256.3356,450.1082 2,2 -2,2 m -2.370121,-4 2,2 -2,2"
     transform="rotate(-89.8481 256.3356 452.1082)"/>
  <line x1="256.3092" y1="460.5005" x2="288.8138" y2="460.5034" stroke="#af1b2c" stroke-width="1.0" />
  <line x1="256.3620" y1="442.1159" x2="256.4058" y2="422.1464" stroke="#7e04ff" stroke-width="1.0" />
  <rect
     style="fill:#ffffff;fill-opacity:1;fill-rule:nonzero;stroke:none"
     width="2"
     height="2"
     x="255.8839"
     y="431.1311"
     transform="rotate(-89.8745 256.3839 432.1311)" /> 
  <path
     style="fill:none;stroke:#7e04ff;stroke-width:1px;stroke-linecap:butt;stroke-linejoin:miter;stroke-opacity:1"
     d="m 256.3839,430.1311 2,2 -2,2 m -2.370121,-4 2,2 -2,2"
     transform="rotate(-89.8745 256.3839 432.1311)"/>
  <line x1="256.3620" y1="443.3659" x2="288.8621" y2="443.3679" stroke="#33003e" stroke-width="1.0" />
  <line x1="256.3621" y1="440.8659" x2="288.8622" y2="440.8679" stroke="#33003e" stroke-width="1.0" />
  <line x1="256.4058" y1="420.5464" x2="288.9200" y2="420.5467" stroke="#5b01b5" stroke-width="1.0" />
  <line x1="256.4638" y1="402.1919" x2="256.5142" y2="382.2516" stroke="#c33200" stroke-width="1.0" />
  <rect
     style="fill:#ffffff;fill-opacity:1;fill-rule:nonzero;stroke:none"
     width="2"
     height="2"
     x="255.9890"
     y="391.2217"
     transform="rotate(-89.8550 256.4890 392.2217)" /> 
  <path
     style="fill:none;stroke:#c33200;stroke-width:1px;stroke-linecap:butt;stroke-linejoin:miter;stroke-opacity:1"
     d="m 256.4890,390.2217 2,2 -2,2 m -2.370121,-4 2,2 -2,2"
     transform="rotate(-89.8550 256.4890 392.2217)"/>
  <line x1="256.4638" y1="403.4419" x2="288.9639" y2="403.4396" stroke="#200019" stroke-width="1.0" />
  <line x1="256.4637" y1="400.9419" x2="288.9637" y2="400.9396" stroke="#200019" stroke-width="1.0" />
  <line x1="256.4638" y1="402.1919" x2="288.9200" y2="422.1467" stroke="#17000d" stroke-width="1.0" />
  <rect
     style="fill:#ffffff;stroke:none"
     width="5.5"
     height="2"
     x="269.9419"
     y="411.1693" 
     transform="rotate(31.5841 272.6919 412.1693)"    /> 
  <path
     style="fill:none;stroke:#17000d;stroke-width:1px;stroke-linecap:butt;stroke-linejoin:miter;stroke-opacity:1"
    d="m 273.4419,410.1693 2,2 -2,2 m -1.5,-4 -2,2 2,2" transform="rotate(31.5841 272.6919 412.1693)"/>
  <line x1="256.5142" y1="382.2516" x2="256.5573" y2="362.3246" stroke="#a31289" stroke-width="1.0" />
  <rect
     style="fill:#ffffff;fill-opacity:1;fill-rule:nonzero;stroke:none"
     width="2"
     height="2"
     x="256.0357"
     y="371.2881"
     transform="rotate(-89.8763 256.5357 372.2881)" /> 
  <path
     style="fill:none;stroke:#a31289;stroke-width:1px;stroke-linecap:butt;stroke-linejoin:miter;stroke-opacity:1"
     d="m 256.5357,370.2881 2,2 -2,2 m -2.370121,-4 2,2 -2,2"
     transform="rotate(-89.8763 256.5357 372.2881)"/>
  <line x1="256.5144" y1="383.5016" x2="289.0145" y2="383.4964" stroke="#44006e" stroke-width="1.0" />
  <line x1="256.5140" y1="381.0016" x2="289.0141" y2="380.9964" stroke="#44006e" stroke-width="1.0" />
  <line x1="256.5142" y1="382.2516" x2="288.9638" y2="402.1896" stroke="#f3bd00" stroke-width="1.0" />
  <rect
     style="fill:#ffffff;stroke:none"
     width="5.5"
     height="2"
     x="269.9890"
     y="391.2206" 
     transform="rotate(31.5678 272.7390 392.2206)"    /> 
  <path
     style="fill:none;stroke:#f3bd00;stroke-width:1px;stroke-linecap:butt;stroke-linejoin:miter;stroke-opacity:1"
    d="m 273.4890,390.2206 2,2 -2,2 m -1.5,-4 -2,2 2,2" transform="rotate(31.5678 272.7390 392.2206)"/>
  <line x1="256.5573" y1="362.3246" x2="256.6095" y2="342.4093" stroke="#000000" stroke-width="1.0" />
  <rect
     style="fill:#ffffff;fill-opacity:1;fill-rule:nonzero;stroke:none"
     width="2"
     height="2"
     x="256.0834"
     y="351.3670"
     transform="rotate(-89.8496 256.5834 352.3670)" /> 
  <path
     style="fill:none;stroke:#000000;stroke-width:1px;stroke-linecap:butt;stroke-linejoin:miter;stroke-opacity:1"
     d="m 256.5834,350.3670 2,2 -2,2 m -2.370121,-4 2,2 -2,2"
     transform="rotate(-89.8496 256.5834 352.3670)"/>
  <line x1="256.5568" y1="360.7246" x2="289.0689" y2="360.7161" stroke="#6801dc" stroke-width="1.0" />
  <line x1="256.6100" y1="343.6593" x2="289.1101" y2="343.6478" stroke="#400062" stroke-width="1.0" />
  <line x1="256.6091" y1="341.1593" x2="289.1092" y2="341.1478" stroke="#400062" stroke-width="1.0" />
  <line x1="256.6375" y1="322.5035" x2="256.6869" y2="302.6051" stroke="#d24f00" stroke-width="1.0" />
  <rect
     style="fill:#ffffff;fill-opacity:1;fill-rule:nonzero;stroke:none"
     width="2"
     height="2"
     x="256.1622"
     y="311.5543"
     transform="rotate(-89.8578 256.6622 312.5543)" /> 
  <path
     style="fill:none;stroke:#d24f00;stroke-width:1px;stroke-linecap:butt;stroke-linejoin:miter;stroke-opacity:1"
     d="m 256.6622,310.5543 2,2 -2,2 m -2.370121,-4 2,2 -2,2"
     transform="rotate(-89.8578 256.6622 312.5543)"/>
  <line x1="256.6368" y1="320.9035" x2="289.1648" y2="320.8900" stroke="#5500a3" stroke-width="1.0" />
  <line x1="256.6375" y1="322.5035" x2="289.1096" y2="342.3978" stroke="#37004b" stroke-width="1.0" />
  <rect
     style="fill:#ffffff;stroke:none"
     width="5.5"
     height="2"
     x="270.1236"
     y="331.4506" 
     transform="rotate(31.4940 272.8736 332.4506)"    /> 
  <path
     style="fill:none;stroke:#37004b;stroke-width:1px;stroke-linecap:butt;stroke-linejoin:miter;stroke-opacity:1"
    d="m 273.6236,330.4506 2,2 -2,2 m -1.5,-4 -2,2 2,2" transform="rotate(31.4940 272.8736 332.4506)"/>
  <line x1="256.6869" y1="302.6051" x2="256.7067" y2="282.7122" stroke="#cf4a00" stroke-width="1.0" />
  <rect
     style="fill:#ffffff;fill-opacity:1;fill-rule:nonzero;stroke:none"
     width="2"
     height="2"
     x="256.1968"
     y="291.6586"
     transform="rotate(-89.9430 256.6968 292.6586)" /> 
  <path
     style="fill:none;stroke:#cf4a00;stroke-width:1px;stroke-linecap:butt;stroke-linejoin:miter;stroke-opacity:1"
     d="m 256.6968,290.6586 2,2 -2,2 m -2.370121,-4 2,2 -2,2"
     transform="rotate(-89.9430 256.6968 292.6586)"/>
  <line x1="256.7067" y1="282.7122" x2="256.7359" y2="262.8248" stroke="#af1b2c" stroke-width="1.0" />
  <rect
     style="fill:#ffffff;fill-opacity:1;fill-rule:nonzero;stroke:none"
     width="2"
     height="2"
     x="256.2213"
     y="271.7685"
     transform="rotate(-89.9158 256.7213 272.7685)" /> 
  <path
     style="fill:none;stroke:#af1b2c;stroke-width:1px;stroke-linecap:butt;stroke-linejoin:miter;stroke-opacity:1"
     d="m 256.7213,270.7685 2,2 -2,2 m -2.370121,-4 2,2 -2,2"
     transform="rotate(-89.9158 256.7213 272.7685)"/>
  <line x1="256.7663" y1="242.9457" x2="256.8084" y2="223.0806" stroke="#a0109e" stroke-width="1.0" />
  <rect
     style="fill:#ffffff;fill-opacity:1;fill-rule:nonzero;stroke:none"
     width="2"
     height="2"
     x="256.2873"
     y="232.0131"
     transform="rotate(-89.8786 256.7873 233.0131)" /> 
  <path
     style="fill:none;stroke:#a0109e;stroke-width:1px;stroke-linecap:butt;stroke-linejoin:miter;stroke-opacity:1"
     d="m 256.7873,231.0131 2,2 -2,2 m -2.370121,-4 2,2 -2,2"
     transform="rotate(-89.8786 256.7873 233.0131)"/>
  <line x1="256.7663" y1="242.9457" x2="289.2489" y2="262.8165" stroke="#bb2700" stroke-width="1.0" />
  <rect
     style="fill:#ffffff;stroke:none"
     width="5.5"
     height="2"
     x="270.2576"
     y="251.8811" 
     transform="rotate(31.4556 273.0076 252.8811)"    /> 
  <path
     style="fill:none;stroke:#bb2700;stroke-width:1px;stroke-linecap:butt;stroke-linejoin:miter;stroke-opacity:1"
    d="m 273.7576,250.8811 2,2 -2,2 m -1.5,-4 -2,2 2,2" transform="rotate(31.4556 273.0076 252.8811)"/>
  <line x1="256.8084" y1="223.0806" x2="256.8306" y2="203.2387" stroke="#8204ff" stroke-width="1.0" />
  <rect
     style="fill:#ffffff;fill-opacity:1;fill-rule:nonzero;stroke:none"
     width="2"
     height="2"
     x="256.3195"
     y="212.1596"
     transform="rotate(-89.9359 256.8195 213.1596)" /> 
  <path
     style="fill:none;stroke:#8204ff;stroke-width:1px;stroke-linecap:butt;stroke-linejoin:miter;stroke-opacity:1"
     d="m 256.8195,211.1596 2,2 -2,2 m -2.370121,-4 2,2 -2,2"
     transform="rotate(-89.9359 256.8195 213.1596)"/>
  <line x1="256.8085" y1="224.3306" x2="289.3085" y2="224.3271" stroke="#4b0084" stroke-width="1.0" />
  <line x1="256.8082" y1="221.8306" x2="289.3083" y2="221.8271" stroke="#4b0084" stroke-width="1.0" />
  <line x1="256.8306" y1="203.2387" x2="256.9065" y2="183.4294" stroke="#7803fb" stroke-width="1.0" />
  <rect
     style="fill:#ffffff;fill-opacity:1;fill-rule:nonzero;stroke:none"
     width="2"
     height="2"
     x="256.3685"
     y="192.3340"
     transform="rotate(-89.7805 256.8685 193.3340)" /> 
  <path
     style="fill:none;stroke:#7803fb;stroke-width:1px;stroke-linecap:butt;stroke-linejoin:miter;stroke-opacity:1"
     d="m 256.8685,191.3340 2,2 -2,2 m -2.370121,-4 2,2 -2,2"
     transform="rotate(-89.7805 256.8685 193.3340)"/>
  <line x1="256.8301" y1="201.6387" x2="289.3973" y2="201.6280" stroke="#5800ac" stroke-width="1.0" />
  <line x1="256.8306" y1="203.2387" x2="289.3084" y2="223.0771" stroke="#f2b800" stroke-width="1.0" />
  <rect
     style="fill:#ffffff;stroke:none"
     width="5.5"
     height="2"
     x="270.3195"
     y="212.1579" 
     transform="rotate(31.4179 273.0695 213.1579)"    /> 
  <path
     style="fill:none;stroke:#f2b800;stroke-width:1px;stroke-linecap:butt;stroke-linejoin:miter;stroke-opacity:1"
    d="m 273.8195,211.1579 2,2 -2,2 m -1.5,-4 -2,2 2,2" transform="rotate(31.4179 273.0695 213.1579)"/>
  <line x1="256.9065" y1="183.4294" x2="256.9829" y2="163.6647" stroke="#7a03fd" stroke-width="1.0" />
  <rect
     style="fill:#ffffff;fill-opacity:1;fill-rule:nonzero;stroke:none"
     width="2"
     height="2"
     x="256.4447"
     y="172.5470"
     transform="rotate(-89.7784 256.9447 173.5470)" /> 
  <path
     style="fill:none;stroke:#7a03fd;stroke-width:1px;stroke-linecap:butt;stroke-linejoin:miter;stroke-opacity:1"
     d="m 256.9447,171.5470 2,2 -2,2 m -2.370121,-4 2,2 -2,2"
     transform="rotate(-89.7784 256.9447 173.5470)"/>
  <line x1="256.9079" y1="184.6794" x2="289.4080" y2="184.6430" stroke="#480079" stroke-width="1.0" />
  <line x1="256.9051" y1="182.1794" x2="289.4052" y2="182.1430" stroke="#480079" stroke-width="1.0" />
  <line x1="256.9870" y1="164.9147" x2="289.4869" y2="164.8076" stroke="#2d0032" stroke-width="1.0" />
  <line x1="256.9788" y1="162.4147" x2="289.4787" y2="162.3076" stroke="#2d0032" stroke-width="1.0" />
  <line x1="256.9829" y1="163.6647" x2="289.4066" y2="183.3930" stroke="#e58400" stroke-width="1.0" />
  <rect
     style="fill:#ffffff;stroke:none"
     width="5.5"
     height="2"
     x="270.4447"
     y="172.5288" 
     transform="rotate(31.3186 273.1947 173.5288)"    /> 
  <path
     style="fill:none;stroke:#e58400;stroke-width:1px;stroke-linecap:butt;stroke-linejoin:miter;stroke-opacity:1"
    d="m 273.9447,171.5288 2,2 -2,2 m -1.5,-4 -2,2 2,2" transform="rotate(31.3186 273.1947 173.5288)"/>
  <line x1="257.0087" y1="143.9051" x2="256.8485" y2="124.1980" stroke="#9d0eb1" stroke-width="1.0" />
  <rect
     style="fill:#ffffff;fill-opacity:1;fill-rule:nonzero;stroke:none"
     width="2"
     height="2"
     x="256.4286"
     y="133.0516"
     transform="rotate(269.5341 256.9286 134.0516)" /> 
  <path
     style="fill:none;stroke:#9d0eb1;stroke-width:1px;stroke-linecap:butt;stroke-linejoin:miter;stroke-opacity:1"
     d="m 256.9286,132.0516 2,2 -2,2 m -2.370121,-4 2,2 -2,2"
     transform="rotate(269.5341 256.9286 134.0516)"/>
  <line x1="257.0152" y1="145.1551" x2="289.5142" y2="144.9866" stroke="#33003e" stroke-width="1.0" />
  <line x1="257.0022" y1="142.6552" x2="289.5012" y2="142.4866" stroke="#33003e" stroke-width="1.0" />
  <line x1="257.0087" y1="143.9051" x2="289.4828" y2="163.5576" stroke="#17000d" stroke-width="1.0" />
  <rect
     style="fill:#ffffff;stroke:none"
     width="5.5"
     height="2"
     x="270.4958"
     y="152.7314" 
     transform="rotate(31.1812 273.2458 153.7314)"    /> 
  <path
     style="fill:none;stroke:#17000d;stroke-width:1px;stroke-linecap:butt;stroke-linejoin:miter;stroke-opacity:1"
    d="m 273.9958,151.7314 2,2 -2,2 m -1.5,-4 -2,2 2,2" transform="rotate(31.1812 273.2458 153.7314)"/>
  <line x1="256.8485" y1="124.1980" x2="256.4379" y2="104.4161" stroke="#9d0eb1" stroke-width="1.0" />
  <rect
     style="fill:#ffffff;fill-opacity:1;fill-rule:nonzero;stroke:none"
     width="2"
     height="2"
     x="256.1432"
     y="113.3070"
     transform="rotate(268.8110 256.6432 114.3070)" /> 
  <path
     style="fill:none;stroke:#9d0eb1;stroke-width:1px;stroke-linecap:butt;stroke-linejoin:miter;stroke-opacity:1"
     d="m 256.6432,112.3070 2,2 -2,2 m -2.370121,-4 2,2 -2,2"
     transform="rotate(268.8110 256.6432 114.3070)"/>
  <line x1="256.8485" y1="124.1980" x2="289.3095" y2="123.8348" stroke="#520099" stroke-width="1.0" />
  <line x1="256.4379" y1="104.4161" x2="264.8036" y2="86.4807" stroke="#bc2900" stroke-width="1.0" />
  <rect
     style="fill:#ffffff;fill-opacity:1;fill-rule:nonzero;stroke:none"
     width="2"
     height="2"
     x="260.1207"
     y="94.4484"
     transform="rotate(-64.9939 260.6207 95.4484)" /> 
  <path
     style="fill:none;stroke:#bc2900;stroke-width:1px;stroke-linecap:butt;stroke-linejoin:miter;stroke-opacity:1"
     d="m 260.6207,93.4484 2,2 -2,2 m -2.370121,-4 2,2 -2,2"
     transform="rotate(-64.9939 260.6207 95.4484)"/>
  <line x1="256.4564" y1="105.6659" x2="288.9065" y2="105.1841" stroke="#270026" stroke-width="1.0" />
  <line x1="256.4193" y1="103.1662" x2="288.8694" y2="102.6844" stroke="#270026" stroke-width="1.0" />
  <line x1="264.9203" y1="87.7253" x2="284.5807" y2="85.8818" stroke="#44006e" stroke-width="1.0" />
  <line x1="264.6869" y1="85.2362" x2="284.3473" y2="83.3927" stroke="#44006e" stroke-width="1.0" />
  <line x1="264.8036" y1="86.4807" x2="288.8880" y2="103.9343" stroke="#e89000" stroke-width="1.0" />
  <rect
     style="fill:#ffffff;stroke:none"
     width="5.5"
     height="2"
     x="274.0958"
     y="94.2075" 
     transform="rotate(35.9302 276.8458 95.2075)"    /> 
  <path
     style="fill:none;stroke:#e89000;stroke-width:1px;stroke-linecap:butt;stroke-linejoin:miter;stroke-opacity:1"
    d="m 277.5958,93.2075 2,2 -2,2 m -1.5,-4 -2,2 2,2" transform="rotate(35.9302 276.8458 95.2075)"/>
  <line x1="284.4640" y1="84.6373" x2="288.8880" y2="103.9343" stroke="#9309df" stroke-width="1.0" />
  <rect
     style="fill:#ffffff;fill-opacity:1;fill-rule:nonzero;stroke:none"
     width="2"
     height="2"
     x="286.1760"
     y="93.2858"
     transform="rotate(77.0879 286.6760 94.2858)" /> 
  <path
     style="fill:none;stroke:#9309df;stroke-width:1px;stroke-linecap:butt;stroke-linejoin:miter;stroke-opacity:1"
     d="m 286.6760,92.2858 2,2 -2,2 m -2.370121,-4 2,2 -2,2"
     transform="rotate(77.0879 286.6760 94.2858)"/>
  <line x1="288.8880" y1="103.9343" x2="289.3095" y2="123.8348" stroke="#7e04ff" stroke-width="1.0" />
  <rect
     style="fill:#ffffff;fill-opacity:1;fill-rule:nonzero;stroke:none"
     width="2"
     height="2"
     x="288.5987"
     y="112.8845"
     transform="rotate(88.7866 289.0987 113.8845)" /> 
  <path
     style="fill:none;stroke:#7e04ff;stroke-width:1px;stroke-linecap:butt;stroke-linejoin:miter;stroke-opacity:1"
     d="m 289.0987,111.8845 2,2 -2,2 m -2.370121,-4 2,2 -2,2"
     transform="rotate(88.7866 289.0987 113.8845)"/>
  <line x1="289.3095" y1="123.8348" x2="289.5077" y2="143.7366" stroke="#7c03fe" stroke-width="1.0" />
  <rect
     style="fill:#ffffff;fill-opacity:1;fill-rule:nonzero;stroke:none"
     width="2"
     height="2"
     x="288.9086"
     y="132.7857"
     transform="rotate(89.4293 289.4086 133.7857)" /> 
  <path
     style="fill:none;stroke:#7c03fe;stroke-width:1px;stroke-linecap:butt;stroke-linejoin:miter;stroke-opacity:1"
     d="m 289.4086,131.7857 2,2 -2,2 m -2.370121,-4 2,2 -2,2"
     transform="rotate(89.4293 289.4086 133.7857)"/>
  <line x1="289.4828" y1="163.5576" x2="289.4066" y2="183.3930" stroke="#d14c00" stroke-width="1.0" />
  <rect
     style="fill:#ffffff;fill-opacity:1;fill-rule:nonzero;stroke:none"
     width="2"
     height="2"
     x="288.9447"
     y="172.4753"
     transform="rotate(90.2202 289.4447 173.4753)" /> 
  <path
     style="fill:none;stroke:#d14c00;stroke-width:1px;stroke-linecap:butt;stroke-linejoin:miter;stroke-opacity:1"
     d="m 289.4447,171.4753 2,2 -2,2 m -2.370121,-4 2,2 -2,2"
     transform="rotate(90.2202 289.4447 173.4753)"/>
  <line x1="289.4066" y1="183.3930" x2="289.3979" y2="203.2280" stroke="#940ad9" stroke-width="1.0" />
  <rect
     style="fill:#ffffff;fill-opacity:1;fill-rule:nonzero;stroke:none"
     width="2"
     height="2"
     x="288.9022"
     y="192.3105"
     transform="rotate(90.0252 289.4022 193.3105)" /> 
  <path
     style="fill:none;stroke:#940ad9;stroke-width:1px;stroke-linecap:butt;stroke-linejoin:miter;stroke-opacity:1"
     d="m 289.4022,191.3105 2,2 -2,2 m -2.370121,-4 2,2 -2,2"
     transform="rotate(90.0252 289.4022 193.3105)"/>
  <line x1="289.3979" y1="203.2280" x2="289.3084" y2="223.0771" stroke="#a5137f" stroke-width="1.0" />
  <rect
     style="fill:#ffffff;fill-opacity:1;fill-rule:nonzero;stroke:none"
     width="2"
     height="2"
     x="288.8531"
     y="212.1525"
     transform="rotate(90.2583 289.3531 213.1525)" /> 
  <path
     style="fill:none;stroke:#a5137f;stroke-width:1px;stroke-linecap:butt;stroke-linejoin:miter;stroke-opacity:1"
     d="m 289.3531,211.1525 2,2 -2,2 m -2.370121,-4 2,2 -2,2"
     transform="rotate(90.2583 289.3531 213.1525)"/>
  <line x1="289.3084" y1="223.0771" x2="289.2663" y2="242.9410" stroke="#17000d" stroke-width="1.0" />
  <rect
     style="fill:#ffffff;fill-opacity:1;fill-rule:nonzero;stroke:none"
     width="2"
     height="2"
     x="288.7873"
     y="232.0091"
     transform="rotate(90.1215 289.2873 233.0091)" /> 
  <path
     style="fill:none;stroke:#17000d;stroke-width:1px;stroke-linecap:butt;stroke-linejoin:miter;stroke-opacity:1"
     d="m 289.2873,231.0091 2,2 -2,2 m -2.370121,-4 2,2 -2,2"
     transform="rotate(90.1215 289.2873 233.0091)"/>
  <line x1="289.2489" y1="262.8165" x2="289.2304" y2="282.7002" stroke="#c83b00" stroke-width="1.0" />
  <rect
     style="fill:#ffffff;fill-opacity:1;fill-rule:nonzero;stroke:none"
     width="2"
     height="2"
     x="288.7397"
     y="271.7583"
     transform="rotate(90.0532 289.2397 272.7583)" /> 
  <path
     style="fill:none;stroke:#c83b00;stroke-width:1px;stroke-linecap:butt;stroke-linejoin:miter;stroke-opacity:1"
     d="m 289.2397,270.7583 2,2 -2,2 m -2.370121,-4 2,2 -2,2"
     transform="rotate(90.0532 289.2397 272.7583)"/>
  <line x1="289.2304" y1="282.7002" x2="289.1893" y2="302.5912" stroke="#9109e5" stroke-width="1.0" />
  <rect
     style="fill:#ffffff;fill-opacity:1;fill-rule:nonzero;stroke:none"
     width="2"
     height="2"
     x="288.7099"
     y="291.6457"
     transform="rotate(90.1184 289.2099 292.6457)" /> 
  <path
     style="fill:none;stroke:#9109e5;stroke-width:1px;stroke-linecap:butt;stroke-linejoin:miter;stroke-opacity:1"
     d="m 289.2099,290.6457 2,2 -2,2 m -2.370121,-4 2,2 -2,2"
     transform="rotate(90.1184 289.2099 292.6457)"/>
  <line x1="289.1893" y1="302.5912" x2="289.1655" y2="322.4900" stroke="#b62200" stroke-width="1.0" />
  <rect
     style="fill:#ffffff;fill-opacity:1;fill-rule:nonzero;stroke:none"
     width="2"
     height="2"
     x="288.6774"
     y="311.5406"
     transform="rotate(90.0686 289.1774 312.5406)" /> 
  <path
     style="fill:none;stroke:#b62200;stroke-width:1px;stroke-linecap:butt;stroke-linejoin:miter;stroke-opacity:1"
     d="m 289.1774,310.5406 2,2 -2,2 m -2.370121,-4 2,2 -2,2"
     transform="rotate(90.0686 289.1774 312.5406)"/>
  <line x1="289.1096" y1="342.3978" x2="289.0694" y2="362.3161" stroke="#000000" stroke-width="1.0" />
  <rect
     style="fill:#ffffff;fill-opacity:1;fill-rule:nonzero;stroke:none"
     width="2"
     height="2"
     x="288.5895"
     y="351.3569"
     transform="rotate(90.1159 289.0895 352.3569)" /> 
  <path
     style="fill:none;stroke:#000000;stroke-width:1px;stroke-linecap:butt;stroke-linejoin:miter;stroke-opacity:1"
     d="m 289.0895,350.3569 2,2 -2,2 m -2.370121,-4 2,2 -2,2"
     transform="rotate(90.1159 289.0895 352.3569)"/>
  <line x1="289.0694" y1="362.3161" x2="289.0143" y2="382.2464" stroke="#7e04ff" stroke-width="1.0" />
  <rect
     style="fill:#ffffff;fill-opacity:1;fill-rule:nonzero;stroke:none"
     width="2"
     height="2"
     x="288.5418"
     y="371.2812"
     transform="rotate(90.1584 289.0418 372.2812)" /> 
  <path
     style="fill:none;stroke:#7e04ff;stroke-width:1px;stroke-linecap:butt;stroke-linejoin:miter;stroke-opacity:1"
     d="m 289.0418,370.2812 2,2 -2,2 m -2.370121,-4 2,2 -2,2"
     transform="rotate(90.1584 289.0418 372.2812)"/>
  <line x1="289.0143" y1="382.2464" x2="288.9638" y2="402.1896" stroke="#7e04ff" stroke-width="1.0" />
  <rect
     style="fill:#ffffff;fill-opacity:1;fill-rule:nonzero;stroke:none"
     width="2"
     height="2"
     x="288.4890"
     y="391.2180"
     transform="rotate(90.1449 288.9890 392.2180)" /> 
  <path
     style="fill:none;stroke:#7e04ff;stroke-width:1px;stroke-linecap:butt;stroke-linejoin:miter;stroke-opacity:1"
     d="m 288.9890,390.2180 2,2 -2,2 m -2.370121,-4 2,2 -2,2"
     transform="rotate(90.1449 288.9890 392.2180)"/>
  <line x1="288.9200" y1="422.1467" x2="288.8622" y2="442.1179" stroke="#9109e5" stroke-width="1.0" />
  <rect
     style="fill:#ffffff;fill-opacity:1;fill-rule:nonzero;stroke:none"
     width="2"
     height="2"
     x="288.3911"
     y="431.1323"
     transform="rotate(90.1660 288.8911 432.1323)" /> 
  <path
     style="fill:none;stroke:#9109e5;stroke-width:1px;stroke-linecap:butt;stroke-linejoin:miter;stroke-opacity:1"
     d="m 288.8911,430.1323 2,2 -2,2 m -2.370121,-4 2,2 -2,2"
     transform="rotate(90.1660 288.8911 432.1323)"/>
  <line x1="288.8622" y1="442.1179" x2="288.8137" y2="462.1034" stroke="#5800ac" stroke-width="1.0" />
  <rect
     style="fill:#ffffff;fill-opacity:1;fill-rule:nonzero;stroke:none"
     width="2"
     height="2"
     x="288.3379"
     y="451.1106"
     transform="rotate(90.1390 288.8379 452.1106)" /> 
  <path
     style="fill:none;stroke:#5800ac;stroke-width:1px;stroke-linecap:butt;stroke-linejoin:miter;stroke-opacity:1"
     d="m 288.8379,450.1106 2,2 -2,2 m -2.370121,-4 2,2 -2,2"
     transform="rotate(90.1390 288.8379 452.1106)"/>
<circle cx="256.3091" cy="462.1005" r="5.0" stroke="#595959" stroke-width="1.0" fill="#ffffff"/>
<text x="256.3091" y="464.8005" text-anchor="middle" font-family="Helvetica" font-size="7.5" fill="#000000" >A</text>
<circle cx="256.3620" cy="442.1159" r="5.0" stroke="#595959" stroke-width="1.0" fill="#ffffff"/>
<text x="256.3620" y="444.8159" text-anchor="middle" font-family="Helvetica" font-size="7.5" fill="#000000" >C</text>
<circle cx="256.4058" cy="422.1464" r="5.0" stroke="#595959" stroke-width="1.0" fill="#ffffff"/>
<text x="256.4058" y="424.8464" text-anchor="middle" font-family="Helvetica" font-size="7.5" fill="#000000" >U</text>
<circle cx="256.4638" cy="402.1919" r="5.0" stroke="#595959" stroke-width="1.0" fill="#ffffff"/>
<text x="256.4638" y="404.8919" text-anchor="middle" font-family="Helvetica" font-size="7.5" fill="#000000" >G</text>
<circle cx="256.5142" cy="382.2516" r="5.0" stroke="#595959" stroke-width="1.0" fill="#ffffff"/>
<text x="256.5142" y="384.9516" text-anchor="middle" font-family="Helvetica" font-size="7.5" fill="#000000" >G</text>
<circle cx="256.5573" cy="362.3246" r="5.0" stroke="#595959" stroke-width="1.0" fill="#ffffff"/>
<text x="256.5573" y="365.0246" text-anchor="middle" font-family="Helvetica" font-size="7.5" fill="#000000" >A</text>
<circle cx="256.6095" cy="342.4093" r="5.0" stroke="#595959" stroke-width="1.0" fill="#ffffff"/>
<text x="256.6095" y="345.1093" text-anchor="middle" font-family="Helvetica" font-size="7.5" fill="#000000" >C</text>
<circle cx="256.6375" cy="322.5035" r="5.0" stroke="#595959" stroke-width="1.0" fill="#ffffff"/>
<text x="256.6375" y="325.2035" text-anchor="middle" font-family="Helvetica" font-size="7.5" fill="#000000" >A</text>
<circle cx="256.6869" cy="302.6051" r="5.0" stroke="#595959" stroke-width="1.0" fill="#ffffff"/>
<text x="256.6869" y="305.3051" text-anchor="middle" font-family="Helvetica" font-size="7.5" fill="#000000" >I</text>
<circle cx="256.7067" cy="282.7122" r="5.0" stroke="#595959" stroke-width="1.0" fill="#ffffff"/>
<text x="256.7067" y="285.4122" text-anchor="middle" font-family="Helvetica" font-size="7.5" fill="#000000" >I</text>
<circle cx="256.7359" cy="262.8248" r="5.0" stroke="#595959" stroke-width="1.0" fill="#ffffff"/>
<text x="256.7359" y="265.5248" text-anchor="middle" font-family="Helvetica" font-size="7.5" fill="#000000" >U</text>
<circle cx="256.7663" cy="242.9457" r="5.0" stroke="#595959" stroke-width="1.0" fill="orange"/>
<text x="256.7663" y="245.6457" text-anchor="middle" font-family="Helvetica" font-size="7.5" fill="#000000" >I</text>
<circle cx="256.8084" cy="223.0806" r="5.0" stroke="#595959" stroke-width="1.0" fill="#ffffff"/>
<text x="256.8084" y="225.7806" text-anchor="middle" font-family="Helvetica" font-size="7.5" fill="#000000" >C</text>
<circle cx="256.8306" cy="203.2387" r="5.0" stroke="#595959" stroke-width="1.0" fill="#ffffff"/>
<text x="256.8306" y="205.9387" text-anchor="middle" font-family="Helvetica" font-size="7.5" fill="#000000" >U</text>
<circle cx="256.9065" cy="183.4294" r="5.0" stroke="#595959" stroke-width="1.0" fill="#ffffff"/>
<text x="256.9065" y="186.1294" text-anchor="middle" font-family="Helvetica" font-size="7.5" fill="#000000" >C</text>
<circle cx="256.9829" cy="163.6647" r="5.0" stroke="#595959" stroke-width="1.0" fill="#ffffff"/>
<text x="256.9829" y="166.3647" text-anchor="middle" font-family="Helvetica" font-size="7.5" fill="#000000" >C</text>
<circle cx="257.0087" cy="143.9051" r="5.0" stroke="#595959" stroke-width="1.0" fill="#ffffff"/>
<text x="257.0087" y="146.6051" text-anchor="middle" font-family="Helvetica" font-size="7.5" fill="#000000" >G</text>
<circle cx="256.8485" cy="124.1980" r="5.0" stroke="#595959" stroke-width="1.0" fill="#ffffff"/>
<text x="256.8485" y="126.8980" text-anchor="middle" font-family="Helvetica" font-size="7.5" fill="#000000" >A</text>
<circle cx="256.4379" cy="104.4161" r="5.0" stroke="#595959" stroke-width="1.0" fill="#ffffff"/>
<text x="256.4379" y="107.1161" text-anchor="middle" font-family="Helvetica" font-size="7.5" fill="#000000" >G</text>
<circle cx="264.8036" cy="86.4807" r="5.0" stroke="#595959" stroke-width="1.0" fill="#ffffff"/>
<text x="264.8036" y="89.1807" text-anchor="middle" font-family="Helvetica" font-size="7.5" fill="#000000" >G</text>
<circle cx="284.4640" cy="84.6373" r="5.0" stroke="#595959" stroke-width="1.0" fill="#ffffff"/>
<text x="284.4640" y="87.3373" text-anchor="middle" font-family="Helvetica" font-size="7.5" fill="#000000" >C</text>
<circle cx="288.8880" cy="103.9343" r="5.0" stroke="#595959" stroke-width="1.0" fill="#ffffff"/>
<text x="288.8880" y="106.6343" text-anchor="middle" font-family="Helvetica" font-size="7.5" fill="#000000" >C</text>
<circle cx="289.3095" cy="123.8348" r="5.0" stroke="#595959" stroke-width="1.0" fill="#ffffff"/>
<text x="289.3095" y="126.5348" text-anchor="middle" font-family="Helvetica" font-size="7.5" fill="#000000" >U</text>
<circle cx="289.5077" cy="143.7366" r="5.0" stroke="#595959" stroke-width="1.0" fill="#ffffff"/>
<text x="289.5077" y="146.4366" text-anchor="middle" font-family="Helvetica" font-size="7.5" fill="#000000" >C</text>
<circle cx="289.4828" cy="163.5576" r="5.0" stroke="#595959" stroke-width="1.0" fill="#ffffff"/>
<text x="289.4828" y="166.2576" text-anchor="middle" font-family="Helvetica" font-size="7.5" fill="#000000" >G</text>
<circle cx="289.4066" cy="183.3930" r="5.0" stroke="#595959" stroke-width="1.0" fill="#ffffff"/>
<text x="289.4066" y="186.0930" text-anchor="middle" font-family="Helvetica" font-size="7.5" fill="#000000" >G</text>
<circle cx="289.3979" cy="203.2280" r="5.0" stroke="#595959" stroke-width="1.0" fill="#ffffff"/>
<text x="289.3979" y="205.9280" text-anchor="middle" font-family="Helvetica" font-size="7.5" fill="#000000" >A</text>
<circle cx="289.3084" cy="223.0771" r="5.0" stroke="#595959" stroke-width="1.0" fill="#ffffff"/>
<text x="289.3084" y="225.7771" text-anchor="middle" font-family="Helvetica" font-size="7.5" fill="#000000" >G</text>
<circle cx="289.2663" cy="242.9410" r="5.0" stroke="#595959" stroke-width="1.0" fill="#ffffff"/>
<text x="289.2663" y="245.6410" text-anchor="middle" font-family="Helvetica" font-size="7.5" fill="#000000" >U</text>
<circle cx="289.2489" cy="262.8165" r="5.0" stroke="#595959" stroke-width="1.0" fill="#ffffff"/>
<text x="289.2489" y="265.5165" text-anchor="middle" font-family="Helvetica" font-size="7.5" fill="#000000" >I</text>
<circle cx="289.2304" cy="282.7002" r="5.0" stroke="#595959" stroke-width="1.0" fill="#ffffff"/>
<text x="289.2304" y="285.4002" text-anchor="middle" font-family="Helvetica" font-size="7.5" fill="#000000" >U</text>
<circle cx="289.1893" cy="302.5912" r="5.0" stroke="#595959" stroke-width="1.0" fill="#ffffff"/>
<text x="289.1893" y="305.2912" text-anchor="middle" font-family="Helvetica" font-size="7.5" fill="#000000" >U</text>
<circle cx="289.1655" cy="322.4900" r="5.0" stroke="#595959" stroke-width="1.0" fill="#ffffff"/>
<text x="289.1655" y="325.1900" text-anchor="middle" font-family="Helvetica" font-size="7.5" fill="#000000" >U</text>
<circle cx="289.1096" cy="342.3978" r="5.0" stroke="#595959" stroke-width="1.0" fill="#ffffff"/>
<text x="289.1096" y="345.0978" text-anchor="middle" font-family="Helvetica" font-size="7.5" fill="#000000" >G</text>
<circle cx="289.0694" cy="362.3161" r="5.0" stroke="#595959" stroke-width="1.0" fill="#ffffff"/>
<text x="289.0694" y="365.0161" text-anchor="middle" font-family="Helvetica" font-size="7.5" fill="#000000" >U</text>
<circle cx="289.0143" cy="382.2464" r="5.0" stroke="#595959" stroke-width="1.0" fill="#ffffff"/>
<text x="289.0143" y="384.9464" text-anchor="middle" font-family="Helvetica" font-size="7.5" fill="#000000" >C</text>
<circle cx="288.9638" cy="402.1896" r="5.0" stroke="#595959" stroke-width="1.0" fill="#ffffff"/>
<text x="288.9638" y="404.8896" text-anchor="middle" font-family="Helvetica" font-size="7.5" fill="#000000" >C</text>
<circle cx="288.9200" cy="422.1467" r="5.0" stroke="#595959" stroke-width="1.0" fill="#ffffff"/>
<text x="288.9200" y="424.8467" text-anchor="middle" font-family="Helvetica" font-size="7.5" fill="#000000" >A</text>
<circle cx="288.8622" cy="442.1179" r="5.0" stroke="#595959" stroke-width="1.0" fill="#ffffff"/>
<text x="288.8622" y="444.8179" text-anchor="middle" font-family="Helvetica" font-size="7.5" fill="#000000" >G</text>
<circle cx="288.8137" cy="462.1034" r="5.0" stroke="#595959" stroke-width="1.0" fill="#ffffff"/>
<text x="288.8137" y="464.8034" text-anchor="middle" font-family="Helvetica" font-size="7.5" fill="#000000" >U</text>
</svg>
