<?xml version="1.0" encoding="UTF-8"?>
<!DOCTYPE svg PUBLIC "-//W3C//DTD SVG 1.1//EN" 
"http://www.w3.org/Graphics/SVG/1.1/DTD/svg11.dtd">

<svg version="1.1"
   width="546px"
   height="546px"
xmlns="http://www.w3.org/2000/svg">
    <rect width="100%" height="100%" fill="white"/>

  <line x1="256.7500" y1="422.9452" x2="256.7500" y2="402.9452" stroke="#595959"
     style="stroke-width:2;stroke-miterlimit:4;stroke-dasharray:1,1;stroke-dashoffset:0" />
  <line x1="256.7500" y1="342.9468" x2="256.7500" y2="322.9470" stroke="#595959"
     style="stroke-width:2;stroke-miterlimit:4;stroke-dasharray:1,1;stroke-dashoffset:0" />
  <line x1="256.7500" y1="262.9490" x2="256.7500" y2="242.9494" stroke="#595959"
     style="stroke-width:2;stroke-miterlimit:4;stroke-dasharray:1,1;stroke-dashoffset:0" />
  <line x1="256.7501" y1="162.9514" x2="256.7496" y2="142.9520" stroke="#595959"
     style="stroke-width:2;stroke-miterlimit:4;stroke-dasharray:1,1;stroke-dashoffset:0" />
  <line x1="289.2504" y1="142.9520" x2="289.2499" y2="162.9514" stroke="#595959"
     style="stroke-width:2;stroke-miterlimit:4;stroke-dasharray:1,1;stroke-dashoffset:0" />
  <line x1="289.2500" y1="242.9494" x2="289.2500" y2="262.9490" stroke="#595959"
     style="stroke-width:2;stroke-miterlimit:4;stroke-dasharray:1,1;stroke-dashoffset:0" />
  <line x1="289.2500" y1="402.9452" x2="289.2500" y2="422.9452" stroke="#595959"
     style="stroke-width:2;stroke-miterlimit:4;stroke-dasharray:1,1;stroke-dashoffset:0" />
  <line x1="256.7500" y1="421.3452" x2="289.2500" y2="421.3452" stroke="#d45500" stroke-width="1.0" />
  <circle cx="273.0000" cy="421.3452" r="2.25" stroke="#d45500" stroke-width="1.0" fill="#d45500"/>
  <line x1="256.7500" y1="404.5452" x2="289.2500" y2="404.5452" stroke="#eb9d00" stroke-width="1.0" />
  <circle cx="273.0000" cy="404.5452" r="2.25" stroke="#eb9d00" stroke-width="1.0" fill="#eb9d00"/>
  <line x1="256.7500" y1="364.5459" x2="289.2500" y2="364.5459" stroke="#e07500" stroke-width="1.0" />
  <circle cx="273.0000" cy="364.5459" r="2.25" stroke="#e07500" stroke-width="1.0" fill="#e07500"/>
  <line x1="256.7500" y1="341.3468" x2="289.2500" y2="341.3468" stroke="#eb9d00" stroke-width="1.0" />
  <circle cx="273.0000" cy="341.3468" r="2.25" stroke="#eb9d00" stroke-width="1.0" fill="#eb9d00"/>
  <line x1="256.7500" y1="324.5470" x2="289.2500" y2="324.5470" stroke="#eb9d00" stroke-width="1.0" />
  <circle cx="273.0000" cy="324.5470" r="2.25" stroke="#eb9d00" stroke-width="1.0" fill="#eb9d00"/>
  <line x1="256.7500" y1="301.3479" x2="289.2500" y2="301.3479" stroke="#7a03fd" stroke-width="1.0" />
  <circle cx="273.0000" cy="301.3479" r="2.25" stroke="#7a03fd" stroke-width="1.0" fill="#7a03fd"/>
  <line x1="256.7500" y1="304.5479" x2="289.2500" y2="304.5479" stroke="#eb9d00" stroke-width="1.0" />
  <circle cx="273.0000" cy="304.5479" r="2.25" stroke="#eb9d00" stroke-width="1.0" fill="#eb9d00"/>
  <line x1="256.7500" y1="281.3482" x2="289.2500" y2="281.3482" stroke="#eb9d00" stroke-width="1.0" />
  <circle cx="273.0000" cy="281.3482" r="2.25" stroke="#eb9d00" stroke-width="1.0" fill="#eb9d00"/>
  <line x1="256.7500" y1="284.5482" x2="289.2500" y2="284.5482" stroke="#6301ce" stroke-width="1.0" />
  <circle cx="273.0000" cy="284.5482" r="2.25" stroke="#6301ce" stroke-width="1.0" fill="#6301ce"/>
  <line x1="256.7500" y1="282.9482" x2="289.2500" y2="302.9479" stroke="#eb9d00" stroke-width="1.0" />
  <circle cx="273.0000" cy="292.9480" r="2.25" stroke="#eb9d00" stroke-width="1.0" fill="#eb9d00"/>
  <line x1="256.7500" y1="262.9490" x2="289.2500" y2="262.9490" stroke="#6301ce" stroke-width="1.0" />
  <circle cx="273.0000" cy="262.9490" r="2.25" stroke="#6301ce" stroke-width="1.0" fill="#6301ce"/>
  <line x1="256.7500" y1="242.9494" x2="289.2500" y2="242.9494" stroke="#44006e" stroke-width="1.0" />
  <circle cx="273.0000" cy="242.9494" r="2.25" stroke="#44006e" stroke-width="1.0" fill="#44006e"/>
  <line x1="256.6880" y1="124.5522" x2="289.3120" y2="124.5522" stroke="#eb9d00" stroke-width="1.0" />
  <circle cx="273.0000" cy="124.5522" r="2.25" stroke="#eb9d00" stroke-width="1.0" fill="#eb9d00"/>
  <line x1="256.7500" y1="462.9448" x2="256.7500" y2="442.9448" stroke="#000000" stroke-width="1.0" />
  <rect
     style="fill:#ffffff;fill-opacity:1;fill-rule:nonzero;stroke:none"
     width="2"
     height="2"
     x="256.2500"
     y="451.9448"
     transform="rotate(-90.0000 256.7500 452.9448)" /> 
  <path
     style="fill:none;stroke:#000000;stroke-width:1px;stroke-linecap:butt;stroke-linejoin:miter;stroke-opacity:1"
     d="m 256.7500,450.9448 2,2 -2,2 m -2.370121,-4 2,2 -2,2"
     transform="rotate(-90.0000 256.7500 452.9448)"/>
  <line x1="256.7500" y1="462.9448" x2="289.2500" y2="462.9448" stroke="#9e0fa8" stroke-width="1.0" />
  <circle cx="273.0000" cy="462.9448" r="2.25" stroke="#9e0fa8" stroke-width="1.0" fill="#ffffff"/>
  <line x1="256.7500" y1="442.9448" x2="256.7500" y2="422.9452" stroke="#6301ce" stroke-width="1.0" />
  <rect
     style="fill:#ffffff;fill-opacity:1;fill-rule:nonzero;stroke:none"
     width="2"
     height="2"
     x="256.2500"
     y="431.9450"
     transform="rotate(-90.0000 256.7500 432.9450)" /> 
  <path
     style="fill:none;stroke:#6301ce;stroke-width:1px;stroke-linecap:butt;stroke-linejoin:miter;stroke-opacity:1"
     d="m 256.7500,430.9450 2,2 -2,2 m -2.370121,-4 2,2 -2,2"
     transform="rotate(-90.0000 256.7500 432.9450)"/>
  <line x1="256.7500" y1="444.1948" x2="289.2500" y2="444.1948" stroke="#000000" stroke-width="1.0" />
  <line x1="256.7500" y1="441.6948" x2="289.2500" y2="441.6948" stroke="#000000" stroke-width="1.0" />
  <line x1="256.7500" y1="424.5452" x2="289.2500" y2="424.5452" stroke="#8d07ef" stroke-width="1.0" />
  <line x1="256.7500" y1="402.9452" x2="256.7500" y2="382.9458" stroke="#bb2700" stroke-width="1.0" />
  <rect
     style="fill:#ffffff;fill-opacity:1;fill-rule:nonzero;stroke:none"
     width="2"
     height="2"
     x="256.2500"
     y="391.9455"
     transform="rotate(-90.0000 256.7500 392.9455)" /> 
  <path
     style="fill:none;stroke:#bb2700;stroke-width:1px;stroke-linecap:butt;stroke-linejoin:miter;stroke-opacity:1"
     d="m 256.7500,390.9455 2,2 -2,2 m -2.370121,-4 2,2 -2,2"
     transform="rotate(-90.0000 256.7500 392.9455)"/>
  <line x1="256.7500" y1="402.5952" x2="289.2500" y2="402.5952" stroke="#6301ce" stroke-width="1.0" />
  <line x1="256.7500" y1="400.0952" x2="289.2500" y2="400.0952" stroke="#6301ce" stroke-width="1.0" />
  <line x1="256.7500" y1="402.9452" x2="289.2500" y2="422.9452" stroke="#000000" stroke-width="1.0" />
  <rect
     style="fill:#ffffff;stroke:none"
     width="5.5"
     height="2"
     x="270.2500"
     y="411.9452" 
     transform="rotate(31.6075 273.0000 412.9452)"    /> 
  <path
     style="fill:none;stroke:#000000;stroke-width:1px;stroke-linecap:butt;stroke-linejoin:miter;stroke-opacity:1"
    d="m 273.7500,410.9452 2,2 -2,2 m -1.5,-4 -2,2 2,2" transform="rotate(31.6075 273.0000 412.9452)"/>
  <line x1="256.7500" y1="382.9458" x2="256.7500" y2="362.9459" stroke="#bb2700" stroke-width="1.0" />
  <rect
     style="fill:#ffffff;fill-opacity:1;fill-rule:nonzero;stroke:none"
     width="2"
     height="2"
     x="256.2500"
     y="371.9459"
     transform="rotate(-90.0000 256.7500 372.9459)" /> 
  <path
     style="fill:none;stroke:#bb2700;stroke-width:1px;stroke-linecap:butt;stroke-linejoin:miter;stroke-opacity:1"
     d="m 256.7500,370.9459 2,2 -2,2 m -2.370121,-4 2,2 -2,2"
     transform="rotate(-90.0000 256.7500 372.9459)"/>
  <line x1="256.7500" y1="384.1958" x2="289.2500" y2="384.1958" stroke="#000000" stroke-width="1.0" />
  <line x1="256.7500" y1="381.6958" x2="289.2500" y2="381.6958" stroke="#000000" stroke-width="1.0" />
  <line x1="256.7500" y1="382.9458" x2="289.2500" y2="402.9452" stroke="#e07500" stroke-width="1.0" />
  <rect
     style="fill:#ffffff;stroke:none"
     width="5.5"
     height="2"
     x="270.2500"
     y="391.9455" 
     transform="rotate(31.6067 273.0000 392.9455)"    /> 
  <path
     style="fill:none;stroke:#e07500;stroke-width:1px;stroke-linecap:butt;stroke-linejoin:miter;stroke-opacity:1"
    d="m 273.7500,390.9455 2,2 -2,2 m -1.5,-4 -2,2 2,2" transform="rotate(31.6067 273.0000 392.9455)"/>
  <line x1="256.7500" y1="362.9459" x2="256.7500" y2="342.9468" stroke="#000000" stroke-width="1.0" />
  <rect
     style="fill:#ffffff;fill-opacity:1;fill-rule:nonzero;stroke:none"
     width="2"
     height="2"
     x="256.2500"
     y="351.9464"
     transform="rotate(270.0000 256.7500 352.9464)" /> 
  <path
     style="fill:none;stroke:#000000;stroke-width:1px;stroke-linecap:butt;stroke-linejoin:miter;stroke-opacity:1"
     d="m 256.7500,350.9464 2,2 -2,2 m -2.370121,-4 2,2 -2,2"
     transform="rotate(270.0000 256.7500 352.9464)"/>
  <line x1="256.7500" y1="361.3459" x2="289.2500" y2="361.3459" stroke="#7a03fd" stroke-width="1.0" />
  <line x1="256.7500" y1="345.7968" x2="289.2500" y2="345.7968" stroke="#6301ce" stroke-width="1.0" />
  <line x1="256.7500" y1="343.2968" x2="289.2500" y2="343.2968" stroke="#6301ce" stroke-width="1.0" />
  <line x1="256.7500" y1="322.9470" x2="256.7500" y2="302.9479" stroke="#8d07ef" stroke-width="1.0" />
  <rect
     style="fill:#ffffff;fill-opacity:1;fill-rule:nonzero;stroke:none"
     width="2"
     height="2"
     x="256.2500"
     y="311.9474"
     transform="rotate(-90.0000 256.7500 312.9474)" /> 
  <path
     style="fill:none;stroke:#8d07ef;stroke-width:1px;stroke-linecap:butt;stroke-linejoin:miter;stroke-opacity:1"
     d="m 256.7500,310.9474 2,2 -2,2 m -2.370121,-4 2,2 -2,2"
     transform="rotate(-90.0000 256.7500 312.9474)"/>
  <line x1="256.7500" y1="321.3470" x2="289.2500" y2="321.3470" stroke="#6301ce" stroke-width="1.0" />
  <line x1="256.7500" y1="322.9470" x2="289.2500" y2="342.9468" stroke="#6301ce" stroke-width="1.0" />
  <rect
     style="fill:#ffffff;stroke:none"
     width="5.5"
     height="2"
     x="270.2500"
     y="331.9469" 
     transform="rotate(31.6072 273.0000 332.9469)"    /> 
  <path
     style="fill:none;stroke:#6301ce;stroke-width:1px;stroke-linecap:butt;stroke-linejoin:miter;stroke-opacity:1"
    d="m 273.7500,330.9469 2,2 -2,2 m -1.5,-4 -2,2 2,2" transform="rotate(31.6072 273.0000 332.9469)"/>
  <line x1="256.7500" y1="302.9479" x2="256.7500" y2="282.9482" stroke="#9e0fa8" stroke-width="1.0" />
  <rect
     style="fill:#ffffff;fill-opacity:1;fill-rule:nonzero;stroke:none"
     width="2"
     height="2"
     x="256.2500"
     y="291.9480"
     transform="rotate(270.0000 256.7500 292.9480)" /> 
  <path
     style="fill:none;stroke:#9e0fa8;stroke-width:1px;stroke-linecap:butt;stroke-linejoin:miter;stroke-opacity:1"
     d="m 256.7500,290.9480 2,2 -2,2 m -2.370121,-4 2,2 -2,2"
     transform="rotate(270.0000 256.7500 292.9480)"/>
  <line x1="256.7500" y1="282.9482" x2="256.7500" y2="262.9490" stroke="#000000" stroke-width="1.0" />
  <rect
     style="fill:#ffffff;fill-opacity:1;fill-rule:nonzero;stroke:none"
     width="2"
     height="2"
     x="256.2500"
     y="271.9486"
     transform="rotate(-90.0000 256.7500 272.9486)" /> 
  <path
     style="fill:none;stroke:#000000;stroke-width:1px;stroke-linecap:butt;stroke-linejoin:miter;stroke-opacity:1"
     d="m 256.7500,270.9486 2,2 -2,2 m -2.370121,-4 2,2 -2,2"
     transform="rotate(-90.0000 256.7500 272.9486)"/>
  <line x1="256.7500" y1="242.9494" x2="256.7500" y2="222.9502" stroke="#000000" stroke-width="1.0" />
  <rect
     style="fill:#ffffff;fill-opacity:1;fill-rule:nonzero;stroke:none"
     width="2"
     height="2"
     x="256.2500"
     y="231.9498"
     transform="rotate(-90.0000 256.7500 232.9498)" /> 
  <path
     style="fill:none;stroke:#000000;stroke-width:1px;stroke-linecap:butt;stroke-linejoin:miter;stroke-opacity:1"
     d="m 256.7500,230.9498 2,2 -2,2 m -2.370121,-4 2,2 -2,2"
     transform="rotate(-90.0000 256.7500 232.9498)"/>
  <line x1="256.7500" y1="242.9494" x2="289.2500" y2="262.9490" stroke="#000000" stroke-width="1.0" />
  <rect
     style="fill:#ffffff;stroke:none"
     width="5.5"
     height="2"
     x="270.2500"
     y="251.9492" 
     transform="rotate(31.6071 273.0000 252.9492)"    /> 
  <path
     style="fill:none;stroke:#000000;stroke-width:1px;stroke-linecap:butt;stroke-linejoin:miter;stroke-opacity:1"
    d="m 273.7500,250.9492 2,2 -2,2 m -1.5,-4 -2,2 2,2" transform="rotate(31.6071 273.0000 252.9492)"/>
  <line x1="256.7500" y1="222.9502" x2="256.7500" y2="202.9505" stroke="#8d07ef" stroke-width="1.0" />
  <rect
     style="fill:#ffffff;fill-opacity:1;fill-rule:nonzero;stroke:none"
     width="2"
     height="2"
     x="256.2500"
     y="211.9503"
     transform="rotate(270.0000 256.7500 212.9503)" /> 
  <path
     style="fill:none;stroke:#8d07ef;stroke-width:1px;stroke-linecap:butt;stroke-linejoin:miter;stroke-opacity:1"
     d="m 256.7500,210.9503 2,2 -2,2 m -2.370121,-4 2,2 -2,2"
     transform="rotate(270.0000 256.7500 212.9503)"/>
  <line x1="256.7500" y1="224.2002" x2="289.2500" y2="224.2002" stroke="#6301ce" stroke-width="1.0" />
  <line x1="256.7500" y1="221.7002" x2="289.2500" y2="221.7002" stroke="#6301ce" stroke-width="1.0" />
  <line x1="256.7500" y1="202.9505" x2="256.7500" y2="182.9513" stroke="#44006e" stroke-width="1.0" />
  <rect
     style="fill:#ffffff;fill-opacity:1;fill-rule:nonzero;stroke:none"
     width="2"
     height="2"
     x="256.2500"
     y="191.9509"
     transform="rotate(-90.0000 256.7500 192.9509)" /> 
  <path
     style="fill:none;stroke:#44006e;stroke-width:1px;stroke-linecap:butt;stroke-linejoin:miter;stroke-opacity:1"
     d="m 256.7500,190.9509 2,2 -2,2 m -2.370121,-4 2,2 -2,2"
     transform="rotate(-90.0000 256.7500 192.9509)"/>
  <line x1="256.7500" y1="202.9505" x2="289.2500" y2="202.9505" stroke="#000000" stroke-width="1.0" />
  <line x1="256.7500" y1="202.9505" x2="289.2500" y2="222.9502" stroke="#e07500" stroke-width="1.0" />
  <rect
     style="fill:#ffffff;stroke:none"
     width="5.5"
     height="2"
     x="270.2500"
     y="211.9503" 
     transform="rotate(31.6072 273.0000 212.9503)"    /> 
  <path
     style="fill:none;stroke:#e07500;stroke-width:1px;stroke-linecap:butt;stroke-linejoin:miter;stroke-opacity:1"
    d="m 273.7500,210.9503 2,2 -2,2 m -1.5,-4 -2,2 2,2" transform="rotate(31.6072 273.0000 212.9503)"/>
  <line x1="256.7500" y1="182.9513" x2="256.7501" y2="162.9514" stroke="#9e0fa8" stroke-width="1.0" />
  <rect
     style="fill:#ffffff;fill-opacity:1;fill-rule:nonzero;stroke:none"
     width="2"
     height="2"
     x="256.2500"
     y="171.9513"
     transform="rotate(-89.9997 256.7500 172.9513)" /> 
  <path
     style="fill:none;stroke:#9e0fa8;stroke-width:1px;stroke-linecap:butt;stroke-linejoin:miter;stroke-opacity:1"
     d="m 256.7500,170.9513 2,2 -2,2 m -2.370121,-4 2,2 -2,2"
     transform="rotate(-89.9997 256.7500 172.9513)"/>
  <line x1="256.7500" y1="184.2013" x2="289.2500" y2="184.2013" stroke="#000000" stroke-width="1.0" />
  <line x1="256.7500" y1="181.7013" x2="289.2500" y2="181.7013" stroke="#000000" stroke-width="1.0" />
  <line x1="256.7501" y1="164.2014" x2="289.2499" y2="164.2014" stroke="#000000" stroke-width="1.0" />
  <line x1="256.7501" y1="161.7014" x2="289.2499" y2="161.7014" stroke="#000000" stroke-width="1.0" />
  <line x1="256.7501" y1="162.9514" x2="289.2500" y2="182.9513" stroke="#eb9d00" stroke-width="1.0" />
  <rect
     style="fill:#ffffff;stroke:none"
     width="5.5"
     height="2"
     x="270.2500"
     y="171.9513" 
     transform="rotate(31.6074 273.0000 172.9513)"    /> 
  <path
     style="fill:none;stroke:#eb9d00;stroke-width:1px;stroke-linecap:butt;stroke-linejoin:miter;stroke-opacity:1"
    d="m 273.7500,170.9513 2,2 -2,2 m -1.5,-4 -2,2 2,2" transform="rotate(31.6074 273.0000 172.9513)"/>
  <line x1="256.7496" y1="142.9520" x2="256.6880" y2="122.9522" stroke="#8d07ef" stroke-width="1.0" />
  <rect
     style="fill:#ffffff;fill-opacity:1;fill-rule:nonzero;stroke:none"
     width="2"
     height="2"
     x="256.2188"
     y="131.9521"
     transform="rotate(269.8234 256.7188 132.9521)" /> 
  <path
     style="fill:none;stroke:#8d07ef;stroke-width:1px;stroke-linecap:butt;stroke-linejoin:miter;stroke-opacity:1"
     d="m 256.7188,130.9521 2,2 -2,2 m -2.370121,-4 2,2 -2,2"
     transform="rotate(269.8234 256.7188 132.9521)"/>
  <line x1="256.7496" y1="144.2020" x2="289.2504" y2="144.2020" stroke="#000000" stroke-width="1.0" />
  <line x1="256.7496" y1="141.7020" x2="289.2504" y2="141.7020" stroke="#000000" stroke-width="1.0" />
  <line x1="256.7496" y1="142.9520" x2="289.2499" y2="162.9514" stroke="#000000" stroke-width="1.0" />
  <rect
     style="fill:#ffffff;stroke:none"
     width="5.5"
     height="2"
     x="270.2498"
     y="151.9517" 
     transform="rotate(31.6065 272.9998 152.9517)"    /> 
  <path
     style="fill:none;stroke:#000000;stroke-width:1px;stroke-linecap:butt;stroke-linejoin:miter;stroke-opacity:1"
    d="m 273.7498,150.9517 2,2 -2,2 m -1.5,-4 -2,2 2,2" transform="rotate(31.6065 272.9998 152.9517)"/>
  <line x1="256.6880" y1="122.9522" x2="256.7290" y2="102.9526" stroke="#9e0fa8" stroke-width="1.0" />
  <rect
     style="fill:#ffffff;fill-opacity:1;fill-rule:nonzero;stroke:none"
     width="2"
     height="2"
     x="256.2085"
     y="111.9524"
     transform="rotate(-89.8825 256.7085 112.9524)" /> 
  <path
     style="fill:none;stroke:#9e0fa8;stroke-width:1px;stroke-linecap:butt;stroke-linejoin:miter;stroke-opacity:1"
     d="m 256.7085,110.9524 2,2 -2,2 m -2.370121,-4 2,2 -2,2"
     transform="rotate(-89.8825 256.7085 112.9524)"/>
  <line x1="256.6880" y1="121.3522" x2="289.3120" y2="121.3522" stroke="#7a03fd" stroke-width="1.0" />
  <line x1="256.7290" y1="102.9526" x2="263.0189" y2="83.9800" stroke="#ae1a38" stroke-width="1.0" />
  <rect
     style="fill:#ffffff;fill-opacity:1;fill-rule:nonzero;stroke:none"
     width="2"
     height="2"
     x="259.3740"
     y="92.4663"
     transform="rotate(-71.6582 259.8740 93.4663)" /> 
  <path
     style="fill:none;stroke:#ae1a38;stroke-width:1px;stroke-linecap:butt;stroke-linejoin:miter;stroke-opacity:1"
     d="m 259.8740,91.4663 2,2 -2,2 m -2.370121,-4 2,2 -2,2"
     transform="rotate(-71.6582 259.8740 93.4663)"/>
  <line x1="256.7290" y1="104.2026" x2="289.2710" y2="104.2026" stroke="#000000" stroke-width="1.0" />
  <line x1="256.7290" y1="101.7026" x2="289.2710" y2="101.7026" stroke="#000000" stroke-width="1.0" />
  <line x1="263.0189" y1="85.2300" x2="282.9811" y2="85.2300" stroke="#44006e" stroke-width="1.0" />
  <line x1="263.0189" y1="82.7300" x2="282.9811" y2="82.7300" stroke="#44006e" stroke-width="1.0" />
  <line x1="282.9811" y1="83.9800" x2="289.2710" y2="102.9526" stroke="#9e0fa8" stroke-width="1.0" />
  <rect
     style="fill:#ffffff;fill-opacity:1;fill-rule:nonzero;stroke:none"
     width="2"
     height="2"
     x="285.6260"
     y="92.4663"
     transform="rotate(71.6582 286.1260 93.4663)" /> 
  <path
     style="fill:none;stroke:#9e0fa8;stroke-width:1px;stroke-linecap:butt;stroke-linejoin:miter;stroke-opacity:1"
     d="m 286.1260,91.4663 2,2 -2,2 m -2.370121,-4 2,2 -2,2"
     transform="rotate(71.6582 286.1260 93.4663)"/>
  <line x1="289.2710" y1="102.9526" x2="289.3120" y2="122.9522" stroke="#44006e" stroke-width="1.0" />
  <rect
     style="fill:#ffffff;fill-opacity:1;fill-rule:nonzero;stroke:none"
     width="2"
     height="2"
     x="288.7915"
     y="111.9524"
     transform="rotate(89.8825 289.2915 112.9524)" /> 
  <path
     style="fill:none;stroke:#44006e;stroke-width:1px;stroke-linecap:butt;stroke-linejoin:miter;stroke-opacity:1"
     d="m 289.2915,110.9524 2,2 -2,2 m -2.370121,-4 2,2 -2,2"
     transform="rotate(89.8825 289.2915 112.9524)"/>
  <line x1="289.3120" y1="122.9522" x2="289.2504" y2="142.9520" stroke="#9e0fa8" stroke-width="1.0" />
  <rect
     style="fill:#ffffff;fill-opacity:1;fill-rule:nonzero;stroke:none"
     width="2"
     height="2"
     x="288.7812"
     y="131.9521"
     transform="rotate(90.1766 289.2812 132.9521)" /> 
  <path
     style="fill:none;stroke:#9e0fa8;stroke-width:1px;stroke-linecap:butt;stroke-linejoin:miter;stroke-opacity:1"
     d="m 289.2812,130.9521 2,2 -2,2 m -2.370121,-4 2,2 -2,2"
     transform="rotate(90.1766 289.2812 132.9521)"/>
  <line x1="289.2499" y1="162.9514" x2="289.2500" y2="182.9513" stroke="#ae1a38" stroke-width="1.0" />
  <rect
     style="fill:#ffffff;fill-opacity:1;fill-rule:nonzero;stroke:none"
     width="2"
     height="2"
     x="288.7500"
     y="171.9513"
     transform="rotate(89.9997 289.2500 172.9513)" /> 
  <path
     style="fill:none;stroke:#ae1a38;stroke-width:1px;stroke-linecap:butt;stroke-linejoin:miter;stroke-opacity:1"
     d="m 289.2500,170.9513 2,2 -2,2 m -2.370121,-4 2,2 -2,2"
     transform="rotate(89.9997 289.2500 172.9513)"/>
  <line x1="289.2500" y1="182.9513" x2="289.2500" y2="202.9505" stroke="#ae1a38" stroke-width="1.0" />
  <rect
     style="fill:#ffffff;fill-opacity:1;fill-rule:nonzero;stroke:none"
     width="2"
     height="2"
     x="288.7500"
     y="191.9509"
     transform="rotate(90.0000 289.2500 192.9509)" /> 
  <path
     style="fill:none;stroke:#ae1a38;stroke-width:1px;stroke-linecap:butt;stroke-linejoin:miter;stroke-opacity:1"
     d="m 289.2500,190.9509 2,2 -2,2 m -2.370121,-4 2,2 -2,2"
     transform="rotate(90.0000 289.2500 192.9509)"/>
  <line x1="289.2500" y1="202.9505" x2="289.2500" y2="222.9502" stroke="#d45500" stroke-width="1.0" />
  <rect
     style="fill:#ffffff;fill-opacity:1;fill-rule:nonzero;stroke:none"
     width="2"
     height="2"
     x="288.7500"
     y="211.9503"
     transform="rotate(90.0000 289.2500 212.9503)" /> 
  <path
     style="fill:none;stroke:#d45500;stroke-width:1px;stroke-linecap:butt;stroke-linejoin:miter;stroke-opacity:1"
     d="m 289.2500,210.9503 2,2 -2,2 m -2.370121,-4 2,2 -2,2"
     transform="rotate(90.0000 289.2500 212.9503)"/>
  <line x1="289.2500" y1="222.9502" x2="289.2500" y2="242.9494" stroke="#000000" stroke-width="1.0" />
  <rect
     style="fill:#ffffff;fill-opacity:1;fill-rule:nonzero;stroke:none"
     width="2"
     height="2"
     x="288.7500"
     y="231.9498"
     transform="rotate(90.0000 289.2500 232.9498)" /> 
  <path
     style="fill:none;stroke:#000000;stroke-width:1px;stroke-linecap:butt;stroke-linejoin:miter;stroke-opacity:1"
     d="m 289.2500,230.9498 2,2 -2,2 m -2.370121,-4 2,2 -2,2"
     transform="rotate(90.0000 289.2500 232.9498)"/>
  <line x1="289.2500" y1="262.9490" x2="289.2500" y2="282.9482" stroke="#6301ce" stroke-width="1.0" />
  <rect
     style="fill:#ffffff;fill-opacity:1;fill-rule:nonzero;stroke:none"
     width="2"
     height="2"
     x="288.7500"
     y="271.9486"
     transform="rotate(90.0000 289.2500 272.9486)" /> 
  <path
     style="fill:none;stroke:#6301ce;stroke-width:1px;stroke-linecap:butt;stroke-linejoin:miter;stroke-opacity:1"
     d="m 289.2500,270.9486 2,2 -2,2 m -2.370121,-4 2,2 -2,2"
     transform="rotate(90.0000 289.2500 272.9486)"/>
  <line x1="289.2500" y1="282.9482" x2="289.2500" y2="302.9479" stroke="#44006e" stroke-width="1.0" />
  <rect
     style="fill:#ffffff;fill-opacity:1;fill-rule:nonzero;stroke:none"
     width="2"
     height="2"
     x="288.7500"
     y="291.9480"
     transform="rotate(90.0000 289.2500 292.9480)" /> 
  <path
     style="fill:none;stroke:#44006e;stroke-width:1px;stroke-linecap:butt;stroke-linejoin:miter;stroke-opacity:1"
     d="m 289.2500,290.9480 2,2 -2,2 m -2.370121,-4 2,2 -2,2"
     transform="rotate(90.0000 289.2500 292.9480)"/>
  <line x1="289.2500" y1="302.9479" x2="289.2500" y2="322.9470" stroke="#8d07ef" stroke-width="1.0" />
  <rect
     style="fill:#ffffff;fill-opacity:1;fill-rule:nonzero;stroke:none"
     width="2"
     height="2"
     x="288.7500"
     y="311.9474"
     transform="rotate(90.0000 289.2500 312.9474)" /> 
  <path
     style="fill:none;stroke:#8d07ef;stroke-width:1px;stroke-linecap:butt;stroke-linejoin:miter;stroke-opacity:1"
     d="m 289.2500,310.9474 2,2 -2,2 m -2.370121,-4 2,2 -2,2"
     transform="rotate(90.0000 289.2500 312.9474)"/>
  <line x1="289.2500" y1="322.9470" x2="289.2500" y2="342.9468" stroke="#eb9d00" stroke-width="1.0" />
  <rect
     style="fill:#ffffff;fill-opacity:1;fill-rule:nonzero;stroke:none"
     width="2"
     height="2"
     x="288.7500"
     y="331.9469"
     transform="rotate(90.0000 289.2500 332.9469)" /> 
  <path
     style="fill:none;stroke:#eb9d00;stroke-width:1px;stroke-linecap:butt;stroke-linejoin:miter;stroke-opacity:1"
     d="m 289.2500,330.9469 2,2 -2,2 m -2.370121,-4 2,2 -2,2"
     transform="rotate(90.0000 289.2500 332.9469)"/>
  <line x1="289.2500" y1="342.9468" x2="289.2500" y2="362.9459" stroke="#000000" stroke-width="1.0" />
  <rect
     style="fill:#ffffff;fill-opacity:1;fill-rule:nonzero;stroke:none"
     width="2"
     height="2"
     x="288.7500"
     y="351.9464"
     transform="rotate(90.0000 289.2500 352.9464)" /> 
  <path
     style="fill:none;stroke:#000000;stroke-width:1px;stroke-linecap:butt;stroke-linejoin:miter;stroke-opacity:1"
     d="m 289.2500,350.9464 2,2 -2,2 m -2.370121,-4 2,2 -2,2"
     transform="rotate(90.0000 289.2500 352.9464)"/>
  <line x1="289.2500" y1="362.9459" x2="289.2500" y2="382.9458" stroke="#6301ce" stroke-width="1.0" />
  <rect
     style="fill:#ffffff;fill-opacity:1;fill-rule:nonzero;stroke:none"
     width="2"
     height="2"
     x="288.7500"
     y="371.9459"
     transform="rotate(90.0000 289.2500 372.9459)" /> 
  <path
     style="fill:none;stroke:#6301ce;stroke-width:1px;stroke-linecap:butt;stroke-linejoin:miter;stroke-opacity:1"
     d="m 289.2500,370.9459 2,2 -2,2 m -2.370121,-4 2,2 -2,2"
     transform="rotate(90.0000 289.2500 372.9459)"/>
  <line x1="289.2500" y1="382.9458" x2="289.2500" y2="402.9452" stroke="#9e0fa8" stroke-width="1.0" />
  <rect
     style="fill:#ffffff;fill-opacity:1;fill-rule:nonzero;stroke:none"
     width="2"
     height="2"
     x="288.7500"
     y="391.9455"
     transform="rotate(90.0000 289.2500 392.9455)" /> 
  <path
     style="fill:none;stroke:#9e0fa8;stroke-width:1px;stroke-linecap:butt;stroke-linejoin:miter;stroke-opacity:1"
     d="m 289.2500,390.9455 2,2 -2,2 m -2.370121,-4 2,2 -2,2"
     transform="rotate(90.0000 289.2500 392.9455)"/>
  <line x1="289.2500" y1="422.9452" x2="289.2500" y2="442.9448" stroke="#6301ce" stroke-width="1.0" />
  <rect
     style="fill:#ffffff;fill-opacity:1;fill-rule:nonzero;stroke:none"
     width="2"
     height="2"
     x="288.7500"
     y="431.9450"
     transform="rotate(90.0000 289.2500 432.9450)" /> 
  <path
     style="fill:none;stroke:#6301ce;stroke-width:1px;stroke-linecap:butt;stroke-linejoin:miter;stroke-opacity:1"
     d="m 289.2500,430.9450 2,2 -2,2 m -2.370121,-4 2,2 -2,2"
     transform="rotate(90.0000 289.2500 432.9450)"/>
  <line x1="289.2500" y1="442.9448" x2="289.2500" y2="462.9448" stroke="#6301ce" stroke-width="1.0" />
  <rect
     style="fill:#ffffff;fill-opacity:1;fill-rule:nonzero;stroke:none"
     width="2"
     height="2"
     x="288.2500"
     y="451.9448" 
     transform="rotate(90.0000 289.2500 452.9448)" /> 
  <path
     style="fill:none;stroke:#6301ce;stroke-width:1px;stroke-linecap:butt;stroke-linejoin:miter;stroke-opacity:1"
     d="m 292.2500,450.9448 -2,2 2,2 m -6,-4 2,2 -2,2"
     transform="rotate(90.0000 289.2500 452.9448)"/>
<circle cx="256.7500" cy="462.9448" r="5.0" stroke="#595959" stroke-width="1.0" fill="#ffffff"/>
<text x="256.7500" y="465.6448" text-anchor="middle" font-family="Helvetica" font-size="7.5" fill="#000000" >A</text>
<circle cx="256.7500" cy="442.9448" r="5.0" stroke="#595959" stroke-width="1.0" fill="#ffffff"/>
<text x="256.7500" y="445.6448" text-anchor="middle" font-family="Helvetica" font-size="7.5" fill="#000000" >C</text>
<circle cx="256.7500" cy="422.9452" r="5.0" stroke="#595959" stroke-width="1.0" fill="#ffffff"/>
<text x="256.7500" y="425.6452" text-anchor="middle" font-family="Helvetica" font-size="7.5" fill="#000000" >U</text>
<circle cx="256.7500" cy="402.9452" r="5.0" stroke="#595959" stroke-width="1.0" fill="#ffffff"/>
<text x="256.7500" y="405.6452" text-anchor="middle" font-family="Helvetica" font-size="7.5" fill="#000000" >G</text>
<circle cx="256.7500" cy="382.9458" r="5.0" stroke="#595959" stroke-width="1.0" fill="#ffffff"/>
<text x="256.7500" y="385.6458" text-anchor="middle" font-family="Helvetica" font-size="7.5" fill="#000000" >G</text>
<circle cx="256.7500" cy="362.9459" r="5.0" stroke="#595959" stroke-width="1.0" fill="#ffffff"/>
<text x="256.7500" y="365.6459" text-anchor="middle" font-family="Helvetica" font-size="7.5" fill="#000000" >A</text>
<circle cx="256.7500" cy="342.9468" r="5.0" stroke="#595959" stroke-width="1.0" fill="#ffffff"/>
<text x="256.7500" y="345.6468" text-anchor="middle" font-family="Helvetica" font-size="7.5" fill="#000000" >C</text>
<circle cx="256.7500" cy="322.9470" r="5.0" stroke="#595959" stroke-width="1.0" fill="#ffffff"/>
<text x="256.7500" y="325.6470" text-anchor="middle" font-family="Helvetica" font-size="7.5" fill="#000000" >A</text>
<circle cx="256.7500" cy="302.9479" r="5.0" stroke="#595959" stroke-width="1.0" fill="#ffffff"/>
<text x="256.7500" y="305.6479" text-anchor="middle" font-family="Helvetica" font-size="7.5" fill="#000000" >I</text>
<circle cx="256.7500" cy="282.9482" r="5.0" stroke="#595959" stroke-width="1.0" fill="orange"/>
<text x="256.7500" y="285.6482" text-anchor="middle" font-family="Helvetica" font-size="7.5" fill="#000000" >I</text>
<circle cx="256.7500" cy="262.9490" r="5.0" stroke="#595959" stroke-width="1.0" fill="#ffffff"/>
<text x="256.7500" y="265.6490" text-anchor="middle" font-family="Helvetica" font-size="7.5" fill="#000000" >U</text>
<circle cx="256.7500" cy="242.9494" r="5.0" stroke="#595959" stroke-width="1.0" fill="#ffffff"/>
<text x="256.7500" y="245.6494" text-anchor="middle" font-family="Helvetica" font-size="7.5" fill="#000000" >I</text>
<circle cx="256.7500" cy="222.9502" r="5.0" stroke="#595959" stroke-width="1.0" fill="#ffffff"/>
<text x="256.7500" y="225.6502" text-anchor="middle" font-family="Helvetica" font-size="7.5" fill="#000000" >C</text>
<circle cx="256.7500" cy="202.9505" r="5.0" stroke="#595959" stroke-width="1.0" fill="#ffffff"/>
<text x="256.7500" y="205.6505" text-anchor="middle" font-family="Helvetica" font-size="7.5" fill="#000000" >U</text>
<circle cx="256.7500" cy="182.9513" r="5.0" stroke="#595959" stroke-width="1.0" fill="#ffffff"/>
<text x="256.7500" y="185.6513" text-anchor="middle" font-family="Helvetica" font-size="7.5" fill="#000000" >C</text>
<circle cx="256.7501" cy="162.9514" r="5.0" stroke="#595959" stroke-width="1.0" fill="#ffffff"/>
<text x="256.7501" y="165.6514" text-anchor="middle" font-family="Helvetica" font-size="7.5" fill="#000000" >C</text>
<circle cx="256.7496" cy="142.9520" r="5.0" stroke="#595959" stroke-width="1.0" fill="#ffffff"/>
<text x="256.7496" y="145.6520" text-anchor="middle" font-family="Helvetica" font-size="7.5" fill="#000000" >G</text>
<circle cx="256.6880" cy="122.9522" r="5.0" stroke="#595959" stroke-width="1.0" fill="#ffffff"/>
<text x="256.6880" y="125.6522" text-anchor="middle" font-family="Helvetica" font-size="7.5" fill="#000000" >A</text>
<circle cx="256.7290" cy="102.9526" r="5.0" stroke="#595959" stroke-width="1.0" fill="#ffffff"/>
<text x="256.7290" y="105.6526" text-anchor="middle" font-family="Helvetica" font-size="7.5" fill="#000000" >G</text>
<circle cx="263.0189" cy="83.9800" r="5.0" stroke="#595959" stroke-width="1.0" fill="#ffffff"/>
<text x="263.0189" y="86.6800" text-anchor="middle" font-family="Helvetica" font-size="7.5" fill="#000000" >G</text>
<circle cx="282.9811" cy="83.9800" r="5.0" stroke="#595959" stroke-width="1.0" fill="#ffffff"/>
<text x="282.9811" y="86.6800" text-anchor="middle" font-family="Helvetica" font-size="7.5" fill="#000000" >C</text>
<circle cx="289.2710" cy="102.9526" r="5.0" stroke="#595959" stroke-width="1.0" fill="#ffffff"/>
<text x="289.2710" y="105.6526" text-anchor="middle" font-family="Helvetica" font-size="7.5" fill="#000000" >C</text>
<circle cx="289.3120" cy="122.9522" r="5.0" stroke="#595959" stroke-width="1.0" fill="#ffffff"/>
<text x="289.3120" y="125.6522" text-anchor="middle" font-family="Helvetica" font-size="7.5" fill="#000000" >U</text>
<circle cx="289.2504" cy="142.9520" r="5.0" stroke="#595959" stroke-width="1.0" fill="#ffffff"/>
<text x="289.2504" y="145.6520" text-anchor="middle" font-family="Helvetica" font-size="7.5" fill="#000000" >C</text>
<circle cx="289.2499" cy="162.9514" r="5.0" stroke="#595959" stroke-width="1.0" fill="#ffffff"/>
<text x="289.2499" y="165.6514" text-anchor="middle" font-family="Helvetica" font-size="7.5" fill="#000000" >G</text>
<circle cx="289.2500" cy="182.9513" r="5.0" stroke="#595959" stroke-width="1.0" fill="#ffffff"/>
<text x="289.2500" y="185.6513" text-anchor="middle" font-family="Helvetica" font-size="7.5" fill="#000000" >G</text>
<circle cx="289.2500" cy="202.9505" r="5.0" stroke="#595959" stroke-width="1.0" fill="#ffffff"/>
<text x="289.2500" y="205.6505" text-anchor="middle" font-family="Helvetica" font-size="7.5" fill="#000000" >A</text>
<circle cx="289.2500" cy="222.9502" r="5.0" stroke="#595959" stroke-width="1.0" fill="#ffffff"/>
<text x="289.2500" y="225.6502" text-anchor="middle" font-family="Helvetica" font-size="7.5" fill="#000000" >G</text>
<circle cx="289.2500" cy="242.9494" r="5.0" stroke="#595959" stroke-width="1.0" fill="#ffffff"/>
<text x="289.2500" y="245.6494" text-anchor="middle" font-family="Helvetica" font-size="7.5" fill="#000000" >U</text>
<circle cx="289.2500" cy="262.9490" r="5.0" stroke="#595959" stroke-width="1.0" fill="orange"/>
<text x="289.2500" y="265.6490" text-anchor="middle" font-family="Helvetica" font-size="7.5" fill="#000000" >I</text>
<circle cx="289.2500" cy="282.9482" r="5.0" stroke="#595959" stroke-width="1.0" fill="#ffffff"/>
<text x="289.2500" y="285.6482" text-anchor="middle" font-family="Helvetica" font-size="7.5" fill="#000000" >U</text>
<circle cx="289.2500" cy="302.9479" r="5.0" stroke="#595959" stroke-width="1.0" fill="#ffffff"/>
<text x="289.2500" y="305.6479" text-anchor="middle" font-family="Helvetica" font-size="7.5" fill="#000000" >U</text>
<circle cx="289.2500" cy="322.9470" r="5.0" stroke="#595959" stroke-width="1.0" fill="#ffffff"/>
<text x="289.2500" y="325.6470" text-anchor="middle" font-family="Helvetica" font-size="7.5" fill="#000000" >U</text>
<circle cx="289.2500" cy="342.9468" r="5.0" stroke="#595959" stroke-width="1.0" fill="#ffffff"/>
<text x="289.2500" y="345.6468" text-anchor="middle" font-family="Helvetica" font-size="7.5" fill="#000000" >G</text>
<circle cx="289.2500" cy="362.9459" r="5.0" stroke="#595959" stroke-width="1.0" fill="#ffffff"/>
<text x="289.2500" y="365.6459" text-anchor="middle" font-family="Helvetica" font-size="7.5" fill="#000000" >U</text>
<circle cx="289.2500" cy="382.9458" r="5.0" stroke="#595959" stroke-width="1.0" fill="#ffffff"/>
<text x="289.2500" y="385.6458" text-anchor="middle" font-family="Helvetica" font-size="7.5" fill="#000000" >C</text>
<circle cx="289.2500" cy="402.9452" r="5.0" stroke="#595959" stroke-width="1.0" fill="#ffffff"/>
<text x="289.2500" y="405.6452" text-anchor="middle" font-family="Helvetica" font-size="7.5" fill="#000000" >C</text>
<circle cx="289.2500" cy="422.9452" r="5.0" stroke="#595959" stroke-width="1.0" fill="#ffffff"/>
<text x="289.2500" y="425.6452" text-anchor="middle" font-family="Helvetica" font-size="7.5" fill="#000000" >A</text>
<circle cx="289.2500" cy="442.9448" r="5.0" stroke="#595959" stroke-width="1.0" fill="#ffffff"/>
<text x="289.2500" y="445.6448" text-anchor="middle" font-family="Helvetica" font-size="7.5" fill="#000000" >G</text>
<circle cx="289.2500" cy="462.9448" r="5.0" stroke="#595959" stroke-width="1.0" fill="#ffffff"/>
<text x="289.2500" y="465.6448" text-anchor="middle" font-family="Helvetica" font-size="7.5" fill="#000000" >U</text>
</svg>
