<?xml version="1.0" encoding="UTF-8"?>
<!DOCTYPE svg PUBLIC "-//W3C//DTD SVG 1.1//EN" 
"http://www.w3.org/Graphics/SVG/1.1/DTD/svg11.dtd">

<svg version="1.1"
   width="546px"
   height="546px"
xmlns="http://www.w3.org/2000/svg">
    <rect width="100%" height="100%" fill="white"/>

  <line x1="256.7500" y1="422.9466" x2="256.7500" y2="402.9467" stroke="#595959"
     style="stroke-width:2;stroke-miterlimit:4;stroke-dasharray:1,1;stroke-dashoffset:0" />
  <line x1="256.7500" y1="342.9476" x2="256.7500" y2="322.9476" stroke="#595959"
     style="stroke-width:2;stroke-miterlimit:4;stroke-dasharray:1,1;stroke-dashoffset:0" />
  <line x1="256.7500" y1="262.9489" x2="256.7500" y2="242.9489" stroke="#595959"
     style="stroke-width:2;stroke-miterlimit:4;stroke-dasharray:1,1;stroke-dashoffset:0" />
  <line x1="256.7501" y1="162.9501" x2="256.7471" y2="142.9505" stroke="#595959"
     style="stroke-width:2;stroke-miterlimit:4;stroke-dasharray:1,1;stroke-dashoffset:0" />
  <line x1="289.2529" y1="142.9505" x2="289.2499" y2="162.9501" stroke="#595959"
     style="stroke-width:2;stroke-miterlimit:4;stroke-dasharray:1,1;stroke-dashoffset:0" />
  <line x1="289.2500" y1="242.9489" x2="289.2500" y2="262.9489" stroke="#595959"
     style="stroke-width:2;stroke-miterlimit:4;stroke-dasharray:1,1;stroke-dashoffset:0" />
  <line x1="289.2500" y1="322.9476" x2="289.2500" y2="342.9476" stroke="#595959"
     style="stroke-width:2;stroke-miterlimit:4;stroke-dasharray:1,1;stroke-dashoffset:0" />
  <line x1="289.2500" y1="402.9467" x2="289.2500" y2="422.9466" stroke="#595959"
     style="stroke-width:2;stroke-miterlimit:4;stroke-dasharray:1,1;stroke-dashoffset:0" />
  <line x1="256.7500" y1="461.3464" x2="289.2500" y2="461.3464" stroke="#da6400" stroke-width="1.0" />
  <circle cx="273.0000" cy="461.3464" r="2.25" stroke="#da6400" stroke-width="1.0" fill="#da6400"/>
  <line x1="256.7500" y1="444.5465" x2="289.2500" y2="444.5465" stroke="#eda600" stroke-width="1.0" />
  <circle cx="273.0000" cy="444.5465" r="2.25" stroke="#eda600" stroke-width="1.0" fill="#eda600"/>
  <line x1="256.7500" y1="384.5470" x2="289.2500" y2="384.5470" stroke="#eda600" stroke-width="1.0" />
  <circle cx="273.0000" cy="384.5470" r="2.25" stroke="#eda600" stroke-width="1.0" fill="#eda600"/>
  <line x1="256.7500" y1="364.5471" x2="289.2500" y2="364.5471" stroke="#da6400" stroke-width="1.0" />
  <circle cx="273.0000" cy="364.5471" r="2.25" stroke="#da6400" stroke-width="1.0" fill="#da6400"/>
  <line x1="256.7500" y1="324.5476" x2="289.2500" y2="324.5476" stroke="#e58400" stroke-width="1.0" />
  <circle cx="273.0000" cy="324.5476" r="2.25" stroke="#e58400" stroke-width="1.0" fill="#e58400"/>
  <line x1="256.7500" y1="301.3482" x2="289.2500" y2="301.3482" stroke="#7102f1" stroke-width="1.0" />
  <circle cx="273.0000" cy="301.3482" r="2.25" stroke="#7102f1" stroke-width="1.0" fill="#7102f1"/>
  <line x1="256.7500" y1="304.5482" x2="289.2500" y2="304.5482" stroke="#eda600" stroke-width="1.0" />
  <circle cx="273.0000" cy="304.5482" r="2.25" stroke="#eda600" stroke-width="1.0" fill="#eda600"/>
  <line x1="256.7500" y1="281.3482" x2="289.2500" y2="281.3482" stroke="#e58400" stroke-width="1.0" />
  <circle cx="273.0000" cy="281.3482" r="2.25" stroke="#e58400" stroke-width="1.0" fill="#e58400"/>
  <line x1="256.7500" y1="284.5482" x2="289.2500" y2="284.5482" stroke="#9309df" stroke-width="1.0" />
  <circle cx="273.0000" cy="284.5482" r="2.25" stroke="#9309df" stroke-width="1.0" fill="#9309df"/>
  <line x1="256.7500" y1="259.7489" x2="289.2500" y2="259.7489" stroke="#a21194" stroke-width="1.0" />
  <circle cx="273.0000" cy="259.7489" r="2.25" stroke="#a21194" stroke-width="1.0" fill="#a21194"/>
  <line x1="256.7500" y1="262.9489" x2="289.2500" y2="262.9489" stroke="#eda600" stroke-width="1.0" />
  <circle cx="273.0000" cy="262.9489" r="2.25" stroke="#eda600" stroke-width="1.0" fill="#eda600"/>
  <line x1="256.7500" y1="266.1489" x2="289.2500" y2="266.1489" stroke="#e58400" stroke-width="1.0" />
  <circle cx="276.5000" cy="266.1489" r="2.25" stroke="#e58400" stroke-width="1.0" fill="#e58400"
    transform="rotate(0.0000 273.0000 266.1489)" />
  <path d="M 271.2500 268.3989 L 271.2500 263.8989 L 267.2500 266.1489 z" style="stroke:#e58400;stroke-width:1.0" fill="#e58400" 
    transform="rotate(0.0000 273.0000 266.1489)"/>
  <line x1="256.7500" y1="262.9489" x2="289.2500" y2="282.9482" stroke="#e58400" stroke-width="1.0" />
  <circle cx="273.0000" cy="272.9486" r="2.25" stroke="#e58400" stroke-width="1.0" fill="#e58400"/>
  <line x1="256.7500" y1="239.7489" x2="289.2500" y2="239.7489" stroke="#9309df" stroke-width="1.0" />
  <circle cx="273.0000" cy="239.7489" r="2.25" stroke="#9309df" stroke-width="1.0" fill="#9309df"/>
  <line x1="256.7500" y1="242.9489" x2="289.2500" y2="242.9489" stroke="#e58400" stroke-width="1.0" />
  <circle cx="276.5000" cy="242.9489" r="2.25" stroke="#e58400" stroke-width="1.0" fill="#e58400"
    transform="rotate(180.0000 273.0000 242.9489)" />
  <path d="M 271.2500 245.1989 L 271.2500 240.6989 L 267.2500 242.9489 z" style="stroke:#e58400;stroke-width:1.0" fill="#e58400" 
    transform="rotate(180.0000 273.0000 242.9489)"/>
  <line x1="256.7500" y1="246.1489" x2="289.2500" y2="246.1489" stroke="#eda600" stroke-width="1.0" />
  <circle cx="273.0000" cy="246.1489" r="2.25" stroke="#eda600" stroke-width="1.0" fill="#eda600"/>
  <line x1="256.7500" y1="204.5495" x2="289.2500" y2="204.5495" stroke="#eda600" stroke-width="1.0" />
  <circle cx="273.0000" cy="204.5495" r="2.25" stroke="#eda600" stroke-width="1.0" fill="#eda600"/>
  <line x1="256.7471" y1="144.5505" x2="289.2529" y2="144.5505" stroke="#eda600" stroke-width="1.0" />
  <circle cx="273.0000" cy="144.5505" r="2.25" stroke="#eda600" stroke-width="1.0" fill="#eda600"/>
  <line x1="256.6789" y1="124.5506" x2="289.3211" y2="124.5506" stroke="#eda600" stroke-width="1.0" />
  <circle cx="273.0000" cy="124.5506" r="2.25" stroke="#eda600" stroke-width="1.0" fill="#eda600"/>
  <line x1="263.0189" y1="85.5788" x2="282.9811" y2="85.5788" stroke="#eda600" stroke-width="1.0" />
  <circle cx="273.0000" cy="85.5788" r="2.25" stroke="#eda600" stroke-width="1.0" fill="#eda600"/>
  <line x1="256.7500" y1="462.9464" x2="256.7500" y2="442.9465" stroke="#000000" stroke-width="1.0" />
  <rect
     style="fill:#ffffff;fill-opacity:1;fill-rule:nonzero;stroke:none"
     width="2"
     height="2"
     x="256.2500"
     y="451.9464"
     transform="rotate(270.0000 256.7500 452.9464)" /> 
  <path
     style="fill:none;stroke:#000000;stroke-width:1px;stroke-linecap:butt;stroke-linejoin:miter;stroke-opacity:1"
     d="m 256.7500,450.9464 2,2 -2,2 m -2.370121,-4 2,2 -2,2"
     transform="rotate(270.0000 256.7500 452.9464)"/>
  <line x1="256.7500" y1="464.5464" x2="289.2500" y2="464.5464" stroke="#a21194" stroke-width="1.0" />
  <line x1="256.7500" y1="442.9465" x2="256.7500" y2="422.9466" stroke="#5d01be" stroke-width="1.0" />
  <rect
     style="fill:#ffffff;fill-opacity:1;fill-rule:nonzero;stroke:none"
     width="2"
     height="2"
     x="256.2500"
     y="431.9465"
     transform="rotate(270.0000 256.7500 432.9465)" /> 
  <path
     style="fill:none;stroke:#5d01be;stroke-width:1px;stroke-linecap:butt;stroke-linejoin:miter;stroke-opacity:1"
     d="m 256.7500,430.9465 2,2 -2,2 m -2.370121,-4 2,2 -2,2"
     transform="rotate(270.0000 256.7500 432.9465)"/>
  <line x1="256.7500" y1="442.5965" x2="289.2500" y2="442.5965" stroke="#5d01be" stroke-width="1.0" />
  <line x1="256.7500" y1="440.0965" x2="289.2500" y2="440.0965" stroke="#5d01be" stroke-width="1.0" />
  <line x1="256.7500" y1="422.9466" x2="289.2500" y2="422.9466" stroke="#000000" stroke-width="1.0" />
  <line x1="256.7500" y1="402.9467" x2="256.7500" y2="382.9470" stroke="#bb2700" stroke-width="1.0" />
  <rect
     style="fill:#ffffff;fill-opacity:1;fill-rule:nonzero;stroke:none"
     width="2"
     height="2"
     x="256.2500"
     y="391.9469"
     transform="rotate(270.0000 256.7500 392.9469)" /> 
  <path
     style="fill:none;stroke:#bb2700;stroke-width:1px;stroke-linecap:butt;stroke-linejoin:miter;stroke-opacity:1"
     d="m 256.7500,390.9469 2,2 -2,2 m -2.370121,-4 2,2 -2,2"
     transform="rotate(270.0000 256.7500 392.9469)"/>
  <line x1="256.7500" y1="404.1967" x2="289.2500" y2="404.1967" stroke="#400062" stroke-width="1.0" />
  <line x1="256.7500" y1="401.6967" x2="289.2500" y2="401.6967" stroke="#400062" stroke-width="1.0" />
  <line x1="256.7500" y1="402.9467" x2="289.2500" y2="422.9466" stroke="#000000" stroke-width="1.0" />
  <rect
     style="fill:#ffffff;stroke:none"
     width="5.5"
     height="2"
     x="270.2500"
     y="411.9467" 
     transform="rotate(31.6075 273.0000 412.9467)"    /> 
  <path
     style="fill:none;stroke:#000000;stroke-width:1px;stroke-linecap:butt;stroke-linejoin:miter;stroke-opacity:1"
    d="m 273.7500,410.9467 2,2 -2,2 m -1.5,-4 -2,2 2,2" transform="rotate(31.6075 273.0000 412.9467)"/>
  <line x1="256.7500" y1="382.9470" x2="256.7500" y2="362.9471" stroke="#bb2700" stroke-width="1.0" />
  <rect
     style="fill:#ffffff;fill-opacity:1;fill-rule:nonzero;stroke:none"
     width="2"
     height="2"
     x="256.2500"
     y="371.9471"
     transform="rotate(270.0000 256.7500 372.9471)" /> 
  <path
     style="fill:none;stroke:#bb2700;stroke-width:1px;stroke-linecap:butt;stroke-linejoin:miter;stroke-opacity:1"
     d="m 256.7500,370.9471 2,2 -2,2 m -2.370121,-4 2,2 -2,2"
     transform="rotate(270.0000 256.7500 372.9471)"/>
  <line x1="256.7500" y1="382.5970" x2="289.2500" y2="382.5970" stroke="#5d01be" stroke-width="1.0" />
  <line x1="256.7500" y1="380.0970" x2="289.2500" y2="380.0970" stroke="#5d01be" stroke-width="1.0" />
  <line x1="256.7500" y1="382.9470" x2="289.2500" y2="402.9467" stroke="#eda600" stroke-width="1.0" />
  <rect
     style="fill:#ffffff;stroke:none"
     width="5.5"
     height="2"
     x="270.2500"
     y="391.9469" 
     transform="rotate(31.6070 273.0000 392.9469)"    /> 
  <path
     style="fill:none;stroke:#eda600;stroke-width:1px;stroke-linecap:butt;stroke-linejoin:miter;stroke-opacity:1"
    d="m 273.7500,390.9469 2,2 -2,2 m -1.5,-4 -2,2 2,2" transform="rotate(31.6070 273.0000 392.9469)"/>
  <line x1="256.7500" y1="362.9471" x2="256.7500" y2="342.9476" stroke="#000000" stroke-width="1.0" />
  <rect
     style="fill:#ffffff;fill-opacity:1;fill-rule:nonzero;stroke:none"
     width="2"
     height="2"
     x="256.2500"
     y="351.9473"
     transform="rotate(270.0000 256.7500 352.9473)" /> 
  <path
     style="fill:none;stroke:#000000;stroke-width:1px;stroke-linecap:butt;stroke-linejoin:miter;stroke-opacity:1"
     d="m 256.7500,350.9473 2,2 -2,2 m -2.370121,-4 2,2 -2,2"
     transform="rotate(270.0000 256.7500 352.9473)"/>
  <line x1="256.7500" y1="361.3471" x2="289.2500" y2="361.3471" stroke="#8405fd" stroke-width="1.0" />
  <line x1="256.7500" y1="344.1976" x2="289.2500" y2="344.1976" stroke="#400062" stroke-width="1.0" />
  <line x1="256.7500" y1="341.6976" x2="289.2500" y2="341.6976" stroke="#400062" stroke-width="1.0" />
  <line x1="256.7500" y1="322.9476" x2="256.7500" y2="302.9482" stroke="#400062" stroke-width="1.0" />
  <rect
     style="fill:#ffffff;fill-opacity:1;fill-rule:nonzero;stroke:none"
     width="2"
     height="2"
     x="256.2500"
     y="311.9479"
     transform="rotate(270.0000 256.7500 312.9479)" /> 
  <path
     style="fill:none;stroke:#400062;stroke-width:1px;stroke-linecap:butt;stroke-linejoin:miter;stroke-opacity:1"
     d="m 256.7500,310.9479 2,2 -2,2 m -2.370121,-4 2,2 -2,2"
     transform="rotate(270.0000 256.7500 312.9479)"/>
  <line x1="256.7500" y1="321.3476" x2="289.2500" y2="321.3476" stroke="#7102f1" stroke-width="1.0" />
  <line x1="256.7500" y1="322.9476" x2="289.2500" y2="342.9476" stroke="#400062" stroke-width="1.0" />
  <rect
     style="fill:#ffffff;stroke:none"
     width="5.5"
     height="2"
     x="270.2500"
     y="331.9476" 
     transform="rotate(31.6075 273.0000 332.9476)"    /> 
  <path
     style="fill:none;stroke:#400062;stroke-width:1px;stroke-linecap:butt;stroke-linejoin:miter;stroke-opacity:1"
    d="m 273.7500,330.9476 2,2 -2,2 m -1.5,-4 -2,2 2,2" transform="rotate(31.6075 273.0000 332.9476)"/>
  <line x1="256.7500" y1="302.9482" x2="256.7500" y2="282.9482" stroke="#c53700" stroke-width="1.0" />
  <rect
     style="fill:#ffffff;fill-opacity:1;fill-rule:nonzero;stroke:none"
     width="2"
     height="2"
     x="256.2500"
     y="291.9482"
     transform="rotate(-90.0000 256.7500 292.9482)" /> 
  <path
     style="fill:none;stroke:#c53700;stroke-width:1px;stroke-linecap:butt;stroke-linejoin:miter;stroke-opacity:1"
     d="m 256.7500,290.9482 2,2 -2,2 m -2.370121,-4 2,2 -2,2"
     transform="rotate(-90.0000 256.7500 292.9482)"/>
  <line x1="256.7500" y1="282.9482" x2="256.7500" y2="262.9489" stroke="#7102f1" stroke-width="1.0" />
  <rect
     style="fill:#ffffff;fill-opacity:1;fill-rule:nonzero;stroke:none"
     width="2"
     height="2"
     x="256.2500"
     y="271.9486"
     transform="rotate(-90.0000 256.7500 272.9486)" /> 
  <path
     style="fill:none;stroke:#7102f1;stroke-width:1px;stroke-linecap:butt;stroke-linejoin:miter;stroke-opacity:1"
     d="m 256.7500,270.9486 2,2 -2,2 m -2.370121,-4 2,2 -2,2"
     transform="rotate(-90.0000 256.7500 272.9486)"/>
  <line x1="256.7500" y1="242.9489" x2="256.7500" y2="222.9496" stroke="#000000" stroke-width="1.0" />
  <rect
     style="fill:#ffffff;fill-opacity:1;fill-rule:nonzero;stroke:none"
     width="2"
     height="2"
     x="256.2500"
     y="231.9492"
     transform="rotate(270.0000 256.7500 232.9492)" /> 
  <path
     style="fill:none;stroke:#000000;stroke-width:1px;stroke-linecap:butt;stroke-linejoin:miter;stroke-opacity:1"
     d="m 256.7500,230.9492 2,2 -2,2 m -2.370121,-4 2,2 -2,2"
     transform="rotate(270.0000 256.7500 232.9492)"/>
  <line x1="256.7500" y1="242.9489" x2="289.2500" y2="262.9489" stroke="#400062" stroke-width="1.0" />
  <rect
     style="fill:#ffffff;stroke:none"
     width="5.5"
     height="2"
     x="270.2500"
     y="251.9489" 
     transform="rotate(31.6075 273.0000 252.9489)"    /> 
  <path
     style="fill:none;stroke:#400062;stroke-width:1px;stroke-linecap:butt;stroke-linejoin:miter;stroke-opacity:1"
    d="m 273.7500,250.9489 2,2 -2,2 m -1.5,-4 -2,2 2,2" transform="rotate(31.6075 273.0000 252.9489)"/>
  <line x1="256.7500" y1="222.9496" x2="256.7500" y2="202.9495" stroke="#ae1a38" stroke-width="1.0" />
  <rect
     style="fill:#ffffff;fill-opacity:1;fill-rule:nonzero;stroke:none"
     width="2"
     height="2"
     x="256.2500"
     y="211.9496"
     transform="rotate(270.0000 256.7500 212.9496)" /> 
  <path
     style="fill:none;stroke:#ae1a38;stroke-width:1px;stroke-linecap:butt;stroke-linejoin:miter;stroke-opacity:1"
     d="m 256.7500,210.9496 2,2 -2,2 m -2.370121,-4 2,2 -2,2"
     transform="rotate(270.0000 256.7500 212.9496)"/>
  <line x1="256.7500" y1="224.1996" x2="289.2500" y2="224.1996" stroke="#400062" stroke-width="1.0" />
  <line x1="256.7500" y1="221.6996" x2="289.2500" y2="221.6996" stroke="#400062" stroke-width="1.0" />
  <line x1="256.7500" y1="202.9495" x2="256.7500" y2="182.9501" stroke="#9309df" stroke-width="1.0" />
  <rect
     style="fill:#ffffff;fill-opacity:1;fill-rule:nonzero;stroke:none"
     width="2"
     height="2"
     x="256.2500"
     y="191.9498"
     transform="rotate(-90.0000 256.7500 192.9498)" /> 
  <path
     style="fill:none;stroke:#9309df;stroke-width:1px;stroke-linecap:butt;stroke-linejoin:miter;stroke-opacity:1"
     d="m 256.7500,190.9498 2,2 -2,2 m -2.370121,-4 2,2 -2,2"
     transform="rotate(-90.0000 256.7500 192.9498)"/>
  <line x1="256.7500" y1="201.3495" x2="289.2500" y2="201.3495" stroke="#5d01be" stroke-width="1.0" />
  <line x1="256.7500" y1="202.9495" x2="289.2500" y2="222.9496" stroke="#eda600" stroke-width="1.0" />
  <rect
     style="fill:#ffffff;stroke:none"
     width="5.5"
     height="2"
     x="270.2500"
     y="211.9496" 
     transform="rotate(31.6076 273.0000 212.9496)"    /> 
  <path
     style="fill:none;stroke:#eda600;stroke-width:1px;stroke-linecap:butt;stroke-linejoin:miter;stroke-opacity:1"
    d="m 273.7500,210.9496 2,2 -2,2 m -1.5,-4 -2,2 2,2" transform="rotate(31.6076 273.0000 212.9496)"/>
  <line x1="256.7500" y1="182.9501" x2="256.7501" y2="162.9501" stroke="#7102f1" stroke-width="1.0" />
  <rect
     style="fill:#ffffff;fill-opacity:1;fill-rule:nonzero;stroke:none"
     width="2"
     height="2"
     x="256.2500"
     y="171.9501"
     transform="rotate(-89.9998 256.7500 172.9501)" /> 
  <path
     style="fill:none;stroke:#7102f1;stroke-width:1px;stroke-linecap:butt;stroke-linejoin:miter;stroke-opacity:1"
     d="m 256.7500,170.9501 2,2 -2,2 m -2.370121,-4 2,2 -2,2"
     transform="rotate(-89.9998 256.7500 172.9501)"/>
  <line x1="256.7500" y1="184.2001" x2="289.2500" y2="184.2001" stroke="#400062" stroke-width="1.0" />
  <line x1="256.7500" y1="181.7001" x2="289.2500" y2="181.7001" stroke="#400062" stroke-width="1.0" />
  <line x1="256.7501" y1="164.2001" x2="289.2499" y2="164.2001" stroke="#000000" stroke-width="1.0" />
  <line x1="256.7501" y1="161.7001" x2="289.2499" y2="161.7001" stroke="#000000" stroke-width="1.0" />
  <line x1="256.7471" y1="142.9505" x2="256.6789" y2="122.9506" stroke="#8405fd" stroke-width="1.0" />
  <rect
     style="fill:#ffffff;fill-opacity:1;fill-rule:nonzero;stroke:none"
     width="2"
     height="2"
     x="256.2130"
     y="131.9506"
     transform="rotate(269.8045 256.7130 132.9506)" /> 
  <path
     style="fill:none;stroke:#8405fd;stroke-width:1px;stroke-linecap:butt;stroke-linejoin:miter;stroke-opacity:1"
     d="m 256.7130,130.9506 2,2 -2,2 m -2.370121,-4 2,2 -2,2"
     transform="rotate(269.8045 256.7130 132.9506)"/>
  <line x1="256.7471" y1="142.6005" x2="289.2529" y2="142.6005" stroke="#5d01be" stroke-width="1.0" />
  <line x1="256.7471" y1="140.1005" x2="289.2529" y2="140.1005" stroke="#5d01be" stroke-width="1.0" />
  <line x1="256.7471" y1="142.9505" x2="289.2499" y2="162.9501" stroke="#400062" stroke-width="1.0" />
  <rect
     style="fill:#ffffff;stroke:none"
     width="5.5"
     height="2"
     x="270.2485"
     y="151.9503" 
     transform="rotate(31.6047 272.9985 152.9503)"    /> 
  <path
     style="fill:none;stroke:#400062;stroke-width:1px;stroke-linecap:butt;stroke-linejoin:miter;stroke-opacity:1"
    d="m 273.7485,150.9503 2,2 -2,2 m -1.5,-4 -2,2 2,2" transform="rotate(31.6047 272.9985 152.9503)"/>
  <line x1="256.6789" y1="122.9506" x2="256.7275" y2="102.9509" stroke="#bb2700" stroke-width="1.0" />
  <rect
     style="fill:#ffffff;fill-opacity:1;fill-rule:nonzero;stroke:none"
     width="2"
     height="2"
     x="256.2032"
     y="111.9508"
     transform="rotate(-89.8609 256.7032 112.9508)" /> 
  <path
     style="fill:none;stroke:#bb2700;stroke-width:1px;stroke-linecap:butt;stroke-linejoin:miter;stroke-opacity:1"
     d="m 256.7032,110.9508 2,2 -2,2 m -2.370121,-4 2,2 -2,2"
     transform="rotate(-89.8609 256.7032 112.9508)"/>
  <line x1="256.6789" y1="121.3506" x2="289.3211" y2="121.3506" stroke="#5d01be" stroke-width="1.0" />
  <line x1="256.7275" y1="102.9509" x2="263.0189" y2="83.9788" stroke="#ae1a38" stroke-width="1.0" />
  <rect
     style="fill:#ffffff;fill-opacity:1;fill-rule:nonzero;stroke:none"
     width="2"
     height="2"
     x="259.3732"
     y="92.4649"
     transform="rotate(-71.6536 259.8732 93.4649)" /> 
  <path
     style="fill:none;stroke:#ae1a38;stroke-width:1px;stroke-linecap:butt;stroke-linejoin:miter;stroke-opacity:1"
     d="m 259.8732,91.4649 2,2 -2,2 m -2.370121,-4 2,2 -2,2"
     transform="rotate(-71.6536 259.8732 93.4649)"/>
  <line x1="256.7275" y1="104.2009" x2="289.2725" y2="104.2009" stroke="#400062" stroke-width="1.0" />
  <line x1="256.7275" y1="101.7009" x2="289.2725" y2="101.7009" stroke="#400062" stroke-width="1.0" />
  <line x1="263.0189" y1="83.6288" x2="282.9811" y2="83.6288" stroke="#5d01be" stroke-width="1.0" />
  <line x1="263.0189" y1="81.1288" x2="282.9811" y2="81.1288" stroke="#5d01be" stroke-width="1.0" />
  <line x1="282.9811" y1="83.9788" x2="289.2725" y2="102.9509" stroke="#a21194" stroke-width="1.0" />
  <rect
     style="fill:#ffffff;fill-opacity:1;fill-rule:nonzero;stroke:none"
     width="2"
     height="2"
     x="285.6268"
     y="92.4649"
     transform="rotate(71.6536 286.1268 93.4649)" /> 
  <path
     style="fill:none;stroke:#a21194;stroke-width:1px;stroke-linecap:butt;stroke-linejoin:miter;stroke-opacity:1"
     d="m 286.1268,91.4649 2,2 -2,2 m -2.370121,-4 2,2 -2,2"
     transform="rotate(71.6536 286.1268 93.4649)"/>
  <line x1="289.2725" y1="102.9509" x2="289.3211" y2="122.9506" stroke="#7102f1" stroke-width="1.0" />
  <rect
     style="fill:#ffffff;fill-opacity:1;fill-rule:nonzero;stroke:none"
     width="2"
     height="2"
     x="288.7968"
     y="111.9508"
     transform="rotate(89.8609 289.2968 112.9508)" /> 
  <path
     style="fill:none;stroke:#7102f1;stroke-width:1px;stroke-linecap:butt;stroke-linejoin:miter;stroke-opacity:1"
     d="m 289.2968,110.9508 2,2 -2,2 m -2.370121,-4 2,2 -2,2"
     transform="rotate(89.8609 289.2968 112.9508)"/>
  <line x1="289.3211" y1="122.9506" x2="289.2529" y2="142.9505" stroke="#7102f1" stroke-width="1.0" />
  <rect
     style="fill:#ffffff;fill-opacity:1;fill-rule:nonzero;stroke:none"
     width="2"
     height="2"
     x="288.7870"
     y="131.9506"
     transform="rotate(90.1955 289.2870 132.9506)" /> 
  <path
     style="fill:none;stroke:#7102f1;stroke-width:1px;stroke-linecap:butt;stroke-linejoin:miter;stroke-opacity:1"
     d="m 289.2870,130.9506 2,2 -2,2 m -2.370121,-4 2,2 -2,2"
     transform="rotate(90.1955 289.2870 132.9506)"/>
  <line x1="289.2499" y1="162.9501" x2="289.2500" y2="182.9501" stroke="#c53700" stroke-width="1.0" />
  <rect
     style="fill:#ffffff;fill-opacity:1;fill-rule:nonzero;stroke:none"
     width="2"
     height="2"
     x="288.7500"
     y="171.9501"
     transform="rotate(89.9998 289.2500 172.9501)" /> 
  <path
     style="fill:none;stroke:#c53700;stroke-width:1px;stroke-linecap:butt;stroke-linejoin:miter;stroke-opacity:1"
     d="m 289.2500,170.9501 2,2 -2,2 m -2.370121,-4 2,2 -2,2"
     transform="rotate(89.9998 289.2500 172.9501)"/>
  <line x1="289.2500" y1="182.9501" x2="289.2500" y2="202.9495" stroke="#8405fd" stroke-width="1.0" />
  <rect
     style="fill:#ffffff;fill-opacity:1;fill-rule:nonzero;stroke:none"
     width="2"
     height="2"
     x="288.7500"
     y="191.9498"
     transform="rotate(90.0000 289.2500 192.9498)" /> 
  <path
     style="fill:none;stroke:#8405fd;stroke-width:1px;stroke-linecap:butt;stroke-linejoin:miter;stroke-opacity:1"
     d="m 289.2500,190.9498 2,2 -2,2 m -2.370121,-4 2,2 -2,2"
     transform="rotate(90.0000 289.2500 192.9498)"/>
  <line x1="289.2500" y1="202.9495" x2="289.2500" y2="222.9496" stroke="#a21194" stroke-width="1.0" />
  <rect
     style="fill:#ffffff;fill-opacity:1;fill-rule:nonzero;stroke:none"
     width="2"
     height="2"
     x="288.7500"
     y="211.9496"
     transform="rotate(90.0000 289.2500 212.9496)" /> 
  <path
     style="fill:none;stroke:#a21194;stroke-width:1px;stroke-linecap:butt;stroke-linejoin:miter;stroke-opacity:1"
     d="m 289.2500,210.9496 2,2 -2,2 m -2.370121,-4 2,2 -2,2"
     transform="rotate(90.0000 289.2500 212.9496)"/>
  <line x1="289.2500" y1="222.9496" x2="289.2500" y2="242.9489" stroke="#400062" stroke-width="1.0" />
  <rect
     style="fill:#ffffff;fill-opacity:1;fill-rule:nonzero;stroke:none"
     width="2"
     height="2"
     x="288.7500"
     y="231.9492"
     transform="rotate(90.0000 289.2500 232.9492)" /> 
  <path
     style="fill:none;stroke:#400062;stroke-width:1px;stroke-linecap:butt;stroke-linejoin:miter;stroke-opacity:1"
     d="m 289.2500,230.9492 2,2 -2,2 m -2.370121,-4 2,2 -2,2"
     transform="rotate(90.0000 289.2500 232.9492)"/>
  <line x1="289.2500" y1="262.9489" x2="289.2500" y2="282.9482" stroke="#000000" stroke-width="1.0" />
  <rect
     style="fill:#ffffff;fill-opacity:1;fill-rule:nonzero;stroke:none"
     width="2"
     height="2"
     x="288.7500"
     y="271.9486"
     transform="rotate(90.0000 289.2500 272.9486)" /> 
  <path
     style="fill:none;stroke:#000000;stroke-width:1px;stroke-linecap:butt;stroke-linejoin:miter;stroke-opacity:1"
     d="m 289.2500,270.9486 2,2 -2,2 m -2.370121,-4 2,2 -2,2"
     transform="rotate(90.0000 289.2500 272.9486)"/>
  <line x1="289.2500" y1="282.9482" x2="289.2500" y2="302.9482" stroke="#7102f1" stroke-width="1.0" />
  <rect
     style="fill:#ffffff;fill-opacity:1;fill-rule:nonzero;stroke:none"
     width="2"
     height="2"
     x="288.7500"
     y="291.9482"
     transform="rotate(90.0000 289.2500 292.9482)" /> 
  <path
     style="fill:none;stroke:#7102f1;stroke-width:1px;stroke-linecap:butt;stroke-linejoin:miter;stroke-opacity:1"
     d="m 289.2500,290.9482 2,2 -2,2 m -2.370121,-4 2,2 -2,2"
     transform="rotate(90.0000 289.2500 292.9482)"/>
  <line x1="289.2500" y1="302.9482" x2="289.2500" y2="322.9476" stroke="#eda600" stroke-width="1.0" />
  <rect
     style="fill:#ffffff;fill-opacity:1;fill-rule:nonzero;stroke:none"
     width="2"
     height="2"
     x="288.7500"
     y="311.9479"
     transform="rotate(90.0000 289.2500 312.9479)" /> 
  <path
     style="fill:none;stroke:#eda600;stroke-width:1px;stroke-linecap:butt;stroke-linejoin:miter;stroke-opacity:1"
     d="m 289.2500,310.9479 2,2 -2,2 m -2.370121,-4 2,2 -2,2"
     transform="rotate(90.0000 289.2500 312.9479)"/>
  <line x1="289.2500" y1="342.9476" x2="289.2500" y2="362.9471" stroke="#000000" stroke-width="1.0" />
  <rect
     style="fill:#ffffff;fill-opacity:1;fill-rule:nonzero;stroke:none"
     width="2"
     height="2"
     x="288.7500"
     y="351.9473"
     transform="rotate(90.0000 289.2500 352.9473)" /> 
  <path
     style="fill:none;stroke:#000000;stroke-width:1px;stroke-linecap:butt;stroke-linejoin:miter;stroke-opacity:1"
     d="m 289.2500,350.9473 2,2 -2,2 m -2.370121,-4 2,2 -2,2"
     transform="rotate(90.0000 289.2500 352.9473)"/>
  <line x1="289.2500" y1="362.9471" x2="289.2500" y2="382.9470" stroke="#5d01be" stroke-width="1.0" />
  <rect
     style="fill:#ffffff;fill-opacity:1;fill-rule:nonzero;stroke:none"
     width="2"
     height="2"
     x="288.7500"
     y="371.9471"
     transform="rotate(90.0000 289.2500 372.9471)" /> 
  <path
     style="fill:none;stroke:#5d01be;stroke-width:1px;stroke-linecap:butt;stroke-linejoin:miter;stroke-opacity:1"
     d="m 289.2500,370.9471 2,2 -2,2 m -2.370121,-4 2,2 -2,2"
     transform="rotate(90.0000 289.2500 372.9471)"/>
  <line x1="289.2500" y1="382.9470" x2="289.2500" y2="402.9467" stroke="#5d01be" stroke-width="1.0" />
  <rect
     style="fill:#ffffff;fill-opacity:1;fill-rule:nonzero;stroke:none"
     width="2"
     height="2"
     x="288.7500"
     y="391.9469"
     transform="rotate(90.0000 289.2500 392.9469)" /> 
  <path
     style="fill:none;stroke:#5d01be;stroke-width:1px;stroke-linecap:butt;stroke-linejoin:miter;stroke-opacity:1"
     d="m 289.2500,390.9469 2,2 -2,2 m -2.370121,-4 2,2 -2,2"
     transform="rotate(90.0000 289.2500 392.9469)"/>
  <line x1="289.2500" y1="422.9466" x2="289.2500" y2="442.9465" stroke="#a21194" stroke-width="1.0" />
  <rect
     style="fill:#ffffff;fill-opacity:1;fill-rule:nonzero;stroke:none"
     width="2"
     height="2"
     x="288.7500"
     y="431.9465"
     transform="rotate(90.0000 289.2500 432.9465)" /> 
  <path
     style="fill:none;stroke:#a21194;stroke-width:1px;stroke-linecap:butt;stroke-linejoin:miter;stroke-opacity:1"
     d="m 289.2500,430.9465 2,2 -2,2 m -2.370121,-4 2,2 -2,2"
     transform="rotate(90.0000 289.2500 432.9465)"/>
  <line x1="289.2500" y1="442.9465" x2="289.2500" y2="462.9464" stroke="#000000" stroke-width="1.0" />
  <rect
     style="fill:#ffffff;fill-opacity:1;fill-rule:nonzero;stroke:none"
     width="2"
     height="2"
     x="288.7500"
     y="451.9464"
     transform="rotate(90.0000 289.2500 452.9464)" /> 
  <path
     style="fill:none;stroke:#000000;stroke-width:1px;stroke-linecap:butt;stroke-linejoin:miter;stroke-opacity:1"
     d="m 289.2500,450.9464 2,2 -2,2 m -2.370121,-4 2,2 -2,2"
     transform="rotate(90.0000 289.2500 452.9464)"/>
<circle cx="256.7500" cy="462.9464" r="5.0" stroke="#595959" stroke-width="1.0" fill="#ffffff"/>
<text x="256.7500" y="465.6464" text-anchor="middle" font-family="Helvetica" font-size="7.5" fill="#000000" >A</text>
<circle cx="256.7500" cy="442.9465" r="5.0" stroke="#595959" stroke-width="1.0" fill="#ffffff"/>
<text x="256.7500" y="445.6465" text-anchor="middle" font-family="Helvetica" font-size="7.5" fill="#000000" >C</text>
<circle cx="256.7500" cy="422.9466" r="5.0" stroke="#595959" stroke-width="1.0" fill="#ffffff"/>
<text x="256.7500" y="425.6466" text-anchor="middle" font-family="Helvetica" font-size="7.5" fill="#000000" >U</text>
<circle cx="256.7500" cy="402.9467" r="5.0" stroke="#595959" stroke-width="1.0" fill="#ffffff"/>
<text x="256.7500" y="405.6467" text-anchor="middle" font-family="Helvetica" font-size="7.5" fill="#000000" >G</text>
<circle cx="256.7500" cy="382.9470" r="5.0" stroke="#595959" stroke-width="1.0" fill="#ffffff"/>
<text x="256.7500" y="385.6470" text-anchor="middle" font-family="Helvetica" font-size="7.5" fill="#000000" >G</text>
<circle cx="256.7500" cy="362.9471" r="5.0" stroke="#595959" stroke-width="1.0" fill="#ffffff"/>
<text x="256.7500" y="365.6471" text-anchor="middle" font-family="Helvetica" font-size="7.5" fill="#000000" >A</text>
<circle cx="256.7500" cy="342.9476" r="5.0" stroke="#595959" stroke-width="1.0" fill="#ffffff"/>
<text x="256.7500" y="345.6476" text-anchor="middle" font-family="Helvetica" font-size="7.5" fill="#000000" >C</text>
<circle cx="256.7500" cy="322.9476" r="5.0" stroke="#595959" stroke-width="1.0" fill="#ffffff"/>
<text x="256.7500" y="325.6476" text-anchor="middle" font-family="Helvetica" font-size="7.5" fill="#000000" >A</text>
<circle cx="256.7500" cy="302.9482" r="5.0" stroke="#595959" stroke-width="1.0" fill="#ffffff"/>
<text x="256.7500" y="305.6482" text-anchor="middle" font-family="Helvetica" font-size="7.5" fill="#000000" >I</text>
<circle cx="256.7500" cy="282.9482" r="5.0" stroke="#595959" stroke-width="1.0" fill="#ffffff"/>
<text x="256.7500" y="285.6482" text-anchor="middle" font-family="Helvetica" font-size="7.5" fill="#000000" >I</text>
<circle cx="256.7500" cy="262.9489" r="5.0" stroke="#595959" stroke-width="1.0" fill="#ffffff"/>
<text x="256.7500" y="265.6489" text-anchor="middle" font-family="Helvetica" font-size="7.5" fill="#000000" >U</text>
<circle cx="256.7500" cy="242.9489" r="5.0" stroke="#595959" stroke-width="1.0" fill="#ffffff"/>
<text x="256.7500" y="245.6489" text-anchor="middle" font-family="Helvetica" font-size="7.5" fill="#000000" >I</text>
<circle cx="256.7500" cy="222.9496" r="5.0" stroke="#595959" stroke-width="1.0" fill="#ffffff"/>
<text x="256.7500" y="225.6496" text-anchor="middle" font-family="Helvetica" font-size="7.5" fill="#000000" >C</text>
<circle cx="256.7500" cy="202.9495" r="5.0" stroke="#595959" stroke-width="1.0" fill="#ffffff"/>
<text x="256.7500" y="205.6495" text-anchor="middle" font-family="Helvetica" font-size="7.5" fill="#000000" >U</text>
<circle cx="256.7500" cy="182.9501" r="5.0" stroke="#595959" stroke-width="1.0" fill="#ffffff"/>
<text x="256.7500" y="185.6501" text-anchor="middle" font-family="Helvetica" font-size="7.5" fill="#000000" >C</text>
<circle cx="256.7501" cy="162.9501" r="5.0" stroke="#595959" stroke-width="1.0" fill="#ffffff"/>
<text x="256.7501" y="165.6501" text-anchor="middle" font-family="Helvetica" font-size="7.5" fill="#000000" >C</text>
<circle cx="256.7471" cy="142.9505" r="5.0" stroke="#595959" stroke-width="1.0" fill="#ffffff"/>
<text x="256.7471" y="145.6505" text-anchor="middle" font-family="Helvetica" font-size="7.5" fill="#000000" >G</text>
<circle cx="256.6789" cy="122.9506" r="5.0" stroke="#595959" stroke-width="1.0" fill="#ffffff"/>
<text x="256.6789" y="125.6506" text-anchor="middle" font-family="Helvetica" font-size="7.5" fill="#000000" >A</text>
<circle cx="256.7275" cy="102.9509" r="5.0" stroke="#595959" stroke-width="1.0" fill="#ffffff"/>
<text x="256.7275" y="105.6509" text-anchor="middle" font-family="Helvetica" font-size="7.5" fill="#000000" >G</text>
<circle cx="263.0189" cy="83.9788" r="5.0" stroke="#595959" stroke-width="1.0" fill="#ffffff"/>
<text x="263.0189" y="86.6788" text-anchor="middle" font-family="Helvetica" font-size="7.5" fill="#000000" >G</text>
<circle cx="282.9811" cy="83.9788" r="5.0" stroke="#595959" stroke-width="1.0" fill="#ffffff"/>
<text x="282.9811" y="86.6788" text-anchor="middle" font-family="Helvetica" font-size="7.5" fill="#000000" >C</text>
<circle cx="289.2725" cy="102.9509" r="5.0" stroke="#595959" stroke-width="1.0" fill="#ffffff"/>
<text x="289.2725" y="105.6509" text-anchor="middle" font-family="Helvetica" font-size="7.5" fill="#000000" >C</text>
<circle cx="289.3211" cy="122.9506" r="5.0" stroke="#595959" stroke-width="1.0" fill="#ffffff"/>
<text x="289.3211" y="125.6506" text-anchor="middle" font-family="Helvetica" font-size="7.5" fill="#000000" >U</text>
<circle cx="289.2529" cy="142.9505" r="5.0" stroke="#595959" stroke-width="1.0" fill="#ffffff"/>
<text x="289.2529" y="145.6505" text-anchor="middle" font-family="Helvetica" font-size="7.5" fill="#000000" >C</text>
<circle cx="289.2499" cy="162.9501" r="5.0" stroke="#595959" stroke-width="1.0" fill="#ffffff"/>
<text x="289.2499" y="165.6501" text-anchor="middle" font-family="Helvetica" font-size="7.5" fill="#000000" >G</text>
<circle cx="289.2500" cy="182.9501" r="5.0" stroke="#595959" stroke-width="1.0" fill="#ffffff"/>
<text x="289.2500" y="185.6501" text-anchor="middle" font-family="Helvetica" font-size="7.5" fill="#000000" >G</text>
<circle cx="289.2500" cy="202.9495" r="5.0" stroke="#595959" stroke-width="1.0" fill="#ffffff"/>
<text x="289.2500" y="205.6495" text-anchor="middle" font-family="Helvetica" font-size="7.5" fill="#000000" >A</text>
<circle cx="289.2500" cy="222.9496" r="5.0" stroke="#595959" stroke-width="1.0" fill="#ffffff"/>
<text x="289.2500" y="225.6496" text-anchor="middle" font-family="Helvetica" font-size="7.5" fill="#000000" >G</text>
<circle cx="289.2500" cy="242.9489" r="5.0" stroke="#595959" stroke-width="1.0" fill="#ffffff"/>
<text x="289.2500" y="245.6489" text-anchor="middle" font-family="Helvetica" font-size="7.5" fill="#000000" >U</text>
<circle cx="289.2500" cy="262.9489" r="5.0" stroke="#595959" stroke-width="1.0" fill="#ffffff"/>
<text x="289.2500" y="265.6489" text-anchor="middle" font-family="Helvetica" font-size="7.5" fill="#000000" >I</text>
<circle cx="289.2500" cy="282.9482" r="5.0" stroke="#595959" stroke-width="1.0" fill="orange"/>
<text x="289.2500" y="285.6482" text-anchor="middle" font-family="Helvetica" font-size="7.5" fill="#000000" >U</text>
<circle cx="289.2500" cy="302.9482" r="5.0" stroke="#595959" stroke-width="1.0" fill="orange"/>
<text x="289.2500" y="305.6482" text-anchor="middle" font-family="Helvetica" font-size="7.5" fill="#000000" >U</text>
<circle cx="289.2500" cy="322.9476" r="5.0" stroke="#595959" stroke-width="1.0" fill="#ffffff"/>
<text x="289.2500" y="325.6476" text-anchor="middle" font-family="Helvetica" font-size="7.5" fill="#000000" >U</text>
<circle cx="289.2500" cy="342.9476" r="5.0" stroke="#595959" stroke-width="1.0" fill="#ffffff"/>
<text x="289.2500" y="345.6476" text-anchor="middle" font-family="Helvetica" font-size="7.5" fill="#000000" >G</text>
<circle cx="289.2500" cy="362.9471" r="5.0" stroke="#595959" stroke-width="1.0" fill="#ffffff"/>
<text x="289.2500" y="365.6471" text-anchor="middle" font-family="Helvetica" font-size="7.5" fill="#000000" >U</text>
<circle cx="289.2500" cy="382.9470" r="5.0" stroke="#595959" stroke-width="1.0" fill="#ffffff"/>
<text x="289.2500" y="385.6470" text-anchor="middle" font-family="Helvetica" font-size="7.5" fill="#000000" >C</text>
<circle cx="289.2500" cy="402.9467" r="5.0" stroke="#595959" stroke-width="1.0" fill="#ffffff"/>
<text x="289.2500" y="405.6467" text-anchor="middle" font-family="Helvetica" font-size="7.5" fill="#000000" >C</text>
<circle cx="289.2500" cy="422.9466" r="5.0" stroke="#595959" stroke-width="1.0" fill="#ffffff"/>
<text x="289.2500" y="425.6466" text-anchor="middle" font-family="Helvetica" font-size="7.5" fill="#000000" >A</text>
<circle cx="289.2500" cy="442.9465" r="5.0" stroke="#595959" stroke-width="1.0" fill="#ffffff"/>
<text x="289.2500" y="445.6465" text-anchor="middle" font-family="Helvetica" font-size="7.5" fill="#000000" >G</text>
<circle cx="289.2500" cy="462.9464" r="5.0" stroke="#595959" stroke-width="1.0" fill="#ffffff"/>
<text x="289.2500" y="465.6464" text-anchor="middle" font-family="Helvetica" font-size="7.5" fill="#000000" >U</text>
</svg>
