<?xml version="1.0" encoding="UTF-8"?>
<!DOCTYPE svg PUBLIC "-//W3C//DTD SVG 1.1//EN" 
"http://www.w3.org/Graphics/SVG/1.1/DTD/svg11.dtd">

<svg version="1.1"
   width="546px"
   height="546px"
xmlns="http://www.w3.org/2000/svg">
    <rect width="100%" height="100%" fill="white"/>

  <line x1="256.3319" y1="421.9669" x2="256.3946" y2="402.0266" stroke="#595959"
     style="stroke-width:2;stroke-miterlimit:4;stroke-dasharray:1,1;stroke-dashoffset:0" />
  <line x1="256.5766" y1="342.3082" x2="256.6196" y2="322.4299" stroke="#595959"
     style="stroke-width:2;stroke-miterlimit:4;stroke-dasharray:1,1;stroke-dashoffset:0" />
  <line x1="256.7464" y1="262.8564" x2="256.7806" y2="243.0206" stroke="#595959"
     style="stroke-width:2;stroke-miterlimit:4;stroke-dasharray:1,1;stroke-dashoffset:0" />
  <line x1="257.0502" y1="163.8687" x2="257.0423" y2="144.1303" stroke="#595959"
     style="stroke-width:2;stroke-miterlimit:4;stroke-dasharray:1,1;stroke-dashoffset:0" />
  <line x1="289.5398" y1="143.8102" x2="289.5494" y2="163.6845" stroke="#595959"
     style="stroke-width:2;stroke-miterlimit:4;stroke-dasharray:1,1;stroke-dashoffset:0" />
  <line x1="289.2805" y1="243.0109" x2="289.2552" y2="262.8518" stroke="#595959"
     style="stroke-width:2;stroke-miterlimit:4;stroke-dasharray:1,1;stroke-dashoffset:0" />
  <line x1="288.8946" y1="402.0347" x2="288.8319" y2="421.9772" stroke="#595959"
     style="stroke-width:2;stroke-miterlimit:4;stroke-dasharray:1,1;stroke-dashoffset:0" />
  <line x1="256.2077" y1="460.3060" x2="288.7080" y2="460.3187" stroke="#bc2900" stroke-width="1.0" />
  <circle cx="272.4578" cy="460.3124" r="2.25" stroke="#bc2900" stroke-width="1.0" fill="#bc2900"/>
  <line x1="256.5116" y1="363.7990" x2="289.0247" y2="363.8019" stroke="#efaf00" stroke-width="1.0" />
  <circle cx="272.7681" cy="363.8005" r="2.25" stroke="#efaf00" stroke-width="1.0" fill="#efaf00"/>
  <line x1="256.6197" y1="324.0299" x2="289.1408" y2="324.0286" stroke="#efaf00" stroke-width="1.0" />
  <circle cx="272.8802" cy="324.0293" r="2.25" stroke="#efaf00" stroke-width="1.0" fill="#efaf00"/>
  <line x1="256.6759" y1="300.9624" x2="289.1790" y2="300.9600" stroke="#a61473" stroke-width="1.0" />
  <circle cx="272.9275" cy="300.9612" r="2.25" stroke="#a61473" stroke-width="1.0" fill="#a61473"/>
  <line x1="256.6762" y1="304.1624" x2="289.1793" y2="304.1600" stroke="#d14c00" stroke-width="1.0" />
  <circle cx="272.9277" cy="304.1612" r="2.25" stroke="#d14c00" stroke-width="1.0" fill="#d14c00"/>
  <line x1="256.7139" y1="281.1044" x2="289.2220" y2="281.1013" stroke="#8b07f3" stroke-width="1.0" />
  <circle cx="272.9680" cy="281.1029" r="2.25" stroke="#8b07f3" stroke-width="1.0" fill="#8b07f3"/>
  <line x1="256.7142" y1="284.3044" x2="289.2223" y2="284.3013" stroke="#de6e00" stroke-width="1.0" />
  <circle cx="272.9683" cy="284.3029" r="2.25" stroke="#de6e00" stroke-width="1.0" fill="#de6e00"/>
  <line x1="256.7141" y1="282.7044" x2="289.1792" y2="302.5600" stroke="#efaf00" stroke-width="1.0" />
  <circle cx="276.4466" cy="292.6322" r="2.25" stroke="#efaf00" stroke-width="1.0" fill="#efaf00"
    transform="rotate(211.4499 272.9466 292.6322)" />
  <path d="M 271.1966 294.8822 L 271.1966 290.3822 L 267.1966 292.6322 z" style="stroke:#efaf00;stroke-width:1.0" fill="#efaf00" 
    transform="rotate(211.4499 272.9466 292.6322)"/>
  <line x1="256.7462" y1="261.2564" x2="289.2550" y2="261.2518" stroke="#7602f8" stroke-width="1.0" />
  <circle cx="273.0006" cy="261.2541" r="2.25" stroke="#7602f8" stroke-width="1.0" fill="#7602f8"/>
  <line x1="256.7467" y1="264.4564" x2="289.2554" y2="264.4518" stroke="#e27c00" stroke-width="1.0" />
  <circle cx="273.0010" cy="264.4541" r="2.25" stroke="#e27c00" stroke-width="1.0" fill="#e27c00"/>
  <line x1="256.7806" y1="243.0206" x2="289.2805" y2="243.0109" stroke="#270026" stroke-width="1.0" />
  <circle cx="273.0305" cy="243.0158" r="2.25" stroke="#270026" stroke-width="1.0" fill="#270026"/>
  <line x1="256.8595" y1="205.0013" x2="289.4036" y2="204.9510" stroke="#eb9d00" stroke-width="1.0" />
  <circle cx="273.1316" cy="204.9761" r="2.25" stroke="#eb9d00" stroke-width="1.0" fill="#eb9d00"/>
  <line x1="265.4428" y1="88.4667" x2="285.0620" y2="86.0874" stroke="#e27c00" stroke-width="1.0" />
  <circle cx="275.2524" cy="87.2770" r="2.25" stroke="#e27c00" stroke-width="1.0" fill="#e27c00"/>
  <line x1="256.2070" y1="461.9060" x2="256.2695" y2="441.9265" stroke="#270026" stroke-width="1.0" />
  <rect
     style="fill:#ffffff;fill-opacity:1;fill-rule:nonzero;stroke:none"
     width="2"
     height="2"
     x="255.7383"
     y="450.9162"
     transform="rotate(-89.8210 256.2383 451.9162)" /> 
  <path
     style="fill:none;stroke:#270026;stroke-width:1px;stroke-linecap:butt;stroke-linejoin:miter;stroke-opacity:1"
     d="m 256.2383,449.9162 2,2 -2,2 m -2.370121,-4 2,2 -2,2"
     transform="rotate(-89.8210 256.2383 451.9162)"/>
  <line x1="256.2064" y1="463.5060" x2="288.7067" y2="463.5187" stroke="#bc2900" stroke-width="1.0" />
  <line x1="256.2695" y1="441.9265" x2="256.3319" y2="421.9669" stroke="#6301ce" stroke-width="1.0" />
  <rect
     style="fill:#ffffff;fill-opacity:1;fill-rule:nonzero;stroke:none"
     width="2"
     height="2"
     x="255.8007"
     y="430.9467"
     transform="rotate(-89.8207 256.3007 431.9467)" /> 
  <path
     style="fill:none;stroke:#6301ce;stroke-width:1px;stroke-linecap:butt;stroke-linejoin:miter;stroke-opacity:1"
     d="m 256.3007,429.9467 2,2 -2,2 m -2.370121,-4 2,2 -2,2"
     transform="rotate(-89.8207 256.3007 431.9467)"/>
  <line x1="256.2690" y1="443.1765" x2="288.7690" y2="443.1883" stroke="#000000" stroke-width="1.0" />
  <line x1="256.2699" y1="440.6765" x2="288.7699" y2="440.6883" stroke="#000000" stroke-width="1.0" />
  <line x1="256.3319" y1="421.9669" x2="288.8319" y2="421.9772" stroke="#4b0084" stroke-width="1.0" />
  <line x1="256.3946" y1="402.0266" x2="256.4571" y2="382.1045" stroke="#b21e13" stroke-width="1.0" />
  <rect
     style="fill:#ffffff;fill-opacity:1;fill-rule:nonzero;stroke:none"
     width="2"
     height="2"
     x="255.9258"
     y="391.0655"
     transform="rotate(-89.8204 256.4258 392.0655)" /> 
  <path
     style="fill:none;stroke:#b21e13;stroke-width:1px;stroke-linecap:butt;stroke-linejoin:miter;stroke-opacity:1"
     d="m 256.4258,390.0655 2,2 -2,2 m -2.370121,-4 2,2 -2,2"
     transform="rotate(-89.8204 256.4258 392.0655)"/>
  <line x1="256.3943" y1="403.2766" x2="288.8943" y2="403.2847" stroke="#000000" stroke-width="1.0" />
  <line x1="256.3949" y1="400.7766" x2="288.8949" y2="400.7847" stroke="#000000" stroke-width="1.0" />
  <line x1="256.3946" y1="402.0266" x2="288.8319" y2="421.9772" stroke="#000000" stroke-width="1.0" />
  <rect
     style="fill:#ffffff;stroke:none"
     width="5.5"
     height="2"
     x="269.8633"
     y="411.0019" 
     transform="rotate(31.5936 272.6133 412.0019)"    /> 
  <path
     style="fill:none;stroke:#000000;stroke-width:1px;stroke-linecap:butt;stroke-linejoin:miter;stroke-opacity:1"
    d="m 273.3633,410.0019 2,2 -2,2 m -1.5,-4 -2,2 2,2" transform="rotate(31.5936 272.6133 412.0019)"/>
  <line x1="256.4571" y1="382.1045" x2="256.5118" y2="362.1990" stroke="#b21e13" stroke-width="1.0" />
  <rect
     style="fill:#ffffff;fill-opacity:1;fill-rule:nonzero;stroke:none"
     width="2"
     height="2"
     x="255.9844"
     y="371.1518"
     transform="rotate(-89.8425 256.4844 372.1518)" /> 
  <path
     style="fill:none;stroke:#b21e13;stroke-width:1px;stroke-linecap:butt;stroke-linejoin:miter;stroke-opacity:1"
     d="m 256.4844,370.1518 2,2 -2,2 m -2.370121,-4 2,2 -2,2"
     transform="rotate(-89.8425 256.4844 372.1518)"/>
  <line x1="256.4569" y1="383.3545" x2="288.9569" y2="383.3600" stroke="#3c0057" stroke-width="1.0" />
  <line x1="256.4573" y1="380.8545" x2="288.9573" y2="380.8600" stroke="#3c0057" stroke-width="1.0" />
  <line x1="256.4571" y1="382.1045" x2="288.8946" y2="402.0347" stroke="#efaf00" stroke-width="1.0" />
  <rect
     style="fill:#ffffff;stroke:none"
     width="5.5"
     height="2"
     x="269.9258"
     y="391.0696" 
     transform="rotate(31.5673 272.6758 392.0696)"    /> 
  <path
     style="fill:none;stroke:#efaf00;stroke-width:1px;stroke-linecap:butt;stroke-linejoin:miter;stroke-opacity:1"
    d="m 273.4258,390.0696 2,2 -2,2 m -1.5,-4 -2,2 2,2" transform="rotate(31.5673 272.6758 392.0696)"/>
  <line x1="256.5118" y1="362.1990" x2="256.5766" y2="342.3082" stroke="#000000" stroke-width="1.0" />
  <rect
     style="fill:#ffffff;fill-opacity:1;fill-rule:nonzero;stroke:none"
     width="2"
     height="2"
     x="256.0442"
     y="351.2536"
     transform="rotate(-89.8133 256.5442 352.2536)" /> 
  <path
     style="fill:none;stroke:#000000;stroke-width:1px;stroke-linecap:butt;stroke-linejoin:miter;stroke-opacity:1"
     d="m 256.5442,350.2536 2,2 -2,2 m -2.370121,-4 2,2 -2,2"
     transform="rotate(-89.8133 256.5442 352.2536)"/>
  <line x1="256.5119" y1="360.5990" x2="289.0249" y2="360.6019" stroke="#5800ac" stroke-width="1.0" />
  <line x1="256.5766" y1="343.5582" x2="289.0766" y2="343.5587" stroke="#3c0057" stroke-width="1.0" />
  <line x1="256.5766" y1="341.0582" x2="289.0767" y2="341.0587" stroke="#3c0057" stroke-width="1.0" />
  <line x1="256.6196" y1="322.4299" x2="256.6760" y2="302.5624" stroke="#7602f8" stroke-width="1.0" />
  <rect
     style="fill:#ffffff;fill-opacity:1;fill-rule:nonzero;stroke:none"
     width="2"
     height="2"
     x="256.1478"
     y="311.4962"
     transform="rotate(-89.8372 256.6478 312.4962)" /> 
  <path
     style="fill:none;stroke:#7602f8;stroke-width:1px;stroke-linecap:butt;stroke-linejoin:miter;stroke-opacity:1"
     d="m 256.6478,310.4962 2,2 -2,2 m -2.370121,-4 2,2 -2,2"
     transform="rotate(-89.8372 256.6478 312.4962)"/>
  <line x1="256.6195" y1="320.8299" x2="289.1406" y2="320.8286" stroke="#5800ac" stroke-width="1.0" />
  <line x1="256.6196" y1="322.4299" x2="289.0767" y2="342.3087" stroke="#5800ac" stroke-width="1.0" />
  <rect
     style="fill:#ffffff;stroke:none"
     width="5.5"
     height="2"
     x="270.0981"
     y="331.3693" 
     transform="rotate(31.4859 272.8481 332.3693)"    /> 
  <path
     style="fill:none;stroke:#5800ac;stroke-width:1px;stroke-linecap:butt;stroke-linejoin:miter;stroke-opacity:1"
    d="m 273.5981,330.3693 2,2 -2,2 m -1.5,-4 -2,2 2,2" transform="rotate(31.4859 272.8481 332.3693)"/>
  <line x1="256.6760" y1="302.5624" x2="256.7141" y2="282.7044" stroke="#de6e00" stroke-width="1.0" />
  <rect
     style="fill:#ffffff;fill-opacity:1;fill-rule:nonzero;stroke:none"
     width="2"
     height="2"
     x="256.1951"
     y="291.6334"
     transform="rotate(-89.8902 256.6951 292.6334)" /> 
  <path
     style="fill:none;stroke:#de6e00;stroke-width:1px;stroke-linecap:butt;stroke-linejoin:miter;stroke-opacity:1"
     d="m 256.6951,290.6334 2,2 -2,2 m -2.370121,-4 2,2 -2,2"
     transform="rotate(-89.8902 256.6951 292.6334)"/>
  <line x1="256.7141" y1="282.7044" x2="256.7464" y2="262.8564" stroke="#270026" stroke-width="1.0" />
  <rect
     style="fill:#ffffff;fill-opacity:1;fill-rule:nonzero;stroke:none"
     width="2"
     height="2"
     x="256.2303"
     y="271.7804"
     transform="rotate(-89.9066 256.7303 272.7804)" /> 
  <path
     style="fill:none;stroke:#270026;stroke-width:1px;stroke-linecap:butt;stroke-linejoin:miter;stroke-opacity:1"
     d="m 256.7303,270.7804 2,2 -2,2 m -2.370121,-4 2,2 -2,2"
     transform="rotate(-89.9066 256.7303 272.7804)"/>
  <line x1="256.7806" y1="243.0206" x2="256.8293" y2="223.2009" stroke="#000000" stroke-width="1.0" />
  <rect
     style="fill:#ffffff;fill-opacity:1;fill-rule:nonzero;stroke:none"
     width="2"
     height="2"
     x="256.3049"
     y="232.1107"
     transform="rotate(-89.8591 256.8049 233.1107)" /> 
  <path
     style="fill:none;stroke:#000000;stroke-width:1px;stroke-linecap:butt;stroke-linejoin:miter;stroke-opacity:1"
     d="m 256.8049,231.1107 2,2 -2,2 m -2.370121,-4 2,2 -2,2"
     transform="rotate(-89.8591 256.8049 233.1107)"/>
  <line x1="256.7806" y1="243.0206" x2="289.2552" y2="262.8518" stroke="#270026" stroke-width="1.0" />
  <rect
     style="fill:#ffffff;stroke:none"
     width="5.5"
     height="2"
     x="270.2679"
     y="251.9362" 
     transform="rotate(31.4111 273.0179 252.9362)"    /> 
  <path
     style="fill:none;stroke:#270026;stroke-width:1px;stroke-linecap:butt;stroke-linejoin:miter;stroke-opacity:1"
    d="m 273.7679,250.9362 2,2 -2,2 m -1.5,-4 -2,2 2,2" transform="rotate(31.4111 273.0179 252.9362)"/>
  <line x1="256.8293" y1="223.2009" x2="256.8570" y2="203.4013" stroke="#7e04ff" stroke-width="1.0" />
  <rect
     style="fill:#ffffff;fill-opacity:1;fill-rule:nonzero;stroke:none"
     width="2"
     height="2"
     x="256.3432"
     y="212.3011"
     transform="rotate(-89.9199 256.8432 213.3011)" /> 
  <path
     style="fill:none;stroke:#7e04ff;stroke-width:1px;stroke-linecap:butt;stroke-linejoin:miter;stroke-opacity:1"
     d="m 256.8432,211.3011 2,2 -2,2 m -2.370121,-4 2,2 -2,2"
     transform="rotate(-89.9199 256.8432 213.3011)"/>
  <line x1="256.8302" y1="224.4509" x2="289.3301" y2="224.4281" stroke="#000000" stroke-width="1.0" />
  <line x1="256.8284" y1="221.9509" x2="289.3284" y2="221.9281" stroke="#000000" stroke-width="1.0" />
  <line x1="256.8570" y1="203.4013" x2="256.9684" y2="183.6246" stroke="#6d02e7" stroke-width="1.0" />
  <rect
     style="fill:#ffffff;fill-opacity:1;fill-rule:nonzero;stroke:none"
     width="2"
     height="2"
     x="256.4127"
     y="192.5130"
     transform="rotate(-89.6773 256.9127 193.5130)" /> 
  <path
     style="fill:none;stroke:#6d02e7;stroke-width:1px;stroke-linecap:butt;stroke-linejoin:miter;stroke-opacity:1"
     d="m 256.9127,191.5130 2,2 -2,2 m -2.370121,-4 2,2 -2,2"
     transform="rotate(-89.6773 256.9127 193.5130)"/>
  <line x1="256.8545" y1="201.8013" x2="289.3987" y2="201.7510" stroke="#6301ce" stroke-width="1.0" />
  <line x1="256.8570" y1="203.4013" x2="289.3293" y2="223.1781" stroke="#efaf00" stroke-width="1.0" />
  <rect
     style="fill:#ffffff;stroke:none"
     width="5.5"
     height="2"
     x="270.3431"
     y="212.2897" 
     transform="rotate(31.3430 273.0931 213.2897)"    /> 
  <path
     style="fill:none;stroke:#efaf00;stroke-width:1px;stroke-linecap:butt;stroke-linejoin:miter;stroke-opacity:1"
    d="m 273.8431,211.2897 2,2 -2,2 m -1.5,-4 -2,2 2,2" transform="rotate(31.3430 273.0931 213.2897)"/>
  <line x1="256.9684" y1="183.6246" x2="257.0502" y2="163.8687" stroke="#6d02e7" stroke-width="1.0" />
  <rect
     style="fill:#ffffff;fill-opacity:1;fill-rule:nonzero;stroke:none"
     width="2"
     height="2"
     x="256.5093"
     y="172.7466"
     transform="rotate(-89.7629 257.0093 173.7466)" /> 
  <path
     style="fill:none;stroke:#6d02e7;stroke-width:1px;stroke-linecap:butt;stroke-linejoin:miter;stroke-opacity:1"
     d="m 257.0093,171.7466 2,2 -2,2 m -2.370121,-4 2,2 -2,2"
     transform="rotate(-89.7629 257.0093 173.7466)"/>
  <line x1="256.9723" y1="184.8746" x2="289.4722" y2="184.7737" stroke="#270026" stroke-width="1.0" />
  <line x1="256.9645" y1="182.3746" x2="289.4644" y2="182.2737" stroke="#270026" stroke-width="1.0" />
  <line x1="257.0572" y1="165.1186" x2="289.5565" y2="164.9344" stroke="#270026" stroke-width="1.0" />
  <line x1="257.0431" y1="162.6187" x2="289.5423" y2="162.4345" stroke="#270026" stroke-width="1.0" />
  <line x1="257.0502" y1="163.8687" x2="289.4683" y2="183.5237" stroke="#eb9d00" stroke-width="1.0" />
  <rect
     style="fill:#ffffff;stroke:none"
     width="5.5"
     height="2"
     x="270.5092"
     y="172.6962" 
     transform="rotate(31.2283 273.2592 173.6962)"    /> 
  <path
     style="fill:none;stroke:#eb9d00;stroke-width:1px;stroke-linecap:butt;stroke-linejoin:miter;stroke-opacity:1"
    d="m 274.0092,171.6962 2,2 -2,2 m -1.5,-4 -2,2 2,2" transform="rotate(31.2283 273.2592 173.6962)"/>
  <line x1="257.0423" y1="144.1303" x2="256.8046" y2="124.3962" stroke="#a0109e" stroke-width="1.0" />
  <rect
     style="fill:#ffffff;fill-opacity:1;fill-rule:nonzero;stroke:none"
     width="2"
     height="2"
     x="256.4235"
     y="133.2633"
     transform="rotate(269.3097 256.9235 134.2633)" /> 
  <path
     style="fill:none;stroke:#a0109e;stroke-width:1px;stroke-linecap:butt;stroke-linejoin:miter;stroke-opacity:1"
     d="m 256.9235,132.2633 2,2 -2,2 m -2.370121,-4 2,2 -2,2"
     transform="rotate(269.3097 256.9235 134.2633)"/>
  <line x1="257.0546" y1="145.3802" x2="289.5521" y2="145.0601" stroke="#270026" stroke-width="1.0" />
  <line x1="257.0300" y1="142.8804" x2="289.5275" y2="142.5603" stroke="#270026" stroke-width="1.0" />
  <line x1="257.0423" y1="144.1303" x2="289.5494" y2="163.6845" stroke="#270026" stroke-width="1.0" />
  <rect
     style="fill:#ffffff;stroke:none"
     width="5.5"
     height="2"
     x="270.5459"
     y="152.9074" 
     transform="rotate(31.0284 273.2959 153.9074)"    /> 
  <path
     style="fill:none;stroke:#270026;stroke-width:1px;stroke-linecap:butt;stroke-linejoin:miter;stroke-opacity:1"
    d="m 274.0459,151.9074 2,2 -2,2 m -1.5,-4 -2,2 2,2" transform="rotate(31.0284 273.2959 153.9074)"/>
  <line x1="256.8046" y1="124.3962" x2="256.3603" y2="104.5937" stroke="#b21e13" stroke-width="1.0" />
  <rect
     style="fill:#ffffff;fill-opacity:1;fill-rule:nonzero;stroke:none"
     width="2"
     height="2"
     x="256.0824"
     y="113.4950"
     transform="rotate(268.7147 256.5824 114.4950)" /> 
  <path
     style="fill:none;stroke:#b21e13;stroke-width:1px;stroke-linecap:butt;stroke-linejoin:miter;stroke-opacity:1"
     d="m 256.5824,112.4950 2,2 -2,2 m -2.370121,-4 2,2 -2,2"
     transform="rotate(268.7147 256.5824 114.4950)"/>
  <line x1="256.8046" y1="124.3962" x2="289.2521" y2="123.8809" stroke="#270026" stroke-width="1.0" />
  <line x1="256.3603" y1="104.5937" x2="265.2502" y2="86.8783" stroke="#c13000" stroke-width="1.0" />
  <rect
     style="fill:#ffffff;fill-opacity:1;fill-rule:nonzero;stroke:none"
     width="2"
     height="2"
     x="260.3052"
     y="94.7360"
     transform="rotate(-63.3516 260.8052 95.7360)" /> 
  <path
     style="fill:none;stroke:#c13000;stroke-width:1px;stroke-linecap:butt;stroke-linejoin:miter;stroke-opacity:1"
     d="m 260.8052,93.7360 2,2 -2,2 m -2.370121,-4 2,2 -2,2"
     transform="rotate(-63.3516 260.8052 95.7360)"/>
  <line x1="256.3860" y1="105.8434" x2="288.8293" y2="105.1749" stroke="#000000" stroke-width="1.0" />
  <line x1="256.3345" y1="103.3440" x2="288.7778" y2="102.6754" stroke="#000000" stroke-width="1.0" />
  <line x1="265.2081" y1="86.5308" x2="284.8272" y2="84.1516" stroke="#7e04ff" stroke-width="1.0" />
  <line x1="264.9071" y1="84.0490" x2="284.5262" y2="81.6698" stroke="#7e04ff" stroke-width="1.0" />
  <line x1="265.2502" y1="86.8783" x2="288.8036" y2="103.9252" stroke="#e78c00" stroke-width="1.0" />
  <rect
     style="fill:#ffffff;stroke:none"
     width="5.5"
     height="2"
     x="274.2769"
     y="94.4017" 
     transform="rotate(35.8953 277.0269 95.4017)"    /> 
  <path
     style="fill:none;stroke:#e78c00;stroke-width:1px;stroke-linecap:butt;stroke-linejoin:miter;stroke-opacity:1"
    d="m 277.7769,93.4017 2,2 -2,2 m -1.5,-4 -2,2 2,2" transform="rotate(35.8953 277.0269 95.4017)"/>
  <line x1="284.8694" y1="84.4990" x2="288.8036" y2="103.9252" stroke="#a0109e" stroke-width="1.0" />
  <rect
     style="fill:#ffffff;fill-opacity:1;fill-rule:nonzero;stroke:none"
     width="2"
     height="2"
     x="286.3365"
     y="93.2121"
     transform="rotate(78.5512 286.8365 94.2121)" /> 
  <path
     style="fill:none;stroke:#a0109e;stroke-width:1px;stroke-linecap:butt;stroke-linejoin:miter;stroke-opacity:1"
     d="m 286.8365,92.2121 2,2 -2,2 m -2.370121,-4 2,2 -2,2"
     transform="rotate(78.5512 286.8365 94.2121)"/>
  <line x1="288.8036" y1="103.9252" x2="289.2521" y2="123.8809" stroke="#9309df" stroke-width="1.0" />
  <rect
     style="fill:#ffffff;fill-opacity:1;fill-rule:nonzero;stroke:none"
     width="2"
     height="2"
     x="288.5278"
     y="112.9031"
     transform="rotate(88.7126 289.0278 113.9031)" /> 
  <path
     style="fill:none;stroke:#9309df;stroke-width:1px;stroke-linecap:butt;stroke-linejoin:miter;stroke-opacity:1"
     d="m 289.0278,111.9031 2,2 -2,2 m -2.370121,-4 2,2 -2,2"
     transform="rotate(88.7126 289.0278 113.9031)"/>
  <line x1="289.2521" y1="123.8809" x2="289.5398" y2="143.8102" stroke="#8405fd" stroke-width="1.0" />
  <rect
     style="fill:#ffffff;fill-opacity:1;fill-rule:nonzero;stroke:none"
     width="2"
     height="2"
     x="288.8959"
     y="132.8456"
     transform="rotate(89.1728 289.3959 133.8456)" /> 
  <path
     style="fill:none;stroke:#8405fd;stroke-width:1px;stroke-linecap:butt;stroke-linejoin:miter;stroke-opacity:1"
     d="m 289.3959,131.8456 2,2 -2,2 m -2.370121,-4 2,2 -2,2"
     transform="rotate(89.1728 289.3959 133.8456)"/>
  <line x1="289.5494" y1="163.6845" x2="289.4683" y2="183.5237" stroke="#e27c00" stroke-width="1.0" />
  <rect
     style="fill:#ffffff;fill-opacity:1;fill-rule:nonzero;stroke:none"
     width="2"
     height="2"
     x="289.0089"
     y="172.6041"
     transform="rotate(90.2343 289.5089 173.6041)" /> 
  <path
     style="fill:none;stroke:#e27c00;stroke-width:1px;stroke-linecap:butt;stroke-linejoin:miter;stroke-opacity:1"
     d="m 289.5089,171.6041 2,2 -2,2 m -2.370121,-4 2,2 -2,2"
     transform="rotate(90.2343 289.5089 173.6041)"/>
  <line x1="289.4683" y1="183.5237" x2="289.4012" y2="203.3510" stroke="#a61473" stroke-width="1.0" />
  <rect
     style="fill:#ffffff;fill-opacity:1;fill-rule:nonzero;stroke:none"
     width="2"
     height="2"
     x="288.9347"
     y="192.4373"
     transform="rotate(90.1940 289.4347 193.4373)" /> 
  <path
     style="fill:none;stroke:#a61473;stroke-width:1px;stroke-linecap:butt;stroke-linejoin:miter;stroke-opacity:1"
     d="m 289.4347,191.4373 2,2 -2,2 m -2.370121,-4 2,2 -2,2"
     transform="rotate(90.1940 289.4347 193.4373)"/>
  <line x1="289.4012" y1="203.3510" x2="289.3293" y2="223.1781" stroke="#b21e13" stroke-width="1.0" />
  <rect
     style="fill:#ffffff;fill-opacity:1;fill-rule:nonzero;stroke:none"
     width="2"
     height="2"
     x="288.8652"
     y="212.2645"
     transform="rotate(90.2077 289.3652 213.2645)" /> 
  <path
     style="fill:none;stroke:#b21e13;stroke-width:1px;stroke-linecap:butt;stroke-linejoin:miter;stroke-opacity:1"
     d="m 289.3652,211.2645 2,2 -2,2 m -2.370121,-4 2,2 -2,2"
     transform="rotate(90.2077 289.3652 213.2645)"/>
  <line x1="289.3293" y1="223.1781" x2="289.2805" y2="243.0109" stroke="#000000" stroke-width="1.0" />
  <rect
     style="fill:#ffffff;fill-opacity:1;fill-rule:nonzero;stroke:none"
     width="2"
     height="2"
     x="288.8049"
     y="232.0945"
     transform="rotate(90.1409 289.3049 233.0945)" /> 
  <path
     style="fill:none;stroke:#000000;stroke-width:1px;stroke-linecap:butt;stroke-linejoin:miter;stroke-opacity:1"
     d="m 289.3049,231.0945 2,2 -2,2 m -2.370121,-4 2,2 -2,2"
     transform="rotate(90.1409 289.3049 233.0945)"/>
  <line x1="289.2552" y1="262.8518" x2="289.2221" y2="282.7013" stroke="#270026" stroke-width="1.0" />
  <rect
     style="fill:#ffffff;fill-opacity:1;fill-rule:nonzero;stroke:none"
     width="2"
     height="2"
     x="288.7387"
     y="271.7766"
     transform="rotate(90.0954 289.2387 272.7766)" /> 
  <path
     style="fill:none;stroke:#270026;stroke-width:1px;stroke-linecap:butt;stroke-linejoin:miter;stroke-opacity:1"
     d="m 289.2387,270.7766 2,2 -2,2 m -2.370121,-4 2,2 -2,2"
     transform="rotate(90.0954 289.2387 272.7766)"/>
  <line x1="289.2221" y1="282.7013" x2="289.1792" y2="302.5600" stroke="#4b0084" stroke-width="1.0" />
  <rect
     style="fill:#ffffff;fill-opacity:1;fill-rule:nonzero;stroke:none"
     width="2"
     height="2"
     x="288.7006"
     y="291.6307"
     transform="rotate(90.1240 289.2006 292.6307)" /> 
  <path
     style="fill:none;stroke:#4b0084;stroke-width:1px;stroke-linecap:butt;stroke-linejoin:miter;stroke-opacity:1"
     d="m 289.2006,290.6307 2,2 -2,2 m -2.370121,-4 2,2 -2,2"
     transform="rotate(90.1240 289.2006 292.6307)"/>
  <line x1="289.1792" y1="302.5600" x2="289.1407" y2="322.4286" stroke="#a0109e" stroke-width="1.0" />
  <rect
     style="fill:#ffffff;fill-opacity:1;fill-rule:nonzero;stroke:none"
     width="2"
     height="2"
     x="288.6599"
     y="311.4943"
     transform="rotate(90.1109 289.1599 312.4943)" /> 
  <path
     style="fill:none;stroke:#a0109e;stroke-width:1px;stroke-linecap:butt;stroke-linejoin:miter;stroke-opacity:1"
     d="m 289.1599,310.4943 2,2 -2,2 m -2.370121,-4 2,2 -2,2"
     transform="rotate(90.1109 289.1599 312.4943)"/>
  <line x1="289.1407" y1="322.4286" x2="289.0767" y2="342.3087" stroke="#efaf00" stroke-width="1.0" />
  <rect
     style="fill:#ffffff;fill-opacity:1;fill-rule:nonzero;stroke:none"
     width="2"
     height="2"
     x="288.6087"
     y="331.3686"
     transform="rotate(90.1846 289.1087 332.3686)" /> 
  <path
     style="fill:none;stroke:#efaf00;stroke-width:1px;stroke-linecap:butt;stroke-linejoin:miter;stroke-opacity:1"
     d="m 289.1087,330.3686 2,2 -2,2 m -2.370121,-4 2,2 -2,2"
     transform="rotate(90.1846 289.1087 332.3686)"/>
  <line x1="289.0767" y1="342.3087" x2="289.0248" y2="362.2019" stroke="#000000" stroke-width="1.0" />
  <rect
     style="fill:#ffffff;fill-opacity:1;fill-rule:nonzero;stroke:none"
     width="2"
     height="2"
     x="288.5507"
     y="351.2553"
     transform="rotate(90.1494 289.0507 352.2553)" /> 
  <path
     style="fill:none;stroke:#000000;stroke-width:1px;stroke-linecap:butt;stroke-linejoin:miter;stroke-opacity:1"
     d="m 289.0507,350.2553 2,2 -2,2 m -2.370121,-4 2,2 -2,2"
     transform="rotate(90.1494 289.0507 352.2553)"/>
  <line x1="289.0248" y1="362.2019" x2="288.9571" y2="382.1100" stroke="#8405fd" stroke-width="1.0" />
  <rect
     style="fill:#ffffff;fill-opacity:1;fill-rule:nonzero;stroke:none"
     width="2"
     height="2"
     x="288.4910"
     y="371.1560"
     transform="rotate(90.1948 288.9910 372.1560)" /> 
  <path
     style="fill:none;stroke:#8405fd;stroke-width:1px;stroke-linecap:butt;stroke-linejoin:miter;stroke-opacity:1"
     d="m 288.9910,370.1560 2,2 -2,2 m -2.370121,-4 2,2 -2,2"
     transform="rotate(90.1948 288.9910 372.1560)"/>
  <line x1="288.9571" y1="382.1100" x2="288.8946" y2="402.0347" stroke="#7602f8" stroke-width="1.0" />
  <rect
     style="fill:#ffffff;fill-opacity:1;fill-rule:nonzero;stroke:none"
     width="2"
     height="2"
     x="288.4259"
     y="391.0724"
     transform="rotate(90.1798 288.9259 392.0724)" /> 
  <path
     style="fill:none;stroke:#7602f8;stroke-width:1px;stroke-linecap:butt;stroke-linejoin:miter;stroke-opacity:1"
     d="m 288.9259,390.0724 2,2 -2,2 m -2.370121,-4 2,2 -2,2"
     transform="rotate(90.1798 288.9259 392.0724)"/>
  <line x1="288.8319" y1="421.9772" x2="288.7695" y2="441.9383" stroke="#8b07f3" stroke-width="1.0" />
  <rect
     style="fill:#ffffff;fill-opacity:1;fill-rule:nonzero;stroke:none"
     width="2"
     height="2"
     x="288.3007"
     y="430.9577"
     transform="rotate(90.1793 288.8007 431.9577)" /> 
  <path
     style="fill:none;stroke:#8b07f3;stroke-width:1px;stroke-linecap:butt;stroke-linejoin:miter;stroke-opacity:1"
     d="m 288.8007,429.9577 2,2 -2,2 m -2.370121,-4 2,2 -2,2"
     transform="rotate(90.1793 288.8007 431.9577)"/>
  <line x1="288.7695" y1="441.9383" x2="288.7073" y2="461.9187" stroke="#270026" stroke-width="1.0" />
  <rect
     style="fill:#ffffff;fill-opacity:1;fill-rule:nonzero;stroke:none"
     width="2"
     height="2"
     x="288.2384"
     y="450.9285"
     transform="rotate(90.1782 288.7384 451.9285)" /> 
  <path
     style="fill:none;stroke:#270026;stroke-width:1px;stroke-linecap:butt;stroke-linejoin:miter;stroke-opacity:1"
     d="m 288.7384,449.9285 2,2 -2,2 m -2.370121,-4 2,2 -2,2"
     transform="rotate(90.1782 288.7384 451.9285)"/>
<circle cx="256.2070" cy="461.9060" r="5.0" stroke="#595959" stroke-width="1.0" fill="#ffffff"/>
<text x="256.2070" y="464.6060" text-anchor="middle" font-family="Helvetica" font-size="7.5" fill="#000000" >A</text>
<circle cx="256.2695" cy="441.9265" r="5.0" stroke="#595959" stroke-width="1.0" fill="#ffffff"/>
<text x="256.2695" y="444.6265" text-anchor="middle" font-family="Helvetica" font-size="7.5" fill="#000000" >C</text>
<circle cx="256.3319" cy="421.9669" r="5.0" stroke="#595959" stroke-width="1.0" fill="#ffffff"/>
<text x="256.3319" y="424.6669" text-anchor="middle" font-family="Helvetica" font-size="7.5" fill="#000000" >U</text>
<circle cx="256.3946" cy="402.0266" r="5.0" stroke="#595959" stroke-width="1.0" fill="#ffffff"/>
<text x="256.3946" y="404.7266" text-anchor="middle" font-family="Helvetica" font-size="7.5" fill="#000000" >G</text>
<circle cx="256.4571" cy="382.1045" r="5.0" stroke="#595959" stroke-width="1.0" fill="#ffffff"/>
<text x="256.4571" y="384.8045" text-anchor="middle" font-family="Helvetica" font-size="7.5" fill="#000000" >G</text>
<circle cx="256.5118" cy="362.1990" r="5.0" stroke="#595959" stroke-width="1.0" fill="#ffffff"/>
<text x="256.5118" y="364.8990" text-anchor="middle" font-family="Helvetica" font-size="7.5" fill="#000000" >A</text>
<circle cx="256.5766" cy="342.3082" r="5.0" stroke="#595959" stroke-width="1.0" fill="#ffffff"/>
<text x="256.5766" y="345.0082" text-anchor="middle" font-family="Helvetica" font-size="7.5" fill="#000000" >C</text>
<circle cx="256.6196" cy="322.4299" r="5.0" stroke="#595959" stroke-width="1.0" fill="#ffffff"/>
<text x="256.6196" y="325.1299" text-anchor="middle" font-family="Helvetica" font-size="7.5" fill="#000000" >A</text>
<circle cx="256.6760" cy="302.5624" r="5.0" stroke="#595959" stroke-width="1.0" fill="#ffffff"/>
<text x="256.6760" y="305.2624" text-anchor="middle" font-family="Helvetica" font-size="7.5" fill="#000000" >I</text>
<circle cx="256.7141" cy="282.7044" r="5.0" stroke="#595959" stroke-width="1.0" fill="#ffffff"/>
<text x="256.7141" y="285.4044" text-anchor="middle" font-family="Helvetica" font-size="7.5" fill="#000000" >I</text>
<circle cx="256.7464" cy="262.8564" r="5.0" stroke="#595959" stroke-width="1.0" fill="#ffffff"/>
<text x="256.7464" y="265.5564" text-anchor="middle" font-family="Helvetica" font-size="7.5" fill="#000000" >U</text>
<circle cx="256.7806" cy="243.0206" r="5.0" stroke="#595959" stroke-width="1.0" fill="#ffffff"/>
<text x="256.7806" y="245.7206" text-anchor="middle" font-family="Helvetica" font-size="7.5" fill="#000000" >I</text>
<circle cx="256.8293" cy="223.2009" r="5.0" stroke="#595959" stroke-width="1.0" fill="#ffffff"/>
<text x="256.8293" y="225.9009" text-anchor="middle" font-family="Helvetica" font-size="7.5" fill="#000000" >C</text>
<circle cx="256.8570" cy="203.4013" r="5.0" stroke="#595959" stroke-width="1.0" fill="#ffffff"/>
<text x="256.8570" y="206.1013" text-anchor="middle" font-family="Helvetica" font-size="7.5" fill="#000000" >U</text>
<circle cx="256.9684" cy="183.6246" r="5.0" stroke="#595959" stroke-width="1.0" fill="#ffffff"/>
<text x="256.9684" y="186.3246" text-anchor="middle" font-family="Helvetica" font-size="7.5" fill="#000000" >C</text>
<circle cx="257.0502" cy="163.8687" r="5.0" stroke="#595959" stroke-width="1.0" fill="#ffffff"/>
<text x="257.0502" y="166.5687" text-anchor="middle" font-family="Helvetica" font-size="7.5" fill="#000000" >C</text>
<circle cx="257.0423" cy="144.1303" r="5.0" stroke="#595959" stroke-width="1.0" fill="#ffffff"/>
<text x="257.0423" y="146.8303" text-anchor="middle" font-family="Helvetica" font-size="7.5" fill="#000000" >G</text>
<circle cx="256.8046" cy="124.3962" r="5.0" stroke="#595959" stroke-width="1.0" fill="#ffffff"/>
<text x="256.8046" y="127.0962" text-anchor="middle" font-family="Helvetica" font-size="7.5" fill="#000000" >A</text>
<circle cx="256.3603" cy="104.5937" r="5.0" stroke="#595959" stroke-width="1.0" fill="#ffffff"/>
<text x="256.3603" y="107.2937" text-anchor="middle" font-family="Helvetica" font-size="7.5" fill="#000000" >G</text>
<circle cx="265.2502" cy="86.8783" r="5.0" stroke="#595959" stroke-width="1.0" fill="#ffffff"/>
<text x="265.2502" y="89.5783" text-anchor="middle" font-family="Helvetica" font-size="7.5" fill="#000000" >G</text>
<circle cx="284.8694" cy="84.4990" r="5.0" stroke="#595959" stroke-width="1.0" fill="#ffffff"/>
<text x="284.8694" y="87.1990" text-anchor="middle" font-family="Helvetica" font-size="7.5" fill="#000000" >C</text>
<circle cx="288.8036" cy="103.9252" r="5.0" stroke="#595959" stroke-width="1.0" fill="#ffffff"/>
<text x="288.8036" y="106.6252" text-anchor="middle" font-family="Helvetica" font-size="7.5" fill="#000000" >C</text>
<circle cx="289.2521" cy="123.8809" r="5.0" stroke="#595959" stroke-width="1.0" fill="#ffffff"/>
<text x="289.2521" y="126.5809" text-anchor="middle" font-family="Helvetica" font-size="7.5" fill="#000000" >U</text>
<circle cx="289.5398" cy="143.8102" r="5.0" stroke="#595959" stroke-width="1.0" fill="#ffffff"/>
<text x="289.5398" y="146.5102" text-anchor="middle" font-family="Helvetica" font-size="7.5" fill="#000000" >C</text>
<circle cx="289.5494" cy="163.6845" r="5.0" stroke="#595959" stroke-width="1.0" fill="#ffffff"/>
<text x="289.5494" y="166.3845" text-anchor="middle" font-family="Helvetica" font-size="7.5" fill="#000000" >G</text>
<circle cx="289.4683" cy="183.5237" r="5.0" stroke="#595959" stroke-width="1.0" fill="#ffffff"/>
<text x="289.4683" y="186.2237" text-anchor="middle" font-family="Helvetica" font-size="7.5" fill="#000000" >G</text>
<circle cx="289.4012" cy="203.3510" r="5.0" stroke="#595959" stroke-width="1.0" fill="#ffffff"/>
<text x="289.4012" y="206.0510" text-anchor="middle" font-family="Helvetica" font-size="7.5" fill="#000000" >A</text>
<circle cx="289.3293" cy="223.1781" r="5.0" stroke="#595959" stroke-width="1.0" fill="#ffffff"/>
<text x="289.3293" y="225.8781" text-anchor="middle" font-family="Helvetica" font-size="7.5" fill="#000000" >G</text>
<circle cx="289.2805" cy="243.0109" r="5.0" stroke="#595959" stroke-width="1.0" fill="#ffffff"/>
<text x="289.2805" y="245.7109" text-anchor="middle" font-family="Helvetica" font-size="7.5" fill="#000000" >U</text>
<circle cx="289.2552" cy="262.8518" r="5.0" stroke="#595959" stroke-width="1.0" fill="orange"/>
<text x="289.2552" y="265.5518" text-anchor="middle" font-family="Helvetica" font-size="7.5" fill="#000000" >I</text>
<circle cx="289.2221" cy="282.7013" r="5.0" stroke="#595959" stroke-width="1.0" fill="orange"/>
<text x="289.2221" y="285.4013" text-anchor="middle" font-family="Helvetica" font-size="7.5" fill="#000000" >U</text>
<circle cx="289.1792" cy="302.5600" r="5.0" stroke="#595959" stroke-width="1.0" fill="#ffffff"/>
<text x="289.1792" y="305.2600" text-anchor="middle" font-family="Helvetica" font-size="7.5" fill="#000000" >U</text>
<circle cx="289.1407" cy="322.4286" r="5.0" stroke="#595959" stroke-width="1.0" fill="#ffffff"/>
<text x="289.1407" y="325.1286" text-anchor="middle" font-family="Helvetica" font-size="7.5" fill="#000000" >U</text>
<circle cx="289.0767" cy="342.3087" r="5.0" stroke="#595959" stroke-width="1.0" fill="#ffffff"/>
<text x="289.0767" y="345.0087" text-anchor="middle" font-family="Helvetica" font-size="7.5" fill="#000000" >G</text>
<circle cx="289.0248" cy="362.2019" r="5.0" stroke="#595959" stroke-width="1.0" fill="#ffffff"/>
<text x="289.0248" y="364.9019" text-anchor="middle" font-family="Helvetica" font-size="7.5" fill="#000000" >U</text>
<circle cx="288.9571" cy="382.1100" r="5.0" stroke="#595959" stroke-width="1.0" fill="#ffffff"/>
<text x="288.9571" y="384.8100" text-anchor="middle" font-family="Helvetica" font-size="7.5" fill="#000000" >C</text>
<circle cx="288.8946" cy="402.0347" r="5.0" stroke="#595959" stroke-width="1.0" fill="#ffffff"/>
<text x="288.8946" y="404.7347" text-anchor="middle" font-family="Helvetica" font-size="7.5" fill="#000000" >C</text>
<circle cx="288.8319" cy="421.9772" r="5.0" stroke="#595959" stroke-width="1.0" fill="#ffffff"/>
<text x="288.8319" y="424.6772" text-anchor="middle" font-family="Helvetica" font-size="7.5" fill="#000000" >A</text>
<circle cx="288.7695" cy="441.9383" r="5.0" stroke="#595959" stroke-width="1.0" fill="#ffffff"/>
<text x="288.7695" y="444.6383" text-anchor="middle" font-family="Helvetica" font-size="7.5" fill="#000000" >G</text>
<circle cx="288.7073" cy="461.9187" r="5.0" stroke="#595959" stroke-width="1.0" fill="#ffffff"/>
<text x="288.7073" y="464.6187" text-anchor="middle" font-family="Helvetica" font-size="7.5" fill="#000000" >U</text>
</svg>
